M48
;GenerationSoftware,Autodesk,EAGLE,9.6.2*%
;CreationDate,2022-11-28T06:19:55Z*%
FMAT,2
ICI,OFF
METRIC,TZ,000.000
T4C0.200
T3C0.250
T2C0.300
T1C0.650
%
G90
M71
T1
X14907Y9746
X14907Y11016
X14907Y2126
X8083Y-151
X9353Y-151
X14907Y3396
X6813Y-151
X10623Y-151
X5543Y-151
X25Y2102
X11893Y-151
X4273Y-151
X3003Y-151
X25Y7182
X25Y5912
X25Y9722
X14907Y7206
X25Y4642
X25Y10992
X25Y3372
X14907Y4666
X25Y8452
X14907Y8476
X14907Y5936
T2
X2268Y4533
X9900Y11670
X10445Y9654
X7538Y2090
X1765Y7648
X12220Y6565
X2650Y3985
X9361Y3841
X940Y1550
X887Y10169
X871Y9372
X1987Y12497
T3
X14238Y17798
X13538Y16598
X12838Y16598
X14238Y16598
X13538Y13848
X12888Y13848
X14238Y13848
T4
X13488Y12753
X13278Y6456
X9884Y12757
X6301Y16284
X6538Y17798
X5888Y17798
X5238Y17798
X4574Y17798
X3954Y17807
X5287Y16831
X4587Y16831
X4237Y16291
X4937Y16291
X6270Y12538
X13272Y2484
X503Y17821
X1200Y17809
X1918Y17809
X2613Y17803
X3313Y17819
X2378Y14400
X5637Y16291
X5887Y16831
X6537Y16831
X4887Y17331
X5537Y17331
X6237Y17331
X4187Y17331
X7288Y17798
X7988Y17798
X8688Y17798
X10038Y17798
X10688Y17798
X4952Y7130
X9388Y17798
X13088Y17798
X8737Y4329
X6887Y17331
X6718Y15933
X6307Y15523
X8508Y7130
X8508Y8400
X8508Y9670
X7492Y9670
X7492Y10686
X6222Y10686
X9181Y15525
X9881Y14925
X10181Y16275
X10681Y15825
X12081Y16825
X12081Y16125
X12081Y14275
X12081Y13375
X9181Y14925
X12500Y2273
X4952Y10686
X3936Y9670
X3936Y8400
X910Y12863
X1900Y16700
X3131Y4408
X2700Y5100
X2182Y9148
X2184Y7199
X3580Y3964
X4175Y4056
X4743Y4219
X5260Y3919
X5800Y4300
X3750Y16700
X3936Y7130
X6264Y3909
X6790Y4253
X10700Y4600
X10895Y8148
X1831Y10653
X1550Y13000
X2145Y10148
X1426Y15153
X1845Y9648
X1420Y14566
X1900Y15600
X1407Y13900
X3657Y12464
X10100Y1200
X4952Y8400
X4952Y9670
X4952Y6114
X6222Y6114
X11338Y17798
X7492Y6114
X6222Y7130
X6222Y8400
X6222Y9670
X7492Y8400
X7492Y7130
X6270Y13238
X6270Y13891
X6274Y14594
X6731Y15175
X7921Y12545
X7132Y12545
X10815Y12746
X11841Y12746
X14388Y12753
X11735Y9245
X14388Y11853
X12688Y12753
X3150Y13050
M30