G04 EAGLE Gerber RS-274X export*
G75*
%MOMM*%
%FSLAX34Y34*%
%LPD*%
%INCopper Layer 2*%
%IPPOS*%
%AMOC8*
5,1,8,0,0,1.08239X$1,22.5*%
G01*
%ADD10C,0.975000*%
%ADD11C,0.403200*%
%ADD12C,0.503200*%
%ADD13C,0.152400*%

G36*
X16757Y1869D02*
X16757Y1869D01*
X16873Y1886D01*
X16878Y1889D01*
X16885Y1890D01*
X16987Y1944D01*
X17092Y1997D01*
X17097Y2002D01*
X17102Y2005D01*
X17182Y2089D01*
X17264Y2173D01*
X17268Y2179D01*
X17271Y2183D01*
X17279Y2200D01*
X17345Y2320D01*
X17570Y2862D01*
X19299Y4591D01*
X21557Y5526D01*
X24002Y5526D01*
X26261Y4591D01*
X27990Y2862D01*
X28214Y2320D01*
X28276Y2220D01*
X28336Y2120D01*
X28341Y2116D01*
X28344Y2111D01*
X28434Y2036D01*
X28523Y1960D01*
X28529Y1958D01*
X28534Y1954D01*
X28642Y1912D01*
X28751Y1868D01*
X28759Y1867D01*
X28763Y1866D01*
X28781Y1865D01*
X28918Y1850D01*
X29342Y1850D01*
X29457Y1869D01*
X29573Y1886D01*
X29578Y1889D01*
X29585Y1890D01*
X29687Y1944D01*
X29792Y1997D01*
X29797Y2002D01*
X29802Y2005D01*
X29882Y2089D01*
X29964Y2173D01*
X29968Y2179D01*
X29971Y2183D01*
X29979Y2200D01*
X30045Y2320D01*
X30270Y2862D01*
X31999Y4591D01*
X34257Y5526D01*
X36702Y5526D01*
X38961Y4591D01*
X40690Y2862D01*
X40914Y2320D01*
X40976Y2220D01*
X41036Y2120D01*
X41041Y2116D01*
X41044Y2111D01*
X41134Y2036D01*
X41223Y1960D01*
X41229Y1958D01*
X41234Y1954D01*
X41342Y1912D01*
X41451Y1868D01*
X41459Y1867D01*
X41463Y1866D01*
X41481Y1865D01*
X41618Y1850D01*
X42042Y1850D01*
X42157Y1869D01*
X42273Y1886D01*
X42278Y1889D01*
X42285Y1890D01*
X42387Y1944D01*
X42492Y1997D01*
X42497Y2002D01*
X42502Y2005D01*
X42582Y2089D01*
X42664Y2173D01*
X42668Y2179D01*
X42671Y2183D01*
X42679Y2200D01*
X42745Y2320D01*
X42970Y2862D01*
X44699Y4591D01*
X46957Y5526D01*
X49402Y5526D01*
X51661Y4591D01*
X53390Y2862D01*
X53614Y2320D01*
X53676Y2220D01*
X53736Y2120D01*
X53741Y2116D01*
X53744Y2111D01*
X53834Y2036D01*
X53923Y1960D01*
X53929Y1958D01*
X53934Y1954D01*
X54042Y1912D01*
X54151Y1868D01*
X54159Y1867D01*
X54163Y1866D01*
X54181Y1865D01*
X54318Y1850D01*
X54742Y1850D01*
X54857Y1869D01*
X54973Y1886D01*
X54978Y1889D01*
X54985Y1890D01*
X55087Y1944D01*
X55192Y1997D01*
X55197Y2002D01*
X55202Y2005D01*
X55282Y2089D01*
X55364Y2173D01*
X55368Y2179D01*
X55371Y2183D01*
X55379Y2200D01*
X55445Y2320D01*
X55670Y2862D01*
X57399Y4591D01*
X59657Y5526D01*
X62102Y5526D01*
X64361Y4591D01*
X66090Y2862D01*
X66314Y2320D01*
X66376Y2220D01*
X66436Y2120D01*
X66441Y2116D01*
X66444Y2111D01*
X66534Y2036D01*
X66623Y1960D01*
X66629Y1958D01*
X66634Y1954D01*
X66742Y1912D01*
X66851Y1868D01*
X66859Y1867D01*
X66863Y1866D01*
X66881Y1865D01*
X67018Y1850D01*
X67442Y1850D01*
X67557Y1869D01*
X67673Y1886D01*
X67678Y1889D01*
X67685Y1890D01*
X67787Y1944D01*
X67892Y1997D01*
X67897Y2002D01*
X67902Y2005D01*
X67982Y2089D01*
X68064Y2173D01*
X68068Y2179D01*
X68071Y2183D01*
X68079Y2200D01*
X68145Y2320D01*
X68370Y2862D01*
X70099Y4591D01*
X72357Y5526D01*
X74802Y5526D01*
X77061Y4591D01*
X78790Y2862D01*
X79014Y2320D01*
X79076Y2220D01*
X79136Y2120D01*
X79141Y2116D01*
X79144Y2111D01*
X79234Y2036D01*
X79323Y1960D01*
X79329Y1958D01*
X79334Y1954D01*
X79442Y1912D01*
X79551Y1868D01*
X79559Y1867D01*
X79563Y1866D01*
X79581Y1865D01*
X79718Y1850D01*
X80142Y1850D01*
X80257Y1869D01*
X80373Y1886D01*
X80378Y1889D01*
X80385Y1890D01*
X80487Y1944D01*
X80592Y1997D01*
X80597Y2002D01*
X80602Y2005D01*
X80682Y2089D01*
X80764Y2173D01*
X80768Y2179D01*
X80771Y2183D01*
X80779Y2200D01*
X80845Y2320D01*
X81070Y2862D01*
X82799Y4591D01*
X85057Y5526D01*
X87502Y5526D01*
X89761Y4591D01*
X91490Y2862D01*
X91714Y2320D01*
X91776Y2220D01*
X91836Y2120D01*
X91841Y2116D01*
X91844Y2111D01*
X91934Y2036D01*
X92023Y1960D01*
X92029Y1958D01*
X92034Y1954D01*
X92142Y1912D01*
X92251Y1868D01*
X92259Y1867D01*
X92263Y1866D01*
X92281Y1865D01*
X92418Y1850D01*
X92842Y1850D01*
X92957Y1869D01*
X93073Y1886D01*
X93078Y1889D01*
X93085Y1890D01*
X93187Y1944D01*
X93292Y1997D01*
X93297Y2002D01*
X93302Y2005D01*
X93382Y2089D01*
X93464Y2173D01*
X93468Y2179D01*
X93471Y2183D01*
X93479Y2200D01*
X93545Y2320D01*
X93770Y2862D01*
X95499Y4591D01*
X97757Y5526D01*
X100202Y5526D01*
X102461Y4591D01*
X104190Y2862D01*
X104414Y2320D01*
X104476Y2220D01*
X104536Y2120D01*
X104541Y2116D01*
X104544Y2111D01*
X104634Y2036D01*
X104723Y1960D01*
X104729Y1958D01*
X104734Y1954D01*
X104842Y1912D01*
X104951Y1868D01*
X104959Y1867D01*
X104963Y1866D01*
X104981Y1865D01*
X105118Y1850D01*
X105542Y1850D01*
X105657Y1869D01*
X105773Y1886D01*
X105778Y1889D01*
X105785Y1890D01*
X105887Y1944D01*
X105992Y1997D01*
X105997Y2002D01*
X106002Y2005D01*
X106082Y2089D01*
X106164Y2173D01*
X106168Y2179D01*
X106171Y2183D01*
X106179Y2200D01*
X106245Y2320D01*
X106470Y2862D01*
X108199Y4591D01*
X110457Y5526D01*
X112902Y5526D01*
X115161Y4591D01*
X116890Y2862D01*
X117114Y2320D01*
X117176Y2220D01*
X117236Y2120D01*
X117241Y2116D01*
X117244Y2111D01*
X117334Y2036D01*
X117423Y1960D01*
X117429Y1958D01*
X117434Y1954D01*
X117542Y1912D01*
X117651Y1868D01*
X117659Y1867D01*
X117663Y1866D01*
X117681Y1865D01*
X117818Y1850D01*
X181534Y1850D01*
X181554Y1853D01*
X181573Y1851D01*
X181675Y1873D01*
X181777Y1890D01*
X181794Y1899D01*
X181814Y1903D01*
X181903Y1956D01*
X181994Y2005D01*
X182008Y2019D01*
X182025Y2029D01*
X182092Y2108D01*
X182164Y2183D01*
X182172Y2201D01*
X182185Y2216D01*
X182224Y2312D01*
X182267Y2406D01*
X182269Y2426D01*
X182277Y2444D01*
X182295Y2611D01*
X182295Y145113D01*
X182292Y145133D01*
X182294Y145153D01*
X182272Y145254D01*
X182255Y145356D01*
X182246Y145373D01*
X182242Y145393D01*
X182189Y145482D01*
X182140Y145573D01*
X182126Y145587D01*
X182116Y145604D01*
X182037Y145671D01*
X181962Y145743D01*
X181944Y145751D01*
X181929Y145764D01*
X181833Y145803D01*
X181739Y145846D01*
X181719Y145848D01*
X181701Y145856D01*
X181534Y145874D01*
X165514Y145874D01*
X165443Y145863D01*
X165371Y145861D01*
X165323Y145843D01*
X165271Y145835D01*
X165208Y145801D01*
X165140Y145776D01*
X165100Y145744D01*
X165054Y145720D01*
X165004Y145668D01*
X164948Y145623D01*
X164920Y145579D01*
X164884Y145541D01*
X164854Y145476D01*
X164815Y145416D01*
X164803Y145365D01*
X164781Y145318D01*
X164773Y145247D01*
X164755Y145177D01*
X164759Y145125D01*
X164754Y145074D01*
X164769Y145004D01*
X164775Y144932D01*
X164795Y144884D01*
X164806Y144833D01*
X164843Y144772D01*
X164871Y144706D01*
X164902Y144666D01*
X164902Y141905D01*
X164881Y141871D01*
X164821Y141788D01*
X164815Y141769D01*
X164804Y141752D01*
X164779Y141651D01*
X164748Y141552D01*
X164749Y141532D01*
X164744Y141513D01*
X164752Y141410D01*
X164755Y141307D01*
X164761Y141288D01*
X164763Y141268D01*
X164803Y141173D01*
X164839Y141076D01*
X164851Y141060D01*
X164859Y141042D01*
X164964Y140911D01*
X169414Y136461D01*
X169472Y136419D01*
X169524Y136370D01*
X169571Y136348D01*
X169613Y136317D01*
X169682Y136296D01*
X169747Y136266D01*
X169799Y136260D01*
X169849Y136245D01*
X169920Y136247D01*
X169991Y136239D01*
X170042Y136250D01*
X170094Y136251D01*
X170162Y136276D01*
X170232Y136291D01*
X170277Y136318D01*
X170325Y136336D01*
X170381Y136381D01*
X170443Y136417D01*
X170477Y136457D01*
X170517Y136490D01*
X170556Y136550D01*
X170603Y136604D01*
X170622Y136653D01*
X170650Y136697D01*
X170668Y136766D01*
X170695Y136833D01*
X170703Y136904D01*
X170711Y136935D01*
X170709Y136958D01*
X170713Y136999D01*
X170713Y139361D01*
X172639Y141287D01*
X175361Y141287D01*
X177287Y139361D01*
X177287Y136639D01*
X175361Y134713D01*
X172999Y134713D01*
X172929Y134702D01*
X172857Y134700D01*
X172808Y134682D01*
X172757Y134674D01*
X172693Y134640D01*
X172626Y134615D01*
X172585Y134583D01*
X172539Y134558D01*
X172490Y134506D01*
X172434Y134462D01*
X172406Y134418D01*
X172370Y134380D01*
X172340Y134315D01*
X172301Y134255D01*
X172288Y134204D01*
X172266Y134157D01*
X172258Y134086D01*
X172241Y134016D01*
X172245Y133964D01*
X172239Y133913D01*
X172254Y133842D01*
X172260Y133771D01*
X172280Y133723D01*
X172291Y133672D01*
X172328Y133611D01*
X172356Y133545D01*
X172401Y133489D01*
X172417Y133461D01*
X172435Y133446D01*
X172461Y133414D01*
X173365Y132510D01*
X173439Y132457D01*
X173508Y132397D01*
X173539Y132385D01*
X173565Y132366D01*
X173652Y132339D01*
X173737Y132305D01*
X173778Y132301D01*
X173800Y132294D01*
X173832Y132295D01*
X173903Y132287D01*
X175361Y132287D01*
X177287Y130361D01*
X177287Y127639D01*
X175361Y125713D01*
X172639Y125713D01*
X170713Y127639D01*
X170713Y129097D01*
X170699Y129187D01*
X170691Y129278D01*
X170679Y129307D01*
X170674Y129339D01*
X170631Y129420D01*
X170595Y129504D01*
X170569Y129536D01*
X170558Y129557D01*
X170535Y129579D01*
X170490Y129635D01*
X165586Y134539D01*
X165528Y134581D01*
X165476Y134630D01*
X165429Y134652D01*
X165387Y134683D01*
X165318Y134704D01*
X165253Y134734D01*
X165201Y134740D01*
X165151Y134755D01*
X165080Y134753D01*
X165009Y134761D01*
X164958Y134750D01*
X164906Y134749D01*
X164838Y134724D01*
X164768Y134709D01*
X164723Y134682D01*
X164675Y134664D01*
X164619Y134619D01*
X164557Y134583D01*
X164523Y134543D01*
X164483Y134510D01*
X164444Y134450D01*
X164397Y134396D01*
X164378Y134347D01*
X164350Y134303D01*
X164332Y134234D01*
X164305Y134167D01*
X164297Y134096D01*
X164289Y134065D01*
X164291Y134042D01*
X164287Y134001D01*
X164287Y131639D01*
X162361Y129713D01*
X160903Y129713D01*
X160813Y129699D01*
X160722Y129691D01*
X160693Y129679D01*
X160661Y129674D01*
X160580Y129631D01*
X160496Y129595D01*
X160464Y129569D01*
X160443Y129558D01*
X160421Y129535D01*
X160365Y129490D01*
X156890Y126015D01*
X133048Y126015D01*
X133028Y126012D01*
X133009Y126014D01*
X132907Y125992D01*
X132805Y125976D01*
X132788Y125966D01*
X132768Y125962D01*
X132679Y125909D01*
X132588Y125860D01*
X132574Y125846D01*
X132557Y125836D01*
X132490Y125757D01*
X132418Y125682D01*
X132410Y125664D01*
X132397Y125649D01*
X132358Y125553D01*
X132315Y125459D01*
X132313Y125439D01*
X132305Y125421D01*
X132287Y125254D01*
X132287Y122639D01*
X131186Y121538D01*
X131175Y121522D01*
X131159Y121510D01*
X131103Y121422D01*
X131043Y121339D01*
X131037Y121320D01*
X131026Y121303D01*
X131001Y121202D01*
X130971Y121103D01*
X130971Y121084D01*
X130966Y121064D01*
X130974Y120961D01*
X130977Y120858D01*
X130984Y120839D01*
X130985Y120819D01*
X131026Y120724D01*
X131061Y120627D01*
X131074Y120611D01*
X131082Y120593D01*
X131186Y120462D01*
X132287Y119361D01*
X132287Y116639D01*
X130361Y114713D01*
X127639Y114713D01*
X126608Y115744D01*
X126534Y115797D01*
X126464Y115857D01*
X126434Y115869D01*
X126408Y115888D01*
X126321Y115915D01*
X126236Y115949D01*
X126195Y115953D01*
X126173Y115960D01*
X126141Y115959D01*
X126069Y115967D01*
X55157Y115967D01*
X55067Y115953D01*
X54976Y115945D01*
X54947Y115933D01*
X54915Y115928D01*
X54834Y115885D01*
X54750Y115849D01*
X54718Y115823D01*
X54697Y115812D01*
X54675Y115789D01*
X54619Y115744D01*
X50008Y111133D01*
X49955Y111059D01*
X49895Y110990D01*
X49883Y110960D01*
X49864Y110933D01*
X49838Y110847D01*
X49803Y110762D01*
X49799Y110721D01*
X49792Y110698D01*
X49793Y110666D01*
X49785Y110595D01*
X49785Y93324D01*
X47459Y90998D01*
X47406Y90924D01*
X47347Y90855D01*
X47334Y90825D01*
X47316Y90799D01*
X47289Y90712D01*
X47255Y90627D01*
X47250Y90586D01*
X47243Y90564D01*
X47244Y90531D01*
X47236Y90460D01*
X47236Y89579D01*
X45311Y87654D01*
X44657Y87654D01*
X44638Y87650D01*
X44618Y87653D01*
X44517Y87631D01*
X44414Y87614D01*
X44397Y87605D01*
X44377Y87600D01*
X44288Y87547D01*
X44197Y87499D01*
X44183Y87484D01*
X44166Y87474D01*
X44099Y87395D01*
X44028Y87320D01*
X44019Y87302D01*
X44006Y87287D01*
X43968Y87191D01*
X43924Y87097D01*
X43922Y87078D01*
X43914Y87059D01*
X43896Y86892D01*
X43896Y84445D01*
X43588Y84137D01*
X43576Y84121D01*
X43561Y84108D01*
X43505Y84021D01*
X43444Y83937D01*
X43439Y83918D01*
X43428Y83901D01*
X43402Y83801D01*
X43372Y83702D01*
X43373Y83682D01*
X43368Y83663D01*
X43376Y83560D01*
X43378Y83456D01*
X43385Y83437D01*
X43387Y83417D01*
X43427Y83322D01*
X43463Y83225D01*
X43475Y83209D01*
X43483Y83191D01*
X43588Y83060D01*
X45287Y81361D01*
X45287Y78639D01*
X43361Y76713D01*
X40639Y76713D01*
X38713Y78639D01*
X38713Y81361D01*
X39021Y81669D01*
X39033Y81686D01*
X39048Y81698D01*
X39104Y81785D01*
X39165Y81869D01*
X39171Y81888D01*
X39181Y81905D01*
X39207Y82005D01*
X39237Y82104D01*
X39237Y82124D01*
X39242Y82143D01*
X39234Y82246D01*
X39231Y82350D01*
X39224Y82369D01*
X39222Y82389D01*
X39182Y82484D01*
X39146Y82581D01*
X39134Y82597D01*
X39126Y82615D01*
X39021Y82746D01*
X37323Y84445D01*
X37323Y85610D01*
X37321Y85621D01*
X37321Y85627D01*
X37315Y85659D01*
X37311Y85681D01*
X37309Y85752D01*
X37291Y85801D01*
X37283Y85853D01*
X37249Y85916D01*
X37225Y85983D01*
X37192Y86024D01*
X37168Y86070D01*
X37116Y86119D01*
X37071Y86175D01*
X37027Y86204D01*
X36989Y86239D01*
X36924Y86270D01*
X36864Y86308D01*
X36813Y86321D01*
X36766Y86343D01*
X36695Y86351D01*
X36625Y86369D01*
X36574Y86364D01*
X36522Y86370D01*
X36452Y86355D01*
X36380Y86349D01*
X36332Y86329D01*
X36281Y86318D01*
X36220Y86281D01*
X36154Y86253D01*
X36098Y86208D01*
X36070Y86192D01*
X36055Y86174D01*
X36023Y86148D01*
X23256Y73381D01*
X23203Y73307D01*
X23143Y73238D01*
X23131Y73207D01*
X23112Y73181D01*
X23085Y73094D01*
X23051Y73009D01*
X23047Y72968D01*
X23040Y72946D01*
X23041Y72914D01*
X23033Y72843D01*
X23033Y33158D01*
X16510Y26635D01*
X16457Y26561D01*
X16397Y26492D01*
X16385Y26461D01*
X16366Y26435D01*
X16339Y26348D01*
X16305Y26263D01*
X16301Y26222D01*
X16294Y26200D01*
X16295Y26168D01*
X16287Y26097D01*
X16287Y24639D01*
X14361Y22713D01*
X11639Y22713D01*
X9713Y24639D01*
X9713Y27361D01*
X11639Y29287D01*
X13097Y29287D01*
X13187Y29301D01*
X13278Y29309D01*
X13307Y29321D01*
X13339Y29326D01*
X13420Y29369D01*
X13504Y29405D01*
X13536Y29431D01*
X13557Y29442D01*
X13579Y29465D01*
X13635Y29510D01*
X18744Y34619D01*
X18797Y34693D01*
X18857Y34762D01*
X18869Y34793D01*
X18888Y34819D01*
X18915Y34906D01*
X18949Y34991D01*
X18953Y35032D01*
X18960Y35054D01*
X18959Y35086D01*
X18967Y35157D01*
X18967Y74842D01*
X20381Y76256D01*
X22637Y78512D01*
X22679Y78570D01*
X22728Y78622D01*
X22750Y78669D01*
X22781Y78712D01*
X22802Y78780D01*
X22832Y78845D01*
X22838Y78897D01*
X22853Y78947D01*
X22851Y79018D01*
X22859Y79090D01*
X22848Y79140D01*
X22847Y79192D01*
X22822Y79260D01*
X22807Y79330D01*
X22780Y79375D01*
X22762Y79424D01*
X22717Y79480D01*
X22681Y79541D01*
X22641Y79575D01*
X22608Y79616D01*
X22548Y79654D01*
X22494Y79701D01*
X22445Y79720D01*
X22402Y79749D01*
X22332Y79766D01*
X22266Y79793D01*
X22194Y79801D01*
X22163Y79809D01*
X22140Y79807D01*
X22099Y79811D01*
X22028Y79811D01*
X19810Y82030D01*
X19810Y85167D01*
X22028Y87385D01*
X25165Y87385D01*
X27383Y85167D01*
X27383Y85096D01*
X27395Y85025D01*
X27397Y84954D01*
X27415Y84905D01*
X27423Y84853D01*
X27457Y84790D01*
X27481Y84723D01*
X27514Y84682D01*
X27538Y84636D01*
X27590Y84587D01*
X27635Y84531D01*
X27679Y84502D01*
X27717Y84467D01*
X27782Y84436D01*
X27842Y84398D01*
X27893Y84385D01*
X27940Y84363D01*
X28011Y84355D01*
X28081Y84337D01*
X28132Y84342D01*
X28184Y84336D01*
X28254Y84351D01*
X28326Y84357D01*
X28374Y84377D01*
X28425Y84388D01*
X28486Y84425D01*
X28552Y84453D01*
X28608Y84498D01*
X28636Y84514D01*
X28651Y84532D01*
X28683Y84558D01*
X35744Y91619D01*
X37172Y93046D01*
X37220Y93064D01*
X37271Y93072D01*
X37334Y93106D01*
X37402Y93131D01*
X37443Y93163D01*
X37489Y93188D01*
X37538Y93239D01*
X37594Y93284D01*
X37622Y93328D01*
X37658Y93366D01*
X37688Y93431D01*
X37727Y93491D01*
X37740Y93542D01*
X37762Y93589D01*
X37769Y93660D01*
X37787Y93730D01*
X37783Y93782D01*
X37789Y93833D01*
X37773Y93904D01*
X37768Y93975D01*
X37747Y94023D01*
X37736Y94074D01*
X37700Y94135D01*
X37672Y94201D01*
X37627Y94257D01*
X37610Y94285D01*
X37592Y94300D01*
X37567Y94332D01*
X37417Y94482D01*
X37417Y97204D01*
X39343Y99130D01*
X39656Y99130D01*
X39676Y99133D01*
X39696Y99131D01*
X39797Y99153D01*
X39899Y99169D01*
X39917Y99179D01*
X39936Y99183D01*
X40025Y99236D01*
X40116Y99284D01*
X40130Y99299D01*
X40147Y99309D01*
X40215Y99388D01*
X40286Y99463D01*
X40294Y99481D01*
X40307Y99496D01*
X40346Y99592D01*
X40389Y99686D01*
X40392Y99706D01*
X40399Y99724D01*
X40417Y99891D01*
X40417Y102377D01*
X40543Y102502D01*
X40555Y102518D01*
X40570Y102531D01*
X40626Y102618D01*
X40687Y102702D01*
X40692Y102721D01*
X40703Y102738D01*
X40729Y102838D01*
X40759Y102937D01*
X40758Y102957D01*
X40763Y102976D01*
X40755Y103079D01*
X40753Y103183D01*
X40746Y103202D01*
X40744Y103222D01*
X40704Y103316D01*
X40668Y103414D01*
X40656Y103430D01*
X40648Y103448D01*
X40543Y103579D01*
X38788Y105334D01*
X38788Y108057D01*
X39403Y108672D01*
X39415Y108688D01*
X39430Y108700D01*
X39461Y108748D01*
X39470Y108758D01*
X39478Y108775D01*
X39486Y108788D01*
X39547Y108871D01*
X39552Y108890D01*
X39563Y108907D01*
X39589Y109008D01*
X39619Y109106D01*
X39618Y109126D01*
X39623Y109146D01*
X39615Y109249D01*
X39613Y109352D01*
X39606Y109371D01*
X39604Y109391D01*
X39564Y109486D01*
X39528Y109583D01*
X39516Y109599D01*
X39508Y109617D01*
X39403Y109748D01*
X37867Y111285D01*
X37867Y114007D01*
X39792Y115933D01*
X41549Y115933D01*
X41569Y115936D01*
X41589Y115934D01*
X41690Y115956D01*
X41792Y115972D01*
X41810Y115982D01*
X41829Y115986D01*
X41918Y116039D01*
X42009Y116087D01*
X42023Y116102D01*
X42040Y116112D01*
X42108Y116191D01*
X42179Y116266D01*
X42187Y116284D01*
X42200Y116299D01*
X42239Y116395D01*
X42282Y116489D01*
X42285Y116509D01*
X42292Y116527D01*
X42311Y116694D01*
X42311Y117222D01*
X42307Y117242D01*
X42309Y117262D01*
X42287Y117363D01*
X42271Y117465D01*
X42261Y117483D01*
X42257Y117502D01*
X42204Y117591D01*
X42156Y117682D01*
X42141Y117696D01*
X42131Y117713D01*
X42052Y117781D01*
X41977Y117852D01*
X41959Y117860D01*
X41944Y117873D01*
X41848Y117912D01*
X41754Y117955D01*
X41735Y117958D01*
X41716Y117965D01*
X41549Y117984D01*
X39073Y117984D01*
X36855Y120202D01*
X36855Y123339D01*
X39073Y125557D01*
X42210Y125557D01*
X44428Y123339D01*
X44428Y121181D01*
X44432Y121161D01*
X44429Y121141D01*
X44451Y121040D01*
X44468Y120938D01*
X44477Y120920D01*
X44482Y120901D01*
X44535Y120812D01*
X44583Y120721D01*
X44598Y120707D01*
X44608Y120690D01*
X44687Y120622D01*
X44762Y120551D01*
X44780Y120543D01*
X44795Y120530D01*
X44891Y120491D01*
X44985Y120448D01*
X45004Y120445D01*
X45023Y120438D01*
X45190Y120419D01*
X46959Y120419D01*
X48884Y118494D01*
X48884Y117597D01*
X48896Y117526D01*
X48897Y117454D01*
X48915Y117405D01*
X48924Y117354D01*
X48957Y117290D01*
X48982Y117223D01*
X49014Y117182D01*
X49039Y117136D01*
X49091Y117087D01*
X49136Y117031D01*
X49179Y117003D01*
X49217Y116967D01*
X49282Y116937D01*
X49342Y116898D01*
X49393Y116885D01*
X49440Y116863D01*
X49511Y116855D01*
X49581Y116838D01*
X49633Y116842D01*
X49685Y116836D01*
X49755Y116852D01*
X49826Y116857D01*
X49874Y116877D01*
X49925Y116889D01*
X49987Y116925D01*
X50053Y116953D01*
X50109Y116998D01*
X50136Y117015D01*
X50151Y117033D01*
X50184Y117058D01*
X53158Y120033D01*
X97082Y120033D01*
X97152Y120044D01*
X97224Y120046D01*
X97273Y120064D01*
X97324Y120072D01*
X97388Y120106D01*
X97455Y120131D01*
X97496Y120163D01*
X97542Y120188D01*
X97591Y120239D01*
X97647Y120284D01*
X97675Y120328D01*
X97711Y120366D01*
X97741Y120431D01*
X97780Y120491D01*
X97793Y120542D01*
X97815Y120589D01*
X97823Y120660D01*
X97840Y120730D01*
X97836Y120782D01*
X97842Y120833D01*
X97827Y120904D01*
X97821Y120975D01*
X97801Y121023D01*
X97790Y121074D01*
X97753Y121135D01*
X97725Y121201D01*
X97680Y121257D01*
X97663Y121285D01*
X97646Y121300D01*
X97620Y121332D01*
X97381Y121571D01*
X95967Y122985D01*
X95967Y123113D01*
X95956Y123183D01*
X95954Y123255D01*
X95936Y123304D01*
X95928Y123355D01*
X95894Y123419D01*
X95869Y123486D01*
X95837Y123527D01*
X95812Y123573D01*
X95760Y123622D01*
X95716Y123678D01*
X95672Y123706D01*
X95634Y123742D01*
X95569Y123772D01*
X95509Y123811D01*
X95458Y123824D01*
X95411Y123846D01*
X95340Y123854D01*
X95270Y123871D01*
X95218Y123867D01*
X95167Y123873D01*
X95096Y123858D01*
X95025Y123852D01*
X94977Y123832D01*
X94926Y123821D01*
X94865Y123784D01*
X94799Y123756D01*
X94743Y123711D01*
X94715Y123694D01*
X94700Y123677D01*
X94668Y123651D01*
X94361Y123345D01*
X91639Y123345D01*
X89713Y125270D01*
X89713Y127993D01*
X91639Y129918D01*
X93952Y129918D01*
X93972Y129921D01*
X93991Y129919D01*
X94093Y129941D01*
X94195Y129958D01*
X94212Y129967D01*
X94232Y129971D01*
X94321Y130025D01*
X94412Y130073D01*
X94426Y130087D01*
X94443Y130098D01*
X94510Y130176D01*
X94582Y130251D01*
X94590Y130269D01*
X94603Y130284D01*
X94642Y130381D01*
X94685Y130474D01*
X94687Y130494D01*
X94695Y130513D01*
X94713Y130679D01*
X94713Y131361D01*
X96639Y133287D01*
X99361Y133287D01*
X101287Y131361D01*
X101287Y131048D01*
X101290Y131028D01*
X101288Y131009D01*
X101310Y130907D01*
X101326Y130805D01*
X101336Y130788D01*
X101340Y130768D01*
X101393Y130679D01*
X101442Y130588D01*
X101456Y130574D01*
X101466Y130557D01*
X101545Y130490D01*
X101620Y130418D01*
X101638Y130410D01*
X101653Y130397D01*
X101749Y130358D01*
X101843Y130315D01*
X101863Y130313D01*
X101881Y130305D01*
X102048Y130287D01*
X103952Y130287D01*
X103972Y130290D01*
X103991Y130288D01*
X104093Y130310D01*
X104195Y130326D01*
X104212Y130336D01*
X104232Y130340D01*
X104321Y130393D01*
X104412Y130442D01*
X104426Y130456D01*
X104443Y130466D01*
X104510Y130545D01*
X104582Y130620D01*
X104590Y130638D01*
X104603Y130653D01*
X104642Y130749D01*
X104685Y130843D01*
X104687Y130863D01*
X104695Y130881D01*
X104713Y131048D01*
X104713Y131361D01*
X106639Y133287D01*
X109361Y133287D01*
X111107Y131541D01*
X111124Y131529D01*
X111136Y131513D01*
X111223Y131457D01*
X111307Y131397D01*
X111326Y131391D01*
X111343Y131380D01*
X111443Y131355D01*
X111542Y131325D01*
X111562Y131325D01*
X111582Y131320D01*
X111685Y131328D01*
X111788Y131331D01*
X111807Y131338D01*
X111827Y131340D01*
X111922Y131380D01*
X111935Y131385D01*
X115165Y131385D01*
X117383Y129167D01*
X117383Y126030D01*
X115480Y124126D01*
X115438Y124068D01*
X115389Y124016D01*
X115367Y123969D01*
X115337Y123927D01*
X115316Y123858D01*
X115285Y123793D01*
X115280Y123741D01*
X115264Y123691D01*
X115266Y123620D01*
X115258Y123549D01*
X115269Y123498D01*
X115271Y123446D01*
X115295Y123378D01*
X115311Y123308D01*
X115337Y123263D01*
X115355Y123215D01*
X115400Y123159D01*
X115437Y123097D01*
X115476Y123063D01*
X115509Y123023D01*
X115569Y122984D01*
X115624Y122937D01*
X115672Y122918D01*
X115716Y122890D01*
X115785Y122872D01*
X115852Y122845D01*
X115923Y122837D01*
X115954Y122829D01*
X115978Y122831D01*
X116018Y122827D01*
X118912Y122827D01*
X119002Y122841D01*
X119093Y122849D01*
X119123Y122861D01*
X119155Y122866D01*
X119235Y122909D01*
X119319Y122945D01*
X119351Y122971D01*
X119372Y122982D01*
X119394Y123005D01*
X119450Y123050D01*
X126491Y130090D01*
X126504Y130092D01*
X126576Y130094D01*
X126625Y130112D01*
X126676Y130120D01*
X126739Y130154D01*
X126807Y130179D01*
X126847Y130211D01*
X126893Y130236D01*
X126943Y130288D01*
X126999Y130332D01*
X127027Y130376D01*
X127063Y130414D01*
X127093Y130479D01*
X127132Y130539D01*
X127145Y130590D01*
X127166Y130637D01*
X127174Y130708D01*
X127192Y130778D01*
X127188Y130830D01*
X127194Y130881D01*
X127178Y130952D01*
X127173Y131023D01*
X127152Y131071D01*
X127141Y131122D01*
X127104Y131183D01*
X127076Y131249D01*
X127032Y131305D01*
X127015Y131333D01*
X126997Y131348D01*
X126972Y131380D01*
X126713Y131639D01*
X126713Y134361D01*
X127314Y134962D01*
X127325Y134978D01*
X127341Y134990D01*
X127397Y135078D01*
X127457Y135161D01*
X127463Y135180D01*
X127474Y135197D01*
X127499Y135298D01*
X127529Y135397D01*
X127529Y135416D01*
X127534Y135436D01*
X127526Y135539D01*
X127523Y135642D01*
X127516Y135661D01*
X127515Y135681D01*
X127474Y135776D01*
X127439Y135873D01*
X127426Y135889D01*
X127418Y135907D01*
X127314Y136038D01*
X125713Y137639D01*
X125713Y140361D01*
X127639Y142287D01*
X130361Y142287D01*
X131365Y141283D01*
X131439Y141230D01*
X131508Y141171D01*
X131538Y141159D01*
X131565Y141140D01*
X131652Y141113D01*
X131736Y141079D01*
X131777Y141074D01*
X131800Y141067D01*
X131832Y141068D01*
X131903Y141060D01*
X157568Y141060D01*
X157587Y141064D01*
X157607Y141061D01*
X157708Y141083D01*
X157810Y141100D01*
X157828Y141109D01*
X157847Y141114D01*
X157936Y141167D01*
X158028Y141215D01*
X158041Y141230D01*
X158058Y141240D01*
X158126Y141318D01*
X158197Y141393D01*
X158205Y141412D01*
X158218Y141427D01*
X158257Y141523D01*
X158301Y141617D01*
X158303Y141636D01*
X158310Y141655D01*
X158329Y141822D01*
X158329Y144666D01*
X158347Y144685D01*
X158369Y144732D01*
X158399Y144774D01*
X158420Y144843D01*
X158450Y144908D01*
X158456Y144960D01*
X158471Y145010D01*
X158469Y145081D01*
X158477Y145153D01*
X158466Y145203D01*
X158465Y145255D01*
X158440Y145323D01*
X158425Y145393D01*
X158398Y145438D01*
X158381Y145486D01*
X158336Y145543D01*
X158299Y145604D01*
X158259Y145638D01*
X158227Y145678D01*
X158167Y145717D01*
X158112Y145764D01*
X158064Y145783D01*
X158020Y145812D01*
X157950Y145829D01*
X157884Y145856D01*
X157813Y145864D01*
X157781Y145872D01*
X157758Y145870D01*
X157717Y145874D01*
X119005Y145874D01*
X118890Y145856D01*
X118774Y145838D01*
X118768Y145836D01*
X118762Y145835D01*
X118660Y145780D01*
X118555Y145727D01*
X118550Y145722D01*
X118545Y145720D01*
X118465Y145635D01*
X118382Y145551D01*
X118379Y145545D01*
X118375Y145541D01*
X118368Y145524D01*
X118302Y145404D01*
X118005Y144688D01*
X117967Y144632D01*
X117193Y143474D01*
X116160Y142441D01*
X114946Y141629D01*
X113596Y141070D01*
X112956Y140943D01*
X112956Y145113D01*
X112953Y145133D01*
X112955Y145153D01*
X112933Y145254D01*
X112917Y145356D01*
X112907Y145373D01*
X112903Y145393D01*
X112850Y145482D01*
X112802Y145573D01*
X112787Y145587D01*
X112777Y145604D01*
X112698Y145671D01*
X112623Y145743D01*
X112605Y145751D01*
X112590Y145764D01*
X112494Y145803D01*
X112400Y145846D01*
X112380Y145848D01*
X112362Y145856D01*
X112195Y145874D01*
X110671Y145874D01*
X110652Y145871D01*
X110632Y145873D01*
X110531Y145851D01*
X110428Y145835D01*
X110411Y145825D01*
X110391Y145821D01*
X110302Y145768D01*
X110211Y145720D01*
X110197Y145705D01*
X110180Y145695D01*
X110113Y145616D01*
X110042Y145541D01*
X110033Y145523D01*
X110020Y145508D01*
X109982Y145412D01*
X109938Y145318D01*
X109936Y145298D01*
X109928Y145280D01*
X109910Y145113D01*
X109910Y140922D01*
X109883Y140925D01*
X109854Y140918D01*
X109825Y140919D01*
X109735Y140892D01*
X109642Y140872D01*
X109617Y140857D01*
X109589Y140849D01*
X109512Y140795D01*
X109431Y140746D01*
X109412Y140724D01*
X109388Y140707D01*
X109333Y140631D01*
X109271Y140559D01*
X109260Y140532D01*
X109243Y140508D01*
X109215Y140419D01*
X109179Y140331D01*
X109175Y140294D01*
X109169Y140274D01*
X109170Y140241D01*
X109161Y140164D01*
X109161Y137850D01*
X106943Y135632D01*
X103806Y135632D01*
X101588Y137850D01*
X101588Y140987D01*
X101859Y141258D01*
X101916Y141338D01*
X101978Y141413D01*
X101987Y141437D01*
X102003Y141458D01*
X102031Y141551D01*
X102066Y141642D01*
X102067Y141668D01*
X102075Y141693D01*
X102073Y141791D01*
X102077Y141888D01*
X102069Y141913D01*
X102069Y141939D01*
X102035Y142031D01*
X102008Y142124D01*
X101993Y142146D01*
X101984Y142170D01*
X101923Y142246D01*
X101868Y142326D01*
X101847Y142342D01*
X101831Y142362D01*
X101749Y142415D01*
X101670Y142473D01*
X101646Y142481D01*
X101624Y142495D01*
X101529Y142519D01*
X101437Y142549D01*
X101410Y142549D01*
X101385Y142555D01*
X101288Y142548D01*
X101191Y142547D01*
X101159Y142538D01*
X101140Y142536D01*
X101109Y142523D01*
X101030Y142500D01*
X99956Y142055D01*
X97511Y142055D01*
X95252Y142991D01*
X93523Y144720D01*
X93240Y145404D01*
X93178Y145504D01*
X93118Y145604D01*
X93113Y145608D01*
X93110Y145613D01*
X93019Y145688D01*
X92931Y145764D01*
X92925Y145766D01*
X92920Y145770D01*
X92812Y145812D01*
X92703Y145856D01*
X92695Y145857D01*
X92691Y145858D01*
X92673Y145859D01*
X92536Y145874D01*
X92230Y145874D01*
X92115Y145856D01*
X91999Y145838D01*
X91994Y145836D01*
X91987Y145835D01*
X91885Y145780D01*
X91780Y145727D01*
X91776Y145722D01*
X91770Y145720D01*
X91690Y145635D01*
X91608Y145551D01*
X91604Y145545D01*
X91601Y145541D01*
X91593Y145524D01*
X91527Y145404D01*
X91243Y144720D01*
X89515Y142991D01*
X87256Y142055D01*
X84811Y142055D01*
X82552Y142991D01*
X80823Y144720D01*
X80540Y145404D01*
X80478Y145504D01*
X80418Y145604D01*
X80413Y145608D01*
X80410Y145613D01*
X80319Y145688D01*
X80231Y145764D01*
X80225Y145766D01*
X80220Y145770D01*
X80112Y145812D01*
X80003Y145856D01*
X79995Y145857D01*
X79991Y145858D01*
X79973Y145859D01*
X79836Y145874D01*
X79530Y145874D01*
X79415Y145856D01*
X79299Y145838D01*
X79294Y145836D01*
X79287Y145835D01*
X79185Y145780D01*
X79080Y145727D01*
X79076Y145722D01*
X79070Y145720D01*
X78990Y145635D01*
X78908Y145551D01*
X78904Y145545D01*
X78901Y145541D01*
X78893Y145524D01*
X78827Y145404D01*
X78543Y144720D01*
X76815Y142991D01*
X74556Y142055D01*
X72111Y142055D01*
X69852Y142991D01*
X68123Y144720D01*
X67840Y145404D01*
X67778Y145504D01*
X67718Y145604D01*
X67713Y145608D01*
X67710Y145613D01*
X67619Y145688D01*
X67531Y145764D01*
X67525Y145766D01*
X67520Y145770D01*
X67412Y145812D01*
X67303Y145856D01*
X67295Y145857D01*
X67291Y145858D01*
X67273Y145859D01*
X67136Y145874D01*
X66830Y145874D01*
X66715Y145856D01*
X66599Y145838D01*
X66594Y145836D01*
X66587Y145835D01*
X66485Y145780D01*
X66380Y145727D01*
X66376Y145722D01*
X66370Y145720D01*
X66290Y145635D01*
X66208Y145551D01*
X66204Y145545D01*
X66201Y145541D01*
X66193Y145524D01*
X66127Y145404D01*
X65843Y144720D01*
X64115Y142991D01*
X61856Y142055D01*
X59411Y142055D01*
X57152Y142991D01*
X55423Y144720D01*
X55140Y145404D01*
X55078Y145504D01*
X55018Y145604D01*
X55013Y145608D01*
X55010Y145613D01*
X54919Y145688D01*
X54831Y145764D01*
X54825Y145766D01*
X54820Y145770D01*
X54712Y145812D01*
X54603Y145856D01*
X54595Y145857D01*
X54591Y145858D01*
X54573Y145859D01*
X54436Y145874D01*
X54130Y145874D01*
X54015Y145856D01*
X53899Y145838D01*
X53894Y145836D01*
X53887Y145835D01*
X53785Y145780D01*
X53680Y145727D01*
X53676Y145722D01*
X53670Y145720D01*
X53590Y145635D01*
X53508Y145551D01*
X53504Y145545D01*
X53501Y145541D01*
X53493Y145524D01*
X53427Y145404D01*
X53143Y144720D01*
X51415Y142991D01*
X49156Y142055D01*
X46711Y142055D01*
X44452Y142991D01*
X42723Y144720D01*
X42440Y145404D01*
X42378Y145504D01*
X42318Y145604D01*
X42313Y145608D01*
X42310Y145613D01*
X42219Y145688D01*
X42131Y145764D01*
X42125Y145766D01*
X42120Y145770D01*
X42012Y145812D01*
X41903Y145856D01*
X41895Y145857D01*
X41891Y145858D01*
X41873Y145859D01*
X41736Y145874D01*
X41430Y145874D01*
X41315Y145856D01*
X41199Y145838D01*
X41194Y145836D01*
X41187Y145835D01*
X41085Y145780D01*
X40980Y145727D01*
X40976Y145722D01*
X40970Y145720D01*
X40890Y145635D01*
X40808Y145551D01*
X40804Y145545D01*
X40801Y145541D01*
X40793Y145524D01*
X40727Y145404D01*
X40443Y144720D01*
X38715Y142991D01*
X36456Y142055D01*
X34011Y142055D01*
X31752Y142991D01*
X30023Y144720D01*
X29740Y145404D01*
X29678Y145504D01*
X29618Y145604D01*
X29613Y145608D01*
X29610Y145613D01*
X29519Y145688D01*
X29431Y145764D01*
X29425Y145766D01*
X29420Y145770D01*
X29312Y145812D01*
X29203Y145856D01*
X29195Y145857D01*
X29191Y145858D01*
X29173Y145859D01*
X29036Y145874D01*
X28730Y145874D01*
X28615Y145856D01*
X28499Y145838D01*
X28494Y145836D01*
X28487Y145835D01*
X28385Y145780D01*
X28280Y145727D01*
X28276Y145722D01*
X28270Y145720D01*
X28190Y145635D01*
X28108Y145551D01*
X28104Y145545D01*
X28101Y145541D01*
X28093Y145524D01*
X28027Y145404D01*
X27743Y144720D01*
X26015Y142991D01*
X23756Y142055D01*
X21311Y142055D01*
X20039Y142582D01*
X19945Y142604D01*
X19852Y142633D01*
X19825Y142632D01*
X19800Y142638D01*
X19703Y142629D01*
X19606Y142626D01*
X19581Y142617D01*
X19555Y142615D01*
X19466Y142575D01*
X19375Y142542D01*
X19354Y142526D01*
X19330Y142515D01*
X19259Y142449D01*
X19183Y142388D01*
X19169Y142366D01*
X19149Y142348D01*
X19102Y142263D01*
X19050Y142181D01*
X19043Y142156D01*
X19031Y142133D01*
X19013Y142037D01*
X18990Y141943D01*
X18992Y141917D01*
X18987Y141891D01*
X19001Y141794D01*
X19009Y141698D01*
X19019Y141673D01*
X19023Y141648D01*
X19067Y141561D01*
X19105Y141471D01*
X19125Y141446D01*
X19134Y141428D01*
X19158Y141405D01*
X19210Y141340D01*
X20383Y140167D01*
X20383Y137030D01*
X18165Y134811D01*
X15028Y134811D01*
X12810Y137030D01*
X12810Y140167D01*
X15028Y142385D01*
X17820Y142385D01*
X17891Y142396D01*
X17963Y142398D01*
X18012Y142416D01*
X18063Y142425D01*
X18126Y142458D01*
X18194Y142483D01*
X18234Y142515D01*
X18280Y142540D01*
X18330Y142592D01*
X18386Y142636D01*
X18414Y142680D01*
X18450Y142718D01*
X18480Y142783D01*
X18519Y142843D01*
X18531Y142894D01*
X18553Y142941D01*
X18561Y143012D01*
X18579Y143082D01*
X18575Y143134D01*
X18580Y143186D01*
X18565Y143256D01*
X18560Y143327D01*
X18539Y143375D01*
X18528Y143426D01*
X18491Y143487D01*
X18463Y143553D01*
X18418Y143609D01*
X18402Y143637D01*
X18384Y143652D01*
X18358Y143684D01*
X17323Y144720D01*
X17040Y145404D01*
X16978Y145504D01*
X16918Y145604D01*
X16913Y145608D01*
X16910Y145613D01*
X16819Y145688D01*
X16731Y145764D01*
X16725Y145766D01*
X16720Y145770D01*
X16612Y145812D01*
X16503Y145856D01*
X16495Y145857D01*
X16491Y145858D01*
X16473Y145859D01*
X16336Y145874D01*
X2911Y145874D01*
X2891Y145871D01*
X2871Y145873D01*
X2770Y145851D01*
X2668Y145835D01*
X2650Y145825D01*
X2631Y145821D01*
X2542Y145768D01*
X2451Y145720D01*
X2437Y145705D01*
X2420Y145695D01*
X2352Y145616D01*
X2281Y145541D01*
X2273Y145523D01*
X2260Y145508D01*
X2221Y145412D01*
X2178Y145318D01*
X2175Y145298D01*
X2168Y145280D01*
X2149Y145113D01*
X2149Y124690D01*
X2168Y124575D01*
X2185Y124459D01*
X2188Y124453D01*
X2189Y124447D01*
X2244Y124344D01*
X2297Y124239D01*
X2301Y124235D01*
X2304Y124229D01*
X2388Y124150D01*
X2472Y124067D01*
X2479Y124064D01*
X2483Y124060D01*
X2499Y124052D01*
X2619Y123986D01*
X3485Y123628D01*
X5214Y121899D01*
X6150Y119640D01*
X6150Y117195D01*
X5214Y114936D01*
X3485Y113207D01*
X2619Y112849D01*
X2520Y112787D01*
X2420Y112727D01*
X2416Y112722D01*
X2410Y112719D01*
X2336Y112629D01*
X2260Y112540D01*
X2258Y112534D01*
X2254Y112530D01*
X2212Y112421D01*
X2168Y112312D01*
X2167Y112305D01*
X2165Y112300D01*
X2165Y112282D01*
X2149Y112145D01*
X2149Y111990D01*
X2168Y111875D01*
X2185Y111759D01*
X2188Y111753D01*
X2189Y111747D01*
X2244Y111644D01*
X2297Y111539D01*
X2301Y111535D01*
X2304Y111529D01*
X2388Y111450D01*
X2472Y111367D01*
X2479Y111364D01*
X2483Y111360D01*
X2499Y111352D01*
X2619Y111286D01*
X3485Y110928D01*
X5214Y109199D01*
X6150Y106940D01*
X6150Y104495D01*
X5214Y102236D01*
X3485Y100507D01*
X2619Y100149D01*
X2520Y100087D01*
X2420Y100027D01*
X2416Y100022D01*
X2410Y100019D01*
X2336Y99929D01*
X2260Y99840D01*
X2258Y99834D01*
X2254Y99830D01*
X2212Y99721D01*
X2168Y99612D01*
X2167Y99605D01*
X2165Y99600D01*
X2165Y99582D01*
X2149Y99445D01*
X2149Y99290D01*
X2153Y99270D01*
X2151Y99250D01*
X2171Y99156D01*
X2185Y99059D01*
X2188Y99053D01*
X2189Y99047D01*
X2199Y99029D01*
X2203Y99010D01*
X2252Y98928D01*
X2297Y98839D01*
X2301Y98835D01*
X2304Y98829D01*
X2319Y98815D01*
X2329Y98799D01*
X2401Y98737D01*
X2472Y98667D01*
X2479Y98664D01*
X2483Y98660D01*
X2499Y98652D01*
X2502Y98651D01*
X2516Y98639D01*
X2545Y98627D01*
X2619Y98586D01*
X3485Y98228D01*
X5214Y96499D01*
X6150Y94240D01*
X6150Y91795D01*
X5214Y89536D01*
X3485Y87807D01*
X2619Y87449D01*
X2520Y87387D01*
X2420Y87327D01*
X2416Y87322D01*
X2410Y87319D01*
X2336Y87229D01*
X2260Y87140D01*
X2258Y87134D01*
X2254Y87130D01*
X2212Y87021D01*
X2168Y86912D01*
X2167Y86905D01*
X2165Y86900D01*
X2165Y86882D01*
X2149Y86745D01*
X2149Y86590D01*
X2168Y86475D01*
X2185Y86359D01*
X2188Y86353D01*
X2189Y86347D01*
X2244Y86244D01*
X2297Y86139D01*
X2301Y86135D01*
X2304Y86129D01*
X2388Y86050D01*
X2472Y85967D01*
X2479Y85964D01*
X2483Y85960D01*
X2499Y85952D01*
X2619Y85886D01*
X3485Y85528D01*
X5214Y83799D01*
X6150Y81540D01*
X6150Y79095D01*
X5214Y76836D01*
X3485Y75107D01*
X2619Y74749D01*
X2520Y74687D01*
X2420Y74627D01*
X2416Y74622D01*
X2410Y74619D01*
X2336Y74529D01*
X2260Y74440D01*
X2258Y74434D01*
X2254Y74430D01*
X2212Y74321D01*
X2168Y74212D01*
X2167Y74205D01*
X2165Y74200D01*
X2165Y74182D01*
X2149Y74045D01*
X2149Y73890D01*
X2168Y73775D01*
X2185Y73659D01*
X2188Y73653D01*
X2189Y73647D01*
X2244Y73544D01*
X2297Y73439D01*
X2301Y73435D01*
X2304Y73429D01*
X2388Y73350D01*
X2472Y73267D01*
X2479Y73264D01*
X2483Y73260D01*
X2499Y73252D01*
X2619Y73186D01*
X3485Y72828D01*
X5214Y71099D01*
X6150Y68840D01*
X6150Y66395D01*
X5214Y64136D01*
X3485Y62407D01*
X2619Y62049D01*
X2520Y61987D01*
X2420Y61927D01*
X2416Y61922D01*
X2410Y61919D01*
X2336Y61829D01*
X2260Y61740D01*
X2258Y61734D01*
X2254Y61730D01*
X2212Y61621D01*
X2168Y61512D01*
X2167Y61505D01*
X2165Y61500D01*
X2165Y61482D01*
X2149Y61345D01*
X2149Y61190D01*
X2168Y61075D01*
X2185Y60959D01*
X2188Y60953D01*
X2189Y60947D01*
X2244Y60844D01*
X2297Y60739D01*
X2301Y60735D01*
X2304Y60729D01*
X2388Y60650D01*
X2472Y60567D01*
X2479Y60564D01*
X2483Y60560D01*
X2499Y60552D01*
X2619Y60486D01*
X3485Y60128D01*
X5214Y58399D01*
X6150Y56140D01*
X6150Y53695D01*
X5214Y51436D01*
X3485Y49707D01*
X2619Y49349D01*
X2520Y49287D01*
X2420Y49227D01*
X2416Y49222D01*
X2410Y49219D01*
X2336Y49129D01*
X2260Y49040D01*
X2258Y49034D01*
X2254Y49030D01*
X2212Y48921D01*
X2168Y48812D01*
X2167Y48805D01*
X2165Y48800D01*
X2165Y48782D01*
X2149Y48645D01*
X2149Y48490D01*
X2168Y48374D01*
X2185Y48259D01*
X2188Y48253D01*
X2189Y48247D01*
X2244Y48144D01*
X2297Y48039D01*
X2301Y48035D01*
X2304Y48029D01*
X2388Y47950D01*
X2472Y47867D01*
X2479Y47864D01*
X2483Y47860D01*
X2499Y47852D01*
X2619Y47786D01*
X3485Y47428D01*
X5214Y45699D01*
X6150Y43440D01*
X6150Y40995D01*
X5214Y38736D01*
X3485Y37007D01*
X2619Y36649D01*
X2520Y36587D01*
X2420Y36527D01*
X2416Y36522D01*
X2410Y36519D01*
X2336Y36429D01*
X2260Y36340D01*
X2258Y36334D01*
X2254Y36330D01*
X2212Y36221D01*
X2168Y36112D01*
X2167Y36105D01*
X2165Y36100D01*
X2165Y36082D01*
X2149Y35945D01*
X2149Y35790D01*
X2168Y35675D01*
X2185Y35559D01*
X2188Y35553D01*
X2189Y35547D01*
X2244Y35444D01*
X2297Y35339D01*
X2301Y35335D01*
X2304Y35329D01*
X2388Y35250D01*
X2472Y35167D01*
X2479Y35164D01*
X2483Y35160D01*
X2499Y35152D01*
X2619Y35086D01*
X3485Y34728D01*
X5214Y32999D01*
X6150Y30740D01*
X6150Y28295D01*
X5214Y26036D01*
X3485Y24307D01*
X2619Y23949D01*
X2520Y23887D01*
X2420Y23827D01*
X2416Y23822D01*
X2410Y23819D01*
X2336Y23729D01*
X2260Y23640D01*
X2258Y23634D01*
X2254Y23630D01*
X2212Y23521D01*
X2168Y23412D01*
X2167Y23405D01*
X2165Y23400D01*
X2165Y23382D01*
X2149Y23245D01*
X2149Y2611D01*
X2153Y2591D01*
X2151Y2572D01*
X2173Y2470D01*
X2189Y2368D01*
X2199Y2351D01*
X2203Y2331D01*
X2256Y2242D01*
X2304Y2151D01*
X2319Y2137D01*
X2329Y2120D01*
X2408Y2053D01*
X2483Y1982D01*
X2501Y1973D01*
X2516Y1960D01*
X2612Y1921D01*
X2706Y1878D01*
X2725Y1876D01*
X2744Y1868D01*
X2911Y1850D01*
X16642Y1850D01*
X16757Y1869D01*
G37*
G36*
X154981Y130095D02*
X154981Y130095D01*
X155072Y130103D01*
X155101Y130115D01*
X155133Y130120D01*
X155214Y130163D01*
X155298Y130199D01*
X155330Y130225D01*
X155351Y130236D01*
X155373Y130259D01*
X155429Y130304D01*
X157490Y132365D01*
X157543Y132439D01*
X157603Y132508D01*
X157615Y132539D01*
X157634Y132565D01*
X157661Y132652D01*
X157695Y132737D01*
X157699Y132778D01*
X157706Y132800D01*
X157705Y132832D01*
X157713Y132903D01*
X157713Y134361D01*
X159047Y135695D01*
X159089Y135754D01*
X159138Y135806D01*
X159160Y135853D01*
X159191Y135895D01*
X159212Y135964D01*
X159242Y136029D01*
X159248Y136080D01*
X159263Y136130D01*
X159261Y136202D01*
X159269Y136273D01*
X159258Y136324D01*
X159257Y136376D01*
X159232Y136443D01*
X159217Y136513D01*
X159190Y136558D01*
X159172Y136607D01*
X159127Y136663D01*
X159091Y136725D01*
X159051Y136758D01*
X159019Y136799D01*
X158958Y136838D01*
X158904Y136884D01*
X158855Y136904D01*
X158812Y136932D01*
X158742Y136950D01*
X158676Y136976D01*
X158604Y136984D01*
X158573Y136992D01*
X158550Y136990D01*
X158509Y136995D01*
X132491Y136995D01*
X132420Y136983D01*
X132349Y136981D01*
X132300Y136963D01*
X132248Y136955D01*
X132185Y136922D01*
X132118Y136897D01*
X132077Y136864D01*
X132031Y136840D01*
X131982Y136788D01*
X131926Y136743D01*
X131897Y136699D01*
X131862Y136662D01*
X131831Y136597D01*
X131793Y136536D01*
X131780Y136486D01*
X131758Y136439D01*
X131750Y136367D01*
X131733Y136298D01*
X131737Y136246D01*
X131731Y136194D01*
X131746Y136124D01*
X131752Y136053D01*
X131772Y136005D01*
X131783Y135954D01*
X131820Y135892D01*
X131848Y135826D01*
X131893Y135770D01*
X131909Y135743D01*
X131927Y135727D01*
X131953Y135695D01*
X133287Y134361D01*
X133287Y131639D01*
X133028Y131380D01*
X132986Y131322D01*
X132937Y131270D01*
X132915Y131223D01*
X132885Y131181D01*
X132864Y131112D01*
X132834Y131047D01*
X132828Y130995D01*
X132812Y130945D01*
X132814Y130874D01*
X132806Y130803D01*
X132818Y130752D01*
X132819Y130700D01*
X132843Y130632D01*
X132859Y130562D01*
X132885Y130517D01*
X132903Y130469D01*
X132948Y130413D01*
X132985Y130351D01*
X133024Y130317D01*
X133057Y130277D01*
X133117Y130238D01*
X133172Y130191D01*
X133220Y130172D01*
X133264Y130144D01*
X133333Y130126D01*
X133400Y130099D01*
X133471Y130091D01*
X133502Y130083D01*
X133526Y130085D01*
X133567Y130081D01*
X154891Y130081D01*
X154981Y130095D01*
G37*
%LPC*%
G36*
X72141Y123322D02*
X72141Y123322D01*
X70216Y125247D01*
X70216Y127970D01*
X72141Y129895D01*
X73452Y129895D01*
X73472Y129898D01*
X73491Y129896D01*
X73593Y129918D01*
X73695Y129935D01*
X73712Y129944D01*
X73732Y129948D01*
X73821Y130002D01*
X73912Y130050D01*
X73926Y130064D01*
X73943Y130075D01*
X74010Y130153D01*
X74082Y130228D01*
X74090Y130246D01*
X74103Y130262D01*
X74142Y130358D01*
X74185Y130451D01*
X74187Y130471D01*
X74195Y130490D01*
X74213Y130656D01*
X74213Y132365D01*
X76431Y134583D01*
X79569Y134583D01*
X81787Y132365D01*
X81787Y129228D01*
X79569Y127010D01*
X77550Y127010D01*
X77531Y127007D01*
X77511Y127009D01*
X77410Y126987D01*
X77308Y126970D01*
X77290Y126961D01*
X77271Y126957D01*
X77181Y126903D01*
X77090Y126855D01*
X77077Y126841D01*
X77059Y126830D01*
X76992Y126752D01*
X76921Y126677D01*
X76912Y126659D01*
X76899Y126643D01*
X76861Y126547D01*
X76817Y126454D01*
X76815Y126434D01*
X76808Y126415D01*
X76789Y126249D01*
X76789Y125247D01*
X74864Y123322D01*
X72141Y123322D01*
G37*
%LPD*%
%LPC*%
G36*
X123210Y46324D02*
X123210Y46324D01*
X120992Y48542D01*
X120992Y51679D01*
X123210Y53897D01*
X126347Y53897D01*
X128566Y51679D01*
X128566Y48542D01*
X126347Y46324D01*
X123210Y46324D01*
G37*
%LPD*%
%LPC*%
G36*
X96491Y40213D02*
X96491Y40213D01*
X94273Y42431D01*
X94273Y45569D01*
X96491Y47787D01*
X99628Y47787D01*
X101846Y45569D01*
X101846Y42431D01*
X99628Y40213D01*
X96491Y40213D01*
G37*
%LPD*%
%LPC*%
G36*
X36033Y39611D02*
X36033Y39611D01*
X33815Y41829D01*
X33815Y44967D01*
X36033Y47185D01*
X39170Y47185D01*
X41388Y44967D01*
X41388Y41829D01*
X39170Y39611D01*
X36033Y39611D01*
G37*
%LPD*%
%LPC*%
G36*
X70431Y26213D02*
X70431Y26213D01*
X68213Y28431D01*
X68213Y31569D01*
X70431Y33787D01*
X73569Y33787D01*
X75787Y31569D01*
X75787Y28431D01*
X73569Y26213D01*
X70431Y26213D01*
G37*
%LPD*%
%LPC*%
G36*
X40639Y53713D02*
X40639Y53713D01*
X38713Y55639D01*
X38713Y58361D01*
X40639Y60287D01*
X43361Y60287D01*
X45287Y58361D01*
X45287Y55639D01*
X43361Y53713D01*
X40639Y53713D01*
G37*
%LPD*%
%LPC*%
G36*
X48639Y49713D02*
X48639Y49713D01*
X46713Y51639D01*
X46713Y54361D01*
X48639Y56287D01*
X51361Y56287D01*
X53287Y54361D01*
X53287Y51639D01*
X51361Y49713D01*
X48639Y49713D01*
G37*
%LPD*%
%LPC*%
G36*
X82639Y33713D02*
X82639Y33713D01*
X80713Y35639D01*
X80713Y38361D01*
X82639Y40287D01*
X85361Y40287D01*
X87287Y38361D01*
X87287Y35639D01*
X85361Y33713D01*
X82639Y33713D01*
G37*
%LPD*%
%LPC*%
G36*
X20639Y7713D02*
X20639Y7713D01*
X18713Y9639D01*
X18713Y12361D01*
X20639Y14287D01*
X23361Y14287D01*
X25287Y12361D01*
X25287Y9639D01*
X23361Y7713D01*
X20639Y7713D01*
G37*
%LPD*%
D10*
X73580Y-620D03*
X86280Y-620D03*
X60880Y-620D03*
X98980Y-620D03*
X48180Y-620D03*
X111680Y-620D03*
X35480Y-620D03*
X22780Y-620D03*
X4Y67617D03*
X4Y54917D03*
X4Y80317D03*
X4Y42217D03*
X4Y93017D03*
X4Y29517D03*
X4Y105717D03*
X4Y118417D03*
X73333Y148201D03*
X86033Y148201D03*
X60633Y148201D03*
X98733Y148201D03*
X47933Y148201D03*
X111433Y148201D03*
X35233Y148201D03*
X22533Y148201D03*
D11*
X42000Y57000D03*
D12*
X23597Y83598D03*
X124779Y50111D03*
X98060Y44000D03*
X40642Y121770D03*
X37602Y43398D03*
X113597Y127598D03*
X72000Y30000D03*
X78000Y130797D03*
D11*
X179497Y4948D03*
X179497Y11298D03*
X179497Y17648D03*
X179497Y23998D03*
X179497Y30348D03*
X179497Y45588D03*
X179497Y53208D03*
X179497Y60828D03*
X179497Y68448D03*
X179497Y76068D03*
X151557Y45588D03*
X151557Y51938D03*
X152827Y58288D03*
X157907Y60828D03*
X164257Y60828D03*
X157907Y45588D03*
X157907Y51938D03*
X164257Y55748D03*
X141397Y13838D03*
X141397Y20188D03*
X141397Y6218D03*
X169337Y13838D03*
X169337Y20188D03*
X169337Y7488D03*
X72817Y63368D03*
X85517Y63368D03*
X98217Y63368D03*
X98217Y73528D03*
X108377Y73528D03*
X108377Y86228D03*
X108377Y98928D03*
X98217Y109088D03*
X85517Y109088D03*
X72817Y109088D03*
X72817Y98928D03*
X85517Y98928D03*
X98217Y98928D03*
X62657Y98928D03*
X62657Y86228D03*
X62657Y73528D03*
X72817Y86228D03*
X85517Y86228D03*
X98217Y86228D03*
X85517Y73528D03*
X72817Y73528D03*
X134897Y85748D03*
X143423Y85748D03*
X151459Y85705D03*
X158776Y85713D03*
X171458Y76077D03*
X126964Y69238D03*
X126964Y77128D03*
X126926Y85815D03*
X128978Y39040D03*
X128978Y30040D03*
X129044Y4571D03*
X94965Y34098D03*
D12*
X49000Y127000D03*
X21000Y117000D03*
D11*
X12978Y42040D03*
X12978Y35040D03*
X120044Y4571D03*
X129044Y21571D03*
X129044Y13571D03*
X60978Y23040D03*
X60978Y16040D03*
X5004Y4161D03*
X5364Y142533D03*
X179497Y114548D03*
X179497Y122548D03*
X179497Y133548D03*
X179497Y143548D03*
X4913Y14243D03*
X93497Y140548D03*
X154861Y107684D03*
X161241Y116367D03*
X178888Y95226D03*
X148543Y134591D03*
X166731Y85718D03*
D12*
X16597Y138598D03*
X105374Y139418D03*
D11*
X129000Y139000D03*
X174000Y129000D03*
D13*
X163972Y139028D02*
X129028Y139028D01*
X129000Y139000D01*
X163972Y139028D02*
X174000Y129000D01*
D11*
X22000Y11000D03*
X45597Y117133D03*
X93000Y126631D03*
X73502Y126608D03*
X41153Y112646D03*
X42075Y106695D03*
X43704Y101015D03*
X40704Y95843D03*
X43949Y90940D03*
X129000Y118000D03*
D13*
X43949Y91000D02*
X43949Y90940D01*
X44526Y90940D02*
X47752Y94166D01*
X44526Y90940D02*
X43949Y90940D01*
X47752Y94166D02*
X47752Y111752D01*
X54000Y118000D02*
X129000Y118000D01*
X54000Y118000D02*
X47752Y111752D01*
D11*
X13000Y26000D03*
D13*
X21000Y34000D01*
X21000Y74000D02*
X38000Y91000D01*
X43949Y91000D01*
X21000Y74000D02*
X21000Y34000D01*
D11*
X40609Y85806D03*
X42000Y80000D03*
X50000Y53000D03*
X84000Y37000D03*
X108000Y130000D03*
X129000Y124000D03*
X103000Y127000D03*
X161616Y143287D03*
X98000Y130000D03*
D13*
X98000Y123827D02*
X101033Y120794D01*
X98000Y123827D02*
X98000Y130000D01*
X101033Y120794D02*
X120069Y120794D01*
D11*
X161000Y133000D03*
D13*
X156048Y128048D01*
X127323Y128048D02*
X120069Y120794D01*
X127323Y128048D02*
X156048Y128048D01*
D11*
X130000Y133000D03*
X174000Y138000D03*
M02*
