G04 EAGLE Gerber RS-274X export*
G75*
%MOMM*%
%FSLAX34Y34*%
%LPD*%
%INTop Copper*%
%IPPOS*%
%AMOC8*
5,1,8,0,0,1.08239X$1,22.5*%
G01*
%ADD10R,0.240000X0.600000*%
%ADD11R,0.600000X0.240000*%
%ADD12R,5.150000X5.150000*%
%ADD13C,0.500000*%
%ADD14C,0.280800*%
%ADD15C,0.500000*%
%ADD16C,0.402900*%
%ADD17R,0.850000X0.950000*%
%ADD18C,0.270000*%
%ADD19R,0.500000X0.500000*%
%ADD20R,2.200000X1.050000*%
%ADD21R,0.800000X1.000000*%
%ADD22C,1.016000*%
%ADD23R,0.600000X1.100000*%
%ADD24R,0.560000X0.350000*%
%ADD25R,0.200000X1.600000*%
%ADD26C,0.300000*%
%ADD27C,0.152400*%
%ADD28C,0.450000*%
%ADD29C,0.406400*%
%ADD30C,0.254000*%
%ADD31C,0.304800*%
%ADD32C,0.503200*%
%ADD33C,0.508000*%
%ADD34C,0.200000*%
%ADD35C,0.203200*%
%ADD36C,0.609600*%

G36*
X77496Y121782D02*
X77496Y121782D01*
X77599Y121784D01*
X77618Y121791D01*
X77638Y121793D01*
X77733Y121833D01*
X77830Y121869D01*
X77846Y121881D01*
X77864Y121889D01*
X77995Y121994D01*
X78230Y122229D01*
X81406Y122229D01*
X81422Y122232D01*
X81439Y122230D01*
X81543Y122252D01*
X81649Y122269D01*
X81663Y122277D01*
X81680Y122280D01*
X81772Y122334D01*
X81866Y122384D01*
X81877Y122396D01*
X81892Y122405D01*
X81962Y122485D01*
X82035Y122562D01*
X82042Y122578D01*
X82053Y122590D01*
X82094Y122689D01*
X82139Y122786D01*
X82141Y122802D01*
X82147Y122818D01*
X82167Y122984D01*
X82168Y123081D01*
X82167Y123083D01*
X82168Y123086D01*
X82169Y124444D01*
X82173Y124456D01*
X82172Y124487D01*
X82180Y124554D01*
X82202Y127088D01*
X82187Y127181D01*
X82180Y127275D01*
X82169Y127302D01*
X82164Y127331D01*
X82121Y127415D01*
X82084Y127502D01*
X82061Y127530D01*
X82051Y127549D01*
X82027Y127572D01*
X81979Y127633D01*
X79966Y129645D01*
X79892Y129698D01*
X79823Y129758D01*
X79793Y129770D01*
X79766Y129789D01*
X79680Y129815D01*
X79595Y129850D01*
X79554Y129854D01*
X79531Y129861D01*
X79499Y129860D01*
X79428Y129868D01*
X76989Y129868D01*
X76515Y130343D01*
X76443Y130394D01*
X76377Y130452D01*
X76344Y130465D01*
X76315Y130486D01*
X76231Y130512D01*
X76149Y130546D01*
X76104Y130551D01*
X76080Y130558D01*
X76049Y130558D01*
X75983Y130565D01*
X73192Y130588D01*
X73099Y130573D01*
X73005Y130566D01*
X72978Y130554D01*
X72949Y130550D01*
X72865Y130506D01*
X72779Y130469D01*
X72750Y130446D01*
X72731Y130436D01*
X72708Y130413D01*
X72648Y130365D01*
X72232Y129949D01*
X66761Y129949D01*
X65226Y131484D01*
X65226Y136355D01*
X66761Y137890D01*
X72232Y137890D01*
X72707Y137416D01*
X72778Y137364D01*
X72845Y137306D01*
X72878Y137293D01*
X72906Y137272D01*
X72990Y137246D01*
X73072Y137213D01*
X73117Y137207D01*
X73141Y137200D01*
X73173Y137201D01*
X73239Y137193D01*
X76029Y137171D01*
X76122Y137185D01*
X76216Y137193D01*
X76243Y137204D01*
X76272Y137209D01*
X76356Y137252D01*
X76443Y137289D01*
X76471Y137312D01*
X76491Y137322D01*
X76514Y137346D01*
X76574Y137394D01*
X76800Y137621D01*
X76812Y137637D01*
X76828Y137649D01*
X76884Y137737D01*
X76944Y137820D01*
X76950Y137839D01*
X76961Y137856D01*
X76986Y137957D01*
X77016Y138055D01*
X77016Y138075D01*
X77021Y138095D01*
X77013Y138198D01*
X77010Y138301D01*
X77003Y138320D01*
X77001Y138340D01*
X76961Y138435D01*
X76925Y138532D01*
X76913Y138548D01*
X76905Y138566D01*
X76800Y138697D01*
X75454Y140043D01*
X75454Y144914D01*
X76257Y145717D01*
X76307Y145786D01*
X76363Y145850D01*
X76378Y145886D01*
X76400Y145917D01*
X76425Y145998D01*
X76459Y146077D01*
X76465Y146126D01*
X76473Y146152D01*
X76472Y146182D01*
X76480Y146243D01*
X76515Y148577D01*
X76501Y148673D01*
X76494Y148770D01*
X76483Y148794D01*
X76479Y148820D01*
X76435Y148907D01*
X76397Y148996D01*
X76377Y149022D01*
X76368Y149040D01*
X76344Y149063D01*
X76293Y149127D01*
X75604Y149815D01*
X75604Y154686D01*
X76950Y156033D01*
X76962Y156049D01*
X76978Y156061D01*
X77034Y156148D01*
X77094Y156232D01*
X77100Y156251D01*
X77111Y156268D01*
X77136Y156368D01*
X77166Y156467D01*
X77166Y156487D01*
X77171Y156507D01*
X77163Y156610D01*
X77160Y156713D01*
X77153Y156732D01*
X77152Y156752D01*
X77111Y156847D01*
X77076Y156944D01*
X77063Y156960D01*
X77055Y156978D01*
X76950Y157109D01*
X76707Y157353D01*
X76634Y157405D01*
X76566Y157464D01*
X76535Y157476D01*
X76507Y157496D01*
X76421Y157523D01*
X76338Y157556D01*
X76295Y157561D01*
X76272Y157569D01*
X76240Y157568D01*
X76171Y157576D01*
X73232Y157586D01*
X73141Y157571D01*
X73048Y157564D01*
X73020Y157552D01*
X72989Y157547D01*
X72907Y157504D01*
X72822Y157468D01*
X72792Y157443D01*
X72771Y157433D01*
X72749Y157409D01*
X72691Y157363D01*
X72259Y156931D01*
X66788Y156931D01*
X65253Y158467D01*
X65253Y163338D01*
X66788Y164873D01*
X72259Y164873D01*
X72718Y164414D01*
X72791Y164362D01*
X72859Y164303D01*
X72890Y164291D01*
X72918Y164271D01*
X73003Y164245D01*
X73087Y164211D01*
X73129Y164206D01*
X73153Y164199D01*
X73184Y164199D01*
X73253Y164192D01*
X75826Y164182D01*
X75845Y164185D01*
X75865Y164183D01*
X75966Y164205D01*
X76069Y164221D01*
X76086Y164230D01*
X76105Y164234D01*
X76194Y164287D01*
X76287Y164335D01*
X76300Y164350D01*
X76317Y164360D01*
X76385Y164438D01*
X76457Y164513D01*
X76465Y164531D01*
X76478Y164546D01*
X76517Y164642D01*
X76561Y164736D01*
X76563Y164755D01*
X76571Y164774D01*
X76590Y164940D01*
X76603Y168067D01*
X76589Y168159D01*
X76582Y168251D01*
X76570Y168280D01*
X76565Y168310D01*
X76522Y168392D01*
X76488Y168471D01*
X76488Y173972D01*
X78023Y175507D01*
X82894Y175507D01*
X84241Y174161D01*
X84257Y174149D01*
X84269Y174134D01*
X84356Y174078D01*
X84440Y174017D01*
X84459Y174012D01*
X84476Y174001D01*
X84577Y173976D01*
X84675Y173945D01*
X84695Y173946D01*
X84715Y173941D01*
X84818Y173949D01*
X84921Y173951D01*
X84940Y173958D01*
X84960Y173960D01*
X85055Y174000D01*
X85152Y174036D01*
X85168Y174048D01*
X85186Y174056D01*
X85317Y174161D01*
X86663Y175507D01*
X91534Y175507D01*
X92302Y174740D01*
X92374Y174688D01*
X92442Y174629D01*
X92474Y174616D01*
X92502Y174596D01*
X92587Y174570D01*
X92669Y174536D01*
X92713Y174531D01*
X92737Y174524D01*
X92768Y174525D01*
X92836Y174517D01*
X95910Y174498D01*
X96003Y174513D01*
X96096Y174520D01*
X96124Y174532D01*
X96153Y174536D01*
X96236Y174580D01*
X96322Y174616D01*
X96352Y174640D01*
X96371Y174650D01*
X96394Y174674D01*
X96453Y174721D01*
X96876Y175144D01*
X102347Y175144D01*
X103882Y173608D01*
X103882Y168737D01*
X102536Y167391D01*
X102524Y167375D01*
X102509Y167363D01*
X102453Y167275D01*
X102392Y167192D01*
X102387Y167173D01*
X102376Y167156D01*
X102350Y167055D01*
X102320Y166956D01*
X102321Y166937D01*
X102316Y166917D01*
X102324Y166814D01*
X102326Y166711D01*
X102333Y166692D01*
X102335Y166672D01*
X102375Y166577D01*
X102411Y166480D01*
X102423Y166464D01*
X102431Y166446D01*
X102536Y166315D01*
X102738Y166113D01*
X102817Y166056D01*
X102891Y165994D01*
X102916Y165985D01*
X102938Y165969D01*
X103030Y165941D01*
X103120Y165906D01*
X103154Y165903D01*
X103173Y165897D01*
X103206Y165898D01*
X103287Y165890D01*
X104714Y165911D01*
X106632Y165939D01*
X106714Y165953D01*
X106797Y165959D01*
X106835Y165975D01*
X106875Y165982D01*
X106947Y166022D01*
X107024Y166054D01*
X107066Y166087D01*
X107090Y166100D01*
X107110Y166122D01*
X107156Y166158D01*
X107495Y166493D01*
X107507Y166509D01*
X107523Y166521D01*
X107579Y166608D01*
X107640Y166691D01*
X107646Y166710D01*
X107657Y166727D01*
X107683Y166827D01*
X107714Y166926D01*
X107714Y166946D01*
X107719Y166965D01*
X107712Y167068D01*
X107710Y167172D01*
X107703Y167191D01*
X107701Y167210D01*
X107662Y167306D01*
X107627Y167403D01*
X107614Y167419D01*
X107607Y167437D01*
X107503Y167569D01*
X106166Y168925D01*
X106200Y173796D01*
X106646Y174235D01*
X106701Y174311D01*
X106762Y174383D01*
X106773Y174410D01*
X106791Y174434D01*
X106819Y174523D01*
X106854Y174611D01*
X106858Y174648D01*
X106865Y174669D01*
X106864Y174701D01*
X106873Y174777D01*
X106873Y180169D01*
X106870Y180189D01*
X106872Y180208D01*
X106850Y180310D01*
X106833Y180412D01*
X106824Y180429D01*
X106819Y180449D01*
X106766Y180538D01*
X106718Y180629D01*
X106704Y180643D01*
X106693Y180660D01*
X106615Y180727D01*
X106540Y180798D01*
X106522Y180807D01*
X106506Y180820D01*
X106410Y180859D01*
X106317Y180902D01*
X106297Y180904D01*
X106278Y180912D01*
X106112Y180930D01*
X36078Y180930D01*
X36008Y180919D01*
X35936Y180917D01*
X35887Y180899D01*
X35836Y180890D01*
X35772Y180857D01*
X35705Y180832D01*
X35664Y180800D01*
X35618Y180775D01*
X35569Y180724D01*
X35513Y180679D01*
X35485Y180635D01*
X35449Y180597D01*
X35419Y180532D01*
X35380Y180472D01*
X35367Y180421D01*
X35345Y180374D01*
X35337Y180303D01*
X35320Y180233D01*
X35324Y180181D01*
X35318Y180130D01*
X35333Y180059D01*
X35339Y179988D01*
X35359Y179940D01*
X35370Y179889D01*
X35407Y179828D01*
X35435Y179762D01*
X35480Y179706D01*
X35497Y179678D01*
X35514Y179663D01*
X35540Y179631D01*
X36560Y178610D01*
X36560Y175953D01*
X36564Y175934D01*
X36561Y175914D01*
X36583Y175813D01*
X36600Y175710D01*
X36609Y175693D01*
X36614Y175673D01*
X36667Y175584D01*
X36715Y175493D01*
X36730Y175479D01*
X36740Y175462D01*
X36819Y175395D01*
X36894Y175324D01*
X36912Y175315D01*
X36927Y175302D01*
X37023Y175264D01*
X37117Y175220D01*
X37136Y175218D01*
X37155Y175210D01*
X37322Y175192D01*
X39499Y175192D01*
X41562Y173130D01*
X41562Y170213D01*
X39499Y168151D01*
X37182Y168151D01*
X37162Y168147D01*
X37142Y168149D01*
X37041Y168127D01*
X36939Y168111D01*
X36921Y168101D01*
X36902Y168097D01*
X36813Y168044D01*
X36722Y167996D01*
X36708Y167981D01*
X36691Y167971D01*
X36623Y167892D01*
X36552Y167817D01*
X36544Y167799D01*
X36531Y167784D01*
X36492Y167688D01*
X36449Y167594D01*
X36446Y167575D01*
X36439Y167556D01*
X36420Y167389D01*
X36420Y164152D01*
X34854Y162585D01*
X31714Y162585D01*
X31624Y162570D01*
X31533Y162563D01*
X31503Y162551D01*
X31471Y162545D01*
X31391Y162503D01*
X31307Y162467D01*
X31275Y162441D01*
X31254Y162430D01*
X31232Y162407D01*
X31176Y162362D01*
X27309Y158495D01*
X27256Y158421D01*
X27196Y158352D01*
X27184Y158322D01*
X27165Y158296D01*
X27139Y158208D01*
X27105Y158124D01*
X27100Y158083D01*
X27093Y158061D01*
X27094Y158028D01*
X27086Y157957D01*
X27086Y152767D01*
X27089Y152747D01*
X27087Y152727D01*
X27109Y152626D01*
X27126Y152524D01*
X27135Y152506D01*
X27139Y152487D01*
X27193Y152398D01*
X27241Y152307D01*
X27255Y152293D01*
X27266Y152276D01*
X27344Y152208D01*
X27419Y152137D01*
X27437Y152129D01*
X27452Y152116D01*
X27549Y152077D01*
X27642Y152034D01*
X27662Y152031D01*
X27681Y152024D01*
X27847Y152005D01*
X34124Y152005D01*
X34868Y151261D01*
X34868Y136708D01*
X34124Y135964D01*
X33592Y135964D01*
X33572Y135961D01*
X33552Y135963D01*
X33451Y135941D01*
X33349Y135924D01*
X33331Y135915D01*
X33312Y135911D01*
X33223Y135857D01*
X33131Y135809D01*
X33118Y135795D01*
X33101Y135785D01*
X33033Y135706D01*
X32962Y135631D01*
X32954Y135613D01*
X32941Y135598D01*
X32902Y135501D01*
X32858Y135408D01*
X32856Y135388D01*
X32849Y135369D01*
X32830Y135203D01*
X32830Y130396D01*
X32845Y130306D01*
X32852Y130215D01*
X32865Y130186D01*
X32870Y130154D01*
X32913Y130073D01*
X32948Y129989D01*
X32974Y129957D01*
X32985Y129936D01*
X33009Y129914D01*
X33053Y129858D01*
X33982Y128929D01*
X33991Y128887D01*
X34008Y128785D01*
X34017Y128767D01*
X34022Y128748D01*
X34075Y128659D01*
X34123Y128568D01*
X34138Y128554D01*
X34148Y128537D01*
X34227Y128469D01*
X34302Y128398D01*
X34320Y128390D01*
X34335Y128377D01*
X34431Y128338D01*
X34525Y128295D01*
X34544Y128292D01*
X34563Y128285D01*
X34730Y128266D01*
X36890Y128266D01*
X36910Y128270D01*
X36930Y128267D01*
X37031Y128289D01*
X37133Y128306D01*
X37151Y128315D01*
X37170Y128320D01*
X37259Y128373D01*
X37351Y128421D01*
X37364Y128436D01*
X37381Y128446D01*
X37449Y128525D01*
X37520Y128600D01*
X37528Y128618D01*
X37541Y128633D01*
X37580Y128729D01*
X37624Y128823D01*
X37626Y128842D01*
X37633Y128861D01*
X37652Y129028D01*
X37652Y139774D01*
X38396Y140518D01*
X40291Y140518D01*
X40381Y140533D01*
X40472Y140540D01*
X40502Y140553D01*
X40534Y140558D01*
X40614Y140601D01*
X40698Y140636D01*
X40730Y140662D01*
X40751Y140673D01*
X40773Y140696D01*
X40829Y140741D01*
X41180Y141092D01*
X41222Y141150D01*
X41271Y141202D01*
X41293Y141249D01*
X41323Y141291D01*
X41344Y141360D01*
X41375Y141425D01*
X41380Y141477D01*
X41396Y141526D01*
X41394Y141598D01*
X41402Y141669D01*
X41391Y141720D01*
X41389Y141772D01*
X41365Y141840D01*
X41349Y141910D01*
X41323Y141954D01*
X41305Y142003D01*
X41260Y142059D01*
X41223Y142121D01*
X41184Y142155D01*
X41151Y142195D01*
X41091Y142234D01*
X41036Y142281D01*
X40995Y142298D01*
X39334Y143958D01*
X39334Y148766D01*
X40901Y150333D01*
X46309Y150333D01*
X47876Y148766D01*
X47876Y143958D01*
X46294Y142376D01*
X46258Y142368D01*
X46156Y142351D01*
X46139Y142342D01*
X46119Y142338D01*
X46030Y142285D01*
X45939Y142236D01*
X45925Y142222D01*
X45908Y142212D01*
X45841Y142133D01*
X45770Y142058D01*
X45761Y142040D01*
X45748Y142025D01*
X45709Y141929D01*
X45666Y141835D01*
X45664Y141815D01*
X45656Y141797D01*
X45638Y141630D01*
X45638Y140644D01*
X45653Y140554D01*
X45660Y140463D01*
X45672Y140434D01*
X45678Y140402D01*
X45720Y140321D01*
X45756Y140237D01*
X45782Y140205D01*
X45793Y140184D01*
X45816Y140162D01*
X45861Y140106D01*
X46274Y139693D01*
X46300Y139650D01*
X46348Y139559D01*
X46362Y139545D01*
X46373Y139528D01*
X46451Y139460D01*
X46526Y139389D01*
X46544Y139381D01*
X46560Y139368D01*
X46656Y139329D01*
X46749Y139286D01*
X46769Y139283D01*
X46788Y139276D01*
X46954Y139257D01*
X50890Y139257D01*
X50910Y139261D01*
X50930Y139258D01*
X51031Y139280D01*
X51133Y139297D01*
X51151Y139306D01*
X51170Y139311D01*
X51259Y139364D01*
X51351Y139412D01*
X51364Y139427D01*
X51381Y139437D01*
X51449Y139516D01*
X51520Y139591D01*
X51528Y139609D01*
X51541Y139624D01*
X51568Y139690D01*
X52341Y140463D01*
X52394Y140537D01*
X52453Y140606D01*
X52465Y140636D01*
X52484Y140663D01*
X52511Y140750D01*
X52545Y140834D01*
X52550Y140875D01*
X52557Y140898D01*
X52556Y140930D01*
X52564Y141001D01*
X52564Y141707D01*
X52561Y141726D01*
X52563Y141745D01*
X52541Y141847D01*
X52524Y141950D01*
X52515Y141967D01*
X52511Y141986D01*
X52458Y142075D01*
X52409Y142167D01*
X52395Y142181D01*
X52385Y142197D01*
X52306Y142265D01*
X52231Y142337D01*
X52213Y142345D01*
X52198Y142357D01*
X52102Y142397D01*
X52007Y142440D01*
X51988Y142443D01*
X51970Y142450D01*
X51896Y142458D01*
X50322Y144038D01*
X50330Y148846D01*
X51899Y150410D01*
X57307Y150400D01*
X58871Y148831D01*
X58863Y144023D01*
X57276Y142441D01*
X57251Y142436D01*
X57149Y142420D01*
X57131Y142410D01*
X57111Y142406D01*
X57022Y142353D01*
X56931Y142305D01*
X56917Y142290D01*
X56899Y142279D01*
X56833Y142201D01*
X56762Y142127D01*
X56753Y142108D01*
X56740Y142092D01*
X56701Y141997D01*
X56658Y141904D01*
X56655Y141883D01*
X56648Y141864D01*
X56629Y141698D01*
X56629Y141493D01*
X56644Y141403D01*
X56651Y141312D01*
X56664Y141282D01*
X56669Y141250D01*
X56712Y141170D01*
X56747Y141086D01*
X56773Y141054D01*
X56784Y141033D01*
X56807Y141011D01*
X56836Y140975D01*
X56837Y140974D01*
X56852Y140955D01*
X57066Y140741D01*
X57140Y140688D01*
X57209Y140629D01*
X57239Y140616D01*
X57266Y140598D01*
X57353Y140571D01*
X57438Y140537D01*
X57479Y140532D01*
X57501Y140525D01*
X57533Y140526D01*
X57604Y140518D01*
X59449Y140518D01*
X60193Y139774D01*
X60193Y127721D01*
X59449Y126977D01*
X59242Y126977D01*
X59222Y126973D01*
X59202Y126976D01*
X59101Y126954D01*
X58999Y126937D01*
X58981Y126928D01*
X58962Y126923D01*
X58873Y126870D01*
X58781Y126822D01*
X58768Y126807D01*
X58751Y126797D01*
X58683Y126718D01*
X58612Y126643D01*
X58604Y126625D01*
X58591Y126610D01*
X58552Y126514D01*
X58508Y126420D01*
X58506Y126401D01*
X58499Y126382D01*
X58480Y126215D01*
X58480Y124326D01*
X57683Y123529D01*
X57641Y123471D01*
X57592Y123419D01*
X57570Y123371D01*
X57539Y123329D01*
X57518Y123261D01*
X57488Y123196D01*
X57482Y123144D01*
X57467Y123094D01*
X57469Y123022D01*
X57461Y122951D01*
X57472Y122900D01*
X57473Y122848D01*
X57498Y122781D01*
X57513Y122711D01*
X57540Y122666D01*
X57558Y122617D01*
X57603Y122561D01*
X57639Y122500D01*
X57679Y122466D01*
X57711Y122425D01*
X57772Y122386D01*
X57826Y122340D01*
X57875Y122320D01*
X57918Y122292D01*
X57988Y122275D01*
X58054Y122248D01*
X58126Y122240D01*
X58157Y122232D01*
X58180Y122234D01*
X58221Y122229D01*
X61683Y122229D01*
X61918Y121994D01*
X61935Y121982D01*
X61947Y121967D01*
X62034Y121911D01*
X62118Y121850D01*
X62137Y121845D01*
X62154Y121834D01*
X62254Y121808D01*
X62353Y121778D01*
X62373Y121779D01*
X62393Y121774D01*
X62496Y121782D01*
X62599Y121784D01*
X62618Y121791D01*
X62638Y121793D01*
X62733Y121833D01*
X62830Y121869D01*
X62846Y121881D01*
X62864Y121889D01*
X62995Y121994D01*
X63230Y122229D01*
X66683Y122229D01*
X66918Y121994D01*
X66935Y121982D01*
X66947Y121967D01*
X67034Y121911D01*
X67118Y121850D01*
X67137Y121845D01*
X67154Y121834D01*
X67254Y121808D01*
X67353Y121778D01*
X67373Y121779D01*
X67393Y121774D01*
X67496Y121782D01*
X67599Y121784D01*
X67618Y121791D01*
X67638Y121793D01*
X67733Y121833D01*
X67830Y121869D01*
X67846Y121881D01*
X67864Y121889D01*
X67995Y121994D01*
X68230Y122229D01*
X71683Y122229D01*
X71918Y121994D01*
X71935Y121982D01*
X71947Y121967D01*
X72034Y121911D01*
X72118Y121850D01*
X72137Y121845D01*
X72154Y121834D01*
X72254Y121808D01*
X72353Y121778D01*
X72373Y121779D01*
X72393Y121774D01*
X72496Y121782D01*
X72599Y121784D01*
X72618Y121791D01*
X72638Y121793D01*
X72733Y121833D01*
X72830Y121869D01*
X72846Y121881D01*
X72864Y121889D01*
X72995Y121994D01*
X73230Y122229D01*
X76683Y122229D01*
X76918Y121994D01*
X76935Y121982D01*
X76947Y121967D01*
X77034Y121911D01*
X77118Y121850D01*
X77137Y121845D01*
X77154Y121834D01*
X77254Y121808D01*
X77353Y121778D01*
X77373Y121779D01*
X77393Y121774D01*
X77496Y121782D01*
G37*
G36*
X142286Y98773D02*
X142286Y98773D01*
X142364Y98775D01*
X142407Y98791D01*
X142453Y98798D01*
X142522Y98833D01*
X142595Y98860D01*
X142631Y98889D01*
X142672Y98909D01*
X142727Y98965D01*
X142787Y99014D01*
X142812Y99052D01*
X142844Y99085D01*
X142910Y99205D01*
X142920Y99220D01*
X142922Y99225D01*
X142925Y99232D01*
X143683Y101062D01*
X145470Y102848D01*
X146104Y103111D01*
X146165Y103149D01*
X146231Y103178D01*
X146269Y103213D01*
X146313Y103241D01*
X146359Y103296D01*
X146412Y103345D01*
X146437Y103390D01*
X146470Y103430D01*
X146496Y103497D01*
X146530Y103560D01*
X146540Y103611D01*
X146558Y103660D01*
X146561Y103732D01*
X146574Y103802D01*
X146566Y103854D01*
X146569Y103906D01*
X146549Y103975D01*
X146538Y104046D01*
X146515Y104092D01*
X146500Y104142D01*
X146459Y104201D01*
X146427Y104265D01*
X146390Y104301D01*
X146360Y104344D01*
X146302Y104387D01*
X146251Y104437D01*
X146188Y104471D01*
X146162Y104491D01*
X146140Y104498D01*
X146104Y104518D01*
X145470Y104781D01*
X143683Y106567D01*
X142716Y108901D01*
X142716Y111428D01*
X143683Y113762D01*
X145470Y115548D01*
X146128Y115821D01*
X146227Y115883D01*
X146327Y115943D01*
X146332Y115947D01*
X146337Y115951D01*
X146411Y116041D01*
X146487Y116129D01*
X146490Y116135D01*
X146494Y116140D01*
X146535Y116248D01*
X146579Y116358D01*
X146580Y116365D01*
X146582Y116370D01*
X146583Y116388D01*
X146598Y116524D01*
X146598Y132786D01*
X146595Y132806D01*
X146597Y132826D01*
X146575Y132927D01*
X146558Y133029D01*
X146549Y133047D01*
X146545Y133066D01*
X146491Y133155D01*
X146443Y133247D01*
X146429Y133260D01*
X146418Y133277D01*
X146340Y133345D01*
X146265Y133416D01*
X146247Y133424D01*
X146231Y133437D01*
X146135Y133476D01*
X146042Y133520D01*
X146022Y133522D01*
X146003Y133529D01*
X145837Y133548D01*
X123984Y133548D01*
X123240Y134292D01*
X123240Y145845D01*
X123643Y146248D01*
X123685Y146306D01*
X123734Y146358D01*
X123756Y146406D01*
X123787Y146448D01*
X123808Y146516D01*
X123838Y146581D01*
X123844Y146633D01*
X123859Y146683D01*
X123857Y146755D01*
X123865Y146826D01*
X123854Y146877D01*
X123853Y146929D01*
X123828Y146996D01*
X123813Y147066D01*
X123786Y147111D01*
X123768Y147160D01*
X123723Y147216D01*
X123687Y147277D01*
X123647Y147311D01*
X123615Y147352D01*
X123554Y147391D01*
X123500Y147437D01*
X123451Y147457D01*
X123408Y147485D01*
X123338Y147502D01*
X123272Y147529D01*
X123200Y147537D01*
X123169Y147545D01*
X123146Y147543D01*
X123105Y147548D01*
X115734Y147548D01*
X114990Y148292D01*
X114990Y149812D01*
X114987Y149828D01*
X114989Y149844D01*
X114967Y149949D01*
X114950Y150055D01*
X114942Y150069D01*
X114939Y150085D01*
X114885Y150178D01*
X114835Y150272D01*
X114823Y150283D01*
X114815Y150297D01*
X114734Y150368D01*
X114657Y150441D01*
X114642Y150448D01*
X114629Y150459D01*
X114531Y150500D01*
X114434Y150545D01*
X114417Y150547D01*
X114402Y150553D01*
X114236Y150573D01*
X114179Y150574D01*
X114085Y150559D01*
X113991Y150552D01*
X113964Y150540D01*
X113936Y150536D01*
X113852Y150492D01*
X113765Y150455D01*
X113736Y150433D01*
X113718Y150423D01*
X113695Y150399D01*
X113634Y150351D01*
X113212Y149929D01*
X107741Y149929D01*
X106206Y151464D01*
X106206Y156335D01*
X107552Y157682D01*
X107564Y157698D01*
X107579Y157710D01*
X107608Y157755D01*
X107636Y157785D01*
X107655Y157825D01*
X107696Y157881D01*
X107701Y157900D01*
X107712Y157917D01*
X107729Y157985D01*
X107740Y158008D01*
X107743Y158036D01*
X107768Y158116D01*
X107767Y158136D01*
X107772Y158156D01*
X107766Y158240D01*
X107767Y158252D01*
X107764Y158266D01*
X107762Y158362D01*
X107755Y158381D01*
X107753Y158401D01*
X107716Y158489D01*
X107715Y158493D01*
X107712Y158497D01*
X107677Y158593D01*
X107665Y158609D01*
X107657Y158627D01*
X107552Y158758D01*
X107200Y159110D01*
X107122Y159166D01*
X107047Y159228D01*
X107022Y159238D01*
X107001Y159253D01*
X106908Y159282D01*
X106818Y159317D01*
X106785Y159320D01*
X106765Y159326D01*
X106732Y159325D01*
X106651Y159333D01*
X103374Y159285D01*
X103289Y159270D01*
X103204Y159263D01*
X103169Y159248D01*
X103132Y159242D01*
X103056Y159200D01*
X102978Y159167D01*
X102939Y159136D01*
X102916Y159123D01*
X102895Y159101D01*
X102847Y159062D01*
X102347Y158562D01*
X96876Y158562D01*
X95341Y160097D01*
X95341Y164968D01*
X96687Y166315D01*
X96698Y166331D01*
X96714Y166343D01*
X96770Y166431D01*
X96830Y166514D01*
X96836Y166533D01*
X96847Y166550D01*
X96872Y166651D01*
X96903Y166749D01*
X96902Y166769D01*
X96907Y166789D01*
X96899Y166892D01*
X96896Y166995D01*
X96889Y167014D01*
X96888Y167034D01*
X96848Y167129D01*
X96812Y167226D01*
X96799Y167242D01*
X96792Y167260D01*
X96687Y167391D01*
X96408Y167670D01*
X96336Y167722D01*
X96269Y167780D01*
X96237Y167793D01*
X96208Y167813D01*
X96124Y167839D01*
X96041Y167873D01*
X95997Y167878D01*
X95973Y167886D01*
X95942Y167885D01*
X95875Y167893D01*
X92800Y167911D01*
X92707Y167897D01*
X92614Y167889D01*
X92587Y167878D01*
X92557Y167873D01*
X92474Y167830D01*
X92388Y167793D01*
X92358Y167769D01*
X92339Y167759D01*
X92316Y167736D01*
X92257Y167688D01*
X91534Y166966D01*
X86663Y166966D01*
X85317Y168312D01*
X85301Y168323D01*
X85289Y168339D01*
X85201Y168395D01*
X85117Y168455D01*
X85099Y168461D01*
X85082Y168472D01*
X84981Y168497D01*
X84882Y168528D01*
X84862Y168527D01*
X84843Y168532D01*
X84740Y168524D01*
X84636Y168521D01*
X84618Y168515D01*
X84598Y168513D01*
X84503Y168473D01*
X84405Y168437D01*
X84390Y168424D01*
X84372Y168417D01*
X84241Y168312D01*
X83427Y167498D01*
X83375Y167426D01*
X83316Y167358D01*
X83303Y167326D01*
X83284Y167299D01*
X83257Y167213D01*
X83223Y167130D01*
X83218Y167087D01*
X83211Y167064D01*
X83212Y167032D01*
X83204Y166963D01*
X83194Y164597D01*
X83208Y164505D01*
X83216Y164413D01*
X83228Y164384D01*
X83233Y164354D01*
X83276Y164272D01*
X83312Y164186D01*
X83336Y164156D01*
X83347Y164136D01*
X83370Y164114D01*
X83417Y164055D01*
X84146Y163326D01*
X84146Y158455D01*
X82800Y157109D01*
X82788Y157093D01*
X82772Y157081D01*
X82716Y156993D01*
X82656Y156909D01*
X82650Y156890D01*
X82639Y156874D01*
X82614Y156773D01*
X82584Y156674D01*
X82584Y156654D01*
X82579Y156635D01*
X82587Y156532D01*
X82590Y156428D01*
X82597Y156410D01*
X82598Y156390D01*
X82639Y156295D01*
X82674Y156197D01*
X82687Y156182D01*
X82695Y156164D01*
X82800Y156033D01*
X84146Y154686D01*
X84146Y153077D01*
X84162Y152978D01*
X84172Y152877D01*
X84182Y152856D01*
X84185Y152834D01*
X84233Y152745D01*
X84275Y152653D01*
X84293Y152632D01*
X84301Y152617D01*
X84324Y152594D01*
X84383Y152525D01*
X90451Y146763D01*
X90518Y146717D01*
X90580Y146665D01*
X90619Y146649D01*
X90654Y146625D01*
X90733Y146603D01*
X90808Y146573D01*
X90863Y146566D01*
X90891Y146559D01*
X90920Y146560D01*
X90975Y146554D01*
X92792Y146554D01*
X94327Y145019D01*
X94327Y140148D01*
X92981Y138802D01*
X92969Y138785D01*
X92954Y138773D01*
X92898Y138686D01*
X92837Y138602D01*
X92832Y138583D01*
X92821Y138566D01*
X92795Y138466D01*
X92765Y138367D01*
X92766Y138347D01*
X92761Y138328D01*
X92769Y138225D01*
X92771Y138121D01*
X92778Y138102D01*
X92780Y138082D01*
X92820Y137988D01*
X92856Y137890D01*
X92868Y137874D01*
X92876Y137856D01*
X92981Y137725D01*
X93237Y137469D01*
X93311Y137416D01*
X93380Y137356D01*
X93411Y137344D01*
X93437Y137326D01*
X93524Y137299D01*
X93609Y137265D01*
X93649Y137260D01*
X93672Y137253D01*
X93704Y137254D01*
X93775Y137246D01*
X96573Y137246D01*
X96663Y137261D01*
X96754Y137268D01*
X96784Y137281D01*
X96816Y137286D01*
X96896Y137329D01*
X96980Y137364D01*
X97012Y137390D01*
X97033Y137401D01*
X97055Y137424D01*
X97111Y137469D01*
X97367Y137725D01*
X97379Y137741D01*
X97394Y137754D01*
X97451Y137841D01*
X97511Y137925D01*
X97517Y137944D01*
X97527Y137961D01*
X97553Y138061D01*
X97583Y138160D01*
X97583Y138180D01*
X97587Y138199D01*
X97579Y138302D01*
X97577Y138406D01*
X97570Y138425D01*
X97568Y138444D01*
X97528Y138539D01*
X97492Y138637D01*
X97480Y138652D01*
X97472Y138671D01*
X97367Y138802D01*
X96021Y140148D01*
X96021Y145019D01*
X97556Y146554D01*
X103027Y146554D01*
X103437Y146144D01*
X103514Y146089D01*
X103587Y146028D01*
X103613Y146018D01*
X103637Y146001D01*
X103727Y145973D01*
X103816Y145938D01*
X103852Y145935D01*
X103872Y145929D01*
X103905Y145929D01*
X103982Y145922D01*
X106956Y145950D01*
X107042Y145965D01*
X107130Y145972D01*
X107163Y145986D01*
X107198Y145992D01*
X107275Y146034D01*
X107356Y146068D01*
X107392Y146097D01*
X107414Y146109D01*
X107436Y146132D01*
X107487Y146173D01*
X107968Y146654D01*
X113439Y146654D01*
X114974Y145119D01*
X114974Y140247D01*
X113439Y138712D01*
X107968Y138712D01*
X107558Y139122D01*
X107481Y139177D01*
X107408Y139238D01*
X107382Y139249D01*
X107358Y139265D01*
X107268Y139293D01*
X107179Y139328D01*
X107143Y139332D01*
X107123Y139338D01*
X107090Y139337D01*
X107013Y139345D01*
X104039Y139316D01*
X103953Y139301D01*
X103865Y139295D01*
X103832Y139280D01*
X103797Y139274D01*
X103720Y139233D01*
X103639Y139198D01*
X103603Y139169D01*
X103580Y139157D01*
X103559Y139134D01*
X103508Y139093D01*
X103216Y138802D01*
X103205Y138785D01*
X103189Y138773D01*
X103133Y138686D01*
X103073Y138602D01*
X103067Y138583D01*
X103056Y138566D01*
X103031Y138466D01*
X103000Y138367D01*
X103001Y138347D01*
X102996Y138328D01*
X103004Y138225D01*
X103007Y138121D01*
X103014Y138102D01*
X103015Y138082D01*
X103056Y137987D01*
X103091Y137890D01*
X103104Y137874D01*
X103112Y137856D01*
X103216Y137725D01*
X104563Y136379D01*
X104563Y131508D01*
X103027Y129973D01*
X97556Y129973D01*
X97111Y130418D01*
X97037Y130471D01*
X96968Y130530D01*
X96938Y130542D01*
X96911Y130561D01*
X96824Y130588D01*
X96740Y130622D01*
X96699Y130627D01*
X96676Y130634D01*
X96644Y130633D01*
X96573Y130641D01*
X93775Y130641D01*
X93685Y130626D01*
X93594Y130619D01*
X93564Y130606D01*
X93532Y130601D01*
X93452Y130558D01*
X93368Y130522D01*
X93336Y130497D01*
X93315Y130486D01*
X93293Y130462D01*
X93237Y130418D01*
X93011Y130191D01*
X92957Y130117D01*
X92898Y130047D01*
X92886Y130017D01*
X92867Y129992D01*
X92840Y129904D01*
X92806Y129819D01*
X92802Y129779D01*
X92795Y129757D01*
X92796Y129724D01*
X92788Y129652D01*
X92800Y122440D01*
X92814Y122356D01*
X92819Y122272D01*
X92824Y122260D01*
X92802Y120986D01*
X92803Y120980D01*
X92802Y120972D01*
X92805Y119532D01*
X92809Y116829D01*
X92659Y116685D01*
X92601Y116606D01*
X92538Y116532D01*
X92528Y116508D01*
X92513Y116487D01*
X92482Y116395D01*
X92446Y116304D01*
X92442Y116272D01*
X92436Y116253D01*
X92437Y116221D01*
X92427Y116137D01*
X92427Y114691D01*
X92431Y114671D01*
X92428Y114651D01*
X92450Y114550D01*
X92467Y114448D01*
X92476Y114430D01*
X92481Y114411D01*
X92534Y114322D01*
X92582Y114230D01*
X92597Y114217D01*
X92607Y114200D01*
X92686Y114132D01*
X92761Y114061D01*
X92779Y114053D01*
X92794Y114040D01*
X92890Y114001D01*
X92984Y113957D01*
X93003Y113955D01*
X93022Y113948D01*
X93189Y113929D01*
X94580Y113929D01*
X94651Y113941D01*
X94723Y113943D01*
X94771Y113961D01*
X94823Y113969D01*
X94886Y114003D01*
X94954Y114027D01*
X94994Y114060D01*
X95040Y114084D01*
X95089Y114136D01*
X95146Y114181D01*
X95174Y114225D01*
X95210Y114262D01*
X95240Y114328D01*
X95279Y114388D01*
X95291Y114438D01*
X95313Y114486D01*
X95321Y114557D01*
X95339Y114626D01*
X95335Y114678D01*
X95340Y114730D01*
X95325Y114800D01*
X95319Y114872D01*
X95299Y114920D01*
X95288Y114970D01*
X95251Y115032D01*
X95223Y115098D01*
X95218Y115104D01*
X95218Y118266D01*
X97436Y120484D01*
X100089Y120484D01*
X100109Y120488D01*
X100128Y120485D01*
X100230Y120507D01*
X100332Y120524D01*
X100349Y120533D01*
X100369Y120538D01*
X100458Y120591D01*
X100549Y120639D01*
X100563Y120654D01*
X100580Y120664D01*
X100647Y120743D01*
X100719Y120818D01*
X100727Y120836D01*
X100740Y120851D01*
X100779Y120947D01*
X100822Y121041D01*
X100824Y121060D01*
X100832Y121079D01*
X100850Y121246D01*
X100850Y123880D01*
X102417Y125447D01*
X107225Y125447D01*
X108792Y123880D01*
X108792Y118472D01*
X107839Y117519D01*
X107786Y117445D01*
X107726Y117376D01*
X107714Y117346D01*
X107695Y117320D01*
X107668Y117233D01*
X107634Y117148D01*
X107630Y117107D01*
X107623Y117085D01*
X107624Y117052D01*
X107616Y116981D01*
X107616Y116280D01*
X107630Y116190D01*
X107638Y116099D01*
X107650Y116069D01*
X107655Y116037D01*
X107698Y115956D01*
X107734Y115872D01*
X107760Y115840D01*
X107771Y115820D01*
X107794Y115798D01*
X107839Y115742D01*
X109397Y114184D01*
X109397Y108776D01*
X108206Y107585D01*
X108164Y107527D01*
X108114Y107475D01*
X108092Y107427D01*
X108062Y107385D01*
X108041Y107317D01*
X108011Y107252D01*
X108005Y107200D01*
X107990Y107150D01*
X107992Y107078D01*
X107984Y107007D01*
X107995Y106956D01*
X107996Y106904D01*
X108021Y106837D01*
X108036Y106767D01*
X108063Y106722D01*
X108081Y106673D01*
X108125Y106617D01*
X108162Y106556D01*
X108202Y106522D01*
X108234Y106481D01*
X108295Y106442D01*
X108349Y106396D01*
X108397Y106376D01*
X108441Y106348D01*
X108511Y106331D01*
X108577Y106304D01*
X108649Y106296D01*
X108680Y106288D01*
X108703Y106290D01*
X108744Y106285D01*
X113920Y106285D01*
X114010Y106300D01*
X114101Y106307D01*
X114131Y106320D01*
X114163Y106325D01*
X114244Y106368D01*
X114327Y106403D01*
X114360Y106429D01*
X114380Y106440D01*
X114402Y106464D01*
X114458Y106508D01*
X115897Y107947D01*
X117310Y109360D01*
X119262Y109360D01*
X119281Y109364D01*
X119301Y109361D01*
X119402Y109383D01*
X119504Y109400D01*
X119522Y109409D01*
X119541Y109414D01*
X119631Y109467D01*
X119722Y109515D01*
X119735Y109530D01*
X119753Y109540D01*
X119820Y109619D01*
X119891Y109694D01*
X119900Y109712D01*
X119913Y109727D01*
X119951Y109823D01*
X119995Y109917D01*
X119997Y109936D01*
X120004Y109955D01*
X120023Y110122D01*
X120023Y112604D01*
X120767Y113348D01*
X122750Y113348D01*
X122769Y113352D01*
X122789Y113349D01*
X122890Y113371D01*
X122992Y113388D01*
X123010Y113397D01*
X123029Y113402D01*
X123119Y113455D01*
X123210Y113503D01*
X123223Y113518D01*
X123241Y113528D01*
X123308Y113607D01*
X123379Y113682D01*
X123388Y113700D01*
X123401Y113715D01*
X123439Y113811D01*
X123483Y113905D01*
X123485Y113924D01*
X123492Y113943D01*
X123511Y114110D01*
X123511Y116107D01*
X123496Y116197D01*
X123489Y116288D01*
X123476Y116317D01*
X123471Y116349D01*
X123428Y116430D01*
X123393Y116514D01*
X123367Y116546D01*
X123356Y116567D01*
X123333Y116589D01*
X123288Y116645D01*
X122197Y117736D01*
X122197Y123207D01*
X123732Y124742D01*
X128603Y124742D01*
X130138Y123207D01*
X130138Y117736D01*
X128603Y116201D01*
X128338Y116201D01*
X128318Y116198D01*
X128298Y116200D01*
X128197Y116178D01*
X128095Y116161D01*
X128077Y116152D01*
X128058Y116148D01*
X127969Y116094D01*
X127878Y116046D01*
X127864Y116032D01*
X127847Y116021D01*
X127779Y115943D01*
X127708Y115868D01*
X127700Y115850D01*
X127687Y115835D01*
X127648Y115738D01*
X127605Y115645D01*
X127602Y115625D01*
X127595Y115606D01*
X127576Y115440D01*
X127576Y114110D01*
X127580Y114090D01*
X127577Y114070D01*
X127599Y113969D01*
X127616Y113867D01*
X127625Y113849D01*
X127630Y113830D01*
X127683Y113741D01*
X127731Y113650D01*
X127746Y113636D01*
X127756Y113619D01*
X127835Y113551D01*
X127910Y113480D01*
X127928Y113472D01*
X127943Y113459D01*
X128039Y113420D01*
X128133Y113377D01*
X128152Y113374D01*
X128171Y113367D01*
X128338Y113348D01*
X130320Y113348D01*
X131064Y112604D01*
X131064Y102371D01*
X131079Y102281D01*
X131086Y102190D01*
X131099Y102160D01*
X131104Y102128D01*
X131147Y102047D01*
X131183Y101963D01*
X131208Y101931D01*
X131219Y101911D01*
X131243Y101888D01*
X131287Y101832D01*
X134048Y99071D01*
X134122Y99018D01*
X134192Y98959D01*
X134222Y98947D01*
X134248Y98928D01*
X134335Y98901D01*
X134420Y98867D01*
X134461Y98862D01*
X134483Y98856D01*
X134515Y98856D01*
X134587Y98848D01*
X141873Y98848D01*
X141883Y98841D01*
X141927Y98828D01*
X141967Y98806D01*
X142044Y98792D01*
X142118Y98769D01*
X142164Y98770D01*
X142209Y98762D01*
X142286Y98773D01*
G37*
G36*
X145856Y637D02*
X145856Y637D01*
X145876Y635D01*
X145977Y657D01*
X146079Y674D01*
X146097Y683D01*
X146116Y687D01*
X146205Y741D01*
X146297Y789D01*
X146310Y803D01*
X146327Y814D01*
X146395Y892D01*
X146466Y967D01*
X146474Y985D01*
X146487Y1001D01*
X146526Y1097D01*
X146570Y1190D01*
X146572Y1210D01*
X146579Y1229D01*
X146598Y1395D01*
X146598Y14905D01*
X146579Y15019D01*
X146562Y15136D01*
X146559Y15141D01*
X146558Y15147D01*
X146504Y15250D01*
X146450Y15355D01*
X146446Y15359D01*
X146443Y15365D01*
X146359Y15445D01*
X146275Y15527D01*
X146268Y15531D01*
X146265Y15534D01*
X146248Y15542D01*
X146128Y15608D01*
X145470Y15881D01*
X143683Y17667D01*
X142716Y20001D01*
X142716Y22528D01*
X143170Y23623D01*
X143196Y23736D01*
X143225Y23850D01*
X143225Y23856D01*
X143226Y23862D01*
X143215Y23979D01*
X143206Y24095D01*
X143203Y24101D01*
X143203Y24107D01*
X143155Y24214D01*
X143110Y24321D01*
X143105Y24327D01*
X143103Y24332D01*
X143090Y24345D01*
X143005Y24452D01*
X141336Y26121D01*
X139922Y27535D01*
X139922Y38610D01*
X139908Y38700D01*
X139900Y38791D01*
X139888Y38821D01*
X139883Y38853D01*
X139840Y38933D01*
X139804Y39017D01*
X139778Y39049D01*
X139768Y39070D01*
X139744Y39092D01*
X139699Y39148D01*
X137128Y41719D01*
X137128Y42843D01*
X137114Y42933D01*
X137106Y43024D01*
X137094Y43053D01*
X137089Y43085D01*
X137046Y43166D01*
X137010Y43250D01*
X136984Y43282D01*
X136974Y43303D01*
X136950Y43325D01*
X136905Y43381D01*
X136827Y43459D01*
X136753Y43512D01*
X136684Y43572D01*
X136654Y43584D01*
X136627Y43603D01*
X136540Y43629D01*
X136456Y43664D01*
X136415Y43668D01*
X136392Y43675D01*
X136360Y43674D01*
X136289Y43682D01*
X113320Y43682D01*
X111907Y45096D01*
X111820Y45182D01*
X111762Y45224D01*
X111710Y45274D01*
X111663Y45295D01*
X111621Y45326D01*
X111552Y45347D01*
X111487Y45377D01*
X111435Y45383D01*
X111386Y45398D01*
X111314Y45396D01*
X111243Y45404D01*
X111192Y45393D01*
X111140Y45392D01*
X111072Y45367D01*
X111002Y45352D01*
X110958Y45325D01*
X110909Y45307D01*
X110853Y45263D01*
X110791Y45226D01*
X110757Y45186D01*
X110717Y45154D01*
X110678Y45093D01*
X110631Y45039D01*
X110612Y44991D01*
X110584Y44947D01*
X110566Y44877D01*
X110539Y44811D01*
X110531Y44740D01*
X110523Y44708D01*
X110525Y44685D01*
X110521Y44644D01*
X110521Y44542D01*
X108235Y42256D01*
X108226Y42244D01*
X108206Y42228D01*
X108178Y42184D01*
X108142Y42146D01*
X108117Y42092D01*
X108092Y42057D01*
X108088Y42043D01*
X108073Y42021D01*
X108061Y41970D01*
X108039Y41923D01*
X108032Y41862D01*
X108019Y41821D01*
X108020Y41808D01*
X108013Y41782D01*
X108017Y41730D01*
X108012Y41679D01*
X108025Y41618D01*
X108026Y41576D01*
X108030Y41563D01*
X108032Y41537D01*
X108053Y41489D01*
X108064Y41438D01*
X108095Y41386D01*
X108110Y41345D01*
X108119Y41334D01*
X108129Y41311D01*
X108174Y41255D01*
X108190Y41227D01*
X108208Y41212D01*
X108234Y41180D01*
X109034Y40379D01*
X109108Y40326D01*
X109178Y40267D01*
X109208Y40254D01*
X109234Y40236D01*
X109321Y40209D01*
X109406Y40175D01*
X109447Y40170D01*
X109469Y40163D01*
X109501Y40164D01*
X109573Y40156D01*
X113057Y40156D01*
X114603Y38610D01*
X114619Y38598D01*
X114632Y38583D01*
X114719Y38527D01*
X114803Y38467D01*
X114822Y38461D01*
X114839Y38450D01*
X114939Y38425D01*
X115038Y38394D01*
X115058Y38395D01*
X115077Y38390D01*
X115180Y38398D01*
X115284Y38401D01*
X115303Y38407D01*
X115322Y38409D01*
X115417Y38449D01*
X115515Y38485D01*
X115530Y38497D01*
X115549Y38505D01*
X115680Y38610D01*
X117201Y40131D01*
X122609Y40131D01*
X124175Y38564D01*
X124175Y33756D01*
X122818Y32399D01*
X122806Y32382D01*
X122790Y32370D01*
X122734Y32283D01*
X122674Y32199D01*
X122668Y32180D01*
X122657Y32163D01*
X122632Y32063D01*
X122602Y31964D01*
X122602Y31944D01*
X122597Y31925D01*
X122605Y31822D01*
X122608Y31718D01*
X122615Y31699D01*
X122616Y31679D01*
X122657Y31585D01*
X122661Y31572D01*
X122663Y31566D01*
X122665Y31562D01*
X122692Y31487D01*
X122705Y31471D01*
X122713Y31453D01*
X122781Y31368D01*
X122789Y31355D01*
X122797Y31347D01*
X122818Y31322D01*
X124175Y29964D01*
X124175Y27016D01*
X124179Y26996D01*
X124176Y26976D01*
X124198Y26875D01*
X124215Y26773D01*
X124224Y26755D01*
X124229Y26736D01*
X124282Y26647D01*
X124330Y26555D01*
X124345Y26542D01*
X124355Y26525D01*
X124434Y26457D01*
X124509Y26386D01*
X124527Y26378D01*
X124542Y26365D01*
X124638Y26326D01*
X124732Y26282D01*
X124751Y26280D01*
X124770Y26273D01*
X124937Y26254D01*
X126458Y26254D01*
X128521Y24192D01*
X128521Y23149D01*
X128524Y23129D01*
X128522Y23110D01*
X128544Y23008D01*
X128560Y22906D01*
X128570Y22889D01*
X128574Y22869D01*
X128627Y22780D01*
X128676Y22689D01*
X128690Y22675D01*
X128700Y22658D01*
X128779Y22591D01*
X128854Y22520D01*
X128872Y22511D01*
X128887Y22498D01*
X128983Y22459D01*
X129077Y22416D01*
X129097Y22414D01*
X129115Y22406D01*
X129282Y22388D01*
X137564Y22388D01*
X139187Y20765D01*
X139187Y11469D01*
X137564Y9846D01*
X128269Y9846D01*
X126646Y11469D01*
X126646Y13323D01*
X126642Y13343D01*
X126645Y13363D01*
X126623Y13464D01*
X126606Y13566D01*
X126597Y13583D01*
X126592Y13603D01*
X126539Y13692D01*
X126491Y13783D01*
X126476Y13797D01*
X126466Y13814D01*
X126387Y13881D01*
X126312Y13953D01*
X126294Y13961D01*
X126279Y13974D01*
X126183Y14013D01*
X126089Y14056D01*
X126070Y14058D01*
X126051Y14066D01*
X125884Y14084D01*
X125280Y14084D01*
X125261Y14081D01*
X125241Y14083D01*
X125139Y14061D01*
X125037Y14045D01*
X125020Y14035D01*
X125000Y14031D01*
X124911Y13978D01*
X124820Y13930D01*
X124806Y13915D01*
X124789Y13905D01*
X124722Y13826D01*
X124651Y13751D01*
X124642Y13733D01*
X124629Y13718D01*
X124591Y13622D01*
X124547Y13528D01*
X124545Y13508D01*
X124537Y13490D01*
X124523Y13356D01*
X122952Y11786D01*
X118144Y11786D01*
X116786Y13143D01*
X116770Y13155D01*
X116758Y13171D01*
X116670Y13227D01*
X116587Y13287D01*
X116568Y13293D01*
X116551Y13304D01*
X116450Y13329D01*
X116352Y13359D01*
X116332Y13359D01*
X116312Y13364D01*
X116209Y13356D01*
X116106Y13353D01*
X116087Y13346D01*
X116067Y13345D01*
X115972Y13304D01*
X115875Y13269D01*
X115859Y13256D01*
X115841Y13248D01*
X115710Y13143D01*
X114352Y11786D01*
X109544Y11786D01*
X107962Y13368D01*
X107954Y13403D01*
X107938Y13505D01*
X107928Y13523D01*
X107924Y13542D01*
X107871Y13631D01*
X107823Y13723D01*
X107808Y13736D01*
X107798Y13753D01*
X107719Y13821D01*
X107644Y13892D01*
X107626Y13900D01*
X107611Y13913D01*
X107515Y13952D01*
X107421Y13996D01*
X107401Y13998D01*
X107383Y14005D01*
X107216Y14024D01*
X106214Y14024D01*
X106124Y14009D01*
X106033Y14002D01*
X106003Y13989D01*
X105971Y13984D01*
X105890Y13941D01*
X105806Y13905D01*
X105774Y13880D01*
X105754Y13869D01*
X105731Y13845D01*
X105675Y13801D01*
X104744Y12869D01*
X104691Y12795D01*
X104631Y12726D01*
X104619Y12695D01*
X104600Y12669D01*
X104573Y12582D01*
X104539Y12497D01*
X104535Y12456D01*
X104528Y12434D01*
X104529Y12402D01*
X104521Y12331D01*
X104521Y10542D01*
X102458Y8479D01*
X99542Y8479D01*
X97479Y10542D01*
X97479Y13458D01*
X99542Y15521D01*
X101331Y15521D01*
X101421Y15535D01*
X101512Y15543D01*
X101541Y15555D01*
X101573Y15560D01*
X101654Y15603D01*
X101738Y15639D01*
X101770Y15665D01*
X101791Y15676D01*
X101813Y15699D01*
X101869Y15744D01*
X104214Y18089D01*
X107216Y18089D01*
X107236Y18092D01*
X107256Y18090D01*
X107357Y18112D01*
X107459Y18129D01*
X107477Y18138D01*
X107496Y18142D01*
X107585Y18196D01*
X107676Y18244D01*
X107690Y18258D01*
X107707Y18269D01*
X107775Y18347D01*
X107846Y18422D01*
X107854Y18440D01*
X107867Y18455D01*
X107906Y18552D01*
X107949Y18645D01*
X107952Y18665D01*
X107959Y18684D01*
X107966Y18749D01*
X109544Y20327D01*
X114352Y20327D01*
X115710Y18969D01*
X115726Y18958D01*
X115739Y18942D01*
X115826Y18886D01*
X115910Y18826D01*
X115929Y18820D01*
X115945Y18809D01*
X116046Y18784D01*
X116145Y18753D01*
X116165Y18754D01*
X116184Y18749D01*
X116287Y18757D01*
X116391Y18760D01*
X116409Y18767D01*
X116429Y18768D01*
X116524Y18809D01*
X116622Y18844D01*
X116637Y18857D01*
X116656Y18864D01*
X116786Y18969D01*
X118144Y20327D01*
X120718Y20327D01*
X120738Y20330D01*
X120757Y20328D01*
X120859Y20350D01*
X120961Y20367D01*
X120978Y20376D01*
X120998Y20380D01*
X121087Y20434D01*
X121178Y20482D01*
X121192Y20496D01*
X121209Y20507D01*
X121276Y20585D01*
X121348Y20660D01*
X121356Y20678D01*
X121369Y20693D01*
X121408Y20790D01*
X121451Y20883D01*
X121453Y20903D01*
X121461Y20922D01*
X121479Y21088D01*
X121479Y22828D01*
X121476Y22848D01*
X121478Y22868D01*
X121456Y22969D01*
X121440Y23071D01*
X121430Y23089D01*
X121426Y23108D01*
X121373Y23197D01*
X121324Y23288D01*
X121310Y23302D01*
X121300Y23319D01*
X121221Y23387D01*
X121146Y23458D01*
X121128Y23466D01*
X121113Y23479D01*
X121017Y23518D01*
X120923Y23561D01*
X120903Y23564D01*
X120885Y23571D01*
X120718Y23590D01*
X117201Y23590D01*
X115634Y25156D01*
X115634Y29964D01*
X116992Y31322D01*
X117003Y31338D01*
X117019Y31351D01*
X117049Y31397D01*
X117068Y31417D01*
X117082Y31448D01*
X117135Y31522D01*
X117141Y31541D01*
X117152Y31558D01*
X117177Y31658D01*
X117208Y31757D01*
X117207Y31777D01*
X117212Y31796D01*
X117204Y31899D01*
X117201Y32003D01*
X117194Y32022D01*
X117193Y32041D01*
X117152Y32136D01*
X117117Y32234D01*
X117104Y32249D01*
X117096Y32268D01*
X116992Y32399D01*
X115655Y33736D01*
X115639Y33747D01*
X115626Y33763D01*
X115539Y33819D01*
X115455Y33879D01*
X115436Y33885D01*
X115419Y33896D01*
X115319Y33921D01*
X115220Y33952D01*
X115200Y33951D01*
X115181Y33956D01*
X115078Y33948D01*
X114974Y33945D01*
X114955Y33938D01*
X114935Y33937D01*
X114841Y33896D01*
X114743Y33861D01*
X114727Y33848D01*
X114709Y33840D01*
X114578Y33736D01*
X113057Y32215D01*
X107649Y32215D01*
X106101Y33763D01*
X106085Y33775D01*
X106072Y33790D01*
X105985Y33847D01*
X105901Y33907D01*
X105882Y33913D01*
X105865Y33923D01*
X105765Y33949D01*
X105666Y33979D01*
X105646Y33979D01*
X105627Y33984D01*
X105524Y33975D01*
X105420Y33973D01*
X105401Y33966D01*
X105381Y33964D01*
X105287Y33924D01*
X105189Y33888D01*
X105173Y33876D01*
X105155Y33868D01*
X105024Y33763D01*
X103463Y32203D01*
X98056Y32203D01*
X97611Y32648D01*
X97537Y32701D01*
X97467Y32760D01*
X97437Y32772D01*
X97411Y32791D01*
X97324Y32818D01*
X97239Y32852D01*
X97198Y32857D01*
X97176Y32863D01*
X97144Y32863D01*
X97072Y32871D01*
X95844Y32871D01*
X95754Y32856D01*
X95663Y32849D01*
X95633Y32836D01*
X95601Y32831D01*
X95521Y32788D01*
X95437Y32752D01*
X95405Y32727D01*
X95384Y32716D01*
X95362Y32692D01*
X95306Y32648D01*
X94358Y31699D01*
X94304Y31625D01*
X94245Y31556D01*
X94233Y31526D01*
X94214Y31499D01*
X94187Y31413D01*
X94153Y31328D01*
X94148Y31287D01*
X94142Y31264D01*
X94142Y31232D01*
X94135Y31161D01*
X94135Y26035D01*
X91926Y23826D01*
X79733Y23826D01*
X79652Y23813D01*
X79571Y23809D01*
X79532Y23794D01*
X79490Y23787D01*
X79418Y23749D01*
X79342Y23719D01*
X79310Y23691D01*
X79273Y23672D01*
X79217Y23613D01*
X79154Y23560D01*
X79132Y23524D01*
X79103Y23493D01*
X79069Y23419D01*
X79027Y23350D01*
X79017Y23308D01*
X79000Y23270D01*
X78991Y23189D01*
X78973Y23110D01*
X78977Y23068D01*
X78973Y23026D01*
X78990Y22946D01*
X78998Y22865D01*
X79016Y22827D01*
X79025Y22785D01*
X79067Y22715D01*
X79100Y22641D01*
X79136Y22599D01*
X79151Y22574D01*
X79165Y22562D01*
X79165Y21881D01*
X79166Y21873D01*
X79165Y21861D01*
X79229Y19391D01*
X78753Y18914D01*
X78748Y18908D01*
X78739Y18900D01*
X78332Y18471D01*
X78286Y18404D01*
X78233Y18342D01*
X78217Y18303D01*
X78194Y18268D01*
X78192Y18263D01*
X77048Y17119D01*
X77044Y17113D01*
X77035Y17105D01*
X75907Y15917D01*
X75847Y15892D01*
X75804Y15857D01*
X75779Y15843D01*
X75760Y15822D01*
X75716Y15787D01*
X74438Y14509D01*
X74385Y14435D01*
X74326Y14365D01*
X74313Y14335D01*
X74295Y14309D01*
X74268Y14222D01*
X74234Y14137D01*
X74229Y14096D01*
X74222Y14074D01*
X74223Y14042D01*
X74215Y13971D01*
X74215Y7242D01*
X71825Y4852D01*
X71813Y4836D01*
X71798Y4823D01*
X71742Y4736D01*
X71681Y4652D01*
X71675Y4633D01*
X71665Y4617D01*
X71639Y4516D01*
X71609Y4417D01*
X71609Y4397D01*
X71605Y4378D01*
X71613Y4275D01*
X71615Y4171D01*
X71622Y4153D01*
X71624Y4133D01*
X71664Y4038D01*
X71700Y3940D01*
X71712Y3925D01*
X71720Y3906D01*
X71825Y3776D01*
X73514Y2086D01*
X73777Y1452D01*
X73815Y1391D01*
X73844Y1325D01*
X73879Y1287D01*
X73906Y1243D01*
X73962Y1197D01*
X74010Y1144D01*
X74056Y1119D01*
X74096Y1086D01*
X74163Y1060D01*
X74226Y1026D01*
X74277Y1016D01*
X74326Y998D01*
X74397Y995D01*
X74468Y982D01*
X74519Y990D01*
X74571Y987D01*
X74640Y1007D01*
X74711Y1018D01*
X74758Y1041D01*
X74808Y1056D01*
X74866Y1097D01*
X74930Y1129D01*
X74967Y1166D01*
X75010Y1196D01*
X75052Y1254D01*
X75103Y1305D01*
X75137Y1368D01*
X75156Y1393D01*
X75164Y1416D01*
X75183Y1452D01*
X75446Y2086D01*
X77233Y3873D01*
X79567Y4840D01*
X82093Y4840D01*
X84428Y3873D01*
X86214Y2086D01*
X86477Y1452D01*
X86515Y1391D01*
X86544Y1325D01*
X86579Y1287D01*
X86606Y1243D01*
X86662Y1197D01*
X86710Y1144D01*
X86756Y1119D01*
X86796Y1086D01*
X86863Y1060D01*
X86926Y1026D01*
X86977Y1016D01*
X87025Y998D01*
X87097Y995D01*
X87168Y982D01*
X87219Y990D01*
X87271Y987D01*
X87340Y1007D01*
X87411Y1018D01*
X87457Y1041D01*
X87507Y1056D01*
X87566Y1097D01*
X87630Y1129D01*
X87667Y1166D01*
X87710Y1196D01*
X87752Y1254D01*
X87803Y1305D01*
X87837Y1368D01*
X87856Y1393D01*
X87864Y1416D01*
X87883Y1452D01*
X88146Y2086D01*
X89933Y3873D01*
X92267Y4840D01*
X94793Y4840D01*
X97128Y3873D01*
X98914Y2086D01*
X99177Y1452D01*
X99215Y1391D01*
X99244Y1325D01*
X99279Y1287D01*
X99306Y1243D01*
X99362Y1197D01*
X99410Y1144D01*
X99456Y1119D01*
X99496Y1086D01*
X99563Y1060D01*
X99626Y1026D01*
X99677Y1016D01*
X99725Y998D01*
X99797Y995D01*
X99868Y982D01*
X99919Y990D01*
X99971Y987D01*
X100040Y1007D01*
X100111Y1018D01*
X100157Y1041D01*
X100207Y1056D01*
X100266Y1097D01*
X100330Y1129D01*
X100367Y1166D01*
X100410Y1196D01*
X100452Y1254D01*
X100503Y1305D01*
X100537Y1368D01*
X100556Y1393D01*
X100564Y1416D01*
X100583Y1452D01*
X100846Y2086D01*
X102633Y3873D01*
X104967Y4840D01*
X107493Y4840D01*
X109828Y3873D01*
X111614Y2086D01*
X111877Y1452D01*
X111915Y1391D01*
X111944Y1325D01*
X111979Y1287D01*
X112006Y1243D01*
X112062Y1197D01*
X112110Y1144D01*
X112156Y1119D01*
X112196Y1086D01*
X112263Y1060D01*
X112326Y1026D01*
X112377Y1016D01*
X112425Y998D01*
X112497Y995D01*
X112568Y982D01*
X112619Y990D01*
X112671Y987D01*
X112740Y1007D01*
X112811Y1018D01*
X112857Y1041D01*
X112907Y1056D01*
X112966Y1097D01*
X113030Y1129D01*
X113067Y1166D01*
X113110Y1196D01*
X113152Y1254D01*
X113203Y1305D01*
X113237Y1368D01*
X113256Y1393D01*
X113264Y1416D01*
X113283Y1452D01*
X113546Y2086D01*
X115333Y3873D01*
X117667Y4840D01*
X120193Y4840D01*
X122528Y3873D01*
X124314Y2086D01*
X124721Y1104D01*
X124783Y1004D01*
X124842Y905D01*
X124847Y900D01*
X124850Y895D01*
X124941Y820D01*
X125029Y745D01*
X125035Y742D01*
X125040Y738D01*
X125148Y697D01*
X125257Y653D01*
X125265Y652D01*
X125270Y650D01*
X125288Y649D01*
X125424Y634D01*
X145837Y634D01*
X145856Y637D01*
G37*
G36*
X23651Y653D02*
X23651Y653D01*
X23767Y670D01*
X23773Y673D01*
X23779Y674D01*
X23881Y728D01*
X23986Y782D01*
X23991Y786D01*
X23996Y789D01*
X24076Y873D01*
X24159Y957D01*
X24162Y964D01*
X24166Y967D01*
X24173Y984D01*
X24239Y1104D01*
X24646Y2086D01*
X26433Y3873D01*
X28767Y4840D01*
X31293Y4840D01*
X33628Y3873D01*
X35414Y2086D01*
X35677Y1452D01*
X35715Y1391D01*
X35744Y1325D01*
X35779Y1287D01*
X35806Y1243D01*
X35862Y1197D01*
X35910Y1144D01*
X35956Y1119D01*
X35996Y1086D01*
X36063Y1060D01*
X36126Y1026D01*
X36177Y1016D01*
X36226Y998D01*
X36297Y995D01*
X36368Y982D01*
X36419Y990D01*
X36471Y987D01*
X36540Y1007D01*
X36611Y1018D01*
X36658Y1041D01*
X36708Y1056D01*
X36766Y1097D01*
X36830Y1129D01*
X36867Y1166D01*
X36910Y1196D01*
X36952Y1254D01*
X37003Y1305D01*
X37037Y1368D01*
X37056Y1393D01*
X37064Y1416D01*
X37083Y1452D01*
X37346Y2086D01*
X39133Y3873D01*
X39310Y3946D01*
X39349Y3970D01*
X39392Y3986D01*
X39453Y4035D01*
X39519Y4076D01*
X39548Y4111D01*
X39584Y4140D01*
X39626Y4205D01*
X39676Y4265D01*
X39692Y4308D01*
X39717Y4347D01*
X39736Y4422D01*
X39764Y4495D01*
X39766Y4541D01*
X39777Y4585D01*
X39771Y4663D01*
X39774Y4741D01*
X39762Y4785D01*
X39758Y4830D01*
X39727Y4902D01*
X39706Y4977D01*
X39680Y5015D01*
X39662Y5057D01*
X39576Y5163D01*
X39566Y5179D01*
X39561Y5182D01*
X39557Y5188D01*
X37470Y7275D01*
X37470Y15399D01*
X39679Y17607D01*
X52002Y17607D01*
X54254Y15356D01*
X54328Y15303D01*
X54396Y15244D01*
X54427Y15232D01*
X54454Y15212D01*
X54540Y15186D01*
X54624Y15152D01*
X54666Y15147D01*
X54689Y15140D01*
X54721Y15141D01*
X54791Y15133D01*
X56920Y15130D01*
X57011Y15144D01*
X57103Y15151D01*
X57132Y15164D01*
X57163Y15169D01*
X57245Y15212D01*
X57329Y15248D01*
X57360Y15273D01*
X57381Y15284D01*
X57403Y15307D01*
X57460Y15353D01*
X59683Y17575D01*
X66411Y17575D01*
X66501Y17590D01*
X66592Y17597D01*
X66621Y17610D01*
X66653Y17615D01*
X66734Y17658D01*
X66818Y17693D01*
X66850Y17719D01*
X66871Y17730D01*
X66893Y17753D01*
X66949Y17798D01*
X71369Y22218D01*
X71422Y22292D01*
X71433Y22305D01*
X71562Y22434D01*
X71604Y22492D01*
X71653Y22544D01*
X71675Y22591D01*
X71706Y22634D01*
X71727Y22702D01*
X71757Y22767D01*
X71763Y22819D01*
X71778Y22869D01*
X71776Y22941D01*
X71784Y23012D01*
X71773Y23063D01*
X71772Y23115D01*
X71747Y23182D01*
X71732Y23252D01*
X71705Y23297D01*
X71687Y23346D01*
X71643Y23402D01*
X71606Y23463D01*
X71566Y23497D01*
X71534Y23538D01*
X71473Y23577D01*
X71419Y23623D01*
X71370Y23643D01*
X71327Y23671D01*
X71257Y23688D01*
X71191Y23715D01*
X71119Y23723D01*
X71088Y23731D01*
X71065Y23729D01*
X71024Y23734D01*
X59683Y23734D01*
X57474Y25942D01*
X57474Y34066D01*
X59544Y36136D01*
X59555Y36152D01*
X59571Y36165D01*
X59627Y36252D01*
X59687Y36336D01*
X59693Y36355D01*
X59704Y36372D01*
X59729Y36472D01*
X59760Y36571D01*
X59759Y36591D01*
X59764Y36610D01*
X59756Y36713D01*
X59753Y36817D01*
X59746Y36836D01*
X59745Y36855D01*
X59704Y36950D01*
X59669Y37048D01*
X59656Y37063D01*
X59648Y37082D01*
X59544Y37213D01*
X59121Y37636D01*
X59121Y38718D01*
X59119Y38729D01*
X59120Y38736D01*
X59118Y38743D01*
X59120Y38757D01*
X59098Y38859D01*
X59081Y38961D01*
X59072Y38978D01*
X59067Y38998D01*
X59014Y39087D01*
X58966Y39178D01*
X58951Y39192D01*
X58941Y39209D01*
X58863Y39276D01*
X58788Y39348D01*
X58769Y39356D01*
X58754Y39369D01*
X58658Y39408D01*
X58564Y39451D01*
X58545Y39453D01*
X58526Y39461D01*
X58359Y39479D01*
X56887Y39479D01*
X56867Y39476D01*
X56847Y39478D01*
X56746Y39456D01*
X56644Y39440D01*
X56626Y39430D01*
X56607Y39426D01*
X56518Y39373D01*
X56427Y39324D01*
X56413Y39310D01*
X56396Y39300D01*
X56328Y39221D01*
X56257Y39146D01*
X56249Y39128D01*
X56236Y39113D01*
X56197Y39017D01*
X56154Y38923D01*
X56151Y38903D01*
X56144Y38885D01*
X56125Y38718D01*
X56125Y37731D01*
X54063Y35668D01*
X51146Y35668D01*
X49084Y37731D01*
X49084Y37907D01*
X49081Y37927D01*
X49083Y37946D01*
X49061Y38048D01*
X49044Y38150D01*
X49035Y38167D01*
X49031Y38187D01*
X48977Y38276D01*
X48929Y38367D01*
X48915Y38381D01*
X48904Y38398D01*
X48826Y38465D01*
X48751Y38536D01*
X48733Y38545D01*
X48718Y38558D01*
X48621Y38597D01*
X48528Y38640D01*
X48508Y38642D01*
X48489Y38650D01*
X48323Y38668D01*
X45974Y38668D01*
X45945Y38697D01*
X45929Y38708D01*
X45917Y38724D01*
X45829Y38780D01*
X45746Y38840D01*
X45727Y38846D01*
X45710Y38857D01*
X45609Y38882D01*
X45510Y38913D01*
X45491Y38912D01*
X45471Y38917D01*
X45368Y38909D01*
X45265Y38906D01*
X45246Y38900D01*
X45226Y38898D01*
X45131Y38858D01*
X45034Y38822D01*
X45018Y38809D01*
X45000Y38802D01*
X44869Y38697D01*
X43211Y37039D01*
X40294Y37039D01*
X39776Y37557D01*
X39760Y37568D01*
X39747Y37584D01*
X39660Y37640D01*
X39576Y37700D01*
X39557Y37706D01*
X39540Y37717D01*
X39440Y37742D01*
X39341Y37773D01*
X39321Y37772D01*
X39302Y37777D01*
X39199Y37769D01*
X39095Y37766D01*
X39076Y37759D01*
X39057Y37758D01*
X38962Y37718D01*
X38864Y37682D01*
X38849Y37669D01*
X38830Y37662D01*
X38699Y37557D01*
X37260Y36117D01*
X34347Y36117D01*
X34277Y36106D01*
X34205Y36104D01*
X34156Y36086D01*
X34105Y36078D01*
X34041Y36044D01*
X33974Y36020D01*
X33933Y35987D01*
X33887Y35963D01*
X33838Y35911D01*
X33782Y35866D01*
X33754Y35822D01*
X33718Y35784D01*
X33688Y35719D01*
X33649Y35659D01*
X33636Y35608D01*
X33614Y35561D01*
X33606Y35490D01*
X33589Y35420D01*
X33593Y35368D01*
X33587Y35317D01*
X33602Y35247D01*
X33608Y35175D01*
X33628Y35127D01*
X33639Y35076D01*
X33676Y35015D01*
X33704Y34949D01*
X33749Y34893D01*
X33766Y34865D01*
X33783Y34850D01*
X33809Y34818D01*
X34102Y34525D01*
X34102Y26533D01*
X32177Y24608D01*
X25585Y24608D01*
X23660Y26533D01*
X23660Y34525D01*
X24524Y35388D01*
X24535Y35405D01*
X24551Y35417D01*
X24607Y35504D01*
X24667Y35588D01*
X24673Y35607D01*
X24684Y35624D01*
X24709Y35724D01*
X24739Y35823D01*
X24739Y35843D01*
X24744Y35862D01*
X24736Y35965D01*
X24733Y36069D01*
X24726Y36088D01*
X24725Y36108D01*
X24684Y36203D01*
X24649Y36300D01*
X24636Y36316D01*
X24628Y36334D01*
X24524Y36465D01*
X22712Y38277D01*
X22712Y41414D01*
X24930Y43632D01*
X27033Y43632D01*
X27053Y43635D01*
X27072Y43633D01*
X27174Y43655D01*
X27276Y43672D01*
X27293Y43681D01*
X27313Y43685D01*
X27402Y43739D01*
X27493Y43787D01*
X27507Y43801D01*
X27524Y43812D01*
X27591Y43890D01*
X27662Y43965D01*
X27671Y43983D01*
X27684Y43998D01*
X27722Y44095D01*
X27766Y44188D01*
X27768Y44208D01*
X27776Y44227D01*
X27794Y44393D01*
X27794Y45540D01*
X28434Y46180D01*
X28475Y46238D01*
X28525Y46290D01*
X28547Y46337D01*
X28577Y46379D01*
X28598Y46448D01*
X28628Y46513D01*
X28634Y46565D01*
X28649Y46615D01*
X28648Y46686D01*
X28655Y46757D01*
X28644Y46808D01*
X28643Y46860D01*
X28618Y46928D01*
X28603Y46998D01*
X28577Y47043D01*
X28559Y47091D01*
X28514Y47147D01*
X28477Y47209D01*
X28437Y47243D01*
X28405Y47283D01*
X28345Y47322D01*
X28290Y47369D01*
X28242Y47388D01*
X28198Y47416D01*
X28129Y47434D01*
X28062Y47461D01*
X27991Y47469D01*
X27960Y47477D01*
X27936Y47475D01*
X27895Y47479D01*
X25542Y47479D01*
X23479Y49542D01*
X23479Y52458D01*
X24431Y53410D01*
X24443Y53426D01*
X24458Y53439D01*
X24489Y53487D01*
X24496Y53494D01*
X24501Y53505D01*
X24515Y53526D01*
X24575Y53610D01*
X24581Y53629D01*
X24591Y53646D01*
X24617Y53746D01*
X24647Y53845D01*
X24647Y53865D01*
X24652Y53884D01*
X24643Y53987D01*
X24641Y54091D01*
X24634Y54110D01*
X24632Y54130D01*
X24592Y54224D01*
X24556Y54322D01*
X24544Y54338D01*
X24536Y54356D01*
X24431Y54487D01*
X24186Y54732D01*
X24186Y55405D01*
X24174Y55476D01*
X24173Y55548D01*
X24155Y55597D01*
X24146Y55648D01*
X24113Y55712D01*
X24088Y55779D01*
X24056Y55820D01*
X24031Y55866D01*
X23979Y55915D01*
X23934Y55971D01*
X23891Y55999D01*
X23853Y56035D01*
X23788Y56065D01*
X23727Y56104D01*
X23677Y56117D01*
X23630Y56139D01*
X23558Y56146D01*
X23489Y56164D01*
X23437Y56160D01*
X23385Y56166D01*
X23315Y56150D01*
X23244Y56145D01*
X23196Y56125D01*
X23145Y56113D01*
X23083Y56077D01*
X23017Y56049D01*
X22961Y56004D01*
X22934Y55987D01*
X22919Y55969D01*
X22886Y55944D01*
X19955Y53012D01*
X19902Y52938D01*
X19842Y52869D01*
X19830Y52839D01*
X19811Y52812D01*
X19784Y52725D01*
X19750Y52640D01*
X19746Y52600D01*
X19739Y52577D01*
X19740Y52545D01*
X19732Y52474D01*
X19732Y49609D01*
X18165Y48042D01*
X12757Y48042D01*
X11190Y49609D01*
X11190Y54417D01*
X12757Y55984D01*
X15425Y55984D01*
X15515Y55999D01*
X15606Y56006D01*
X15636Y56018D01*
X15668Y56024D01*
X15748Y56066D01*
X15832Y56102D01*
X15864Y56128D01*
X15885Y56139D01*
X15907Y56162D01*
X15963Y56207D01*
X18436Y58680D01*
X18490Y58754D01*
X18549Y58823D01*
X18561Y58854D01*
X18580Y58880D01*
X18607Y58967D01*
X18641Y59052D01*
X18646Y59093D01*
X18652Y59115D01*
X18652Y59147D01*
X18659Y59218D01*
X18659Y60857D01*
X20143Y62340D01*
X20179Y62390D01*
X20407Y62614D01*
X20451Y62674D01*
X20502Y62729D01*
X20523Y62773D01*
X20552Y62813D01*
X20574Y62884D01*
X20606Y62952D01*
X20611Y63000D01*
X20626Y63047D01*
X20624Y63122D01*
X20633Y63196D01*
X20622Y63244D01*
X20621Y63293D01*
X20596Y63364D01*
X20580Y63436D01*
X20555Y63479D01*
X20539Y63525D01*
X20492Y63584D01*
X20454Y63648D01*
X20417Y63679D01*
X20386Y63718D01*
X20324Y63759D01*
X20267Y63807D01*
X20222Y63826D01*
X20180Y63853D01*
X20108Y63871D01*
X20039Y63899D01*
X19973Y63907D01*
X19942Y63915D01*
X19917Y63913D01*
X19872Y63918D01*
X17662Y63918D01*
X15995Y65585D01*
X15921Y65638D01*
X15852Y65697D01*
X15822Y65710D01*
X15795Y65728D01*
X15709Y65755D01*
X15624Y65789D01*
X15583Y65794D01*
X15560Y65801D01*
X15528Y65800D01*
X15457Y65808D01*
X12691Y65808D01*
X10947Y67552D01*
X10889Y67593D01*
X10837Y67643D01*
X10790Y67665D01*
X10747Y67695D01*
X10679Y67716D01*
X10614Y67746D01*
X10562Y67752D01*
X10512Y67767D01*
X10440Y67766D01*
X10369Y67773D01*
X10318Y67762D01*
X10266Y67761D01*
X10199Y67736D01*
X10129Y67721D01*
X10084Y67695D01*
X10035Y67677D01*
X9979Y67632D01*
X9918Y67595D01*
X9884Y67555D01*
X9843Y67523D01*
X9805Y67463D01*
X9758Y67408D01*
X9738Y67360D01*
X9710Y67316D01*
X9693Y67247D01*
X9666Y67180D01*
X9658Y67109D01*
X9650Y67077D01*
X9652Y67054D01*
X9648Y67013D01*
X9648Y52944D01*
X6309Y49606D01*
X6241Y49511D01*
X6171Y49417D01*
X6169Y49411D01*
X6165Y49406D01*
X6131Y49295D01*
X6095Y49183D01*
X6095Y49177D01*
X6093Y49171D01*
X6096Y49054D01*
X6097Y48937D01*
X6099Y48930D01*
X6099Y48925D01*
X6106Y48907D01*
X6144Y48776D01*
X6597Y47681D01*
X6597Y45155D01*
X5631Y42821D01*
X3844Y41034D01*
X3210Y40771D01*
X3149Y40733D01*
X3083Y40704D01*
X3045Y40669D01*
X3001Y40642D01*
X2955Y40586D01*
X2902Y40538D01*
X2877Y40492D01*
X2844Y40452D01*
X2818Y40385D01*
X2783Y40322D01*
X2774Y40271D01*
X2756Y40223D01*
X2752Y40151D01*
X2740Y40080D01*
X2747Y40029D01*
X2745Y39977D01*
X2765Y39908D01*
X2776Y39837D01*
X2799Y39791D01*
X2814Y39741D01*
X2854Y39682D01*
X2887Y39618D01*
X2924Y39581D01*
X2954Y39539D01*
X3011Y39496D01*
X3063Y39446D01*
X3125Y39411D01*
X3151Y39392D01*
X3174Y39384D01*
X3210Y39365D01*
X3844Y39102D01*
X5631Y37315D01*
X6489Y35243D01*
X6513Y35204D01*
X6529Y35160D01*
X6578Y35100D01*
X6619Y35033D01*
X6654Y35004D01*
X6683Y34968D01*
X6748Y34926D01*
X6808Y34877D01*
X6851Y34860D01*
X6890Y34835D01*
X6965Y34816D01*
X7038Y34788D01*
X7084Y34787D01*
X7128Y34775D01*
X7206Y34781D01*
X7284Y34778D01*
X7328Y34791D01*
X7373Y34794D01*
X7445Y34825D01*
X7520Y34847D01*
X7558Y34873D01*
X7600Y34891D01*
X7706Y34976D01*
X7722Y34987D01*
X7725Y34991D01*
X7731Y34996D01*
X9185Y36450D01*
X15777Y36450D01*
X17702Y34525D01*
X17702Y26533D01*
X16111Y24942D01*
X16058Y24868D01*
X15998Y24798D01*
X15986Y24768D01*
X15967Y24742D01*
X15940Y24655D01*
X15906Y24570D01*
X15902Y24529D01*
X15895Y24507D01*
X15896Y24475D01*
X15888Y24403D01*
X15888Y22649D01*
X15891Y22629D01*
X15889Y22610D01*
X15911Y22508D01*
X15928Y22406D01*
X15937Y22389D01*
X15941Y22369D01*
X15994Y22280D01*
X16043Y22189D01*
X16057Y22175D01*
X16067Y22158D01*
X16146Y22091D01*
X16221Y22020D01*
X16239Y22011D01*
X16254Y21998D01*
X16350Y21959D01*
X16444Y21916D01*
X16464Y21914D01*
X16482Y21906D01*
X16649Y21888D01*
X17706Y21888D01*
X17796Y21903D01*
X17887Y21910D01*
X17916Y21922D01*
X17948Y21928D01*
X18029Y21970D01*
X18113Y22006D01*
X18145Y22032D01*
X18166Y22043D01*
X18171Y22048D01*
X23616Y22048D01*
X23651Y22018D01*
X23678Y22007D01*
X23702Y21990D01*
X23792Y21963D01*
X23880Y21928D01*
X23917Y21924D01*
X23937Y21918D01*
X23970Y21919D01*
X24046Y21911D01*
X27611Y21937D01*
X27698Y21952D01*
X27786Y21958D01*
X27818Y21972D01*
X27853Y21978D01*
X27931Y22020D01*
X28012Y22055D01*
X28048Y22083D01*
X28070Y22095D01*
X28091Y22118D01*
X28093Y22120D01*
X33511Y22120D01*
X35078Y20553D01*
X35078Y15745D01*
X33511Y14178D01*
X28076Y14178D01*
X28041Y14208D01*
X28014Y14218D01*
X27990Y14236D01*
X27900Y14263D01*
X27812Y14298D01*
X27775Y14302D01*
X27755Y14308D01*
X27722Y14307D01*
X27646Y14315D01*
X24081Y14289D01*
X23994Y14274D01*
X23906Y14268D01*
X23874Y14254D01*
X23839Y14248D01*
X23761Y14206D01*
X23680Y14171D01*
X23644Y14143D01*
X23622Y14131D01*
X23601Y14108D01*
X23599Y14106D01*
X18158Y14106D01*
X18100Y14156D01*
X18070Y14168D01*
X18044Y14187D01*
X17957Y14214D01*
X17872Y14248D01*
X17831Y14252D01*
X17809Y14259D01*
X17777Y14258D01*
X17706Y14266D01*
X13871Y14266D01*
X13781Y14252D01*
X13690Y14244D01*
X13661Y14232D01*
X13629Y14227D01*
X13548Y14184D01*
X13464Y14148D01*
X13432Y14122D01*
X13411Y14112D01*
X13389Y14088D01*
X13333Y14043D01*
X10976Y11687D01*
X7819Y11687D01*
X5587Y13919D01*
X5587Y15539D01*
X5576Y15610D01*
X5574Y15682D01*
X5556Y15731D01*
X5547Y15782D01*
X5514Y15845D01*
X5489Y15913D01*
X5457Y15954D01*
X5432Y16000D01*
X5380Y16049D01*
X5336Y16105D01*
X5292Y16133D01*
X5254Y16169D01*
X5189Y16199D01*
X5129Y16238D01*
X5078Y16251D01*
X5031Y16273D01*
X4960Y16280D01*
X4890Y16298D01*
X4838Y16294D01*
X4787Y16300D01*
X4716Y16284D01*
X4645Y16279D01*
X4597Y16258D01*
X4546Y16247D01*
X4485Y16211D01*
X4419Y16183D01*
X4363Y16138D01*
X4335Y16121D01*
X4320Y16103D01*
X4288Y16078D01*
X3844Y15634D01*
X3043Y15302D01*
X2943Y15240D01*
X2844Y15181D01*
X2840Y15176D01*
X2834Y15173D01*
X2759Y15082D01*
X2684Y14994D01*
X2681Y14988D01*
X2677Y14983D01*
X2636Y14875D01*
X2592Y14766D01*
X2591Y14758D01*
X2589Y14754D01*
X2588Y14735D01*
X2573Y14599D01*
X2573Y1395D01*
X2576Y1376D01*
X2574Y1356D01*
X2596Y1255D01*
X2613Y1153D01*
X2622Y1135D01*
X2627Y1116D01*
X2680Y1027D01*
X2728Y935D01*
X2743Y922D01*
X2753Y905D01*
X2831Y837D01*
X2906Y766D01*
X2924Y758D01*
X2940Y745D01*
X3036Y706D01*
X3130Y662D01*
X3149Y660D01*
X3168Y653D01*
X3335Y634D01*
X23536Y634D01*
X23651Y653D01*
G37*
G36*
X17554Y89164D02*
X17554Y89164D01*
X17574Y89161D01*
X17675Y89183D01*
X17777Y89200D01*
X17795Y89209D01*
X17814Y89214D01*
X17903Y89267D01*
X17994Y89315D01*
X18008Y89330D01*
X18025Y89340D01*
X18093Y89419D01*
X18164Y89494D01*
X18172Y89512D01*
X18185Y89527D01*
X18224Y89623D01*
X18267Y89717D01*
X18270Y89736D01*
X18277Y89755D01*
X18296Y89922D01*
X18296Y92203D01*
X18292Y92222D01*
X18295Y92242D01*
X18273Y92343D01*
X18256Y92445D01*
X18247Y92463D01*
X18242Y92483D01*
X18189Y92572D01*
X18141Y92663D01*
X18126Y92677D01*
X18116Y92694D01*
X18037Y92761D01*
X17962Y92832D01*
X17944Y92841D01*
X17929Y92854D01*
X17833Y92892D01*
X17739Y92936D01*
X17720Y92938D01*
X17701Y92946D01*
X17534Y92964D01*
X16989Y92964D01*
X14927Y95026D01*
X14927Y97943D01*
X16989Y100005D01*
X17166Y100005D01*
X17185Y100009D01*
X17205Y100006D01*
X17306Y100028D01*
X17408Y100045D01*
X17426Y100054D01*
X17445Y100059D01*
X17534Y100112D01*
X17626Y100160D01*
X17639Y100175D01*
X17657Y100185D01*
X17724Y100264D01*
X17795Y100339D01*
X17803Y100357D01*
X17816Y100372D01*
X17855Y100468D01*
X17899Y100562D01*
X17901Y100581D01*
X17908Y100600D01*
X17927Y100767D01*
X17927Y102248D01*
X17924Y102268D01*
X17926Y102288D01*
X17904Y102389D01*
X17887Y102491D01*
X17878Y102509D01*
X17874Y102528D01*
X17820Y102617D01*
X17772Y102708D01*
X17758Y102722D01*
X17747Y102739D01*
X17669Y102807D01*
X17594Y102878D01*
X17576Y102886D01*
X17560Y102899D01*
X17464Y102938D01*
X17371Y102981D01*
X17351Y102984D01*
X17332Y102991D01*
X17166Y103010D01*
X16853Y103010D01*
X14790Y105072D01*
X14790Y107989D01*
X16853Y110051D01*
X19477Y110051D01*
X19520Y110058D01*
X19563Y110056D01*
X19641Y110078D01*
X19720Y110091D01*
X19758Y110111D01*
X19800Y110123D01*
X19866Y110168D01*
X19937Y110206D01*
X19967Y110237D01*
X20003Y110261D01*
X20051Y110326D01*
X20107Y110384D01*
X20125Y110423D01*
X20151Y110458D01*
X20177Y110534D01*
X20210Y110607D01*
X20215Y110650D01*
X20229Y110691D01*
X20229Y110772D01*
X20238Y110852D01*
X20228Y110894D01*
X20228Y110937D01*
X20202Y111013D01*
X20185Y111092D01*
X20163Y111129D01*
X20149Y111170D01*
X20065Y111293D01*
X20059Y111303D01*
X20057Y111305D01*
X20055Y111308D01*
X18137Y113540D01*
X18046Y113616D01*
X17955Y113694D01*
X17952Y113696D01*
X17949Y113698D01*
X17840Y113741D01*
X17727Y113786D01*
X17723Y113787D01*
X17720Y113788D01*
X17709Y113788D01*
X17560Y113805D01*
X15186Y113805D01*
X13619Y115372D01*
X13619Y120779D01*
X15186Y122346D01*
X19994Y122346D01*
X20981Y121359D01*
X20997Y121347D01*
X21010Y121332D01*
X21097Y121276D01*
X21181Y121215D01*
X21200Y121210D01*
X21217Y121199D01*
X21317Y121173D01*
X21416Y121143D01*
X21436Y121144D01*
X21455Y121139D01*
X21558Y121147D01*
X21662Y121149D01*
X21681Y121156D01*
X21700Y121158D01*
X21795Y121198D01*
X21893Y121234D01*
X21908Y121246D01*
X21927Y121254D01*
X22058Y121359D01*
X22560Y121861D01*
X25697Y121861D01*
X27915Y119643D01*
X27915Y116506D01*
X26704Y115295D01*
X26662Y115236D01*
X26612Y115183D01*
X26590Y115137D01*
X26561Y115095D01*
X26539Y115026D01*
X26509Y114959D01*
X26503Y114909D01*
X26488Y114860D01*
X26490Y114787D01*
X26482Y114715D01*
X26493Y114665D01*
X26495Y114614D01*
X26520Y114546D01*
X26536Y114475D01*
X26562Y114431D01*
X26579Y114383D01*
X26625Y114326D01*
X26662Y114264D01*
X26701Y114231D01*
X26733Y114191D01*
X26794Y114152D01*
X26850Y114105D01*
X26897Y114086D01*
X26940Y114058D01*
X27011Y114040D01*
X27078Y114013D01*
X27147Y114006D01*
X27178Y113998D01*
X27202Y114000D01*
X27245Y113995D01*
X29568Y114003D01*
X29638Y113982D01*
X29722Y113948D01*
X29765Y113943D01*
X29788Y113936D01*
X29819Y113937D01*
X29889Y113929D01*
X31725Y113929D01*
X31744Y113933D01*
X31764Y113930D01*
X31865Y113952D01*
X31967Y113969D01*
X31985Y113978D01*
X32005Y113983D01*
X32094Y114036D01*
X32185Y114084D01*
X32199Y114099D01*
X32216Y114109D01*
X32283Y114187D01*
X32354Y114262D01*
X32363Y114281D01*
X32376Y114296D01*
X32414Y114392D01*
X32458Y114486D01*
X32460Y114505D01*
X32467Y114524D01*
X32486Y114691D01*
X32486Y121485D01*
X32701Y121700D01*
X32754Y121774D01*
X32814Y121843D01*
X32826Y121874D01*
X32845Y121900D01*
X32871Y121987D01*
X32905Y122072D01*
X32910Y122112D01*
X32917Y122135D01*
X32916Y122167D01*
X32924Y122238D01*
X32924Y122458D01*
X32922Y122468D01*
X32923Y122474D01*
X32917Y122502D01*
X32909Y122548D01*
X32902Y122639D01*
X32889Y122669D01*
X32884Y122701D01*
X32841Y122781D01*
X32806Y122865D01*
X32780Y122897D01*
X32769Y122918D01*
X32746Y122940D01*
X32701Y122996D01*
X32396Y123301D01*
X32387Y123343D01*
X32370Y123445D01*
X32361Y123463D01*
X32357Y123483D01*
X32303Y123572D01*
X32255Y123663D01*
X32241Y123677D01*
X32230Y123694D01*
X32152Y123761D01*
X32077Y123832D01*
X32059Y123841D01*
X32044Y123854D01*
X31947Y123892D01*
X31854Y123936D01*
X31834Y123938D01*
X31815Y123946D01*
X31649Y123964D01*
X28989Y123964D01*
X26927Y126026D01*
X26927Y127599D01*
X26924Y127619D01*
X26926Y127639D01*
X26904Y127740D01*
X26887Y127842D01*
X26878Y127860D01*
X26874Y127879D01*
X26820Y127968D01*
X26772Y128059D01*
X26758Y128073D01*
X26747Y128090D01*
X26669Y128158D01*
X26594Y128229D01*
X26576Y128237D01*
X26560Y128250D01*
X26464Y128289D01*
X26371Y128332D01*
X26351Y128335D01*
X26332Y128342D01*
X26166Y128360D01*
X24564Y128360D01*
X22502Y130423D01*
X22502Y133558D01*
X22502Y133559D01*
X22502Y133573D01*
X22502Y133595D01*
X22509Y133662D01*
X22509Y143421D01*
X25136Y146047D01*
X25139Y146049D01*
X25191Y146057D01*
X25254Y146091D01*
X25321Y146115D01*
X25362Y146148D01*
X25408Y146172D01*
X25457Y146224D01*
X25513Y146269D01*
X25541Y146313D01*
X25577Y146351D01*
X25608Y146416D01*
X25646Y146476D01*
X25659Y146526D01*
X25681Y146574D01*
X25689Y146645D01*
X25706Y146714D01*
X25702Y146766D01*
X25708Y146818D01*
X25693Y146888D01*
X25687Y146960D01*
X25667Y147008D01*
X25656Y147059D01*
X25619Y147120D01*
X25591Y147186D01*
X25546Y147242D01*
X25530Y147270D01*
X25517Y147281D01*
X25514Y147285D01*
X25506Y147292D01*
X25486Y147317D01*
X24434Y148369D01*
X23021Y149782D01*
X23021Y157716D01*
X23009Y157787D01*
X23007Y157859D01*
X22989Y157908D01*
X22981Y157959D01*
X22947Y158022D01*
X22923Y158090D01*
X22890Y158130D01*
X22866Y158176D01*
X22814Y158226D01*
X22769Y158282D01*
X22725Y158310D01*
X22687Y158346D01*
X22622Y158376D01*
X22562Y158415D01*
X22512Y158427D01*
X22464Y158449D01*
X22393Y158457D01*
X22324Y158475D01*
X22272Y158471D01*
X22220Y158476D01*
X22150Y158461D01*
X22078Y158456D01*
X22030Y158435D01*
X21980Y158424D01*
X21918Y158387D01*
X21852Y158359D01*
X21796Y158314D01*
X21768Y158298D01*
X21753Y158280D01*
X21721Y158254D01*
X20424Y156958D01*
X17507Y156958D01*
X15860Y158605D01*
X15844Y158616D01*
X15832Y158632D01*
X15744Y158688D01*
X15661Y158748D01*
X15642Y158754D01*
X15625Y158765D01*
X15524Y158790D01*
X15425Y158821D01*
X15405Y158820D01*
X15386Y158825D01*
X15283Y158817D01*
X15180Y158814D01*
X15161Y158807D01*
X15141Y158806D01*
X15046Y158766D01*
X14949Y158730D01*
X14933Y158717D01*
X14915Y158710D01*
X14784Y158605D01*
X12618Y156439D01*
X10930Y156439D01*
X10910Y156436D01*
X10890Y156438D01*
X10789Y156416D01*
X10687Y156400D01*
X10669Y156390D01*
X10650Y156386D01*
X10561Y156333D01*
X10469Y156284D01*
X10456Y156270D01*
X10439Y156260D01*
X10371Y156181D01*
X10300Y156106D01*
X10292Y156088D01*
X10279Y156073D01*
X10240Y155977D01*
X10196Y155883D01*
X10194Y155863D01*
X10187Y155845D01*
X10168Y155678D01*
X10168Y151779D01*
X10172Y151759D01*
X10169Y151739D01*
X10191Y151638D01*
X10208Y151536D01*
X10217Y151518D01*
X10222Y151499D01*
X10275Y151410D01*
X10323Y151319D01*
X10338Y151305D01*
X10348Y151288D01*
X10427Y151220D01*
X10502Y151149D01*
X10520Y151141D01*
X10535Y151128D01*
X10631Y151089D01*
X10725Y151046D01*
X10744Y151043D01*
X10763Y151036D01*
X10930Y151017D01*
X11000Y151017D01*
X11090Y151032D01*
X11181Y151039D01*
X11211Y151052D01*
X11243Y151057D01*
X11324Y151100D01*
X11408Y151136D01*
X11440Y151161D01*
X11460Y151172D01*
X11483Y151196D01*
X11539Y151240D01*
X11893Y151595D01*
X14810Y151595D01*
X16872Y149533D01*
X16872Y146616D01*
X15156Y144900D01*
X15144Y144883D01*
X15129Y144871D01*
X15073Y144784D01*
X15012Y144700D01*
X15007Y144681D01*
X14996Y144664D01*
X14971Y144564D01*
X14940Y144465D01*
X14941Y144445D01*
X14936Y144426D01*
X14944Y144323D01*
X14946Y144219D01*
X14953Y144200D01*
X14955Y144180D01*
X14995Y144086D01*
X15031Y143988D01*
X15043Y143972D01*
X15051Y143954D01*
X15156Y143823D01*
X16521Y142458D01*
X16521Y139542D01*
X14458Y137479D01*
X11542Y137479D01*
X11468Y137553D01*
X11410Y137595D01*
X11358Y137644D01*
X11310Y137666D01*
X11268Y137697D01*
X11200Y137718D01*
X11135Y137748D01*
X11083Y137754D01*
X11033Y137769D01*
X10961Y137767D01*
X10890Y137775D01*
X10839Y137764D01*
X10787Y137763D01*
X10720Y137738D01*
X10650Y137723D01*
X10605Y137696D01*
X10556Y137678D01*
X10500Y137633D01*
X10439Y137597D01*
X10405Y137557D01*
X10364Y137524D01*
X10325Y137464D01*
X10279Y137410D01*
X10259Y137361D01*
X10231Y137318D01*
X10214Y137248D01*
X10187Y137182D01*
X10179Y137110D01*
X10171Y137079D01*
X10173Y137056D01*
X10168Y137015D01*
X10168Y136708D01*
X9424Y135964D01*
X9400Y135964D01*
X9380Y135961D01*
X9360Y135963D01*
X9259Y135941D01*
X9157Y135924D01*
X9139Y135915D01*
X9120Y135911D01*
X9031Y135857D01*
X8939Y135809D01*
X8926Y135795D01*
X8909Y135785D01*
X8841Y135706D01*
X8770Y135631D01*
X8762Y135613D01*
X8749Y135598D01*
X8710Y135501D01*
X8666Y135408D01*
X8664Y135388D01*
X8657Y135369D01*
X8638Y135203D01*
X8638Y132270D01*
X8653Y132180D01*
X8660Y132089D01*
X8673Y132059D01*
X8678Y132027D01*
X8721Y131947D01*
X8756Y131863D01*
X8782Y131831D01*
X8793Y131810D01*
X8817Y131788D01*
X8861Y131732D01*
X9849Y130744D01*
X9923Y130691D01*
X9993Y130631D01*
X10023Y130619D01*
X10049Y130600D01*
X10136Y130573D01*
X10221Y130539D01*
X10262Y130535D01*
X10284Y130528D01*
X10316Y130529D01*
X10388Y130521D01*
X11458Y130521D01*
X13521Y128458D01*
X13521Y125542D01*
X11458Y123479D01*
X8542Y123479D01*
X6479Y125542D01*
X6479Y126612D01*
X6465Y126702D01*
X6457Y126793D01*
X6445Y126823D01*
X6440Y126855D01*
X6397Y126936D01*
X6361Y127020D01*
X6335Y127052D01*
X6324Y127072D01*
X6301Y127095D01*
X6256Y127151D01*
X3873Y129534D01*
X3815Y129576D01*
X3763Y129625D01*
X3715Y129647D01*
X3673Y129678D01*
X3605Y129699D01*
X3540Y129729D01*
X3488Y129735D01*
X3438Y129750D01*
X3366Y129748D01*
X3295Y129756D01*
X3244Y129745D01*
X3192Y129744D01*
X3125Y129719D01*
X3055Y129704D01*
X3010Y129677D01*
X2961Y129659D01*
X2905Y129614D01*
X2844Y129578D01*
X2810Y129538D01*
X2769Y129505D01*
X2730Y129445D01*
X2684Y129391D01*
X2664Y129342D01*
X2636Y129299D01*
X2619Y129229D01*
X2592Y129163D01*
X2584Y129091D01*
X2576Y129060D01*
X2578Y129037D01*
X2573Y128996D01*
X2573Y104461D01*
X2587Y104376D01*
X2593Y104290D01*
X2607Y104255D01*
X2613Y104218D01*
X2653Y104142D01*
X2686Y104062D01*
X2711Y104034D01*
X2728Y104001D01*
X2791Y103941D01*
X2847Y103876D01*
X2879Y103857D01*
X2906Y103832D01*
X2985Y103795D01*
X3059Y103751D01*
X3096Y103744D01*
X3130Y103728D01*
X3215Y103718D01*
X3300Y103701D01*
X3337Y103705D01*
X3374Y103701D01*
X3458Y103719D01*
X3544Y103729D01*
X3589Y103748D01*
X3614Y103753D01*
X3641Y103769D01*
X3699Y103793D01*
X6155Y105135D01*
X6175Y105150D01*
X6198Y105160D01*
X6329Y105264D01*
X7077Y106013D01*
X7569Y106013D01*
X7673Y106030D01*
X7779Y106043D01*
X7799Y106051D01*
X7812Y106053D01*
X7839Y106068D01*
X7934Y106106D01*
X8366Y106342D01*
X9382Y106044D01*
X9406Y106041D01*
X9429Y106032D01*
X9596Y106013D01*
X10655Y106013D01*
X11003Y105666D01*
X11089Y105604D01*
X11172Y105538D01*
X11192Y105530D01*
X11203Y105522D01*
X11232Y105513D01*
X11327Y105473D01*
X11799Y105335D01*
X12306Y104406D01*
X12322Y104386D01*
X12331Y104363D01*
X12436Y104232D01*
X13185Y103483D01*
X13185Y102992D01*
X13202Y102887D01*
X13215Y102782D01*
X13223Y102762D01*
X13225Y102749D01*
X13239Y102722D01*
X13278Y102627D01*
X13514Y102195D01*
X13216Y101179D01*
X13213Y101154D01*
X13204Y101131D01*
X13185Y100965D01*
X13185Y94230D01*
X13194Y94176D01*
X13193Y94122D01*
X13220Y94017D01*
X13225Y93987D01*
X13230Y93977D01*
X13235Y93959D01*
X13379Y93580D01*
X13267Y93330D01*
X13245Y93249D01*
X13215Y93170D01*
X13211Y93119D01*
X13204Y93092D01*
X13206Y93063D01*
X13200Y93003D01*
X13221Y91966D01*
X12294Y91039D01*
X12262Y90994D01*
X12222Y90956D01*
X12167Y90863D01*
X12150Y90839D01*
X12147Y90828D01*
X12137Y90812D01*
X11878Y90233D01*
X11863Y90178D01*
X11839Y90127D01*
X11832Y90060D01*
X11815Y89995D01*
X11818Y89939D01*
X11812Y89882D01*
X11826Y89817D01*
X11831Y89750D01*
X11852Y89697D01*
X11864Y89642D01*
X11899Y89584D01*
X11924Y89522D01*
X11961Y89479D01*
X11991Y89431D01*
X12041Y89387D01*
X12085Y89337D01*
X12134Y89308D01*
X12178Y89271D01*
X12240Y89246D01*
X12297Y89212D01*
X12353Y89200D01*
X12406Y89179D01*
X12508Y89168D01*
X12538Y89161D01*
X12551Y89163D01*
X12572Y89160D01*
X17534Y89160D01*
X17554Y89164D01*
G37*
G36*
X135045Y62167D02*
X135045Y62167D01*
X135136Y62174D01*
X135166Y62186D01*
X135198Y62192D01*
X135279Y62234D01*
X135363Y62270D01*
X135395Y62296D01*
X135415Y62307D01*
X135438Y62330D01*
X135494Y62375D01*
X136398Y63279D01*
X136441Y63339D01*
X136489Y63390D01*
X136497Y63407D01*
X136510Y63423D01*
X136523Y63453D01*
X136541Y63479D01*
X136563Y63549D01*
X136593Y63613D01*
X136595Y63632D01*
X136602Y63651D01*
X136607Y63692D01*
X136614Y63714D01*
X136613Y63746D01*
X136621Y63817D01*
X136621Y65624D01*
X139233Y68237D01*
X139286Y68311D01*
X139346Y68380D01*
X139358Y68410D01*
X139377Y68436D01*
X139403Y68523D01*
X139438Y68608D01*
X139442Y68649D01*
X139449Y68671D01*
X139448Y68704D01*
X139456Y68775D01*
X139456Y75774D01*
X139453Y75794D01*
X139455Y75813D01*
X139433Y75915D01*
X139416Y76017D01*
X139407Y76034D01*
X139403Y76054D01*
X139350Y76143D01*
X139301Y76234D01*
X139287Y76248D01*
X139277Y76265D01*
X139198Y76332D01*
X139123Y76403D01*
X139105Y76412D01*
X139090Y76425D01*
X138994Y76464D01*
X138900Y76507D01*
X138880Y76509D01*
X138862Y76517D01*
X138695Y76535D01*
X134072Y76535D01*
X132537Y78070D01*
X132537Y83541D01*
X134252Y85256D01*
X134305Y85330D01*
X134365Y85400D01*
X134377Y85430D01*
X134396Y85456D01*
X134423Y85543D01*
X134457Y85628D01*
X134461Y85669D01*
X134468Y85691D01*
X134467Y85723D01*
X134475Y85795D01*
X134475Y86046D01*
X134472Y86065D01*
X134474Y86085D01*
X134452Y86186D01*
X134435Y86288D01*
X134426Y86306D01*
X134422Y86326D01*
X134369Y86415D01*
X134320Y86506D01*
X134306Y86520D01*
X134296Y86537D01*
X134217Y86604D01*
X134142Y86675D01*
X134124Y86684D01*
X134109Y86697D01*
X134013Y86735D01*
X133919Y86779D01*
X133899Y86781D01*
X133881Y86789D01*
X133714Y86807D01*
X132267Y86807D01*
X131523Y87551D01*
X131523Y95532D01*
X131508Y95622D01*
X131501Y95713D01*
X131488Y95743D01*
X131483Y95775D01*
X131440Y95856D01*
X131405Y95939D01*
X131379Y95972D01*
X131368Y95992D01*
X131345Y96014D01*
X131300Y96070D01*
X129579Y97791D01*
X129505Y97845D01*
X129435Y97904D01*
X129405Y97916D01*
X129379Y97935D01*
X129292Y97962D01*
X129207Y97996D01*
X129166Y98000D01*
X129144Y98007D01*
X129112Y98006D01*
X129041Y98014D01*
X116285Y98014D01*
X115097Y99203D01*
X115023Y99256D01*
X114953Y99315D01*
X114923Y99328D01*
X114897Y99346D01*
X114810Y99373D01*
X114725Y99407D01*
X114684Y99412D01*
X114662Y99419D01*
X114630Y99418D01*
X114559Y99426D01*
X108759Y99426D01*
X108689Y99414D01*
X108617Y99412D01*
X108568Y99394D01*
X108517Y99386D01*
X108453Y99353D01*
X108386Y99328D01*
X108345Y99295D01*
X108299Y99271D01*
X108250Y99219D01*
X108194Y99174D01*
X108166Y99130D01*
X108130Y99093D01*
X108100Y99028D01*
X108061Y98967D01*
X108048Y98917D01*
X108026Y98870D01*
X108018Y98798D01*
X108001Y98729D01*
X108005Y98677D01*
X107999Y98625D01*
X108014Y98555D01*
X108020Y98484D01*
X108040Y98436D01*
X108051Y98385D01*
X108088Y98323D01*
X108116Y98257D01*
X108161Y98201D01*
X108178Y98174D01*
X108195Y98158D01*
X108221Y98126D01*
X108234Y98113D01*
X108234Y94761D01*
X108238Y94741D01*
X108235Y94721D01*
X108257Y94620D01*
X108274Y94518D01*
X108283Y94500D01*
X108288Y94481D01*
X108341Y94392D01*
X108389Y94300D01*
X108404Y94287D01*
X108414Y94270D01*
X108493Y94202D01*
X108568Y94131D01*
X108586Y94123D01*
X108601Y94110D01*
X108697Y94071D01*
X108791Y94027D01*
X108810Y94025D01*
X108829Y94018D01*
X108996Y93999D01*
X110526Y93999D01*
X112237Y92288D01*
X119277Y85248D01*
X120988Y83537D01*
X120988Y81142D01*
X121003Y81052D01*
X121010Y80961D01*
X121023Y80932D01*
X121028Y80900D01*
X121071Y80819D01*
X121106Y80735D01*
X121132Y80703D01*
X121143Y80682D01*
X121167Y80660D01*
X121211Y80604D01*
X126724Y75092D01*
X126798Y75039D01*
X126867Y74979D01*
X126897Y74967D01*
X126924Y74948D01*
X127010Y74921D01*
X127095Y74887D01*
X127136Y74883D01*
X127159Y74876D01*
X127191Y74877D01*
X127262Y74869D01*
X130028Y74869D01*
X131595Y73302D01*
X131595Y67894D01*
X130028Y66327D01*
X127621Y66327D01*
X127531Y66312D01*
X127440Y66305D01*
X127410Y66293D01*
X127379Y66287D01*
X127298Y66245D01*
X127214Y66209D01*
X127182Y66183D01*
X127161Y66172D01*
X127139Y66149D01*
X127083Y66104D01*
X126209Y65230D01*
X126156Y65156D01*
X126096Y65087D01*
X126084Y65056D01*
X126065Y65030D01*
X126038Y64943D01*
X126004Y64858D01*
X126000Y64817D01*
X125993Y64795D01*
X125994Y64763D01*
X125986Y64692D01*
X125986Y64082D01*
X125355Y63451D01*
X125313Y63393D01*
X125264Y63341D01*
X125242Y63294D01*
X125212Y63252D01*
X125191Y63183D01*
X125160Y63118D01*
X125155Y63066D01*
X125139Y63017D01*
X125141Y62945D01*
X125133Y62874D01*
X125144Y62823D01*
X125146Y62771D01*
X125170Y62703D01*
X125186Y62633D01*
X125212Y62589D01*
X125230Y62540D01*
X125275Y62484D01*
X125312Y62422D01*
X125351Y62388D01*
X125384Y62348D01*
X125444Y62309D01*
X125499Y62262D01*
X125547Y62243D01*
X125591Y62215D01*
X125660Y62197D01*
X125727Y62170D01*
X125798Y62162D01*
X125829Y62155D01*
X125853Y62156D01*
X125893Y62152D01*
X134955Y62152D01*
X135045Y62167D01*
G37*
G36*
X123176Y160101D02*
X123176Y160101D01*
X123247Y160103D01*
X123296Y160121D01*
X123348Y160129D01*
X123411Y160162D01*
X123478Y160187D01*
X123519Y160220D01*
X123565Y160244D01*
X123614Y160296D01*
X123670Y160341D01*
X123699Y160385D01*
X123734Y160422D01*
X123765Y160487D01*
X123803Y160548D01*
X123816Y160598D01*
X123838Y160645D01*
X123846Y160717D01*
X123863Y160786D01*
X123859Y160838D01*
X123865Y160890D01*
X123850Y160960D01*
X123844Y161031D01*
X123824Y161079D01*
X123813Y161130D01*
X123776Y161192D01*
X123748Y161258D01*
X123703Y161314D01*
X123687Y161341D01*
X123669Y161357D01*
X123643Y161389D01*
X123240Y161792D01*
X123240Y173345D01*
X123984Y174089D01*
X145837Y174089D01*
X145856Y174092D01*
X145876Y174090D01*
X145977Y174112D01*
X146079Y174129D01*
X146097Y174138D01*
X146116Y174142D01*
X146205Y174196D01*
X146297Y174244D01*
X146310Y174258D01*
X146327Y174269D01*
X146395Y174347D01*
X146466Y174422D01*
X146474Y174440D01*
X146487Y174456D01*
X146526Y174552D01*
X146570Y174645D01*
X146572Y174665D01*
X146579Y174684D01*
X146598Y174850D01*
X146598Y180169D01*
X146595Y180189D01*
X146597Y180208D01*
X146575Y180310D01*
X146558Y180412D01*
X146549Y180429D01*
X146545Y180449D01*
X146491Y180538D01*
X146443Y180629D01*
X146429Y180643D01*
X146418Y180660D01*
X146340Y180727D01*
X146265Y180798D01*
X146247Y180807D01*
X146231Y180820D01*
X146135Y180859D01*
X146042Y180902D01*
X146022Y180904D01*
X146003Y180912D01*
X145837Y180930D01*
X115175Y180930D01*
X115156Y180927D01*
X115136Y180929D01*
X115035Y180907D01*
X114933Y180890D01*
X114915Y180881D01*
X114896Y180877D01*
X114807Y180824D01*
X114715Y180775D01*
X114702Y180761D01*
X114685Y180751D01*
X114617Y180672D01*
X114546Y180597D01*
X114538Y180579D01*
X114525Y180564D01*
X114486Y180468D01*
X114442Y180374D01*
X114440Y180354D01*
X114433Y180336D01*
X114414Y180169D01*
X114414Y174380D01*
X114429Y174292D01*
X114435Y174204D01*
X114448Y174172D01*
X114454Y174137D01*
X114495Y174059D01*
X114530Y173977D01*
X114557Y173942D01*
X114569Y173920D01*
X114592Y173898D01*
X114633Y173845D01*
X114741Y173736D01*
X114707Y168865D01*
X113352Y167528D01*
X113340Y167512D01*
X113324Y167500D01*
X113268Y167413D01*
X113207Y167330D01*
X113201Y167311D01*
X113190Y167294D01*
X113164Y167193D01*
X113133Y167095D01*
X113133Y167075D01*
X113128Y167056D01*
X113135Y166953D01*
X113137Y166849D01*
X113144Y166830D01*
X113146Y166810D01*
X113185Y166715D01*
X113220Y166617D01*
X113233Y166602D01*
X113240Y166583D01*
X113344Y166452D01*
X114747Y165029D01*
X114747Y160850D01*
X114751Y160831D01*
X114748Y160811D01*
X114770Y160710D01*
X114787Y160608D01*
X114796Y160590D01*
X114801Y160571D01*
X114854Y160482D01*
X114902Y160390D01*
X114917Y160377D01*
X114927Y160360D01*
X115006Y160292D01*
X115081Y160221D01*
X115099Y160213D01*
X115114Y160200D01*
X115210Y160161D01*
X115304Y160117D01*
X115323Y160115D01*
X115342Y160108D01*
X115509Y160089D01*
X123105Y160089D01*
X123176Y160101D01*
G37*
G36*
X117780Y66874D02*
X117780Y66874D01*
X117884Y66877D01*
X117902Y66884D01*
X117922Y66885D01*
X118017Y66926D01*
X118115Y66961D01*
X118130Y66974D01*
X118149Y66981D01*
X118280Y67086D01*
X120630Y69437D01*
X122196Y69437D01*
X122286Y69452D01*
X122377Y69459D01*
X122407Y69472D01*
X122439Y69477D01*
X122519Y69520D01*
X122603Y69555D01*
X122635Y69581D01*
X122656Y69592D01*
X122678Y69615D01*
X122734Y69660D01*
X123313Y70239D01*
X123325Y70255D01*
X123340Y70268D01*
X123396Y70355D01*
X123457Y70439D01*
X123463Y70458D01*
X123473Y70475D01*
X123499Y70575D01*
X123529Y70674D01*
X123529Y70694D01*
X123534Y70713D01*
X123526Y70816D01*
X123523Y70920D01*
X123516Y70939D01*
X123514Y70959D01*
X123474Y71053D01*
X123438Y71151D01*
X123426Y71167D01*
X123418Y71185D01*
X123313Y71316D01*
X117618Y77011D01*
X115907Y78722D01*
X115907Y80127D01*
X115895Y80198D01*
X115893Y80270D01*
X115876Y80319D01*
X115867Y80370D01*
X115834Y80433D01*
X115809Y80501D01*
X115776Y80541D01*
X115752Y80587D01*
X115700Y80637D01*
X115655Y80693D01*
X115611Y80721D01*
X115574Y80757D01*
X115509Y80787D01*
X115448Y80826D01*
X115398Y80838D01*
X115351Y80860D01*
X115279Y80868D01*
X115210Y80886D01*
X115158Y80882D01*
X115106Y80887D01*
X115036Y80872D01*
X114965Y80867D01*
X114917Y80846D01*
X114866Y80835D01*
X114804Y80798D01*
X114738Y80770D01*
X114682Y80725D01*
X114655Y80709D01*
X114639Y80691D01*
X114607Y80665D01*
X112906Y78964D01*
X109989Y78964D01*
X107927Y81026D01*
X107927Y82815D01*
X107912Y82905D01*
X107905Y82996D01*
X107892Y83026D01*
X107887Y83058D01*
X107844Y83139D01*
X107809Y83223D01*
X107783Y83255D01*
X107772Y83276D01*
X107749Y83298D01*
X107704Y83354D01*
X106855Y84203D01*
X106781Y84256D01*
X106711Y84315D01*
X106681Y84328D01*
X106655Y84346D01*
X106568Y84373D01*
X106483Y84407D01*
X106442Y84412D01*
X106420Y84419D01*
X106388Y84418D01*
X106316Y84426D01*
X101701Y84426D01*
X101630Y84414D01*
X101559Y84412D01*
X101510Y84394D01*
X101458Y84386D01*
X101395Y84353D01*
X101328Y84328D01*
X101287Y84295D01*
X101241Y84271D01*
X101192Y84219D01*
X101136Y84174D01*
X101108Y84130D01*
X101072Y84093D01*
X101041Y84028D01*
X101003Y83967D01*
X100990Y83917D01*
X100968Y83870D01*
X100960Y83798D01*
X100943Y83729D01*
X100947Y83677D01*
X100941Y83625D01*
X100956Y83555D01*
X100962Y83484D01*
X100982Y83436D01*
X100993Y83385D01*
X101030Y83323D01*
X101058Y83257D01*
X101103Y83201D01*
X101119Y83174D01*
X101137Y83158D01*
X101163Y83126D01*
X102212Y82078D01*
X117203Y67086D01*
X117219Y67075D01*
X117232Y67059D01*
X117319Y67003D01*
X117403Y66943D01*
X117422Y66937D01*
X117439Y66926D01*
X117539Y66901D01*
X117638Y66870D01*
X117658Y66871D01*
X117677Y66866D01*
X117780Y66874D01*
G37*
G36*
X10404Y169620D02*
X10404Y169620D01*
X10508Y169622D01*
X10526Y169629D01*
X10546Y169631D01*
X10641Y169671D01*
X10739Y169707D01*
X10754Y169719D01*
X10773Y169727D01*
X10845Y169785D01*
X10848Y169787D01*
X10852Y169791D01*
X10904Y169832D01*
X11923Y170851D01*
X11934Y170867D01*
X11950Y170880D01*
X12006Y170967D01*
X12066Y171051D01*
X12072Y171070D01*
X12083Y171087D01*
X12108Y171187D01*
X12139Y171286D01*
X12138Y171306D01*
X12143Y171325D01*
X12135Y171428D01*
X12132Y171532D01*
X12125Y171551D01*
X12124Y171570D01*
X12084Y171665D01*
X12048Y171763D01*
X12035Y171778D01*
X12028Y171797D01*
X11923Y171928D01*
X10674Y173176D01*
X10674Y178584D01*
X11721Y179631D01*
X11763Y179689D01*
X11813Y179741D01*
X11835Y179788D01*
X11865Y179830D01*
X11886Y179899D01*
X11916Y179964D01*
X11922Y180016D01*
X11937Y180066D01*
X11935Y180137D01*
X11943Y180208D01*
X11932Y180259D01*
X11931Y180311D01*
X11906Y180379D01*
X11891Y180449D01*
X11864Y180493D01*
X11846Y180542D01*
X11802Y180598D01*
X11765Y180660D01*
X11725Y180694D01*
X11693Y180734D01*
X11632Y180773D01*
X11578Y180820D01*
X11530Y180839D01*
X11486Y180867D01*
X11416Y180885D01*
X11350Y180912D01*
X11278Y180920D01*
X11247Y180928D01*
X11224Y180926D01*
X11183Y180930D01*
X3335Y180930D01*
X3315Y180927D01*
X3295Y180929D01*
X3194Y180907D01*
X3092Y180890D01*
X3074Y180881D01*
X3055Y180877D01*
X2966Y180824D01*
X2874Y180775D01*
X2861Y180761D01*
X2844Y180751D01*
X2776Y180672D01*
X2705Y180597D01*
X2697Y180579D01*
X2684Y180564D01*
X2645Y180468D01*
X2601Y180374D01*
X2599Y180354D01*
X2592Y180336D01*
X2573Y180169D01*
X2573Y171939D01*
X2585Y171868D01*
X2587Y171796D01*
X2605Y171747D01*
X2613Y171697D01*
X2647Y171633D01*
X2672Y171565D01*
X2704Y171525D01*
X2728Y171479D01*
X2780Y171429D01*
X2826Y171373D01*
X2869Y171345D01*
X2906Y171310D01*
X2972Y171279D01*
X3033Y171240D01*
X3083Y171228D01*
X3130Y171206D01*
X3201Y171198D01*
X3271Y171181D01*
X3323Y171185D01*
X3374Y171179D01*
X3422Y171190D01*
X8469Y171190D01*
X9827Y169832D01*
X9843Y169820D01*
X9856Y169805D01*
X9932Y169756D01*
X9947Y169742D01*
X9957Y169738D01*
X10027Y169688D01*
X10046Y169682D01*
X10062Y169672D01*
X10163Y169646D01*
X10262Y169616D01*
X10282Y169616D01*
X10301Y169611D01*
X10404Y169620D01*
G37*
D10*
X89957Y117959D03*
X84957Y117959D03*
X79957Y117959D03*
X74957Y117959D03*
X69957Y117959D03*
X64957Y117959D03*
X59957Y117959D03*
X54957Y117959D03*
X49957Y117959D03*
X44957Y117959D03*
X39957Y117959D03*
X34957Y117959D03*
D11*
X28457Y111459D03*
X28457Y106459D03*
X28457Y101459D03*
X28457Y96459D03*
X28457Y91459D03*
X28457Y86459D03*
X28457Y81459D03*
X28457Y76459D03*
X28457Y71459D03*
X28457Y66459D03*
X28457Y61459D03*
X28457Y56459D03*
D10*
X34957Y49959D03*
X39957Y49959D03*
X44957Y49959D03*
X49957Y49959D03*
X54957Y49959D03*
X59957Y49959D03*
X64957Y49959D03*
X69957Y49959D03*
X74957Y49959D03*
X79957Y49959D03*
X84957Y49959D03*
X89957Y49959D03*
D11*
X96457Y56459D03*
X96457Y61459D03*
X96457Y66459D03*
X96457Y71459D03*
X96457Y76459D03*
X96457Y81459D03*
X96457Y86459D03*
X96457Y91459D03*
X96457Y96459D03*
X96457Y101459D03*
X96457Y106459D03*
X96457Y111459D03*
D12*
X62457Y83959D03*
D13*
X39207Y71359D03*
X39207Y83959D03*
X39207Y96559D03*
X85707Y71359D03*
X85707Y83959D03*
X85707Y96559D03*
X49857Y60709D03*
X62457Y60709D03*
X75057Y60709D03*
X49857Y107209D03*
X62457Y107209D03*
X75057Y107209D03*
X49857Y83959D03*
X62457Y83705D03*
X75057Y83959D03*
X49857Y71359D03*
X62457Y71359D03*
X75057Y71359D03*
X49857Y96559D03*
X62457Y96559D03*
X75057Y96559D03*
D14*
X19289Y10773D02*
X19289Y8181D01*
X19289Y10773D02*
X22481Y10773D01*
X22481Y8181D01*
X19289Y8181D01*
X22481Y16781D02*
X22481Y19373D01*
X22481Y16781D02*
X19289Y16781D01*
X19289Y19373D01*
X22481Y19373D01*
X29211Y10845D02*
X29211Y8253D01*
X29211Y10845D02*
X32403Y10845D01*
X32403Y8253D01*
X29211Y8253D01*
X32403Y16853D02*
X32403Y19445D01*
X32403Y16853D02*
X29211Y16853D01*
X29211Y19445D01*
X32403Y19445D01*
X121501Y34864D02*
X121501Y37456D01*
X121501Y34864D02*
X118309Y34864D01*
X118309Y37456D01*
X121501Y37456D01*
X118309Y28856D02*
X118309Y26264D01*
X118309Y28856D02*
X121501Y28856D01*
X121501Y26264D01*
X118309Y26264D01*
X108757Y26289D02*
X108757Y28881D01*
X111949Y28881D01*
X111949Y26289D01*
X108757Y26289D01*
X111949Y34889D02*
X111949Y37481D01*
X111949Y34889D02*
X108757Y34889D01*
X108757Y37481D01*
X111949Y37481D01*
X13865Y42117D02*
X13865Y44709D01*
X17057Y44709D01*
X17057Y42117D01*
X13865Y42117D01*
X17057Y50717D02*
X17057Y53309D01*
X17057Y50717D02*
X13865Y50717D01*
X13865Y53309D01*
X17057Y53309D01*
X56204Y153736D02*
X56209Y156327D01*
X56204Y153736D02*
X53013Y153741D01*
X53018Y156332D01*
X56209Y156327D01*
X53003Y147732D02*
X52998Y145141D01*
X53003Y147732D02*
X56194Y147727D01*
X56189Y145136D01*
X52998Y145141D01*
X45201Y153666D02*
X45201Y156258D01*
X45201Y153666D02*
X42009Y153666D01*
X42009Y156258D01*
X45201Y156258D01*
X42009Y147658D02*
X42009Y145066D01*
X42009Y147658D02*
X45201Y147658D01*
X45201Y145066D01*
X42009Y145066D01*
X18886Y116480D02*
X16294Y116480D01*
X16294Y119672D01*
X18886Y119672D01*
X18886Y116480D01*
X18886Y119148D02*
X16294Y119148D01*
X10286Y119672D02*
X7694Y119672D01*
X10286Y119672D02*
X10286Y116480D01*
X7694Y116480D01*
X7694Y119672D01*
X7694Y119148D02*
X10286Y119148D01*
X16991Y71075D02*
X16991Y68483D01*
X13799Y68483D01*
X13799Y71075D01*
X16991Y71075D01*
X13799Y62475D02*
X13799Y59883D01*
X13799Y62475D02*
X16991Y62475D01*
X16991Y59883D01*
X13799Y59883D01*
X126328Y72194D02*
X128920Y72194D01*
X128920Y69002D01*
X126328Y69002D01*
X126328Y72194D01*
X126328Y71670D02*
X128920Y71670D01*
X134928Y69002D02*
X137520Y69002D01*
X134928Y69002D02*
X134928Y72194D01*
X137520Y72194D01*
X137520Y69002D01*
X137520Y71670D02*
X134928Y71670D01*
X102355Y37469D02*
X102355Y34877D01*
X99163Y34877D01*
X99163Y37469D01*
X102355Y37469D01*
X99163Y28869D02*
X99163Y26277D01*
X99163Y28869D02*
X102355Y28869D01*
X102355Y26277D01*
X99163Y26277D01*
D15*
X90364Y27597D02*
X90364Y32597D01*
X90364Y27597D02*
X81164Y27597D01*
X81164Y32597D01*
X90364Y32597D01*
X90364Y32347D02*
X81164Y32347D01*
X81164Y13897D02*
X81164Y8897D01*
X81164Y13897D02*
X90364Y13897D01*
X90364Y8897D01*
X81164Y8897D01*
X81164Y13647D02*
X90364Y13647D01*
X41240Y13837D02*
X41240Y8837D01*
X41240Y13837D02*
X50440Y13837D01*
X50440Y8837D01*
X41240Y8837D01*
X41240Y13587D02*
X50440Y13587D01*
X50440Y27537D02*
X50440Y32537D01*
X50440Y27537D02*
X41240Y27537D01*
X41240Y32537D01*
X50440Y32537D01*
X50440Y32287D02*
X41240Y32287D01*
D14*
X104130Y113076D02*
X106722Y113076D01*
X106722Y109884D01*
X104130Y109884D01*
X104130Y113076D01*
X104130Y112552D02*
X106722Y112552D01*
X112730Y109884D02*
X115322Y109884D01*
X112730Y109884D02*
X112730Y113076D01*
X115322Y113076D01*
X115322Y109884D01*
X115322Y112552D02*
X112730Y112552D01*
X106117Y122772D02*
X103525Y122772D01*
X106117Y122772D02*
X106117Y119580D01*
X103525Y119580D01*
X103525Y122772D01*
X103525Y122248D02*
X106117Y122248D01*
X112125Y119580D02*
X114717Y119580D01*
X112125Y119580D02*
X112125Y122772D01*
X114717Y122772D01*
X114717Y119580D01*
X114717Y122248D02*
X112125Y122248D01*
D16*
X14417Y33165D02*
X10545Y33165D01*
X14417Y33165D02*
X14417Y27893D01*
X10545Y27893D01*
X10545Y33165D01*
X10545Y31721D02*
X14417Y31721D01*
X26945Y27893D02*
X30817Y27893D01*
X26945Y27893D02*
X26945Y33165D01*
X30817Y33165D01*
X30817Y27893D01*
X30817Y31721D02*
X26945Y31721D01*
D15*
X70444Y32504D02*
X70444Y27504D01*
X61244Y27504D01*
X61244Y32504D01*
X70444Y32504D01*
X70444Y32254D02*
X61244Y32254D01*
X61244Y13804D02*
X61244Y8804D01*
X61244Y13804D02*
X70444Y13804D01*
X70444Y8804D01*
X61244Y8804D01*
X61244Y13554D02*
X70444Y13554D01*
D17*
X125544Y107328D03*
X125544Y92828D03*
X137044Y92828D03*
X137044Y107328D03*
D18*
X81375Y132489D02*
X81375Y135189D01*
X81375Y132489D02*
X78075Y132489D01*
X78075Y135189D01*
X81375Y135189D01*
X81375Y135054D02*
X78075Y135054D01*
X81375Y141129D02*
X81375Y143829D01*
X81375Y141129D02*
X78075Y141129D01*
X78075Y143829D01*
X81375Y143829D01*
X81375Y143694D02*
X78075Y143694D01*
X71147Y135270D02*
X71147Y132570D01*
X67847Y132570D01*
X67847Y135270D01*
X71147Y135270D01*
X71147Y135135D02*
X67847Y135135D01*
X71147Y141210D02*
X71147Y143910D01*
X71147Y141210D02*
X67847Y141210D01*
X67847Y143910D01*
X71147Y143910D01*
X71147Y143775D02*
X67847Y143775D01*
X109053Y144033D02*
X109053Y141333D01*
X109053Y144033D02*
X112353Y144033D01*
X112353Y141333D01*
X109053Y141333D01*
X109053Y143898D02*
X112353Y143898D01*
X109053Y135393D02*
X109053Y132693D01*
X109053Y135393D02*
X112353Y135393D01*
X112353Y132693D01*
X109053Y132693D01*
X109053Y135258D02*
X112353Y135258D01*
X91706Y135293D02*
X91706Y132593D01*
X88406Y132593D01*
X88406Y135293D01*
X91706Y135293D01*
X91706Y135158D02*
X88406Y135158D01*
X91706Y141233D02*
X91706Y143933D01*
X91706Y141233D02*
X88406Y141233D01*
X88406Y143933D01*
X91706Y143933D01*
X91706Y143798D02*
X88406Y143798D01*
X67874Y159552D02*
X67874Y162252D01*
X71174Y162252D01*
X71174Y159552D01*
X67874Y159552D01*
X67874Y162117D02*
X71174Y162117D01*
X67874Y153612D02*
X67874Y150912D01*
X67874Y153612D02*
X71174Y153612D01*
X71174Y150912D01*
X67874Y150912D01*
X67874Y153477D02*
X71174Y153477D01*
X97961Y169823D02*
X97961Y172523D01*
X101261Y172523D01*
X101261Y169823D01*
X97961Y169823D01*
X97961Y172388D02*
X101261Y172388D01*
X97961Y163883D02*
X97961Y161183D01*
X97961Y163883D02*
X101261Y163883D01*
X101261Y161183D01*
X97961Y161183D01*
X97961Y163748D02*
X101261Y163748D01*
X112052Y164029D02*
X112033Y161330D01*
X108734Y161353D01*
X108753Y164052D01*
X112052Y164029D01*
X112051Y163895D02*
X108752Y163895D01*
X112094Y169969D02*
X112113Y172668D01*
X112094Y169969D02*
X108795Y169992D01*
X108814Y172691D01*
X112113Y172668D01*
X112112Y172534D02*
X108813Y172534D01*
X101942Y135293D02*
X101942Y132593D01*
X98642Y132593D01*
X98642Y135293D01*
X101942Y135293D01*
X101942Y135158D02*
X98642Y135158D01*
X101942Y141233D02*
X101942Y143933D01*
X101942Y141233D02*
X98642Y141233D01*
X98642Y143933D01*
X101942Y143933D01*
X101942Y143798D02*
X98642Y143798D01*
X81525Y150901D02*
X81525Y153601D01*
X81525Y150901D02*
X78225Y150901D01*
X78225Y153601D01*
X81525Y153601D01*
X81525Y153466D02*
X78225Y153466D01*
X81525Y159541D02*
X81525Y162241D01*
X81525Y159541D02*
X78225Y159541D01*
X78225Y162241D01*
X81525Y162241D01*
X81525Y162106D02*
X78225Y162106D01*
X79109Y169586D02*
X81809Y169586D01*
X79109Y169586D02*
X79109Y172886D01*
X81809Y172886D01*
X81809Y169586D01*
X81809Y172151D02*
X79109Y172151D01*
X87749Y169586D02*
X90449Y169586D01*
X87749Y169586D02*
X87749Y172886D01*
X90449Y172886D01*
X90449Y169586D01*
X90449Y172151D02*
X87749Y172151D01*
X135158Y82456D02*
X137858Y82456D01*
X137858Y79156D01*
X135158Y79156D01*
X135158Y82456D01*
X135158Y81721D02*
X137858Y81721D01*
X129218Y82456D02*
X126518Y82456D01*
X129218Y82456D02*
X129218Y79156D01*
X126518Y79156D01*
X126518Y82456D01*
X126518Y81721D02*
X129218Y81721D01*
X127517Y118822D02*
X124817Y118822D01*
X124817Y122122D01*
X127517Y122122D01*
X127517Y118822D01*
X127517Y121387D02*
X124817Y121387D01*
X133457Y118822D02*
X136157Y118822D01*
X133457Y118822D02*
X133457Y122122D01*
X136157Y122122D01*
X136157Y118822D01*
X136157Y121387D02*
X133457Y121387D01*
D15*
X100634Y205261D02*
X90634Y205261D01*
X100573Y205281D02*
X100573Y227281D01*
X90573Y227281D02*
X90573Y205281D01*
X100562Y227289D02*
X110562Y227289D01*
X80573Y227281D02*
X80573Y205281D01*
X70573Y205281D02*
X70573Y227281D01*
X60573Y227281D02*
X60573Y205281D01*
X50573Y205281D02*
X50573Y227281D01*
X40573Y227281D02*
X40573Y205281D01*
X30573Y205281D02*
X30573Y227281D01*
X80534Y227333D02*
X90534Y227333D01*
X80534Y205233D02*
X70534Y205233D01*
X70634Y227333D02*
X60634Y227333D01*
X30534Y227333D02*
X20534Y227333D01*
X50534Y205233D02*
X60534Y205233D01*
X50534Y227333D02*
X40534Y227333D01*
X40534Y205233D02*
X30534Y205233D01*
X110641Y184188D02*
X110641Y227188D01*
D19*
X110637Y184101D03*
D20*
X135511Y140068D03*
X135511Y167568D03*
D21*
X120261Y153818D03*
D18*
X108827Y161190D02*
X108827Y163890D01*
X112127Y163890D01*
X112127Y161190D01*
X108827Y161190D01*
X108827Y163755D02*
X112127Y163755D01*
X108827Y155250D02*
X108827Y152550D01*
X108827Y155250D02*
X112127Y155250D01*
X112127Y152550D01*
X108827Y152550D01*
X108827Y155115D02*
X112127Y155115D01*
D22*
X149067Y72065D03*
X149067Y84765D03*
X149067Y59365D03*
X149067Y97465D03*
X149067Y46665D03*
X149067Y110165D03*
X149067Y33965D03*
X149067Y21265D03*
X80830Y-1511D03*
X93530Y-1511D03*
X68130Y-1511D03*
X106230Y-1511D03*
X55430Y-1511D03*
X118930Y-1511D03*
X42730Y-1511D03*
X30030Y-1511D03*
X247Y71818D03*
X247Y84518D03*
X247Y59118D03*
X247Y97218D03*
X247Y46418D03*
X247Y109918D03*
X247Y33718D03*
X247Y21018D03*
D23*
X55922Y133747D03*
X41922Y133747D03*
D24*
X30798Y138985D03*
X30798Y143985D03*
X30798Y148985D03*
X30798Y153985D03*
X6098Y153985D03*
X6098Y148985D03*
X6098Y143985D03*
X6098Y138985D03*
D25*
X18448Y146485D03*
D14*
X7361Y168515D02*
X4769Y168515D01*
X7361Y168515D02*
X7361Y165323D01*
X4769Y165323D01*
X4769Y168515D01*
X4769Y167991D02*
X7361Y167991D01*
X13369Y165323D02*
X15961Y165323D01*
X13369Y165323D02*
X13369Y168515D01*
X15961Y168515D01*
X15961Y165323D01*
X15961Y167991D02*
X13369Y167991D01*
X22694Y177502D02*
X25286Y177502D01*
X25286Y174310D01*
X22694Y174310D01*
X22694Y177502D01*
X22694Y176978D02*
X25286Y176978D01*
X31294Y174310D02*
X33886Y174310D01*
X31294Y174310D02*
X31294Y177502D01*
X33886Y177502D01*
X33886Y174310D01*
X33886Y176978D02*
X31294Y176978D01*
X25146Y168452D02*
X22554Y168452D01*
X25146Y168452D02*
X25146Y165260D01*
X22554Y165260D01*
X22554Y168452D01*
X22554Y167928D02*
X25146Y167928D01*
X31154Y165260D02*
X33746Y165260D01*
X31154Y165260D02*
X31154Y168452D01*
X33746Y168452D01*
X33746Y165260D01*
X33746Y167928D02*
X31154Y167928D01*
D26*
X129416Y30157D02*
X136416Y30157D01*
X129416Y30157D02*
X129416Y37157D01*
X136416Y37157D01*
X136416Y30157D01*
X136416Y33007D02*
X129416Y33007D01*
X129416Y35857D02*
X136416Y35857D01*
X136416Y12617D02*
X129416Y12617D01*
X129416Y19617D01*
X136416Y19617D01*
X136416Y12617D01*
X136416Y15467D02*
X129416Y15467D01*
X129416Y18317D02*
X136416Y18317D01*
D14*
X113244Y17652D02*
X110652Y17652D01*
X113244Y17652D02*
X113244Y14460D01*
X110652Y14460D01*
X110652Y17652D01*
X110652Y17128D02*
X113244Y17128D01*
X119252Y14460D02*
X121844Y14460D01*
X119252Y14460D02*
X119252Y17652D01*
X121844Y17652D01*
X121844Y14460D01*
X121844Y17128D02*
X119252Y17128D01*
X7341Y177476D02*
X4749Y177476D01*
X7341Y177476D02*
X7341Y174284D01*
X4749Y174284D01*
X4749Y177476D01*
X4749Y176952D02*
X7341Y176952D01*
X13349Y174284D02*
X15941Y174284D01*
X13349Y174284D02*
X13349Y177476D01*
X15941Y177476D01*
X15941Y174284D01*
X15941Y176952D02*
X13349Y176952D01*
D27*
X43605Y146362D02*
X43605Y140642D01*
X41922Y138960D02*
X41922Y133747D01*
X41922Y138960D02*
X43605Y140642D01*
X49957Y123096D02*
X49957Y117959D01*
X49957Y123096D02*
X49873Y123180D01*
X42000Y133670D02*
X41922Y133747D01*
X42000Y133670D02*
X42000Y126963D01*
X49873Y123180D01*
X54957Y123677D02*
X54957Y117959D01*
X54957Y123677D02*
X56448Y125168D01*
X56448Y133222D01*
X55922Y133747D01*
X54596Y140336D02*
X54596Y146434D01*
X55922Y139010D02*
X55922Y133747D01*
X55922Y139010D02*
X54596Y140336D01*
X110389Y36221D02*
X110353Y36185D01*
X84957Y49959D02*
X84952Y49954D01*
X84952Y43425D01*
D28*
X84952Y43425D03*
D27*
X103114Y43425D01*
X110353Y36185D01*
X119880Y36185D01*
X119905Y36160D01*
D29*
X65844Y30004D02*
X65599Y30250D01*
X65844Y30004D02*
X64607Y31242D01*
D30*
X75000Y49915D02*
X74957Y49959D01*
X75000Y49915D02*
X75000Y45000D01*
D29*
X75000Y38823D01*
X66181Y30004D01*
X65844Y30004D01*
D31*
X105426Y111480D02*
X105426Y112478D01*
X105426Y112786D02*
X105426Y111480D01*
X104821Y112085D02*
X104821Y121176D01*
X104821Y112085D02*
X104821Y111300D01*
X105426Y111480D02*
X104821Y112085D01*
X99136Y116566D02*
X99005Y116698D01*
X99136Y116566D02*
X104821Y116566D01*
X104821Y121176D01*
D32*
X99005Y116698D03*
D30*
X96457Y96459D02*
X104362Y96459D01*
X104448Y96544D01*
D32*
X104448Y96544D03*
D30*
X104662Y111459D02*
X96457Y111459D01*
X104662Y111459D02*
X104821Y111300D01*
D33*
X65844Y11304D02*
X45840Y11337D01*
X74312Y19772D02*
X75378Y20895D01*
X74312Y19772D02*
X65844Y11304D01*
D32*
X75378Y20895D03*
D31*
X127624Y70598D02*
X127624Y71294D01*
D30*
X28457Y66459D02*
X18715Y66459D01*
X15395Y69779D01*
D31*
X85764Y30097D02*
X89675Y30097D01*
X18541Y117125D02*
X17590Y118076D01*
D30*
X109474Y91459D02*
X118448Y82485D01*
X109474Y91459D02*
X96457Y91459D01*
X15395Y74228D02*
X15395Y69779D01*
X15395Y74228D02*
X17651Y76485D01*
D32*
X17651Y76485D03*
D31*
X17590Y118076D02*
X24128Y118076D01*
X24129Y118075D01*
D32*
X24129Y118075D03*
D30*
X23290Y111442D02*
X28457Y111459D01*
X23290Y111442D02*
X17590Y118076D01*
X118448Y79775D02*
X127624Y70598D01*
X118448Y79775D02*
X118448Y82485D01*
D31*
X127624Y70598D02*
X122677Y65650D01*
X122199Y65650D01*
D32*
X122199Y65650D03*
X26498Y39845D03*
D31*
X85764Y30097D02*
X86124Y30457D01*
D29*
X85764Y30097D02*
X86764Y30097D01*
X88085Y30097D02*
X94161Y36173D01*
X88085Y30097D02*
X85764Y30097D01*
X94613Y36173D02*
X100759Y36173D01*
X94613Y36173D02*
X94161Y36173D01*
D30*
X79957Y49959D02*
X79942Y49944D01*
D29*
X84537Y30097D02*
X85764Y30097D01*
X94613Y36173D02*
X93612Y38410D01*
D32*
X93612Y38410D03*
D29*
X83396Y32465D02*
X79820Y35500D01*
X83396Y32465D02*
X85764Y30097D01*
D30*
X79916Y49918D02*
X79957Y49959D01*
X79916Y49918D02*
X79820Y35500D01*
D29*
X28881Y37463D02*
X26498Y39845D01*
X28881Y37463D02*
X28881Y30529D01*
D28*
X143500Y177981D03*
X137150Y177981D03*
X130800Y177981D03*
X124450Y177981D03*
X118100Y177981D03*
X102860Y177981D03*
X95240Y177981D03*
X87620Y177981D03*
X80000Y177981D03*
X72380Y177981D03*
X102917Y150329D03*
X96510Y150329D03*
X90491Y150159D03*
X87581Y155977D03*
X87327Y162733D03*
X102860Y156391D03*
X96510Y156391D03*
X92700Y162821D03*
X134610Y139881D03*
X128260Y139881D03*
X142230Y139881D03*
X134610Y167821D03*
X128260Y167821D03*
X140960Y167821D03*
X85080Y71301D03*
X85080Y84001D03*
X85080Y96701D03*
X74920Y96701D03*
X74920Y106861D03*
X62220Y106861D03*
X49520Y106861D03*
X39360Y96701D03*
X39360Y84001D03*
X39360Y71301D03*
X49520Y71301D03*
X49520Y84001D03*
X49520Y96701D03*
X49520Y61141D03*
X62220Y61141D03*
X74920Y61141D03*
X62220Y71301D03*
X62220Y84001D03*
X62220Y96701D03*
X74920Y84001D03*
X74920Y71301D03*
X62700Y132382D03*
X62700Y138907D03*
X62742Y145944D03*
X62901Y153840D03*
X72374Y167414D03*
X79210Y125449D03*
X71320Y125449D03*
X62633Y125411D03*
D30*
X113953Y111553D02*
X114026Y111480D01*
X113421Y121176D02*
X113421Y121565D01*
D28*
X108148Y127463D03*
D27*
X125544Y92828D02*
X125544Y91912D01*
D28*
X118408Y127463D03*
X143877Y127529D03*
X117350Y92450D03*
D30*
X16376Y43413D02*
X15461Y43413D01*
D32*
X22678Y45326D03*
D28*
X143877Y118529D03*
X126877Y127529D03*
X134877Y127529D03*
D27*
X62457Y83959D02*
X49562Y83959D01*
X49520Y84001D01*
D28*
X132782Y64559D03*
D27*
X30798Y153985D02*
X30798Y158442D01*
X32081Y159725D01*
D28*
X32081Y159725D03*
D27*
X18516Y146417D02*
X18448Y146485D01*
D28*
X98842Y127568D03*
D31*
X20765Y43413D02*
X15461Y43413D01*
X20765Y43413D02*
X22678Y45326D01*
D28*
X117542Y71487D03*
X72370Y172814D03*
X63008Y160836D03*
X17425Y130856D03*
D34*
X18448Y131879D02*
X18448Y146485D01*
X18448Y131879D02*
X17425Y130856D01*
D28*
X65380Y177981D03*
X58380Y177981D03*
X51380Y177981D03*
X45243Y177981D03*
X39128Y177981D03*
X6128Y175981D03*
X65370Y172814D03*
X58370Y172814D03*
X51370Y172814D03*
X45370Y172814D03*
X65374Y167414D03*
X58374Y167414D03*
X51374Y167414D03*
X45374Y167414D03*
X45374Y161414D03*
X51374Y161414D03*
X38374Y161414D03*
X116877Y8529D03*
X143877Y3029D03*
X5377Y3029D03*
X18966Y160478D03*
D30*
X119905Y27560D02*
X119895Y27551D01*
D27*
X19333Y166919D02*
X14665Y166919D01*
X19333Y166919D02*
X23000Y166919D01*
X23787Y166919D02*
X23850Y166856D01*
D35*
X23787Y166919D02*
X23990Y167122D01*
X23000Y166919D02*
X14665Y166919D01*
X23000Y166919D02*
X23787Y166919D01*
X19333Y166919D02*
X19333Y160845D01*
X18966Y160478D01*
X14665Y175860D02*
X14645Y175880D01*
X14665Y175860D02*
X14665Y166919D01*
X23990Y167908D02*
X23990Y175906D01*
X23990Y167908D02*
X23000Y166919D01*
D27*
X119905Y27560D02*
X120173Y27560D01*
X125000Y22734D01*
D28*
X125000Y22734D03*
D33*
X30807Y18149D02*
X20885Y18077D01*
D32*
X9398Y15497D03*
D33*
X12077Y18077D02*
X20885Y18077D01*
X12077Y18077D02*
X11978Y18077D01*
X9398Y15497D01*
X12077Y18077D02*
X12077Y30125D01*
X12481Y30529D01*
D36*
X672Y97218D02*
X247Y97218D01*
X672Y97218D02*
X8866Y101695D01*
D32*
X8866Y101695D03*
X8707Y93716D03*
D36*
X8866Y93719D02*
X8866Y101695D01*
X8866Y93719D02*
X8707Y93716D01*
X2098Y96679D02*
X428Y97037D01*
X247Y97218D01*
X2098Y96679D02*
X8707Y93716D01*
D30*
X6098Y130902D02*
X6098Y138985D01*
X6098Y130902D02*
X10000Y127000D01*
D28*
X10000Y127000D03*
D27*
X32816Y49959D02*
X34957Y49959D01*
X32816Y49959D02*
X31315Y48458D01*
X31315Y44082D01*
D28*
X31315Y44082D03*
D27*
X28493Y56422D02*
X28457Y56459D01*
X28457Y52457D01*
X27000Y51000D01*
D28*
X27000Y51000D03*
D31*
X89986Y133873D02*
X90056Y133943D01*
D29*
X100292Y133943D01*
D31*
X89986Y133873D02*
X90007Y121000D01*
X90012Y118014D01*
X89957Y117959D02*
X90007Y121000D01*
X79725Y133839D02*
X78481Y133839D01*
X79342Y134222D02*
X79725Y133839D01*
X69624Y133793D02*
X69497Y133920D01*
X79725Y133839D02*
X79773Y133791D01*
D29*
X79725Y133839D02*
X69497Y133920D01*
D31*
X84963Y123073D02*
X84957Y117959D01*
X85009Y128555D02*
X79725Y133839D01*
X85009Y128555D02*
X84963Y123073D01*
D29*
X79725Y142479D02*
X79875Y152251D01*
X90056Y142583D01*
D31*
X100292Y142583D02*
X100419Y142710D01*
D29*
X100292Y142583D02*
X110703Y142683D01*
D31*
X79875Y160891D02*
X79849Y160865D01*
D29*
X79875Y160891D02*
X79918Y170695D01*
X80459Y171236D01*
X79849Y160865D02*
X69524Y160902D01*
X89099Y171236D02*
X99611Y171173D01*
D30*
X80573Y216281D02*
X80000Y216281D01*
D15*
X110637Y184101D02*
X110644Y184095D01*
X110644Y171520D02*
X110454Y171330D01*
X110644Y171520D02*
X110644Y184095D01*
D31*
X110641Y171523D02*
X110644Y171520D01*
X110641Y171523D02*
X110641Y205688D01*
X110641Y227289D01*
X105562Y227289D01*
X100573Y227289D01*
X100573Y216281D01*
X100573Y205261D01*
X95634Y205261D01*
X90573Y205261D01*
X90573Y216281D01*
X90573Y227333D01*
X85534Y227333D01*
X80573Y227333D01*
X80573Y216281D01*
X80573Y205233D01*
X75534Y205233D01*
X70573Y205233D01*
X70573Y216281D01*
X70573Y227333D01*
X65634Y227333D01*
X60573Y227333D01*
X60573Y216281D01*
X60573Y205233D01*
X55534Y205233D01*
X50573Y205233D01*
X50573Y216281D01*
X50573Y227333D01*
X45534Y227333D01*
X40573Y227333D01*
X40573Y216281D01*
X40573Y205233D01*
X35534Y205233D01*
X30573Y205233D01*
X30573Y216281D01*
X30573Y227333D01*
X25534Y227333D01*
D29*
X99611Y162533D02*
X99739Y162660D01*
X99611Y162533D02*
X106445Y162633D01*
X110393Y162691D01*
D27*
X110384Y162633D02*
X110477Y162540D01*
X110384Y162633D02*
X106445Y162633D01*
D29*
X110488Y153912D02*
X110477Y153900D01*
X110488Y153912D02*
X120261Y153818D01*
D30*
X28457Y61459D02*
X22897Y61501D01*
X21200Y59804D01*
X21200Y57851D01*
X15461Y52111D02*
X15461Y52013D01*
X15461Y52111D02*
X21200Y57851D01*
D27*
X21842Y91459D02*
X28457Y91459D01*
X21842Y91459D02*
X21816Y91485D01*
D28*
X21816Y91485D03*
D27*
X25044Y76459D02*
X28457Y76459D01*
X25044Y76459D02*
X20282Y81221D01*
X12024Y81221D01*
X7615Y76812D01*
X7615Y53786D01*
X247Y46418D01*
X22368Y71459D02*
X28457Y71459D01*
X22368Y71459D02*
X21839Y71987D01*
D28*
X21839Y71987D03*
D27*
X25268Y81459D02*
X28457Y81459D01*
X25268Y81459D02*
X22393Y84334D01*
X11185Y84334D02*
X247Y73395D01*
X11185Y84334D02*
X22393Y84334D01*
X247Y73395D02*
X247Y71818D01*
X24219Y86459D02*
X28457Y86459D01*
X24219Y86459D02*
X23550Y87128D01*
X2856Y87128D01*
X247Y84518D01*
X39957Y49959D02*
X39957Y45395D01*
X35802Y41240D01*
X35802Y39638D01*
D28*
X35802Y39638D03*
D27*
X44890Y49891D02*
X44957Y49959D01*
X44890Y49891D02*
X44890Y45770D01*
X41752Y42633D01*
X41752Y40560D01*
D28*
X41752Y40560D03*
D27*
X49957Y44713D02*
X49957Y49959D01*
X49957Y44713D02*
X47432Y42189D01*
D28*
X47432Y42189D03*
X52605Y39189D03*
D27*
X54957Y46050D02*
X54957Y49959D01*
X54957Y46050D02*
X52599Y43692D01*
X52599Y39195D01*
X52605Y39189D01*
X30798Y127835D02*
X30798Y138985D01*
X30798Y127835D02*
X30448Y127485D01*
D28*
X30448Y127485D03*
D27*
X38041Y171671D02*
X32857Y175639D01*
X32590Y175906D01*
D28*
X38041Y171671D03*
D27*
X59957Y49959D02*
X59957Y44957D01*
X58000Y43000D01*
D28*
X58000Y43000D03*
X62641Y39094D03*
D27*
X64957Y45952D02*
X64957Y49959D01*
X64957Y45952D02*
X62737Y43733D01*
X62737Y39190D01*
X62641Y39094D01*
X69957Y41994D02*
X69957Y49959D01*
X69957Y41994D02*
X68448Y40485D01*
D28*
X68448Y40485D03*
D27*
X104000Y49000D02*
X107000Y46000D01*
X90915Y49000D02*
X89957Y49959D01*
X90915Y49000D02*
X104000Y49000D01*
D28*
X107000Y46000D03*
X111448Y82485D03*
D27*
X107474Y86459D02*
X96457Y86459D01*
X107474Y86459D02*
X111448Y82485D01*
X149067Y84765D02*
X149067Y84765D01*
X136113Y60119D02*
X121295Y60119D01*
X99956Y81459D01*
X96457Y81459D01*
X138654Y64782D02*
X138654Y62660D01*
X138654Y64782D02*
X141489Y67618D01*
X141489Y77186D02*
X145837Y81534D01*
X145718Y81652D01*
X138654Y62660D02*
X136113Y60119D01*
X141489Y67618D02*
X141489Y77186D01*
X145837Y81534D02*
X149067Y84765D01*
X149067Y72065D02*
X149067Y71153D01*
X141448Y63534D01*
X141448Y61185D02*
X137527Y57265D01*
X119571Y57265D01*
X100377Y76459D01*
X96457Y76459D01*
X141448Y63534D02*
X141448Y61185D01*
X146547Y59365D02*
X149067Y59365D01*
X146547Y59365D02*
X141604Y54421D01*
X118171Y54421D01*
X101134Y71459D02*
X96457Y71459D01*
X101134Y71459D02*
X118171Y54421D01*
X116952Y51532D02*
X144200Y51532D01*
X116952Y51532D02*
X102025Y66459D01*
X96457Y66459D01*
X144200Y51532D02*
X149067Y46665D01*
X149067Y33965D02*
X148968Y33965D01*
X102898Y61459D02*
X96457Y61459D01*
X102898Y61459D02*
X115659Y48698D01*
X136698Y48698D01*
X136738Y48738D01*
X139217Y48738D02*
X141955Y46000D01*
X141955Y43719D01*
X145837Y39837D01*
X139217Y48738D02*
X136738Y48738D01*
X145837Y37195D02*
X149067Y33965D01*
X145837Y37195D02*
X145837Y39837D01*
X103419Y56459D02*
X96457Y56459D01*
X103419Y56459D02*
X114162Y45715D01*
X141955Y28377D02*
X149067Y21265D01*
X139161Y44000D02*
X137446Y45715D01*
X139161Y44000D02*
X139161Y42561D01*
X141955Y39767D01*
X141955Y28377D01*
X137446Y45715D02*
X114162Y45715D01*
X28457Y106459D02*
X18383Y106459D01*
X18311Y106530D01*
D28*
X18311Y106530D03*
D27*
X29798Y142985D02*
X30798Y143985D01*
D28*
X26023Y131881D03*
D27*
X25948Y143985D02*
X30798Y143985D01*
X25948Y143985D02*
X24542Y142579D01*
X24542Y133362D01*
X26023Y131881D01*
X28457Y101459D02*
X21474Y101459D01*
X21448Y101485D01*
D28*
X21448Y101485D03*
D27*
X6098Y153985D02*
X6098Y158444D01*
X5121Y159421D01*
D28*
X5121Y159421D03*
D27*
X18474Y96459D02*
X28457Y96459D01*
X18474Y96459D02*
X18448Y96485D01*
D28*
X18448Y96485D03*
D27*
X13352Y148074D02*
X12441Y148985D01*
X6098Y148985D01*
D28*
X13352Y148074D03*
D27*
X26693Y148985D02*
X30798Y148985D01*
X26693Y148985D02*
X25053Y150625D01*
X25053Y159114D01*
X32450Y166511D02*
X32450Y166856D01*
X32450Y166511D02*
X25053Y159114D01*
X6065Y166919D02*
X6065Y168102D01*
D28*
X11160Y159960D03*
D27*
X6523Y166461D01*
X6065Y166919D01*
X6098Y143985D02*
X11015Y143985D01*
X13000Y142000D01*
X13000Y141000D01*
D28*
X13000Y141000D03*
D27*
X96457Y101459D02*
X115716Y101459D01*
X130198Y100047D02*
X137044Y93201D01*
X137044Y92828D01*
X130198Y100047D02*
X117127Y100047D01*
X115716Y101459D01*
X136508Y92292D02*
X136508Y80806D01*
X136508Y92292D02*
X137044Y92828D01*
X125676Y119980D02*
X126167Y120472D01*
X125544Y107328D02*
X124520Y106304D01*
X96611Y106304D02*
X96457Y106459D01*
X102196Y106459D01*
X104402Y104253D01*
X118153Y107328D02*
X125544Y107328D01*
X115077Y104253D02*
X104402Y104253D01*
X115077Y104253D02*
X118153Y107328D01*
X125544Y107328D02*
X125544Y119848D01*
X126167Y120472D01*
X34957Y117959D02*
X34957Y123772D01*
X35931Y124746D01*
D28*
X35931Y124746D03*
D27*
X105056Y16056D02*
X111948Y16056D01*
X105056Y16056D02*
X101000Y12000D01*
D28*
X101000Y12000D03*
D27*
X120548Y16056D02*
X120609Y16117D01*
X132916Y16117D01*
M02*
