G04 EAGLE Gerber RS-274X export*
G75*
%MOMM*%
%FSLAX34Y34*%
%LPD*%
%INBottom Copper*%
%IPPOS*%
%AMOC8*
5,1,8,0,0,1.08239X$1,22.5*%
G01*
%ADD10C,1.016000*%
%ADD11C,0.152400*%
%ADD12C,0.450000*%
%ADD13C,0.503200*%

G36*
X83178Y42066D02*
X83178Y42066D01*
X83230Y42067D01*
X83298Y42092D01*
X83368Y42107D01*
X83412Y42134D01*
X83461Y42151D01*
X83517Y42196D01*
X83579Y42233D01*
X83613Y42273D01*
X83653Y42305D01*
X83692Y42365D01*
X83739Y42420D01*
X83758Y42468D01*
X83786Y42512D01*
X83804Y42581D01*
X83831Y42648D01*
X83839Y42719D01*
X83846Y42751D01*
X83845Y42774D01*
X83849Y42815D01*
X83849Y44745D01*
X85912Y46807D01*
X88828Y46807D01*
X90093Y45542D01*
X90167Y45489D01*
X90237Y45430D01*
X90267Y45417D01*
X90293Y45399D01*
X90380Y45372D01*
X90465Y45338D01*
X90506Y45333D01*
X90528Y45326D01*
X90560Y45327D01*
X90632Y45319D01*
X93129Y45319D01*
X93219Y45334D01*
X93310Y45341D01*
X93340Y45354D01*
X93372Y45359D01*
X93452Y45402D01*
X93536Y45437D01*
X93568Y45463D01*
X93589Y45474D01*
X93611Y45497D01*
X93667Y45542D01*
X101744Y53619D01*
X101797Y53693D01*
X101857Y53762D01*
X101869Y53793D01*
X101888Y53819D01*
X101915Y53906D01*
X101949Y53991D01*
X101953Y54032D01*
X101960Y54054D01*
X101959Y54086D01*
X101967Y54157D01*
X101967Y84537D01*
X106230Y88799D01*
X132323Y88799D01*
X132414Y88814D01*
X132504Y88821D01*
X132534Y88834D01*
X132566Y88839D01*
X132647Y88882D01*
X132731Y88918D01*
X132763Y88943D01*
X132784Y88954D01*
X132806Y88978D01*
X132862Y89022D01*
X139192Y95353D01*
X139245Y95427D01*
X139304Y95496D01*
X139317Y95526D01*
X139335Y95552D01*
X139362Y95639D01*
X139396Y95724D01*
X139401Y95765D01*
X139408Y95787D01*
X139407Y95820D01*
X139415Y95891D01*
X139415Y102327D01*
X143315Y106227D01*
X143383Y106322D01*
X143453Y106416D01*
X143455Y106422D01*
X143459Y106427D01*
X143493Y106538D01*
X143529Y106650D01*
X143529Y106656D01*
X143531Y106662D01*
X143528Y106779D01*
X143527Y106896D01*
X143525Y106903D01*
X143525Y106908D01*
X143519Y106925D01*
X143480Y107057D01*
X142716Y108901D01*
X142716Y111428D01*
X143683Y113762D01*
X145470Y115548D01*
X146128Y115821D01*
X146227Y115883D01*
X146327Y115943D01*
X146332Y115947D01*
X146337Y115951D01*
X146411Y116041D01*
X146487Y116129D01*
X146490Y116135D01*
X146494Y116140D01*
X146535Y116249D01*
X146579Y116358D01*
X146580Y116365D01*
X146582Y116370D01*
X146583Y116388D01*
X146598Y116524D01*
X146598Y180033D01*
X146595Y180053D01*
X146597Y180073D01*
X146575Y180174D01*
X146558Y180276D01*
X146549Y180294D01*
X146545Y180313D01*
X146491Y180402D01*
X146443Y180493D01*
X146429Y180507D01*
X146418Y180524D01*
X146340Y180592D01*
X146265Y180663D01*
X146247Y180671D01*
X146231Y180684D01*
X146135Y180723D01*
X146042Y180766D01*
X146022Y180769D01*
X146003Y180776D01*
X145837Y180795D01*
X3335Y180795D01*
X3315Y180791D01*
X3295Y180794D01*
X3194Y180772D01*
X3092Y180755D01*
X3074Y180746D01*
X3055Y180741D01*
X2966Y180688D01*
X2874Y180640D01*
X2861Y180625D01*
X2844Y180615D01*
X2776Y180536D01*
X2705Y180461D01*
X2697Y180443D01*
X2684Y180428D01*
X2645Y180332D01*
X2601Y180238D01*
X2599Y180219D01*
X2592Y180200D01*
X2573Y180033D01*
X2573Y150952D01*
X2585Y150881D01*
X2587Y150810D01*
X2605Y150761D01*
X2613Y150709D01*
X2647Y150646D01*
X2671Y150579D01*
X2704Y150538D01*
X2728Y150492D01*
X2780Y150443D01*
X2825Y150387D01*
X2869Y150359D01*
X2906Y150323D01*
X2971Y150292D01*
X3032Y150254D01*
X3082Y150241D01*
X3130Y150219D01*
X3201Y150211D01*
X3270Y150194D01*
X3322Y150198D01*
X3374Y150192D01*
X3444Y150207D01*
X3516Y150213D01*
X3563Y150233D01*
X3614Y150244D01*
X3676Y150281D01*
X3742Y150309D01*
X3798Y150354D01*
X3825Y150370D01*
X3841Y150388D01*
X3873Y150414D01*
X5644Y152185D01*
X7058Y153599D01*
X11037Y153599D01*
X11127Y153614D01*
X11218Y153621D01*
X11248Y153633D01*
X11280Y153639D01*
X11360Y153681D01*
X11444Y153717D01*
X11476Y153743D01*
X11497Y153754D01*
X11519Y153777D01*
X11575Y153822D01*
X12806Y155052D01*
X14718Y155052D01*
X14738Y155056D01*
X14757Y155053D01*
X14859Y155075D01*
X14961Y155092D01*
X14978Y155101D01*
X14998Y155106D01*
X15087Y155159D01*
X15178Y155207D01*
X15192Y155222D01*
X15209Y155232D01*
X15276Y155311D01*
X15348Y155386D01*
X15356Y155404D01*
X15369Y155419D01*
X15408Y155515D01*
X15451Y155609D01*
X15453Y155628D01*
X15461Y155647D01*
X15479Y155814D01*
X15479Y157458D01*
X17542Y159521D01*
X20458Y159521D01*
X22521Y157458D01*
X22521Y154542D01*
X20458Y152479D01*
X18546Y152479D01*
X18526Y152476D01*
X18507Y152478D01*
X18405Y152456D01*
X18303Y152440D01*
X18286Y152430D01*
X18266Y152426D01*
X18177Y152373D01*
X18086Y152324D01*
X18072Y152310D01*
X18055Y152300D01*
X17988Y152221D01*
X17917Y152146D01*
X17908Y152128D01*
X17895Y152113D01*
X17856Y152017D01*
X17813Y151923D01*
X17811Y151903D01*
X17803Y151885D01*
X17785Y151718D01*
X17785Y150073D01*
X16815Y149104D01*
X16804Y149088D01*
X16788Y149075D01*
X16732Y148988D01*
X16672Y148904D01*
X16666Y148885D01*
X16655Y148869D01*
X16630Y148768D01*
X16600Y148669D01*
X16600Y148649D01*
X16595Y148630D01*
X16603Y148527D01*
X16606Y148423D01*
X16613Y148405D01*
X16614Y148385D01*
X16655Y148290D01*
X16690Y148192D01*
X16703Y148177D01*
X16711Y148158D01*
X16815Y148027D01*
X17720Y147123D01*
X17720Y145334D01*
X17735Y145244D01*
X17742Y145153D01*
X17755Y145123D01*
X17760Y145091D01*
X17803Y145010D01*
X17838Y144927D01*
X17864Y144894D01*
X17875Y144874D01*
X17898Y144852D01*
X17943Y144796D01*
X21533Y141206D01*
X21533Y136944D01*
X21547Y136854D01*
X21555Y136763D01*
X21567Y136733D01*
X21572Y136701D01*
X21615Y136621D01*
X21651Y136537D01*
X21677Y136505D01*
X21688Y136484D01*
X21711Y136462D01*
X21756Y136406D01*
X26680Y131482D01*
X26738Y131440D01*
X26790Y131391D01*
X26837Y131369D01*
X26879Y131338D01*
X26948Y131317D01*
X27013Y131287D01*
X27065Y131281D01*
X27115Y131266D01*
X27186Y131268D01*
X27257Y131260D01*
X27308Y131271D01*
X27360Y131272D01*
X27428Y131297D01*
X27498Y131312D01*
X27543Y131339D01*
X27591Y131357D01*
X27647Y131402D01*
X27709Y131438D01*
X27743Y131478D01*
X27783Y131510D01*
X27822Y131571D01*
X27869Y131625D01*
X27888Y131673D01*
X27916Y131717D01*
X27934Y131787D01*
X27961Y131853D01*
X27969Y131925D01*
X27976Y131956D01*
X29244Y133223D01*
X29297Y133297D01*
X29357Y133367D01*
X29369Y133397D01*
X29388Y133423D01*
X29415Y133510D01*
X29449Y133595D01*
X29453Y133636D01*
X29460Y133658D01*
X29459Y133690D01*
X29467Y133762D01*
X29467Y164842D01*
X33658Y169033D01*
X34238Y169033D01*
X34328Y169047D01*
X34419Y169055D01*
X34449Y169067D01*
X34481Y169072D01*
X34562Y169115D01*
X34646Y169151D01*
X34678Y169177D01*
X34698Y169188D01*
X34721Y169211D01*
X34777Y169256D01*
X36042Y170521D01*
X38958Y170521D01*
X41021Y168458D01*
X41021Y165542D01*
X38958Y163479D01*
X36042Y163479D01*
X35486Y164035D01*
X35470Y164046D01*
X35457Y164062D01*
X35370Y164118D01*
X35286Y164178D01*
X35267Y164184D01*
X35251Y164195D01*
X35150Y164220D01*
X35051Y164251D01*
X35031Y164250D01*
X35012Y164255D01*
X34909Y164247D01*
X34805Y164244D01*
X34787Y164238D01*
X34767Y164236D01*
X34672Y164196D01*
X34574Y164160D01*
X34559Y164147D01*
X34540Y164140D01*
X34410Y164035D01*
X33756Y163381D01*
X33702Y163307D01*
X33643Y163238D01*
X33631Y163207D01*
X33612Y163181D01*
X33585Y163094D01*
X33551Y163009D01*
X33547Y162968D01*
X33540Y162946D01*
X33541Y162914D01*
X33533Y162843D01*
X33533Y133762D01*
X33547Y133672D01*
X33555Y133581D01*
X33567Y133551D01*
X33572Y133519D01*
X33615Y133438D01*
X33651Y133354D01*
X33677Y133322D01*
X33688Y133302D01*
X33711Y133279D01*
X33756Y133223D01*
X35021Y131958D01*
X35021Y128925D01*
X35024Y128905D01*
X35022Y128885D01*
X35044Y128784D01*
X35060Y128682D01*
X35070Y128664D01*
X35074Y128645D01*
X35127Y128556D01*
X35176Y128465D01*
X35190Y128451D01*
X35200Y128434D01*
X35279Y128366D01*
X35354Y128295D01*
X35372Y128287D01*
X35387Y128274D01*
X35483Y128235D01*
X35577Y128192D01*
X35597Y128189D01*
X35615Y128182D01*
X35782Y128163D01*
X38033Y128163D01*
X40095Y126101D01*
X40095Y123184D01*
X38033Y121122D01*
X37677Y121122D01*
X37657Y121119D01*
X37638Y121121D01*
X37536Y121099D01*
X37434Y121082D01*
X37417Y121073D01*
X37397Y121069D01*
X37308Y121015D01*
X37217Y120967D01*
X37203Y120953D01*
X37186Y120942D01*
X37119Y120864D01*
X37048Y120789D01*
X37039Y120771D01*
X37026Y120756D01*
X36987Y120659D01*
X36944Y120566D01*
X36942Y120546D01*
X36934Y120527D01*
X36916Y120361D01*
X36916Y55539D01*
X36931Y55449D01*
X36938Y55358D01*
X36950Y55328D01*
X36956Y55296D01*
X36998Y55216D01*
X37034Y55132D01*
X37060Y55100D01*
X37071Y55079D01*
X37094Y55057D01*
X37139Y55001D01*
X40619Y51521D01*
X40693Y51468D01*
X40762Y51408D01*
X40793Y51396D01*
X40819Y51377D01*
X40906Y51350D01*
X40991Y51316D01*
X41032Y51312D01*
X41054Y51305D01*
X41086Y51306D01*
X41157Y51298D01*
X58633Y51298D01*
X60675Y49256D01*
X60749Y49203D01*
X60818Y49143D01*
X60848Y49131D01*
X60874Y49112D01*
X60961Y49085D01*
X61046Y49051D01*
X61087Y49047D01*
X61110Y49040D01*
X61142Y49041D01*
X61213Y49033D01*
X75793Y49033D01*
X82550Y42276D01*
X82608Y42235D01*
X82660Y42185D01*
X82707Y42163D01*
X82749Y42133D01*
X82818Y42112D01*
X82883Y42082D01*
X82935Y42076D01*
X82984Y42061D01*
X83056Y42062D01*
X83127Y42055D01*
X83178Y42066D01*
G37*
G36*
X145856Y637D02*
X145856Y637D01*
X145876Y635D01*
X145977Y657D01*
X146079Y674D01*
X146097Y683D01*
X146116Y687D01*
X146205Y741D01*
X146297Y789D01*
X146310Y803D01*
X146327Y814D01*
X146395Y892D01*
X146466Y967D01*
X146474Y985D01*
X146487Y1001D01*
X146526Y1097D01*
X146570Y1190D01*
X146572Y1210D01*
X146579Y1229D01*
X146598Y1395D01*
X146598Y14905D01*
X146579Y15019D01*
X146562Y15136D01*
X146559Y15141D01*
X146558Y15147D01*
X146504Y15250D01*
X146450Y15355D01*
X146446Y15359D01*
X146443Y15365D01*
X146359Y15445D01*
X146275Y15527D01*
X146268Y15531D01*
X146265Y15534D01*
X146248Y15542D01*
X146128Y15608D01*
X145470Y15881D01*
X143683Y17667D01*
X142716Y20001D01*
X142716Y22528D01*
X143683Y24862D01*
X145470Y26648D01*
X146104Y26911D01*
X146165Y26949D01*
X146231Y26978D01*
X146269Y27013D01*
X146313Y27041D01*
X146359Y27096D01*
X146412Y27145D01*
X146437Y27190D01*
X146470Y27230D01*
X146496Y27297D01*
X146530Y27360D01*
X146540Y27411D01*
X146558Y27460D01*
X146561Y27532D01*
X146574Y27602D01*
X146566Y27654D01*
X146569Y27706D01*
X146549Y27775D01*
X146538Y27846D01*
X146515Y27892D01*
X146500Y27942D01*
X146459Y28001D01*
X146427Y28065D01*
X146390Y28101D01*
X146360Y28144D01*
X146302Y28187D01*
X146251Y28237D01*
X146188Y28271D01*
X146162Y28291D01*
X146140Y28298D01*
X146104Y28318D01*
X145470Y28581D01*
X143683Y30367D01*
X142716Y32701D01*
X142716Y35228D01*
X143683Y37562D01*
X145470Y39348D01*
X146104Y39611D01*
X146165Y39649D01*
X146231Y39678D01*
X146269Y39713D01*
X146313Y39741D01*
X146359Y39796D01*
X146412Y39845D01*
X146437Y39890D01*
X146470Y39930D01*
X146496Y39997D01*
X146530Y40060D01*
X146540Y40111D01*
X146558Y40160D01*
X146561Y40232D01*
X146574Y40302D01*
X146566Y40354D01*
X146569Y40406D01*
X146549Y40475D01*
X146538Y40546D01*
X146515Y40592D01*
X146500Y40642D01*
X146459Y40701D01*
X146427Y40765D01*
X146390Y40801D01*
X146360Y40844D01*
X146302Y40887D01*
X146251Y40937D01*
X146188Y40971D01*
X146162Y40991D01*
X146140Y40998D01*
X146104Y41018D01*
X145470Y41281D01*
X143683Y43067D01*
X142716Y45401D01*
X142716Y47928D01*
X143683Y50262D01*
X145470Y52048D01*
X146104Y52311D01*
X146165Y52349D01*
X146231Y52378D01*
X146269Y52413D01*
X146313Y52441D01*
X146359Y52496D01*
X146412Y52545D01*
X146437Y52590D01*
X146470Y52630D01*
X146496Y52697D01*
X146530Y52760D01*
X146540Y52811D01*
X146558Y52860D01*
X146561Y52932D01*
X146574Y53002D01*
X146566Y53054D01*
X146569Y53106D01*
X146549Y53175D01*
X146538Y53246D01*
X146515Y53292D01*
X146500Y53342D01*
X146459Y53401D01*
X146427Y53465D01*
X146390Y53501D01*
X146360Y53544D01*
X146302Y53587D01*
X146251Y53637D01*
X146188Y53671D01*
X146162Y53691D01*
X146140Y53698D01*
X146104Y53718D01*
X145470Y53981D01*
X143683Y55767D01*
X142716Y58101D01*
X142716Y60628D01*
X143683Y62962D01*
X145470Y64748D01*
X146104Y65011D01*
X146165Y65049D01*
X146231Y65078D01*
X146269Y65113D01*
X146313Y65141D01*
X146359Y65196D01*
X146412Y65245D01*
X146437Y65290D01*
X146470Y65330D01*
X146496Y65397D01*
X146530Y65460D01*
X146540Y65511D01*
X146558Y65560D01*
X146561Y65632D01*
X146574Y65702D01*
X146566Y65754D01*
X146569Y65806D01*
X146549Y65875D01*
X146538Y65946D01*
X146515Y65992D01*
X146500Y66042D01*
X146459Y66101D01*
X146427Y66165D01*
X146390Y66201D01*
X146360Y66244D01*
X146302Y66287D01*
X146251Y66337D01*
X146188Y66371D01*
X146162Y66391D01*
X146140Y66398D01*
X146104Y66418D01*
X145470Y66681D01*
X143683Y68467D01*
X142716Y70801D01*
X142716Y73328D01*
X143683Y75662D01*
X145470Y77448D01*
X146104Y77711D01*
X146165Y77749D01*
X146231Y77778D01*
X146269Y77813D01*
X146313Y77841D01*
X146359Y77896D01*
X146412Y77945D01*
X146437Y77990D01*
X146470Y78030D01*
X146496Y78097D01*
X146530Y78160D01*
X146540Y78211D01*
X146558Y78260D01*
X146561Y78331D01*
X146574Y78402D01*
X146566Y78454D01*
X146569Y78506D01*
X146549Y78575D01*
X146538Y78645D01*
X146515Y78692D01*
X146500Y78742D01*
X146459Y78801D01*
X146427Y78865D01*
X146389Y78901D01*
X146360Y78944D01*
X146302Y78987D01*
X146251Y79037D01*
X146188Y79071D01*
X146163Y79091D01*
X146140Y79098D01*
X146104Y79118D01*
X145470Y79381D01*
X143683Y81167D01*
X142716Y83501D01*
X142716Y86028D01*
X143478Y87867D01*
X143500Y87962D01*
X143529Y88055D01*
X143528Y88081D01*
X143534Y88106D01*
X143525Y88203D01*
X143523Y88301D01*
X143514Y88325D01*
X143511Y88351D01*
X143472Y88440D01*
X143438Y88532D01*
X143422Y88552D01*
X143411Y88576D01*
X143345Y88648D01*
X143284Y88724D01*
X143262Y88738D01*
X143245Y88757D01*
X143159Y88804D01*
X143078Y88857D01*
X143052Y88863D01*
X143029Y88876D01*
X142933Y88893D01*
X142839Y88917D01*
X142813Y88915D01*
X142787Y88919D01*
X142691Y88905D01*
X142594Y88898D01*
X142570Y88887D01*
X142544Y88883D01*
X142457Y88839D01*
X142367Y88801D01*
X142342Y88781D01*
X142325Y88772D01*
X142301Y88748D01*
X142237Y88696D01*
X135130Y81590D01*
X113230Y81590D01*
X113210Y81587D01*
X113190Y81589D01*
X113089Y81567D01*
X112987Y81550D01*
X112969Y81541D01*
X112950Y81537D01*
X112861Y81484D01*
X112769Y81435D01*
X112756Y81421D01*
X112739Y81411D01*
X112671Y81332D01*
X112600Y81257D01*
X112592Y81239D01*
X112579Y81224D01*
X112540Y81128D01*
X112496Y81034D01*
X112494Y81014D01*
X112487Y80996D01*
X112468Y80829D01*
X112468Y80026D01*
X110406Y77964D01*
X107489Y77964D01*
X107332Y78121D01*
X107274Y78163D01*
X107222Y78212D01*
X107175Y78234D01*
X107133Y78265D01*
X107064Y78286D01*
X106999Y78316D01*
X106947Y78322D01*
X106897Y78337D01*
X106826Y78335D01*
X106755Y78343D01*
X106704Y78332D01*
X106652Y78331D01*
X106584Y78306D01*
X106514Y78291D01*
X106469Y78264D01*
X106421Y78246D01*
X106365Y78201D01*
X106303Y78164D01*
X106269Y78125D01*
X106229Y78092D01*
X106190Y78032D01*
X106143Y77978D01*
X106124Y77929D01*
X106096Y77885D01*
X106078Y77816D01*
X106051Y77749D01*
X106043Y77678D01*
X106035Y77647D01*
X106037Y77624D01*
X106033Y77583D01*
X106033Y52158D01*
X104695Y50820D01*
X104653Y50762D01*
X104604Y50710D01*
X104582Y50663D01*
X104551Y50621D01*
X104530Y50552D01*
X104500Y50487D01*
X104494Y50435D01*
X104479Y50385D01*
X104481Y50314D01*
X104473Y50243D01*
X104484Y50192D01*
X104485Y50140D01*
X104510Y50072D01*
X104525Y50002D01*
X104552Y49957D01*
X104570Y49909D01*
X104615Y49853D01*
X104651Y49791D01*
X104691Y49757D01*
X104724Y49717D01*
X104784Y49678D01*
X104838Y49631D01*
X104887Y49612D01*
X104931Y49584D01*
X105000Y49566D01*
X105067Y49539D01*
X105138Y49531D01*
X105169Y49523D01*
X105192Y49525D01*
X105233Y49521D01*
X108458Y49521D01*
X110521Y47458D01*
X110521Y44542D01*
X109256Y43277D01*
X109203Y43203D01*
X109143Y43133D01*
X109131Y43103D01*
X109112Y43077D01*
X109085Y42990D01*
X109051Y42905D01*
X109047Y42864D01*
X109040Y42842D01*
X109041Y42810D01*
X109033Y42738D01*
X109033Y10076D01*
X109047Y9986D01*
X109055Y9895D01*
X109067Y9866D01*
X109072Y9834D01*
X109115Y9753D01*
X109151Y9669D01*
X109177Y9637D01*
X109188Y9616D01*
X109211Y9594D01*
X109256Y9538D01*
X114682Y4112D01*
X114776Y4044D01*
X114871Y3974D01*
X114877Y3972D01*
X114882Y3968D01*
X114993Y3934D01*
X115104Y3898D01*
X115111Y3898D01*
X115117Y3896D01*
X115233Y3899D01*
X115350Y3900D01*
X115358Y3902D01*
X115363Y3902D01*
X115380Y3909D01*
X115511Y3947D01*
X117667Y4840D01*
X120193Y4840D01*
X122528Y3873D01*
X124314Y2086D01*
X124721Y1104D01*
X124783Y1004D01*
X124842Y905D01*
X124847Y900D01*
X124850Y895D01*
X124941Y820D01*
X125029Y745D01*
X125035Y742D01*
X125040Y738D01*
X125148Y697D01*
X125257Y653D01*
X125265Y652D01*
X125270Y650D01*
X125288Y649D01*
X125424Y634D01*
X145837Y634D01*
X145856Y637D01*
G37*
G36*
X23651Y653D02*
X23651Y653D01*
X23767Y670D01*
X23773Y673D01*
X23779Y674D01*
X23881Y728D01*
X23986Y782D01*
X23991Y786D01*
X23996Y789D01*
X24076Y873D01*
X24159Y957D01*
X24162Y964D01*
X24166Y967D01*
X24173Y984D01*
X24239Y1104D01*
X24646Y2086D01*
X26433Y3873D01*
X28767Y4840D01*
X31293Y4840D01*
X32686Y4263D01*
X32800Y4236D01*
X32913Y4207D01*
X32920Y4208D01*
X32926Y4206D01*
X33042Y4217D01*
X33159Y4227D01*
X33164Y4229D01*
X33171Y4230D01*
X33278Y4277D01*
X33385Y4323D01*
X33391Y4328D01*
X33395Y4330D01*
X33409Y4342D01*
X33516Y4428D01*
X36192Y7104D01*
X36245Y7178D01*
X36304Y7247D01*
X36317Y7277D01*
X36335Y7304D01*
X36362Y7391D01*
X36396Y7475D01*
X36401Y7516D01*
X36408Y7539D01*
X36407Y7571D01*
X36415Y7642D01*
X36415Y29327D01*
X36400Y29417D01*
X36393Y29508D01*
X36380Y29538D01*
X36375Y29570D01*
X36332Y29651D01*
X36297Y29735D01*
X36271Y29767D01*
X36260Y29788D01*
X36237Y29810D01*
X36192Y29866D01*
X29571Y36486D01*
X29555Y36498D01*
X29543Y36514D01*
X29455Y36570D01*
X29371Y36630D01*
X29352Y36636D01*
X29336Y36647D01*
X29235Y36672D01*
X29136Y36702D01*
X29116Y36702D01*
X29097Y36707D01*
X28994Y36699D01*
X28890Y36696D01*
X28872Y36689D01*
X28852Y36687D01*
X28757Y36647D01*
X28659Y36611D01*
X28644Y36599D01*
X28626Y36591D01*
X28495Y36486D01*
X28067Y36059D01*
X24930Y36059D01*
X22712Y38277D01*
X22712Y41414D01*
X24930Y43632D01*
X27033Y43632D01*
X27053Y43635D01*
X27072Y43633D01*
X27174Y43655D01*
X27276Y43672D01*
X27293Y43681D01*
X27313Y43685D01*
X27402Y43739D01*
X27493Y43787D01*
X27507Y43801D01*
X27524Y43812D01*
X27591Y43890D01*
X27662Y43965D01*
X27671Y43983D01*
X27684Y43998D01*
X27722Y44095D01*
X27766Y44188D01*
X27768Y44208D01*
X27776Y44227D01*
X27794Y44393D01*
X27794Y45540D01*
X28434Y46180D01*
X28475Y46238D01*
X28525Y46290D01*
X28547Y46337D01*
X28577Y46379D01*
X28598Y46448D01*
X28628Y46513D01*
X28634Y46565D01*
X28649Y46615D01*
X28648Y46686D01*
X28655Y46757D01*
X28644Y46808D01*
X28643Y46860D01*
X28618Y46928D01*
X28603Y46998D01*
X28577Y47043D01*
X28559Y47091D01*
X28514Y47147D01*
X28477Y47209D01*
X28437Y47243D01*
X28405Y47283D01*
X28345Y47322D01*
X28290Y47369D01*
X28242Y47388D01*
X28198Y47416D01*
X28129Y47434D01*
X28062Y47461D01*
X27991Y47469D01*
X27960Y47477D01*
X27936Y47475D01*
X27895Y47479D01*
X25542Y47479D01*
X24277Y48744D01*
X24203Y48797D01*
X24133Y48857D01*
X24103Y48869D01*
X24077Y48888D01*
X23990Y48915D01*
X23905Y48949D01*
X23864Y48953D01*
X23842Y48960D01*
X23810Y48959D01*
X23738Y48967D01*
X15399Y48967D01*
X15309Y48953D01*
X15218Y48945D01*
X15188Y48933D01*
X15156Y48928D01*
X15076Y48885D01*
X14992Y48849D01*
X14960Y48823D01*
X14939Y48812D01*
X14917Y48789D01*
X14861Y48744D01*
X12497Y46381D01*
X12444Y46307D01*
X12385Y46238D01*
X12373Y46207D01*
X12354Y46181D01*
X12327Y46094D01*
X12293Y46009D01*
X12288Y45968D01*
X12281Y45946D01*
X12282Y45914D01*
X12274Y45843D01*
X12274Y38919D01*
X9614Y36259D01*
X9561Y36186D01*
X9502Y36116D01*
X9490Y36086D01*
X9471Y36060D01*
X9444Y35973D01*
X9410Y35888D01*
X9405Y35847D01*
X9398Y35825D01*
X9399Y35792D01*
X9391Y35721D01*
X9391Y25517D01*
X6820Y22946D01*
X6767Y22872D01*
X6708Y22802D01*
X6696Y22772D01*
X6677Y22746D01*
X6650Y22659D01*
X6616Y22574D01*
X6611Y22533D01*
X6604Y22511D01*
X6605Y22479D01*
X6597Y22407D01*
X6597Y19890D01*
X6609Y19819D01*
X6611Y19747D01*
X6629Y19699D01*
X6637Y19647D01*
X6671Y19584D01*
X6695Y19516D01*
X6728Y19476D01*
X6752Y19430D01*
X6804Y19380D01*
X6849Y19324D01*
X6893Y19296D01*
X6931Y19260D01*
X6996Y19230D01*
X7056Y19191D01*
X7106Y19179D01*
X7154Y19157D01*
X7225Y19149D01*
X7294Y19131D01*
X7346Y19135D01*
X7398Y19130D01*
X7468Y19145D01*
X7540Y19150D01*
X7588Y19171D01*
X7638Y19182D01*
X7700Y19219D01*
X7766Y19247D01*
X7813Y19284D01*
X10967Y19284D01*
X13185Y17066D01*
X13185Y13929D01*
X10967Y11711D01*
X7829Y11711D01*
X5611Y13929D01*
X5611Y15563D01*
X5600Y15634D01*
X5598Y15706D01*
X5580Y15755D01*
X5571Y15806D01*
X5538Y15869D01*
X5513Y15937D01*
X5481Y15978D01*
X5456Y16024D01*
X5404Y16073D01*
X5360Y16129D01*
X5316Y16157D01*
X5278Y16193D01*
X5213Y16223D01*
X5153Y16262D01*
X5102Y16275D01*
X5055Y16297D01*
X4984Y16304D01*
X4914Y16322D01*
X4862Y16318D01*
X4811Y16324D01*
X4740Y16308D01*
X4669Y16303D01*
X4621Y16282D01*
X4570Y16271D01*
X4509Y16235D01*
X4443Y16207D01*
X4387Y16162D01*
X4359Y16145D01*
X4344Y16127D01*
X4312Y16102D01*
X3844Y15634D01*
X3043Y15302D01*
X2943Y15240D01*
X2844Y15181D01*
X2840Y15176D01*
X2834Y15173D01*
X2759Y15082D01*
X2684Y14994D01*
X2681Y14988D01*
X2677Y14983D01*
X2636Y14875D01*
X2592Y14766D01*
X2591Y14758D01*
X2589Y14754D01*
X2588Y14735D01*
X2573Y14599D01*
X2573Y1395D01*
X2576Y1376D01*
X2574Y1356D01*
X2596Y1255D01*
X2613Y1153D01*
X2622Y1135D01*
X2627Y1116D01*
X2680Y1027D01*
X2728Y935D01*
X2743Y922D01*
X2753Y905D01*
X2831Y837D01*
X2906Y766D01*
X2924Y758D01*
X2940Y745D01*
X3036Y706D01*
X3130Y662D01*
X3149Y660D01*
X3168Y653D01*
X3335Y634D01*
X23536Y634D01*
X23651Y653D01*
G37*
G36*
X4408Y102455D02*
X4408Y102455D01*
X4460Y102456D01*
X4528Y102481D01*
X4598Y102496D01*
X4643Y102523D01*
X4692Y102541D01*
X4748Y102585D01*
X4809Y102622D01*
X4843Y102662D01*
X4884Y102694D01*
X4922Y102755D01*
X4969Y102809D01*
X4989Y102857D01*
X5017Y102901D01*
X5034Y102971D01*
X5061Y103037D01*
X5069Y103109D01*
X5077Y103140D01*
X5075Y103163D01*
X5080Y103204D01*
X5080Y103263D01*
X7298Y105481D01*
X10435Y105481D01*
X10615Y105302D01*
X10673Y105260D01*
X10725Y105210D01*
X10772Y105188D01*
X10814Y105158D01*
X10883Y105137D01*
X10948Y105107D01*
X11000Y105101D01*
X11049Y105086D01*
X11121Y105087D01*
X11192Y105080D01*
X11243Y105091D01*
X11295Y105092D01*
X11363Y105117D01*
X11433Y105132D01*
X11477Y105159D01*
X11526Y105176D01*
X11582Y105221D01*
X11644Y105258D01*
X11678Y105298D01*
X11718Y105330D01*
X11757Y105390D01*
X11804Y105445D01*
X11823Y105493D01*
X11851Y105537D01*
X11869Y105606D01*
X11896Y105673D01*
X11904Y105744D01*
X11911Y105776D01*
X11910Y105799D01*
X11914Y105840D01*
X11914Y108772D01*
X11899Y108863D01*
X11892Y108953D01*
X11880Y108983D01*
X11874Y109015D01*
X11832Y109096D01*
X11796Y109180D01*
X11770Y109212D01*
X11759Y109233D01*
X11736Y109255D01*
X11691Y109311D01*
X3873Y117129D01*
X3815Y117171D01*
X3763Y117220D01*
X3715Y117242D01*
X3673Y117273D01*
X3605Y117294D01*
X3540Y117324D01*
X3488Y117330D01*
X3438Y117345D01*
X3366Y117343D01*
X3295Y117351D01*
X3244Y117340D01*
X3192Y117339D01*
X3125Y117314D01*
X3055Y117299D01*
X3010Y117272D01*
X2961Y117254D01*
X2905Y117209D01*
X2844Y117173D01*
X2810Y117133D01*
X2769Y117100D01*
X2730Y117040D01*
X2684Y116986D01*
X2664Y116937D01*
X2636Y116894D01*
X2619Y116824D01*
X2592Y116758D01*
X2584Y116686D01*
X2576Y116655D01*
X2578Y116632D01*
X2573Y116591D01*
X2573Y103637D01*
X2592Y103522D01*
X2609Y103406D01*
X2612Y103400D01*
X2613Y103394D01*
X2667Y103291D01*
X2721Y103187D01*
X2725Y103182D01*
X2728Y103177D01*
X2812Y103097D01*
X2896Y103014D01*
X2903Y103011D01*
X2906Y103007D01*
X2923Y103000D01*
X3043Y102934D01*
X3875Y102589D01*
X3890Y102575D01*
X3937Y102553D01*
X3980Y102522D01*
X4048Y102501D01*
X4113Y102471D01*
X4165Y102465D01*
X4215Y102450D01*
X4287Y102452D01*
X4358Y102444D01*
X4408Y102455D01*
G37*
%LPC*%
G36*
X97436Y112911D02*
X97436Y112911D01*
X95218Y115129D01*
X95218Y118266D01*
X97436Y120484D01*
X100573Y120484D01*
X102791Y118266D01*
X102791Y115129D01*
X100573Y112911D01*
X97436Y112911D01*
G37*
%LPD*%
%LPC*%
G36*
X102879Y92758D02*
X102879Y92758D01*
X100661Y94976D01*
X100661Y98113D01*
X102879Y100331D01*
X106016Y100331D01*
X108234Y98113D01*
X108234Y94976D01*
X106016Y92758D01*
X102879Y92758D01*
G37*
%LPD*%
%LPC*%
G36*
X120630Y61864D02*
X120630Y61864D01*
X118412Y64082D01*
X118412Y67219D01*
X120630Y69437D01*
X123768Y69437D01*
X125986Y67219D01*
X125986Y64082D01*
X123768Y61864D01*
X120630Y61864D01*
G37*
%LPD*%
%LPC*%
G36*
X17542Y163479D02*
X17542Y163479D01*
X15479Y165542D01*
X15479Y168458D01*
X17542Y170521D01*
X20458Y170521D01*
X22521Y168458D01*
X22521Y165542D01*
X20458Y163479D01*
X17542Y163479D01*
G37*
%LPD*%
%LPC*%
G36*
X123542Y19213D02*
X123542Y19213D01*
X121479Y21275D01*
X121479Y24192D01*
X123542Y26254D01*
X126458Y26254D01*
X128521Y24192D01*
X128521Y21275D01*
X126458Y19213D01*
X123542Y19213D01*
G37*
%LPD*%
D10*
X149067Y72065D03*
X149067Y84765D03*
X149067Y59365D03*
X149067Y97465D03*
X149067Y46665D03*
X149067Y110165D03*
X149067Y33965D03*
X149067Y21265D03*
X80830Y-1511D03*
X93530Y-1511D03*
X68130Y-1511D03*
X106230Y-1511D03*
X55430Y-1511D03*
X118930Y-1511D03*
X42730Y-1511D03*
X30030Y-1511D03*
X247Y71818D03*
X247Y84518D03*
X247Y59118D03*
X247Y97218D03*
X247Y46418D03*
X247Y109918D03*
X247Y33718D03*
X247Y21018D03*
D11*
X141448Y94734D02*
X141448Y101485D01*
X149067Y109104D02*
X149067Y110165D01*
X149067Y109104D02*
X141448Y101485D01*
X133481Y86767D02*
X107072Y86767D01*
X133481Y86767D02*
X141448Y94734D01*
D12*
X87370Y43286D03*
D11*
X104000Y53000D02*
X104000Y83695D01*
X104000Y53000D02*
X94286Y43286D01*
X87370Y43286D01*
X104000Y83695D02*
X107072Y86767D01*
D13*
X99005Y116698D03*
X104448Y96544D03*
X75378Y20895D03*
X17651Y76485D03*
X19868Y124965D03*
X122199Y65650D03*
X26498Y39845D03*
X93612Y38410D03*
D12*
X144000Y178481D03*
X137650Y178481D03*
X130800Y178481D03*
X124450Y178481D03*
X118100Y178481D03*
X102860Y178481D03*
X95740Y178481D03*
X88120Y178481D03*
X80500Y178481D03*
X72880Y178481D03*
X134610Y139881D03*
X128260Y139881D03*
X142230Y139881D03*
X134610Y167821D03*
X128260Y167821D03*
X140960Y167821D03*
X85080Y71301D03*
X85080Y84001D03*
X85080Y96701D03*
X74920Y96701D03*
X74920Y106861D03*
X62220Y106861D03*
X49520Y106861D03*
X39360Y96701D03*
X39360Y84001D03*
X39360Y71301D03*
X49520Y71301D03*
X49520Y84001D03*
X49520Y96701D03*
X49520Y61141D03*
X62220Y61141D03*
X74920Y61141D03*
X62220Y71301D03*
X62220Y84001D03*
X62220Y96701D03*
X74920Y84001D03*
X74920Y71301D03*
X62700Y132382D03*
X62700Y138907D03*
X62742Y145944D03*
X65401Y153840D03*
X79210Y125449D03*
X71320Y125449D03*
X108148Y127463D03*
X118408Y127463D03*
X143877Y127529D03*
X117350Y92450D03*
D13*
X22678Y45326D03*
D12*
X143877Y118529D03*
X126877Y127529D03*
X134877Y127529D03*
X132782Y64559D03*
X98842Y127568D03*
X65508Y161836D03*
X65380Y178481D03*
X58880Y178481D03*
X52380Y178481D03*
X45743Y178481D03*
X39628Y178481D03*
X52870Y169814D03*
X45870Y169314D03*
X45874Y161914D03*
X52874Y161914D03*
X62700Y125382D03*
X132719Y24835D03*
X5128Y178481D03*
X12128Y178481D03*
X19128Y178481D03*
X26128Y178481D03*
X33128Y178481D03*
X118600Y170981D03*
X118600Y162981D03*
X118600Y143481D03*
X118600Y135481D03*
X23779Y144000D03*
X92901Y155340D03*
X101401Y155340D03*
X92901Y149840D03*
X101401Y149340D03*
X59374Y161914D03*
X58870Y169814D03*
X65370Y169814D03*
X72870Y170314D03*
X80370Y170314D03*
X87870Y170314D03*
X95870Y170314D03*
X102870Y170314D03*
X48870Y173814D03*
X55870Y174314D03*
X62370Y174314D03*
X68870Y174314D03*
X42370Y173814D03*
X76870Y174314D03*
X84370Y174314D03*
X91870Y174314D03*
X99370Y174314D03*
X125000Y22734D03*
D13*
X9398Y15497D03*
X8866Y101695D03*
X8707Y93716D03*
D12*
X9100Y128633D03*
X19000Y167000D03*
X31315Y44082D03*
D11*
X31315Y37617D01*
X38448Y30485D01*
X38448Y6485D01*
X30452Y-1511D02*
X30030Y-1511D01*
X30452Y-1511D02*
X38448Y6485D01*
D12*
X27000Y51000D03*
D11*
X14242Y51000D02*
X10242Y47000D01*
X10242Y39762D01*
X7359Y36879D01*
X7359Y26359D02*
X5000Y24000D01*
X14242Y51000D02*
X27000Y51000D01*
X7359Y36879D02*
X7359Y26359D01*
X3229Y24000D02*
X247Y21018D01*
X3229Y24000D02*
X5000Y24000D01*
D12*
X21816Y91485D03*
D11*
X21816Y78751D01*
X26121Y74447D01*
X26121Y69158D01*
X18448Y61485D02*
X11448Y61485D01*
X7448Y57485D01*
X18448Y61485D02*
X26121Y69158D01*
X7448Y40919D02*
X247Y33718D01*
X7448Y40919D02*
X7448Y57485D01*
D12*
X21839Y71987D03*
D11*
X21839Y69241D01*
X17535Y64937D01*
X10900Y64937D01*
X5081Y59118D01*
X247Y59118D01*
D12*
X35802Y39638D03*
D11*
X42730Y5202D02*
X42730Y-1511D01*
X42730Y5202D02*
X41448Y6485D01*
X41448Y33609D01*
X35802Y39255D02*
X35802Y39638D01*
X35802Y39255D02*
X41448Y33609D01*
D12*
X41752Y40560D03*
D11*
X54792Y-1511D02*
X55430Y-1511D01*
X54792Y-1511D02*
X44259Y9022D01*
X44259Y38053D02*
X41752Y40560D01*
X44259Y38053D02*
X44259Y9022D01*
D12*
X47432Y42189D03*
D11*
X47591Y42030D01*
X59095Y6128D02*
X66734Y-1511D01*
X47591Y9641D02*
X47591Y42030D01*
X66734Y-1511D02*
X68130Y-1511D01*
X51104Y6128D02*
X47591Y9641D01*
X51104Y6128D02*
X59095Y6128D01*
D12*
X52605Y39189D03*
D11*
X78419Y-1511D02*
X80830Y-1511D01*
X50567Y37152D02*
X52605Y39189D01*
X71527Y5672D02*
X78710Y-1511D01*
X80830Y-1511D01*
X53000Y8922D02*
X50567Y11355D01*
X53000Y8922D02*
X60252Y8922D01*
X63502Y5672D01*
X50567Y11355D02*
X50567Y37152D01*
X63502Y5672D02*
X71527Y5672D01*
X32500Y52500D02*
X32036Y52964D01*
X32500Y52500D02*
X38529Y46471D01*
D12*
X58000Y43000D03*
D11*
X54529Y46471D01*
X38529Y46471D01*
D12*
X37500Y167000D03*
D11*
X32500Y52814D02*
X32500Y52500D01*
X32500Y52814D02*
X32089Y53225D01*
D12*
X31500Y130500D03*
D11*
X32089Y129911D01*
X32089Y53225D01*
X31500Y130500D02*
X31500Y164000D01*
X34500Y167000D02*
X37500Y167000D01*
X34500Y167000D02*
X31500Y164000D01*
D12*
X62641Y39094D03*
D11*
X63533Y38203D02*
X75846Y38203D01*
X63533Y38203D02*
X62641Y39094D01*
X87206Y26843D02*
X87206Y13562D01*
X93530Y7238D01*
X87206Y26843D02*
X75846Y38203D01*
X93530Y7238D02*
X93530Y-1511D01*
D12*
X67899Y42533D03*
D11*
X68995Y41485D02*
X76515Y41485D01*
X68995Y41485D02*
X67947Y42533D01*
X67899Y42533D01*
X76515Y41485D02*
X90000Y28000D01*
X90000Y14719D01*
X106230Y-1511D01*
D12*
X107000Y46000D03*
D11*
X107000Y8919D01*
X117430Y-1511D02*
X118930Y-1511D01*
X117430Y-1511D02*
X107000Y8919D01*
X111086Y83623D02*
X134288Y83623D01*
X111086Y83623D02*
X108948Y81485D01*
D12*
X108948Y81485D03*
D11*
X134288Y83623D02*
X145837Y95171D01*
X146774Y95171D02*
X149067Y97465D01*
X146774Y95171D02*
X145837Y95171D01*
D12*
X18311Y106530D03*
D11*
X26420Y109420D02*
X26420Y124915D01*
X26420Y109420D02*
X23530Y106530D01*
X18311Y106530D01*
D12*
X15500Y130000D03*
D11*
X21335Y130000D02*
X26420Y124915D01*
X21335Y130000D02*
X15500Y130000D01*
D12*
X21448Y101485D03*
D11*
X16173Y102203D02*
X13947Y104429D01*
X20730Y102203D02*
X21448Y101485D01*
X20730Y102203D02*
X16173Y102203D01*
X13947Y104429D02*
X13947Y109930D01*
D12*
X14264Y151532D03*
D11*
X4655Y148321D02*
X4655Y119222D01*
X4655Y148321D02*
X7900Y151566D01*
X14230Y151566D02*
X14264Y151532D01*
X4655Y119222D02*
X13947Y109930D01*
X14230Y151566D02*
X7900Y151566D01*
D12*
X18448Y96485D03*
D11*
X24538Y96485D01*
X29027Y100973D02*
X29243Y101189D01*
X29027Y100973D02*
X24538Y96485D01*
D12*
X14199Y145665D03*
D11*
X29027Y108075D02*
X29027Y100973D01*
X29027Y108075D02*
X29214Y108263D01*
X29214Y126073D01*
X19500Y135787D01*
X19500Y140364D02*
X14199Y145665D01*
X19500Y140364D02*
X19500Y135787D01*
D12*
X19000Y156000D03*
X14074Y138999D03*
X36574Y124643D03*
X101000Y12000D03*
D11*
X36574Y124643D02*
X36525Y124643D01*
X34883Y123000D01*
X34883Y54382D02*
X40000Y49265D01*
X57791Y49265D01*
X60056Y47000D01*
X96670Y12000D02*
X101000Y12000D01*
X34883Y54382D02*
X34883Y123000D01*
X60056Y47000D02*
X74951Y47000D01*
X92794Y29157D01*
X92794Y15876D01*
X96670Y12000D01*
M02*
