G04 EAGLE Gerber RS-274X export*
G75*
%MOMM*%
%FSLAX34Y34*%
%LPD*%
%INCopper Layer 2*%
%IPPOS*%
%AMOC8*
5,1,8,0,0,1.08239X$1,22.5*%
G01*
%ADD10C,0.975000*%
%ADD11C,0.403200*%
%ADD12C,0.503200*%
%ADD13C,0.152400*%

G36*
X23873Y653D02*
X23873Y653D01*
X23989Y670D01*
X23995Y673D01*
X24001Y674D01*
X24103Y728D01*
X24208Y782D01*
X24213Y786D01*
X24218Y789D01*
X24298Y873D01*
X24380Y957D01*
X24384Y964D01*
X24388Y967D01*
X24395Y984D01*
X24461Y1104D01*
X24820Y1970D01*
X26549Y3699D01*
X28808Y4635D01*
X31253Y4635D01*
X33511Y3699D01*
X35240Y1970D01*
X35599Y1104D01*
X35660Y1005D01*
X35720Y905D01*
X35725Y900D01*
X35729Y895D01*
X35819Y821D01*
X35907Y745D01*
X35913Y742D01*
X35918Y738D01*
X36026Y697D01*
X36136Y653D01*
X36143Y652D01*
X36148Y650D01*
X36166Y649D01*
X36302Y634D01*
X36458Y634D01*
X36573Y653D01*
X36689Y670D01*
X36695Y673D01*
X36701Y674D01*
X36803Y728D01*
X36908Y782D01*
X36913Y786D01*
X36918Y789D01*
X36998Y873D01*
X37080Y957D01*
X37084Y964D01*
X37088Y967D01*
X37095Y984D01*
X37161Y1104D01*
X37520Y1970D01*
X39249Y3699D01*
X41508Y4635D01*
X43953Y4635D01*
X46211Y3699D01*
X47940Y1970D01*
X48299Y1104D01*
X48360Y1005D01*
X48420Y905D01*
X48425Y900D01*
X48429Y895D01*
X48519Y821D01*
X48607Y745D01*
X48613Y742D01*
X48618Y738D01*
X48726Y697D01*
X48836Y653D01*
X48843Y652D01*
X48848Y650D01*
X48866Y649D01*
X49002Y634D01*
X49158Y634D01*
X49273Y653D01*
X49389Y670D01*
X49395Y673D01*
X49401Y674D01*
X49503Y728D01*
X49608Y782D01*
X49613Y786D01*
X49618Y789D01*
X49698Y873D01*
X49780Y957D01*
X49784Y964D01*
X49788Y967D01*
X49795Y984D01*
X49861Y1104D01*
X50220Y1970D01*
X51949Y3699D01*
X54208Y4635D01*
X56653Y4635D01*
X58911Y3699D01*
X60640Y1970D01*
X60999Y1104D01*
X61060Y1005D01*
X61120Y905D01*
X61125Y900D01*
X61129Y895D01*
X61219Y821D01*
X61307Y745D01*
X61313Y742D01*
X61318Y738D01*
X61426Y697D01*
X61536Y653D01*
X61543Y652D01*
X61548Y650D01*
X61566Y649D01*
X61702Y634D01*
X61858Y634D01*
X61973Y653D01*
X62089Y670D01*
X62095Y673D01*
X62101Y674D01*
X62203Y728D01*
X62308Y782D01*
X62313Y786D01*
X62318Y789D01*
X62398Y873D01*
X62480Y957D01*
X62484Y964D01*
X62488Y967D01*
X62495Y984D01*
X62561Y1104D01*
X62920Y1970D01*
X64649Y3699D01*
X66908Y4635D01*
X69353Y4635D01*
X71611Y3699D01*
X73340Y1970D01*
X73699Y1104D01*
X73760Y1005D01*
X73820Y905D01*
X73825Y900D01*
X73829Y895D01*
X73919Y821D01*
X74007Y745D01*
X74013Y742D01*
X74018Y738D01*
X74126Y697D01*
X74236Y653D01*
X74243Y652D01*
X74248Y650D01*
X74266Y649D01*
X74402Y634D01*
X74558Y634D01*
X74673Y653D01*
X74789Y670D01*
X74795Y673D01*
X74801Y674D01*
X74903Y728D01*
X75008Y782D01*
X75013Y786D01*
X75018Y789D01*
X75098Y873D01*
X75180Y957D01*
X75184Y964D01*
X75188Y967D01*
X75195Y984D01*
X75261Y1104D01*
X75620Y1970D01*
X77349Y3699D01*
X79608Y4635D01*
X82053Y4635D01*
X84311Y3699D01*
X86040Y1970D01*
X86399Y1104D01*
X86460Y1005D01*
X86520Y905D01*
X86525Y900D01*
X86529Y895D01*
X86619Y821D01*
X86707Y745D01*
X86713Y742D01*
X86718Y738D01*
X86826Y697D01*
X86936Y653D01*
X86943Y652D01*
X86948Y650D01*
X86966Y649D01*
X87102Y634D01*
X87258Y634D01*
X87373Y653D01*
X87489Y670D01*
X87495Y673D01*
X87501Y674D01*
X87603Y728D01*
X87708Y782D01*
X87713Y786D01*
X87718Y789D01*
X87798Y873D01*
X87880Y957D01*
X87884Y964D01*
X87888Y967D01*
X87895Y984D01*
X87961Y1104D01*
X88320Y1970D01*
X90049Y3699D01*
X92308Y4635D01*
X94753Y4635D01*
X97011Y3699D01*
X98740Y1970D01*
X99099Y1104D01*
X99160Y1005D01*
X99220Y905D01*
X99225Y900D01*
X99229Y895D01*
X99319Y821D01*
X99407Y745D01*
X99413Y742D01*
X99418Y738D01*
X99526Y697D01*
X99636Y653D01*
X99643Y652D01*
X99648Y650D01*
X99666Y649D01*
X99802Y634D01*
X99958Y634D01*
X100073Y653D01*
X100189Y670D01*
X100195Y673D01*
X100201Y674D01*
X100303Y728D01*
X100408Y782D01*
X100413Y786D01*
X100418Y789D01*
X100498Y873D01*
X100580Y957D01*
X100584Y964D01*
X100588Y967D01*
X100595Y984D01*
X100661Y1104D01*
X101020Y1970D01*
X102749Y3699D01*
X105008Y4635D01*
X107453Y4635D01*
X109711Y3699D01*
X111440Y1970D01*
X111799Y1104D01*
X111860Y1005D01*
X111920Y905D01*
X111925Y900D01*
X111929Y895D01*
X112019Y821D01*
X112107Y745D01*
X112113Y742D01*
X112118Y738D01*
X112226Y697D01*
X112336Y653D01*
X112343Y652D01*
X112348Y650D01*
X112366Y649D01*
X112502Y634D01*
X112658Y634D01*
X112773Y653D01*
X112889Y670D01*
X112895Y673D01*
X112901Y674D01*
X113003Y728D01*
X113108Y782D01*
X113113Y786D01*
X113118Y789D01*
X113198Y873D01*
X113280Y957D01*
X113284Y964D01*
X113288Y967D01*
X113295Y984D01*
X113361Y1104D01*
X113720Y1970D01*
X115449Y3699D01*
X117708Y4635D01*
X120153Y4635D01*
X122411Y3699D01*
X124140Y1970D01*
X124499Y1104D01*
X124560Y1005D01*
X124620Y905D01*
X124625Y900D01*
X124629Y895D01*
X124719Y821D01*
X124807Y745D01*
X124813Y742D01*
X124818Y738D01*
X124926Y697D01*
X125036Y653D01*
X125043Y652D01*
X125048Y650D01*
X125066Y649D01*
X125202Y634D01*
X145837Y634D01*
X145856Y637D01*
X145876Y635D01*
X145977Y657D01*
X146079Y674D01*
X146097Y683D01*
X146116Y687D01*
X146205Y741D01*
X146297Y789D01*
X146310Y803D01*
X146327Y814D01*
X146395Y892D01*
X146466Y967D01*
X146474Y985D01*
X146487Y1001D01*
X146526Y1097D01*
X146570Y1190D01*
X146572Y1210D01*
X146579Y1229D01*
X146598Y1395D01*
X146598Y15127D01*
X146596Y15135D01*
X146597Y15137D01*
X146594Y15151D01*
X146579Y15241D01*
X146562Y15358D01*
X146559Y15363D01*
X146558Y15369D01*
X146504Y15472D01*
X146450Y15577D01*
X146446Y15581D01*
X146443Y15587D01*
X146359Y15667D01*
X146275Y15749D01*
X146268Y15753D01*
X146265Y15756D01*
X146248Y15764D01*
X146128Y15830D01*
X145586Y16054D01*
X143857Y17783D01*
X142921Y20042D01*
X142921Y22487D01*
X143857Y24746D01*
X145586Y26475D01*
X146128Y26699D01*
X146227Y26761D01*
X146327Y26821D01*
X146332Y26825D01*
X146337Y26829D01*
X146411Y26918D01*
X146487Y27008D01*
X146490Y27013D01*
X146494Y27018D01*
X146535Y27126D01*
X146579Y27236D01*
X146580Y27243D01*
X146582Y27248D01*
X146583Y27266D01*
X146598Y27402D01*
X146598Y27827D01*
X146579Y27941D01*
X146562Y28058D01*
X146559Y28063D01*
X146558Y28069D01*
X146504Y28172D01*
X146450Y28277D01*
X146446Y28281D01*
X146443Y28287D01*
X146359Y28367D01*
X146275Y28449D01*
X146268Y28453D01*
X146265Y28456D01*
X146248Y28464D01*
X146128Y28530D01*
X145586Y28754D01*
X143857Y30483D01*
X142921Y32742D01*
X142921Y35187D01*
X143857Y37446D01*
X145586Y39175D01*
X146128Y39399D01*
X146227Y39461D01*
X146327Y39521D01*
X146332Y39525D01*
X146337Y39529D01*
X146411Y39618D01*
X146487Y39708D01*
X146490Y39713D01*
X146494Y39718D01*
X146535Y39826D01*
X146579Y39936D01*
X146580Y39943D01*
X146582Y39948D01*
X146583Y39966D01*
X146598Y40102D01*
X146598Y40527D01*
X146579Y40641D01*
X146562Y40758D01*
X146559Y40763D01*
X146558Y40769D01*
X146504Y40872D01*
X146450Y40977D01*
X146446Y40981D01*
X146443Y40987D01*
X146359Y41067D01*
X146275Y41149D01*
X146268Y41153D01*
X146265Y41156D01*
X146248Y41164D01*
X146128Y41230D01*
X145586Y41454D01*
X143857Y43183D01*
X142921Y45442D01*
X142921Y47887D01*
X143857Y50146D01*
X145586Y51875D01*
X146128Y52099D01*
X146227Y52161D01*
X146327Y52221D01*
X146332Y52225D01*
X146337Y52229D01*
X146411Y52318D01*
X146487Y52408D01*
X146490Y52413D01*
X146494Y52418D01*
X146535Y52526D01*
X146579Y52636D01*
X146580Y52643D01*
X146582Y52648D01*
X146583Y52666D01*
X146598Y52802D01*
X146598Y53227D01*
X146579Y53341D01*
X146562Y53458D01*
X146559Y53463D01*
X146558Y53469D01*
X146504Y53572D01*
X146450Y53677D01*
X146446Y53681D01*
X146443Y53687D01*
X146359Y53767D01*
X146275Y53849D01*
X146268Y53853D01*
X146265Y53856D01*
X146248Y53864D01*
X146128Y53930D01*
X145586Y54154D01*
X143857Y55883D01*
X142921Y58142D01*
X142921Y60587D01*
X143857Y62846D01*
X145586Y64575D01*
X146128Y64799D01*
X146227Y64861D01*
X146327Y64921D01*
X146332Y64925D01*
X146337Y64929D01*
X146411Y65018D01*
X146487Y65108D01*
X146490Y65113D01*
X146494Y65118D01*
X146535Y65226D01*
X146579Y65336D01*
X146580Y65343D01*
X146582Y65348D01*
X146583Y65366D01*
X146598Y65502D01*
X146598Y65927D01*
X146579Y66041D01*
X146562Y66158D01*
X146559Y66163D01*
X146558Y66169D01*
X146504Y66272D01*
X146450Y66377D01*
X146446Y66381D01*
X146443Y66387D01*
X146359Y66467D01*
X146275Y66549D01*
X146268Y66553D01*
X146265Y66556D01*
X146248Y66564D01*
X146128Y66630D01*
X145586Y66854D01*
X143857Y68583D01*
X142921Y70842D01*
X142921Y73287D01*
X143857Y75546D01*
X145586Y77275D01*
X146128Y77499D01*
X146226Y77560D01*
X146327Y77621D01*
X146332Y77625D01*
X146337Y77629D01*
X146411Y77718D01*
X146487Y77808D01*
X146490Y77813D01*
X146494Y77818D01*
X146535Y77926D01*
X146579Y78036D01*
X146580Y78043D01*
X146582Y78048D01*
X146583Y78066D01*
X146598Y78202D01*
X146598Y78627D01*
X146579Y78741D01*
X146562Y78858D01*
X146559Y78863D01*
X146558Y78869D01*
X146504Y78972D01*
X146450Y79077D01*
X146446Y79081D01*
X146443Y79087D01*
X146359Y79167D01*
X146275Y79249D01*
X146268Y79253D01*
X146265Y79256D01*
X146248Y79264D01*
X146128Y79330D01*
X145586Y79554D01*
X143857Y81283D01*
X142921Y83542D01*
X142921Y85987D01*
X143857Y88246D01*
X145586Y89975D01*
X146128Y90199D01*
X146227Y90261D01*
X146327Y90321D01*
X146332Y90325D01*
X146337Y90329D01*
X146411Y90418D01*
X146487Y90508D01*
X146490Y90513D01*
X146494Y90518D01*
X146535Y90626D01*
X146579Y90736D01*
X146580Y90743D01*
X146582Y90748D01*
X146583Y90766D01*
X146598Y90902D01*
X146598Y91327D01*
X146579Y91441D01*
X146562Y91558D01*
X146559Y91563D01*
X146558Y91569D01*
X146504Y91672D01*
X146450Y91777D01*
X146446Y91781D01*
X146443Y91787D01*
X146359Y91867D01*
X146275Y91949D01*
X146268Y91953D01*
X146265Y91956D01*
X146248Y91964D01*
X146128Y92030D01*
X145586Y92254D01*
X143857Y93983D01*
X142921Y96242D01*
X142921Y98687D01*
X143857Y100946D01*
X145586Y102675D01*
X146128Y102899D01*
X146227Y102961D01*
X146327Y103021D01*
X146332Y103025D01*
X146337Y103029D01*
X146411Y103118D01*
X146487Y103208D01*
X146490Y103213D01*
X146494Y103218D01*
X146535Y103326D01*
X146579Y103436D01*
X146580Y103443D01*
X146582Y103448D01*
X146583Y103466D01*
X146598Y103602D01*
X146598Y104027D01*
X146579Y104141D01*
X146562Y104258D01*
X146559Y104263D01*
X146558Y104269D01*
X146504Y104372D01*
X146450Y104477D01*
X146446Y104481D01*
X146443Y104487D01*
X146359Y104567D01*
X146275Y104649D01*
X146268Y104653D01*
X146265Y104656D01*
X146248Y104664D01*
X146128Y104730D01*
X145586Y104954D01*
X143857Y106683D01*
X142921Y108942D01*
X142921Y111387D01*
X143857Y113646D01*
X145586Y115375D01*
X146128Y115599D01*
X146227Y115661D01*
X146327Y115721D01*
X146332Y115725D01*
X146337Y115729D01*
X146411Y115818D01*
X146487Y115908D01*
X146490Y115913D01*
X146494Y115918D01*
X146535Y116026D01*
X146579Y116136D01*
X146580Y116143D01*
X146582Y116148D01*
X146583Y116166D01*
X146598Y116302D01*
X146598Y180019D01*
X146595Y180038D01*
X146597Y180058D01*
X146575Y180159D01*
X146558Y180261D01*
X146549Y180279D01*
X146545Y180299D01*
X146491Y180388D01*
X146443Y180479D01*
X146429Y180493D01*
X146418Y180510D01*
X146340Y180577D01*
X146265Y180648D01*
X146247Y180657D01*
X146231Y180670D01*
X146135Y180708D01*
X146042Y180752D01*
X146022Y180754D01*
X146003Y180762D01*
X145837Y180780D01*
X3335Y180780D01*
X3315Y180777D01*
X3295Y180779D01*
X3194Y180757D01*
X3092Y180740D01*
X3074Y180731D01*
X3055Y180727D01*
X2966Y180673D01*
X2874Y180625D01*
X2861Y180611D01*
X2844Y180600D01*
X2776Y180522D01*
X2705Y180447D01*
X2697Y180429D01*
X2684Y180414D01*
X2645Y180317D01*
X2601Y180224D01*
X2599Y180204D01*
X2592Y180185D01*
X2573Y180019D01*
X2573Y163359D01*
X2585Y163289D01*
X2587Y163217D01*
X2605Y163168D01*
X2613Y163117D01*
X2647Y163053D01*
X2671Y162986D01*
X2704Y162945D01*
X2728Y162899D01*
X2780Y162850D01*
X2825Y162794D01*
X2869Y162766D01*
X2906Y162730D01*
X2972Y162700D01*
X3032Y162661D01*
X3082Y162648D01*
X3130Y162626D01*
X3201Y162618D01*
X3270Y162601D01*
X3322Y162605D01*
X3374Y162599D01*
X3444Y162614D01*
X3516Y162620D01*
X3564Y162640D01*
X3614Y162651D01*
X3676Y162688D01*
X3722Y162708D01*
X6482Y162708D01*
X7333Y161857D01*
X7349Y161846D01*
X7361Y161830D01*
X7449Y161774D01*
X7532Y161714D01*
X7551Y161708D01*
X7568Y161697D01*
X7669Y161672D01*
X7767Y161642D01*
X7787Y161642D01*
X7807Y161637D01*
X7910Y161645D01*
X8013Y161648D01*
X8032Y161655D01*
X8052Y161656D01*
X8147Y161697D01*
X8244Y161732D01*
X8260Y161745D01*
X8278Y161753D01*
X8409Y161857D01*
X9798Y163247D01*
X12521Y163247D01*
X14380Y161388D01*
X14438Y161347D01*
X14490Y161297D01*
X14537Y161275D01*
X14579Y161245D01*
X14648Y161224D01*
X14713Y161194D01*
X14765Y161188D01*
X14814Y161173D01*
X14886Y161174D01*
X14957Y161166D01*
X15008Y161178D01*
X15060Y161179D01*
X15128Y161204D01*
X15198Y161219D01*
X15242Y161245D01*
X15291Y161263D01*
X15347Y161308D01*
X15409Y161345D01*
X15443Y161384D01*
X15483Y161417D01*
X15522Y161477D01*
X15569Y161532D01*
X15588Y161580D01*
X15616Y161624D01*
X15634Y161693D01*
X15661Y161760D01*
X15668Y161829D01*
X17604Y163765D01*
X20327Y163765D01*
X22253Y161840D01*
X22253Y159117D01*
X20327Y157192D01*
X17604Y157192D01*
X15746Y159050D01*
X15688Y159092D01*
X15636Y159141D01*
X15589Y159163D01*
X15546Y159193D01*
X15478Y159215D01*
X15413Y159245D01*
X15361Y159250D01*
X15311Y159266D01*
X15240Y159264D01*
X15168Y159272D01*
X15117Y159261D01*
X15065Y159259D01*
X14998Y159235D01*
X14928Y159220D01*
X14883Y159193D01*
X14834Y159175D01*
X14778Y159130D01*
X14717Y159093D01*
X14683Y159054D01*
X14642Y159021D01*
X14604Y158961D01*
X14557Y158907D01*
X14537Y158858D01*
X14509Y158814D01*
X14492Y158745D01*
X14465Y158678D01*
X14457Y158609D01*
X13416Y157568D01*
X13362Y157494D01*
X13303Y157424D01*
X13291Y157394D01*
X13272Y157368D01*
X13245Y157281D01*
X13211Y157196D01*
X13206Y157155D01*
X13200Y157133D01*
X13200Y157101D01*
X13193Y157029D01*
X13193Y154318D01*
X11535Y152661D01*
X11493Y152602D01*
X11444Y152550D01*
X11422Y152503D01*
X11392Y152461D01*
X11371Y152392D01*
X11340Y152327D01*
X11335Y152276D01*
X11319Y152226D01*
X11321Y152154D01*
X11313Y152083D01*
X11324Y152032D01*
X11326Y151980D01*
X11350Y151913D01*
X11366Y151842D01*
X11392Y151798D01*
X11410Y151749D01*
X11455Y151693D01*
X11492Y151631D01*
X11531Y151598D01*
X11564Y151557D01*
X11624Y151518D01*
X11679Y151471D01*
X11727Y151452D01*
X11771Y151424D01*
X11840Y151406D01*
X11907Y151380D01*
X11978Y151372D01*
X12009Y151364D01*
X12033Y151366D01*
X12074Y151361D01*
X14713Y151361D01*
X15744Y150330D01*
X15818Y150277D01*
X15887Y150217D01*
X15918Y150205D01*
X15944Y150186D01*
X16031Y150160D01*
X16116Y150126D01*
X16157Y150121D01*
X16179Y150114D01*
X16211Y150115D01*
X16282Y150107D01*
X17174Y150107D01*
X23810Y143470D01*
X23810Y135929D01*
X23814Y135910D01*
X23812Y135890D01*
X23834Y135788D01*
X23850Y135686D01*
X23860Y135669D01*
X23864Y135649D01*
X23917Y135560D01*
X23965Y135469D01*
X23980Y135455D01*
X23990Y135438D01*
X24069Y135371D01*
X24144Y135300D01*
X24162Y135291D01*
X24177Y135278D01*
X24273Y135240D01*
X24367Y135196D01*
X24386Y135194D01*
X24405Y135186D01*
X24572Y135168D01*
X27384Y135168D01*
X29309Y133243D01*
X29309Y131533D01*
X29313Y131513D01*
X29310Y131493D01*
X29332Y131392D01*
X29349Y131290D01*
X29358Y131272D01*
X29363Y131253D01*
X29416Y131164D01*
X29464Y131073D01*
X29479Y131059D01*
X29489Y131042D01*
X29568Y130974D01*
X29643Y130903D01*
X29661Y130895D01*
X29676Y130882D01*
X29772Y130843D01*
X29866Y130800D01*
X29885Y130797D01*
X29904Y130790D01*
X30071Y130771D01*
X31809Y130771D01*
X33734Y128846D01*
X33734Y128794D01*
X33738Y128774D01*
X33735Y128754D01*
X33757Y128653D01*
X33774Y128551D01*
X33783Y128533D01*
X33788Y128514D01*
X33841Y128425D01*
X33889Y128334D01*
X33904Y128320D01*
X33914Y128303D01*
X33993Y128235D01*
X34068Y128164D01*
X34086Y128156D01*
X34101Y128143D01*
X34197Y128104D01*
X34291Y128061D01*
X34310Y128058D01*
X34329Y128051D01*
X34496Y128032D01*
X37292Y128032D01*
X39217Y126107D01*
X39217Y123384D01*
X38186Y122353D01*
X38133Y122279D01*
X38074Y122210D01*
X38062Y122180D01*
X38043Y122154D01*
X38016Y122067D01*
X37982Y121982D01*
X37977Y121941D01*
X37970Y121918D01*
X37971Y121886D01*
X37963Y121815D01*
X37963Y120089D01*
X33788Y115913D01*
X33735Y115839D01*
X33675Y115770D01*
X33663Y115739D01*
X33644Y115713D01*
X33617Y115626D01*
X33583Y115541D01*
X33579Y115501D01*
X33572Y115478D01*
X33573Y115446D01*
X33565Y115375D01*
X33565Y56625D01*
X33580Y56535D01*
X33587Y56444D01*
X33599Y56414D01*
X33605Y56383D01*
X33647Y56302D01*
X33683Y56218D01*
X33709Y56186D01*
X33720Y56165D01*
X33743Y56143D01*
X33788Y56087D01*
X39619Y50256D01*
X39693Y50203D01*
X39762Y50143D01*
X39793Y50131D01*
X39819Y50112D01*
X39906Y50085D01*
X39991Y50051D01*
X40032Y50047D01*
X40054Y50040D01*
X40086Y50041D01*
X40157Y50033D01*
X93842Y50033D01*
X103033Y40842D01*
X103033Y14931D01*
X103047Y14841D01*
X103055Y14750D01*
X103067Y14720D01*
X103072Y14688D01*
X103115Y14607D01*
X103151Y14523D01*
X103177Y14491D01*
X103188Y14471D01*
X103211Y14448D01*
X103256Y14392D01*
X104287Y13361D01*
X104287Y10639D01*
X102361Y8713D01*
X99639Y8713D01*
X97713Y10639D01*
X97713Y13361D01*
X98744Y14392D01*
X98797Y14466D01*
X98857Y14536D01*
X98869Y14566D01*
X98888Y14592D01*
X98915Y14679D01*
X98949Y14764D01*
X98953Y14805D01*
X98960Y14827D01*
X98959Y14859D01*
X98967Y14931D01*
X98967Y38843D01*
X98953Y38933D01*
X98945Y39023D01*
X98933Y39053D01*
X98928Y39085D01*
X98885Y39166D01*
X98849Y39250D01*
X98823Y39282D01*
X98812Y39303D01*
X98789Y39325D01*
X98744Y39381D01*
X98698Y39427D01*
X98640Y39469D01*
X98588Y39519D01*
X98541Y39540D01*
X98498Y39571D01*
X98430Y39592D01*
X98365Y39622D01*
X98313Y39628D01*
X98263Y39643D01*
X98192Y39641D01*
X98120Y39649D01*
X98069Y39638D01*
X98017Y39637D01*
X97950Y39612D01*
X97880Y39597D01*
X97835Y39570D01*
X97786Y39553D01*
X97730Y39508D01*
X97669Y39471D01*
X97635Y39431D01*
X97594Y39399D01*
X97556Y39339D01*
X97509Y39284D01*
X97489Y39236D01*
X97461Y39192D01*
X97444Y39123D01*
X97417Y39056D01*
X97409Y38985D01*
X97401Y38954D01*
X97403Y38930D01*
X97398Y38889D01*
X97398Y36842D01*
X95180Y34623D01*
X92043Y34623D01*
X89825Y36842D01*
X89825Y39979D01*
X92043Y42197D01*
X94091Y42197D01*
X94161Y42208D01*
X94233Y42210D01*
X94282Y42228D01*
X94333Y42237D01*
X94397Y42270D01*
X94464Y42295D01*
X94505Y42327D01*
X94551Y42352D01*
X94600Y42404D01*
X94656Y42448D01*
X94684Y42492D01*
X94720Y42530D01*
X94750Y42595D01*
X94789Y42655D01*
X94802Y42706D01*
X94824Y42753D01*
X94832Y42824D01*
X94849Y42894D01*
X94845Y42946D01*
X94851Y42998D01*
X94836Y43068D01*
X94830Y43139D01*
X94810Y43187D01*
X94799Y43238D01*
X94762Y43300D01*
X94734Y43365D01*
X94689Y43421D01*
X94672Y43449D01*
X94655Y43464D01*
X94629Y43496D01*
X92381Y45744D01*
X92307Y45797D01*
X92238Y45857D01*
X92207Y45869D01*
X92181Y45888D01*
X92094Y45915D01*
X92009Y45949D01*
X91968Y45953D01*
X91946Y45960D01*
X91914Y45959D01*
X91843Y45967D01*
X88895Y45967D01*
X88824Y45956D01*
X88753Y45954D01*
X88704Y45936D01*
X88653Y45928D01*
X88589Y45894D01*
X88522Y45869D01*
X88481Y45837D01*
X88435Y45812D01*
X88386Y45760D01*
X88330Y45716D01*
X88302Y45672D01*
X88266Y45634D01*
X88235Y45569D01*
X88197Y45509D01*
X88184Y45458D01*
X88162Y45411D01*
X88154Y45340D01*
X88137Y45270D01*
X88141Y45218D01*
X88135Y45167D01*
X88150Y45096D01*
X88156Y45025D01*
X88176Y44977D01*
X88187Y44926D01*
X88224Y44865D01*
X88239Y44830D01*
X88239Y42063D01*
X86313Y40138D01*
X83591Y40138D01*
X81665Y42063D01*
X81665Y44832D01*
X81691Y44867D01*
X81712Y44936D01*
X81742Y45001D01*
X81748Y45053D01*
X81763Y45102D01*
X81761Y45174D01*
X81769Y45245D01*
X81758Y45296D01*
X81757Y45348D01*
X81732Y45416D01*
X81717Y45486D01*
X81690Y45531D01*
X81672Y45579D01*
X81627Y45635D01*
X81591Y45697D01*
X81551Y45731D01*
X81519Y45771D01*
X81458Y45810D01*
X81404Y45857D01*
X81355Y45876D01*
X81312Y45904D01*
X81242Y45922D01*
X81176Y45949D01*
X81104Y45957D01*
X81073Y45965D01*
X81050Y45963D01*
X81009Y45967D01*
X61519Y45967D01*
X61448Y45956D01*
X61376Y45954D01*
X61327Y45936D01*
X61276Y45928D01*
X61213Y45894D01*
X61145Y45869D01*
X61105Y45837D01*
X61059Y45812D01*
X61009Y45760D01*
X60953Y45716D01*
X60925Y45672D01*
X60889Y45634D01*
X60859Y45569D01*
X60820Y45509D01*
X60807Y45458D01*
X60786Y45411D01*
X60778Y45340D01*
X60760Y45270D01*
X60764Y45218D01*
X60758Y45167D01*
X60774Y45096D01*
X60779Y45025D01*
X60800Y44977D01*
X60811Y44926D01*
X60848Y44865D01*
X60876Y44799D01*
X60920Y44743D01*
X60937Y44715D01*
X60955Y44700D01*
X60980Y44668D01*
X61287Y44361D01*
X61287Y43142D01*
X61290Y43122D01*
X61288Y43102D01*
X61310Y43001D01*
X61326Y42899D01*
X61336Y42882D01*
X61340Y42862D01*
X61393Y42773D01*
X61442Y42682D01*
X61456Y42668D01*
X61466Y42651D01*
X61545Y42584D01*
X61620Y42512D01*
X61638Y42504D01*
X61653Y42491D01*
X61749Y42452D01*
X61843Y42409D01*
X61863Y42407D01*
X61881Y42399D01*
X62048Y42381D01*
X64003Y42381D01*
X64311Y42073D01*
X64327Y42061D01*
X64339Y42045D01*
X64427Y41990D01*
X64511Y41929D01*
X64530Y41923D01*
X64546Y41912D01*
X64647Y41887D01*
X64746Y41857D01*
X64766Y41857D01*
X64785Y41852D01*
X64888Y41860D01*
X64992Y41863D01*
X65010Y41870D01*
X65030Y41872D01*
X65125Y41912D01*
X65223Y41948D01*
X65238Y41960D01*
X65256Y41968D01*
X65387Y42073D01*
X67086Y43771D01*
X69809Y43771D01*
X71734Y41846D01*
X71734Y39123D01*
X69809Y37198D01*
X67086Y37198D01*
X66778Y37506D01*
X66762Y37518D01*
X66750Y37533D01*
X66662Y37589D01*
X66578Y37650D01*
X66559Y37655D01*
X66543Y37666D01*
X66442Y37691D01*
X66343Y37722D01*
X66323Y37721D01*
X66304Y37726D01*
X66201Y37718D01*
X66097Y37716D01*
X66079Y37709D01*
X66059Y37707D01*
X65964Y37667D01*
X65866Y37631D01*
X65851Y37619D01*
X65833Y37611D01*
X65702Y37506D01*
X64003Y35807D01*
X61280Y35807D01*
X59355Y37733D01*
X59355Y38952D01*
X59351Y38972D01*
X59354Y38991D01*
X59332Y39093D01*
X59315Y39195D01*
X59306Y39212D01*
X59301Y39232D01*
X59248Y39321D01*
X59200Y39412D01*
X59185Y39426D01*
X59175Y39443D01*
X59097Y39510D01*
X59022Y39582D01*
X59003Y39590D01*
X58988Y39603D01*
X58892Y39642D01*
X58798Y39685D01*
X58779Y39687D01*
X58760Y39695D01*
X58593Y39713D01*
X56653Y39713D01*
X56633Y39710D01*
X56613Y39712D01*
X56512Y39690D01*
X56410Y39674D01*
X56392Y39664D01*
X56373Y39660D01*
X56284Y39607D01*
X56193Y39558D01*
X56179Y39544D01*
X56162Y39534D01*
X56094Y39455D01*
X56023Y39380D01*
X56015Y39362D01*
X56002Y39347D01*
X55963Y39251D01*
X55920Y39157D01*
X55917Y39137D01*
X55910Y39119D01*
X55891Y38952D01*
X55891Y37827D01*
X53966Y35902D01*
X51243Y35902D01*
X49318Y37827D01*
X49318Y38141D01*
X49315Y38161D01*
X49317Y38180D01*
X49295Y38282D01*
X49278Y38384D01*
X49269Y38401D01*
X49265Y38421D01*
X49211Y38510D01*
X49163Y38601D01*
X49149Y38615D01*
X49138Y38632D01*
X49060Y38699D01*
X48985Y38770D01*
X48967Y38779D01*
X48952Y38792D01*
X48855Y38831D01*
X48762Y38874D01*
X48742Y38876D01*
X48723Y38884D01*
X48557Y38902D01*
X46071Y38902D01*
X45945Y39028D01*
X45929Y39039D01*
X45917Y39055D01*
X45829Y39111D01*
X45746Y39171D01*
X45727Y39177D01*
X45710Y39188D01*
X45609Y39213D01*
X45510Y39244D01*
X45491Y39243D01*
X45471Y39248D01*
X45368Y39240D01*
X45265Y39237D01*
X45246Y39230D01*
X45226Y39229D01*
X45131Y39189D01*
X45034Y39153D01*
X45018Y39140D01*
X45000Y39133D01*
X44869Y39028D01*
X43114Y37273D01*
X40391Y37273D01*
X39776Y37888D01*
X39760Y37899D01*
X39747Y37915D01*
X39660Y37971D01*
X39576Y38031D01*
X39557Y38037D01*
X39540Y38048D01*
X39440Y38073D01*
X39341Y38104D01*
X39321Y38103D01*
X39302Y38108D01*
X39199Y38100D01*
X39095Y38097D01*
X39076Y38090D01*
X39057Y38089D01*
X38962Y38049D01*
X38864Y38013D01*
X38849Y38000D01*
X38830Y37993D01*
X38699Y37888D01*
X37163Y36351D01*
X34440Y36351D01*
X32515Y38277D01*
X32515Y40034D01*
X32512Y40054D01*
X32514Y40073D01*
X32492Y40175D01*
X32475Y40277D01*
X32466Y40294D01*
X32462Y40314D01*
X32408Y40403D01*
X32360Y40494D01*
X32346Y40508D01*
X32335Y40525D01*
X32257Y40592D01*
X32182Y40663D01*
X32164Y40672D01*
X32149Y40685D01*
X32052Y40724D01*
X31959Y40767D01*
X31939Y40769D01*
X31920Y40777D01*
X31754Y40795D01*
X31046Y40795D01*
X31027Y40792D01*
X31007Y40794D01*
X30906Y40772D01*
X30804Y40755D01*
X30786Y40746D01*
X30767Y40742D01*
X30678Y40689D01*
X30586Y40640D01*
X30573Y40626D01*
X30555Y40616D01*
X30488Y40537D01*
X30417Y40462D01*
X30409Y40444D01*
X30396Y40429D01*
X30357Y40333D01*
X30313Y40239D01*
X30311Y40219D01*
X30304Y40201D01*
X30285Y40034D01*
X30285Y38277D01*
X28067Y36059D01*
X24930Y36059D01*
X22712Y38277D01*
X22712Y41414D01*
X24930Y43632D01*
X27267Y43632D01*
X27287Y43635D01*
X27306Y43633D01*
X27408Y43655D01*
X27510Y43672D01*
X27527Y43681D01*
X27547Y43685D01*
X27636Y43739D01*
X27727Y43787D01*
X27741Y43801D01*
X27758Y43812D01*
X27825Y43890D01*
X27896Y43965D01*
X27905Y43983D01*
X27918Y43998D01*
X27956Y44095D01*
X28000Y44188D01*
X28002Y44208D01*
X28010Y44227D01*
X28028Y44393D01*
X28028Y45443D01*
X28998Y46414D01*
X29040Y46472D01*
X29090Y46524D01*
X29112Y46571D01*
X29142Y46613D01*
X29163Y46682D01*
X29193Y46747D01*
X29199Y46799D01*
X29214Y46849D01*
X29213Y46920D01*
X29220Y46991D01*
X29209Y47042D01*
X29208Y47094D01*
X29183Y47162D01*
X29168Y47232D01*
X29141Y47277D01*
X29124Y47325D01*
X29079Y47381D01*
X29042Y47443D01*
X29002Y47477D01*
X28970Y47517D01*
X28910Y47556D01*
X28855Y47603D01*
X28807Y47622D01*
X28763Y47650D01*
X28693Y47668D01*
X28627Y47695D01*
X28556Y47703D01*
X28524Y47711D01*
X28501Y47709D01*
X28460Y47713D01*
X25639Y47713D01*
X23713Y49639D01*
X23713Y52361D01*
X25639Y54287D01*
X28458Y54287D01*
X28468Y54284D01*
X28533Y54253D01*
X28585Y54248D01*
X28634Y54232D01*
X28706Y54234D01*
X28778Y54226D01*
X28828Y54237D01*
X28880Y54239D01*
X28948Y54263D01*
X29018Y54279D01*
X29062Y54305D01*
X29111Y54323D01*
X29168Y54368D01*
X29229Y54405D01*
X29263Y54444D01*
X29303Y54477D01*
X29342Y54537D01*
X29389Y54592D01*
X29408Y54640D01*
X29436Y54684D01*
X29454Y54753D01*
X29481Y54820D01*
X29489Y54891D01*
X29497Y54922D01*
X29495Y54946D01*
X29499Y54987D01*
X29499Y96651D01*
X29488Y96722D01*
X29486Y96793D01*
X29468Y96842D01*
X29460Y96894D01*
X29426Y96957D01*
X29401Y97024D01*
X29369Y97065D01*
X29345Y97111D01*
X29293Y97160D01*
X29248Y97216D01*
X29204Y97245D01*
X29166Y97280D01*
X29101Y97311D01*
X29041Y97349D01*
X28990Y97362D01*
X28943Y97384D01*
X28872Y97392D01*
X28802Y97409D01*
X28750Y97405D01*
X28699Y97411D01*
X28628Y97396D01*
X28557Y97390D01*
X28509Y97370D01*
X28458Y97359D01*
X28397Y97322D01*
X28331Y97294D01*
X28275Y97249D01*
X28247Y97233D01*
X28232Y97215D01*
X28200Y97189D01*
X26876Y95866D01*
X25463Y94452D01*
X25335Y94452D01*
X25264Y94440D01*
X25193Y94439D01*
X25144Y94421D01*
X25092Y94412D01*
X25029Y94379D01*
X24961Y94354D01*
X24921Y94322D01*
X24875Y94297D01*
X24825Y94245D01*
X24769Y94200D01*
X24741Y94157D01*
X24705Y94119D01*
X24675Y94054D01*
X24636Y93993D01*
X24624Y93943D01*
X24602Y93896D01*
X24594Y93824D01*
X24576Y93755D01*
X24580Y93703D01*
X24575Y93651D01*
X24590Y93581D01*
X24596Y93510D01*
X24616Y93462D01*
X24627Y93411D01*
X24664Y93349D01*
X24692Y93283D01*
X24737Y93227D01*
X24753Y93200D01*
X24771Y93185D01*
X24797Y93152D01*
X25103Y92846D01*
X25103Y90123D01*
X23178Y88198D01*
X20455Y88198D01*
X18530Y90123D01*
X18530Y92437D01*
X18526Y92456D01*
X18529Y92476D01*
X18507Y92577D01*
X18490Y92679D01*
X18481Y92697D01*
X18476Y92717D01*
X18423Y92806D01*
X18375Y92897D01*
X18360Y92911D01*
X18350Y92928D01*
X18271Y92995D01*
X18196Y93066D01*
X18178Y93075D01*
X18163Y93088D01*
X18067Y93126D01*
X17973Y93170D01*
X17954Y93172D01*
X17935Y93180D01*
X17768Y93198D01*
X17086Y93198D01*
X15161Y95123D01*
X15161Y97846D01*
X17086Y99771D01*
X17400Y99771D01*
X17419Y99775D01*
X17439Y99772D01*
X17540Y99794D01*
X17642Y99811D01*
X17660Y99820D01*
X17679Y99825D01*
X17768Y99878D01*
X17860Y99926D01*
X17873Y99941D01*
X17891Y99951D01*
X17958Y100030D01*
X18029Y100105D01*
X18037Y100123D01*
X18050Y100138D01*
X18089Y100234D01*
X18133Y100328D01*
X18135Y100347D01*
X18142Y100366D01*
X18161Y100533D01*
X18161Y102482D01*
X18158Y102502D01*
X18160Y102522D01*
X18138Y102623D01*
X18121Y102725D01*
X18112Y102743D01*
X18108Y102762D01*
X18054Y102851D01*
X18006Y102942D01*
X17992Y102956D01*
X17981Y102973D01*
X17903Y103041D01*
X17828Y103112D01*
X17810Y103120D01*
X17794Y103133D01*
X17698Y103172D01*
X17605Y103215D01*
X17585Y103218D01*
X17566Y103225D01*
X17400Y103244D01*
X16949Y103244D01*
X15024Y105169D01*
X15024Y107892D01*
X16949Y109817D01*
X19672Y109817D01*
X21598Y107892D01*
X21598Y105533D01*
X21601Y105513D01*
X21599Y105493D01*
X21621Y105392D01*
X21637Y105290D01*
X21647Y105272D01*
X21651Y105253D01*
X21704Y105164D01*
X21752Y105073D01*
X21767Y105059D01*
X21777Y105042D01*
X21856Y104974D01*
X21931Y104903D01*
X21949Y104895D01*
X21964Y104882D01*
X22060Y104843D01*
X22154Y104800D01*
X22174Y104797D01*
X22192Y104790D01*
X22359Y104771D01*
X22809Y104771D01*
X24734Y102846D01*
X24734Y101311D01*
X24746Y101240D01*
X24748Y101168D01*
X24766Y101120D01*
X24774Y101068D01*
X24808Y101005D01*
X24832Y100937D01*
X24865Y100897D01*
X24889Y100851D01*
X24941Y100801D01*
X24986Y100745D01*
X25030Y100717D01*
X25068Y100681D01*
X25133Y100651D01*
X25193Y100612D01*
X25243Y100600D01*
X25291Y100578D01*
X25362Y100570D01*
X25431Y100552D01*
X25483Y100556D01*
X25535Y100551D01*
X25605Y100566D01*
X25677Y100572D01*
X25724Y100592D01*
X25775Y100603D01*
X25837Y100640D01*
X25903Y100668D01*
X25959Y100713D01*
X25987Y100729D01*
X26002Y100747D01*
X26034Y100773D01*
X26482Y101221D01*
X26536Y101295D01*
X26595Y101365D01*
X26607Y101395D01*
X26626Y101421D01*
X26653Y101508D01*
X26687Y101593D01*
X26691Y101634D01*
X26698Y101656D01*
X26697Y101688D01*
X26705Y101759D01*
X26705Y113527D01*
X26702Y113546D01*
X26704Y113566D01*
X26682Y113667D01*
X26666Y113769D01*
X26656Y113787D01*
X26652Y113806D01*
X26599Y113895D01*
X26550Y113987D01*
X26536Y114000D01*
X26526Y114018D01*
X26447Y114085D01*
X26372Y114156D01*
X26354Y114165D01*
X26339Y114177D01*
X26243Y114216D01*
X26149Y114260D01*
X26129Y114262D01*
X26111Y114269D01*
X25944Y114288D01*
X22560Y114288D01*
X20342Y116506D01*
X20342Y119643D01*
X22560Y121861D01*
X25087Y121861D01*
X25158Y121873D01*
X25229Y121875D01*
X25278Y121893D01*
X25330Y121901D01*
X25393Y121935D01*
X25460Y121959D01*
X25501Y121992D01*
X25547Y122016D01*
X25596Y122068D01*
X25652Y122113D01*
X25681Y122157D01*
X25717Y122195D01*
X25747Y122260D01*
X25785Y122320D01*
X25798Y122370D01*
X25820Y122418D01*
X25828Y122489D01*
X25846Y122558D01*
X25841Y122610D01*
X25847Y122662D01*
X25832Y122732D01*
X25826Y122804D01*
X25806Y122851D01*
X25795Y122902D01*
X25758Y122964D01*
X25730Y123030D01*
X25685Y123086D01*
X25669Y123114D01*
X25651Y123129D01*
X25625Y123161D01*
X19745Y129041D01*
X19745Y141471D01*
X19742Y141488D01*
X19744Y141505D01*
X19729Y141572D01*
X19723Y141652D01*
X19711Y141682D01*
X19705Y141714D01*
X19694Y141735D01*
X19692Y141745D01*
X19663Y141793D01*
X19663Y141794D01*
X19627Y141878D01*
X19601Y141910D01*
X19590Y141931D01*
X19568Y141952D01*
X19566Y141956D01*
X19561Y141960D01*
X19522Y142009D01*
X16267Y145265D01*
X16250Y145276D01*
X16238Y145292D01*
X16151Y145348D01*
X16067Y145408D01*
X16048Y145414D01*
X16031Y145425D01*
X15931Y145450D01*
X15832Y145480D01*
X15812Y145480D01*
X15792Y145485D01*
X15689Y145477D01*
X15586Y145474D01*
X15567Y145467D01*
X15547Y145466D01*
X15452Y145425D01*
X15355Y145390D01*
X15339Y145377D01*
X15321Y145369D01*
X15190Y145265D01*
X14825Y144900D01*
X14813Y144883D01*
X14798Y144871D01*
X14742Y144784D01*
X14682Y144700D01*
X14676Y144681D01*
X14665Y144664D01*
X14640Y144564D01*
X14609Y144465D01*
X14610Y144445D01*
X14605Y144426D01*
X14613Y144323D01*
X14616Y144219D01*
X14622Y144200D01*
X14624Y144180D01*
X14664Y144085D01*
X14700Y143988D01*
X14712Y143972D01*
X14720Y143954D01*
X14825Y143823D01*
X16287Y142361D01*
X16287Y139639D01*
X14361Y137713D01*
X11639Y137713D01*
X10608Y138744D01*
X10534Y138797D01*
X10464Y138857D01*
X10434Y138869D01*
X10408Y138888D01*
X10321Y138915D01*
X10236Y138949D01*
X10195Y138953D01*
X10173Y138960D01*
X10165Y138960D01*
X4967Y144158D01*
X4967Y151842D01*
X8904Y155779D01*
X8957Y155853D01*
X9017Y155922D01*
X9029Y155952D01*
X9048Y155979D01*
X9074Y156066D01*
X9109Y156150D01*
X9113Y156191D01*
X9120Y156214D01*
X9119Y156246D01*
X9127Y156317D01*
X9127Y156941D01*
X9116Y157012D01*
X9114Y157084D01*
X9096Y157133D01*
X9087Y157184D01*
X9054Y157247D01*
X9029Y157315D01*
X8997Y157355D01*
X8972Y157401D01*
X8920Y157451D01*
X8875Y157507D01*
X8832Y157535D01*
X8794Y157571D01*
X8729Y157601D01*
X8669Y157640D01*
X8618Y157653D01*
X8571Y157674D01*
X8500Y157682D01*
X8430Y157700D01*
X8378Y157696D01*
X8326Y157702D01*
X8256Y157686D01*
X8185Y157681D01*
X8137Y157660D01*
X8086Y157649D01*
X8024Y157613D01*
X7958Y157584D01*
X7903Y157540D01*
X7875Y157523D01*
X7860Y157505D01*
X7828Y157480D01*
X6482Y156134D01*
X3715Y156134D01*
X3673Y156164D01*
X3605Y156186D01*
X3540Y156216D01*
X3488Y156222D01*
X3438Y156237D01*
X3366Y156235D01*
X3295Y156243D01*
X3244Y156232D01*
X3192Y156231D01*
X3125Y156206D01*
X3055Y156191D01*
X3010Y156164D01*
X2961Y156146D01*
X2905Y156101D01*
X2844Y156064D01*
X2810Y156025D01*
X2769Y155992D01*
X2730Y155932D01*
X2684Y155878D01*
X2664Y155829D01*
X2636Y155786D01*
X2619Y155716D01*
X2592Y155649D01*
X2584Y155578D01*
X2576Y155547D01*
X2578Y155524D01*
X2573Y155483D01*
X2573Y117490D01*
X2592Y117375D01*
X2609Y117259D01*
X2612Y117253D01*
X2613Y117247D01*
X2667Y117145D01*
X2721Y117039D01*
X2725Y117035D01*
X2728Y117029D01*
X2812Y116950D01*
X2896Y116867D01*
X2903Y116864D01*
X2906Y116860D01*
X2923Y116852D01*
X3043Y116786D01*
X3759Y116490D01*
X4974Y115678D01*
X6007Y114645D01*
X6818Y113431D01*
X7377Y112081D01*
X7505Y111441D01*
X3335Y111441D01*
X3315Y111438D01*
X3295Y111440D01*
X3194Y111418D01*
X3092Y111401D01*
X3074Y111392D01*
X3055Y111388D01*
X2966Y111335D01*
X2874Y111286D01*
X2861Y111272D01*
X2844Y111262D01*
X2776Y111183D01*
X2705Y111108D01*
X2697Y111090D01*
X2684Y111075D01*
X2645Y110979D01*
X2601Y110885D01*
X2599Y110865D01*
X2592Y110847D01*
X2573Y110680D01*
X2573Y109156D01*
X2576Y109136D01*
X2574Y109116D01*
X2596Y109015D01*
X2613Y108913D01*
X2622Y108896D01*
X2627Y108876D01*
X2680Y108787D01*
X2728Y108696D01*
X2743Y108682D01*
X2753Y108665D01*
X2831Y108598D01*
X2906Y108526D01*
X2924Y108518D01*
X2940Y108505D01*
X3036Y108466D01*
X3130Y108423D01*
X3149Y108421D01*
X3168Y108413D01*
X3335Y108395D01*
X7505Y108395D01*
X7377Y107755D01*
X6872Y106534D01*
X6861Y106489D01*
X6842Y106448D01*
X6833Y106370D01*
X6815Y106294D01*
X6820Y106249D01*
X6815Y106203D01*
X6831Y106127D01*
X6839Y106050D01*
X6857Y106008D01*
X6867Y105963D01*
X6907Y105896D01*
X6939Y105825D01*
X6970Y105791D01*
X6993Y105752D01*
X7052Y105701D01*
X7105Y105644D01*
X7145Y105622D01*
X7180Y105592D01*
X7252Y105563D01*
X7320Y105525D01*
X7366Y105517D01*
X7408Y105500D01*
X7544Y105485D01*
X7563Y105481D01*
X7568Y105482D01*
X7575Y105481D01*
X10435Y105481D01*
X12653Y103263D01*
X12653Y100126D01*
X10690Y98163D01*
X10679Y98147D01*
X10663Y98135D01*
X10607Y98048D01*
X10547Y97964D01*
X10541Y97945D01*
X10530Y97928D01*
X10505Y97827D01*
X10475Y97729D01*
X10475Y97709D01*
X10470Y97689D01*
X10478Y97586D01*
X10481Y97483D01*
X10488Y97464D01*
X10489Y97444D01*
X10530Y97349D01*
X10565Y97252D01*
X10578Y97236D01*
X10586Y97218D01*
X10690Y97087D01*
X12493Y95284D01*
X12493Y92147D01*
X10275Y89929D01*
X7138Y89929D01*
X4932Y92135D01*
X4916Y92147D01*
X4903Y92162D01*
X4816Y92218D01*
X4732Y92279D01*
X4713Y92285D01*
X4696Y92295D01*
X4596Y92321D01*
X4497Y92351D01*
X4477Y92350D01*
X4458Y92355D01*
X4355Y92347D01*
X4251Y92345D01*
X4232Y92338D01*
X4212Y92336D01*
X4117Y92296D01*
X4020Y92260D01*
X4004Y92248D01*
X3986Y92240D01*
X3855Y92135D01*
X3728Y92008D01*
X3043Y91724D01*
X2943Y91662D01*
X2844Y91603D01*
X2840Y91598D01*
X2834Y91595D01*
X2759Y91504D01*
X2684Y91416D01*
X2681Y91410D01*
X2677Y91405D01*
X2636Y91297D01*
X2592Y91188D01*
X2591Y91180D01*
X2589Y91176D01*
X2588Y91157D01*
X2573Y91021D01*
X2573Y90715D01*
X2592Y90600D01*
X2609Y90484D01*
X2612Y90478D01*
X2613Y90472D01*
X2667Y90370D01*
X2721Y90265D01*
X2725Y90260D01*
X2728Y90255D01*
X2812Y90175D01*
X2896Y90093D01*
X2903Y90089D01*
X2906Y90085D01*
X2923Y90078D01*
X3043Y90012D01*
X3728Y89728D01*
X5457Y87999D01*
X6392Y85740D01*
X6392Y83295D01*
X5457Y81037D01*
X3728Y79308D01*
X3043Y79024D01*
X2943Y78962D01*
X2844Y78903D01*
X2840Y78898D01*
X2834Y78895D01*
X2759Y78804D01*
X2684Y78716D01*
X2681Y78710D01*
X2677Y78705D01*
X2636Y78597D01*
X2592Y78488D01*
X2591Y78480D01*
X2589Y78476D01*
X2588Y78457D01*
X2573Y78321D01*
X2573Y78015D01*
X2592Y77898D01*
X2609Y77784D01*
X2612Y77778D01*
X2613Y77772D01*
X2667Y77670D01*
X2721Y77565D01*
X2725Y77560D01*
X2728Y77555D01*
X2812Y77475D01*
X2896Y77393D01*
X2903Y77389D01*
X2906Y77385D01*
X2923Y77378D01*
X3043Y77312D01*
X3728Y77028D01*
X5457Y75299D01*
X6392Y73040D01*
X6392Y70595D01*
X5457Y68337D01*
X3728Y66608D01*
X3043Y66324D01*
X2943Y66262D01*
X2844Y66203D01*
X2840Y66198D01*
X2834Y66195D01*
X2759Y66104D01*
X2684Y66016D01*
X2681Y66010D01*
X2677Y66005D01*
X2636Y65897D01*
X2592Y65788D01*
X2591Y65780D01*
X2589Y65776D01*
X2588Y65757D01*
X2573Y65621D01*
X2573Y65315D01*
X2575Y65306D01*
X2574Y65301D01*
X2579Y65278D01*
X2592Y65200D01*
X2609Y65084D01*
X2612Y65078D01*
X2613Y65072D01*
X2667Y64970D01*
X2721Y64865D01*
X2725Y64860D01*
X2728Y64855D01*
X2812Y64775D01*
X2896Y64693D01*
X2903Y64689D01*
X2906Y64685D01*
X2923Y64678D01*
X3043Y64612D01*
X3728Y64328D01*
X5457Y62599D01*
X6392Y60340D01*
X6392Y57895D01*
X5457Y55637D01*
X3728Y53908D01*
X3043Y53624D01*
X2943Y53562D01*
X2844Y53503D01*
X2840Y53498D01*
X2834Y53495D01*
X2759Y53404D01*
X2684Y53316D01*
X2681Y53310D01*
X2677Y53305D01*
X2636Y53197D01*
X2592Y53088D01*
X2591Y53080D01*
X2589Y53076D01*
X2588Y53057D01*
X2573Y52921D01*
X2573Y52615D01*
X2592Y52500D01*
X2609Y52384D01*
X2612Y52378D01*
X2613Y52372D01*
X2667Y52270D01*
X2721Y52165D01*
X2725Y52160D01*
X2728Y52155D01*
X2812Y52075D01*
X2896Y51993D01*
X2903Y51989D01*
X2906Y51985D01*
X2923Y51978D01*
X3043Y51912D01*
X3728Y51628D01*
X5457Y49899D01*
X6392Y47640D01*
X6392Y45195D01*
X5457Y42937D01*
X3728Y41208D01*
X3043Y40924D01*
X2943Y40862D01*
X2941Y40861D01*
X2874Y40826D01*
X2864Y40815D01*
X2844Y40803D01*
X2840Y40798D01*
X2834Y40795D01*
X2761Y40706D01*
X2705Y40647D01*
X2698Y40633D01*
X2684Y40616D01*
X2681Y40610D01*
X2677Y40605D01*
X2639Y40504D01*
X2601Y40424D01*
X2599Y40407D01*
X2592Y40388D01*
X2591Y40380D01*
X2589Y40376D01*
X2588Y40357D01*
X2573Y40221D01*
X2573Y39915D01*
X2592Y39800D01*
X2609Y39684D01*
X2612Y39678D01*
X2613Y39672D01*
X2667Y39570D01*
X2721Y39465D01*
X2725Y39460D01*
X2728Y39455D01*
X2812Y39375D01*
X2896Y39293D01*
X2903Y39289D01*
X2906Y39285D01*
X2923Y39278D01*
X3043Y39212D01*
X3728Y38928D01*
X5457Y37199D01*
X6392Y34940D01*
X6392Y32495D01*
X5457Y30237D01*
X3728Y28508D01*
X3043Y28224D01*
X2943Y28162D01*
X2844Y28103D01*
X2840Y28098D01*
X2834Y28095D01*
X2759Y28004D01*
X2684Y27916D01*
X2681Y27910D01*
X2677Y27905D01*
X2636Y27797D01*
X2592Y27688D01*
X2591Y27680D01*
X2589Y27676D01*
X2588Y27657D01*
X2573Y27521D01*
X2573Y27215D01*
X2592Y27100D01*
X2609Y26984D01*
X2612Y26978D01*
X2613Y26972D01*
X2667Y26870D01*
X2721Y26765D01*
X2725Y26760D01*
X2728Y26755D01*
X2812Y26675D01*
X2896Y26593D01*
X2903Y26589D01*
X2906Y26585D01*
X2923Y26578D01*
X3043Y26512D01*
X3728Y26228D01*
X5457Y24499D01*
X6392Y22240D01*
X6392Y19685D01*
X6404Y19614D01*
X6406Y19542D01*
X6424Y19493D01*
X6432Y19442D01*
X6466Y19379D01*
X6490Y19311D01*
X6523Y19271D01*
X6547Y19225D01*
X6599Y19175D01*
X6644Y19119D01*
X6688Y19091D01*
X6726Y19055D01*
X6791Y19025D01*
X6851Y18986D01*
X6901Y18974D01*
X6949Y18952D01*
X7020Y18944D01*
X7089Y18926D01*
X7141Y18930D01*
X7193Y18925D01*
X7263Y18940D01*
X7335Y18945D01*
X7383Y18966D01*
X7433Y18977D01*
X7495Y19014D01*
X7561Y19042D01*
X7617Y19087D01*
X7645Y19103D01*
X7660Y19121D01*
X7692Y19147D01*
X7829Y19284D01*
X10967Y19284D01*
X13185Y17066D01*
X13185Y13929D01*
X10967Y11711D01*
X7829Y11711D01*
X5611Y13929D01*
X5611Y15853D01*
X5600Y15924D01*
X5598Y15996D01*
X5580Y16045D01*
X5571Y16096D01*
X5538Y16159D01*
X5513Y16227D01*
X5481Y16267D01*
X5456Y16313D01*
X5404Y16363D01*
X5360Y16419D01*
X5316Y16447D01*
X5278Y16483D01*
X5213Y16513D01*
X5153Y16552D01*
X5102Y16565D01*
X5055Y16586D01*
X4984Y16594D01*
X4914Y16612D01*
X4862Y16608D01*
X4811Y16614D01*
X4740Y16598D01*
X4669Y16593D01*
X4621Y16572D01*
X4570Y16561D01*
X4509Y16525D01*
X4443Y16496D01*
X4387Y16452D01*
X4359Y16435D01*
X4344Y16417D01*
X4312Y16392D01*
X3728Y15808D01*
X3043Y15524D01*
X2943Y15462D01*
X2844Y15403D01*
X2840Y15398D01*
X2834Y15395D01*
X2759Y15304D01*
X2684Y15216D01*
X2681Y15210D01*
X2677Y15205D01*
X2636Y15097D01*
X2592Y14988D01*
X2591Y14980D01*
X2589Y14976D01*
X2588Y14957D01*
X2573Y14821D01*
X2573Y1395D01*
X2576Y1376D01*
X2574Y1356D01*
X2596Y1255D01*
X2613Y1153D01*
X2622Y1135D01*
X2627Y1116D01*
X2680Y1027D01*
X2728Y935D01*
X2743Y922D01*
X2753Y905D01*
X2831Y837D01*
X2906Y766D01*
X2924Y758D01*
X2940Y745D01*
X3036Y706D01*
X3130Y662D01*
X3149Y660D01*
X3168Y653D01*
X3335Y634D01*
X23758Y634D01*
X23873Y653D01*
G37*
%LPC*%
G36*
X20478Y68700D02*
X20478Y68700D01*
X18552Y70626D01*
X18552Y71937D01*
X18549Y71956D01*
X18551Y71976D01*
X18529Y72077D01*
X18513Y72179D01*
X18503Y72197D01*
X18499Y72217D01*
X18446Y72306D01*
X18398Y72397D01*
X18383Y72411D01*
X18373Y72428D01*
X18294Y72495D01*
X18219Y72566D01*
X18201Y72575D01*
X18186Y72588D01*
X18090Y72626D01*
X17996Y72670D01*
X17976Y72672D01*
X17958Y72680D01*
X17791Y72698D01*
X16083Y72698D01*
X13864Y74916D01*
X13864Y78053D01*
X16083Y80271D01*
X19220Y80271D01*
X21438Y78053D01*
X21438Y76035D01*
X21441Y76015D01*
X21439Y75996D01*
X21461Y75894D01*
X21478Y75792D01*
X21487Y75775D01*
X21491Y75755D01*
X21544Y75666D01*
X21593Y75575D01*
X21607Y75561D01*
X21617Y75544D01*
X21696Y75477D01*
X21771Y75406D01*
X21789Y75397D01*
X21804Y75384D01*
X21900Y75345D01*
X21994Y75302D01*
X22014Y75300D01*
X22032Y75292D01*
X22199Y75274D01*
X23201Y75274D01*
X25126Y73348D01*
X25126Y70626D01*
X23201Y68700D01*
X20478Y68700D01*
G37*
%LPD*%
%LPC*%
G36*
X97436Y112911D02*
X97436Y112911D01*
X95218Y115129D01*
X95218Y118266D01*
X97436Y120484D01*
X100573Y120484D01*
X102791Y118266D01*
X102791Y115129D01*
X100573Y112911D01*
X97436Y112911D01*
G37*
%LPD*%
%LPC*%
G36*
X102879Y92758D02*
X102879Y92758D01*
X100661Y94976D01*
X100661Y98113D01*
X102879Y100331D01*
X106016Y100331D01*
X108234Y98113D01*
X108234Y94976D01*
X106016Y92758D01*
X102879Y92758D01*
G37*
%LPD*%
%LPC*%
G36*
X120630Y61864D02*
X120630Y61864D01*
X118412Y64082D01*
X118412Y67219D01*
X120630Y69437D01*
X123768Y69437D01*
X125986Y67219D01*
X125986Y64082D01*
X123768Y61864D01*
X120630Y61864D01*
G37*
%LPD*%
%LPC*%
G36*
X73810Y17108D02*
X73810Y17108D01*
X71592Y19326D01*
X71592Y22464D01*
X73810Y24682D01*
X76947Y24682D01*
X79165Y22464D01*
X79165Y19326D01*
X76947Y17108D01*
X73810Y17108D01*
G37*
%LPD*%
%LPC*%
G36*
X36680Y168385D02*
X36680Y168385D01*
X34754Y170310D01*
X34754Y173033D01*
X36680Y174958D01*
X39402Y174958D01*
X41328Y173033D01*
X41328Y170310D01*
X39402Y168385D01*
X36680Y168385D01*
G37*
%LPD*%
%LPC*%
G36*
X8639Y123713D02*
X8639Y123713D01*
X6713Y125639D01*
X6713Y128361D01*
X8639Y130287D01*
X11361Y130287D01*
X13287Y128361D01*
X13287Y125639D01*
X11361Y123713D01*
X8639Y123713D01*
G37*
%LPD*%
%LPC*%
G36*
X110086Y79198D02*
X110086Y79198D01*
X108161Y81123D01*
X108161Y83846D01*
X110086Y85771D01*
X112809Y85771D01*
X114734Y83846D01*
X114734Y81123D01*
X112809Y79198D01*
X110086Y79198D01*
G37*
%LPD*%
%LPC*%
G36*
X105639Y42713D02*
X105639Y42713D01*
X103713Y44639D01*
X103713Y47361D01*
X105639Y49287D01*
X108361Y49287D01*
X110287Y47361D01*
X110287Y44639D01*
X108361Y42713D01*
X105639Y42713D01*
G37*
%LPD*%
%LPC*%
G36*
X123639Y19447D02*
X123639Y19447D01*
X121713Y21372D01*
X121713Y24095D01*
X123639Y26020D01*
X126361Y26020D01*
X128287Y24095D01*
X128287Y21372D01*
X126361Y19447D01*
X123639Y19447D01*
G37*
%LPD*%
D10*
X149067Y72065D03*
X149067Y84765D03*
X149067Y59365D03*
X149067Y97465D03*
X149067Y46665D03*
X149067Y110165D03*
X149067Y33965D03*
X149067Y21265D03*
X80830Y-1511D03*
X93530Y-1511D03*
X68130Y-1511D03*
X106230Y-1511D03*
X55430Y-1511D03*
X118930Y-1511D03*
X42730Y-1511D03*
X30030Y-1511D03*
X247Y71818D03*
X247Y84518D03*
X247Y59118D03*
X247Y97218D03*
X247Y46418D03*
X247Y109918D03*
X247Y33718D03*
X247Y21018D03*
D11*
X84952Y43425D03*
D12*
X99005Y116698D03*
X104448Y96544D03*
X75378Y20895D03*
X17651Y76485D03*
X24129Y118075D03*
X122199Y65650D03*
X26498Y39845D03*
X93612Y38410D03*
D11*
X143500Y177981D03*
X137150Y177981D03*
X130800Y177981D03*
X124450Y177981D03*
X118100Y177981D03*
X102860Y177981D03*
X95240Y177981D03*
X87620Y177981D03*
X80000Y177981D03*
X72380Y177981D03*
X102917Y150329D03*
X96510Y150329D03*
X90491Y150159D03*
X87581Y155977D03*
X87327Y162733D03*
X102860Y156391D03*
X96510Y156391D03*
X92700Y162821D03*
X134610Y139881D03*
X128260Y139881D03*
X142230Y139881D03*
X134610Y167821D03*
X128260Y167821D03*
X140960Y167821D03*
X85080Y71301D03*
X85080Y84001D03*
X85080Y96701D03*
X74920Y96701D03*
X74920Y106861D03*
X62220Y106861D03*
X49520Y106861D03*
X39360Y96701D03*
X39360Y84001D03*
X39360Y71301D03*
X49520Y71301D03*
X49520Y84001D03*
X49520Y96701D03*
X49520Y61141D03*
X62220Y61141D03*
X74920Y61141D03*
X62220Y71301D03*
X62220Y84001D03*
X62220Y96701D03*
X74920Y84001D03*
X74920Y71301D03*
X62700Y132382D03*
X62700Y138907D03*
X62742Y145944D03*
X62901Y153840D03*
X72374Y167414D03*
X79210Y125449D03*
X71320Y125449D03*
X62633Y125411D03*
X108148Y127463D03*
X118408Y127463D03*
X143877Y127529D03*
X117350Y92450D03*
D12*
X22678Y45326D03*
D11*
X143877Y118529D03*
X126877Y127529D03*
X134877Y127529D03*
X132782Y64559D03*
X32081Y159725D03*
X98842Y127568D03*
X117542Y71487D03*
X72370Y172814D03*
X63008Y160836D03*
X17425Y130856D03*
X65380Y177981D03*
X58380Y177981D03*
X51380Y177981D03*
X45243Y177981D03*
X39128Y177981D03*
X6128Y175981D03*
X65370Y172814D03*
X58370Y172814D03*
X51370Y172814D03*
X45370Y172814D03*
X65374Y167414D03*
X58374Y167414D03*
X51374Y167414D03*
X45374Y167414D03*
X45374Y161414D03*
X51374Y161414D03*
X38374Y161414D03*
X116877Y8529D03*
X143877Y3029D03*
X5377Y3029D03*
X18966Y160478D03*
X125000Y22734D03*
D12*
X9398Y15497D03*
X8866Y101695D03*
X8707Y93716D03*
D11*
X10000Y127000D03*
X31315Y44082D03*
X27000Y51000D03*
X21816Y91485D03*
X21839Y71987D03*
X35802Y39638D03*
X41752Y40560D03*
X47432Y42189D03*
X52605Y39189D03*
X30448Y127485D03*
X38041Y171671D03*
X58000Y43000D03*
X62641Y39094D03*
X68448Y40485D03*
X107000Y46000D03*
X111448Y82485D03*
X18311Y106530D03*
X26023Y131881D03*
X21448Y101485D03*
X5121Y159421D03*
X18448Y96485D03*
D13*
X24621Y96485D02*
X28738Y100602D01*
X24621Y96485D02*
X18448Y96485D01*
X28738Y100602D02*
X28738Y122923D01*
D11*
X13352Y148074D03*
D13*
X21778Y129883D02*
X28738Y122923D01*
X21778Y142628D02*
X16332Y148074D01*
X13352Y148074D01*
X21778Y142628D02*
X21778Y129883D01*
D11*
X11160Y159960D03*
X13000Y141000D03*
D13*
X11000Y141000D01*
X7000Y145000D01*
X7000Y151000D01*
X11160Y155160D02*
X11160Y159960D01*
X11160Y155160D02*
X7000Y151000D01*
D11*
X35931Y124746D03*
D13*
X35931Y120931D01*
X31532Y116532D01*
X31532Y55468D02*
X39000Y48000D01*
X31532Y55468D02*
X31532Y116532D01*
X39000Y48000D02*
X75000Y48000D01*
X76000Y48000D01*
D11*
X101000Y12000D03*
D13*
X93000Y48000D02*
X76000Y48000D01*
X101000Y40000D02*
X101000Y12000D01*
X101000Y40000D02*
X93000Y48000D01*
M02*
