G04 EAGLE Gerber RS-274X export*
G75*
%MOMM*%
%FSLAX34Y34*%
%LPD*%
%INTop Copper*%
%IPPOS*%
%AMOC8*
5,1,8,0,0,1.08239X$1,22.5*%
G01*
%ADD10R,0.600000X0.240000*%
%ADD11R,0.240000X0.600000*%
%ADD12R,5.150000X5.150000*%
%ADD13C,0.500000*%
%ADD14C,0.280800*%
%ADD15C,0.500000*%
%ADD16C,0.402900*%
%ADD17R,0.950000X0.850000*%
%ADD18C,0.270000*%
%ADD19R,0.500000X0.500000*%
%ADD20R,1.050000X2.200000*%
%ADD21R,1.000000X0.800000*%
%ADD22C,1.016000*%
%ADD23R,1.100000X0.600000*%
%ADD24R,0.350000X0.560000*%
%ADD25R,1.600000X0.200000*%
%ADD26C,0.300000*%
%ADD27C,0.152400*%
%ADD28C,0.450000*%
%ADD29C,0.254000*%
%ADD30C,0.406400*%
%ADD31C,0.304800*%
%ADD32C,0.503200*%

G36*
X134321Y1853D02*
X134321Y1853D01*
X134341Y1851D01*
X134442Y1873D01*
X134545Y1890D01*
X134562Y1899D01*
X134582Y1903D01*
X134671Y1956D01*
X134762Y2005D01*
X134776Y2019D01*
X134793Y2029D01*
X134860Y2108D01*
X134931Y2183D01*
X134940Y2201D01*
X134953Y2216D01*
X134991Y2312D01*
X135035Y2406D01*
X135037Y2426D01*
X135045Y2444D01*
X135063Y2611D01*
X135063Y25711D01*
X135807Y26455D01*
X147360Y26455D01*
X147763Y26052D01*
X147822Y26010D01*
X147874Y25961D01*
X147921Y25939D01*
X147963Y25909D01*
X148032Y25887D01*
X148097Y25857D01*
X148149Y25852D01*
X148198Y25836D01*
X148270Y25838D01*
X148341Y25830D01*
X148392Y25841D01*
X148444Y25843D01*
X148511Y25867D01*
X148582Y25882D01*
X148626Y25909D01*
X148675Y25927D01*
X148731Y25972D01*
X148793Y26009D01*
X148827Y26048D01*
X148867Y26081D01*
X148906Y26141D01*
X148953Y26195D01*
X148972Y26244D01*
X149000Y26288D01*
X149018Y26357D01*
X149045Y26424D01*
X149052Y26495D01*
X149060Y26526D01*
X149058Y26549D01*
X149063Y26590D01*
X149063Y34065D01*
X149051Y34136D01*
X149051Y34161D01*
X149111Y34166D01*
X149159Y34186D01*
X149210Y34197D01*
X149272Y34234D01*
X149338Y34262D01*
X149394Y34307D01*
X149421Y34323D01*
X149436Y34341D01*
X149469Y34367D01*
X149807Y34705D01*
X150683Y34705D01*
X150703Y34709D01*
X150723Y34707D01*
X150824Y34729D01*
X150926Y34745D01*
X150943Y34755D01*
X150963Y34759D01*
X151052Y34812D01*
X151143Y34860D01*
X151157Y34875D01*
X151174Y34885D01*
X151241Y34964D01*
X151313Y35039D01*
X151321Y35057D01*
X151334Y35072D01*
X151373Y35168D01*
X151416Y35262D01*
X151418Y35281D01*
X151426Y35300D01*
X151444Y35467D01*
X151444Y40707D01*
X152980Y42242D01*
X157851Y42242D01*
X159197Y40896D01*
X159213Y40884D01*
X159225Y40868D01*
X159286Y40829D01*
X159339Y40784D01*
X159369Y40772D01*
X159397Y40752D01*
X159416Y40746D01*
X159432Y40735D01*
X159506Y40717D01*
X159567Y40692D01*
X159605Y40688D01*
X159632Y40680D01*
X159652Y40680D01*
X159671Y40675D01*
X159699Y40677D01*
X159734Y40674D01*
X159736Y40674D01*
X159800Y40684D01*
X159878Y40686D01*
X159896Y40693D01*
X159916Y40694D01*
X159949Y40708D01*
X159979Y40713D01*
X160038Y40745D01*
X160109Y40770D01*
X160124Y40783D01*
X160142Y40791D01*
X160176Y40818D01*
X160196Y40828D01*
X160218Y40851D01*
X160273Y40896D01*
X160625Y41247D01*
X160682Y41326D01*
X160743Y41400D01*
X160753Y41425D01*
X160769Y41447D01*
X160797Y41539D01*
X160832Y41630D01*
X160835Y41663D01*
X160841Y41682D01*
X160840Y41715D01*
X160848Y41797D01*
X160800Y45074D01*
X160785Y45158D01*
X160778Y45244D01*
X160764Y45279D01*
X160757Y45316D01*
X160716Y45391D01*
X160682Y45470D01*
X160651Y45508D01*
X160639Y45532D01*
X160616Y45552D01*
X160577Y45601D01*
X160077Y46101D01*
X160077Y51572D01*
X161613Y53107D01*
X166484Y53107D01*
X167830Y51761D01*
X167846Y51749D01*
X167859Y51734D01*
X167946Y51677D01*
X168030Y51617D01*
X168049Y51611D01*
X168066Y51601D01*
X168166Y51575D01*
X168265Y51545D01*
X168285Y51545D01*
X168304Y51541D01*
X168407Y51549D01*
X168511Y51551D01*
X168529Y51558D01*
X168549Y51560D01*
X168644Y51600D01*
X168742Y51636D01*
X168757Y51648D01*
X168776Y51656D01*
X168907Y51761D01*
X169185Y52039D01*
X169237Y52112D01*
X169295Y52179D01*
X169308Y52211D01*
X169329Y52239D01*
X169355Y52324D01*
X169389Y52406D01*
X169394Y52451D01*
X169401Y52474D01*
X169400Y52506D01*
X169408Y52573D01*
X169427Y55648D01*
X169412Y55740D01*
X169405Y55833D01*
X169393Y55861D01*
X169388Y55891D01*
X169345Y55974D01*
X169308Y56060D01*
X169285Y56089D01*
X169275Y56109D01*
X169251Y56131D01*
X169204Y56190D01*
X168481Y56913D01*
X168481Y61784D01*
X169827Y63130D01*
X169839Y63147D01*
X169854Y63159D01*
X169911Y63246D01*
X169971Y63330D01*
X169977Y63349D01*
X169987Y63366D01*
X170013Y63466D01*
X170043Y63565D01*
X170043Y63585D01*
X170047Y63604D01*
X170039Y63707D01*
X170037Y63811D01*
X170030Y63830D01*
X170028Y63850D01*
X169988Y63944D01*
X169952Y64042D01*
X169940Y64058D01*
X169932Y64076D01*
X169827Y64207D01*
X169014Y65020D01*
X168941Y65073D01*
X168873Y65131D01*
X168842Y65144D01*
X168814Y65164D01*
X168728Y65190D01*
X168645Y65224D01*
X168602Y65229D01*
X168579Y65236D01*
X168547Y65236D01*
X168479Y65243D01*
X166112Y65254D01*
X166020Y65239D01*
X165928Y65232D01*
X165900Y65220D01*
X165869Y65215D01*
X165787Y65172D01*
X165702Y65136D01*
X165671Y65111D01*
X165651Y65101D01*
X165629Y65078D01*
X165571Y65031D01*
X164842Y64302D01*
X159971Y64302D01*
X158624Y65648D01*
X158608Y65660D01*
X158596Y65675D01*
X158508Y65731D01*
X158425Y65792D01*
X158406Y65797D01*
X158389Y65808D01*
X158288Y65834D01*
X158190Y65864D01*
X158170Y65863D01*
X158150Y65868D01*
X158047Y65860D01*
X157944Y65858D01*
X157925Y65851D01*
X157905Y65849D01*
X157810Y65809D01*
X157713Y65773D01*
X157697Y65761D01*
X157679Y65753D01*
X157548Y65648D01*
X156202Y64302D01*
X154592Y64302D01*
X154493Y64286D01*
X154392Y64275D01*
X154372Y64266D01*
X154350Y64262D01*
X154261Y64215D01*
X154169Y64173D01*
X154147Y64155D01*
X154132Y64147D01*
X154110Y64123D01*
X154040Y64065D01*
X148279Y57997D01*
X148233Y57929D01*
X148180Y57868D01*
X148164Y57828D01*
X148140Y57793D01*
X148118Y57715D01*
X148088Y57639D01*
X148082Y57584D01*
X148074Y57557D01*
X148076Y57528D01*
X148069Y57473D01*
X148069Y55656D01*
X146534Y54120D01*
X141663Y54120D01*
X140317Y55467D01*
X140301Y55478D01*
X140288Y55494D01*
X140201Y55550D01*
X140117Y55610D01*
X140098Y55616D01*
X140081Y55627D01*
X139981Y55652D01*
X139882Y55683D01*
X139862Y55682D01*
X139843Y55687D01*
X139740Y55679D01*
X139636Y55676D01*
X139617Y55669D01*
X139598Y55668D01*
X139503Y55627D01*
X139405Y55592D01*
X139390Y55579D01*
X139371Y55571D01*
X139240Y55467D01*
X138984Y55211D01*
X138931Y55137D01*
X138872Y55067D01*
X138860Y55037D01*
X138841Y55011D01*
X138814Y54924D01*
X138780Y54839D01*
X138775Y54798D01*
X138768Y54776D01*
X138769Y54744D01*
X138761Y54672D01*
X138761Y51875D01*
X138776Y51785D01*
X138783Y51694D01*
X138796Y51664D01*
X138801Y51632D01*
X138844Y51551D01*
X138880Y51467D01*
X138905Y51435D01*
X138916Y51415D01*
X138940Y51392D01*
X138984Y51336D01*
X139240Y51080D01*
X139256Y51069D01*
X139269Y51053D01*
X139356Y50997D01*
X139440Y50937D01*
X139459Y50931D01*
X139476Y50920D01*
X139576Y50895D01*
X139675Y50864D01*
X139695Y50865D01*
X139714Y50860D01*
X139817Y50868D01*
X139921Y50871D01*
X139940Y50878D01*
X139960Y50879D01*
X140054Y50920D01*
X140152Y50955D01*
X140168Y50968D01*
X140186Y50976D01*
X140317Y51080D01*
X141663Y52427D01*
X146534Y52427D01*
X148069Y50891D01*
X148069Y45420D01*
X147660Y45011D01*
X147617Y44951D01*
X147576Y44908D01*
X147567Y44890D01*
X147543Y44861D01*
X147533Y44834D01*
X147516Y44811D01*
X147488Y44721D01*
X147486Y44714D01*
X147472Y44685D01*
X147471Y44677D01*
X147454Y44632D01*
X147450Y44596D01*
X147444Y44576D01*
X147445Y44543D01*
X147437Y44465D01*
X147465Y41492D01*
X147480Y41405D01*
X147487Y41318D01*
X147501Y41285D01*
X147507Y41249D01*
X147549Y41172D01*
X147583Y41092D01*
X147612Y41056D01*
X147624Y41033D01*
X147647Y41012D01*
X147688Y40961D01*
X148169Y40480D01*
X148169Y34905D01*
X148181Y34834D01*
X148181Y34809D01*
X148121Y34804D01*
X148073Y34784D01*
X148022Y34773D01*
X147960Y34736D01*
X147894Y34708D01*
X147838Y34663D01*
X147811Y34647D01*
X147796Y34629D01*
X147763Y34603D01*
X146634Y33474D01*
X141763Y33474D01*
X140228Y35009D01*
X140228Y40480D01*
X140637Y40889D01*
X140692Y40966D01*
X140711Y40988D01*
X140728Y41007D01*
X140731Y41012D01*
X140753Y41039D01*
X140764Y41066D01*
X140781Y41089D01*
X140808Y41179D01*
X140832Y41230D01*
X140833Y41243D01*
X140843Y41268D01*
X140847Y41304D01*
X140853Y41324D01*
X140852Y41357D01*
X140860Y41435D01*
X140832Y44408D01*
X140817Y44495D01*
X140810Y44582D01*
X140796Y44615D01*
X140790Y44651D01*
X140748Y44728D01*
X140714Y44809D01*
X140685Y44845D01*
X140672Y44867D01*
X140650Y44888D01*
X140609Y44940D01*
X140317Y45231D01*
X140301Y45243D01*
X140288Y45258D01*
X140201Y45315D01*
X140117Y45375D01*
X140098Y45381D01*
X140081Y45391D01*
X139981Y45417D01*
X139882Y45447D01*
X139862Y45447D01*
X139843Y45452D01*
X139740Y45443D01*
X139636Y45441D01*
X139617Y45434D01*
X139598Y45432D01*
X139503Y45392D01*
X139405Y45356D01*
X139390Y45344D01*
X139371Y45336D01*
X139240Y45231D01*
X137894Y43885D01*
X133023Y43885D01*
X131488Y45420D01*
X131488Y50891D01*
X131933Y51336D01*
X131986Y51410D01*
X132046Y51480D01*
X132058Y51510D01*
X132076Y51536D01*
X132103Y51623D01*
X132137Y51708D01*
X132142Y51749D01*
X132149Y51771D01*
X132148Y51803D01*
X132156Y51875D01*
X132156Y54672D01*
X132141Y54762D01*
X132134Y54853D01*
X132121Y54883D01*
X132116Y54915D01*
X132073Y54996D01*
X132038Y55080D01*
X132012Y55112D01*
X132001Y55132D01*
X131978Y55155D01*
X131933Y55211D01*
X131707Y55437D01*
X131632Y55490D01*
X131562Y55550D01*
X131533Y55562D01*
X131507Y55580D01*
X131419Y55607D01*
X131334Y55642D01*
X131294Y55646D01*
X131272Y55653D01*
X131240Y55652D01*
X131167Y55660D01*
X121004Y55643D01*
X120989Y55640D01*
X119531Y55640D01*
X119530Y55640D01*
X118374Y55639D01*
X118215Y55797D01*
X118141Y55850D01*
X118072Y55910D01*
X118042Y55922D01*
X118015Y55941D01*
X117928Y55968D01*
X117844Y56002D01*
X117803Y56006D01*
X117780Y56013D01*
X117748Y56012D01*
X117677Y56020D01*
X116206Y56020D01*
X116186Y56017D01*
X116166Y56019D01*
X116065Y55997D01*
X115963Y55980D01*
X115946Y55971D01*
X115926Y55967D01*
X115837Y55914D01*
X115746Y55865D01*
X115732Y55851D01*
X115715Y55841D01*
X115648Y55762D01*
X115576Y55687D01*
X115568Y55669D01*
X115555Y55654D01*
X115516Y55558D01*
X115473Y55464D01*
X115471Y55444D01*
X115463Y55426D01*
X115445Y55259D01*
X115445Y53868D01*
X115456Y53797D01*
X115458Y53725D01*
X115476Y53676D01*
X115484Y53625D01*
X115518Y53561D01*
X115543Y53494D01*
X115575Y53453D01*
X115599Y53407D01*
X115651Y53358D01*
X115696Y53302D01*
X115740Y53274D01*
X115778Y53238D01*
X115843Y53208D01*
X115903Y53169D01*
X115954Y53156D01*
X116001Y53134D01*
X116072Y53127D01*
X116142Y53109D01*
X116194Y53113D01*
X116245Y53107D01*
X116315Y53123D01*
X116387Y53128D01*
X116435Y53149D01*
X116486Y53160D01*
X116547Y53196D01*
X116613Y53224D01*
X116620Y53230D01*
X119781Y53230D01*
X122000Y51011D01*
X122000Y48359D01*
X122003Y48339D01*
X122001Y48319D01*
X122023Y48218D01*
X122039Y48116D01*
X122049Y48098D01*
X122053Y48079D01*
X122106Y47990D01*
X122154Y47898D01*
X122169Y47885D01*
X122179Y47868D01*
X122258Y47800D01*
X122333Y47729D01*
X122351Y47721D01*
X122366Y47708D01*
X122462Y47669D01*
X122556Y47625D01*
X122576Y47623D01*
X122594Y47616D01*
X122761Y47597D01*
X125396Y47597D01*
X126962Y46031D01*
X126962Y41223D01*
X125396Y39656D01*
X119988Y39656D01*
X119035Y40609D01*
X118961Y40662D01*
X118891Y40721D01*
X118861Y40734D01*
X118835Y40752D01*
X118748Y40779D01*
X118663Y40813D01*
X118622Y40818D01*
X118600Y40825D01*
X118568Y40824D01*
X118496Y40832D01*
X117295Y40832D01*
X117205Y40817D01*
X117114Y40810D01*
X117084Y40797D01*
X117052Y40792D01*
X116972Y40749D01*
X116888Y40714D01*
X116856Y40688D01*
X116835Y40677D01*
X116813Y40654D01*
X116757Y40609D01*
X115699Y39551D01*
X110291Y39551D01*
X109100Y40742D01*
X109042Y40784D01*
X108990Y40833D01*
X108943Y40855D01*
X108900Y40885D01*
X108832Y40907D01*
X108767Y40937D01*
X108715Y40943D01*
X108665Y40958D01*
X108594Y40956D01*
X108522Y40964D01*
X108472Y40953D01*
X108419Y40951D01*
X108352Y40927D01*
X108282Y40912D01*
X108237Y40885D01*
X108188Y40867D01*
X108132Y40822D01*
X108071Y40785D01*
X108037Y40746D01*
X107996Y40713D01*
X107958Y40653D01*
X107911Y40599D01*
X107892Y40550D01*
X107863Y40506D01*
X107846Y40437D01*
X107819Y40370D01*
X107811Y40299D01*
X107803Y40268D01*
X107805Y40245D01*
X107801Y40204D01*
X107801Y34528D01*
X107815Y34437D01*
X107822Y34347D01*
X107835Y34317D01*
X107840Y34285D01*
X107883Y34204D01*
X107919Y34120D01*
X107944Y34088D01*
X107955Y34067D01*
X107979Y34045D01*
X108024Y33989D01*
X110876Y31137D01*
X110876Y29186D01*
X110879Y29166D01*
X110877Y29146D01*
X110899Y29045D01*
X110915Y28943D01*
X110925Y28926D01*
X110929Y28906D01*
X110982Y28817D01*
X111031Y28726D01*
X111045Y28712D01*
X111055Y28695D01*
X111134Y28628D01*
X111209Y28556D01*
X111227Y28548D01*
X111242Y28535D01*
X111338Y28496D01*
X111432Y28453D01*
X111452Y28451D01*
X111470Y28443D01*
X111637Y28425D01*
X114119Y28425D01*
X114864Y27680D01*
X114864Y25698D01*
X114867Y25678D01*
X114865Y25658D01*
X114887Y25557D01*
X114903Y25455D01*
X114913Y25438D01*
X114917Y25418D01*
X114970Y25329D01*
X115019Y25238D01*
X115033Y25224D01*
X115043Y25207D01*
X115122Y25140D01*
X115197Y25068D01*
X115215Y25060D01*
X115230Y25047D01*
X115326Y25008D01*
X115420Y24965D01*
X115440Y24963D01*
X115458Y24955D01*
X115625Y24937D01*
X117622Y24937D01*
X117712Y24951D01*
X117803Y24959D01*
X117833Y24971D01*
X117865Y24976D01*
X117945Y25019D01*
X118029Y25055D01*
X118061Y25081D01*
X118082Y25091D01*
X118104Y25115D01*
X118160Y25160D01*
X119251Y26251D01*
X124723Y26251D01*
X126258Y24716D01*
X126258Y19845D01*
X124723Y18309D01*
X119251Y18309D01*
X117716Y19845D01*
X117716Y20110D01*
X117713Y20130D01*
X117715Y20149D01*
X117693Y20251D01*
X117676Y20353D01*
X117667Y20370D01*
X117663Y20390D01*
X117610Y20479D01*
X117561Y20570D01*
X117547Y20584D01*
X117537Y20601D01*
X117458Y20668D01*
X117383Y20739D01*
X117365Y20748D01*
X117350Y20761D01*
X117254Y20800D01*
X117160Y20843D01*
X117140Y20845D01*
X117122Y20853D01*
X116955Y20871D01*
X115625Y20871D01*
X115605Y20868D01*
X115586Y20870D01*
X115484Y20848D01*
X115382Y20831D01*
X115365Y20822D01*
X115345Y20818D01*
X115256Y20765D01*
X115165Y20716D01*
X115151Y20702D01*
X115134Y20692D01*
X115067Y20613D01*
X114995Y20538D01*
X114987Y20520D01*
X114974Y20505D01*
X114935Y20409D01*
X114892Y20315D01*
X114890Y20295D01*
X114882Y20277D01*
X114864Y20110D01*
X114864Y18128D01*
X114119Y17383D01*
X103886Y17383D01*
X103796Y17368D01*
X103705Y17361D01*
X103675Y17349D01*
X103643Y17343D01*
X103563Y17301D01*
X103479Y17265D01*
X103447Y17239D01*
X103426Y17228D01*
X103404Y17205D01*
X103348Y17160D01*
X100587Y14399D01*
X100534Y14325D01*
X100474Y14256D01*
X100462Y14226D01*
X100443Y14199D01*
X100416Y14113D01*
X100382Y14028D01*
X100378Y13987D01*
X100371Y13964D01*
X100372Y13932D01*
X100364Y13861D01*
X100364Y6574D01*
X100357Y6564D01*
X100343Y6521D01*
X100321Y6480D01*
X100307Y6403D01*
X100284Y6329D01*
X100285Y6283D01*
X100277Y6238D01*
X100289Y6161D01*
X100291Y6083D01*
X100306Y6040D01*
X100313Y5995D01*
X100348Y5925D01*
X100375Y5852D01*
X100404Y5816D01*
X100425Y5776D01*
X100480Y5721D01*
X100529Y5660D01*
X100567Y5635D01*
X100600Y5603D01*
X100720Y5537D01*
X100736Y5527D01*
X100741Y5526D01*
X100747Y5522D01*
X102577Y4764D01*
X104364Y2978D01*
X104627Y2343D01*
X104664Y2282D01*
X104693Y2217D01*
X104729Y2179D01*
X104756Y2134D01*
X104811Y2089D01*
X104860Y2036D01*
X104905Y2011D01*
X104946Y1978D01*
X105013Y1952D01*
X105075Y1917D01*
X105127Y1908D01*
X105175Y1889D01*
X105247Y1886D01*
X105317Y1874D01*
X105369Y1881D01*
X105421Y1879D01*
X105490Y1899D01*
X105561Y1909D01*
X105607Y1933D01*
X105657Y1947D01*
X105716Y1988D01*
X105780Y2021D01*
X105816Y2058D01*
X105859Y2088D01*
X105902Y2145D01*
X105952Y2196D01*
X105987Y2259D01*
X106006Y2285D01*
X106013Y2307D01*
X106033Y2343D01*
X106296Y2978D01*
X108082Y4764D01*
X110417Y5731D01*
X112943Y5731D01*
X115277Y4764D01*
X117064Y2978D01*
X117336Y2320D01*
X117398Y2220D01*
X117458Y2120D01*
X117463Y2116D01*
X117466Y2111D01*
X117556Y2036D01*
X117645Y1960D01*
X117651Y1958D01*
X117655Y1954D01*
X117764Y1912D01*
X117873Y1868D01*
X117880Y1867D01*
X117885Y1866D01*
X117903Y1865D01*
X118040Y1850D01*
X134302Y1850D01*
X134321Y1853D01*
G37*
G36*
X16535Y1869D02*
X16535Y1869D01*
X16651Y1886D01*
X16657Y1889D01*
X16663Y1890D01*
X16765Y1944D01*
X16870Y1997D01*
X16875Y2002D01*
X16880Y2005D01*
X16960Y2089D01*
X17042Y2173D01*
X17046Y2179D01*
X17049Y2183D01*
X17057Y2200D01*
X17123Y2320D01*
X17396Y2978D01*
X19182Y4764D01*
X21517Y5731D01*
X24043Y5731D01*
X26270Y4809D01*
X26383Y4782D01*
X26497Y4754D01*
X26503Y4754D01*
X26509Y4753D01*
X26626Y4764D01*
X26742Y4773D01*
X26748Y4775D01*
X26754Y4776D01*
X26862Y4824D01*
X26968Y4869D01*
X26974Y4874D01*
X26979Y4876D01*
X26992Y4889D01*
X27099Y4974D01*
X35057Y12932D01*
X35099Y12990D01*
X35148Y13042D01*
X35170Y13089D01*
X35201Y13132D01*
X35222Y13200D01*
X35252Y13265D01*
X35258Y13317D01*
X35273Y13367D01*
X35271Y13438D01*
X35279Y13510D01*
X35268Y13560D01*
X35267Y13613D01*
X35242Y13680D01*
X35227Y13750D01*
X35200Y13795D01*
X35182Y13844D01*
X35137Y13900D01*
X35101Y13961D01*
X35061Y13995D01*
X35028Y14036D01*
X34968Y14074D01*
X34914Y14121D01*
X34865Y14140D01*
X34822Y14169D01*
X34752Y14186D01*
X34686Y14213D01*
X34614Y14221D01*
X34583Y14229D01*
X34560Y14227D01*
X34519Y14231D01*
X29559Y14231D01*
X28201Y15589D01*
X28185Y15601D01*
X28173Y15616D01*
X28086Y15672D01*
X28002Y15733D01*
X27983Y15739D01*
X27966Y15749D01*
X27865Y15775D01*
X27767Y15805D01*
X27747Y15805D01*
X27727Y15809D01*
X27624Y15801D01*
X27521Y15799D01*
X27502Y15792D01*
X27482Y15790D01*
X27387Y15750D01*
X27290Y15714D01*
X27274Y15702D01*
X27256Y15694D01*
X27125Y15589D01*
X25619Y14083D01*
X25566Y14009D01*
X25506Y13940D01*
X25494Y13910D01*
X25475Y13883D01*
X25449Y13796D01*
X25414Y13712D01*
X25410Y13671D01*
X25403Y13648D01*
X25404Y13616D01*
X25396Y13545D01*
X25396Y12899D01*
X25411Y12808D01*
X25418Y12718D01*
X25430Y12688D01*
X25436Y12656D01*
X25478Y12575D01*
X25514Y12491D01*
X25521Y12483D01*
X25521Y9542D01*
X23458Y7479D01*
X20542Y7479D01*
X20272Y7749D01*
X20198Y7802D01*
X20128Y7862D01*
X20098Y7874D01*
X20072Y7893D01*
X19985Y7920D01*
X19900Y7954D01*
X19859Y7958D01*
X19837Y7965D01*
X19805Y7964D01*
X19733Y7972D01*
X17560Y7972D01*
X17470Y7958D01*
X17379Y7950D01*
X17349Y7938D01*
X17317Y7933D01*
X17236Y7890D01*
X17152Y7854D01*
X17120Y7828D01*
X17100Y7817D01*
X17077Y7794D01*
X17021Y7749D01*
X15306Y6034D01*
X9899Y6034D01*
X8332Y7601D01*
X8332Y12409D01*
X9690Y13767D01*
X9701Y13783D01*
X9717Y13795D01*
X9773Y13883D01*
X9833Y13966D01*
X9839Y13985D01*
X9850Y14002D01*
X9875Y14103D01*
X9905Y14202D01*
X9905Y14221D01*
X9910Y14241D01*
X9902Y14344D01*
X9899Y14447D01*
X9892Y14466D01*
X9891Y14486D01*
X9850Y14581D01*
X9815Y14678D01*
X9802Y14694D01*
X9794Y14712D01*
X9690Y14843D01*
X8332Y16201D01*
X8332Y21009D01*
X10037Y22715D01*
X10067Y22731D01*
X10117Y22783D01*
X10173Y22827D01*
X10201Y22871D01*
X10237Y22909D01*
X10267Y22974D01*
X10306Y23034D01*
X10319Y23085D01*
X10340Y23132D01*
X10348Y23203D01*
X10366Y23273D01*
X10362Y23325D01*
X10368Y23376D01*
X10352Y23447D01*
X10347Y23518D01*
X10326Y23566D01*
X10315Y23617D01*
X10279Y23678D01*
X10250Y23744D01*
X10206Y23800D01*
X10189Y23828D01*
X10171Y23843D01*
X10146Y23875D01*
X9479Y24542D01*
X9479Y27458D01*
X11542Y29521D01*
X14458Y29521D01*
X16521Y27458D01*
X16521Y24542D01*
X15469Y23490D01*
X15457Y23474D01*
X15442Y23461D01*
X15386Y23374D01*
X15325Y23290D01*
X15319Y23271D01*
X15309Y23254D01*
X15283Y23154D01*
X15253Y23055D01*
X15253Y23035D01*
X15249Y23016D01*
X15257Y22913D01*
X15259Y22809D01*
X15266Y22790D01*
X15268Y22771D01*
X15308Y22676D01*
X15344Y22578D01*
X15356Y22562D01*
X15364Y22544D01*
X15469Y22413D01*
X16873Y21009D01*
X16873Y16201D01*
X15515Y14843D01*
X15504Y14827D01*
X15488Y14815D01*
X15432Y14727D01*
X15372Y14644D01*
X15366Y14625D01*
X15355Y14608D01*
X15330Y14507D01*
X15299Y14408D01*
X15300Y14389D01*
X15295Y14369D01*
X15303Y14266D01*
X15306Y14163D01*
X15313Y14144D01*
X15314Y14124D01*
X15355Y14029D01*
X15390Y13932D01*
X15403Y13916D01*
X15411Y13898D01*
X15515Y13767D01*
X17021Y12261D01*
X17095Y12208D01*
X17165Y12148D01*
X17195Y12136D01*
X17221Y12117D01*
X17308Y12090D01*
X17393Y12056D01*
X17434Y12052D01*
X17456Y12045D01*
X17488Y12046D01*
X17560Y12038D01*
X17743Y12038D01*
X17833Y12053D01*
X17924Y12060D01*
X17954Y12072D01*
X17986Y12078D01*
X18067Y12120D01*
X18151Y12156D01*
X18183Y12182D01*
X18203Y12193D01*
X18226Y12216D01*
X18282Y12261D01*
X20067Y14047D01*
X20079Y14063D01*
X20095Y14075D01*
X20151Y14162D01*
X20211Y14246D01*
X20217Y14265D01*
X20228Y14282D01*
X20253Y14382D01*
X20283Y14481D01*
X20283Y14501D01*
X20288Y14521D01*
X20280Y14624D01*
X20277Y14727D01*
X20270Y14746D01*
X20269Y14766D01*
X20228Y14861D01*
X20193Y14958D01*
X20180Y14974D01*
X20172Y14992D01*
X20067Y15123D01*
X19392Y15798D01*
X19392Y21206D01*
X20959Y22773D01*
X25767Y22773D01*
X27125Y21415D01*
X27141Y21403D01*
X27153Y21388D01*
X27241Y21332D01*
X27325Y21271D01*
X27344Y21266D01*
X27360Y21255D01*
X27461Y21230D01*
X27560Y21199D01*
X27580Y21200D01*
X27599Y21195D01*
X27702Y21203D01*
X27806Y21205D01*
X27824Y21212D01*
X27844Y21214D01*
X27939Y21254D01*
X28037Y21290D01*
X28052Y21302D01*
X28070Y21310D01*
X28201Y21415D01*
X29581Y22794D01*
X29592Y22810D01*
X29608Y22823D01*
X29664Y22910D01*
X29724Y22994D01*
X29730Y23013D01*
X29741Y23030D01*
X29766Y23130D01*
X29797Y23229D01*
X29796Y23249D01*
X29801Y23268D01*
X29793Y23371D01*
X29790Y23475D01*
X29783Y23494D01*
X29782Y23514D01*
X29742Y23608D01*
X29706Y23706D01*
X29693Y23722D01*
X29686Y23740D01*
X29581Y23871D01*
X27956Y25495D01*
X27956Y30903D01*
X29746Y32693D01*
X29758Y32709D01*
X29773Y32721D01*
X29829Y32809D01*
X29890Y32893D01*
X29895Y32912D01*
X29906Y32928D01*
X29932Y33029D01*
X29962Y33128D01*
X29961Y33148D01*
X29966Y33167D01*
X29958Y33270D01*
X29956Y33374D01*
X29949Y33392D01*
X29947Y33412D01*
X29907Y33507D01*
X29871Y33605D01*
X29859Y33620D01*
X29851Y33638D01*
X29746Y33769D01*
X28002Y35514D01*
X28002Y40922D01*
X29568Y42489D01*
X31975Y42489D01*
X32065Y42503D01*
X32156Y42510D01*
X32186Y42523D01*
X32218Y42528D01*
X32299Y42571D01*
X32383Y42607D01*
X32415Y42632D01*
X32436Y42643D01*
X32458Y42667D01*
X32514Y42711D01*
X32886Y43084D01*
X32898Y43100D01*
X32914Y43113D01*
X32970Y43200D01*
X33030Y43284D01*
X33036Y43303D01*
X33047Y43320D01*
X33072Y43420D01*
X33102Y43519D01*
X33102Y43539D01*
X33107Y43558D01*
X33099Y43661D01*
X33096Y43765D01*
X33089Y43784D01*
X33088Y43804D01*
X33047Y43899D01*
X33012Y43996D01*
X32999Y44012D01*
X32991Y44030D01*
X32887Y44161D01*
X32342Y44705D01*
X32268Y44758D01*
X32199Y44818D01*
X32169Y44830D01*
X32143Y44849D01*
X32055Y44875D01*
X31971Y44909D01*
X31930Y44914D01*
X31907Y44921D01*
X31875Y44920D01*
X31804Y44928D01*
X27551Y44928D01*
X25342Y47137D01*
X25342Y59461D01*
X27551Y61669D01*
X33298Y61669D01*
X33389Y61684D01*
X33479Y61691D01*
X33509Y61704D01*
X33541Y61709D01*
X33622Y61752D01*
X33706Y61788D01*
X33738Y61813D01*
X33759Y61824D01*
X33781Y61848D01*
X33837Y61892D01*
X35519Y63575D01*
X35561Y63633D01*
X35611Y63685D01*
X35633Y63733D01*
X35663Y63775D01*
X35684Y63843D01*
X35714Y63908D01*
X35720Y63960D01*
X35735Y64010D01*
X35733Y64082D01*
X35741Y64153D01*
X35730Y64204D01*
X35729Y64256D01*
X35704Y64323D01*
X35689Y64393D01*
X35662Y64438D01*
X35645Y64487D01*
X35600Y64543D01*
X35563Y64604D01*
X35523Y64638D01*
X35491Y64679D01*
X35431Y64718D01*
X35376Y64764D01*
X35328Y64784D01*
X35284Y64812D01*
X35214Y64829D01*
X35148Y64856D01*
X35077Y64864D01*
X35045Y64872D01*
X35022Y64870D01*
X34981Y64875D01*
X27729Y64875D01*
X25520Y67083D01*
X25520Y79050D01*
X25517Y79070D01*
X25519Y79090D01*
X25497Y79191D01*
X25480Y79293D01*
X25471Y79310D01*
X25467Y79330D01*
X25413Y79419D01*
X25365Y79510D01*
X25351Y79524D01*
X25340Y79541D01*
X25262Y79608D01*
X25187Y79680D01*
X25169Y79688D01*
X25153Y79701D01*
X25057Y79740D01*
X24964Y79783D01*
X24944Y79785D01*
X24925Y79793D01*
X24759Y79811D01*
X22028Y79811D01*
X21767Y80072D01*
X21693Y80125D01*
X21624Y80185D01*
X21594Y80197D01*
X21567Y80216D01*
X21480Y80243D01*
X21396Y80277D01*
X21355Y80281D01*
X21332Y80288D01*
X21300Y80287D01*
X21229Y80295D01*
X20123Y80295D01*
X20103Y80292D01*
X20083Y80294D01*
X19982Y80272D01*
X19880Y80256D01*
X19862Y80246D01*
X19843Y80242D01*
X19754Y80189D01*
X19662Y80141D01*
X19649Y80126D01*
X19632Y80116D01*
X19564Y80037D01*
X19493Y79962D01*
X19485Y79944D01*
X19472Y79929D01*
X19433Y79833D01*
X19389Y79739D01*
X19387Y79719D01*
X19380Y79701D01*
X19361Y79534D01*
X19361Y67083D01*
X17152Y64875D01*
X9029Y64875D01*
X7510Y66393D01*
X7473Y66420D01*
X7442Y66454D01*
X7374Y66491D01*
X7310Y66537D01*
X7267Y66550D01*
X7226Y66572D01*
X7150Y66586D01*
X7075Y66609D01*
X7030Y66608D01*
X6984Y66616D01*
X6907Y66605D01*
X6830Y66603D01*
X6786Y66587D01*
X6741Y66580D01*
X6672Y66545D01*
X6599Y66518D01*
X6563Y66489D01*
X6522Y66469D01*
X6467Y66413D01*
X6406Y66364D01*
X6382Y66326D01*
X6350Y66293D01*
X6284Y66173D01*
X6273Y66158D01*
X6272Y66153D01*
X6269Y66146D01*
X5388Y64020D01*
X3602Y62234D01*
X2967Y61971D01*
X2906Y61933D01*
X2841Y61904D01*
X2802Y61869D01*
X2758Y61841D01*
X2712Y61786D01*
X2660Y61737D01*
X2634Y61692D01*
X2601Y61652D01*
X2576Y61585D01*
X2541Y61522D01*
X2532Y61471D01*
X2513Y61422D01*
X2510Y61351D01*
X2497Y61280D01*
X2505Y61228D01*
X2503Y61176D01*
X2523Y61107D01*
X2533Y61037D01*
X2557Y60990D01*
X2571Y60940D01*
X2612Y60881D01*
X2645Y60817D01*
X2682Y60781D01*
X2711Y60738D01*
X2769Y60695D01*
X2820Y60645D01*
X2883Y60611D01*
X2909Y60591D01*
X2931Y60584D01*
X2967Y60564D01*
X3602Y60301D01*
X5388Y58515D01*
X6355Y56181D01*
X6355Y53654D01*
X5388Y51320D01*
X3602Y49534D01*
X2967Y49271D01*
X2906Y49233D01*
X2841Y49204D01*
X2802Y49169D01*
X2758Y49141D01*
X2712Y49086D01*
X2660Y49037D01*
X2634Y48992D01*
X2601Y48952D01*
X2576Y48885D01*
X2541Y48822D01*
X2532Y48771D01*
X2513Y48722D01*
X2510Y48651D01*
X2497Y48580D01*
X2505Y48528D01*
X2503Y48476D01*
X2523Y48407D01*
X2533Y48337D01*
X2557Y48290D01*
X2571Y48240D01*
X2612Y48181D01*
X2645Y48117D01*
X2682Y48081D01*
X2711Y48038D01*
X2769Y47995D01*
X2820Y47945D01*
X2883Y47911D01*
X2909Y47891D01*
X2931Y47884D01*
X2967Y47864D01*
X3602Y47601D01*
X5388Y45815D01*
X6355Y43481D01*
X6355Y40954D01*
X5388Y38620D01*
X3602Y36834D01*
X2967Y36571D01*
X2906Y36533D01*
X2841Y36504D01*
X2802Y36469D01*
X2758Y36441D01*
X2712Y36386D01*
X2660Y36337D01*
X2634Y36292D01*
X2601Y36252D01*
X2576Y36185D01*
X2541Y36122D01*
X2532Y36071D01*
X2513Y36022D01*
X2510Y35951D01*
X2497Y35880D01*
X2505Y35828D01*
X2503Y35776D01*
X2523Y35707D01*
X2533Y35637D01*
X2557Y35590D01*
X2571Y35540D01*
X2612Y35481D01*
X2645Y35417D01*
X2682Y35381D01*
X2711Y35338D01*
X2769Y35295D01*
X2820Y35245D01*
X2883Y35211D01*
X2909Y35191D01*
X2931Y35184D01*
X2967Y35164D01*
X3602Y34901D01*
X5388Y33115D01*
X6355Y30781D01*
X6355Y28254D01*
X5388Y25920D01*
X3602Y24134D01*
X2619Y23727D01*
X2520Y23665D01*
X2420Y23605D01*
X2416Y23601D01*
X2410Y23597D01*
X2335Y23507D01*
X2260Y23418D01*
X2258Y23412D01*
X2254Y23408D01*
X2212Y23299D01*
X2168Y23190D01*
X2167Y23183D01*
X2165Y23178D01*
X2165Y23160D01*
X2149Y23023D01*
X2149Y2611D01*
X2153Y2591D01*
X2151Y2572D01*
X2173Y2470D01*
X2189Y2368D01*
X2199Y2351D01*
X2203Y2331D01*
X2256Y2242D01*
X2304Y2151D01*
X2319Y2137D01*
X2329Y2120D01*
X2408Y2053D01*
X2483Y1982D01*
X2501Y1973D01*
X2516Y1960D01*
X2612Y1921D01*
X2706Y1878D01*
X2725Y1876D01*
X2744Y1868D01*
X2911Y1850D01*
X16420Y1850D01*
X16535Y1869D01*
G37*
G36*
X37808Y80078D02*
X37808Y80078D01*
X37860Y80079D01*
X37928Y80104D01*
X37998Y80119D01*
X38043Y80146D01*
X38091Y80164D01*
X38147Y80209D01*
X38209Y80245D01*
X38243Y80285D01*
X38283Y80317D01*
X38322Y80378D01*
X38369Y80432D01*
X38388Y80481D01*
X38416Y80524D01*
X38434Y80594D01*
X38461Y80660D01*
X38469Y80732D01*
X38477Y80763D01*
X38475Y80786D01*
X38479Y80827D01*
X38479Y81458D01*
X38690Y81669D01*
X38702Y81686D01*
X38718Y81698D01*
X38774Y81785D01*
X38834Y81869D01*
X38840Y81888D01*
X38851Y81905D01*
X38876Y82005D01*
X38906Y82104D01*
X38906Y82124D01*
X38911Y82143D01*
X38903Y82246D01*
X38900Y82350D01*
X38893Y82369D01*
X38891Y82389D01*
X38851Y82484D01*
X38815Y82581D01*
X38803Y82597D01*
X38795Y82615D01*
X38690Y82746D01*
X37089Y84348D01*
X37089Y87265D01*
X39151Y89327D01*
X39667Y89327D01*
X39687Y89330D01*
X39707Y89328D01*
X39808Y89350D01*
X39910Y89367D01*
X39928Y89376D01*
X39947Y89380D01*
X40036Y89433D01*
X40128Y89482D01*
X40141Y89496D01*
X40158Y89506D01*
X40226Y89585D01*
X40297Y89660D01*
X40305Y89678D01*
X40318Y89693D01*
X40357Y89789D01*
X40401Y89883D01*
X40403Y89903D01*
X40410Y89921D01*
X40429Y90088D01*
X40429Y91561D01*
X40425Y91581D01*
X40428Y91600D01*
X40406Y91702D01*
X40389Y91804D01*
X40380Y91821D01*
X40375Y91841D01*
X40322Y91930D01*
X40274Y92021D01*
X40259Y92035D01*
X40249Y92052D01*
X40170Y92119D01*
X40095Y92190D01*
X40077Y92199D01*
X40062Y92212D01*
X39966Y92251D01*
X39872Y92294D01*
X39853Y92296D01*
X39834Y92304D01*
X39667Y92322D01*
X39246Y92322D01*
X37183Y94385D01*
X37183Y97301D01*
X39246Y99364D01*
X39422Y99364D01*
X39442Y99367D01*
X39462Y99365D01*
X39563Y99387D01*
X39665Y99403D01*
X39683Y99413D01*
X39702Y99417D01*
X39791Y99470D01*
X39882Y99518D01*
X39896Y99533D01*
X39913Y99543D01*
X39981Y99622D01*
X40052Y99697D01*
X40060Y99715D01*
X40073Y99730D01*
X40112Y99826D01*
X40155Y99920D01*
X40158Y99940D01*
X40165Y99958D01*
X40183Y100125D01*
X40183Y102474D01*
X40212Y102502D01*
X40224Y102518D01*
X40239Y102531D01*
X40295Y102618D01*
X40356Y102702D01*
X40362Y102721D01*
X40372Y102738D01*
X40398Y102838D01*
X40428Y102937D01*
X40428Y102957D01*
X40432Y102976D01*
X40424Y103079D01*
X40422Y103183D01*
X40415Y103202D01*
X40413Y103222D01*
X40373Y103316D01*
X40337Y103414D01*
X40325Y103430D01*
X40317Y103448D01*
X40212Y103579D01*
X38554Y105237D01*
X38554Y108154D01*
X39072Y108672D01*
X39084Y108688D01*
X39099Y108700D01*
X39130Y108748D01*
X39139Y108758D01*
X39147Y108775D01*
X39155Y108787D01*
X39216Y108871D01*
X39221Y108890D01*
X39232Y108907D01*
X39257Y109007D01*
X39288Y109106D01*
X39287Y109126D01*
X39292Y109146D01*
X39284Y109249D01*
X39282Y109352D01*
X39275Y109371D01*
X39273Y109391D01*
X39233Y109486D01*
X39197Y109583D01*
X39185Y109599D01*
X39177Y109617D01*
X39072Y109748D01*
X38109Y110711D01*
X38093Y110723D01*
X38081Y110738D01*
X37993Y110794D01*
X37910Y110855D01*
X37890Y110860D01*
X37874Y110871D01*
X37773Y110897D01*
X37674Y110927D01*
X37654Y110926D01*
X37635Y110931D01*
X37532Y110923D01*
X37429Y110921D01*
X37410Y110914D01*
X37390Y110912D01*
X37295Y110872D01*
X37198Y110836D01*
X37182Y110824D01*
X37164Y110816D01*
X37033Y110711D01*
X36966Y110644D01*
X28973Y110644D01*
X27049Y112569D01*
X27049Y119161D01*
X28973Y121086D01*
X35515Y121086D01*
X35592Y121098D01*
X35670Y121102D01*
X35713Y121118D01*
X35757Y121125D01*
X35827Y121162D01*
X35900Y121190D01*
X35948Y121227D01*
X35975Y121240D01*
X35993Y121260D01*
X36034Y121291D01*
X36613Y121832D01*
X36677Y121914D01*
X36745Y121993D01*
X36752Y122011D01*
X36764Y122026D01*
X36798Y122124D01*
X36837Y122221D01*
X36839Y122245D01*
X36844Y122259D01*
X36844Y122291D01*
X36855Y122388D01*
X36855Y123339D01*
X39108Y125592D01*
X39137Y125597D01*
X39200Y125630D01*
X39268Y125655D01*
X39308Y125688D01*
X39354Y125712D01*
X39404Y125764D01*
X39460Y125809D01*
X39488Y125852D01*
X39524Y125890D01*
X39554Y125955D01*
X39593Y126016D01*
X39605Y126066D01*
X39627Y126113D01*
X39635Y126185D01*
X39653Y126254D01*
X39649Y126306D01*
X39654Y126358D01*
X39639Y126428D01*
X39634Y126499D01*
X39613Y126547D01*
X39602Y126598D01*
X39565Y126660D01*
X39537Y126726D01*
X39493Y126782D01*
X39476Y126809D01*
X39458Y126824D01*
X39432Y126857D01*
X38644Y127645D01*
X38627Y127657D01*
X38615Y127673D01*
X38528Y127729D01*
X38444Y127789D01*
X38425Y127795D01*
X38408Y127806D01*
X38308Y127831D01*
X38209Y127861D01*
X38189Y127861D01*
X38170Y127866D01*
X38067Y127858D01*
X37963Y127855D01*
X37944Y127848D01*
X37924Y127847D01*
X37829Y127806D01*
X37732Y127771D01*
X37716Y127758D01*
X37698Y127750D01*
X37567Y127645D01*
X36966Y127044D01*
X28973Y127044D01*
X27322Y128696D01*
X27248Y128749D01*
X27179Y128808D01*
X27148Y128820D01*
X27122Y128839D01*
X27035Y128866D01*
X26950Y128900D01*
X26909Y128905D01*
X26887Y128911D01*
X26855Y128911D01*
X26784Y128919D01*
X24742Y128919D01*
X24652Y128904D01*
X24561Y128897D01*
X24531Y128884D01*
X24499Y128879D01*
X24419Y128836D01*
X24335Y128800D01*
X24303Y128775D01*
X24282Y128764D01*
X24260Y128740D01*
X24204Y128696D01*
X23759Y128251D01*
X18351Y128251D01*
X17906Y128696D01*
X17832Y128749D01*
X17763Y128808D01*
X17733Y128820D01*
X17706Y128839D01*
X17619Y128866D01*
X17535Y128900D01*
X17494Y128905D01*
X17471Y128911D01*
X17439Y128911D01*
X17368Y128919D01*
X14937Y128919D01*
X14847Y128904D01*
X14756Y128897D01*
X14726Y128884D01*
X14694Y128879D01*
X14614Y128836D01*
X14530Y128800D01*
X14497Y128775D01*
X14477Y128764D01*
X14455Y128740D01*
X14399Y128696D01*
X13846Y128143D01*
X8438Y128143D01*
X6871Y129710D01*
X6871Y134517D01*
X8438Y136084D01*
X11576Y136084D01*
X11596Y136087D01*
X11616Y136085D01*
X11717Y136107D01*
X11819Y136124D01*
X11837Y136133D01*
X11856Y136138D01*
X11945Y136191D01*
X12036Y136239D01*
X12050Y136254D01*
X12067Y136264D01*
X12135Y136342D01*
X12206Y136417D01*
X12214Y136435D01*
X12227Y136451D01*
X12266Y136547D01*
X12309Y136641D01*
X12312Y136660D01*
X12319Y136679D01*
X12338Y136846D01*
X12338Y140245D01*
X14556Y142464D01*
X17452Y142464D01*
X17522Y142475D01*
X17594Y142477D01*
X17643Y142495D01*
X17694Y142503D01*
X17758Y142537D01*
X17825Y142561D01*
X17866Y142594D01*
X17912Y142618D01*
X17961Y142670D01*
X18017Y142715D01*
X18045Y142759D01*
X18081Y142797D01*
X18111Y142862D01*
X18150Y142922D01*
X18163Y142973D01*
X18185Y143020D01*
X18193Y143091D01*
X18210Y143161D01*
X18206Y143212D01*
X18212Y143264D01*
X18197Y143334D01*
X18191Y143406D01*
X18171Y143454D01*
X18160Y143505D01*
X18123Y143566D01*
X18095Y143632D01*
X18050Y143688D01*
X18033Y143716D01*
X18016Y143731D01*
X17990Y143763D01*
X17149Y144604D01*
X16818Y145404D01*
X16756Y145504D01*
X16696Y145604D01*
X16691Y145608D01*
X16688Y145613D01*
X16597Y145688D01*
X16509Y145764D01*
X16503Y145766D01*
X16499Y145770D01*
X16390Y145812D01*
X16281Y145856D01*
X16273Y145857D01*
X16269Y145858D01*
X16251Y145859D01*
X16114Y145874D01*
X2911Y145874D01*
X2891Y145871D01*
X2871Y145873D01*
X2770Y145851D01*
X2668Y145835D01*
X2650Y145825D01*
X2631Y145821D01*
X2542Y145768D01*
X2451Y145720D01*
X2437Y145705D01*
X2420Y145695D01*
X2352Y145616D01*
X2281Y145541D01*
X2273Y145523D01*
X2260Y145508D01*
X2221Y145412D01*
X2178Y145318D01*
X2175Y145298D01*
X2168Y145280D01*
X2149Y145113D01*
X2149Y124911D01*
X2168Y124797D01*
X2185Y124681D01*
X2188Y124675D01*
X2189Y124669D01*
X2244Y124566D01*
X2297Y124461D01*
X2301Y124457D01*
X2304Y124451D01*
X2389Y124371D01*
X2472Y124289D01*
X2479Y124285D01*
X2483Y124282D01*
X2499Y124274D01*
X2619Y124208D01*
X3602Y123801D01*
X5388Y122015D01*
X6355Y119681D01*
X6355Y117154D01*
X5388Y114820D01*
X3602Y113034D01*
X2967Y112771D01*
X2906Y112733D01*
X2841Y112704D01*
X2802Y112669D01*
X2758Y112641D01*
X2712Y112586D01*
X2660Y112537D01*
X2634Y112492D01*
X2601Y112452D01*
X2575Y112385D01*
X2541Y112322D01*
X2532Y112271D01*
X2513Y112222D01*
X2510Y112150D01*
X2497Y112080D01*
X2505Y112028D01*
X2503Y111976D01*
X2523Y111907D01*
X2533Y111836D01*
X2557Y111790D01*
X2571Y111740D01*
X2612Y111681D01*
X2645Y111617D01*
X2682Y111581D01*
X2711Y111538D01*
X2769Y111495D01*
X2820Y111445D01*
X2883Y111411D01*
X2909Y111391D01*
X2931Y111384D01*
X2967Y111364D01*
X3602Y111101D01*
X5388Y109315D01*
X6355Y106981D01*
X6355Y104454D01*
X5388Y102120D01*
X3602Y100334D01*
X2967Y100071D01*
X2906Y100033D01*
X2841Y100004D01*
X2802Y99969D01*
X2758Y99941D01*
X2712Y99886D01*
X2660Y99837D01*
X2634Y99792D01*
X2601Y99752D01*
X2575Y99685D01*
X2541Y99622D01*
X2532Y99571D01*
X2513Y99522D01*
X2510Y99450D01*
X2497Y99380D01*
X2505Y99328D01*
X2503Y99276D01*
X2523Y99207D01*
X2533Y99136D01*
X2557Y99090D01*
X2571Y99040D01*
X2612Y98981D01*
X2645Y98917D01*
X2682Y98881D01*
X2711Y98838D01*
X2769Y98795D01*
X2820Y98745D01*
X2883Y98711D01*
X2909Y98691D01*
X2931Y98684D01*
X2967Y98664D01*
X3602Y98401D01*
X5356Y96647D01*
X5414Y96605D01*
X5466Y96556D01*
X5513Y96534D01*
X5556Y96503D01*
X5624Y96482D01*
X5689Y96452D01*
X5741Y96446D01*
X5791Y96431D01*
X5863Y96433D01*
X5934Y96425D01*
X5985Y96436D01*
X6037Y96437D01*
X6104Y96462D01*
X6174Y96477D01*
X6219Y96504D01*
X6268Y96522D01*
X6324Y96567D01*
X6385Y96603D01*
X6419Y96643D01*
X6460Y96676D01*
X6498Y96736D01*
X6545Y96790D01*
X6565Y96839D01*
X6593Y96882D01*
X6610Y96952D01*
X6637Y97018D01*
X6645Y97090D01*
X6653Y97121D01*
X6651Y97144D01*
X6656Y97185D01*
X6656Y99268D01*
X8864Y101477D01*
X16988Y101477D01*
X19197Y99268D01*
X19197Y87662D01*
X19200Y87642D01*
X19198Y87623D01*
X19220Y87521D01*
X19237Y87419D01*
X19246Y87402D01*
X19250Y87382D01*
X19303Y87293D01*
X19352Y87202D01*
X19366Y87188D01*
X19376Y87171D01*
X19455Y87104D01*
X19530Y87033D01*
X19548Y87024D01*
X19563Y87011D01*
X19660Y86972D01*
X19753Y86929D01*
X19773Y86927D01*
X19792Y86919D01*
X19958Y86901D01*
X21229Y86901D01*
X21319Y86916D01*
X21410Y86923D01*
X21440Y86935D01*
X21472Y86941D01*
X21552Y86983D01*
X21636Y87019D01*
X21668Y87045D01*
X21689Y87056D01*
X21711Y87079D01*
X21767Y87124D01*
X22028Y87385D01*
X25165Y87385D01*
X27383Y85167D01*
X27383Y82377D01*
X27387Y82358D01*
X27385Y82338D01*
X27407Y82237D01*
X27423Y82135D01*
X27433Y82117D01*
X27437Y82097D01*
X27490Y82008D01*
X27538Y81917D01*
X27553Y81903D01*
X27563Y81886D01*
X27642Y81819D01*
X27717Y81748D01*
X27735Y81739D01*
X27750Y81726D01*
X27846Y81688D01*
X27940Y81644D01*
X27959Y81642D01*
X27978Y81635D01*
X28145Y81616D01*
X35852Y81616D01*
X37180Y80289D01*
X37238Y80247D01*
X37290Y80198D01*
X37337Y80176D01*
X37379Y80145D01*
X37448Y80124D01*
X37513Y80094D01*
X37565Y80088D01*
X37615Y80073D01*
X37686Y80075D01*
X37757Y80067D01*
X37808Y80078D01*
G37*
G36*
X168584Y40736D02*
X168584Y40736D01*
X168687Y40738D01*
X168706Y40745D01*
X168726Y40746D01*
X168821Y40786D01*
X168919Y40821D01*
X168934Y40833D01*
X168953Y40841D01*
X169084Y40945D01*
X170440Y42282D01*
X175311Y42248D01*
X175751Y41802D01*
X175826Y41746D01*
X175898Y41685D01*
X175925Y41674D01*
X175949Y41657D01*
X176039Y41628D01*
X176126Y41593D01*
X176163Y41589D01*
X176184Y41583D01*
X176217Y41583D01*
X176293Y41575D01*
X181684Y41575D01*
X181704Y41578D01*
X181724Y41576D01*
X181825Y41598D01*
X181927Y41615D01*
X181945Y41624D01*
X181964Y41628D01*
X182053Y41681D01*
X182144Y41730D01*
X182158Y41744D01*
X182175Y41754D01*
X182243Y41833D01*
X182314Y41908D01*
X182322Y41926D01*
X182335Y41941D01*
X182374Y42037D01*
X182417Y42131D01*
X182420Y42151D01*
X182427Y42169D01*
X182446Y42336D01*
X182446Y97439D01*
X182434Y97510D01*
X182432Y97582D01*
X182414Y97631D01*
X182406Y97682D01*
X182372Y97745D01*
X182348Y97813D01*
X182315Y97854D01*
X182291Y97899D01*
X182239Y97949D01*
X182194Y98005D01*
X182150Y98033D01*
X182112Y98069D01*
X182047Y98099D01*
X181987Y98138D01*
X181936Y98151D01*
X181889Y98172D01*
X181818Y98180D01*
X181748Y98198D01*
X181697Y98194D01*
X181645Y98200D01*
X181575Y98184D01*
X181503Y98179D01*
X181455Y98158D01*
X181404Y98147D01*
X181343Y98110D01*
X181277Y98082D01*
X181221Y98038D01*
X181193Y98021D01*
X181178Y98003D01*
X181146Y97978D01*
X180953Y97784D01*
X173718Y97784D01*
X173628Y97770D01*
X173537Y97763D01*
X173507Y97750D01*
X173475Y97745D01*
X173395Y97702D01*
X173311Y97666D01*
X173279Y97641D01*
X173258Y97630D01*
X173242Y97613D01*
X173241Y97612D01*
X173232Y97603D01*
X173180Y97561D01*
X170272Y94654D01*
X170219Y94580D01*
X170159Y94510D01*
X170147Y94480D01*
X170128Y94454D01*
X170102Y94367D01*
X170068Y94282D01*
X170063Y94241D01*
X170056Y94219D01*
X170057Y94187D01*
X170049Y94116D01*
X170049Y90289D01*
X168482Y88722D01*
X163074Y88722D01*
X161532Y90265D01*
X161516Y90276D01*
X161504Y90291D01*
X161416Y90348D01*
X161332Y90409D01*
X161314Y90414D01*
X161297Y90425D01*
X161196Y90450D01*
X161097Y90481D01*
X161078Y90480D01*
X161059Y90485D01*
X160955Y90477D01*
X160851Y90475D01*
X160833Y90468D01*
X160814Y90467D01*
X160718Y90426D01*
X160620Y90390D01*
X160605Y90378D01*
X160587Y90371D01*
X160456Y90266D01*
X158810Y88626D01*
X153402Y88635D01*
X151926Y90117D01*
X151852Y90170D01*
X151782Y90230D01*
X151752Y90242D01*
X151727Y90261D01*
X151639Y90288D01*
X151554Y90322D01*
X151513Y90327D01*
X151492Y90333D01*
X151459Y90333D01*
X151387Y90341D01*
X141331Y90341D01*
X141311Y90337D01*
X141291Y90340D01*
X141190Y90318D01*
X141088Y90301D01*
X141070Y90292D01*
X141051Y90287D01*
X140962Y90234D01*
X140870Y90186D01*
X140857Y90171D01*
X140840Y90161D01*
X140772Y90082D01*
X140701Y90007D01*
X140693Y89989D01*
X140680Y89974D01*
X140641Y89878D01*
X140597Y89784D01*
X140595Y89765D01*
X140588Y89746D01*
X140569Y89579D01*
X140569Y88847D01*
X139825Y88103D01*
X127772Y88103D01*
X127028Y88847D01*
X127028Y89259D01*
X127025Y89279D01*
X127027Y89299D01*
X127005Y89400D01*
X126988Y89502D01*
X126979Y89520D01*
X126975Y89539D01*
X126921Y89628D01*
X126873Y89719D01*
X126859Y89733D01*
X126848Y89750D01*
X126770Y89818D01*
X126695Y89889D01*
X126677Y89897D01*
X126661Y89910D01*
X126565Y89949D01*
X126472Y89992D01*
X126452Y89995D01*
X126433Y90002D01*
X126267Y90021D01*
X125788Y90021D01*
X125044Y90765D01*
X124986Y90807D01*
X124934Y90856D01*
X124887Y90878D01*
X124844Y90908D01*
X124776Y90929D01*
X124711Y90960D01*
X124659Y90965D01*
X124609Y90981D01*
X124538Y90979D01*
X124466Y90987D01*
X124416Y90976D01*
X124363Y90974D01*
X124296Y90950D01*
X124226Y90935D01*
X124181Y90908D01*
X124132Y90890D01*
X124076Y90845D01*
X124015Y90808D01*
X123981Y90769D01*
X123940Y90736D01*
X123902Y90676D01*
X123855Y90621D01*
X123836Y90573D01*
X123807Y90529D01*
X123790Y90460D01*
X123763Y90393D01*
X123755Y90322D01*
X123747Y90291D01*
X123749Y90267D01*
X123745Y90227D01*
X123745Y86765D01*
X123509Y86529D01*
X123498Y86513D01*
X123482Y86501D01*
X123426Y86413D01*
X123366Y86329D01*
X123360Y86310D01*
X123349Y86294D01*
X123324Y86193D01*
X123293Y86094D01*
X123294Y86074D01*
X123289Y86055D01*
X123297Y85952D01*
X123300Y85848D01*
X123307Y85830D01*
X123308Y85810D01*
X123348Y85715D01*
X123384Y85617D01*
X123397Y85602D01*
X123404Y85584D01*
X123509Y85453D01*
X123745Y85217D01*
X123745Y81765D01*
X123509Y81529D01*
X123498Y81513D01*
X123482Y81501D01*
X123451Y81452D01*
X123447Y81448D01*
X123444Y81441D01*
X123426Y81413D01*
X123366Y81329D01*
X123360Y81310D01*
X123349Y81294D01*
X123324Y81193D01*
X123293Y81094D01*
X123294Y81074D01*
X123289Y81055D01*
X123297Y80952D01*
X123300Y80848D01*
X123307Y80830D01*
X123308Y80810D01*
X123348Y80715D01*
X123384Y80617D01*
X123397Y80602D01*
X123404Y80584D01*
X123509Y80453D01*
X123745Y80217D01*
X123745Y76765D01*
X123509Y76529D01*
X123498Y76513D01*
X123482Y76501D01*
X123426Y76413D01*
X123366Y76329D01*
X123360Y76310D01*
X123349Y76294D01*
X123324Y76193D01*
X123293Y76094D01*
X123294Y76074D01*
X123289Y76055D01*
X123297Y75952D01*
X123300Y75848D01*
X123307Y75830D01*
X123308Y75810D01*
X123348Y75715D01*
X123384Y75617D01*
X123397Y75602D01*
X123404Y75584D01*
X123509Y75453D01*
X123745Y75217D01*
X123745Y71765D01*
X123509Y71529D01*
X123498Y71513D01*
X123482Y71501D01*
X123426Y71413D01*
X123366Y71329D01*
X123360Y71310D01*
X123349Y71294D01*
X123324Y71193D01*
X123293Y71094D01*
X123294Y71074D01*
X123289Y71055D01*
X123297Y70952D01*
X123300Y70848D01*
X123307Y70830D01*
X123308Y70810D01*
X123348Y70715D01*
X123384Y70617D01*
X123397Y70602D01*
X123404Y70584D01*
X123509Y70453D01*
X123745Y70217D01*
X123745Y67042D01*
X123747Y67025D01*
X123745Y67009D01*
X123767Y66904D01*
X123784Y66799D01*
X123792Y66784D01*
X123795Y66768D01*
X123849Y66676D01*
X123899Y66582D01*
X123911Y66570D01*
X123920Y66556D01*
X124000Y66486D01*
X124078Y66412D01*
X124093Y66405D01*
X124105Y66394D01*
X124204Y66354D01*
X124301Y66309D01*
X124317Y66307D01*
X124333Y66301D01*
X124499Y66281D01*
X124596Y66280D01*
X124598Y66280D01*
X124602Y66280D01*
X125959Y66278D01*
X125971Y66274D01*
X126003Y66275D01*
X126069Y66267D01*
X128603Y66246D01*
X128696Y66260D01*
X128791Y66268D01*
X128817Y66279D01*
X128846Y66284D01*
X128930Y66327D01*
X129017Y66364D01*
X129045Y66387D01*
X129064Y66397D01*
X129087Y66420D01*
X129148Y66469D01*
X131160Y68481D01*
X131214Y68555D01*
X131273Y68625D01*
X131285Y68655D01*
X131304Y68681D01*
X131331Y68768D01*
X131365Y68853D01*
X131369Y68894D01*
X131376Y68916D01*
X131375Y68948D01*
X131383Y69020D01*
X131383Y71458D01*
X131858Y71933D01*
X131909Y72004D01*
X131967Y72071D01*
X131981Y72104D01*
X132001Y72132D01*
X132027Y72217D01*
X132061Y72298D01*
X132066Y72344D01*
X132074Y72368D01*
X132073Y72399D01*
X132081Y72465D01*
X132103Y75255D01*
X132088Y75349D01*
X132081Y75443D01*
X132069Y75470D01*
X132065Y75499D01*
X132022Y75582D01*
X131985Y75669D01*
X131962Y75698D01*
X131952Y75717D01*
X131928Y75740D01*
X131880Y75800D01*
X131464Y76216D01*
X131464Y81687D01*
X132999Y83222D01*
X137870Y83222D01*
X139406Y81687D01*
X139406Y76216D01*
X138931Y75741D01*
X138880Y75669D01*
X138822Y75603D01*
X138808Y75570D01*
X138788Y75541D01*
X138762Y75457D01*
X138728Y75375D01*
X138723Y75330D01*
X138715Y75306D01*
X138716Y75275D01*
X138708Y75209D01*
X138686Y72418D01*
X138701Y72325D01*
X138708Y72231D01*
X138719Y72204D01*
X138724Y72175D01*
X138767Y72091D01*
X138804Y72005D01*
X138827Y71976D01*
X138837Y71957D01*
X138861Y71934D01*
X138909Y71874D01*
X139136Y71647D01*
X139152Y71636D01*
X139164Y71620D01*
X139252Y71564D01*
X139336Y71504D01*
X139354Y71498D01*
X139371Y71487D01*
X139472Y71462D01*
X139571Y71431D01*
X139591Y71432D01*
X139610Y71427D01*
X139713Y71435D01*
X139817Y71438D01*
X139835Y71445D01*
X139855Y71446D01*
X139950Y71486D01*
X140048Y71522D01*
X140063Y71535D01*
X140081Y71542D01*
X140212Y71647D01*
X141559Y72993D01*
X146430Y72993D01*
X147232Y72191D01*
X147301Y72141D01*
X147366Y72084D01*
X147401Y72070D01*
X147432Y72047D01*
X147513Y72022D01*
X147592Y71989D01*
X147641Y71983D01*
X147667Y71975D01*
X147697Y71976D01*
X147759Y71968D01*
X150092Y71932D01*
X150188Y71946D01*
X150285Y71954D01*
X150309Y71964D01*
X150336Y71968D01*
X150422Y72012D01*
X150511Y72050D01*
X150537Y72071D01*
X150555Y72080D01*
X150578Y72103D01*
X150642Y72155D01*
X151331Y72843D01*
X156202Y72843D01*
X157548Y71497D01*
X157564Y71486D01*
X157576Y71470D01*
X157664Y71414D01*
X157748Y71354D01*
X157767Y71348D01*
X157783Y71337D01*
X157884Y71312D01*
X157983Y71281D01*
X158003Y71282D01*
X158022Y71277D01*
X158125Y71285D01*
X158229Y71288D01*
X158247Y71294D01*
X158267Y71296D01*
X158362Y71336D01*
X158460Y71372D01*
X158475Y71385D01*
X158493Y71392D01*
X158624Y71497D01*
X158868Y71741D01*
X158920Y71814D01*
X158979Y71882D01*
X158992Y71913D01*
X159011Y71940D01*
X159038Y72026D01*
X159072Y72109D01*
X159077Y72152D01*
X159084Y72175D01*
X159083Y72207D01*
X159091Y72276D01*
X159101Y75215D01*
X159087Y75307D01*
X159080Y75399D01*
X159067Y75428D01*
X159063Y75458D01*
X159019Y75540D01*
X158983Y75626D01*
X158959Y75656D01*
X158948Y75676D01*
X158925Y75699D01*
X158878Y75757D01*
X158447Y76188D01*
X158447Y81659D01*
X159982Y83194D01*
X164853Y83194D01*
X166388Y81659D01*
X166388Y76188D01*
X165930Y75730D01*
X165877Y75657D01*
X165819Y75589D01*
X165806Y75557D01*
X165786Y75530D01*
X165760Y75444D01*
X165726Y75361D01*
X165721Y75318D01*
X165714Y75295D01*
X165715Y75263D01*
X165707Y75194D01*
X165698Y72622D01*
X165699Y72611D01*
X165699Y72607D01*
X165700Y72599D01*
X165698Y72583D01*
X165720Y72481D01*
X165736Y72379D01*
X165746Y72361D01*
X165750Y72342D01*
X165802Y72253D01*
X165851Y72161D01*
X165865Y72147D01*
X165875Y72131D01*
X165954Y72063D01*
X166029Y71991D01*
X166046Y71983D01*
X166061Y71970D01*
X166158Y71931D01*
X166251Y71887D01*
X166271Y71884D01*
X166289Y71877D01*
X166456Y71858D01*
X169582Y71844D01*
X169674Y71859D01*
X169767Y71866D01*
X169795Y71878D01*
X169825Y71883D01*
X169907Y71926D01*
X169986Y71959D01*
X175487Y71959D01*
X177022Y70424D01*
X177022Y65553D01*
X175676Y64207D01*
X175665Y64191D01*
X175649Y64178D01*
X175593Y64091D01*
X175533Y64007D01*
X175527Y63988D01*
X175516Y63971D01*
X175491Y63871D01*
X175460Y63772D01*
X175461Y63752D01*
X175456Y63733D01*
X175464Y63630D01*
X175467Y63526D01*
X175474Y63507D01*
X175475Y63488D01*
X175516Y63393D01*
X175551Y63295D01*
X175564Y63280D01*
X175571Y63261D01*
X175676Y63130D01*
X177022Y61784D01*
X177022Y56913D01*
X176255Y56146D01*
X176203Y56073D01*
X176145Y56006D01*
X176132Y55974D01*
X176111Y55946D01*
X176085Y55861D01*
X176051Y55779D01*
X176046Y55734D01*
X176039Y55711D01*
X176040Y55679D01*
X176032Y55612D01*
X176013Y52537D01*
X176028Y52445D01*
X176035Y52352D01*
X176047Y52324D01*
X176052Y52294D01*
X176095Y52211D01*
X176132Y52125D01*
X176155Y52096D01*
X176165Y52076D01*
X176189Y52053D01*
X176236Y51994D01*
X176659Y51572D01*
X176659Y46101D01*
X175124Y44565D01*
X170253Y44565D01*
X168907Y45912D01*
X168890Y45923D01*
X168878Y45939D01*
X168791Y45995D01*
X168707Y46055D01*
X168688Y46061D01*
X168671Y46072D01*
X168571Y46097D01*
X168472Y46128D01*
X168452Y46127D01*
X168433Y46132D01*
X168329Y46124D01*
X168226Y46121D01*
X168207Y46114D01*
X168187Y46113D01*
X168092Y46072D01*
X167995Y46037D01*
X167979Y46024D01*
X167961Y46017D01*
X167830Y45912D01*
X167628Y45710D01*
X167571Y45631D01*
X167510Y45557D01*
X167500Y45532D01*
X167484Y45510D01*
X167456Y45417D01*
X167421Y45327D01*
X167418Y45294D01*
X167412Y45275D01*
X167413Y45242D01*
X167405Y45160D01*
X167426Y43734D01*
X167426Y43733D01*
X167454Y41815D01*
X167469Y41734D01*
X167474Y41651D01*
X167490Y41613D01*
X167497Y41573D01*
X167537Y41500D01*
X167569Y41424D01*
X167602Y41382D01*
X167615Y41357D01*
X167637Y41337D01*
X167673Y41292D01*
X168008Y40952D01*
X168024Y40941D01*
X168036Y40925D01*
X168123Y40868D01*
X168207Y40807D01*
X168226Y40801D01*
X168242Y40790D01*
X168342Y40765D01*
X168441Y40733D01*
X168461Y40734D01*
X168480Y40729D01*
X168584Y40736D01*
G37*
G36*
X77309Y8995D02*
X77309Y8995D01*
X77329Y8993D01*
X77430Y9015D01*
X77532Y9031D01*
X77550Y9041D01*
X77569Y9045D01*
X77658Y9098D01*
X77749Y9146D01*
X77763Y9161D01*
X77780Y9171D01*
X77847Y9250D01*
X77919Y9325D01*
X77927Y9343D01*
X77940Y9358D01*
X77979Y9454D01*
X78022Y9548D01*
X78025Y9567D01*
X78032Y9586D01*
X78050Y9753D01*
X78050Y14375D01*
X79586Y15910D01*
X85057Y15910D01*
X86772Y14195D01*
X86846Y14142D01*
X86915Y14083D01*
X86945Y14071D01*
X86971Y14052D01*
X87058Y14025D01*
X87143Y13991D01*
X87184Y13986D01*
X87207Y13979D01*
X87239Y13980D01*
X87310Y13972D01*
X87561Y13972D01*
X87581Y13976D01*
X87600Y13973D01*
X87702Y13995D01*
X87804Y14012D01*
X87821Y14021D01*
X87841Y14026D01*
X87930Y14079D01*
X88021Y14127D01*
X88035Y14142D01*
X88052Y14152D01*
X88119Y14231D01*
X88191Y14306D01*
X88199Y14324D01*
X88212Y14339D01*
X88251Y14435D01*
X88294Y14529D01*
X88296Y14548D01*
X88304Y14567D01*
X88322Y14734D01*
X88322Y16180D01*
X89067Y16925D01*
X97047Y16925D01*
X97137Y16939D01*
X97228Y16947D01*
X97258Y16959D01*
X97290Y16964D01*
X97371Y17007D01*
X97455Y17043D01*
X97487Y17069D01*
X97507Y17079D01*
X97530Y17103D01*
X97586Y17148D01*
X99307Y18869D01*
X99360Y18943D01*
X99419Y19012D01*
X99431Y19042D01*
X99450Y19068D01*
X99477Y19155D01*
X99511Y19240D01*
X99516Y19281D01*
X99523Y19304D01*
X99522Y19336D01*
X99530Y19407D01*
X99530Y32162D01*
X100718Y33351D01*
X100771Y33425D01*
X100831Y33494D01*
X100843Y33524D01*
X100862Y33550D01*
X100888Y33637D01*
X100923Y33722D01*
X100927Y33763D01*
X100934Y33786D01*
X100933Y33818D01*
X100941Y33889D01*
X100941Y39688D01*
X100930Y39759D01*
X100928Y39831D01*
X100910Y39880D01*
X100901Y39931D01*
X100868Y39994D01*
X100843Y40062D01*
X100811Y40102D01*
X100786Y40148D01*
X100734Y40198D01*
X100689Y40254D01*
X100646Y40282D01*
X100608Y40318D01*
X100543Y40348D01*
X100483Y40387D01*
X100432Y40399D01*
X100385Y40421D01*
X100314Y40429D01*
X100244Y40447D01*
X100192Y40443D01*
X100140Y40449D01*
X100070Y40433D01*
X99999Y40428D01*
X99951Y40407D01*
X99900Y40396D01*
X99839Y40359D01*
X99772Y40331D01*
X99716Y40287D01*
X99689Y40270D01*
X99674Y40252D01*
X99642Y40227D01*
X99628Y40213D01*
X96276Y40213D01*
X96256Y40210D01*
X96236Y40212D01*
X96135Y40190D01*
X96033Y40174D01*
X96016Y40164D01*
X95996Y40160D01*
X95907Y40107D01*
X95816Y40058D01*
X95802Y40044D01*
X95785Y40034D01*
X95718Y39955D01*
X95646Y39880D01*
X95638Y39862D01*
X95625Y39847D01*
X95586Y39751D01*
X95543Y39657D01*
X95541Y39637D01*
X95533Y39619D01*
X95515Y39452D01*
X95515Y37921D01*
X85052Y27459D01*
X82658Y27459D01*
X82568Y27445D01*
X82477Y27437D01*
X82447Y27425D01*
X82415Y27420D01*
X82334Y27377D01*
X82250Y27341D01*
X82218Y27315D01*
X82198Y27304D01*
X82175Y27281D01*
X82119Y27236D01*
X76607Y21724D01*
X76554Y21650D01*
X76494Y21580D01*
X76482Y21550D01*
X76463Y21524D01*
X76437Y21437D01*
X76402Y21352D01*
X76398Y21311D01*
X76391Y21289D01*
X76392Y21257D01*
X76384Y21186D01*
X76384Y18419D01*
X74817Y16853D01*
X69409Y16853D01*
X67842Y18419D01*
X67842Y20826D01*
X67828Y20916D01*
X67821Y21007D01*
X67808Y21037D01*
X67803Y21069D01*
X67760Y21150D01*
X67724Y21234D01*
X67699Y21266D01*
X67688Y21286D01*
X67664Y21309D01*
X67620Y21365D01*
X66994Y21990D01*
X66920Y22044D01*
X66850Y22103D01*
X66820Y22115D01*
X66794Y22134D01*
X66707Y22161D01*
X66622Y22195D01*
X66581Y22199D01*
X66559Y22206D01*
X66527Y22205D01*
X66456Y22213D01*
X65431Y22213D01*
X63213Y24431D01*
X63213Y27236D01*
X63210Y27256D01*
X63212Y27275D01*
X63190Y27377D01*
X63174Y27479D01*
X63164Y27496D01*
X63160Y27516D01*
X63107Y27605D01*
X63058Y27696D01*
X63044Y27710D01*
X63034Y27727D01*
X62955Y27794D01*
X62880Y27866D01*
X62862Y27874D01*
X62847Y27887D01*
X62751Y27926D01*
X62657Y27969D01*
X62637Y27971D01*
X62619Y27979D01*
X62452Y27997D01*
X62187Y27997D01*
X62097Y27983D01*
X62006Y27975D01*
X61977Y27963D01*
X61945Y27958D01*
X61864Y27915D01*
X61780Y27879D01*
X61748Y27853D01*
X61727Y27842D01*
X61705Y27819D01*
X61649Y27774D01*
X60092Y26217D01*
X60039Y26143D01*
X59979Y26074D01*
X59967Y26043D01*
X59948Y26017D01*
X59921Y25930D01*
X59887Y25845D01*
X59883Y25804D01*
X59876Y25782D01*
X59877Y25750D01*
X59869Y25679D01*
X59869Y14321D01*
X59883Y14231D01*
X59891Y14140D01*
X59903Y14111D01*
X59908Y14079D01*
X59951Y13998D01*
X59987Y13914D01*
X60013Y13882D01*
X60024Y13861D01*
X60047Y13839D01*
X60092Y13783D01*
X61825Y12050D01*
X61899Y11997D01*
X61968Y11937D01*
X61999Y11925D01*
X62025Y11906D01*
X62112Y11879D01*
X62197Y11845D01*
X62238Y11841D01*
X62260Y11834D01*
X62292Y11835D01*
X62363Y11827D01*
X67140Y11827D01*
X69752Y9214D01*
X69826Y9161D01*
X69895Y9102D01*
X69925Y9090D01*
X69952Y9071D01*
X70039Y9044D01*
X70123Y9010D01*
X70164Y9005D01*
X70187Y8999D01*
X70219Y8999D01*
X70290Y8991D01*
X77289Y8991D01*
X77309Y8995D01*
G37*
G36*
X169363Y104800D02*
X169363Y104800D01*
X169416Y104802D01*
X169483Y104826D01*
X169553Y104842D01*
X169598Y104868D01*
X169647Y104886D01*
X169703Y104931D01*
X169764Y104968D01*
X169798Y105007D01*
X169839Y105040D01*
X169877Y105100D01*
X169924Y105155D01*
X169943Y105203D01*
X169972Y105247D01*
X169989Y105316D01*
X170016Y105383D01*
X170024Y105454D01*
X170032Y105485D01*
X170030Y105509D01*
X170034Y105549D01*
X170034Y108703D01*
X171657Y110326D01*
X180953Y110326D01*
X181146Y110133D01*
X181204Y110091D01*
X181256Y110042D01*
X181304Y110020D01*
X181346Y109989D01*
X181414Y109968D01*
X181479Y109938D01*
X181531Y109932D01*
X181581Y109917D01*
X181653Y109919D01*
X181724Y109911D01*
X181775Y109922D01*
X181827Y109923D01*
X181894Y109948D01*
X181964Y109963D01*
X182009Y109990D01*
X182058Y110008D01*
X182114Y110053D01*
X182175Y110089D01*
X182209Y110129D01*
X182250Y110161D01*
X182288Y110222D01*
X182335Y110276D01*
X182355Y110324D01*
X182383Y110368D01*
X182400Y110438D01*
X182427Y110504D01*
X182435Y110576D01*
X182443Y110607D01*
X182441Y110630D01*
X182446Y110671D01*
X182446Y145113D01*
X182442Y145133D01*
X182444Y145153D01*
X182422Y145254D01*
X182406Y145356D01*
X182396Y145373D01*
X182392Y145393D01*
X182339Y145482D01*
X182291Y145573D01*
X182276Y145587D01*
X182266Y145604D01*
X182187Y145671D01*
X182112Y145743D01*
X182094Y145751D01*
X182079Y145764D01*
X181983Y145803D01*
X181889Y145846D01*
X181870Y145848D01*
X181851Y145856D01*
X181684Y145874D01*
X173455Y145874D01*
X173383Y145863D01*
X173311Y145861D01*
X173263Y145843D01*
X173212Y145835D01*
X173148Y145801D01*
X173080Y145776D01*
X173040Y145744D01*
X172994Y145720D01*
X172945Y145667D01*
X172888Y145622D01*
X172861Y145579D01*
X172825Y145541D01*
X172795Y145476D01*
X172756Y145415D01*
X172743Y145365D01*
X172721Y145318D01*
X172713Y145246D01*
X172696Y145176D01*
X172700Y145125D01*
X172694Y145074D01*
X172705Y145025D01*
X172705Y142485D01*
X172720Y142395D01*
X172727Y142304D01*
X172739Y142274D01*
X172745Y142242D01*
X172787Y142162D01*
X172823Y142078D01*
X172849Y142046D01*
X172860Y142025D01*
X172883Y142003D01*
X172928Y141947D01*
X173131Y141744D01*
X173205Y141691D01*
X173274Y141631D01*
X173305Y141619D01*
X173331Y141600D01*
X173418Y141573D01*
X173503Y141539D01*
X173544Y141535D01*
X173566Y141528D01*
X173598Y141529D01*
X173669Y141521D01*
X175458Y141521D01*
X177521Y139458D01*
X177521Y136542D01*
X175458Y134479D01*
X173466Y134479D01*
X173446Y134476D01*
X173427Y134478D01*
X173325Y134456D01*
X173223Y134440D01*
X173206Y134430D01*
X173186Y134426D01*
X173097Y134373D01*
X173006Y134324D01*
X172992Y134310D01*
X172975Y134300D01*
X172908Y134221D01*
X172837Y134146D01*
X172828Y134128D01*
X172815Y134113D01*
X172776Y134017D01*
X172733Y133923D01*
X172731Y133903D01*
X172723Y133885D01*
X172705Y133718D01*
X172705Y133282D01*
X172708Y133262D01*
X172706Y133243D01*
X172728Y133141D01*
X172745Y133039D01*
X172754Y133022D01*
X172758Y133002D01*
X172811Y132913D01*
X172860Y132822D01*
X172874Y132808D01*
X172884Y132791D01*
X172963Y132724D01*
X173038Y132652D01*
X173056Y132644D01*
X173071Y132631D01*
X173167Y132592D01*
X173261Y132549D01*
X173281Y132547D01*
X173299Y132539D01*
X173466Y132521D01*
X175458Y132521D01*
X177521Y130458D01*
X177521Y127542D01*
X175458Y125479D01*
X173403Y125479D01*
X173383Y125476D01*
X173364Y125478D01*
X173262Y125456D01*
X173160Y125440D01*
X173143Y125430D01*
X173123Y125426D01*
X173034Y125373D01*
X172943Y125324D01*
X172929Y125310D01*
X172912Y125300D01*
X172845Y125221D01*
X172774Y125146D01*
X172765Y125128D01*
X172752Y125113D01*
X172713Y125017D01*
X172670Y124923D01*
X172668Y124903D01*
X172660Y124885D01*
X172642Y124718D01*
X172642Y122194D01*
X171284Y120836D01*
X171272Y120820D01*
X171257Y120808D01*
X171201Y120720D01*
X171140Y120636D01*
X171135Y120617D01*
X171124Y120601D01*
X171099Y120500D01*
X171068Y120401D01*
X171069Y120381D01*
X171064Y120362D01*
X171072Y120259D01*
X171074Y120155D01*
X171081Y120137D01*
X171083Y120117D01*
X171123Y120022D01*
X171159Y119924D01*
X171171Y119909D01*
X171179Y119891D01*
X171284Y119760D01*
X172642Y118402D01*
X172642Y113594D01*
X171075Y112027D01*
X165667Y112027D01*
X164100Y113594D01*
X164100Y117079D01*
X164086Y117169D01*
X164079Y117260D01*
X164066Y117289D01*
X164061Y117321D01*
X164018Y117402D01*
X163982Y117486D01*
X163957Y117518D01*
X163946Y117539D01*
X163922Y117561D01*
X163877Y117617D01*
X159896Y121599D01*
X159822Y121652D01*
X159752Y121711D01*
X159722Y121723D01*
X159696Y121742D01*
X159609Y121769D01*
X159524Y121803D01*
X159483Y121808D01*
X159461Y121815D01*
X159429Y121814D01*
X159357Y121822D01*
X154282Y121822D01*
X154262Y121818D01*
X154243Y121821D01*
X154141Y121799D01*
X154039Y121782D01*
X154022Y121773D01*
X154002Y121768D01*
X153913Y121715D01*
X153822Y121667D01*
X153808Y121652D01*
X153791Y121642D01*
X153724Y121563D01*
X153652Y121488D01*
X153644Y121470D01*
X153631Y121455D01*
X153592Y121359D01*
X153549Y121265D01*
X153547Y121246D01*
X153539Y121227D01*
X153521Y121060D01*
X153521Y115612D01*
X153524Y115592D01*
X153522Y115573D01*
X153544Y115471D01*
X153560Y115369D01*
X153570Y115352D01*
X153574Y115332D01*
X153627Y115243D01*
X153676Y115152D01*
X153690Y115138D01*
X153700Y115121D01*
X153779Y115054D01*
X153854Y114982D01*
X153872Y114974D01*
X153887Y114961D01*
X153983Y114922D01*
X154077Y114879D01*
X154097Y114877D01*
X154115Y114869D01*
X154282Y114851D01*
X159324Y114851D01*
X167811Y106364D01*
X167811Y106025D01*
X167814Y106005D01*
X167812Y105986D01*
X167834Y105884D01*
X167851Y105782D01*
X167860Y105765D01*
X167864Y105745D01*
X167918Y105656D01*
X167966Y105565D01*
X167980Y105551D01*
X167991Y105534D01*
X168069Y105467D01*
X168144Y105396D01*
X168162Y105387D01*
X168177Y105374D01*
X168274Y105335D01*
X168367Y105292D01*
X168387Y105290D01*
X168406Y105282D01*
X168471Y105275D01*
X168735Y105011D01*
X168793Y104969D01*
X168845Y104920D01*
X168892Y104898D01*
X168935Y104868D01*
X169003Y104847D01*
X169068Y104816D01*
X169120Y104811D01*
X169170Y104795D01*
X169241Y104797D01*
X169313Y104789D01*
X169363Y104800D01*
G37*
G36*
X124738Y115527D02*
X124738Y115527D01*
X124757Y115525D01*
X124859Y115547D01*
X124961Y115563D01*
X124978Y115573D01*
X124998Y115577D01*
X125087Y115630D01*
X125178Y115678D01*
X125192Y115693D01*
X125209Y115703D01*
X125276Y115782D01*
X125348Y115857D01*
X125356Y115875D01*
X125369Y115890D01*
X125408Y115986D01*
X125451Y116080D01*
X125453Y116100D01*
X125461Y116118D01*
X125479Y116285D01*
X125479Y119458D01*
X127542Y121521D01*
X129115Y121521D01*
X129134Y121524D01*
X129154Y121522D01*
X129255Y121544D01*
X129357Y121560D01*
X129375Y121570D01*
X129394Y121574D01*
X129483Y121627D01*
X129575Y121676D01*
X129588Y121690D01*
X129605Y121700D01*
X129673Y121779D01*
X129744Y121854D01*
X129752Y121872D01*
X129765Y121887D01*
X129804Y121983D01*
X129848Y122077D01*
X129850Y122097D01*
X129857Y122115D01*
X129876Y122282D01*
X129876Y123883D01*
X131938Y125946D01*
X135073Y125946D01*
X135074Y125945D01*
X135089Y125946D01*
X135110Y125946D01*
X135178Y125938D01*
X144937Y125938D01*
X147563Y123312D01*
X147564Y123308D01*
X147572Y123257D01*
X147606Y123194D01*
X147631Y123126D01*
X147663Y123086D01*
X147688Y123040D01*
X147740Y122990D01*
X147784Y122934D01*
X147828Y122906D01*
X147866Y122870D01*
X147931Y122840D01*
X147991Y122801D01*
X148042Y122789D01*
X148089Y122767D01*
X148160Y122759D01*
X148230Y122741D01*
X148282Y122745D01*
X148333Y122740D01*
X148404Y122755D01*
X148475Y122760D01*
X148523Y122781D01*
X148574Y122792D01*
X148635Y122829D01*
X148701Y122857D01*
X148757Y122901D01*
X148785Y122918D01*
X148800Y122936D01*
X148832Y122961D01*
X150344Y124473D01*
X151758Y125887D01*
X161357Y125887D01*
X162801Y124443D01*
X162859Y124401D01*
X162911Y124352D01*
X162958Y124330D01*
X163001Y124299D01*
X163069Y124278D01*
X163134Y124248D01*
X163186Y124242D01*
X163236Y124227D01*
X163307Y124229D01*
X163379Y124221D01*
X163429Y124232D01*
X163482Y124233D01*
X163549Y124258D01*
X163619Y124273D01*
X163664Y124300D01*
X163713Y124318D01*
X163769Y124363D01*
X163830Y124399D01*
X163864Y124439D01*
X163905Y124471D01*
X163943Y124532D01*
X163990Y124586D01*
X164009Y124635D01*
X164038Y124678D01*
X164055Y124748D01*
X164082Y124814D01*
X164090Y124886D01*
X164098Y124917D01*
X164096Y124940D01*
X164100Y124981D01*
X164100Y127002D01*
X165782Y128683D01*
X165794Y128699D01*
X165809Y128712D01*
X165865Y128799D01*
X165925Y128883D01*
X165931Y128902D01*
X165942Y128919D01*
X165967Y129019D01*
X165998Y129118D01*
X165997Y129138D01*
X166002Y129157D01*
X165994Y129260D01*
X165991Y129364D01*
X165985Y129383D01*
X165983Y129403D01*
X165943Y129498D01*
X165907Y129595D01*
X165895Y129611D01*
X165887Y129629D01*
X165782Y129760D01*
X164799Y130743D01*
X164783Y130755D01*
X164770Y130770D01*
X164683Y130826D01*
X164599Y130887D01*
X164580Y130892D01*
X164563Y130903D01*
X164463Y130929D01*
X164364Y130959D01*
X164344Y130958D01*
X164325Y130963D01*
X164222Y130955D01*
X164118Y130953D01*
X164099Y130946D01*
X164079Y130944D01*
X163984Y130904D01*
X163887Y130868D01*
X163871Y130856D01*
X163853Y130848D01*
X163722Y130743D01*
X162458Y129479D01*
X159542Y129479D01*
X157479Y131542D01*
X157479Y133109D01*
X157476Y133129D01*
X157478Y133149D01*
X157456Y133250D01*
X157440Y133352D01*
X157430Y133369D01*
X157426Y133389D01*
X157373Y133478D01*
X157324Y133569D01*
X157310Y133583D01*
X157300Y133600D01*
X157221Y133667D01*
X157146Y133739D01*
X157128Y133747D01*
X157113Y133760D01*
X157017Y133799D01*
X156923Y133842D01*
X156903Y133844D01*
X156885Y133852D01*
X156718Y133870D01*
X152304Y133870D01*
X148832Y137342D01*
X148774Y137384D01*
X148722Y137433D01*
X148675Y137455D01*
X148633Y137486D01*
X148564Y137507D01*
X148499Y137537D01*
X148447Y137543D01*
X148397Y137558D01*
X148326Y137556D01*
X148255Y137564D01*
X148204Y137553D01*
X148152Y137552D01*
X148084Y137527D01*
X148014Y137512D01*
X147969Y137485D01*
X147921Y137467D01*
X147865Y137422D01*
X147803Y137386D01*
X147769Y137346D01*
X147729Y137314D01*
X147690Y137253D01*
X147643Y137199D01*
X147624Y137150D01*
X147596Y137107D01*
X147578Y137037D01*
X147566Y137008D01*
X144526Y133967D01*
X130947Y133967D01*
X130927Y133964D01*
X130907Y133966D01*
X130806Y133944D01*
X130704Y133928D01*
X130686Y133918D01*
X130667Y133914D01*
X130578Y133861D01*
X130487Y133812D01*
X130473Y133798D01*
X130456Y133788D01*
X130388Y133709D01*
X130317Y133634D01*
X130309Y133616D01*
X130296Y133601D01*
X130257Y133505D01*
X130214Y133411D01*
X130211Y133391D01*
X130204Y133373D01*
X130185Y133206D01*
X130185Y131706D01*
X128123Y129643D01*
X125206Y129643D01*
X125161Y129689D01*
X125103Y129730D01*
X125051Y129780D01*
X125004Y129802D01*
X124961Y129832D01*
X124893Y129853D01*
X124828Y129883D01*
X124776Y129889D01*
X124726Y129904D01*
X124655Y129903D01*
X124583Y129910D01*
X124532Y129899D01*
X124480Y129898D01*
X124413Y129873D01*
X124343Y129858D01*
X124298Y129831D01*
X124249Y129814D01*
X124193Y129769D01*
X124132Y129732D01*
X124098Y129692D01*
X124057Y129660D01*
X124019Y129600D01*
X123972Y129545D01*
X123952Y129497D01*
X123924Y129453D01*
X123907Y129384D01*
X123880Y129317D01*
X123872Y129246D01*
X123864Y129215D01*
X123866Y129191D01*
X123862Y129150D01*
X123862Y128454D01*
X122874Y127466D01*
X122863Y127450D01*
X122847Y127438D01*
X122791Y127351D01*
X122731Y127267D01*
X122725Y127248D01*
X122714Y127231D01*
X122689Y127130D01*
X122658Y127032D01*
X122659Y127012D01*
X122654Y126992D01*
X122662Y126889D01*
X122665Y126786D01*
X122672Y126767D01*
X122673Y126747D01*
X122713Y126652D01*
X122749Y126555D01*
X122762Y126539D01*
X122769Y126521D01*
X122874Y126390D01*
X123377Y125887D01*
X123377Y122750D01*
X121158Y120532D01*
X118021Y120532D01*
X116810Y121743D01*
X116751Y121786D01*
X116698Y121836D01*
X116652Y121857D01*
X116611Y121887D01*
X116541Y121908D01*
X116475Y121939D01*
X116424Y121944D01*
X116375Y121959D01*
X116303Y121957D01*
X116230Y121965D01*
X116180Y121954D01*
X116130Y121953D01*
X116061Y121928D01*
X115990Y121912D01*
X115946Y121886D01*
X115899Y121868D01*
X115842Y121823D01*
X115779Y121785D01*
X115746Y121747D01*
X115707Y121715D01*
X115667Y121653D01*
X115620Y121598D01*
X115601Y121551D01*
X115574Y121508D01*
X115556Y121437D01*
X115529Y121369D01*
X115521Y121300D01*
X115513Y121269D01*
X115515Y121245D01*
X115511Y121203D01*
X115518Y118879D01*
X115497Y118809D01*
X115463Y118726D01*
X115458Y118683D01*
X115451Y118660D01*
X115452Y118628D01*
X115445Y118559D01*
X115445Y116723D01*
X115448Y116703D01*
X115446Y116683D01*
X115468Y116582D01*
X115484Y116480D01*
X115494Y116463D01*
X115498Y116443D01*
X115551Y116354D01*
X115599Y116263D01*
X115614Y116249D01*
X115624Y116232D01*
X115703Y116165D01*
X115778Y116093D01*
X115796Y116085D01*
X115811Y116072D01*
X115907Y116033D01*
X116001Y115990D01*
X116021Y115988D01*
X116039Y115980D01*
X116206Y115962D01*
X123000Y115962D01*
X123215Y115747D01*
X123289Y115693D01*
X123359Y115634D01*
X123389Y115622D01*
X123415Y115603D01*
X123502Y115576D01*
X123587Y115542D01*
X123628Y115538D01*
X123650Y115531D01*
X123682Y115532D01*
X123754Y115524D01*
X124718Y115524D01*
X124738Y115527D01*
G37*
G36*
X112409Y128219D02*
X112409Y128219D01*
X112452Y128219D01*
X112529Y128245D01*
X112607Y128262D01*
X112644Y128284D01*
X112685Y128298D01*
X112779Y128363D01*
X112797Y128372D01*
X112805Y128380D01*
X112808Y128382D01*
X112818Y128388D01*
X112820Y128391D01*
X112824Y128393D01*
X115055Y130310D01*
X115132Y130402D01*
X115210Y130493D01*
X115211Y130496D01*
X115213Y130498D01*
X115256Y130609D01*
X115302Y130721D01*
X115302Y130725D01*
X115303Y130727D01*
X115304Y130739D01*
X115320Y130888D01*
X115320Y133262D01*
X116887Y134828D01*
X122299Y134828D01*
X122300Y134828D01*
X122313Y134812D01*
X122400Y134756D01*
X122484Y134696D01*
X122503Y134690D01*
X122520Y134679D01*
X122620Y134654D01*
X122719Y134623D01*
X122739Y134624D01*
X122758Y134619D01*
X122861Y134627D01*
X122965Y134630D01*
X122983Y134636D01*
X123003Y134638D01*
X123099Y134679D01*
X123196Y134714D01*
X123211Y134726D01*
X123230Y134734D01*
X123361Y134839D01*
X123839Y135317D01*
X123850Y135333D01*
X123866Y135346D01*
X123897Y135394D01*
X123904Y135402D01*
X123911Y135415D01*
X123922Y135433D01*
X123982Y135517D01*
X123988Y135536D01*
X123999Y135553D01*
X124024Y135653D01*
X124055Y135752D01*
X124054Y135772D01*
X124059Y135791D01*
X124051Y135894D01*
X124048Y135998D01*
X124041Y136017D01*
X124040Y136036D01*
X123999Y136131D01*
X123964Y136229D01*
X123951Y136244D01*
X123944Y136263D01*
X123839Y136394D01*
X122745Y137487D01*
X122745Y140404D01*
X124808Y142466D01*
X126597Y142466D01*
X126687Y142481D01*
X126778Y142488D01*
X126808Y142501D01*
X126840Y142506D01*
X126920Y142548D01*
X127004Y142584D01*
X127036Y142610D01*
X127057Y142621D01*
X127079Y142644D01*
X127135Y142689D01*
X129021Y144575D01*
X129063Y144633D01*
X129112Y144685D01*
X129134Y144732D01*
X129164Y144775D01*
X129186Y144843D01*
X129216Y144908D01*
X129221Y144960D01*
X129237Y145010D01*
X129235Y145081D01*
X129243Y145153D01*
X129232Y145203D01*
X129230Y145255D01*
X129206Y145323D01*
X129191Y145393D01*
X129164Y145438D01*
X129146Y145487D01*
X129101Y145543D01*
X129064Y145604D01*
X129025Y145638D01*
X128992Y145679D01*
X128932Y145717D01*
X128877Y145764D01*
X128829Y145783D01*
X128785Y145812D01*
X128716Y145829D01*
X128649Y145856D01*
X128578Y145864D01*
X128547Y145872D01*
X128524Y145870D01*
X128483Y145874D01*
X105427Y145874D01*
X105356Y145863D01*
X105284Y145861D01*
X105236Y145843D01*
X105184Y145835D01*
X105121Y145801D01*
X105053Y145776D01*
X105013Y145744D01*
X104967Y145720D01*
X104917Y145668D01*
X104861Y145623D01*
X104833Y145579D01*
X104797Y145541D01*
X104767Y145476D01*
X104728Y145416D01*
X104716Y145365D01*
X104694Y145318D01*
X104686Y145247D01*
X104668Y145177D01*
X104672Y145125D01*
X104667Y145074D01*
X104682Y145003D01*
X104688Y144932D01*
X104708Y144884D01*
X104719Y144833D01*
X104756Y144772D01*
X104784Y144706D01*
X104829Y144650D01*
X104845Y144622D01*
X104863Y144607D01*
X104889Y144575D01*
X106035Y143428D01*
X106109Y143375D01*
X106179Y143315D01*
X106209Y143303D01*
X106235Y143284D01*
X106322Y143258D01*
X106407Y143223D01*
X106448Y143219D01*
X106470Y143212D01*
X106502Y143213D01*
X106574Y143205D01*
X106943Y143205D01*
X109161Y140987D01*
X109161Y137850D01*
X106943Y135632D01*
X103806Y135632D01*
X101588Y137850D01*
X101588Y138219D01*
X101573Y138309D01*
X101566Y138400D01*
X101553Y138430D01*
X101548Y138462D01*
X101505Y138542D01*
X101469Y138626D01*
X101444Y138659D01*
X101433Y138679D01*
X101409Y138701D01*
X101365Y138757D01*
X98495Y141627D01*
X98421Y141680D01*
X98351Y141740D01*
X98321Y141752D01*
X98295Y141771D01*
X98208Y141798D01*
X98123Y141832D01*
X98082Y141836D01*
X98060Y141843D01*
X98028Y141842D01*
X97956Y141850D01*
X97470Y141850D01*
X95136Y142817D01*
X93349Y144604D01*
X93087Y145238D01*
X93049Y145299D01*
X93020Y145364D01*
X92984Y145403D01*
X92957Y145447D01*
X92902Y145493D01*
X92853Y145546D01*
X92808Y145571D01*
X92767Y145604D01*
X92700Y145630D01*
X92638Y145664D01*
X92586Y145673D01*
X92538Y145692D01*
X92466Y145695D01*
X92396Y145708D01*
X92344Y145700D01*
X92292Y145702D01*
X92223Y145683D01*
X92152Y145672D01*
X92106Y145648D01*
X92056Y145634D01*
X91997Y145593D01*
X91933Y145561D01*
X91897Y145523D01*
X91854Y145494D01*
X91811Y145436D01*
X91761Y145385D01*
X91726Y145322D01*
X91707Y145296D01*
X91700Y145274D01*
X91680Y145238D01*
X91417Y144604D01*
X90899Y144085D01*
X90845Y144011D01*
X90786Y143942D01*
X90774Y143912D01*
X90755Y143885D01*
X90728Y143798D01*
X90694Y143713D01*
X90690Y143673D01*
X90683Y143650D01*
X90684Y143618D01*
X90676Y143547D01*
X90676Y130913D01*
X90679Y130894D01*
X90677Y130874D01*
X90699Y130773D01*
X90715Y130671D01*
X90725Y130653D01*
X90729Y130633D01*
X90782Y130544D01*
X90830Y130453D01*
X90845Y130439D01*
X90855Y130422D01*
X90934Y130355D01*
X91009Y130284D01*
X91027Y130275D01*
X91042Y130262D01*
X91138Y130224D01*
X91232Y130180D01*
X91252Y130178D01*
X91270Y130171D01*
X91437Y130152D01*
X93718Y130152D01*
X93738Y130155D01*
X93757Y130153D01*
X93859Y130175D01*
X93961Y130192D01*
X93978Y130201D01*
X93998Y130205D01*
X94087Y130259D01*
X94178Y130307D01*
X94192Y130321D01*
X94209Y130332D01*
X94276Y130410D01*
X94348Y130485D01*
X94356Y130503D01*
X94369Y130518D01*
X94408Y130615D01*
X94451Y130708D01*
X94453Y130728D01*
X94461Y130747D01*
X94479Y130913D01*
X94479Y131458D01*
X96542Y133521D01*
X99458Y133521D01*
X101521Y131458D01*
X101521Y131282D01*
X101524Y131262D01*
X101522Y131243D01*
X101544Y131141D01*
X101560Y131039D01*
X101570Y131022D01*
X101574Y131002D01*
X101627Y130913D01*
X101676Y130822D01*
X101690Y130808D01*
X101700Y130791D01*
X101779Y130724D01*
X101854Y130652D01*
X101872Y130644D01*
X101887Y130631D01*
X101983Y130592D01*
X102077Y130549D01*
X102097Y130547D01*
X102115Y130539D01*
X102282Y130521D01*
X103764Y130521D01*
X103783Y130524D01*
X103803Y130522D01*
X103904Y130544D01*
X104006Y130560D01*
X104024Y130570D01*
X104043Y130574D01*
X104132Y130627D01*
X104224Y130676D01*
X104237Y130690D01*
X104255Y130700D01*
X104322Y130779D01*
X104393Y130854D01*
X104401Y130872D01*
X104414Y130887D01*
X104453Y130983D01*
X104497Y131077D01*
X104499Y131097D01*
X104506Y131115D01*
X104525Y131282D01*
X104525Y131595D01*
X106587Y133657D01*
X109504Y133657D01*
X111566Y131595D01*
X111566Y128970D01*
X111569Y128954D01*
X111567Y128939D01*
X111573Y128915D01*
X111571Y128885D01*
X111593Y128807D01*
X111606Y128727D01*
X111618Y128704D01*
X111620Y128699D01*
X111627Y128686D01*
X111638Y128648D01*
X111683Y128581D01*
X111721Y128510D01*
X111752Y128480D01*
X111777Y128445D01*
X111841Y128396D01*
X111899Y128341D01*
X111939Y128323D01*
X111973Y128297D01*
X112049Y128271D01*
X112123Y128237D01*
X112165Y128232D01*
X112206Y128219D01*
X112287Y128219D01*
X112367Y128210D01*
X112409Y128219D01*
G37*
G36*
X181704Y1853D02*
X181704Y1853D01*
X181724Y1851D01*
X181825Y1873D01*
X181927Y1890D01*
X181945Y1899D01*
X181964Y1903D01*
X182053Y1956D01*
X182144Y2005D01*
X182158Y2019D01*
X182175Y2029D01*
X182243Y2108D01*
X182314Y2183D01*
X182322Y2201D01*
X182335Y2216D01*
X182374Y2312D01*
X182417Y2406D01*
X182420Y2426D01*
X182427Y2444D01*
X182446Y2611D01*
X182446Y33272D01*
X182442Y33292D01*
X182444Y33312D01*
X182422Y33413D01*
X182406Y33515D01*
X182396Y33532D01*
X182392Y33552D01*
X182339Y33641D01*
X182291Y33732D01*
X182276Y33746D01*
X182266Y33763D01*
X182187Y33830D01*
X182112Y33902D01*
X182094Y33910D01*
X182079Y33923D01*
X181983Y33962D01*
X181889Y34005D01*
X181870Y34007D01*
X181851Y34015D01*
X181684Y34033D01*
X175895Y34033D01*
X175808Y34019D01*
X175719Y34013D01*
X175687Y33999D01*
X175652Y33994D01*
X175574Y33952D01*
X175492Y33918D01*
X175457Y33890D01*
X175435Y33879D01*
X175413Y33856D01*
X175361Y33814D01*
X175251Y33706D01*
X170380Y33740D01*
X169044Y35096D01*
X169027Y35108D01*
X169015Y35123D01*
X168928Y35180D01*
X168845Y35241D01*
X168826Y35247D01*
X168809Y35258D01*
X168709Y35284D01*
X168610Y35315D01*
X168590Y35314D01*
X168571Y35319D01*
X168468Y35312D01*
X168364Y35310D01*
X168346Y35303D01*
X168326Y35302D01*
X168230Y35262D01*
X168133Y35227D01*
X168117Y35215D01*
X168099Y35207D01*
X167967Y35103D01*
X166544Y33700D01*
X162366Y33700D01*
X162346Y33697D01*
X162326Y33699D01*
X162225Y33677D01*
X162123Y33661D01*
X162105Y33651D01*
X162086Y33647D01*
X161997Y33594D01*
X161906Y33545D01*
X161892Y33531D01*
X161875Y33521D01*
X161807Y33442D01*
X161736Y33367D01*
X161728Y33349D01*
X161715Y33334D01*
X161676Y33238D01*
X161633Y33144D01*
X161630Y33124D01*
X161623Y33106D01*
X161604Y32939D01*
X161604Y26590D01*
X161616Y26520D01*
X161618Y26448D01*
X161636Y26399D01*
X161644Y26348D01*
X161678Y26284D01*
X161702Y26217D01*
X161735Y26176D01*
X161759Y26130D01*
X161811Y26081D01*
X161856Y26025D01*
X161900Y25997D01*
X161938Y25961D01*
X162003Y25931D01*
X162063Y25892D01*
X162114Y25879D01*
X162161Y25857D01*
X162232Y25849D01*
X162302Y25832D01*
X162353Y25836D01*
X162405Y25830D01*
X162475Y25845D01*
X162547Y25851D01*
X162595Y25871D01*
X162646Y25882D01*
X162707Y25919D01*
X162773Y25947D01*
X162829Y25992D01*
X162857Y26009D01*
X162872Y26026D01*
X162904Y26052D01*
X163307Y26455D01*
X174860Y26455D01*
X175604Y25711D01*
X175604Y2611D01*
X175608Y2591D01*
X175606Y2572D01*
X175628Y2470D01*
X175644Y2368D01*
X175654Y2351D01*
X175658Y2331D01*
X175711Y2242D01*
X175759Y2151D01*
X175774Y2137D01*
X175784Y2120D01*
X175863Y2053D01*
X175938Y1982D01*
X175956Y1973D01*
X175971Y1960D01*
X176067Y1921D01*
X176161Y1878D01*
X176180Y1876D01*
X176199Y1868D01*
X176366Y1850D01*
X181684Y1850D01*
X181704Y1853D01*
G37*
G36*
X54762Y121991D02*
X54762Y121991D01*
X54781Y121988D01*
X54883Y122010D01*
X54985Y122027D01*
X55002Y122036D01*
X55022Y122041D01*
X55111Y122094D01*
X55202Y122142D01*
X55216Y122157D01*
X55233Y122167D01*
X55300Y122245D01*
X55371Y122320D01*
X55380Y122339D01*
X55393Y122354D01*
X55431Y122450D01*
X55475Y122544D01*
X55477Y122563D01*
X55485Y122582D01*
X55503Y122749D01*
X55503Y123517D01*
X56247Y124262D01*
X56921Y124262D01*
X56991Y124273D01*
X57063Y124275D01*
X57112Y124293D01*
X57163Y124301D01*
X57227Y124335D01*
X57294Y124360D01*
X57335Y124392D01*
X57381Y124416D01*
X57430Y124468D01*
X57486Y124513D01*
X57514Y124557D01*
X57550Y124595D01*
X57580Y124660D01*
X57619Y124720D01*
X57632Y124771D01*
X57654Y124818D01*
X57662Y124889D01*
X57679Y124959D01*
X57675Y125011D01*
X57681Y125062D01*
X57666Y125132D01*
X57660Y125204D01*
X57640Y125252D01*
X57629Y125303D01*
X57592Y125364D01*
X57564Y125430D01*
X57519Y125486D01*
X57503Y125514D01*
X57485Y125529D01*
X57459Y125561D01*
X54527Y128493D01*
X54453Y128546D01*
X54384Y128605D01*
X54354Y128618D01*
X54328Y128636D01*
X54240Y128663D01*
X54156Y128697D01*
X54115Y128702D01*
X54092Y128709D01*
X54060Y128708D01*
X53989Y128716D01*
X51125Y128716D01*
X49558Y130283D01*
X49558Y135690D01*
X51125Y137257D01*
X55932Y137257D01*
X57499Y135690D01*
X57499Y133023D01*
X57514Y132933D01*
X57521Y132842D01*
X57534Y132812D01*
X57539Y132780D01*
X57582Y132699D01*
X57617Y132615D01*
X57643Y132583D01*
X57654Y132562D01*
X57677Y132540D01*
X57722Y132484D01*
X60195Y130011D01*
X60269Y129958D01*
X60339Y129899D01*
X60369Y129886D01*
X60395Y129868D01*
X60482Y129841D01*
X60567Y129807D01*
X60608Y129802D01*
X60630Y129795D01*
X60662Y129796D01*
X60734Y129788D01*
X62372Y129788D01*
X63856Y128304D01*
X63905Y128269D01*
X64129Y128041D01*
X64190Y127997D01*
X64244Y127946D01*
X64288Y127925D01*
X64328Y127896D01*
X64399Y127873D01*
X64467Y127842D01*
X64516Y127837D01*
X64563Y127822D01*
X64637Y127823D01*
X64711Y127815D01*
X64759Y127825D01*
X64809Y127826D01*
X64879Y127851D01*
X64952Y127867D01*
X64994Y127892D01*
X65040Y127909D01*
X65099Y127955D01*
X65163Y127993D01*
X65195Y128031D01*
X65233Y128061D01*
X65274Y128124D01*
X65323Y128180D01*
X65341Y128226D01*
X65368Y128267D01*
X65387Y128339D01*
X65415Y128408D01*
X65422Y128475D01*
X65430Y128505D01*
X65428Y128530D01*
X65433Y128575D01*
X65433Y130785D01*
X67100Y132452D01*
X67153Y132526D01*
X67213Y132596D01*
X67225Y132626D01*
X67244Y132652D01*
X67270Y132739D01*
X67305Y132824D01*
X67309Y132865D01*
X67316Y132887D01*
X67315Y132919D01*
X67323Y132991D01*
X67323Y135757D01*
X69067Y137501D01*
X69109Y137559D01*
X69158Y137611D01*
X69180Y137658D01*
X69210Y137700D01*
X69231Y137769D01*
X69262Y137834D01*
X69267Y137886D01*
X69283Y137935D01*
X69281Y138007D01*
X69289Y138078D01*
X69278Y138129D01*
X69276Y138181D01*
X69252Y138249D01*
X69237Y138319D01*
X69210Y138363D01*
X69192Y138412D01*
X69147Y138468D01*
X69110Y138530D01*
X69071Y138564D01*
X69038Y138604D01*
X68978Y138643D01*
X68923Y138690D01*
X68875Y138709D01*
X68831Y138737D01*
X68762Y138755D01*
X68695Y138782D01*
X68624Y138790D01*
X68593Y138797D01*
X68569Y138796D01*
X68529Y138800D01*
X54459Y138800D01*
X51121Y142139D01*
X51026Y142206D01*
X50932Y142277D01*
X50926Y142279D01*
X50921Y142282D01*
X50810Y142316D01*
X50698Y142353D01*
X50692Y142353D01*
X50686Y142355D01*
X50569Y142352D01*
X50452Y142350D01*
X50445Y142348D01*
X50440Y142348D01*
X50423Y142342D01*
X50291Y142304D01*
X49196Y141850D01*
X46670Y141850D01*
X44336Y142817D01*
X42549Y144604D01*
X42287Y145238D01*
X42249Y145299D01*
X42220Y145364D01*
X42184Y145403D01*
X42157Y145447D01*
X42102Y145493D01*
X42053Y145546D01*
X42008Y145571D01*
X41967Y145604D01*
X41901Y145630D01*
X41838Y145664D01*
X41786Y145673D01*
X41738Y145692D01*
X41666Y145695D01*
X41596Y145708D01*
X41544Y145700D01*
X41492Y145702D01*
X41423Y145683D01*
X41352Y145672D01*
X41306Y145648D01*
X41256Y145634D01*
X41197Y145593D01*
X41133Y145561D01*
X41097Y145523D01*
X41054Y145494D01*
X41011Y145436D01*
X40961Y145385D01*
X40926Y145322D01*
X40907Y145296D01*
X40900Y145274D01*
X40880Y145238D01*
X40617Y144604D01*
X39027Y143013D01*
X39015Y142997D01*
X39000Y142985D01*
X38944Y142898D01*
X38883Y142814D01*
X38877Y142795D01*
X38867Y142778D01*
X38841Y142678D01*
X38811Y142579D01*
X38812Y142559D01*
X38807Y142539D01*
X38815Y142436D01*
X38817Y142333D01*
X38824Y142314D01*
X38826Y142294D01*
X38866Y142199D01*
X38902Y142102D01*
X38914Y142086D01*
X38922Y142068D01*
X39027Y141937D01*
X39070Y141894D01*
X39072Y141879D01*
X39115Y141799D01*
X39151Y141715D01*
X39177Y141683D01*
X39188Y141662D01*
X39211Y141640D01*
X39256Y141584D01*
X40815Y140024D01*
X40816Y140024D01*
X42229Y138610D01*
X42229Y130125D01*
X42244Y130035D01*
X42251Y129944D01*
X42264Y129914D01*
X42269Y129882D01*
X42312Y129801D01*
X42347Y129717D01*
X42373Y129685D01*
X42384Y129664D01*
X42407Y129642D01*
X42452Y129586D01*
X49828Y122210D01*
X49902Y122157D01*
X49972Y122098D01*
X50002Y122086D01*
X50028Y122067D01*
X50115Y122040D01*
X50200Y122006D01*
X50241Y122001D01*
X50263Y121994D01*
X50295Y121995D01*
X50366Y121987D01*
X54742Y121987D01*
X54762Y121991D01*
G37*
G36*
X151105Y94409D02*
X151105Y94409D01*
X151124Y94407D01*
X151226Y94429D01*
X151328Y94446D01*
X151345Y94455D01*
X151364Y94459D01*
X151454Y94512D01*
X151546Y94561D01*
X151559Y94575D01*
X151576Y94585D01*
X151643Y94664D01*
X151715Y94739D01*
X151723Y94757D01*
X151736Y94771D01*
X151775Y94868D01*
X151819Y94962D01*
X151821Y94981D01*
X151825Y94991D01*
X153416Y96577D01*
X158824Y96567D01*
X160359Y95027D01*
X160376Y95015D01*
X160388Y94999D01*
X160475Y94943D01*
X160558Y94883D01*
X160578Y94877D01*
X160595Y94866D01*
X160695Y94840D01*
X160793Y94810D01*
X160814Y94811D01*
X160834Y94806D01*
X160936Y94814D01*
X161039Y94816D01*
X161059Y94823D01*
X161079Y94825D01*
X161174Y94865D01*
X161270Y94900D01*
X161287Y94913D01*
X161305Y94921D01*
X161436Y95026D01*
X162865Y96455D01*
X162877Y96471D01*
X162893Y96483D01*
X162949Y96571D01*
X163009Y96655D01*
X163015Y96674D01*
X163026Y96690D01*
X163051Y96791D01*
X163081Y96890D01*
X163081Y96910D01*
X163086Y96929D01*
X163078Y97032D01*
X163075Y97136D01*
X163068Y97154D01*
X163067Y97174D01*
X163026Y97269D01*
X163025Y97271D01*
X163022Y97286D01*
X163017Y97295D01*
X162990Y97367D01*
X162978Y97382D01*
X162970Y97400D01*
X162905Y97482D01*
X162896Y97497D01*
X162886Y97505D01*
X162865Y97531D01*
X161508Y98889D01*
X161508Y103697D01*
X162580Y104769D01*
X162592Y104785D01*
X162607Y104798D01*
X162663Y104885D01*
X162723Y104969D01*
X162729Y104988D01*
X162740Y105005D01*
X162765Y105105D01*
X162796Y105204D01*
X162795Y105224D01*
X162800Y105243D01*
X162792Y105346D01*
X162789Y105450D01*
X162783Y105469D01*
X162781Y105489D01*
X162741Y105583D01*
X162705Y105681D01*
X162692Y105697D01*
X162685Y105715D01*
X162580Y105846D01*
X157863Y110562D01*
X157789Y110615D01*
X157720Y110675D01*
X157690Y110687D01*
X157664Y110706D01*
X157577Y110733D01*
X157492Y110767D01*
X157451Y110771D01*
X157429Y110778D01*
X157396Y110777D01*
X157325Y110785D01*
X150033Y110785D01*
X149962Y110774D01*
X149890Y110772D01*
X149842Y110754D01*
X149790Y110746D01*
X149727Y110712D01*
X149659Y110687D01*
X149619Y110655D01*
X149573Y110630D01*
X149523Y110578D01*
X149467Y110534D01*
X149439Y110490D01*
X149403Y110452D01*
X149373Y110387D01*
X149334Y110327D01*
X149322Y110276D01*
X149300Y110229D01*
X149292Y110158D01*
X149274Y110088D01*
X149278Y110036D01*
X149273Y109985D01*
X149288Y109914D01*
X149294Y109843D01*
X149314Y109795D01*
X149325Y109744D01*
X149362Y109683D01*
X149390Y109617D01*
X149435Y109561D01*
X149451Y109533D01*
X149469Y109518D01*
X149495Y109486D01*
X150607Y108374D01*
X150607Y103566D01*
X149040Y101999D01*
X143632Y101999D01*
X141869Y103762D01*
X141811Y103804D01*
X141759Y103854D01*
X141711Y103875D01*
X141669Y103906D01*
X141601Y103927D01*
X141536Y103957D01*
X141484Y103963D01*
X141434Y103978D01*
X141362Y103976D01*
X141291Y103984D01*
X141240Y103973D01*
X141188Y103972D01*
X141121Y103947D01*
X141051Y103932D01*
X141006Y103905D01*
X140957Y103887D01*
X140901Y103843D01*
X140840Y103806D01*
X140806Y103766D01*
X140765Y103734D01*
X140726Y103673D01*
X140680Y103619D01*
X140660Y103571D01*
X140632Y103527D01*
X140615Y103457D01*
X140588Y103391D01*
X140580Y103319D01*
X140572Y103288D01*
X140574Y103265D01*
X140569Y103224D01*
X140569Y102847D01*
X139602Y101880D01*
X139564Y101827D01*
X139509Y101769D01*
X139501Y101751D01*
X139488Y101736D01*
X139474Y101702D01*
X139458Y101680D01*
X139440Y101620D01*
X139406Y101546D01*
X139404Y101527D01*
X139396Y101508D01*
X139391Y101460D01*
X139386Y101445D01*
X139387Y101422D01*
X139378Y101341D01*
X139378Y97405D01*
X139381Y97386D01*
X139379Y97366D01*
X139396Y97286D01*
X139401Y97224D01*
X139411Y97200D01*
X139417Y97163D01*
X139427Y97145D01*
X139431Y97125D01*
X139472Y97056D01*
X139497Y96998D01*
X139519Y96971D01*
X139532Y96945D01*
X139547Y96931D01*
X139557Y96914D01*
X139579Y96895D01*
X139602Y96867D01*
X140569Y95900D01*
X140569Y95167D01*
X140572Y95148D01*
X140570Y95128D01*
X140592Y95027D01*
X140609Y94925D01*
X140618Y94907D01*
X140623Y94887D01*
X140676Y94798D01*
X140724Y94707D01*
X140739Y94693D01*
X140749Y94676D01*
X140827Y94609D01*
X140902Y94538D01*
X140920Y94529D01*
X140936Y94516D01*
X141032Y94478D01*
X141126Y94434D01*
X141145Y94432D01*
X141164Y94424D01*
X141331Y94406D01*
X151086Y94406D01*
X151105Y94409D01*
G37*
G36*
X72332Y24922D02*
X72332Y24922D01*
X72435Y24925D01*
X72454Y24932D01*
X72474Y24933D01*
X72569Y24974D01*
X72666Y25009D01*
X72682Y25022D01*
X72700Y25029D01*
X72831Y25134D01*
X78526Y30829D01*
X80238Y32541D01*
X81642Y32541D01*
X81713Y32552D01*
X81785Y32554D01*
X81834Y32572D01*
X81885Y32580D01*
X81948Y32614D01*
X82016Y32639D01*
X82056Y32671D01*
X82103Y32696D01*
X82152Y32748D01*
X82208Y32792D01*
X82236Y32836D01*
X82272Y32874D01*
X82302Y32939D01*
X82341Y32999D01*
X82354Y33050D01*
X82376Y33097D01*
X82383Y33168D01*
X82401Y33238D01*
X82397Y33290D01*
X82403Y33341D01*
X82387Y33412D01*
X82382Y33483D01*
X82361Y33531D01*
X82350Y33582D01*
X82314Y33643D01*
X82285Y33709D01*
X82241Y33765D01*
X82224Y33793D01*
X82206Y33808D01*
X82181Y33840D01*
X80479Y35542D01*
X80479Y38458D01*
X82542Y40521D01*
X84331Y40521D01*
X84421Y40535D01*
X84512Y40543D01*
X84541Y40555D01*
X84573Y40560D01*
X84654Y40603D01*
X84738Y40639D01*
X84770Y40665D01*
X84791Y40676D01*
X84813Y40699D01*
X84869Y40744D01*
X85718Y41593D01*
X85771Y41667D01*
X85831Y41736D01*
X85843Y41766D01*
X85862Y41793D01*
X85888Y41880D01*
X85923Y41964D01*
X85927Y42005D01*
X85934Y42028D01*
X85933Y42060D01*
X85941Y42131D01*
X85941Y45229D01*
X85930Y45299D01*
X85928Y45371D01*
X85910Y45420D01*
X85901Y45471D01*
X85868Y45535D01*
X85843Y45602D01*
X85811Y45643D01*
X85786Y45689D01*
X85734Y45738D01*
X85690Y45794D01*
X85646Y45822D01*
X85608Y45858D01*
X85543Y45888D01*
X85483Y45927D01*
X85432Y45940D01*
X85385Y45962D01*
X85314Y45970D01*
X85244Y45987D01*
X85192Y45983D01*
X85140Y45989D01*
X85070Y45974D01*
X84999Y45968D01*
X84951Y45948D01*
X84900Y45937D01*
X84838Y45900D01*
X84773Y45872D01*
X84717Y45827D01*
X84689Y45810D01*
X84674Y45793D01*
X84642Y45767D01*
X83593Y44718D01*
X73842Y34967D01*
X71137Y34967D01*
X71046Y34953D01*
X70956Y34945D01*
X70926Y34933D01*
X70894Y34928D01*
X70813Y34885D01*
X70729Y34849D01*
X70697Y34823D01*
X70676Y34812D01*
X70654Y34789D01*
X70598Y34744D01*
X66940Y31086D01*
X66898Y31028D01*
X66849Y30976D01*
X66827Y30929D01*
X66797Y30887D01*
X66776Y30818D01*
X66745Y30753D01*
X66740Y30701D01*
X66724Y30651D01*
X66726Y30580D01*
X66718Y30509D01*
X66729Y30458D01*
X66731Y30406D01*
X66755Y30338D01*
X66771Y30268D01*
X66797Y30224D01*
X66815Y30175D01*
X66860Y30119D01*
X66897Y30057D01*
X66936Y30023D01*
X66969Y29983D01*
X67029Y29944D01*
X67084Y29897D01*
X67132Y29878D01*
X67176Y29850D01*
X67245Y29832D01*
X67312Y29805D01*
X67383Y29797D01*
X67414Y29789D01*
X67438Y29791D01*
X67479Y29787D01*
X68569Y29787D01*
X70787Y27569D01*
X70787Y26417D01*
X70801Y26328D01*
X70809Y26236D01*
X70821Y26207D01*
X70826Y26175D01*
X70869Y26094D01*
X70905Y26010D01*
X70931Y25978D01*
X70942Y25957D01*
X70965Y25935D01*
X71010Y25879D01*
X71755Y25134D01*
X71771Y25123D01*
X71783Y25107D01*
X71870Y25051D01*
X71954Y24991D01*
X71973Y24985D01*
X71990Y24974D01*
X72091Y24949D01*
X72189Y24918D01*
X72209Y24919D01*
X72229Y24914D01*
X72332Y24922D01*
G37*
D10*
X119474Y58491D03*
X119474Y63491D03*
X119474Y68491D03*
X119474Y73491D03*
X119474Y78491D03*
X119474Y83491D03*
X119474Y88491D03*
X119474Y93491D03*
X119474Y98491D03*
X119474Y103491D03*
X119474Y108491D03*
X119474Y113491D03*
D11*
X112974Y119991D03*
X107974Y119991D03*
X102974Y119991D03*
X97974Y119991D03*
X92974Y119991D03*
X87974Y119991D03*
X82974Y119991D03*
X77974Y119991D03*
X72974Y119991D03*
X67974Y119991D03*
X62974Y119991D03*
X57974Y119991D03*
D10*
X51474Y113491D03*
X51474Y108491D03*
X51474Y103491D03*
X51474Y98491D03*
X51474Y93491D03*
X51474Y88491D03*
X51474Y83491D03*
X51474Y78491D03*
X51474Y73491D03*
X51474Y68491D03*
X51474Y63491D03*
X51474Y58491D03*
D11*
X57974Y51991D03*
X62974Y51991D03*
X67974Y51991D03*
X72974Y51991D03*
X77974Y51991D03*
X82974Y51991D03*
X87974Y51991D03*
X92974Y51991D03*
X97974Y51991D03*
X102974Y51991D03*
X107974Y51991D03*
X112974Y51991D03*
D12*
X85474Y85991D03*
D13*
X72874Y109241D03*
X85474Y109241D03*
X98074Y109241D03*
X72874Y62741D03*
X85474Y62741D03*
X98074Y62741D03*
X62224Y98591D03*
X62224Y85991D03*
X62224Y73391D03*
X108724Y98591D03*
X108724Y85991D03*
X108724Y73391D03*
X85474Y98591D03*
X85220Y85991D03*
X85474Y73391D03*
X72874Y98591D03*
X72874Y85991D03*
X72874Y73391D03*
X98074Y98591D03*
X98074Y85991D03*
X98074Y73391D03*
D14*
X19459Y122325D02*
X19459Y124917D01*
X22651Y124917D01*
X22651Y122325D01*
X19459Y122325D01*
X22651Y130925D02*
X22651Y133517D01*
X22651Y130925D02*
X19459Y130925D01*
X19459Y133517D01*
X22651Y133517D01*
X9546Y124810D02*
X9546Y122218D01*
X9546Y124810D02*
X12738Y124810D01*
X12738Y122218D01*
X9546Y122218D01*
X12738Y130818D02*
X12738Y133410D01*
X12738Y130818D02*
X9546Y130818D01*
X9546Y133410D01*
X12738Y133410D01*
X30667Y16906D02*
X33259Y16906D01*
X30667Y16906D02*
X30667Y20098D01*
X33259Y20098D01*
X33259Y16906D01*
X33259Y19574D02*
X30667Y19574D01*
X24659Y20098D02*
X22067Y20098D01*
X24659Y20098D02*
X24659Y16906D01*
X22067Y16906D01*
X22067Y20098D01*
X22067Y19574D02*
X24659Y19574D01*
X24623Y29795D02*
X22031Y29795D01*
X24623Y29795D02*
X24623Y26603D01*
X22031Y26603D01*
X22031Y29795D01*
X22031Y29271D02*
X24623Y29271D01*
X30631Y26603D02*
X33223Y26603D01*
X30631Y26603D02*
X30631Y29795D01*
X33223Y29795D01*
X33223Y26603D01*
X33223Y29271D02*
X30631Y29271D01*
X43632Y134583D02*
X46224Y134583D01*
X46224Y131391D01*
X43632Y131391D01*
X43632Y134583D01*
X43632Y134059D02*
X46224Y134059D01*
X52232Y131391D02*
X54824Y131391D01*
X52232Y131391D02*
X52232Y134583D01*
X54824Y134583D01*
X54824Y131391D01*
X54824Y134059D02*
X52232Y134059D01*
X157726Y102494D02*
X157721Y99903D01*
X154530Y99908D01*
X154535Y102499D01*
X157726Y102494D01*
X154520Y93899D02*
X154515Y91308D01*
X154520Y93899D02*
X157711Y93894D01*
X157706Y91303D01*
X154515Y91308D01*
X144740Y96074D02*
X144740Y98666D01*
X147932Y98666D01*
X147932Y96074D01*
X144740Y96074D01*
X147932Y104674D02*
X147932Y107266D01*
X147932Y104674D02*
X144740Y104674D01*
X144740Y107266D01*
X147932Y107266D01*
X117995Y129562D02*
X117995Y132154D01*
X121187Y132154D01*
X121187Y129562D01*
X117995Y129562D01*
X121187Y138162D02*
X121187Y140754D01*
X121187Y138162D02*
X117995Y138162D01*
X117995Y140754D01*
X121187Y140754D01*
X72590Y131457D02*
X69998Y131457D01*
X69998Y134649D01*
X72590Y134649D01*
X72590Y131457D01*
X72590Y134125D02*
X69998Y134125D01*
X63990Y134649D02*
X61398Y134649D01*
X63990Y134649D02*
X63990Y131457D01*
X61398Y131457D01*
X61398Y134649D01*
X61398Y134125D02*
X63990Y134125D01*
X73709Y22119D02*
X73709Y19527D01*
X70517Y19527D01*
X70517Y22119D01*
X73709Y22119D01*
X70517Y13519D02*
X70517Y10927D01*
X70517Y13519D02*
X73709Y13519D01*
X73709Y10927D01*
X70517Y10927D01*
X33268Y36622D02*
X30676Y36622D01*
X30676Y39814D01*
X33268Y39814D01*
X33268Y36622D01*
X33268Y39290D02*
X30676Y39290D01*
X24668Y39814D02*
X22076Y39814D01*
X24668Y39814D02*
X24668Y36622D01*
X22076Y36622D01*
X22076Y39814D01*
X22076Y39290D02*
X24668Y39290D01*
D15*
X29112Y48699D02*
X34112Y48699D01*
X29112Y48699D02*
X29112Y57899D01*
X34112Y57899D01*
X34112Y48699D01*
X34112Y53449D02*
X29112Y53449D01*
X15412Y57899D02*
X10412Y57899D01*
X15412Y57899D02*
X15412Y48699D01*
X10412Y48699D01*
X10412Y57899D01*
X10412Y53449D02*
X15412Y53449D01*
X15426Y97706D02*
X10426Y97706D01*
X15426Y97706D02*
X15426Y88506D01*
X10426Y88506D01*
X10426Y97706D01*
X10426Y93256D02*
X15426Y93256D01*
X29126Y88506D02*
X34126Y88506D01*
X29126Y88506D02*
X29126Y97706D01*
X34126Y97706D01*
X34126Y88506D01*
X34126Y93256D02*
X29126Y93256D01*
D14*
X114591Y44818D02*
X114591Y42226D01*
X111399Y42226D01*
X111399Y44818D01*
X114591Y44818D01*
X111399Y36218D02*
X111399Y33626D01*
X111399Y36218D02*
X114591Y36218D01*
X114591Y33626D01*
X111399Y33626D01*
X124288Y42331D02*
X124288Y44923D01*
X124288Y42331D02*
X121096Y42331D01*
X121096Y44923D01*
X124288Y44923D01*
X121096Y36323D02*
X121096Y33731D01*
X121096Y36323D02*
X124288Y36323D01*
X124288Y33731D01*
X121096Y33731D01*
D16*
X35606Y130329D02*
X35606Y134201D01*
X35606Y130329D02*
X30334Y130329D01*
X30334Y134201D01*
X35606Y134201D01*
X35606Y134157D02*
X30334Y134157D01*
X30334Y117801D02*
X30334Y113929D01*
X30334Y117801D02*
X35606Y117801D01*
X35606Y113929D01*
X30334Y113929D01*
X30334Y117757D02*
X35606Y117757D01*
D15*
X34291Y68645D02*
X29291Y68645D01*
X29291Y77845D01*
X34291Y77845D01*
X34291Y68645D01*
X34291Y73395D02*
X29291Y73395D01*
X15591Y77845D02*
X10591Y77845D01*
X15591Y77845D02*
X15591Y68645D01*
X10591Y68645D01*
X10591Y77845D01*
X10591Y73395D02*
X15591Y73395D01*
D17*
X108843Y22904D03*
X94343Y22904D03*
X94343Y11404D03*
X108843Y11404D03*
D18*
X134004Y67073D02*
X136704Y67073D01*
X134004Y67073D02*
X134004Y70373D01*
X136704Y70373D01*
X136704Y67073D01*
X136704Y69638D02*
X134004Y69638D01*
X142644Y67073D02*
X145344Y67073D01*
X142644Y67073D02*
X142644Y70373D01*
X145344Y70373D01*
X145344Y67073D01*
X145344Y69638D02*
X142644Y69638D01*
X136785Y77301D02*
X134085Y77301D01*
X134085Y80601D01*
X136785Y80601D01*
X136785Y77301D01*
X136785Y79866D02*
X134085Y79866D01*
X142725Y77301D02*
X145425Y77301D01*
X142725Y77301D02*
X142725Y80601D01*
X145425Y80601D01*
X145425Y77301D01*
X145425Y79866D02*
X142725Y79866D01*
X142848Y39394D02*
X145548Y39394D01*
X145548Y36094D01*
X142848Y36094D01*
X142848Y39394D01*
X142848Y38659D02*
X145548Y38659D01*
X136908Y39394D02*
X134208Y39394D01*
X136908Y39394D02*
X136908Y36094D01*
X134208Y36094D01*
X134208Y39394D01*
X134208Y38659D02*
X136908Y38659D01*
X136809Y56741D02*
X134109Y56741D01*
X134109Y60041D01*
X136809Y60041D01*
X136809Y56741D01*
X136809Y59306D02*
X134109Y59306D01*
X142749Y56741D02*
X145449Y56741D01*
X142749Y56741D02*
X142749Y60041D01*
X145449Y60041D01*
X145449Y56741D01*
X145449Y59306D02*
X142749Y59306D01*
X161067Y80574D02*
X163767Y80574D01*
X163767Y77274D01*
X161067Y77274D01*
X161067Y80574D01*
X161067Y79839D02*
X163767Y79839D01*
X155127Y80574D02*
X152427Y80574D01*
X155127Y80574D02*
X155127Y77274D01*
X152427Y77274D01*
X152427Y80574D01*
X152427Y79839D02*
X155127Y79839D01*
X171338Y50486D02*
X174038Y50486D01*
X174038Y47186D01*
X171338Y47186D01*
X171338Y50486D01*
X171338Y49751D02*
X174038Y49751D01*
X165398Y50486D02*
X162698Y50486D01*
X165398Y50486D02*
X165398Y47186D01*
X162698Y47186D01*
X162698Y50486D01*
X162698Y49751D02*
X165398Y49751D01*
X165544Y36395D02*
X162845Y36414D01*
X162868Y39713D01*
X165567Y39694D01*
X165544Y36395D01*
X165562Y38960D02*
X162863Y38960D01*
X171485Y36354D02*
X174184Y36335D01*
X171485Y36354D02*
X171508Y39653D01*
X174207Y39634D01*
X174184Y36335D01*
X174202Y38900D02*
X171503Y38900D01*
X136809Y46506D02*
X134109Y46506D01*
X134109Y49806D01*
X136809Y49806D01*
X136809Y46506D01*
X136809Y49071D02*
X134109Y49071D01*
X142749Y46506D02*
X145449Y46506D01*
X142749Y46506D02*
X142749Y49806D01*
X145449Y49806D01*
X145449Y46506D01*
X145449Y49071D02*
X142749Y49071D01*
X152416Y66923D02*
X155116Y66923D01*
X152416Y66923D02*
X152416Y70223D01*
X155116Y70223D01*
X155116Y66923D01*
X155116Y69488D02*
X152416Y69488D01*
X161056Y66923D02*
X163756Y66923D01*
X161056Y66923D02*
X161056Y70223D01*
X163756Y70223D01*
X163756Y66923D01*
X163756Y69488D02*
X161056Y69488D01*
X171102Y69339D02*
X171102Y66639D01*
X171102Y69339D02*
X174402Y69339D01*
X174402Y66639D01*
X171102Y66639D01*
X171102Y69204D02*
X174402Y69204D01*
X171102Y60699D02*
X171102Y57999D01*
X171102Y60699D02*
X174402Y60699D01*
X174402Y57999D01*
X171102Y57999D01*
X171102Y60564D02*
X174402Y60564D01*
X83971Y13290D02*
X83971Y10590D01*
X80671Y10590D01*
X80671Y13290D01*
X83971Y13290D01*
X83971Y13155D02*
X80671Y13155D01*
X83971Y19230D02*
X83971Y21930D01*
X83971Y19230D02*
X80671Y19230D01*
X80671Y21930D01*
X83971Y21930D01*
X83971Y21795D02*
X80671Y21795D01*
X120337Y20930D02*
X120337Y23630D01*
X123637Y23630D01*
X123637Y20930D01*
X120337Y20930D01*
X120337Y23495D02*
X123637Y23495D01*
X120337Y14990D02*
X120337Y12290D01*
X120337Y14990D02*
X123637Y14990D01*
X123637Y12290D01*
X120337Y12290D01*
X120337Y14855D02*
X123637Y14855D01*
D15*
X206777Y47814D02*
X206777Y57814D01*
X206796Y47875D02*
X228796Y47875D01*
X228796Y57875D02*
X206796Y57875D01*
X228805Y47886D02*
X228805Y37886D01*
X228796Y67875D02*
X206796Y67875D01*
X206796Y77875D02*
X228796Y77875D01*
X228796Y87875D02*
X206796Y87875D01*
X206796Y97875D02*
X228796Y97875D01*
X228796Y107875D02*
X206796Y107875D01*
X206796Y117875D02*
X228796Y117875D01*
X228849Y67914D02*
X228849Y57914D01*
X206749Y67914D02*
X206749Y77914D01*
X228849Y77814D02*
X228849Y87814D01*
X228849Y117914D02*
X228849Y127914D01*
X206749Y97914D02*
X206749Y87914D01*
X228849Y97914D02*
X228849Y107914D01*
X206749Y107914D02*
X206749Y117914D01*
X185703Y37807D02*
X228703Y37807D01*
D19*
X185616Y37810D03*
D20*
X141584Y14185D03*
X169084Y14185D03*
D21*
X155334Y29435D03*
D18*
X162705Y39621D02*
X165405Y39621D01*
X165405Y36321D01*
X162705Y36321D01*
X162705Y39621D01*
X162705Y38886D02*
X165405Y38886D01*
X156765Y39621D02*
X154065Y39621D01*
X156765Y39621D02*
X156765Y36321D01*
X154065Y36321D01*
X154065Y39621D01*
X154065Y38886D02*
X156765Y38886D01*
D22*
X73580Y-620D03*
X86280Y-620D03*
X60880Y-620D03*
X98980Y-620D03*
X48180Y-620D03*
X111680Y-620D03*
X35480Y-620D03*
X22780Y-620D03*
X4Y67617D03*
X4Y54917D03*
X4Y80317D03*
X4Y42217D03*
X4Y93017D03*
X4Y29517D03*
X4Y105717D03*
X4Y118417D03*
X73333Y148201D03*
X86033Y148201D03*
X60633Y148201D03*
X98733Y148201D03*
X47933Y148201D03*
X111433Y148201D03*
X35233Y148201D03*
X22533Y148201D03*
D23*
X133799Y92373D03*
X133799Y106373D03*
D24*
X140500Y117650D03*
X145500Y117650D03*
X150500Y117650D03*
X155500Y117650D03*
X155500Y142350D03*
X150500Y142350D03*
X145500Y142350D03*
X140500Y142350D03*
D25*
X148000Y130000D03*
D14*
X170030Y141086D02*
X170030Y143678D01*
X170030Y141086D02*
X166838Y141086D01*
X166838Y143678D01*
X170030Y143678D01*
X166838Y135078D02*
X166838Y132486D01*
X166838Y135078D02*
X170030Y135078D01*
X170030Y132486D01*
X166838Y132486D01*
X11006Y11301D02*
X11006Y8709D01*
X11006Y11301D02*
X14198Y11301D01*
X14198Y8709D01*
X11006Y8709D01*
X14198Y17309D02*
X14198Y19901D01*
X14198Y17309D02*
X11006Y17309D01*
X11006Y19901D01*
X14198Y19901D01*
X169967Y123302D02*
X169967Y125894D01*
X169967Y123302D02*
X166775Y123302D01*
X166775Y125894D01*
X169967Y125894D01*
X166775Y117294D02*
X166775Y114702D01*
X166775Y117294D02*
X169967Y117294D01*
X169967Y114702D01*
X166775Y114702D01*
D26*
X172805Y90015D02*
X179805Y90015D01*
X179805Y83015D01*
X172805Y83015D01*
X172805Y90015D01*
X172805Y85865D02*
X179805Y85865D01*
X179805Y88715D02*
X172805Y88715D01*
X172805Y107555D02*
X179805Y107555D01*
X179805Y100555D01*
X172805Y100555D01*
X172805Y107555D01*
X172805Y103405D02*
X179805Y103405D01*
X179805Y106255D02*
X172805Y106255D01*
D14*
X167374Y102589D02*
X167374Y99997D01*
X164182Y99997D01*
X164182Y102589D01*
X167374Y102589D01*
X164182Y93989D02*
X164182Y91397D01*
X164182Y93989D02*
X167374Y93989D01*
X167374Y91397D01*
X164182Y91397D01*
D27*
X124380Y98491D02*
X119474Y98491D01*
X124380Y98491D02*
X126360Y100470D01*
X128157Y106373D02*
X133799Y106373D01*
X126360Y104576D02*
X126360Y100470D01*
X126360Y104576D02*
X128157Y106373D01*
X133799Y106373D02*
X145932Y106373D01*
X146336Y105970D01*
X125193Y93491D02*
X119474Y93491D01*
X125193Y93491D02*
X126630Y92053D01*
X133479Y92053D01*
X133799Y92373D01*
X155885Y92373D01*
X156113Y92601D01*
X31927Y28199D02*
X31963Y18502D01*
X45853Y63491D02*
X51474Y63491D01*
X42000Y59637D02*
X42000Y57000D01*
X42000Y59637D02*
X45853Y63491D01*
D28*
X42000Y57000D03*
D27*
X42191Y38463D02*
X31927Y28199D01*
X42191Y56809D02*
X42000Y57000D01*
X42191Y56809D02*
X42191Y38463D01*
D29*
X45704Y73491D02*
X51474Y73491D01*
X45704Y73491D02*
X45597Y73598D01*
D30*
X45704Y73491D02*
X32036Y73491D01*
X31791Y73245D01*
D31*
X112995Y43522D02*
X113993Y43522D01*
X114302Y43522D02*
X112995Y43522D01*
D30*
X13091Y73245D02*
X13091Y82017D01*
X13070Y92963D02*
X13091Y92984D01*
X13070Y92963D02*
X12926Y93106D01*
X13091Y92984D02*
X13091Y82017D01*
X14672Y83598D01*
X23597Y83598D01*
D32*
X23597Y83598D03*
D31*
X113100Y43627D02*
X122692Y43627D01*
X113100Y43627D02*
X112815Y43627D01*
X112995Y43522D02*
X113100Y43627D01*
X118082Y49312D02*
X118213Y49443D01*
X118082Y49312D02*
X118082Y43627D01*
X122692Y43627D01*
D32*
X118213Y49443D03*
D29*
X97974Y51991D02*
X97974Y44086D01*
X98060Y44000D01*
D32*
X98060Y44000D03*
D29*
X112974Y43785D02*
X112974Y51991D01*
X112974Y43785D02*
X112815Y43627D01*
D30*
X13091Y73245D02*
X13091Y82017D01*
D31*
X72113Y20823D02*
X72809Y20823D01*
D29*
X67974Y119991D02*
X67974Y129733D01*
X71294Y133053D01*
D31*
X33105Y114730D02*
X32970Y114865D01*
X32970Y115865D01*
X33105Y114730D02*
X40642Y121770D01*
D32*
X40642Y121770D03*
D31*
X31612Y49387D02*
X37602Y43398D01*
X31612Y49387D02*
X31612Y53299D01*
D32*
X37602Y43398D03*
D29*
X44772Y68522D02*
X51474Y68491D01*
D30*
X31612Y54997D02*
X31612Y53299D01*
X31612Y54997D02*
X44772Y68157D01*
D31*
X118640Y129907D02*
X119591Y130858D01*
D29*
X92974Y38974D02*
X84000Y30000D01*
X92974Y38974D02*
X92974Y51991D01*
X75744Y133053D02*
X71294Y133053D01*
X75744Y133053D02*
X78000Y130797D01*
D32*
X78000Y130797D03*
D31*
X37602Y43398D02*
X37153Y43398D01*
X31972Y38218D01*
D27*
X44772Y68157D02*
X44772Y68522D01*
D31*
X119591Y124320D02*
X119591Y130858D01*
X119591Y124320D02*
X119590Y124319D01*
D32*
X119590Y124319D03*
D29*
X112958Y125158D02*
X112974Y119991D01*
X112958Y125158D02*
X119591Y130858D01*
X81290Y30000D02*
X72113Y20823D01*
X81290Y30000D02*
X84000Y30000D01*
D31*
X72113Y20823D02*
X67000Y25937D01*
X67000Y26000D01*
D32*
X67000Y26000D03*
D28*
X179497Y4948D03*
X179497Y11298D03*
X179497Y17648D03*
X179497Y23998D03*
X179497Y30348D03*
X179497Y45588D03*
X179497Y53208D03*
X179497Y60828D03*
X179497Y68448D03*
X179497Y76068D03*
X151557Y45588D03*
X151557Y51938D03*
X152827Y58288D03*
X157907Y60828D03*
X164257Y60828D03*
X157907Y45588D03*
X157907Y51938D03*
X164257Y55748D03*
X141397Y13838D03*
X141397Y20188D03*
X141397Y6218D03*
X169337Y13838D03*
X169337Y20188D03*
X169337Y7488D03*
X72817Y63368D03*
X85517Y63368D03*
X98217Y63368D03*
X98217Y73528D03*
X108377Y73528D03*
X108377Y86228D03*
X108377Y98928D03*
X98217Y109088D03*
X85517Y109088D03*
X72817Y109088D03*
X72817Y98928D03*
X85517Y98928D03*
X98217Y98928D03*
X62657Y98928D03*
X62657Y86228D03*
X62657Y73528D03*
X72817Y86228D03*
X85517Y86228D03*
X98217Y86228D03*
X85517Y73528D03*
X72817Y73528D03*
X134897Y85748D03*
X143423Y85748D03*
X151459Y85705D03*
X158776Y85713D03*
X171458Y76077D03*
X126964Y69238D03*
X126964Y77128D03*
X126926Y85815D03*
D29*
X113068Y34995D02*
X112995Y34922D01*
X122692Y35027D02*
X123080Y35027D01*
D28*
X128978Y40300D03*
D27*
X94343Y22904D02*
X93428Y22904D01*
D28*
X128978Y30040D03*
X129044Y4571D03*
X93965Y31098D03*
D29*
X44928Y132072D02*
X44928Y132987D01*
D32*
X49000Y127000D03*
D29*
X21055Y123621D02*
X20947Y123514D01*
X11142Y123514D01*
D28*
X12978Y42040D03*
X12978Y35040D03*
X120044Y4571D03*
X129044Y21571D03*
X129044Y13571D03*
D27*
X85474Y85991D02*
X85474Y98885D01*
X85517Y98928D01*
D28*
X64003Y14906D03*
X5004Y4161D03*
X5364Y142533D03*
X179497Y114548D03*
X179497Y122548D03*
X179497Y133548D03*
X179497Y143548D03*
X4913Y14243D03*
X93497Y140548D03*
D27*
X156128Y106417D02*
X156128Y101201D01*
X156128Y106417D02*
X154861Y107684D01*
D28*
X154861Y107684D03*
D27*
X155500Y117650D02*
X159957Y117650D01*
X161241Y116367D01*
D28*
X161241Y116367D03*
X178888Y95226D03*
D27*
X147932Y129932D02*
X148000Y130000D01*
X147932Y129932D02*
X134501Y129932D01*
X132729Y131704D01*
D28*
X132729Y131704D03*
X166731Y85718D03*
X11248Y114911D03*
X129083Y49606D03*
D31*
X49000Y127000D02*
X44928Y132987D01*
D30*
X21055Y123621D02*
X21000Y117000D01*
D32*
X21000Y117000D03*
D28*
X73003Y30906D03*
D31*
X32926Y132221D02*
X32970Y132265D01*
D32*
X16124Y138677D03*
X105374Y139418D03*
D30*
X98733Y146059D01*
X98733Y148201D01*
X105374Y139418D02*
X105374Y139418D01*
D27*
X129671Y142350D02*
X140500Y142350D01*
X129671Y142350D02*
X126266Y138945D01*
D28*
X126266Y138945D03*
D27*
X21005Y10005D02*
X12602Y10005D01*
X23363Y12363D02*
X23363Y18502D01*
X22000Y11000D02*
X21005Y10005D01*
X22000Y11000D02*
X23363Y12363D01*
X168434Y129000D02*
X168434Y133782D01*
X168434Y129000D02*
X168434Y124661D01*
X168371Y124598D01*
X168434Y129000D02*
X174000Y129000D01*
D28*
X174000Y129000D03*
X22000Y11000D03*
D30*
X21055Y132221D02*
X17000Y132221D01*
X21055Y132221D02*
X32926Y132221D01*
X16124Y138677D02*
X16035Y138588D01*
X16035Y132221D01*
X11250Y132221D01*
X11142Y132114D01*
X16035Y132221D02*
X21055Y132221D01*
D27*
X51474Y115632D02*
X51474Y113491D01*
X51474Y115632D02*
X49973Y117133D01*
X45597Y117133D01*
D28*
X45597Y117133D03*
D27*
X49209Y119955D02*
X40196Y128967D01*
X37000Y140965D02*
X37000Y141089D01*
X37000Y140965D02*
X40196Y137768D01*
X57974Y119991D02*
X57938Y119955D01*
X49209Y119955D01*
X40196Y128967D02*
X40196Y137768D01*
X37000Y141089D02*
X32287Y141089D01*
X25175Y148201D01*
X22533Y148201D01*
D31*
X135388Y58462D02*
X135459Y58391D01*
D30*
X135459Y48156D01*
D31*
X119530Y58435D02*
X119474Y58491D01*
X119530Y58435D02*
X135388Y58462D01*
X135354Y68723D02*
X135354Y69966D01*
X135737Y69106D02*
X135354Y68723D01*
X135308Y78824D02*
X135435Y78951D01*
X135354Y68723D02*
X135306Y68674D01*
D30*
X135354Y68723D02*
X135435Y78951D01*
D31*
X124588Y63485D02*
X119474Y63491D01*
X130070Y63439D02*
X135354Y68723D01*
X130070Y63439D02*
X124588Y63485D01*
D30*
X143994Y68723D02*
X153766Y68573D01*
X144099Y58391D01*
D31*
X144099Y48156D02*
X144226Y48029D01*
D30*
X144099Y48156D02*
X144198Y37744D01*
D31*
X162406Y68573D02*
X162380Y68598D01*
D30*
X162406Y68573D02*
X172210Y68530D01*
X172752Y67989D01*
X162380Y68598D02*
X162417Y78924D01*
X172752Y59349D02*
X172688Y48836D01*
D29*
X217796Y67875D02*
X217796Y68448D01*
D15*
X185616Y37810D02*
X185610Y37804D01*
X173035Y37804D02*
X172846Y37994D01*
X173035Y37804D02*
X185610Y37804D01*
D31*
X173038Y37807D02*
X173035Y37804D01*
X173038Y37807D02*
X207203Y37807D01*
X228805Y37807D01*
X228805Y42886D01*
X228805Y47875D01*
X217796Y47875D01*
X206777Y47875D01*
X206777Y52814D01*
X206777Y57875D01*
X217796Y57875D01*
X228849Y57875D01*
X228849Y62914D01*
X228849Y67875D01*
X217796Y67875D01*
X206749Y67875D01*
X206749Y72914D01*
X206749Y77875D01*
X217796Y77875D01*
X228849Y77875D01*
X228849Y82814D01*
X228849Y87875D01*
X217796Y87875D01*
X206749Y87875D01*
X206749Y92914D01*
X206749Y97875D01*
X217796Y97875D01*
X228849Y97875D01*
X228849Y102914D01*
X228849Y107875D01*
X217796Y107875D01*
X206749Y107875D01*
X206749Y112914D01*
X206749Y117875D01*
X217796Y117875D01*
X228849Y117875D01*
X228849Y122914D01*
D30*
X164048Y48836D02*
X164175Y48709D01*
X164048Y48836D02*
X164148Y42002D01*
X164206Y38054D01*
D27*
X164148Y38064D02*
X164055Y37971D01*
X164148Y38064D02*
X164148Y42002D01*
D30*
X155415Y37971D02*
X155334Y29435D01*
D29*
X62974Y119991D02*
X63016Y125551D01*
X61319Y127247D01*
X59366Y127247D01*
X53627Y132987D02*
X53528Y132987D01*
X53627Y132987D02*
X59366Y127247D01*
D27*
X92974Y126605D02*
X92974Y119991D01*
X92974Y126605D02*
X93000Y126631D01*
D28*
X93000Y126631D03*
D27*
X77974Y123403D02*
X77974Y119991D01*
X77974Y123403D02*
X82736Y128166D01*
X82736Y136424D01*
X78327Y140833D01*
X55301Y140833D01*
X47933Y148201D01*
X72974Y126080D02*
X72974Y119991D01*
X72974Y126080D02*
X73502Y126608D01*
D28*
X73502Y126608D03*
D27*
X82974Y123180D02*
X82974Y119991D01*
X82974Y123180D02*
X85849Y126055D01*
X85849Y137263D02*
X74911Y148201D01*
X85849Y137263D02*
X85849Y126055D01*
X74911Y148201D02*
X73333Y148201D01*
X87974Y124228D02*
X87974Y119991D01*
X87974Y124228D02*
X88643Y124897D01*
X88643Y145591D01*
X86033Y148201D01*
X51474Y108491D02*
X46910Y108491D01*
X42755Y112646D01*
X41153Y112646D01*
D28*
X41153Y112646D03*
D27*
X51407Y103558D02*
X51474Y103491D01*
X51407Y103558D02*
X47286Y103558D01*
X44148Y106695D01*
X42075Y106695D01*
D28*
X42075Y106695D03*
D27*
X46229Y98491D02*
X51474Y98491D01*
X46229Y98491D02*
X43704Y101015D01*
D28*
X43704Y101015D03*
X40704Y95843D03*
D27*
X47565Y93491D02*
X51474Y93491D01*
X47565Y93491D02*
X45207Y95849D01*
X40710Y95849D01*
X40704Y95843D01*
X46399Y88491D02*
X51474Y88491D01*
X46399Y88491D02*
X43949Y90940D01*
D28*
X43949Y90940D03*
D27*
X129350Y117650D02*
X140500Y117650D01*
X129350Y117650D02*
X129000Y118000D01*
D28*
X129000Y118000D03*
D27*
X13000Y26000D02*
X12602Y25602D01*
X12602Y18605D01*
D28*
X13000Y26000D03*
X40609Y85806D03*
D27*
X47468Y83491D02*
X51474Y83491D01*
X47468Y83491D02*
X45248Y85711D01*
X40705Y85711D01*
X40609Y85806D01*
X43509Y78491D02*
X51474Y78491D01*
X43509Y78491D02*
X42000Y80000D01*
D28*
X42000Y80000D03*
D27*
X51474Y58491D02*
X51000Y58017D01*
X51000Y53570D01*
X50987Y53570D01*
D28*
X50987Y53570D03*
X84000Y37000D03*
D27*
X87974Y40974D02*
X87974Y51991D01*
X87974Y40974D02*
X84000Y37000D01*
X63009Y30030D02*
X61030Y30030D01*
X63009Y30030D02*
X69979Y37000D01*
X73000Y37000D01*
X82974Y46974D01*
X86280Y-619D02*
X86280Y-620D01*
X57836Y13164D02*
X57836Y26836D01*
X61030Y30030D01*
X82974Y46974D02*
X82974Y51991D01*
X66298Y9794D02*
X61206Y9794D01*
X66298Y9794D02*
X69133Y6959D01*
X78702Y6959D02*
X83049Y2611D01*
X83167Y2729D01*
X61206Y9794D02*
X57836Y13164D01*
X69133Y6959D02*
X78702Y6959D01*
X83049Y2611D02*
X86280Y-620D01*
X73580Y-620D02*
X72669Y-620D01*
X65049Y7000D01*
X59869Y7000D02*
X54912Y11957D01*
X54912Y28428D01*
X59309Y32824D02*
X61727Y32824D01*
X69109Y40206D01*
X71783Y40206D01*
X77974Y46397D01*
X77974Y51991D01*
X65049Y7000D02*
X59869Y7000D01*
X54912Y28428D02*
X59309Y32824D01*
X60880Y1900D02*
X60880Y-620D01*
X60880Y1900D02*
X52000Y10780D01*
X52000Y30467D01*
X72974Y46974D02*
X72974Y51991D01*
X69000Y43000D02*
X67660Y43000D01*
X60278Y35618D02*
X57151Y35618D01*
X69000Y43000D02*
X72974Y46974D01*
X67660Y43000D02*
X60278Y35618D01*
X57151Y35618D02*
X52000Y30467D01*
X49180Y31598D02*
X49180Y381D01*
X49180Y31598D02*
X55994Y38412D01*
X67974Y47423D02*
X67974Y51991D01*
X58963Y38412D02*
X55994Y38412D01*
X58963Y38412D02*
X67974Y47423D01*
X49180Y381D02*
X48180Y-620D01*
X35480Y-620D02*
X35480Y6480D01*
X46000Y17000D01*
X54837Y41206D02*
X57630Y41206D01*
X62974Y46550D01*
X62974Y51991D01*
X46000Y32369D02*
X46000Y17000D01*
X46000Y32369D02*
X54837Y41206D01*
X57974Y46029D02*
X57974Y51991D01*
X55945Y44000D02*
X53679Y44000D01*
X43000Y33321D01*
X43000Y18000D01*
X27611Y2611D01*
X55945Y44000D02*
X57974Y46029D01*
X26010Y2611D02*
X22780Y-620D01*
X26010Y2611D02*
X27611Y2611D01*
X107974Y119991D02*
X107974Y130065D01*
X108046Y130137D01*
D28*
X108046Y130137D03*
D27*
X144500Y118650D02*
X145500Y117650D01*
D28*
X133397Y122425D03*
D27*
X145500Y122500D02*
X145500Y117650D01*
X145500Y122500D02*
X144095Y123906D01*
X134877Y123906D01*
X133397Y122425D01*
X102974Y119991D02*
X102974Y126974D01*
X103000Y127000D01*
D28*
X103000Y127000D03*
D27*
X155500Y142350D02*
X160679Y142350D01*
X161616Y143287D01*
D28*
X161616Y143287D03*
D27*
X97974Y129974D02*
X97974Y119991D01*
X97974Y129974D02*
X98000Y130000D01*
D28*
X98000Y130000D03*
D27*
X150500Y138549D02*
X150500Y142350D01*
X153146Y135903D02*
X158097Y135903D01*
X161000Y133000D01*
X153146Y135903D02*
X150500Y138549D01*
D28*
X161000Y133000D03*
D27*
X150500Y121755D02*
X150500Y117650D01*
X150500Y121755D02*
X152600Y123854D01*
X160515Y123854D01*
X168371Y115998D01*
X145500Y137816D02*
X145500Y142350D01*
X143684Y136000D02*
X129501Y136000D01*
X126665Y133164D01*
X143684Y136000D02*
X145500Y137816D01*
D28*
X126665Y133164D03*
D27*
X168434Y142382D02*
X169618Y142382D01*
X174000Y138000D01*
D28*
X174000Y138000D03*
D27*
X102974Y51991D02*
X102974Y32732D01*
X101562Y18250D02*
X94717Y11404D01*
X94343Y11404D01*
X101562Y18250D02*
X101562Y31320D01*
X102974Y32732D01*
X93807Y11940D02*
X82321Y11940D01*
X93807Y11940D02*
X94343Y11404D01*
X121496Y22772D02*
X121987Y22280D01*
X108843Y22904D02*
X107819Y23928D01*
X107819Y51836D02*
X107974Y51991D01*
X107974Y46252D01*
X105768Y44046D01*
X108843Y30295D02*
X108843Y22904D01*
X105768Y33370D02*
X105768Y44046D01*
X105768Y33370D02*
X108843Y30295D01*
X108843Y22904D02*
X121363Y22904D01*
X121987Y22280D01*
X119474Y113491D02*
X124820Y113491D01*
X125493Y112818D01*
X158482Y112818D01*
X165778Y105522D02*
X165778Y101293D01*
X165778Y105522D02*
X158482Y112818D01*
X176305Y103562D02*
X165778Y93035D01*
X165778Y92693D01*
X176305Y103562D02*
X176305Y104055D01*
M02*
