G04 EAGLE Gerber RS-274X export*
G75*
%MOMM*%
%FSLAX34Y34*%
%LPD*%
%INCopper Layer 15*%
%IPPOS*%
%AMOC8*
5,1,8,0,0,1.08239X$1,22.5*%
G01*
%ADD10C,0.975000*%
%ADD11C,0.403200*%
%ADD12C,0.503200*%

G36*
X92425Y52283D02*
X92425Y52283D01*
X92516Y52290D01*
X92545Y52303D01*
X92577Y52308D01*
X92658Y52351D01*
X92742Y52386D01*
X92774Y52412D01*
X92795Y52423D01*
X92817Y52446D01*
X92873Y52491D01*
X93215Y52833D01*
X93268Y52907D01*
X93327Y52977D01*
X93340Y53007D01*
X93358Y53033D01*
X93385Y53120D01*
X93419Y53205D01*
X93424Y53246D01*
X93431Y53268D01*
X93430Y53300D01*
X93438Y53371D01*
X93438Y131373D01*
X145837Y131373D01*
X145856Y131376D01*
X145876Y131374D01*
X145977Y131396D01*
X146079Y131413D01*
X146097Y131422D01*
X146116Y131427D01*
X146205Y131480D01*
X146297Y131528D01*
X146310Y131542D01*
X146327Y131553D01*
X146395Y131631D01*
X146466Y131706D01*
X146474Y131724D01*
X146487Y131740D01*
X146526Y131836D01*
X146570Y131929D01*
X146572Y131949D01*
X146579Y131968D01*
X146598Y132134D01*
X146598Y180024D01*
X146595Y180043D01*
X146597Y180063D01*
X146575Y180164D01*
X146558Y180266D01*
X146549Y180284D01*
X146545Y180304D01*
X146491Y180393D01*
X146443Y180484D01*
X146429Y180498D01*
X146418Y180515D01*
X146340Y180582D01*
X146265Y180653D01*
X146247Y180662D01*
X146231Y180675D01*
X146135Y180713D01*
X146042Y180757D01*
X146022Y180759D01*
X146003Y180767D01*
X145837Y180785D01*
X3335Y180785D01*
X3315Y180782D01*
X3295Y180784D01*
X3194Y180762D01*
X3092Y180745D01*
X3074Y180736D01*
X3055Y180732D01*
X2966Y180678D01*
X2874Y180630D01*
X2861Y180616D01*
X2844Y180606D01*
X2776Y180527D01*
X2705Y180452D01*
X2697Y180434D01*
X2684Y180419D01*
X2645Y180322D01*
X2601Y180229D01*
X2599Y180209D01*
X2592Y180190D01*
X2573Y180024D01*
X2573Y163359D01*
X2585Y163289D01*
X2587Y163217D01*
X2605Y163168D01*
X2613Y163117D01*
X2647Y163053D01*
X2671Y162986D01*
X2704Y162945D01*
X2728Y162899D01*
X2780Y162850D01*
X2825Y162794D01*
X2869Y162766D01*
X2906Y162730D01*
X2972Y162700D01*
X3032Y162661D01*
X3082Y162648D01*
X3130Y162626D01*
X3201Y162618D01*
X3270Y162601D01*
X3322Y162605D01*
X3374Y162599D01*
X3444Y162614D01*
X3516Y162620D01*
X3564Y162640D01*
X3614Y162651D01*
X3676Y162688D01*
X3722Y162708D01*
X6482Y162708D01*
X7333Y161857D01*
X7349Y161846D01*
X7361Y161830D01*
X7448Y161774D01*
X7532Y161714D01*
X7551Y161708D01*
X7568Y161697D01*
X7669Y161672D01*
X7767Y161642D01*
X7787Y161642D01*
X7807Y161637D01*
X7910Y161645D01*
X8013Y161648D01*
X8032Y161655D01*
X8052Y161656D01*
X8147Y161697D01*
X8244Y161732D01*
X8260Y161745D01*
X8278Y161753D01*
X8409Y161857D01*
X9798Y163247D01*
X12521Y163247D01*
X14380Y161388D01*
X14438Y161347D01*
X14490Y161297D01*
X14537Y161275D01*
X14579Y161245D01*
X14648Y161224D01*
X14713Y161194D01*
X14765Y161188D01*
X14814Y161173D01*
X14886Y161174D01*
X14957Y161166D01*
X15008Y161178D01*
X15060Y161179D01*
X15128Y161204D01*
X15198Y161219D01*
X15242Y161245D01*
X15291Y161263D01*
X15347Y161308D01*
X15409Y161345D01*
X15443Y161384D01*
X15483Y161417D01*
X15522Y161477D01*
X15569Y161532D01*
X15588Y161580D01*
X15616Y161624D01*
X15634Y161693D01*
X15661Y161760D01*
X15668Y161829D01*
X17604Y163765D01*
X20327Y163765D01*
X22253Y161840D01*
X22253Y159117D01*
X20327Y157192D01*
X17604Y157192D01*
X15746Y159050D01*
X15688Y159092D01*
X15636Y159141D01*
X15589Y159163D01*
X15546Y159193D01*
X15478Y159215D01*
X15413Y159245D01*
X15361Y159250D01*
X15311Y159266D01*
X15240Y159264D01*
X15168Y159272D01*
X15117Y159261D01*
X15065Y159259D01*
X14998Y159235D01*
X14928Y159220D01*
X14883Y159193D01*
X14834Y159175D01*
X14778Y159130D01*
X14717Y159093D01*
X14683Y159054D01*
X14642Y159021D01*
X14604Y158961D01*
X14557Y158907D01*
X14537Y158858D01*
X14509Y158814D01*
X14492Y158745D01*
X14465Y158678D01*
X14457Y158609D01*
X12521Y156673D01*
X9798Y156673D01*
X8948Y157524D01*
X8932Y157535D01*
X8919Y157551D01*
X8832Y157607D01*
X8748Y157667D01*
X8729Y157673D01*
X8713Y157684D01*
X8612Y157709D01*
X8513Y157740D01*
X8493Y157739D01*
X8474Y157744D01*
X8371Y157736D01*
X8267Y157733D01*
X8249Y157726D01*
X8229Y157725D01*
X8134Y157684D01*
X8036Y157649D01*
X8021Y157636D01*
X8002Y157628D01*
X7872Y157524D01*
X6482Y156134D01*
X3715Y156134D01*
X3673Y156164D01*
X3605Y156186D01*
X3540Y156216D01*
X3488Y156222D01*
X3438Y156237D01*
X3366Y156235D01*
X3295Y156243D01*
X3244Y156232D01*
X3192Y156231D01*
X3125Y156206D01*
X3055Y156191D01*
X3010Y156164D01*
X2961Y156146D01*
X2905Y156101D01*
X2844Y156064D01*
X2810Y156025D01*
X2769Y155992D01*
X2730Y155932D01*
X2684Y155878D01*
X2664Y155829D01*
X2636Y155786D01*
X2619Y155716D01*
X2592Y155649D01*
X2584Y155578D01*
X2576Y155547D01*
X2578Y155524D01*
X2573Y155483D01*
X2573Y134401D01*
X2576Y134381D01*
X2574Y134362D01*
X2596Y134260D01*
X2613Y134158D01*
X2622Y134141D01*
X2627Y134121D01*
X2680Y134032D01*
X2728Y133941D01*
X2743Y133927D01*
X2753Y133910D01*
X2831Y133843D01*
X2906Y133772D01*
X2924Y133763D01*
X2940Y133750D01*
X3036Y133711D01*
X3130Y133668D01*
X3149Y133666D01*
X3168Y133658D01*
X3335Y133640D01*
X22818Y133640D01*
X22908Y133655D01*
X22999Y133662D01*
X23029Y133674D01*
X23061Y133680D01*
X23141Y133722D01*
X23225Y133758D01*
X23257Y133784D01*
X23278Y133795D01*
X23300Y133818D01*
X23356Y133863D01*
X24661Y135168D01*
X27384Y135168D01*
X28689Y133863D01*
X28763Y133810D01*
X28833Y133750D01*
X28863Y133738D01*
X28889Y133719D01*
X28976Y133692D01*
X29061Y133658D01*
X29102Y133654D01*
X29124Y133647D01*
X29156Y133648D01*
X29228Y133640D01*
X33765Y133640D01*
X33765Y128794D01*
X33768Y128774D01*
X33766Y128754D01*
X33788Y128653D01*
X33805Y128551D01*
X33814Y128533D01*
X33818Y128514D01*
X33871Y128425D01*
X33920Y128334D01*
X33934Y128320D01*
X33944Y128303D01*
X34023Y128235D01*
X34098Y128164D01*
X34116Y128156D01*
X34131Y128143D01*
X34227Y128104D01*
X34321Y128061D01*
X34341Y128058D01*
X34359Y128051D01*
X34526Y128032D01*
X37292Y128032D01*
X39217Y126107D01*
X39217Y123384D01*
X37292Y121459D01*
X34526Y121459D01*
X34506Y121456D01*
X34487Y121458D01*
X34385Y121436D01*
X34283Y121419D01*
X34266Y121410D01*
X34246Y121406D01*
X34157Y121352D01*
X34066Y121304D01*
X34052Y121290D01*
X34035Y121280D01*
X33968Y121201D01*
X33897Y121126D01*
X33888Y121108D01*
X33875Y121093D01*
X33836Y120996D01*
X33793Y120903D01*
X33791Y120883D01*
X33783Y120864D01*
X33765Y120698D01*
X33765Y53030D01*
X33768Y53010D01*
X33766Y52990D01*
X33788Y52889D01*
X33805Y52787D01*
X33814Y52769D01*
X33818Y52750D01*
X33871Y52661D01*
X33920Y52569D01*
X33934Y52556D01*
X33944Y52539D01*
X34023Y52471D01*
X34098Y52400D01*
X34116Y52392D01*
X34131Y52379D01*
X34227Y52340D01*
X34321Y52296D01*
X34341Y52294D01*
X34359Y52287D01*
X34526Y52268D01*
X92335Y52268D01*
X92425Y52283D01*
G37*
G36*
X106873Y17202D02*
X106873Y17202D01*
X106964Y17209D01*
X106994Y17221D01*
X107026Y17227D01*
X107107Y17269D01*
X107191Y17305D01*
X107223Y17331D01*
X107243Y17342D01*
X107266Y17365D01*
X107321Y17410D01*
X140940Y51028D01*
X140993Y51102D01*
X141052Y51172D01*
X141065Y51202D01*
X141083Y51228D01*
X141110Y51315D01*
X141144Y51400D01*
X141149Y51441D01*
X141156Y51463D01*
X141155Y51495D01*
X141163Y51566D01*
X141163Y116279D01*
X141148Y116369D01*
X141141Y116460D01*
X141128Y116490D01*
X141123Y116522D01*
X141080Y116603D01*
X141045Y116687D01*
X141019Y116719D01*
X141008Y116739D01*
X140985Y116761D01*
X140940Y116818D01*
X140590Y117168D01*
X140590Y119890D01*
X140940Y120240D01*
X140993Y120314D01*
X141052Y120384D01*
X141065Y120414D01*
X141083Y120440D01*
X141110Y120527D01*
X141144Y120612D01*
X141149Y120653D01*
X141156Y120675D01*
X141155Y120707D01*
X141163Y120779D01*
X141163Y125279D01*
X141156Y125320D01*
X141157Y125324D01*
X141152Y125344D01*
X141148Y125369D01*
X141141Y125460D01*
X141128Y125490D01*
X141123Y125522D01*
X141107Y125553D01*
X141104Y125564D01*
X141078Y125608D01*
X141045Y125687D01*
X141019Y125719D01*
X141008Y125739D01*
X140989Y125758D01*
X140978Y125775D01*
X140964Y125788D01*
X140940Y125818D01*
X140590Y126168D01*
X140590Y128832D01*
X140587Y128852D01*
X140589Y128872D01*
X140567Y128973D01*
X140550Y129075D01*
X140541Y129093D01*
X140537Y129112D01*
X140483Y129201D01*
X140435Y129293D01*
X140421Y129306D01*
X140410Y129323D01*
X140332Y129391D01*
X140257Y129462D01*
X140239Y129470D01*
X140223Y129483D01*
X140127Y129522D01*
X140034Y129566D01*
X140014Y129568D01*
X139995Y129575D01*
X139829Y129594D01*
X138925Y129594D01*
X138905Y129591D01*
X138885Y129593D01*
X138784Y129571D01*
X138682Y129554D01*
X138664Y129545D01*
X138645Y129540D01*
X138556Y129487D01*
X138464Y129439D01*
X138451Y129424D01*
X138434Y129414D01*
X138366Y129336D01*
X138295Y129261D01*
X138287Y129243D01*
X138274Y129227D01*
X138235Y129131D01*
X138191Y129037D01*
X138189Y129018D01*
X138182Y128999D01*
X138163Y128832D01*
X138163Y126167D01*
X136238Y124242D01*
X133515Y124242D01*
X131415Y126342D01*
X131399Y126354D01*
X131386Y126370D01*
X131299Y126426D01*
X131215Y126486D01*
X131196Y126492D01*
X131179Y126503D01*
X131079Y126528D01*
X130980Y126558D01*
X130960Y126558D01*
X130941Y126563D01*
X130838Y126555D01*
X130734Y126552D01*
X130715Y126545D01*
X130696Y126544D01*
X130601Y126503D01*
X130503Y126468D01*
X130487Y126455D01*
X130469Y126447D01*
X130338Y126342D01*
X128238Y124242D01*
X125515Y124242D01*
X123590Y126167D01*
X123590Y128832D01*
X123587Y128852D01*
X123589Y128872D01*
X123567Y128973D01*
X123550Y129075D01*
X123541Y129093D01*
X123537Y129112D01*
X123483Y129201D01*
X123435Y129293D01*
X123421Y129306D01*
X123410Y129323D01*
X123332Y129391D01*
X123257Y129462D01*
X123239Y129470D01*
X123223Y129483D01*
X123127Y129522D01*
X123034Y129566D01*
X123014Y129568D01*
X122995Y129575D01*
X122829Y129594D01*
X122456Y129594D01*
X122436Y129591D01*
X122416Y129593D01*
X122315Y129571D01*
X122213Y129554D01*
X122195Y129545D01*
X122176Y129540D01*
X122087Y129487D01*
X121995Y129439D01*
X121982Y129424D01*
X121965Y129414D01*
X121897Y129336D01*
X121826Y129261D01*
X121818Y129243D01*
X121805Y129227D01*
X121766Y129131D01*
X121722Y129037D01*
X121720Y129018D01*
X121713Y128999D01*
X121694Y128832D01*
X121694Y126101D01*
X119769Y124176D01*
X117046Y124176D01*
X115121Y126101D01*
X115121Y128832D01*
X115118Y128852D01*
X115120Y128872D01*
X115098Y128973D01*
X115081Y129075D01*
X115072Y129093D01*
X115068Y129112D01*
X115014Y129201D01*
X114966Y129293D01*
X114952Y129306D01*
X114941Y129323D01*
X114863Y129391D01*
X114788Y129462D01*
X114770Y129470D01*
X114754Y129483D01*
X114658Y129522D01*
X114565Y129566D01*
X114545Y129568D01*
X114526Y129575D01*
X114360Y129594D01*
X112196Y129594D01*
X112176Y129591D01*
X112156Y129593D01*
X112055Y129571D01*
X111953Y129554D01*
X111935Y129545D01*
X111916Y129540D01*
X111827Y129487D01*
X111736Y129439D01*
X111722Y129424D01*
X111705Y129414D01*
X111637Y129336D01*
X111566Y129261D01*
X111558Y129243D01*
X111545Y129227D01*
X111506Y129131D01*
X111463Y129037D01*
X111460Y129018D01*
X111453Y128999D01*
X111434Y128832D01*
X111434Y126101D01*
X109509Y124176D01*
X106786Y124176D01*
X104861Y126101D01*
X104861Y128832D01*
X104858Y128852D01*
X104860Y128872D01*
X104838Y128973D01*
X104821Y129075D01*
X104812Y129093D01*
X104808Y129112D01*
X104754Y129201D01*
X104706Y129293D01*
X104692Y129306D01*
X104681Y129323D01*
X104603Y129391D01*
X104528Y129462D01*
X104510Y129470D01*
X104495Y129483D01*
X104398Y129522D01*
X104305Y129566D01*
X104285Y129568D01*
X104266Y129575D01*
X104100Y129594D01*
X102890Y129594D01*
X102870Y129591D01*
X102850Y129593D01*
X102749Y129571D01*
X102647Y129554D01*
X102629Y129545D01*
X102610Y129540D01*
X102521Y129487D01*
X102429Y129439D01*
X102416Y129424D01*
X102399Y129414D01*
X102331Y129336D01*
X102260Y129261D01*
X102252Y129243D01*
X102239Y129227D01*
X102200Y129131D01*
X102156Y129037D01*
X102154Y129018D01*
X102147Y128999D01*
X102128Y128832D01*
X102128Y126206D01*
X100203Y124281D01*
X97480Y124281D01*
X96069Y125692D01*
X96011Y125733D01*
X95959Y125783D01*
X95912Y125805D01*
X95870Y125835D01*
X95801Y125856D01*
X95736Y125886D01*
X95684Y125892D01*
X95635Y125908D01*
X95563Y125906D01*
X95492Y125914D01*
X95441Y125903D01*
X95389Y125901D01*
X95321Y125877D01*
X95251Y125861D01*
X95207Y125835D01*
X95158Y125817D01*
X95102Y125772D01*
X95040Y125735D01*
X95006Y125696D01*
X94966Y125663D01*
X94927Y125603D01*
X94880Y125548D01*
X94861Y125500D01*
X94833Y125456D01*
X94815Y125387D01*
X94788Y125320D01*
X94780Y125249D01*
X94773Y125218D01*
X94774Y125194D01*
X94770Y125153D01*
X94770Y77857D01*
X94773Y77838D01*
X94771Y77818D01*
X94793Y77717D01*
X94810Y77615D01*
X94819Y77597D01*
X94823Y77578D01*
X94876Y77489D01*
X94925Y77397D01*
X94939Y77384D01*
X94949Y77367D01*
X95028Y77299D01*
X95103Y77228D01*
X95121Y77220D01*
X95136Y77207D01*
X95232Y77168D01*
X95326Y77124D01*
X95346Y77122D01*
X95364Y77115D01*
X95531Y77096D01*
X128861Y77096D01*
X128861Y67124D01*
X128873Y67053D01*
X128875Y66982D01*
X128893Y66933D01*
X128901Y66881D01*
X128935Y66818D01*
X128959Y66751D01*
X128992Y66710D01*
X129016Y66664D01*
X129068Y66615D01*
X129113Y66559D01*
X129157Y66531D01*
X129194Y66495D01*
X129259Y66464D01*
X129320Y66426D01*
X129370Y66413D01*
X129418Y66391D01*
X129489Y66383D01*
X129558Y66366D01*
X129610Y66370D01*
X129662Y66364D01*
X129732Y66379D01*
X129804Y66385D01*
X129851Y66405D01*
X129902Y66416D01*
X129964Y66453D01*
X130030Y66481D01*
X130086Y66526D01*
X130113Y66542D01*
X130129Y66560D01*
X130161Y66586D01*
X131421Y67846D01*
X134144Y67846D01*
X136069Y65921D01*
X136069Y63198D01*
X134144Y61272D01*
X131421Y61272D01*
X130161Y62533D01*
X130103Y62574D01*
X130051Y62624D01*
X130003Y62646D01*
X129961Y62676D01*
X129893Y62697D01*
X129828Y62727D01*
X129776Y62733D01*
X129726Y62748D01*
X129654Y62747D01*
X129583Y62754D01*
X129532Y62743D01*
X129480Y62742D01*
X129413Y62717D01*
X129343Y62702D01*
X129298Y62676D01*
X129249Y62658D01*
X129193Y62613D01*
X129132Y62576D01*
X129098Y62536D01*
X129057Y62504D01*
X129018Y62444D01*
X128972Y62389D01*
X128952Y62341D01*
X128924Y62297D01*
X128907Y62228D01*
X128880Y62161D01*
X128872Y62090D01*
X128864Y62058D01*
X128866Y62035D01*
X128861Y61994D01*
X128861Y51898D01*
X107497Y30534D01*
X36058Y30534D01*
X36038Y30531D01*
X36018Y30533D01*
X35917Y30511D01*
X35815Y30494D01*
X35797Y30485D01*
X35778Y30480D01*
X35689Y30427D01*
X35597Y30379D01*
X35584Y30364D01*
X35567Y30354D01*
X35499Y30276D01*
X35428Y30201D01*
X35420Y30183D01*
X35407Y30167D01*
X35368Y30071D01*
X35324Y29977D01*
X35322Y29958D01*
X35315Y29939D01*
X35296Y29772D01*
X35296Y17948D01*
X35300Y17928D01*
X35297Y17909D01*
X35319Y17807D01*
X35336Y17705D01*
X35345Y17688D01*
X35350Y17668D01*
X35403Y17579D01*
X35451Y17488D01*
X35466Y17474D01*
X35476Y17457D01*
X35554Y17390D01*
X35629Y17319D01*
X35648Y17310D01*
X35663Y17297D01*
X35759Y17259D01*
X35853Y17215D01*
X35872Y17213D01*
X35891Y17205D01*
X36058Y17187D01*
X106783Y17187D01*
X106873Y17202D01*
G37*
G36*
X105834Y32037D02*
X105834Y32037D01*
X105924Y32044D01*
X105954Y32057D01*
X105986Y32062D01*
X106067Y32105D01*
X106151Y32140D01*
X106183Y32166D01*
X106204Y32177D01*
X106226Y32200D01*
X106282Y32245D01*
X126716Y52679D01*
X126769Y52753D01*
X126828Y52823D01*
X126841Y52853D01*
X126859Y52879D01*
X126886Y52966D01*
X126920Y53051D01*
X126925Y53092D01*
X126932Y53114D01*
X126931Y53146D01*
X126939Y53217D01*
X126939Y74936D01*
X126936Y74956D01*
X126938Y74976D01*
X126916Y75077D01*
X126899Y75179D01*
X126890Y75197D01*
X126886Y75216D01*
X126832Y75305D01*
X126784Y75397D01*
X126770Y75410D01*
X126759Y75427D01*
X126681Y75495D01*
X126606Y75566D01*
X126588Y75574D01*
X126572Y75587D01*
X126476Y75626D01*
X126383Y75670D01*
X126363Y75672D01*
X126344Y75679D01*
X126178Y75698D01*
X119817Y75698D01*
X119747Y75686D01*
X119675Y75684D01*
X119626Y75666D01*
X119575Y75658D01*
X119511Y75625D01*
X119444Y75600D01*
X119403Y75567D01*
X119357Y75543D01*
X119308Y75491D01*
X119252Y75446D01*
X119224Y75402D01*
X119188Y75365D01*
X119158Y75300D01*
X119119Y75239D01*
X119106Y75189D01*
X119084Y75141D01*
X119076Y75070D01*
X119059Y75001D01*
X119063Y74949D01*
X119057Y74897D01*
X119072Y74827D01*
X119078Y74755D01*
X119098Y74708D01*
X119109Y74657D01*
X119146Y74595D01*
X119174Y74529D01*
X119219Y74473D01*
X119236Y74446D01*
X119253Y74430D01*
X119279Y74398D01*
X120829Y72849D01*
X120829Y70126D01*
X118903Y68201D01*
X116180Y68201D01*
X114255Y70126D01*
X114255Y72849D01*
X115805Y74398D01*
X115846Y74456D01*
X115896Y74508D01*
X115918Y74556D01*
X115948Y74598D01*
X115969Y74666D01*
X115999Y74731D01*
X116005Y74783D01*
X116020Y74833D01*
X116019Y74905D01*
X116026Y74976D01*
X116015Y75027D01*
X116014Y75079D01*
X115989Y75146D01*
X115974Y75216D01*
X115948Y75261D01*
X115930Y75310D01*
X115885Y75366D01*
X115848Y75427D01*
X115808Y75461D01*
X115776Y75502D01*
X115716Y75541D01*
X115661Y75587D01*
X115613Y75607D01*
X115569Y75635D01*
X115500Y75652D01*
X115433Y75679D01*
X115362Y75687D01*
X115330Y75695D01*
X115307Y75693D01*
X115266Y75698D01*
X95583Y75698D01*
X95563Y75695D01*
X95543Y75697D01*
X95442Y75675D01*
X95340Y75658D01*
X95322Y75649D01*
X95303Y75644D01*
X95214Y75591D01*
X95123Y75543D01*
X95109Y75528D01*
X95092Y75518D01*
X95024Y75440D01*
X94953Y75365D01*
X94945Y75347D01*
X94932Y75331D01*
X94893Y75235D01*
X94850Y75141D01*
X94847Y75122D01*
X94840Y75103D01*
X94821Y74936D01*
X94821Y53520D01*
X94825Y53500D01*
X94823Y53480D01*
X94845Y53379D01*
X94861Y53277D01*
X94871Y53259D01*
X94875Y53240D01*
X94928Y53151D01*
X94976Y53060D01*
X94991Y53046D01*
X95001Y53029D01*
X95080Y52962D01*
X95155Y52890D01*
X95173Y52882D01*
X95188Y52869D01*
X95284Y52830D01*
X95378Y52787D01*
X95397Y52784D01*
X95416Y52777D01*
X95583Y52759D01*
X96240Y52759D01*
X98165Y50833D01*
X98165Y48110D01*
X96240Y46185D01*
X94233Y46185D01*
X94162Y46174D01*
X94091Y46172D01*
X94042Y46154D01*
X93990Y46145D01*
X93927Y46112D01*
X93860Y46087D01*
X93819Y46055D01*
X93773Y46030D01*
X93724Y45978D01*
X93668Y45933D01*
X93640Y45890D01*
X93604Y45852D01*
X93573Y45787D01*
X93535Y45727D01*
X93522Y45676D01*
X93500Y45629D01*
X93492Y45558D01*
X93475Y45488D01*
X93479Y45436D01*
X93473Y45384D01*
X93488Y45314D01*
X93494Y45243D01*
X93514Y45195D01*
X93525Y45144D01*
X93562Y45082D01*
X93590Y45016D01*
X93635Y44961D01*
X93651Y44933D01*
X93669Y44918D01*
X93695Y44886D01*
X94734Y43846D01*
X94734Y41123D01*
X92809Y39198D01*
X90086Y39198D01*
X88161Y41123D01*
X88161Y43846D01*
X90086Y45771D01*
X92093Y45771D01*
X92163Y45783D01*
X92235Y45785D01*
X92284Y45803D01*
X92335Y45811D01*
X92399Y45845D01*
X92466Y45869D01*
X92507Y45902D01*
X92553Y45926D01*
X92602Y45978D01*
X92658Y46023D01*
X92686Y46067D01*
X92722Y46105D01*
X92752Y46170D01*
X92791Y46230D01*
X92804Y46281D01*
X92826Y46328D01*
X92834Y46399D01*
X92851Y46468D01*
X92847Y46520D01*
X92853Y46572D01*
X92837Y46642D01*
X92832Y46714D01*
X92812Y46762D01*
X92800Y46813D01*
X92764Y46874D01*
X92736Y46940D01*
X92691Y46996D01*
X92674Y47024D01*
X92657Y47039D01*
X92631Y47071D01*
X91591Y48110D01*
X91591Y49514D01*
X91588Y49534D01*
X91590Y49554D01*
X91568Y49655D01*
X91552Y49757D01*
X91542Y49774D01*
X91538Y49794D01*
X91485Y49883D01*
X91437Y49974D01*
X91422Y49988D01*
X91412Y50005D01*
X91333Y50072D01*
X91258Y50144D01*
X91240Y50152D01*
X91225Y50165D01*
X91129Y50204D01*
X91035Y50247D01*
X91015Y50249D01*
X90997Y50257D01*
X90830Y50275D01*
X31859Y50275D01*
X31859Y123437D01*
X31856Y123456D01*
X31858Y123476D01*
X31836Y123577D01*
X31819Y123679D01*
X31810Y123697D01*
X31806Y123717D01*
X31752Y123806D01*
X31704Y123897D01*
X31690Y123911D01*
X31679Y123928D01*
X31601Y123995D01*
X31526Y124066D01*
X31508Y124075D01*
X31492Y124088D01*
X31396Y124126D01*
X31303Y124170D01*
X31283Y124172D01*
X31264Y124180D01*
X31098Y124198D01*
X29086Y124198D01*
X27519Y125766D01*
X27445Y125819D01*
X27375Y125878D01*
X27345Y125890D01*
X27319Y125909D01*
X27232Y125936D01*
X27147Y125970D01*
X27106Y125975D01*
X27084Y125982D01*
X27052Y125981D01*
X26980Y125989D01*
X15906Y125989D01*
X15886Y125985D01*
X15866Y125988D01*
X15765Y125966D01*
X15663Y125949D01*
X15646Y125940D01*
X15626Y125935D01*
X15537Y125882D01*
X15446Y125834D01*
X15432Y125819D01*
X15415Y125809D01*
X15348Y125730D01*
X15276Y125655D01*
X15268Y125637D01*
X15255Y125622D01*
X15216Y125526D01*
X15173Y125432D01*
X15171Y125413D01*
X15163Y125394D01*
X15145Y125227D01*
X15145Y109850D01*
X15156Y109779D01*
X15158Y109708D01*
X15176Y109659D01*
X15184Y109607D01*
X15218Y109544D01*
X15243Y109477D01*
X15275Y109436D01*
X15299Y109390D01*
X15351Y109340D01*
X15396Y109284D01*
X15440Y109256D01*
X15478Y109220D01*
X15543Y109190D01*
X15603Y109151D01*
X15654Y109139D01*
X15701Y109117D01*
X15772Y109109D01*
X15842Y109091D01*
X15894Y109095D01*
X15945Y109090D01*
X16015Y109105D01*
X16087Y109111D01*
X16135Y109131D01*
X16186Y109142D01*
X16247Y109179D01*
X16313Y109207D01*
X16369Y109252D01*
X16397Y109268D01*
X16412Y109286D01*
X16444Y109312D01*
X16949Y109817D01*
X19672Y109817D01*
X21598Y107892D01*
X21598Y105533D01*
X21601Y105513D01*
X21599Y105493D01*
X21621Y105392D01*
X21637Y105290D01*
X21647Y105272D01*
X21651Y105253D01*
X21704Y105164D01*
X21752Y105073D01*
X21767Y105059D01*
X21777Y105042D01*
X21856Y104974D01*
X21931Y104903D01*
X21949Y104895D01*
X21964Y104882D01*
X22060Y104843D01*
X22154Y104800D01*
X22174Y104797D01*
X22192Y104790D01*
X22359Y104771D01*
X22809Y104771D01*
X24734Y102846D01*
X24734Y100123D01*
X22809Y98198D01*
X22496Y98198D01*
X22476Y98195D01*
X22456Y98197D01*
X22355Y98175D01*
X22253Y98158D01*
X22235Y98149D01*
X22216Y98145D01*
X22127Y98091D01*
X22035Y98043D01*
X22022Y98029D01*
X22005Y98019D01*
X21937Y97940D01*
X21866Y97865D01*
X21858Y97847D01*
X21845Y97832D01*
X21806Y97735D01*
X21762Y97642D01*
X21760Y97622D01*
X21753Y97603D01*
X21734Y97437D01*
X21734Y95533D01*
X21738Y95513D01*
X21735Y95493D01*
X21757Y95392D01*
X21774Y95290D01*
X21783Y95272D01*
X21788Y95253D01*
X21841Y95164D01*
X21889Y95073D01*
X21904Y95059D01*
X21914Y95042D01*
X21993Y94974D01*
X22068Y94903D01*
X22086Y94895D01*
X22101Y94882D01*
X22197Y94843D01*
X22291Y94800D01*
X22310Y94797D01*
X22329Y94790D01*
X22496Y94771D01*
X23178Y94771D01*
X25103Y92846D01*
X25103Y90123D01*
X23178Y88198D01*
X20455Y88198D01*
X18530Y90123D01*
X18530Y92437D01*
X18526Y92456D01*
X18529Y92476D01*
X18507Y92577D01*
X18490Y92679D01*
X18481Y92697D01*
X18476Y92717D01*
X18423Y92806D01*
X18375Y92897D01*
X18360Y92911D01*
X18350Y92928D01*
X18271Y92995D01*
X18196Y93066D01*
X18178Y93075D01*
X18163Y93088D01*
X18067Y93126D01*
X17973Y93170D01*
X17954Y93172D01*
X17935Y93180D01*
X17768Y93198D01*
X17086Y93198D01*
X16444Y93840D01*
X16386Y93882D01*
X16334Y93931D01*
X16287Y93953D01*
X16244Y93984D01*
X16176Y94005D01*
X16111Y94035D01*
X16059Y94041D01*
X16009Y94056D01*
X15938Y94054D01*
X15866Y94062D01*
X15816Y94051D01*
X15763Y94050D01*
X15696Y94025D01*
X15626Y94010D01*
X15581Y93983D01*
X15532Y93965D01*
X15476Y93920D01*
X15415Y93884D01*
X15381Y93844D01*
X15340Y93811D01*
X15302Y93751D01*
X15255Y93697D01*
X15236Y93648D01*
X15207Y93604D01*
X15190Y93535D01*
X15163Y93468D01*
X15155Y93397D01*
X15147Y93366D01*
X15149Y93343D01*
X15145Y93302D01*
X15145Y32783D01*
X15148Y32764D01*
X15146Y32744D01*
X15168Y32643D01*
X15184Y32541D01*
X15194Y32523D01*
X15198Y32504D01*
X15251Y32415D01*
X15299Y32323D01*
X15314Y32310D01*
X15324Y32292D01*
X15403Y32225D01*
X15478Y32154D01*
X15496Y32146D01*
X15511Y32133D01*
X15607Y32094D01*
X15701Y32050D01*
X15721Y32048D01*
X15739Y32041D01*
X15906Y32022D01*
X105743Y32022D01*
X105834Y32037D01*
G37*
G36*
X26125Y3515D02*
X26125Y3515D01*
X26216Y3522D01*
X26246Y3535D01*
X26278Y3540D01*
X26358Y3583D01*
X26442Y3618D01*
X26474Y3644D01*
X26495Y3655D01*
X26517Y3678D01*
X26536Y3694D01*
X28808Y4635D01*
X31253Y4635D01*
X33534Y3690D01*
X33561Y3670D01*
X33631Y3611D01*
X33661Y3598D01*
X33687Y3580D01*
X33774Y3553D01*
X33859Y3519D01*
X33900Y3514D01*
X33922Y3507D01*
X33954Y3508D01*
X34025Y3500D01*
X38735Y3500D01*
X38825Y3515D01*
X38916Y3522D01*
X38946Y3535D01*
X38978Y3540D01*
X39058Y3583D01*
X39142Y3618D01*
X39174Y3644D01*
X39195Y3655D01*
X39217Y3678D01*
X39236Y3694D01*
X41508Y4635D01*
X43953Y4635D01*
X46234Y3690D01*
X46261Y3670D01*
X46331Y3611D01*
X46361Y3598D01*
X46387Y3580D01*
X46474Y3553D01*
X46559Y3519D01*
X46600Y3514D01*
X46622Y3507D01*
X46654Y3508D01*
X46725Y3500D01*
X51435Y3500D01*
X51525Y3515D01*
X51616Y3522D01*
X51646Y3535D01*
X51678Y3540D01*
X51758Y3583D01*
X51842Y3618D01*
X51874Y3644D01*
X51895Y3655D01*
X51917Y3678D01*
X51936Y3694D01*
X54208Y4635D01*
X56653Y4635D01*
X58934Y3690D01*
X58961Y3670D01*
X59031Y3611D01*
X59061Y3598D01*
X59087Y3580D01*
X59174Y3553D01*
X59259Y3519D01*
X59300Y3514D01*
X59322Y3507D01*
X59354Y3508D01*
X59425Y3500D01*
X64135Y3500D01*
X64225Y3515D01*
X64316Y3522D01*
X64346Y3535D01*
X64378Y3540D01*
X64458Y3583D01*
X64542Y3618D01*
X64574Y3644D01*
X64595Y3655D01*
X64617Y3678D01*
X64636Y3694D01*
X66908Y4635D01*
X69353Y4635D01*
X71634Y3690D01*
X71661Y3670D01*
X71731Y3611D01*
X71761Y3598D01*
X71787Y3580D01*
X71874Y3553D01*
X71959Y3519D01*
X72000Y3514D01*
X72022Y3507D01*
X72054Y3508D01*
X72125Y3500D01*
X76835Y3500D01*
X76925Y3515D01*
X77016Y3522D01*
X77046Y3535D01*
X77078Y3540D01*
X77158Y3583D01*
X77242Y3618D01*
X77274Y3644D01*
X77295Y3655D01*
X77317Y3678D01*
X77336Y3694D01*
X79608Y4635D01*
X82053Y4635D01*
X84334Y3690D01*
X84361Y3670D01*
X84431Y3611D01*
X84461Y3598D01*
X84487Y3580D01*
X84574Y3553D01*
X84659Y3519D01*
X84700Y3514D01*
X84722Y3507D01*
X84754Y3508D01*
X84825Y3500D01*
X89535Y3500D01*
X89625Y3515D01*
X89716Y3522D01*
X89746Y3535D01*
X89778Y3540D01*
X89858Y3583D01*
X89942Y3618D01*
X89974Y3644D01*
X89995Y3655D01*
X90017Y3678D01*
X90036Y3694D01*
X92308Y4635D01*
X94753Y4635D01*
X97034Y3690D01*
X97061Y3670D01*
X97131Y3611D01*
X97161Y3598D01*
X97187Y3580D01*
X97274Y3553D01*
X97359Y3519D01*
X97400Y3514D01*
X97422Y3507D01*
X97454Y3508D01*
X97525Y3500D01*
X102235Y3500D01*
X102325Y3515D01*
X102416Y3522D01*
X102446Y3535D01*
X102478Y3540D01*
X102558Y3583D01*
X102642Y3618D01*
X102674Y3644D01*
X102695Y3655D01*
X102717Y3678D01*
X102736Y3694D01*
X105008Y4635D01*
X107453Y4635D01*
X109734Y3690D01*
X109761Y3670D01*
X109831Y3611D01*
X109861Y3598D01*
X109887Y3580D01*
X109974Y3553D01*
X110059Y3519D01*
X110100Y3514D01*
X110122Y3507D01*
X110154Y3508D01*
X110225Y3500D01*
X114935Y3500D01*
X115025Y3515D01*
X115116Y3522D01*
X115146Y3535D01*
X115178Y3540D01*
X115258Y3583D01*
X115342Y3618D01*
X115374Y3644D01*
X115395Y3655D01*
X115417Y3678D01*
X115436Y3694D01*
X117369Y4494D01*
X117408Y4519D01*
X117451Y4534D01*
X117512Y4583D01*
X117578Y4624D01*
X117607Y4659D01*
X117643Y4688D01*
X117685Y4753D01*
X117735Y4813D01*
X117751Y4856D01*
X117776Y4895D01*
X117795Y4970D01*
X117823Y5043D01*
X117825Y5089D01*
X117836Y5133D01*
X117830Y5211D01*
X117833Y5289D01*
X117821Y5333D01*
X117817Y5379D01*
X117787Y5450D01*
X117765Y5525D01*
X117739Y5563D01*
X117721Y5605D01*
X117713Y5614D01*
X117713Y8361D01*
X119639Y10287D01*
X122361Y10287D01*
X124287Y8361D01*
X124287Y5639D01*
X123448Y4800D01*
X123406Y4742D01*
X123357Y4690D01*
X123335Y4642D01*
X123304Y4600D01*
X123283Y4532D01*
X123253Y4466D01*
X123247Y4415D01*
X123232Y4365D01*
X123234Y4293D01*
X123226Y4222D01*
X123237Y4171D01*
X123238Y4119D01*
X123263Y4052D01*
X123278Y3982D01*
X123305Y3937D01*
X123323Y3888D01*
X123368Y3832D01*
X123404Y3771D01*
X123444Y3737D01*
X123477Y3696D01*
X123537Y3657D01*
X123591Y3611D01*
X123640Y3591D01*
X123683Y3563D01*
X123753Y3546D01*
X123819Y3519D01*
X123891Y3511D01*
X123922Y3503D01*
X123945Y3505D01*
X123986Y3500D01*
X140529Y3500D01*
X140548Y3503D01*
X140568Y3501D01*
X140669Y3523D01*
X140771Y3540D01*
X140789Y3549D01*
X140808Y3554D01*
X140897Y3607D01*
X140989Y3655D01*
X141002Y3669D01*
X141019Y3680D01*
X141087Y3758D01*
X141158Y3833D01*
X141166Y3851D01*
X141179Y3867D01*
X141218Y3963D01*
X141262Y4056D01*
X141264Y4076D01*
X141271Y4095D01*
X141290Y4261D01*
X141290Y47629D01*
X141278Y47700D01*
X141276Y47772D01*
X141258Y47821D01*
X141250Y47872D01*
X141217Y47935D01*
X141192Y48003D01*
X141159Y48044D01*
X141135Y48090D01*
X141083Y48139D01*
X141038Y48195D01*
X140994Y48223D01*
X140957Y48259D01*
X140892Y48289D01*
X140831Y48328D01*
X140781Y48341D01*
X140734Y48363D01*
X140662Y48371D01*
X140593Y48388D01*
X140541Y48384D01*
X140489Y48390D01*
X140419Y48374D01*
X140348Y48369D01*
X140300Y48349D01*
X140249Y48337D01*
X140187Y48301D01*
X140121Y48273D01*
X140065Y48228D01*
X140038Y48211D01*
X140022Y48193D01*
X139990Y48168D01*
X107728Y15905D01*
X13739Y15905D01*
X13739Y130853D01*
X13735Y130873D01*
X13738Y130893D01*
X13716Y130994D01*
X13699Y131096D01*
X13690Y131114D01*
X13685Y131133D01*
X13632Y131222D01*
X13584Y131313D01*
X13569Y131327D01*
X13559Y131344D01*
X13480Y131412D01*
X13405Y131483D01*
X13387Y131491D01*
X13372Y131504D01*
X13276Y131543D01*
X13182Y131586D01*
X13163Y131589D01*
X13144Y131596D01*
X12977Y131615D01*
X5944Y131615D01*
X5924Y131611D01*
X5904Y131614D01*
X5803Y131592D01*
X5701Y131575D01*
X5683Y131566D01*
X5664Y131561D01*
X5575Y131508D01*
X5483Y131460D01*
X5470Y131445D01*
X5453Y131435D01*
X5385Y131356D01*
X5314Y131281D01*
X5306Y131263D01*
X5293Y131248D01*
X5254Y131152D01*
X5210Y131058D01*
X5208Y131039D01*
X5201Y131020D01*
X5182Y130853D01*
X5182Y113989D01*
X5197Y113899D01*
X5204Y113808D01*
X5217Y113778D01*
X5222Y113746D01*
X5265Y113666D01*
X5300Y113582D01*
X5326Y113550D01*
X5337Y113529D01*
X5360Y113507D01*
X5405Y113451D01*
X5457Y113399D01*
X6392Y111140D01*
X6392Y108695D01*
X5457Y106437D01*
X5405Y106385D01*
X5352Y106311D01*
X5293Y106242D01*
X5281Y106212D01*
X5262Y106185D01*
X5235Y106098D01*
X5201Y106014D01*
X5196Y105973D01*
X5189Y105950D01*
X5190Y105918D01*
X5182Y105847D01*
X5182Y103085D01*
X5197Y102995D01*
X5204Y102904D01*
X5217Y102874D01*
X5222Y102842D01*
X5265Y102762D01*
X5300Y102678D01*
X5326Y102646D01*
X5337Y102625D01*
X5360Y102603D01*
X5405Y102547D01*
X6007Y101945D01*
X6818Y100731D01*
X7377Y99381D01*
X7505Y98741D01*
X5944Y98741D01*
X5924Y98738D01*
X5904Y98740D01*
X5803Y98718D01*
X5701Y98701D01*
X5683Y98692D01*
X5664Y98688D01*
X5575Y98635D01*
X5483Y98586D01*
X5470Y98572D01*
X5453Y98562D01*
X5385Y98483D01*
X5314Y98408D01*
X5306Y98390D01*
X5293Y98375D01*
X5254Y98279D01*
X5210Y98185D01*
X5208Y98165D01*
X5201Y98147D01*
X5182Y97980D01*
X5182Y96456D01*
X5186Y96436D01*
X5183Y96416D01*
X5205Y96315D01*
X5222Y96213D01*
X5231Y96196D01*
X5236Y96176D01*
X5289Y96087D01*
X5337Y95996D01*
X5352Y95982D01*
X5362Y95965D01*
X5440Y95898D01*
X5515Y95826D01*
X5534Y95818D01*
X5549Y95805D01*
X5645Y95766D01*
X5739Y95723D01*
X5758Y95721D01*
X5777Y95713D01*
X5944Y95695D01*
X7664Y95695D01*
X7717Y95620D01*
X7766Y95539D01*
X7788Y95520D01*
X7805Y95496D01*
X7881Y95440D01*
X7953Y95379D01*
X7980Y95368D01*
X8003Y95350D01*
X8093Y95322D01*
X8181Y95287D01*
X8217Y95283D01*
X8238Y95276D01*
X8271Y95277D01*
X8347Y95268D01*
X9261Y95268D01*
X11186Y93343D01*
X11186Y90620D01*
X9261Y88695D01*
X6308Y88695D01*
X6263Y88687D01*
X6217Y88689D01*
X6142Y88668D01*
X6065Y88655D01*
X6025Y88634D01*
X5981Y88621D01*
X5917Y88576D01*
X5848Y88540D01*
X5816Y88507D01*
X5778Y88480D01*
X5732Y88418D01*
X5678Y88362D01*
X5659Y88320D01*
X5632Y88283D01*
X5608Y88209D01*
X5575Y88138D01*
X5570Y88093D01*
X5556Y88049D01*
X5556Y87971D01*
X5548Y87894D01*
X5557Y87849D01*
X5558Y87803D01*
X5596Y87672D01*
X5600Y87654D01*
X5603Y87649D01*
X5605Y87642D01*
X6392Y85740D01*
X6392Y83295D01*
X5457Y81037D01*
X5405Y80985D01*
X5352Y80911D01*
X5293Y80842D01*
X5281Y80812D01*
X5262Y80785D01*
X5235Y80698D01*
X5201Y80614D01*
X5196Y80573D01*
X5189Y80550D01*
X5190Y80518D01*
X5182Y80447D01*
X5182Y75889D01*
X5197Y75799D01*
X5204Y75708D01*
X5217Y75678D01*
X5222Y75646D01*
X5265Y75566D01*
X5300Y75482D01*
X5326Y75450D01*
X5337Y75429D01*
X5360Y75407D01*
X5405Y75351D01*
X5457Y75299D01*
X6392Y73040D01*
X6392Y70595D01*
X5457Y68337D01*
X5405Y68285D01*
X5352Y68211D01*
X5293Y68142D01*
X5281Y68112D01*
X5262Y68085D01*
X5235Y67998D01*
X5201Y67914D01*
X5196Y67873D01*
X5189Y67850D01*
X5190Y67818D01*
X5182Y67747D01*
X5182Y63189D01*
X5197Y63099D01*
X5204Y63008D01*
X5217Y62978D01*
X5222Y62946D01*
X5265Y62866D01*
X5300Y62782D01*
X5326Y62750D01*
X5337Y62729D01*
X5360Y62707D01*
X5405Y62651D01*
X5457Y62599D01*
X6392Y60340D01*
X6392Y57895D01*
X5457Y55637D01*
X5405Y55585D01*
X5352Y55511D01*
X5293Y55442D01*
X5281Y55412D01*
X5262Y55385D01*
X5235Y55298D01*
X5201Y55214D01*
X5196Y55173D01*
X5189Y55150D01*
X5190Y55118D01*
X5182Y55047D01*
X5182Y50489D01*
X5197Y50399D01*
X5204Y50308D01*
X5217Y50278D01*
X5222Y50246D01*
X5265Y50166D01*
X5300Y50082D01*
X5326Y50050D01*
X5337Y50029D01*
X5360Y50007D01*
X5405Y49951D01*
X5457Y49899D01*
X6392Y47640D01*
X6392Y45195D01*
X5457Y42937D01*
X5405Y42885D01*
X5352Y42811D01*
X5293Y42742D01*
X5281Y42712D01*
X5262Y42685D01*
X5235Y42598D01*
X5201Y42514D01*
X5196Y42473D01*
X5189Y42450D01*
X5190Y42418D01*
X5182Y42347D01*
X5182Y37789D01*
X5197Y37699D01*
X5204Y37608D01*
X5217Y37578D01*
X5222Y37546D01*
X5265Y37466D01*
X5300Y37382D01*
X5326Y37350D01*
X5337Y37329D01*
X5360Y37307D01*
X5405Y37251D01*
X5457Y37199D01*
X6392Y34940D01*
X6392Y32495D01*
X5457Y30237D01*
X5405Y30185D01*
X5352Y30111D01*
X5293Y30042D01*
X5281Y30012D01*
X5262Y29985D01*
X5235Y29898D01*
X5201Y29814D01*
X5196Y29773D01*
X5189Y29750D01*
X5190Y29718D01*
X5182Y29647D01*
X5182Y25089D01*
X5197Y24999D01*
X5204Y24908D01*
X5217Y24878D01*
X5222Y24846D01*
X5265Y24766D01*
X5300Y24682D01*
X5326Y24650D01*
X5337Y24629D01*
X5360Y24607D01*
X5405Y24551D01*
X5457Y24499D01*
X6392Y22240D01*
X6392Y19795D01*
X5457Y17537D01*
X5405Y17485D01*
X5352Y17411D01*
X5293Y17342D01*
X5281Y17312D01*
X5262Y17285D01*
X5235Y17198D01*
X5201Y17114D01*
X5196Y17073D01*
X5189Y17050D01*
X5190Y17018D01*
X5182Y16947D01*
X5182Y4261D01*
X5186Y4242D01*
X5183Y4222D01*
X5205Y4121D01*
X5222Y4019D01*
X5231Y4001D01*
X5236Y3982D01*
X5289Y3893D01*
X5337Y3801D01*
X5352Y3788D01*
X5362Y3771D01*
X5440Y3703D01*
X5515Y3632D01*
X5534Y3624D01*
X5549Y3611D01*
X5645Y3572D01*
X5739Y3528D01*
X5758Y3526D01*
X5777Y3519D01*
X5944Y3500D01*
X26035Y3500D01*
X26125Y3515D01*
G37*
%LPC*%
G36*
X61280Y35807D02*
X61280Y35807D01*
X59355Y37733D01*
X59355Y38952D01*
X59351Y38972D01*
X59354Y38991D01*
X59332Y39093D01*
X59315Y39195D01*
X59306Y39212D01*
X59301Y39232D01*
X59248Y39321D01*
X59200Y39412D01*
X59185Y39426D01*
X59175Y39443D01*
X59097Y39510D01*
X59022Y39582D01*
X59003Y39590D01*
X58988Y39603D01*
X58892Y39642D01*
X58798Y39685D01*
X58779Y39687D01*
X58760Y39695D01*
X58593Y39713D01*
X56653Y39713D01*
X56633Y39710D01*
X56613Y39712D01*
X56512Y39690D01*
X56410Y39674D01*
X56392Y39664D01*
X56373Y39660D01*
X56284Y39607D01*
X56193Y39558D01*
X56179Y39544D01*
X56162Y39534D01*
X56094Y39455D01*
X56023Y39380D01*
X56015Y39362D01*
X56002Y39347D01*
X55963Y39251D01*
X55920Y39157D01*
X55917Y39137D01*
X55910Y39119D01*
X55891Y38952D01*
X55891Y37827D01*
X53966Y35902D01*
X51243Y35902D01*
X49318Y37827D01*
X49318Y38141D01*
X49317Y38149D01*
X49317Y38152D01*
X49315Y38161D01*
X49317Y38180D01*
X49295Y38282D01*
X49278Y38384D01*
X49269Y38401D01*
X49265Y38421D01*
X49211Y38510D01*
X49163Y38601D01*
X49149Y38615D01*
X49138Y38632D01*
X49060Y38699D01*
X48985Y38770D01*
X48967Y38779D01*
X48952Y38792D01*
X48855Y38831D01*
X48762Y38874D01*
X48742Y38876D01*
X48723Y38884D01*
X48557Y38902D01*
X46071Y38902D01*
X45945Y39028D01*
X45929Y39039D01*
X45917Y39055D01*
X45829Y39111D01*
X45746Y39171D01*
X45727Y39177D01*
X45710Y39188D01*
X45609Y39213D01*
X45510Y39244D01*
X45491Y39243D01*
X45471Y39248D01*
X45368Y39240D01*
X45265Y39237D01*
X45246Y39230D01*
X45226Y39229D01*
X45131Y39189D01*
X45034Y39153D01*
X45018Y39140D01*
X45000Y39133D01*
X44869Y39028D01*
X43114Y37273D01*
X40391Y37273D01*
X39776Y37888D01*
X39760Y37899D01*
X39747Y37915D01*
X39660Y37971D01*
X39576Y38031D01*
X39557Y38037D01*
X39540Y38048D01*
X39440Y38073D01*
X39341Y38104D01*
X39321Y38103D01*
X39302Y38108D01*
X39199Y38100D01*
X39095Y38097D01*
X39076Y38090D01*
X39057Y38089D01*
X38962Y38049D01*
X38864Y38013D01*
X38849Y38000D01*
X38830Y37993D01*
X38699Y37888D01*
X37163Y36351D01*
X34440Y36351D01*
X32515Y38277D01*
X32515Y40034D01*
X32512Y40054D01*
X32514Y40073D01*
X32492Y40175D01*
X32475Y40277D01*
X32466Y40294D01*
X32462Y40314D01*
X32408Y40403D01*
X32360Y40494D01*
X32346Y40508D01*
X32335Y40525D01*
X32257Y40592D01*
X32182Y40663D01*
X32164Y40672D01*
X32149Y40685D01*
X32052Y40724D01*
X31959Y40767D01*
X31939Y40769D01*
X31920Y40777D01*
X31754Y40795D01*
X29953Y40795D01*
X28028Y42721D01*
X28028Y45443D01*
X28998Y46414D01*
X29040Y46472D01*
X29090Y46524D01*
X29112Y46571D01*
X29142Y46613D01*
X29163Y46682D01*
X29193Y46747D01*
X29199Y46799D01*
X29214Y46849D01*
X29213Y46920D01*
X29220Y46991D01*
X29209Y47042D01*
X29208Y47094D01*
X29183Y47162D01*
X29168Y47232D01*
X29141Y47277D01*
X29124Y47325D01*
X29079Y47381D01*
X29042Y47443D01*
X29002Y47477D01*
X28970Y47517D01*
X28910Y47556D01*
X28855Y47603D01*
X28807Y47622D01*
X28763Y47650D01*
X28693Y47668D01*
X28627Y47695D01*
X28556Y47703D01*
X28524Y47711D01*
X28501Y47709D01*
X28460Y47713D01*
X25585Y47713D01*
X25514Y47702D01*
X25442Y47700D01*
X25393Y47682D01*
X25342Y47674D01*
X25279Y47640D01*
X25211Y47615D01*
X25171Y47583D01*
X25124Y47558D01*
X25075Y47506D01*
X25019Y47462D01*
X24991Y47418D01*
X24955Y47380D01*
X24925Y47315D01*
X24886Y47255D01*
X24873Y47204D01*
X24851Y47157D01*
X24844Y47086D01*
X24826Y47016D01*
X24830Y46964D01*
X24824Y46913D01*
X24840Y46842D01*
X24845Y46771D01*
X24866Y46723D01*
X24877Y46672D01*
X24913Y46611D01*
X24942Y46545D01*
X24986Y46489D01*
X25003Y46461D01*
X25021Y46446D01*
X25046Y46414D01*
X26234Y45226D01*
X26234Y42089D01*
X24016Y39870D01*
X20879Y39870D01*
X18661Y42089D01*
X18661Y45226D01*
X20879Y47444D01*
X24070Y47444D01*
X24141Y47456D01*
X24213Y47457D01*
X24262Y47475D01*
X24313Y47484D01*
X24376Y47517D01*
X24444Y47542D01*
X24484Y47574D01*
X24530Y47599D01*
X24580Y47651D01*
X24636Y47696D01*
X24664Y47739D01*
X24700Y47777D01*
X24730Y47842D01*
X24769Y47902D01*
X24781Y47953D01*
X24803Y48000D01*
X24811Y48071D01*
X24829Y48141D01*
X24825Y48193D01*
X24830Y48245D01*
X24815Y48315D01*
X24810Y48386D01*
X24789Y48434D01*
X24778Y48485D01*
X24741Y48547D01*
X24713Y48613D01*
X24668Y48669D01*
X24652Y48696D01*
X24634Y48711D01*
X24608Y48743D01*
X23713Y49639D01*
X23713Y52361D01*
X25639Y54287D01*
X28361Y54287D01*
X30287Y52361D01*
X30287Y49639D01*
X29316Y48668D01*
X29275Y48610D01*
X29225Y48558D01*
X29203Y48511D01*
X29173Y48469D01*
X29152Y48400D01*
X29122Y48335D01*
X29116Y48283D01*
X29100Y48233D01*
X29102Y48162D01*
X29094Y48090D01*
X29105Y48040D01*
X29107Y47988D01*
X29131Y47920D01*
X29147Y47850D01*
X29173Y47805D01*
X29191Y47757D01*
X29236Y47700D01*
X29273Y47639D01*
X29312Y47605D01*
X29345Y47564D01*
X29405Y47526D01*
X29460Y47479D01*
X29508Y47460D01*
X29552Y47431D01*
X29621Y47414D01*
X29688Y47387D01*
X29759Y47379D01*
X29790Y47371D01*
X29814Y47373D01*
X29855Y47369D01*
X32676Y47369D01*
X34602Y45443D01*
X34602Y43686D01*
X34605Y43666D01*
X34603Y43647D01*
X34625Y43545D01*
X34641Y43443D01*
X34651Y43426D01*
X34655Y43406D01*
X34708Y43317D01*
X34756Y43226D01*
X34771Y43212D01*
X34781Y43195D01*
X34860Y43128D01*
X34935Y43057D01*
X34953Y43048D01*
X34968Y43035D01*
X35064Y42997D01*
X35158Y42953D01*
X35178Y42951D01*
X35196Y42943D01*
X35363Y42925D01*
X37163Y42925D01*
X37778Y42310D01*
X37794Y42298D01*
X37807Y42283D01*
X37894Y42227D01*
X37978Y42166D01*
X37997Y42161D01*
X38014Y42150D01*
X38114Y42124D01*
X38213Y42094D01*
X38233Y42095D01*
X38252Y42090D01*
X38355Y42098D01*
X38459Y42100D01*
X38477Y42107D01*
X38497Y42109D01*
X38592Y42149D01*
X38690Y42185D01*
X38705Y42197D01*
X38724Y42205D01*
X38855Y42310D01*
X40391Y43846D01*
X43114Y43846D01*
X43239Y43721D01*
X43255Y43709D01*
X43268Y43693D01*
X43355Y43637D01*
X43439Y43577D01*
X43458Y43571D01*
X43475Y43560D01*
X43575Y43535D01*
X43674Y43505D01*
X43694Y43505D01*
X43713Y43500D01*
X43816Y43508D01*
X43920Y43511D01*
X43939Y43518D01*
X43959Y43520D01*
X44054Y43560D01*
X44151Y43596D01*
X44167Y43608D01*
X44185Y43616D01*
X44316Y43721D01*
X46071Y45476D01*
X48794Y45476D01*
X50719Y43550D01*
X50719Y43237D01*
X50722Y43217D01*
X50720Y43197D01*
X50742Y43096D01*
X50759Y42994D01*
X50768Y42977D01*
X50772Y42957D01*
X50826Y42868D01*
X50874Y42777D01*
X50888Y42763D01*
X50898Y42746D01*
X50977Y42679D01*
X51052Y42607D01*
X51070Y42599D01*
X51085Y42586D01*
X51182Y42547D01*
X51275Y42504D01*
X51295Y42502D01*
X51314Y42494D01*
X51480Y42476D01*
X53952Y42476D01*
X53972Y42479D01*
X53991Y42477D01*
X54093Y42499D01*
X54195Y42515D01*
X54212Y42525D01*
X54232Y42529D01*
X54321Y42582D01*
X54412Y42630D01*
X54426Y42645D01*
X54443Y42655D01*
X54510Y42734D01*
X54582Y42809D01*
X54590Y42827D01*
X54603Y42842D01*
X54642Y42938D01*
X54685Y43032D01*
X54687Y43052D01*
X54695Y43070D01*
X54713Y43237D01*
X54713Y44361D01*
X56639Y46287D01*
X59361Y46287D01*
X61287Y44361D01*
X61287Y43142D01*
X61290Y43122D01*
X61288Y43102D01*
X61310Y43001D01*
X61326Y42899D01*
X61336Y42882D01*
X61340Y42862D01*
X61393Y42773D01*
X61442Y42682D01*
X61456Y42668D01*
X61466Y42651D01*
X61545Y42584D01*
X61620Y42512D01*
X61638Y42504D01*
X61653Y42491D01*
X61749Y42452D01*
X61843Y42409D01*
X61863Y42407D01*
X61881Y42399D01*
X62048Y42381D01*
X64003Y42381D01*
X64311Y42073D01*
X64327Y42061D01*
X64339Y42045D01*
X64427Y41990D01*
X64511Y41929D01*
X64530Y41923D01*
X64546Y41912D01*
X64647Y41887D01*
X64746Y41857D01*
X64766Y41857D01*
X64785Y41852D01*
X64888Y41860D01*
X64992Y41863D01*
X65010Y41870D01*
X65030Y41872D01*
X65125Y41912D01*
X65223Y41948D01*
X65238Y41960D01*
X65256Y41968D01*
X65387Y42073D01*
X67086Y43771D01*
X69809Y43771D01*
X71734Y41846D01*
X71734Y39123D01*
X69809Y37198D01*
X67086Y37198D01*
X66778Y37506D01*
X66762Y37518D01*
X66750Y37533D01*
X66662Y37589D01*
X66578Y37650D01*
X66559Y37655D01*
X66543Y37666D01*
X66442Y37691D01*
X66343Y37722D01*
X66323Y37721D01*
X66304Y37726D01*
X66201Y37718D01*
X66097Y37716D01*
X66079Y37709D01*
X66059Y37707D01*
X65964Y37667D01*
X65866Y37631D01*
X65851Y37619D01*
X65833Y37611D01*
X65702Y37506D01*
X64003Y35807D01*
X61280Y35807D01*
G37*
%LPD*%
%LPC*%
G36*
X11639Y137713D02*
X11639Y137713D01*
X9713Y139639D01*
X9713Y142361D01*
X11527Y144175D01*
X11538Y144191D01*
X11554Y144203D01*
X11610Y144291D01*
X11670Y144374D01*
X11676Y144393D01*
X11687Y144410D01*
X11712Y144511D01*
X11742Y144610D01*
X11742Y144629D01*
X11747Y144649D01*
X11739Y144752D01*
X11736Y144855D01*
X11729Y144874D01*
X11728Y144894D01*
X11687Y144989D01*
X11652Y145086D01*
X11639Y145102D01*
X11631Y145120D01*
X11527Y145251D01*
X10065Y146713D01*
X10065Y149436D01*
X11990Y151361D01*
X14713Y151361D01*
X16638Y149436D01*
X16638Y146713D01*
X14825Y144900D01*
X14813Y144883D01*
X14798Y144871D01*
X14768Y144824D01*
X14752Y144808D01*
X14739Y144780D01*
X14682Y144700D01*
X14676Y144681D01*
X14665Y144664D01*
X14640Y144564D01*
X14609Y144465D01*
X14610Y144445D01*
X14605Y144426D01*
X14613Y144323D01*
X14616Y144219D01*
X14622Y144200D01*
X14624Y144180D01*
X14664Y144086D01*
X14700Y143988D01*
X14713Y143972D01*
X14720Y143954D01*
X14825Y143823D01*
X16287Y142361D01*
X16287Y139639D01*
X14361Y137713D01*
X11639Y137713D01*
G37*
%LPD*%
%LPC*%
G36*
X36680Y168385D02*
X36680Y168385D01*
X34754Y170310D01*
X34754Y173033D01*
X36680Y174958D01*
X39402Y174958D01*
X41328Y173033D01*
X41328Y170310D01*
X39402Y168385D01*
X36680Y168385D01*
G37*
%LPD*%
%LPC*%
G36*
X115988Y89163D02*
X115988Y89163D01*
X114063Y91088D01*
X114063Y93811D01*
X115988Y95737D01*
X118711Y95737D01*
X120637Y93811D01*
X120637Y91088D01*
X118711Y89163D01*
X115988Y89163D01*
G37*
%LPD*%
%LPC*%
G36*
X110086Y79198D02*
X110086Y79198D01*
X108161Y81123D01*
X108161Y83846D01*
X110086Y85771D01*
X112809Y85771D01*
X114734Y83846D01*
X114734Y81123D01*
X112809Y79198D01*
X110086Y79198D01*
G37*
%LPD*%
%LPC*%
G36*
X20478Y68700D02*
X20478Y68700D01*
X18552Y70626D01*
X18552Y73348D01*
X20478Y75274D01*
X23201Y75274D01*
X25126Y73348D01*
X25126Y70626D01*
X23201Y68700D01*
X20478Y68700D01*
G37*
%LPD*%
%LPC*%
G36*
X105928Y7762D02*
X105928Y7762D01*
X104002Y9688D01*
X104002Y12411D01*
X105928Y14336D01*
X108650Y14336D01*
X110576Y12411D01*
X110576Y9688D01*
X108650Y7762D01*
X105928Y7762D01*
G37*
%LPD*%
D10*
X149067Y72065D03*
X149067Y84765D03*
X149067Y59365D03*
X149067Y97465D03*
X149067Y46665D03*
X149067Y110165D03*
X149067Y33965D03*
X149067Y21265D03*
X80830Y-1511D03*
X93530Y-1511D03*
X68130Y-1511D03*
X106230Y-1511D03*
X55430Y-1511D03*
X118930Y-1511D03*
X42730Y-1511D03*
X30030Y-1511D03*
X247Y71818D03*
X247Y84518D03*
X247Y59118D03*
X247Y97218D03*
X247Y46418D03*
X247Y109918D03*
X247Y33718D03*
X247Y21018D03*
D11*
X91448Y42485D03*
D12*
X66347Y21050D03*
X99005Y116698D03*
X104448Y96544D03*
X17651Y76485D03*
X24129Y118075D03*
X122199Y65650D03*
X26305Y38168D03*
X105000Y38000D03*
D11*
X143500Y177981D03*
X137150Y177981D03*
X130800Y177981D03*
X124450Y177981D03*
X118100Y177981D03*
X102860Y177981D03*
X95240Y177981D03*
X87620Y177981D03*
X80000Y177981D03*
X72380Y177981D03*
X102917Y150329D03*
X96510Y150329D03*
X90491Y150159D03*
X87581Y155977D03*
X87327Y162733D03*
X102860Y156391D03*
X96510Y156391D03*
X92700Y162821D03*
X134610Y139881D03*
X128260Y139881D03*
X142230Y139881D03*
X134610Y167821D03*
X128260Y167821D03*
X140960Y167821D03*
X85080Y71301D03*
X85080Y84001D03*
X85080Y96701D03*
X74920Y96701D03*
X74920Y106861D03*
X62220Y106861D03*
X49520Y106861D03*
X39360Y96701D03*
X39360Y84001D03*
X39360Y71301D03*
X49520Y71301D03*
X49520Y84001D03*
X49520Y96701D03*
X49520Y61141D03*
X62220Y61141D03*
X74920Y61141D03*
X62220Y71301D03*
X62220Y84001D03*
X62220Y96701D03*
X74920Y84001D03*
X74920Y71301D03*
X62700Y132382D03*
X62700Y138907D03*
X62742Y145944D03*
X62901Y153840D03*
X72374Y167414D03*
X79210Y125449D03*
X71320Y125449D03*
X62633Y125411D03*
X108148Y127463D03*
X118408Y127463D03*
X143877Y127529D03*
X117350Y92450D03*
D12*
X22448Y43657D03*
D11*
X143877Y118529D03*
X126877Y127529D03*
X134877Y127529D03*
X132782Y64559D03*
X7900Y91981D03*
X32081Y159725D03*
X98842Y127568D03*
X117542Y71487D03*
X72370Y172814D03*
X63008Y160836D03*
X17425Y130856D03*
X65380Y177981D03*
X58380Y177981D03*
X51380Y177981D03*
X45243Y177981D03*
X39128Y177981D03*
X6128Y175981D03*
X107289Y11049D03*
X65370Y172814D03*
X58370Y172814D03*
X51370Y172814D03*
X45370Y172814D03*
X65374Y167414D03*
X58374Y167414D03*
X51374Y167414D03*
X45374Y167414D03*
X45374Y161414D03*
X51374Y161414D03*
X38374Y161414D03*
D12*
X9029Y103859D03*
D11*
X18966Y160478D03*
X9453Y124714D03*
D12*
X10000Y14000D03*
D11*
X125886Y10486D03*
X31315Y44082D03*
X27000Y51000D03*
X21816Y91485D03*
X21839Y71987D03*
X35802Y39638D03*
X41752Y40560D03*
X47432Y42189D03*
X52605Y39189D03*
X30448Y127485D03*
X38041Y171671D03*
X58000Y43000D03*
X62641Y39094D03*
X68448Y40485D03*
X94878Y49472D03*
X111448Y82485D03*
X18311Y106530D03*
X26023Y131881D03*
X21448Y101485D03*
X5121Y159421D03*
X18448Y96485D03*
X13352Y148074D03*
X11160Y159960D03*
X13000Y141000D03*
X35931Y124746D03*
X121000Y7000D03*
M02*
