G04 EAGLE Gerber RS-274X export*
G75*
%MOMM*%
%FSLAX34Y34*%
%LPD*%
%INTop Copper*%
%IPPOS*%
%AMOC8*
5,1,8,0,0,1.08239X$1,22.5*%
G01*
%ADD10R,0.600000X0.240000*%
%ADD11R,0.240000X0.600000*%
%ADD12R,5.150000X5.150000*%
%ADD13C,0.500000*%
%ADD14C,0.280800*%
%ADD15C,0.500000*%
%ADD16C,0.402900*%
%ADD17R,0.950000X0.850000*%
%ADD18C,0.270000*%
%ADD19R,0.500000X0.500000*%
%ADD20R,1.050000X2.200000*%
%ADD21R,1.000000X0.800000*%
%ADD22C,1.016000*%
%ADD23R,1.100000X0.600000*%
%ADD24R,0.350000X0.560000*%
%ADD25R,1.600000X0.200000*%
%ADD26C,0.300000*%
%ADD27C,0.152400*%
%ADD28C,0.450000*%
%ADD29C,0.254000*%
%ADD30C,0.406400*%
%ADD31C,0.304800*%
%ADD32C,0.503200*%

G36*
X134321Y1853D02*
X134321Y1853D01*
X134341Y1851D01*
X134442Y1873D01*
X134545Y1890D01*
X134562Y1899D01*
X134582Y1903D01*
X134671Y1956D01*
X134762Y2005D01*
X134776Y2019D01*
X134793Y2029D01*
X134860Y2108D01*
X134931Y2183D01*
X134940Y2201D01*
X134953Y2216D01*
X134991Y2312D01*
X135035Y2406D01*
X135037Y2426D01*
X135045Y2444D01*
X135063Y2611D01*
X135063Y25711D01*
X135807Y26455D01*
X147360Y26455D01*
X147763Y26052D01*
X147822Y26010D01*
X147874Y25961D01*
X147921Y25939D01*
X147963Y25909D01*
X148032Y25887D01*
X148097Y25857D01*
X148149Y25852D01*
X148198Y25836D01*
X148270Y25838D01*
X148341Y25830D01*
X148392Y25841D01*
X148444Y25843D01*
X148511Y25867D01*
X148582Y25882D01*
X148626Y25909D01*
X148675Y25927D01*
X148731Y25972D01*
X148793Y26009D01*
X148827Y26048D01*
X148867Y26081D01*
X148906Y26141D01*
X148953Y26195D01*
X148972Y26244D01*
X149000Y26288D01*
X149018Y26357D01*
X149045Y26424D01*
X149052Y26495D01*
X149060Y26526D01*
X149058Y26549D01*
X149063Y26590D01*
X149063Y34065D01*
X149051Y34136D01*
X149051Y34161D01*
X149111Y34166D01*
X149159Y34186D01*
X149210Y34197D01*
X149272Y34234D01*
X149338Y34262D01*
X149394Y34307D01*
X149421Y34323D01*
X149436Y34341D01*
X149469Y34367D01*
X149807Y34705D01*
X150683Y34705D01*
X150703Y34709D01*
X150723Y34707D01*
X150824Y34729D01*
X150926Y34745D01*
X150943Y34755D01*
X150963Y34759D01*
X151052Y34812D01*
X151143Y34860D01*
X151157Y34875D01*
X151174Y34885D01*
X151241Y34964D01*
X151313Y35039D01*
X151321Y35057D01*
X151334Y35072D01*
X151373Y35168D01*
X151416Y35262D01*
X151418Y35281D01*
X151426Y35300D01*
X151444Y35467D01*
X151444Y40707D01*
X152980Y42242D01*
X157851Y42242D01*
X159197Y40896D01*
X159213Y40884D01*
X159225Y40868D01*
X159286Y40829D01*
X159339Y40784D01*
X159369Y40772D01*
X159397Y40752D01*
X159416Y40746D01*
X159432Y40735D01*
X159506Y40717D01*
X159567Y40692D01*
X159605Y40688D01*
X159632Y40680D01*
X159652Y40680D01*
X159671Y40675D01*
X159699Y40677D01*
X159734Y40674D01*
X159736Y40674D01*
X159800Y40684D01*
X159878Y40686D01*
X159896Y40693D01*
X159916Y40694D01*
X159949Y40708D01*
X159979Y40713D01*
X160038Y40745D01*
X160109Y40770D01*
X160124Y40783D01*
X160142Y40791D01*
X160176Y40818D01*
X160196Y40828D01*
X160218Y40851D01*
X160273Y40896D01*
X160625Y41247D01*
X160682Y41326D01*
X160743Y41400D01*
X160753Y41425D01*
X160769Y41447D01*
X160797Y41539D01*
X160832Y41630D01*
X160835Y41663D01*
X160841Y41682D01*
X160840Y41715D01*
X160848Y41797D01*
X160800Y45074D01*
X160785Y45158D01*
X160778Y45244D01*
X160764Y45279D01*
X160757Y45316D01*
X160716Y45391D01*
X160682Y45470D01*
X160651Y45508D01*
X160639Y45532D01*
X160616Y45552D01*
X160577Y45601D01*
X160077Y46101D01*
X160077Y51572D01*
X161613Y53107D01*
X166484Y53107D01*
X167830Y51761D01*
X167846Y51749D01*
X167859Y51734D01*
X167946Y51677D01*
X168030Y51617D01*
X168049Y51611D01*
X168066Y51601D01*
X168166Y51575D01*
X168265Y51545D01*
X168285Y51545D01*
X168304Y51541D01*
X168407Y51549D01*
X168511Y51551D01*
X168529Y51558D01*
X168549Y51560D01*
X168644Y51600D01*
X168742Y51636D01*
X168757Y51648D01*
X168776Y51656D01*
X168907Y51761D01*
X169185Y52039D01*
X169237Y52112D01*
X169295Y52179D01*
X169308Y52211D01*
X169329Y52239D01*
X169355Y52324D01*
X169389Y52406D01*
X169394Y52451D01*
X169401Y52474D01*
X169400Y52506D01*
X169408Y52573D01*
X169427Y55648D01*
X169412Y55740D01*
X169405Y55833D01*
X169393Y55861D01*
X169388Y55891D01*
X169345Y55974D01*
X169308Y56060D01*
X169285Y56089D01*
X169275Y56109D01*
X169251Y56131D01*
X169204Y56190D01*
X168481Y56913D01*
X168481Y61784D01*
X169827Y63130D01*
X169839Y63147D01*
X169854Y63159D01*
X169910Y63246D01*
X169971Y63330D01*
X169977Y63349D01*
X169987Y63366D01*
X170013Y63466D01*
X170043Y63565D01*
X170043Y63585D01*
X170047Y63604D01*
X170039Y63707D01*
X170037Y63811D01*
X170030Y63830D01*
X170028Y63850D01*
X169988Y63945D01*
X169952Y64042D01*
X169940Y64058D01*
X169932Y64076D01*
X169827Y64207D01*
X169014Y65020D01*
X168941Y65073D01*
X168873Y65131D01*
X168842Y65144D01*
X168814Y65164D01*
X168728Y65190D01*
X168645Y65224D01*
X168602Y65229D01*
X168579Y65236D01*
X168547Y65236D01*
X168479Y65243D01*
X166112Y65254D01*
X166020Y65239D01*
X165928Y65232D01*
X165900Y65220D01*
X165869Y65215D01*
X165787Y65172D01*
X165702Y65136D01*
X165671Y65111D01*
X165651Y65101D01*
X165629Y65078D01*
X165571Y65031D01*
X164842Y64302D01*
X159971Y64302D01*
X158624Y65648D01*
X158608Y65660D01*
X158596Y65675D01*
X158508Y65731D01*
X158425Y65792D01*
X158406Y65797D01*
X158389Y65808D01*
X158288Y65834D01*
X158190Y65864D01*
X158170Y65863D01*
X158150Y65868D01*
X158047Y65860D01*
X157944Y65858D01*
X157925Y65851D01*
X157905Y65849D01*
X157810Y65809D01*
X157713Y65773D01*
X157697Y65761D01*
X157679Y65753D01*
X157548Y65648D01*
X156202Y64302D01*
X154592Y64302D01*
X154493Y64286D01*
X154392Y64275D01*
X154372Y64266D01*
X154350Y64262D01*
X154261Y64215D01*
X154169Y64173D01*
X154147Y64155D01*
X154132Y64147D01*
X154110Y64123D01*
X154040Y64065D01*
X148279Y57997D01*
X148233Y57929D01*
X148180Y57868D01*
X148164Y57828D01*
X148140Y57793D01*
X148118Y57715D01*
X148088Y57639D01*
X148082Y57584D01*
X148074Y57557D01*
X148076Y57528D01*
X148069Y57473D01*
X148069Y55656D01*
X146534Y54120D01*
X141663Y54120D01*
X140317Y55467D01*
X140301Y55478D01*
X140288Y55494D01*
X140201Y55550D01*
X140117Y55610D01*
X140098Y55616D01*
X140081Y55627D01*
X139981Y55652D01*
X139882Y55683D01*
X139862Y55682D01*
X139843Y55687D01*
X139740Y55679D01*
X139636Y55676D01*
X139617Y55669D01*
X139598Y55668D01*
X139503Y55627D01*
X139405Y55592D01*
X139390Y55579D01*
X139371Y55571D01*
X139240Y55467D01*
X138984Y55211D01*
X138931Y55137D01*
X138872Y55067D01*
X138860Y55037D01*
X138841Y55011D01*
X138814Y54924D01*
X138780Y54839D01*
X138775Y54798D01*
X138768Y54776D01*
X138769Y54744D01*
X138761Y54672D01*
X138761Y51875D01*
X138776Y51785D01*
X138783Y51694D01*
X138796Y51664D01*
X138801Y51632D01*
X138844Y51551D01*
X138879Y51467D01*
X138905Y51435D01*
X138916Y51415D01*
X138940Y51392D01*
X138984Y51336D01*
X139240Y51080D01*
X139256Y51069D01*
X139269Y51053D01*
X139356Y50997D01*
X139440Y50937D01*
X139459Y50931D01*
X139476Y50920D01*
X139576Y50895D01*
X139675Y50864D01*
X139695Y50865D01*
X139714Y50860D01*
X139817Y50868D01*
X139921Y50871D01*
X139940Y50878D01*
X139960Y50879D01*
X140055Y50920D01*
X140152Y50955D01*
X140168Y50968D01*
X140186Y50976D01*
X140317Y51080D01*
X141663Y52427D01*
X146534Y52427D01*
X148069Y50891D01*
X148069Y45420D01*
X147660Y45011D01*
X147617Y44951D01*
X147576Y44908D01*
X147567Y44890D01*
X147543Y44861D01*
X147533Y44834D01*
X147516Y44811D01*
X147488Y44721D01*
X147486Y44714D01*
X147472Y44685D01*
X147471Y44677D01*
X147454Y44632D01*
X147450Y44596D01*
X147444Y44576D01*
X147445Y44543D01*
X147437Y44465D01*
X147465Y41492D01*
X147480Y41405D01*
X147487Y41318D01*
X147501Y41285D01*
X147507Y41249D01*
X147549Y41172D01*
X147583Y41092D01*
X147612Y41056D01*
X147624Y41033D01*
X147647Y41012D01*
X147688Y40961D01*
X148169Y40480D01*
X148169Y34905D01*
X148181Y34834D01*
X148181Y34809D01*
X148121Y34804D01*
X148073Y34784D01*
X148022Y34773D01*
X147960Y34736D01*
X147894Y34708D01*
X147838Y34663D01*
X147811Y34647D01*
X147796Y34629D01*
X147763Y34603D01*
X146634Y33474D01*
X141763Y33474D01*
X140228Y35009D01*
X140228Y40480D01*
X140637Y40889D01*
X140692Y40966D01*
X140711Y40988D01*
X140728Y41007D01*
X140731Y41012D01*
X140753Y41039D01*
X140764Y41066D01*
X140781Y41089D01*
X140808Y41179D01*
X140832Y41230D01*
X140833Y41243D01*
X140843Y41268D01*
X140847Y41304D01*
X140853Y41324D01*
X140852Y41357D01*
X140860Y41435D01*
X140832Y44408D01*
X140817Y44495D01*
X140810Y44582D01*
X140796Y44615D01*
X140790Y44651D01*
X140748Y44728D01*
X140714Y44809D01*
X140685Y44845D01*
X140672Y44867D01*
X140650Y44888D01*
X140609Y44940D01*
X140317Y45231D01*
X140301Y45243D01*
X140288Y45258D01*
X140201Y45315D01*
X140117Y45375D01*
X140098Y45381D01*
X140081Y45391D01*
X139981Y45417D01*
X139882Y45447D01*
X139862Y45447D01*
X139843Y45452D01*
X139740Y45443D01*
X139636Y45441D01*
X139617Y45434D01*
X139598Y45432D01*
X139503Y45392D01*
X139405Y45356D01*
X139390Y45344D01*
X139371Y45336D01*
X139240Y45231D01*
X137894Y43885D01*
X133023Y43885D01*
X131488Y45420D01*
X131488Y50891D01*
X131933Y51336D01*
X131986Y51410D01*
X132046Y51480D01*
X132058Y51510D01*
X132076Y51536D01*
X132103Y51623D01*
X132137Y51708D01*
X132142Y51749D01*
X132149Y51771D01*
X132148Y51803D01*
X132156Y51875D01*
X132156Y54672D01*
X132141Y54762D01*
X132134Y54853D01*
X132121Y54883D01*
X132116Y54915D01*
X132073Y54996D01*
X132038Y55080D01*
X132012Y55112D01*
X132001Y55132D01*
X131978Y55155D01*
X131933Y55211D01*
X131707Y55437D01*
X131632Y55490D01*
X131562Y55550D01*
X131533Y55562D01*
X131507Y55580D01*
X131419Y55607D01*
X131334Y55642D01*
X131294Y55646D01*
X131272Y55653D01*
X131240Y55652D01*
X131167Y55660D01*
X121004Y55643D01*
X120989Y55640D01*
X119531Y55640D01*
X119530Y55640D01*
X118374Y55639D01*
X118215Y55797D01*
X118141Y55850D01*
X118072Y55910D01*
X118042Y55922D01*
X118015Y55941D01*
X117928Y55968D01*
X117844Y56002D01*
X117803Y56006D01*
X117780Y56013D01*
X117748Y56012D01*
X117677Y56020D01*
X116206Y56020D01*
X116186Y56017D01*
X116166Y56019D01*
X116065Y55997D01*
X115963Y55980D01*
X115946Y55971D01*
X115926Y55967D01*
X115837Y55914D01*
X115746Y55865D01*
X115732Y55851D01*
X115715Y55841D01*
X115648Y55762D01*
X115576Y55687D01*
X115568Y55669D01*
X115555Y55654D01*
X115516Y55558D01*
X115473Y55464D01*
X115471Y55444D01*
X115463Y55426D01*
X115445Y55259D01*
X115445Y53429D01*
X115459Y53339D01*
X115466Y53247D01*
X115479Y53218D01*
X115484Y53186D01*
X115515Y53129D01*
X115515Y47771D01*
X115529Y47681D01*
X115536Y47590D01*
X115549Y47560D01*
X115554Y47528D01*
X115597Y47447D01*
X115633Y47363D01*
X115658Y47331D01*
X115669Y47311D01*
X115693Y47288D01*
X115738Y47232D01*
X116326Y46644D01*
X116400Y46591D01*
X116469Y46532D01*
X116499Y46520D01*
X116525Y46501D01*
X116612Y46474D01*
X116697Y46440D01*
X116738Y46435D01*
X116760Y46428D01*
X116793Y46429D01*
X116864Y46421D01*
X118496Y46421D01*
X118587Y46436D01*
X118677Y46443D01*
X118707Y46456D01*
X118739Y46461D01*
X118820Y46504D01*
X118904Y46539D01*
X118936Y46565D01*
X118957Y46576D01*
X118979Y46599D01*
X119035Y46644D01*
X119674Y47284D01*
X119727Y47358D01*
X119787Y47427D01*
X119799Y47457D01*
X119818Y47483D01*
X119844Y47570D01*
X119878Y47655D01*
X119883Y47696D01*
X119890Y47718D01*
X119889Y47751D01*
X119897Y47822D01*
X119897Y49181D01*
X120769Y50053D01*
X120814Y50116D01*
X120839Y50142D01*
X120843Y50152D01*
X120882Y50197D01*
X120894Y50227D01*
X120913Y50253D01*
X120939Y50340D01*
X120974Y50425D01*
X120978Y50466D01*
X120985Y50488D01*
X120984Y50520D01*
X120992Y50592D01*
X120992Y51679D01*
X123210Y53897D01*
X126347Y53897D01*
X128566Y51679D01*
X128566Y48542D01*
X127046Y47023D01*
X127035Y47007D01*
X127019Y46994D01*
X126963Y46907D01*
X126903Y46823D01*
X126897Y46804D01*
X126886Y46787D01*
X126861Y46687D01*
X126831Y46588D01*
X126831Y46568D01*
X126826Y46549D01*
X126834Y46446D01*
X126837Y46342D01*
X126844Y46324D01*
X126845Y46304D01*
X126886Y46209D01*
X126921Y46111D01*
X126934Y46096D01*
X126942Y46077D01*
X126962Y46051D01*
X126962Y41223D01*
X125396Y39656D01*
X119988Y39656D01*
X119035Y40609D01*
X118961Y40662D01*
X118891Y40721D01*
X118861Y40734D01*
X118835Y40752D01*
X118748Y40779D01*
X118663Y40813D01*
X118622Y40818D01*
X118600Y40825D01*
X118568Y40824D01*
X118496Y40832D01*
X117010Y40832D01*
X116920Y40817D01*
X116829Y40810D01*
X116800Y40797D01*
X116768Y40792D01*
X116687Y40749D01*
X116603Y40714D01*
X116571Y40688D01*
X116550Y40677D01*
X116528Y40654D01*
X116472Y40609D01*
X115446Y39583D01*
X110504Y39583D01*
X110484Y39579D01*
X110464Y39582D01*
X110363Y39560D01*
X110261Y39543D01*
X110244Y39534D01*
X110224Y39529D01*
X110135Y39476D01*
X110044Y39428D01*
X110030Y39413D01*
X110013Y39403D01*
X109946Y39324D01*
X109874Y39249D01*
X109866Y39231D01*
X109853Y39216D01*
X109814Y39120D01*
X109771Y39026D01*
X109769Y39007D01*
X109761Y38988D01*
X109743Y38821D01*
X109743Y32116D01*
X109746Y32096D01*
X109744Y32077D01*
X109766Y31975D01*
X109782Y31873D01*
X109792Y31856D01*
X109796Y31836D01*
X109849Y31747D01*
X109897Y31656D01*
X109912Y31642D01*
X109922Y31625D01*
X110001Y31558D01*
X110076Y31487D01*
X110094Y31478D01*
X110109Y31465D01*
X110205Y31426D01*
X110299Y31383D01*
X110319Y31381D01*
X110337Y31373D01*
X110504Y31355D01*
X114403Y31355D01*
X115147Y30610D01*
X115147Y28628D01*
X115151Y28608D01*
X115148Y28589D01*
X115170Y28487D01*
X115187Y28385D01*
X115196Y28368D01*
X115201Y28348D01*
X115254Y28259D01*
X115302Y28168D01*
X115317Y28154D01*
X115327Y28137D01*
X115405Y28070D01*
X115480Y27999D01*
X115499Y27990D01*
X115514Y27977D01*
X115610Y27938D01*
X115704Y27895D01*
X115723Y27893D01*
X115742Y27885D01*
X115909Y27867D01*
X117830Y27867D01*
X117920Y27882D01*
X118011Y27889D01*
X118041Y27901D01*
X118073Y27907D01*
X118153Y27949D01*
X118237Y27985D01*
X118269Y28011D01*
X118290Y28022D01*
X118312Y28045D01*
X118368Y28090D01*
X119592Y29313D01*
X125063Y29313D01*
X126598Y27778D01*
X126598Y22907D01*
X125063Y21372D01*
X119592Y21372D01*
X118056Y22907D01*
X118056Y23040D01*
X118053Y23060D01*
X118055Y23080D01*
X118033Y23181D01*
X118017Y23283D01*
X118007Y23300D01*
X118003Y23320D01*
X117950Y23409D01*
X117902Y23500D01*
X117887Y23514D01*
X117877Y23531D01*
X117798Y23598D01*
X117723Y23670D01*
X117705Y23678D01*
X117690Y23691D01*
X117594Y23730D01*
X117500Y23773D01*
X117480Y23775D01*
X117462Y23783D01*
X117295Y23801D01*
X115909Y23801D01*
X115889Y23798D01*
X115869Y23800D01*
X115768Y23778D01*
X115666Y23762D01*
X115648Y23752D01*
X115629Y23748D01*
X115540Y23695D01*
X115448Y23646D01*
X115435Y23632D01*
X115418Y23622D01*
X115350Y23543D01*
X115279Y23468D01*
X115271Y23450D01*
X115258Y23435D01*
X115219Y23339D01*
X115175Y23245D01*
X115173Y23225D01*
X115166Y23207D01*
X115147Y23040D01*
X115147Y21058D01*
X114403Y20313D01*
X105139Y20313D01*
X105119Y20310D01*
X105099Y20312D01*
X104998Y20290D01*
X104896Y20274D01*
X104878Y20264D01*
X104859Y20260D01*
X104770Y20207D01*
X104678Y20158D01*
X104665Y20144D01*
X104648Y20134D01*
X104580Y20055D01*
X104509Y19980D01*
X104501Y19962D01*
X104488Y19947D01*
X104449Y19851D01*
X104405Y19757D01*
X104403Y19737D01*
X104396Y19719D01*
X104377Y19552D01*
X104377Y19503D01*
X104109Y19234D01*
X104084Y19200D01*
X104053Y19172D01*
X104013Y19101D01*
X103965Y19034D01*
X103953Y18994D01*
X103932Y18957D01*
X103921Y18913D01*
X103383Y18499D01*
X103361Y18476D01*
X103309Y18434D01*
X102826Y17952D01*
X102787Y17941D01*
X102707Y17928D01*
X102670Y17908D01*
X102629Y17897D01*
X102497Y17816D01*
X102489Y17812D01*
X102488Y17811D01*
X102486Y17810D01*
X100945Y16626D01*
X100933Y16613D01*
X100918Y16604D01*
X100849Y16523D01*
X100776Y16446D01*
X100769Y16430D01*
X100758Y16417D01*
X100718Y16318D01*
X100674Y16222D01*
X100672Y16205D01*
X100666Y16189D01*
X100647Y16022D01*
X100647Y9558D01*
X99903Y8813D01*
X89350Y8813D01*
X88606Y9558D01*
X88606Y12043D01*
X88594Y12113D01*
X88592Y12185D01*
X88574Y12234D01*
X88566Y12285D01*
X88533Y12349D01*
X88508Y12416D01*
X88475Y12457D01*
X88451Y12503D01*
X88399Y12552D01*
X88354Y12608D01*
X88310Y12636D01*
X88273Y12672D01*
X88208Y12702D01*
X88147Y12741D01*
X88097Y12754D01*
X88050Y12776D01*
X87978Y12784D01*
X87909Y12801D01*
X87857Y12797D01*
X87805Y12803D01*
X87735Y12788D01*
X87664Y12782D01*
X87616Y12762D01*
X87565Y12751D01*
X87503Y12714D01*
X87437Y12686D01*
X87381Y12641D01*
X87354Y12624D01*
X87338Y12607D01*
X87306Y12581D01*
X85608Y10882D01*
X80137Y10882D01*
X78602Y12418D01*
X78602Y17289D01*
X80137Y18824D01*
X85608Y18824D01*
X87306Y17126D01*
X87365Y17084D01*
X87417Y17034D01*
X87464Y17012D01*
X87506Y16982D01*
X87575Y16961D01*
X87640Y16931D01*
X87691Y16925D01*
X87741Y16910D01*
X87813Y16912D01*
X87884Y16904D01*
X87935Y16915D01*
X87987Y16916D01*
X88054Y16941D01*
X88124Y16956D01*
X88169Y16983D01*
X88218Y17000D01*
X88274Y17045D01*
X88336Y17082D01*
X88369Y17122D01*
X88410Y17154D01*
X88449Y17214D01*
X88495Y17269D01*
X88515Y17317D01*
X88543Y17361D01*
X88561Y17431D01*
X88587Y17497D01*
X88595Y17568D01*
X88603Y17600D01*
X88601Y17623D01*
X88606Y17664D01*
X88606Y19110D01*
X89350Y19855D01*
X98216Y19855D01*
X98258Y19862D01*
X98300Y19859D01*
X98378Y19881D01*
X98459Y19895D01*
X98496Y19914D01*
X98537Y19925D01*
X98669Y20006D01*
X98676Y20010D01*
X98678Y20011D01*
X98680Y20012D01*
X100014Y21038D01*
X100026Y21051D01*
X100042Y21060D01*
X100110Y21140D01*
X100165Y21198D01*
X100180Y21214D01*
X100180Y21215D01*
X100183Y21217D01*
X100190Y21233D01*
X100201Y21247D01*
X100241Y21345D01*
X100257Y21379D01*
X100284Y21437D01*
X100284Y21438D01*
X100285Y21441D01*
X100287Y21458D01*
X100293Y21475D01*
X100312Y21641D01*
X100312Y39452D01*
X100309Y39472D01*
X100311Y39491D01*
X100289Y39593D01*
X100272Y39695D01*
X100263Y39712D01*
X100259Y39732D01*
X100205Y39821D01*
X100157Y39912D01*
X100143Y39926D01*
X100132Y39943D01*
X100054Y40010D01*
X99979Y40082D01*
X99961Y40090D01*
X99945Y40103D01*
X99849Y40142D01*
X99756Y40185D01*
X99736Y40187D01*
X99717Y40195D01*
X99551Y40213D01*
X96276Y40213D01*
X96256Y40210D01*
X96236Y40212D01*
X96135Y40190D01*
X96033Y40174D01*
X96016Y40164D01*
X95996Y40160D01*
X95907Y40107D01*
X95816Y40058D01*
X95802Y40044D01*
X95785Y40034D01*
X95718Y39955D01*
X95646Y39880D01*
X95638Y39862D01*
X95625Y39847D01*
X95586Y39751D01*
X95543Y39657D01*
X95541Y39637D01*
X95533Y39619D01*
X95515Y39452D01*
X95515Y37921D01*
X85052Y27459D01*
X76258Y27459D01*
X76187Y27448D01*
X76116Y27446D01*
X76067Y27428D01*
X76015Y27420D01*
X75952Y27386D01*
X75885Y27361D01*
X75844Y27329D01*
X75798Y27304D01*
X75749Y27252D01*
X75693Y27208D01*
X75665Y27164D01*
X75629Y27126D01*
X75598Y27061D01*
X75560Y27001D01*
X75547Y26950D01*
X75525Y26903D01*
X75517Y26832D01*
X75500Y26762D01*
X75504Y26710D01*
X75498Y26659D01*
X75513Y26588D01*
X75519Y26517D01*
X75539Y26469D01*
X75550Y26418D01*
X75587Y26357D01*
X75615Y26291D01*
X75660Y26235D01*
X75676Y26207D01*
X75694Y26192D01*
X75720Y26160D01*
X76006Y25874D01*
X76006Y21066D01*
X74439Y19499D01*
X69031Y19499D01*
X67464Y21066D01*
X67464Y25874D01*
X68579Y26989D01*
X68591Y27005D01*
X68607Y27017D01*
X68662Y27104D01*
X68723Y27188D01*
X68729Y27208D01*
X68740Y27224D01*
X68765Y27325D01*
X68795Y27424D01*
X68795Y27444D01*
X68800Y27463D01*
X68792Y27566D01*
X68789Y27669D01*
X68782Y27688D01*
X68781Y27708D01*
X68740Y27803D01*
X68705Y27900D01*
X68692Y27916D01*
X68684Y27934D01*
X68579Y28065D01*
X68213Y28431D01*
X68213Y31647D01*
X68202Y31717D01*
X68200Y31789D01*
X68182Y31838D01*
X68174Y31889D01*
X68140Y31953D01*
X68115Y32020D01*
X68083Y32061D01*
X68058Y32107D01*
X68006Y32156D01*
X67962Y32212D01*
X67918Y32240D01*
X67880Y32276D01*
X67815Y32306D01*
X67755Y32345D01*
X67704Y32358D01*
X67657Y32380D01*
X67586Y32388D01*
X67516Y32405D01*
X67464Y32401D01*
X67413Y32407D01*
X67342Y32392D01*
X67271Y32386D01*
X67223Y32366D01*
X67172Y32355D01*
X67111Y32318D01*
X67045Y32290D01*
X66989Y32245D01*
X66961Y32228D01*
X66946Y32211D01*
X66914Y32185D01*
X62726Y27997D01*
X58624Y27997D01*
X58533Y27983D01*
X58443Y27975D01*
X58413Y27963D01*
X58381Y27958D01*
X58300Y27915D01*
X58216Y27879D01*
X58184Y27853D01*
X58163Y27842D01*
X58141Y27819D01*
X58085Y27774D01*
X53962Y23651D01*
X53909Y23577D01*
X53850Y23508D01*
X53837Y23478D01*
X53819Y23451D01*
X53792Y23364D01*
X53758Y23280D01*
X53753Y23239D01*
X53746Y23216D01*
X53747Y23184D01*
X53739Y23113D01*
X53739Y17614D01*
X53754Y17524D01*
X53761Y17433D01*
X53774Y17403D01*
X53779Y17371D01*
X53822Y17291D01*
X53857Y17207D01*
X53883Y17175D01*
X53894Y17154D01*
X53917Y17132D01*
X53962Y17076D01*
X58988Y12050D01*
X59062Y11997D01*
X59132Y11937D01*
X59162Y11925D01*
X59188Y11906D01*
X59275Y11879D01*
X59360Y11845D01*
X59401Y11841D01*
X59423Y11834D01*
X59455Y11835D01*
X59526Y11827D01*
X76708Y11827D01*
X78122Y10413D01*
X83092Y5443D01*
X83187Y5375D01*
X83281Y5305D01*
X83287Y5303D01*
X83292Y5299D01*
X83403Y5265D01*
X83515Y5229D01*
X83521Y5229D01*
X83527Y5227D01*
X83644Y5230D01*
X83761Y5231D01*
X83768Y5233D01*
X83773Y5233D01*
X83790Y5240D01*
X83922Y5278D01*
X85017Y5731D01*
X87543Y5731D01*
X89877Y4764D01*
X91664Y2978D01*
X91926Y2343D01*
X91964Y2282D01*
X91993Y2217D01*
X92029Y2179D01*
X92056Y2134D01*
X92111Y2089D01*
X92160Y2036D01*
X92205Y2011D01*
X92246Y1978D01*
X92312Y1952D01*
X92375Y1917D01*
X92427Y1908D01*
X92475Y1889D01*
X92547Y1886D01*
X92617Y1874D01*
X92669Y1881D01*
X92721Y1879D01*
X92790Y1899D01*
X92861Y1909D01*
X92907Y1933D01*
X92957Y1948D01*
X93016Y1988D01*
X93080Y2021D01*
X93116Y2058D01*
X93159Y2088D01*
X93202Y2145D01*
X93252Y2196D01*
X93287Y2259D01*
X93306Y2285D01*
X93313Y2307D01*
X93333Y2343D01*
X93596Y2978D01*
X95382Y4764D01*
X97717Y5731D01*
X100243Y5731D01*
X102577Y4764D01*
X104364Y2978D01*
X104627Y2343D01*
X104664Y2282D01*
X104693Y2217D01*
X104729Y2179D01*
X104756Y2134D01*
X104811Y2089D01*
X104860Y2036D01*
X104905Y2011D01*
X104946Y1978D01*
X105013Y1952D01*
X105075Y1917D01*
X105127Y1908D01*
X105175Y1889D01*
X105247Y1886D01*
X105317Y1874D01*
X105369Y1881D01*
X105421Y1879D01*
X105490Y1899D01*
X105561Y1909D01*
X105607Y1933D01*
X105657Y1947D01*
X105716Y1988D01*
X105780Y2021D01*
X105816Y2058D01*
X105859Y2088D01*
X105902Y2145D01*
X105952Y2196D01*
X105987Y2259D01*
X106006Y2285D01*
X106013Y2307D01*
X106033Y2343D01*
X106296Y2978D01*
X108082Y4764D01*
X110417Y5731D01*
X112943Y5731D01*
X115277Y4764D01*
X117064Y2978D01*
X117336Y2320D01*
X117398Y2220D01*
X117458Y2120D01*
X117463Y2116D01*
X117466Y2111D01*
X117556Y2036D01*
X117645Y1960D01*
X117651Y1958D01*
X117655Y1954D01*
X117764Y1912D01*
X117873Y1868D01*
X117880Y1867D01*
X117885Y1866D01*
X117903Y1865D01*
X118040Y1850D01*
X134302Y1850D01*
X134321Y1853D01*
G37*
G36*
X16535Y1869D02*
X16535Y1869D01*
X16651Y1886D01*
X16657Y1889D01*
X16663Y1890D01*
X16765Y1944D01*
X16870Y1997D01*
X16875Y2002D01*
X16880Y2005D01*
X16960Y2089D01*
X17042Y2173D01*
X17046Y2179D01*
X17049Y2183D01*
X17057Y2200D01*
X17123Y2320D01*
X17396Y2978D01*
X19182Y4764D01*
X21517Y5731D01*
X24043Y5731D01*
X26270Y4809D01*
X26383Y4782D01*
X26497Y4754D01*
X26503Y4754D01*
X26509Y4753D01*
X26626Y4764D01*
X26742Y4773D01*
X26748Y4775D01*
X26754Y4776D01*
X26862Y4824D01*
X26968Y4869D01*
X26974Y4874D01*
X26979Y4876D01*
X26992Y4889D01*
X27099Y4974D01*
X34744Y12619D01*
X34797Y12693D01*
X34857Y12762D01*
X34869Y12793D01*
X34888Y12819D01*
X34915Y12906D01*
X34949Y12991D01*
X34953Y13032D01*
X34960Y13054D01*
X34959Y13086D01*
X34967Y13157D01*
X34967Y13470D01*
X34964Y13490D01*
X34966Y13510D01*
X34944Y13611D01*
X34928Y13713D01*
X34918Y13730D01*
X34914Y13750D01*
X34861Y13839D01*
X34812Y13930D01*
X34798Y13944D01*
X34788Y13961D01*
X34709Y14028D01*
X34634Y14100D01*
X34616Y14108D01*
X34601Y14121D01*
X34505Y14160D01*
X34411Y14203D01*
X34391Y14205D01*
X34373Y14213D01*
X34206Y14231D01*
X29559Y14231D01*
X28201Y15589D01*
X28185Y15601D01*
X28173Y15616D01*
X28086Y15672D01*
X28002Y15733D01*
X27983Y15739D01*
X27966Y15749D01*
X27865Y15775D01*
X27767Y15805D01*
X27747Y15805D01*
X27727Y15809D01*
X27624Y15801D01*
X27521Y15799D01*
X27502Y15792D01*
X27482Y15790D01*
X27387Y15750D01*
X27290Y15714D01*
X27274Y15702D01*
X27256Y15694D01*
X27125Y15589D01*
X25619Y14083D01*
X25566Y14009D01*
X25506Y13940D01*
X25494Y13910D01*
X25475Y13883D01*
X25449Y13796D01*
X25414Y13712D01*
X25410Y13671D01*
X25403Y13648D01*
X25404Y13616D01*
X25396Y13545D01*
X25396Y12899D01*
X25411Y12808D01*
X25418Y12718D01*
X25430Y12688D01*
X25436Y12656D01*
X25478Y12575D01*
X25514Y12491D01*
X25521Y12483D01*
X25521Y9542D01*
X23458Y7479D01*
X20542Y7479D01*
X20272Y7749D01*
X20198Y7802D01*
X20128Y7862D01*
X20098Y7874D01*
X20072Y7893D01*
X19985Y7920D01*
X19900Y7954D01*
X19859Y7958D01*
X19837Y7965D01*
X19805Y7964D01*
X19733Y7972D01*
X17560Y7972D01*
X17470Y7958D01*
X17379Y7950D01*
X17349Y7938D01*
X17317Y7933D01*
X17236Y7890D01*
X17152Y7854D01*
X17120Y7828D01*
X17100Y7817D01*
X17077Y7794D01*
X17021Y7749D01*
X15306Y6034D01*
X9899Y6034D01*
X8332Y7601D01*
X8332Y12409D01*
X9690Y13767D01*
X9701Y13783D01*
X9717Y13795D01*
X9773Y13883D01*
X9833Y13966D01*
X9839Y13985D01*
X9850Y14002D01*
X9875Y14103D01*
X9905Y14202D01*
X9905Y14221D01*
X9910Y14241D01*
X9902Y14344D01*
X9899Y14447D01*
X9892Y14466D01*
X9891Y14486D01*
X9850Y14581D01*
X9815Y14678D01*
X9802Y14694D01*
X9794Y14712D01*
X9690Y14843D01*
X8332Y16201D01*
X8332Y21009D01*
X10037Y22715D01*
X10067Y22731D01*
X10117Y22783D01*
X10173Y22827D01*
X10201Y22871D01*
X10237Y22909D01*
X10267Y22974D01*
X10306Y23034D01*
X10319Y23085D01*
X10340Y23132D01*
X10348Y23203D01*
X10366Y23273D01*
X10362Y23325D01*
X10368Y23376D01*
X10352Y23447D01*
X10347Y23518D01*
X10326Y23566D01*
X10315Y23617D01*
X10279Y23678D01*
X10250Y23744D01*
X10206Y23800D01*
X10189Y23828D01*
X10171Y23843D01*
X10146Y23875D01*
X9479Y24542D01*
X9479Y27458D01*
X11542Y29521D01*
X14458Y29521D01*
X16521Y27458D01*
X16521Y24542D01*
X15469Y23490D01*
X15457Y23474D01*
X15442Y23461D01*
X15386Y23374D01*
X15325Y23290D01*
X15319Y23271D01*
X15309Y23254D01*
X15283Y23154D01*
X15253Y23055D01*
X15253Y23035D01*
X15249Y23016D01*
X15257Y22913D01*
X15259Y22809D01*
X15266Y22790D01*
X15268Y22771D01*
X15308Y22676D01*
X15344Y22578D01*
X15356Y22562D01*
X15364Y22544D01*
X15469Y22413D01*
X16873Y21009D01*
X16873Y16201D01*
X15515Y14843D01*
X15504Y14827D01*
X15488Y14815D01*
X15432Y14727D01*
X15372Y14644D01*
X15366Y14625D01*
X15355Y14608D01*
X15330Y14507D01*
X15299Y14408D01*
X15300Y14389D01*
X15295Y14369D01*
X15303Y14266D01*
X15306Y14163D01*
X15313Y14144D01*
X15314Y14124D01*
X15355Y14029D01*
X15390Y13932D01*
X15403Y13916D01*
X15411Y13898D01*
X15515Y13767D01*
X17021Y12261D01*
X17095Y12208D01*
X17165Y12148D01*
X17195Y12136D01*
X17221Y12117D01*
X17308Y12090D01*
X17393Y12056D01*
X17434Y12052D01*
X17456Y12045D01*
X17488Y12046D01*
X17560Y12038D01*
X17743Y12038D01*
X17833Y12053D01*
X17924Y12060D01*
X17954Y12072D01*
X17986Y12078D01*
X18067Y12120D01*
X18151Y12156D01*
X18183Y12182D01*
X18203Y12193D01*
X18226Y12216D01*
X18282Y12261D01*
X20067Y14047D01*
X20079Y14063D01*
X20095Y14075D01*
X20151Y14162D01*
X20211Y14246D01*
X20217Y14265D01*
X20228Y14282D01*
X20253Y14382D01*
X20283Y14481D01*
X20283Y14501D01*
X20288Y14521D01*
X20280Y14624D01*
X20277Y14727D01*
X20270Y14746D01*
X20269Y14766D01*
X20228Y14861D01*
X20193Y14958D01*
X20180Y14974D01*
X20172Y14992D01*
X20067Y15123D01*
X19392Y15798D01*
X19392Y21206D01*
X20959Y22773D01*
X25767Y22773D01*
X27125Y21415D01*
X27141Y21403D01*
X27153Y21388D01*
X27241Y21332D01*
X27325Y21271D01*
X27344Y21266D01*
X27360Y21255D01*
X27461Y21230D01*
X27560Y21199D01*
X27580Y21200D01*
X27599Y21195D01*
X27702Y21203D01*
X27806Y21205D01*
X27824Y21212D01*
X27844Y21214D01*
X27939Y21254D01*
X28037Y21290D01*
X28052Y21302D01*
X28070Y21310D01*
X28201Y21415D01*
X29581Y22794D01*
X29592Y22810D01*
X29608Y22823D01*
X29664Y22910D01*
X29724Y22994D01*
X29730Y23013D01*
X29741Y23030D01*
X29766Y23130D01*
X29797Y23229D01*
X29796Y23249D01*
X29801Y23268D01*
X29793Y23371D01*
X29790Y23475D01*
X29783Y23494D01*
X29782Y23514D01*
X29742Y23608D01*
X29706Y23706D01*
X29693Y23722D01*
X29686Y23740D01*
X29581Y23871D01*
X27956Y25495D01*
X27956Y30903D01*
X29746Y32693D01*
X29758Y32709D01*
X29773Y32721D01*
X29829Y32809D01*
X29890Y32893D01*
X29895Y32912D01*
X29906Y32928D01*
X29932Y33029D01*
X29962Y33128D01*
X29961Y33148D01*
X29966Y33167D01*
X29958Y33270D01*
X29956Y33374D01*
X29949Y33392D01*
X29947Y33412D01*
X29907Y33507D01*
X29871Y33605D01*
X29859Y33620D01*
X29851Y33638D01*
X29746Y33769D01*
X28002Y35514D01*
X28002Y40922D01*
X29568Y42489D01*
X31975Y42489D01*
X32066Y42503D01*
X32156Y42510D01*
X32186Y42523D01*
X32218Y42528D01*
X32299Y42571D01*
X32383Y42607D01*
X32415Y42632D01*
X32436Y42643D01*
X32458Y42667D01*
X32514Y42711D01*
X32887Y43084D01*
X32898Y43100D01*
X32914Y43113D01*
X32970Y43200D01*
X33030Y43284D01*
X33036Y43303D01*
X33047Y43320D01*
X33072Y43420D01*
X33102Y43519D01*
X33102Y43539D01*
X33107Y43558D01*
X33099Y43661D01*
X33096Y43765D01*
X33089Y43784D01*
X33088Y43804D01*
X33047Y43899D01*
X33012Y43996D01*
X32999Y44012D01*
X32991Y44030D01*
X32887Y44161D01*
X32342Y44705D01*
X32268Y44758D01*
X32199Y44818D01*
X32169Y44830D01*
X32143Y44849D01*
X32055Y44875D01*
X31971Y44909D01*
X31930Y44914D01*
X31907Y44921D01*
X31875Y44920D01*
X31804Y44928D01*
X27551Y44928D01*
X25342Y47137D01*
X25342Y59461D01*
X27551Y61669D01*
X33298Y61669D01*
X33389Y61684D01*
X33479Y61691D01*
X33509Y61704D01*
X33541Y61709D01*
X33622Y61752D01*
X33706Y61788D01*
X33738Y61813D01*
X33759Y61824D01*
X33781Y61848D01*
X33837Y61892D01*
X35519Y63575D01*
X35561Y63633D01*
X35611Y63685D01*
X35633Y63733D01*
X35663Y63775D01*
X35684Y63843D01*
X35714Y63908D01*
X35720Y63960D01*
X35735Y64010D01*
X35733Y64082D01*
X35741Y64153D01*
X35730Y64204D01*
X35729Y64256D01*
X35704Y64323D01*
X35689Y64393D01*
X35662Y64438D01*
X35645Y64487D01*
X35600Y64543D01*
X35563Y64604D01*
X35523Y64638D01*
X35491Y64679D01*
X35431Y64718D01*
X35376Y64764D01*
X35328Y64784D01*
X35284Y64812D01*
X35214Y64829D01*
X35148Y64856D01*
X35077Y64864D01*
X35045Y64872D01*
X35022Y64870D01*
X34981Y64875D01*
X27729Y64875D01*
X25520Y67083D01*
X25520Y79050D01*
X25517Y79070D01*
X25519Y79090D01*
X25497Y79191D01*
X25480Y79293D01*
X25471Y79310D01*
X25467Y79330D01*
X25413Y79419D01*
X25365Y79510D01*
X25351Y79524D01*
X25340Y79541D01*
X25262Y79608D01*
X25187Y79680D01*
X25169Y79688D01*
X25153Y79701D01*
X25057Y79740D01*
X24964Y79783D01*
X24944Y79785D01*
X24925Y79793D01*
X24759Y79811D01*
X22028Y79811D01*
X21767Y80072D01*
X21693Y80125D01*
X21624Y80185D01*
X21594Y80197D01*
X21567Y80216D01*
X21480Y80243D01*
X21396Y80277D01*
X21355Y80281D01*
X21332Y80288D01*
X21300Y80287D01*
X21229Y80295D01*
X20123Y80295D01*
X20103Y80292D01*
X20083Y80294D01*
X19982Y80272D01*
X19880Y80256D01*
X19862Y80246D01*
X19843Y80242D01*
X19754Y80189D01*
X19662Y80141D01*
X19649Y80126D01*
X19632Y80116D01*
X19564Y80037D01*
X19493Y79962D01*
X19485Y79944D01*
X19472Y79929D01*
X19433Y79833D01*
X19389Y79739D01*
X19387Y79719D01*
X19380Y79701D01*
X19361Y79534D01*
X19361Y67083D01*
X17152Y64875D01*
X9029Y64875D01*
X7510Y66393D01*
X7473Y66420D01*
X7442Y66454D01*
X7374Y66491D01*
X7310Y66537D01*
X7267Y66550D01*
X7226Y66572D01*
X7150Y66586D01*
X7075Y66609D01*
X7030Y66608D01*
X6984Y66616D01*
X6907Y66605D01*
X6830Y66603D01*
X6786Y66587D01*
X6741Y66580D01*
X6672Y66545D01*
X6599Y66518D01*
X6563Y66489D01*
X6522Y66469D01*
X6467Y66413D01*
X6406Y66364D01*
X6382Y66326D01*
X6350Y66293D01*
X6284Y66173D01*
X6273Y66158D01*
X6272Y66153D01*
X6269Y66146D01*
X5388Y64020D01*
X3602Y62234D01*
X2967Y61971D01*
X2906Y61933D01*
X2841Y61904D01*
X2802Y61869D01*
X2758Y61841D01*
X2712Y61786D01*
X2660Y61737D01*
X2634Y61692D01*
X2601Y61652D01*
X2576Y61585D01*
X2541Y61522D01*
X2532Y61471D01*
X2513Y61422D01*
X2510Y61351D01*
X2497Y61280D01*
X2505Y61228D01*
X2503Y61176D01*
X2523Y61107D01*
X2533Y61037D01*
X2557Y60990D01*
X2571Y60940D01*
X2612Y60881D01*
X2645Y60817D01*
X2682Y60781D01*
X2711Y60738D01*
X2769Y60695D01*
X2820Y60645D01*
X2883Y60611D01*
X2909Y60591D01*
X2931Y60584D01*
X2967Y60564D01*
X3602Y60301D01*
X5388Y58515D01*
X6355Y56181D01*
X6355Y53654D01*
X5388Y51320D01*
X3602Y49534D01*
X2967Y49271D01*
X2906Y49233D01*
X2841Y49204D01*
X2802Y49169D01*
X2758Y49141D01*
X2712Y49086D01*
X2660Y49037D01*
X2634Y48992D01*
X2601Y48952D01*
X2576Y48885D01*
X2541Y48822D01*
X2532Y48771D01*
X2513Y48722D01*
X2510Y48651D01*
X2497Y48580D01*
X2505Y48528D01*
X2503Y48476D01*
X2523Y48407D01*
X2533Y48337D01*
X2557Y48290D01*
X2571Y48240D01*
X2612Y48181D01*
X2645Y48117D01*
X2682Y48081D01*
X2711Y48038D01*
X2769Y47995D01*
X2820Y47945D01*
X2883Y47911D01*
X2909Y47891D01*
X2931Y47884D01*
X2967Y47864D01*
X3602Y47601D01*
X5388Y45815D01*
X6355Y43481D01*
X6355Y40954D01*
X5388Y38620D01*
X3602Y36834D01*
X2967Y36571D01*
X2906Y36533D01*
X2841Y36504D01*
X2802Y36469D01*
X2758Y36441D01*
X2712Y36386D01*
X2660Y36337D01*
X2634Y36292D01*
X2601Y36252D01*
X2576Y36185D01*
X2541Y36122D01*
X2532Y36071D01*
X2513Y36022D01*
X2510Y35951D01*
X2497Y35880D01*
X2505Y35828D01*
X2503Y35776D01*
X2523Y35707D01*
X2533Y35637D01*
X2557Y35590D01*
X2571Y35540D01*
X2612Y35481D01*
X2645Y35417D01*
X2682Y35381D01*
X2711Y35338D01*
X2769Y35295D01*
X2820Y35245D01*
X2883Y35211D01*
X2909Y35191D01*
X2931Y35184D01*
X2967Y35164D01*
X3602Y34901D01*
X5388Y33115D01*
X6355Y30781D01*
X6355Y28254D01*
X5388Y25920D01*
X3602Y24134D01*
X2619Y23727D01*
X2520Y23665D01*
X2420Y23605D01*
X2416Y23601D01*
X2410Y23597D01*
X2335Y23507D01*
X2260Y23418D01*
X2258Y23412D01*
X2254Y23408D01*
X2212Y23299D01*
X2168Y23190D01*
X2167Y23183D01*
X2165Y23178D01*
X2165Y23160D01*
X2149Y23023D01*
X2149Y2611D01*
X2153Y2591D01*
X2151Y2572D01*
X2173Y2470D01*
X2189Y2368D01*
X2199Y2351D01*
X2203Y2331D01*
X2256Y2242D01*
X2304Y2151D01*
X2319Y2137D01*
X2329Y2120D01*
X2408Y2053D01*
X2483Y1982D01*
X2501Y1973D01*
X2516Y1960D01*
X2612Y1921D01*
X2706Y1878D01*
X2725Y1876D01*
X2744Y1868D01*
X2911Y1850D01*
X16420Y1850D01*
X16535Y1869D01*
G37*
G36*
X37808Y80078D02*
X37808Y80078D01*
X37860Y80079D01*
X37928Y80104D01*
X37998Y80119D01*
X38043Y80146D01*
X38091Y80164D01*
X38147Y80209D01*
X38209Y80245D01*
X38243Y80285D01*
X38283Y80317D01*
X38322Y80378D01*
X38369Y80432D01*
X38388Y80481D01*
X38416Y80524D01*
X38434Y80594D01*
X38461Y80660D01*
X38469Y80732D01*
X38477Y80763D01*
X38475Y80786D01*
X38479Y80827D01*
X38479Y81458D01*
X38690Y81669D01*
X38702Y81686D01*
X38718Y81698D01*
X38774Y81785D01*
X38834Y81869D01*
X38840Y81888D01*
X38851Y81905D01*
X38876Y82005D01*
X38906Y82104D01*
X38906Y82124D01*
X38911Y82143D01*
X38903Y82246D01*
X38900Y82350D01*
X38893Y82369D01*
X38891Y82389D01*
X38851Y82484D01*
X38815Y82581D01*
X38803Y82597D01*
X38795Y82615D01*
X38690Y82746D01*
X37089Y84348D01*
X37089Y87265D01*
X39151Y89327D01*
X39667Y89327D01*
X39687Y89330D01*
X39707Y89328D01*
X39808Y89350D01*
X39910Y89367D01*
X39928Y89376D01*
X39947Y89380D01*
X40036Y89433D01*
X40128Y89482D01*
X40141Y89496D01*
X40158Y89506D01*
X40226Y89585D01*
X40297Y89660D01*
X40305Y89678D01*
X40318Y89693D01*
X40357Y89789D01*
X40401Y89883D01*
X40403Y89903D01*
X40410Y89921D01*
X40429Y90088D01*
X40429Y91561D01*
X40425Y91581D01*
X40428Y91600D01*
X40406Y91702D01*
X40389Y91804D01*
X40380Y91821D01*
X40375Y91841D01*
X40322Y91930D01*
X40274Y92021D01*
X40259Y92035D01*
X40249Y92052D01*
X40170Y92119D01*
X40095Y92190D01*
X40077Y92199D01*
X40062Y92212D01*
X39966Y92251D01*
X39872Y92294D01*
X39853Y92296D01*
X39834Y92304D01*
X39667Y92322D01*
X39246Y92322D01*
X37183Y94385D01*
X37183Y97301D01*
X39246Y99364D01*
X39422Y99364D01*
X39442Y99367D01*
X39462Y99365D01*
X39563Y99387D01*
X39665Y99403D01*
X39683Y99413D01*
X39702Y99417D01*
X39791Y99470D01*
X39882Y99518D01*
X39896Y99533D01*
X39913Y99543D01*
X39981Y99622D01*
X40052Y99697D01*
X40060Y99715D01*
X40073Y99730D01*
X40112Y99826D01*
X40155Y99920D01*
X40158Y99940D01*
X40165Y99958D01*
X40183Y100125D01*
X40183Y102474D01*
X40212Y102502D01*
X40224Y102518D01*
X40239Y102531D01*
X40295Y102618D01*
X40356Y102702D01*
X40362Y102721D01*
X40372Y102738D01*
X40398Y102838D01*
X40428Y102937D01*
X40428Y102957D01*
X40432Y102976D01*
X40424Y103079D01*
X40422Y103183D01*
X40415Y103202D01*
X40413Y103222D01*
X40373Y103316D01*
X40337Y103414D01*
X40325Y103430D01*
X40317Y103448D01*
X40212Y103579D01*
X38554Y105237D01*
X38554Y108154D01*
X39072Y108672D01*
X39084Y108688D01*
X39099Y108700D01*
X39130Y108748D01*
X39139Y108758D01*
X39147Y108775D01*
X39155Y108788D01*
X39216Y108871D01*
X39221Y108890D01*
X39232Y108907D01*
X39258Y109008D01*
X39288Y109106D01*
X39287Y109126D01*
X39292Y109146D01*
X39284Y109249D01*
X39282Y109352D01*
X39275Y109371D01*
X39273Y109391D01*
X39233Y109486D01*
X39197Y109583D01*
X39185Y109599D01*
X39177Y109617D01*
X39072Y109748D01*
X38109Y110711D01*
X38093Y110723D01*
X38081Y110738D01*
X37993Y110794D01*
X37910Y110855D01*
X37891Y110860D01*
X37874Y110871D01*
X37773Y110897D01*
X37674Y110927D01*
X37654Y110926D01*
X37635Y110931D01*
X37532Y110923D01*
X37429Y110921D01*
X37410Y110914D01*
X37390Y110912D01*
X37295Y110872D01*
X37198Y110836D01*
X37182Y110824D01*
X37164Y110816D01*
X37033Y110711D01*
X36966Y110644D01*
X28973Y110644D01*
X27049Y112569D01*
X27049Y119161D01*
X28973Y121086D01*
X35515Y121086D01*
X35592Y121098D01*
X35670Y121102D01*
X35713Y121118D01*
X35757Y121125D01*
X35827Y121162D01*
X35900Y121190D01*
X35948Y121227D01*
X35975Y121240D01*
X35993Y121260D01*
X36034Y121291D01*
X36613Y121832D01*
X36677Y121914D01*
X36745Y121993D01*
X36752Y122011D01*
X36764Y122026D01*
X36798Y122124D01*
X36837Y122221D01*
X36839Y122245D01*
X36844Y122259D01*
X36844Y122291D01*
X36855Y122388D01*
X36855Y123339D01*
X39108Y125592D01*
X39137Y125597D01*
X39200Y125630D01*
X39268Y125655D01*
X39308Y125688D01*
X39354Y125712D01*
X39404Y125764D01*
X39460Y125809D01*
X39488Y125852D01*
X39524Y125890D01*
X39554Y125955D01*
X39593Y126016D01*
X39605Y126066D01*
X39627Y126113D01*
X39635Y126185D01*
X39653Y126254D01*
X39649Y126306D01*
X39654Y126358D01*
X39639Y126428D01*
X39634Y126499D01*
X39613Y126547D01*
X39602Y126598D01*
X39565Y126660D01*
X39537Y126726D01*
X39493Y126782D01*
X39476Y126809D01*
X39458Y126824D01*
X39432Y126857D01*
X38644Y127645D01*
X38627Y127657D01*
X38615Y127673D01*
X38528Y127729D01*
X38444Y127789D01*
X38425Y127795D01*
X38408Y127806D01*
X38308Y127831D01*
X38209Y127861D01*
X38189Y127861D01*
X38170Y127866D01*
X38067Y127858D01*
X37963Y127855D01*
X37944Y127848D01*
X37924Y127847D01*
X37829Y127806D01*
X37732Y127771D01*
X37716Y127758D01*
X37698Y127750D01*
X37567Y127645D01*
X36966Y127044D01*
X28973Y127044D01*
X26896Y129121D01*
X26894Y129125D01*
X26880Y129139D01*
X26869Y129156D01*
X26791Y129224D01*
X26716Y129295D01*
X26698Y129303D01*
X26682Y129316D01*
X26586Y129355D01*
X26493Y129398D01*
X26473Y129401D01*
X26454Y129408D01*
X26288Y129427D01*
X25250Y129427D01*
X25160Y129412D01*
X25069Y129405D01*
X25039Y129392D01*
X25007Y129387D01*
X24927Y129344D01*
X24843Y129308D01*
X24811Y129283D01*
X24790Y129272D01*
X24768Y129248D01*
X24712Y129204D01*
X23759Y128251D01*
X18351Y128251D01*
X17398Y129204D01*
X17324Y129257D01*
X17255Y129316D01*
X17225Y129328D01*
X17198Y129347D01*
X17111Y129374D01*
X17027Y129408D01*
X16986Y129413D01*
X16963Y129419D01*
X16931Y129419D01*
X16860Y129427D01*
X15445Y129427D01*
X15355Y129412D01*
X15264Y129405D01*
X15234Y129392D01*
X15202Y129387D01*
X15122Y129344D01*
X15038Y129308D01*
X15005Y129283D01*
X14985Y129272D01*
X14963Y129248D01*
X14907Y129204D01*
X13846Y128143D01*
X8438Y128143D01*
X6871Y129710D01*
X6871Y134517D01*
X8438Y136084D01*
X12049Y136084D01*
X12068Y136087D01*
X12088Y136085D01*
X12189Y136107D01*
X12292Y136124D01*
X12309Y136133D01*
X12329Y136138D01*
X12418Y136191D01*
X12509Y136239D01*
X12523Y136254D01*
X12540Y136264D01*
X12607Y136342D01*
X12678Y136417D01*
X12687Y136435D01*
X12700Y136451D01*
X12738Y136547D01*
X12782Y136641D01*
X12784Y136660D01*
X12792Y136679D01*
X12810Y136846D01*
X12810Y140167D01*
X15028Y142385D01*
X17530Y142385D01*
X17601Y142396D01*
X17673Y142398D01*
X17722Y142416D01*
X17773Y142425D01*
X17836Y142458D01*
X17904Y142483D01*
X17944Y142515D01*
X17990Y142540D01*
X18040Y142592D01*
X18096Y142636D01*
X18124Y142680D01*
X18160Y142718D01*
X18190Y142783D01*
X18229Y142843D01*
X18241Y142894D01*
X18263Y142941D01*
X18271Y143012D01*
X18289Y143082D01*
X18285Y143134D01*
X18290Y143186D01*
X18275Y143256D01*
X18270Y143327D01*
X18249Y143375D01*
X18238Y143426D01*
X18201Y143487D01*
X18173Y143553D01*
X18129Y143609D01*
X18112Y143637D01*
X18094Y143652D01*
X18069Y143684D01*
X17149Y144604D01*
X16818Y145404D01*
X16756Y145504D01*
X16696Y145604D01*
X16691Y145608D01*
X16688Y145613D01*
X16597Y145688D01*
X16509Y145764D01*
X16503Y145766D01*
X16499Y145770D01*
X16390Y145812D01*
X16281Y145856D01*
X16273Y145857D01*
X16269Y145858D01*
X16251Y145859D01*
X16114Y145874D01*
X2911Y145874D01*
X2891Y145871D01*
X2871Y145873D01*
X2770Y145851D01*
X2668Y145835D01*
X2650Y145825D01*
X2631Y145821D01*
X2542Y145768D01*
X2451Y145720D01*
X2437Y145705D01*
X2420Y145695D01*
X2352Y145616D01*
X2281Y145541D01*
X2273Y145523D01*
X2260Y145508D01*
X2221Y145412D01*
X2178Y145318D01*
X2175Y145298D01*
X2168Y145280D01*
X2149Y145113D01*
X2149Y124911D01*
X2168Y124797D01*
X2185Y124681D01*
X2188Y124675D01*
X2189Y124669D01*
X2244Y124566D01*
X2297Y124461D01*
X2301Y124457D01*
X2304Y124451D01*
X2389Y124371D01*
X2472Y124289D01*
X2479Y124285D01*
X2483Y124282D01*
X2499Y124274D01*
X2619Y124208D01*
X3602Y123801D01*
X5388Y122015D01*
X6355Y119681D01*
X6355Y117154D01*
X5388Y114820D01*
X3602Y113034D01*
X2967Y112771D01*
X2906Y112733D01*
X2841Y112704D01*
X2802Y112669D01*
X2758Y112641D01*
X2712Y112586D01*
X2660Y112537D01*
X2634Y112492D01*
X2601Y112452D01*
X2575Y112385D01*
X2541Y112322D01*
X2532Y112271D01*
X2513Y112222D01*
X2510Y112150D01*
X2497Y112080D01*
X2505Y112028D01*
X2503Y111976D01*
X2523Y111907D01*
X2533Y111836D01*
X2557Y111790D01*
X2571Y111740D01*
X2612Y111681D01*
X2645Y111617D01*
X2682Y111581D01*
X2711Y111538D01*
X2769Y111495D01*
X2820Y111445D01*
X2883Y111411D01*
X2909Y111391D01*
X2931Y111384D01*
X2967Y111364D01*
X3602Y111101D01*
X5388Y109315D01*
X6355Y106981D01*
X6355Y104454D01*
X5388Y102120D01*
X3602Y100334D01*
X2967Y100071D01*
X2906Y100033D01*
X2841Y100004D01*
X2802Y99969D01*
X2758Y99941D01*
X2712Y99886D01*
X2660Y99837D01*
X2634Y99792D01*
X2601Y99752D01*
X2575Y99685D01*
X2541Y99622D01*
X2532Y99571D01*
X2513Y99522D01*
X2510Y99450D01*
X2497Y99380D01*
X2505Y99328D01*
X2503Y99276D01*
X2523Y99207D01*
X2533Y99136D01*
X2557Y99090D01*
X2571Y99040D01*
X2612Y98981D01*
X2645Y98917D01*
X2682Y98881D01*
X2711Y98838D01*
X2769Y98795D01*
X2820Y98745D01*
X2883Y98711D01*
X2909Y98691D01*
X2931Y98684D01*
X2967Y98664D01*
X3602Y98401D01*
X5356Y96647D01*
X5414Y96605D01*
X5466Y96556D01*
X5513Y96534D01*
X5556Y96503D01*
X5624Y96482D01*
X5689Y96452D01*
X5741Y96446D01*
X5791Y96431D01*
X5863Y96433D01*
X5934Y96425D01*
X5985Y96436D01*
X6037Y96437D01*
X6104Y96462D01*
X6174Y96477D01*
X6219Y96504D01*
X6268Y96522D01*
X6324Y96567D01*
X6385Y96603D01*
X6419Y96643D01*
X6460Y96676D01*
X6498Y96736D01*
X6545Y96790D01*
X6565Y96839D01*
X6593Y96882D01*
X6610Y96952D01*
X6637Y97018D01*
X6645Y97090D01*
X6653Y97121D01*
X6651Y97144D01*
X6656Y97185D01*
X6656Y99268D01*
X8864Y101477D01*
X16988Y101477D01*
X19197Y99268D01*
X19197Y87662D01*
X19200Y87642D01*
X19198Y87623D01*
X19220Y87521D01*
X19237Y87419D01*
X19246Y87402D01*
X19250Y87382D01*
X19303Y87293D01*
X19352Y87202D01*
X19366Y87188D01*
X19376Y87171D01*
X19455Y87104D01*
X19530Y87033D01*
X19548Y87024D01*
X19563Y87011D01*
X19660Y86972D01*
X19753Y86929D01*
X19773Y86927D01*
X19792Y86919D01*
X19958Y86901D01*
X21229Y86901D01*
X21319Y86916D01*
X21410Y86923D01*
X21440Y86935D01*
X21472Y86941D01*
X21552Y86983D01*
X21636Y87019D01*
X21668Y87045D01*
X21689Y87056D01*
X21711Y87079D01*
X21767Y87124D01*
X22028Y87385D01*
X25165Y87385D01*
X27383Y85167D01*
X27383Y82377D01*
X27387Y82358D01*
X27385Y82338D01*
X27407Y82237D01*
X27423Y82135D01*
X27433Y82117D01*
X27437Y82097D01*
X27490Y82008D01*
X27538Y81917D01*
X27553Y81903D01*
X27563Y81886D01*
X27642Y81819D01*
X27717Y81748D01*
X27735Y81739D01*
X27750Y81726D01*
X27846Y81688D01*
X27940Y81644D01*
X27959Y81642D01*
X27978Y81635D01*
X28145Y81616D01*
X35852Y81616D01*
X37180Y80289D01*
X37238Y80247D01*
X37290Y80198D01*
X37337Y80176D01*
X37379Y80145D01*
X37448Y80124D01*
X37513Y80094D01*
X37565Y80088D01*
X37615Y80073D01*
X37686Y80075D01*
X37757Y80067D01*
X37808Y80078D01*
G37*
G36*
X168584Y40736D02*
X168584Y40736D01*
X168687Y40738D01*
X168706Y40745D01*
X168726Y40746D01*
X168821Y40786D01*
X168919Y40821D01*
X168934Y40833D01*
X168953Y40841D01*
X169084Y40945D01*
X170440Y42282D01*
X175311Y42248D01*
X175751Y41802D01*
X175826Y41746D01*
X175898Y41685D01*
X175925Y41674D01*
X175949Y41657D01*
X176039Y41628D01*
X176126Y41593D01*
X176163Y41589D01*
X176184Y41583D01*
X176217Y41583D01*
X176293Y41575D01*
X181684Y41575D01*
X181704Y41578D01*
X181724Y41576D01*
X181825Y41598D01*
X181927Y41615D01*
X181945Y41624D01*
X181964Y41628D01*
X182053Y41681D01*
X182144Y41730D01*
X182158Y41744D01*
X182175Y41754D01*
X182243Y41833D01*
X182314Y41908D01*
X182322Y41926D01*
X182335Y41941D01*
X182374Y42037D01*
X182417Y42131D01*
X182420Y42151D01*
X182427Y42169D01*
X182446Y42336D01*
X182446Y98442D01*
X182434Y98512D01*
X182432Y98584D01*
X182414Y98633D01*
X182406Y98684D01*
X182372Y98748D01*
X182348Y98815D01*
X182315Y98856D01*
X182291Y98902D01*
X182239Y98951D01*
X182194Y99007D01*
X182150Y99035D01*
X182112Y99071D01*
X182047Y99101D01*
X181987Y99140D01*
X181936Y99153D01*
X181889Y99175D01*
X181818Y99183D01*
X181748Y99200D01*
X181697Y99196D01*
X181645Y99202D01*
X181575Y99187D01*
X181503Y99181D01*
X181455Y99161D01*
X181404Y99150D01*
X181343Y99113D01*
X181277Y99085D01*
X181221Y99040D01*
X181193Y99023D01*
X181178Y99006D01*
X181146Y98980D01*
X179950Y97784D01*
X173338Y97784D01*
X173248Y97770D01*
X173157Y97763D01*
X173128Y97750D01*
X173096Y97745D01*
X173015Y97702D01*
X172931Y97666D01*
X172899Y97641D01*
X172878Y97630D01*
X172863Y97613D01*
X172861Y97612D01*
X172852Y97603D01*
X172800Y97561D01*
X169475Y94236D01*
X169422Y94162D01*
X169362Y94093D01*
X169350Y94063D01*
X169331Y94036D01*
X169304Y93949D01*
X169270Y93865D01*
X169266Y93824D01*
X169259Y93801D01*
X169260Y93769D01*
X169252Y93698D01*
X169252Y90213D01*
X167685Y88646D01*
X162277Y88646D01*
X160600Y90323D01*
X160580Y90348D01*
X160556Y90395D01*
X160504Y90444D01*
X160460Y90500D01*
X160415Y90528D01*
X160377Y90564D01*
X160313Y90594D01*
X160253Y90633D01*
X160202Y90646D01*
X160154Y90668D01*
X160084Y90676D01*
X160015Y90693D01*
X159962Y90689D01*
X159910Y90695D01*
X159840Y90680D01*
X159769Y90675D01*
X159721Y90654D01*
X159669Y90643D01*
X159608Y90606D01*
X159543Y90579D01*
X159486Y90533D01*
X159458Y90517D01*
X159443Y90499D01*
X159412Y90474D01*
X157671Y88740D01*
X152263Y88749D01*
X150901Y90117D01*
X150826Y90170D01*
X150756Y90230D01*
X150727Y90242D01*
X150701Y90261D01*
X150614Y90288D01*
X150528Y90322D01*
X150488Y90327D01*
X150466Y90333D01*
X150434Y90333D01*
X150361Y90341D01*
X141331Y90341D01*
X141311Y90337D01*
X141291Y90340D01*
X141190Y90318D01*
X141088Y90301D01*
X141070Y90292D01*
X141051Y90287D01*
X140962Y90234D01*
X140870Y90186D01*
X140857Y90171D01*
X140840Y90161D01*
X140772Y90082D01*
X140701Y90007D01*
X140693Y89989D01*
X140680Y89974D01*
X140641Y89878D01*
X140597Y89784D01*
X140595Y89765D01*
X140588Y89746D01*
X140569Y89579D01*
X140569Y88847D01*
X139825Y88103D01*
X127772Y88103D01*
X127028Y88847D01*
X127028Y89259D01*
X127025Y89279D01*
X127027Y89299D01*
X127005Y89400D01*
X126988Y89502D01*
X126979Y89520D01*
X126975Y89539D01*
X126921Y89628D01*
X126873Y89719D01*
X126859Y89733D01*
X126848Y89750D01*
X126770Y89818D01*
X126695Y89889D01*
X126677Y89897D01*
X126661Y89910D01*
X126565Y89949D01*
X126472Y89992D01*
X126452Y89995D01*
X126433Y90002D01*
X126267Y90021D01*
X125788Y90021D01*
X125044Y90765D01*
X124986Y90807D01*
X124934Y90856D01*
X124887Y90878D01*
X124844Y90908D01*
X124776Y90929D01*
X124711Y90960D01*
X124659Y90965D01*
X124609Y90981D01*
X124538Y90979D01*
X124466Y90987D01*
X124416Y90976D01*
X124363Y90974D01*
X124296Y90950D01*
X124226Y90935D01*
X124181Y90908D01*
X124132Y90890D01*
X124076Y90845D01*
X124015Y90808D01*
X123981Y90769D01*
X123940Y90736D01*
X123902Y90676D01*
X123855Y90621D01*
X123836Y90573D01*
X123807Y90529D01*
X123790Y90460D01*
X123763Y90393D01*
X123755Y90322D01*
X123747Y90291D01*
X123749Y90267D01*
X123745Y90227D01*
X123745Y86765D01*
X123509Y86529D01*
X123498Y86513D01*
X123482Y86501D01*
X123426Y86413D01*
X123366Y86329D01*
X123360Y86310D01*
X123349Y86294D01*
X123324Y86193D01*
X123293Y86094D01*
X123294Y86074D01*
X123289Y86055D01*
X123297Y85952D01*
X123300Y85848D01*
X123307Y85830D01*
X123308Y85810D01*
X123348Y85715D01*
X123384Y85617D01*
X123397Y85602D01*
X123404Y85584D01*
X123509Y85453D01*
X123745Y85217D01*
X123745Y81765D01*
X123509Y81529D01*
X123498Y81513D01*
X123482Y81501D01*
X123451Y81452D01*
X123447Y81448D01*
X123444Y81441D01*
X123426Y81413D01*
X123366Y81329D01*
X123360Y81310D01*
X123349Y81294D01*
X123324Y81193D01*
X123293Y81094D01*
X123294Y81074D01*
X123289Y81055D01*
X123297Y80952D01*
X123300Y80848D01*
X123307Y80830D01*
X123308Y80810D01*
X123348Y80715D01*
X123384Y80617D01*
X123397Y80602D01*
X123404Y80584D01*
X123509Y80453D01*
X123745Y80217D01*
X123745Y76765D01*
X123509Y76529D01*
X123498Y76513D01*
X123482Y76501D01*
X123426Y76413D01*
X123366Y76329D01*
X123360Y76310D01*
X123349Y76294D01*
X123324Y76193D01*
X123293Y76094D01*
X123294Y76074D01*
X123289Y76055D01*
X123297Y75952D01*
X123300Y75848D01*
X123307Y75830D01*
X123308Y75810D01*
X123348Y75715D01*
X123384Y75617D01*
X123397Y75602D01*
X123404Y75584D01*
X123509Y75453D01*
X123745Y75217D01*
X123745Y71765D01*
X123509Y71529D01*
X123498Y71513D01*
X123482Y71501D01*
X123426Y71413D01*
X123366Y71329D01*
X123360Y71310D01*
X123349Y71294D01*
X123324Y71193D01*
X123293Y71094D01*
X123294Y71074D01*
X123289Y71055D01*
X123297Y70952D01*
X123300Y70848D01*
X123307Y70830D01*
X123308Y70810D01*
X123348Y70715D01*
X123384Y70617D01*
X123397Y70602D01*
X123404Y70584D01*
X123509Y70453D01*
X123745Y70217D01*
X123745Y67042D01*
X123747Y67025D01*
X123745Y67009D01*
X123767Y66904D01*
X123784Y66799D01*
X123792Y66784D01*
X123795Y66768D01*
X123849Y66676D01*
X123899Y66582D01*
X123911Y66570D01*
X123920Y66556D01*
X124000Y66486D01*
X124078Y66412D01*
X124093Y66405D01*
X124105Y66394D01*
X124204Y66354D01*
X124301Y66309D01*
X124317Y66307D01*
X124333Y66301D01*
X124499Y66281D01*
X124596Y66280D01*
X124598Y66280D01*
X124602Y66280D01*
X125959Y66278D01*
X125971Y66274D01*
X126003Y66275D01*
X126069Y66267D01*
X128603Y66246D01*
X128696Y66260D01*
X128791Y66268D01*
X128817Y66279D01*
X128846Y66283D01*
X128930Y66327D01*
X129017Y66364D01*
X129045Y66387D01*
X129064Y66397D01*
X129087Y66420D01*
X129148Y66469D01*
X131160Y68481D01*
X131214Y68555D01*
X131273Y68625D01*
X131285Y68655D01*
X131304Y68681D01*
X131331Y68768D01*
X131365Y68853D01*
X131369Y68894D01*
X131376Y68916D01*
X131375Y68948D01*
X131383Y69020D01*
X131383Y71458D01*
X131858Y71933D01*
X131909Y72004D01*
X131967Y72071D01*
X131981Y72104D01*
X132001Y72132D01*
X132027Y72217D01*
X132061Y72298D01*
X132066Y72344D01*
X132074Y72368D01*
X132073Y72399D01*
X132081Y72465D01*
X132103Y75255D01*
X132088Y75349D01*
X132081Y75443D01*
X132069Y75470D01*
X132065Y75499D01*
X132022Y75582D01*
X131985Y75669D01*
X131962Y75698D01*
X131952Y75717D01*
X131928Y75740D01*
X131880Y75800D01*
X131464Y76216D01*
X131464Y81687D01*
X132999Y83222D01*
X137870Y83222D01*
X139406Y81687D01*
X139406Y76216D01*
X138931Y75741D01*
X138880Y75669D01*
X138822Y75603D01*
X138808Y75570D01*
X138788Y75541D01*
X138762Y75457D01*
X138728Y75375D01*
X138723Y75330D01*
X138715Y75306D01*
X138716Y75275D01*
X138708Y75209D01*
X138686Y72418D01*
X138701Y72325D01*
X138708Y72231D01*
X138719Y72204D01*
X138724Y72175D01*
X138767Y72091D01*
X138804Y72005D01*
X138827Y71976D01*
X138837Y71957D01*
X138861Y71934D01*
X138909Y71874D01*
X139136Y71647D01*
X139152Y71636D01*
X139164Y71620D01*
X139252Y71564D01*
X139336Y71504D01*
X139354Y71498D01*
X139371Y71487D01*
X139472Y71462D01*
X139571Y71431D01*
X139591Y71432D01*
X139610Y71427D01*
X139713Y71435D01*
X139817Y71438D01*
X139835Y71445D01*
X139855Y71446D01*
X139950Y71486D01*
X140048Y71522D01*
X140063Y71535D01*
X140081Y71542D01*
X140212Y71647D01*
X141559Y72993D01*
X146430Y72993D01*
X147232Y72191D01*
X147301Y72141D01*
X147366Y72084D01*
X147401Y72070D01*
X147432Y72047D01*
X147513Y72022D01*
X147592Y71989D01*
X147641Y71983D01*
X147667Y71975D01*
X147697Y71976D01*
X147759Y71968D01*
X150092Y71932D01*
X150188Y71946D01*
X150285Y71954D01*
X150309Y71964D01*
X150336Y71968D01*
X150422Y72012D01*
X150511Y72050D01*
X150537Y72071D01*
X150555Y72080D01*
X150578Y72103D01*
X150642Y72155D01*
X151331Y72843D01*
X156202Y72843D01*
X157548Y71497D01*
X157564Y71486D01*
X157576Y71470D01*
X157664Y71414D01*
X157748Y71354D01*
X157767Y71348D01*
X157783Y71337D01*
X157884Y71312D01*
X157983Y71281D01*
X158003Y71282D01*
X158022Y71277D01*
X158125Y71285D01*
X158229Y71288D01*
X158247Y71294D01*
X158267Y71296D01*
X158362Y71336D01*
X158460Y71372D01*
X158475Y71385D01*
X158493Y71392D01*
X158624Y71497D01*
X158868Y71741D01*
X158920Y71814D01*
X158979Y71882D01*
X158992Y71913D01*
X159011Y71940D01*
X159038Y72026D01*
X159072Y72109D01*
X159077Y72152D01*
X159084Y72175D01*
X159083Y72207D01*
X159091Y72276D01*
X159101Y75215D01*
X159087Y75307D01*
X159080Y75399D01*
X159067Y75428D01*
X159063Y75458D01*
X159019Y75541D01*
X158983Y75625D01*
X158959Y75656D01*
X158948Y75676D01*
X158925Y75699D01*
X158878Y75756D01*
X158447Y76188D01*
X158447Y81659D01*
X159982Y83194D01*
X164853Y83194D01*
X166388Y81659D01*
X166388Y76188D01*
X165930Y75730D01*
X165877Y75657D01*
X165819Y75589D01*
X165806Y75557D01*
X165786Y75530D01*
X165760Y75444D01*
X165726Y75361D01*
X165721Y75318D01*
X165714Y75295D01*
X165715Y75263D01*
X165707Y75194D01*
X165698Y72622D01*
X165699Y72611D01*
X165699Y72607D01*
X165700Y72599D01*
X165698Y72583D01*
X165720Y72481D01*
X165736Y72379D01*
X165746Y72361D01*
X165750Y72342D01*
X165802Y72253D01*
X165851Y72161D01*
X165865Y72147D01*
X165875Y72131D01*
X165954Y72063D01*
X166029Y71991D01*
X166046Y71983D01*
X166061Y71970D01*
X166158Y71931D01*
X166251Y71887D01*
X166271Y71884D01*
X166289Y71877D01*
X166456Y71858D01*
X169582Y71844D01*
X169674Y71859D01*
X169767Y71866D01*
X169795Y71878D01*
X169825Y71883D01*
X169907Y71926D01*
X169986Y71959D01*
X175487Y71959D01*
X177022Y70424D01*
X177022Y65553D01*
X175676Y64207D01*
X175665Y64191D01*
X175649Y64178D01*
X175593Y64091D01*
X175533Y64007D01*
X175527Y63988D01*
X175516Y63971D01*
X175491Y63871D01*
X175460Y63772D01*
X175461Y63752D01*
X175456Y63733D01*
X175464Y63630D01*
X175467Y63526D01*
X175474Y63507D01*
X175475Y63488D01*
X175516Y63393D01*
X175551Y63295D01*
X175564Y63280D01*
X175571Y63261D01*
X175676Y63130D01*
X177022Y61784D01*
X177022Y56913D01*
X176255Y56146D01*
X176203Y56073D01*
X176145Y56006D01*
X176132Y55974D01*
X176111Y55946D01*
X176085Y55861D01*
X176051Y55779D01*
X176046Y55734D01*
X176039Y55711D01*
X176040Y55679D01*
X176032Y55612D01*
X176013Y52537D01*
X176028Y52445D01*
X176035Y52352D01*
X176047Y52324D01*
X176052Y52294D01*
X176095Y52211D01*
X176131Y52125D01*
X176155Y52096D01*
X176165Y52076D01*
X176189Y52054D01*
X176236Y51994D01*
X176659Y51572D01*
X176659Y46101D01*
X175124Y44565D01*
X170253Y44565D01*
X168907Y45912D01*
X168890Y45923D01*
X168878Y45939D01*
X168791Y45995D01*
X168707Y46055D01*
X168688Y46061D01*
X168671Y46072D01*
X168571Y46097D01*
X168472Y46128D01*
X168452Y46127D01*
X168433Y46132D01*
X168329Y46124D01*
X168226Y46121D01*
X168207Y46114D01*
X168187Y46113D01*
X168092Y46072D01*
X167995Y46037D01*
X167979Y46024D01*
X167961Y46017D01*
X167830Y45912D01*
X167628Y45710D01*
X167571Y45631D01*
X167510Y45557D01*
X167500Y45532D01*
X167484Y45510D01*
X167456Y45417D01*
X167421Y45327D01*
X167418Y45294D01*
X167412Y45275D01*
X167413Y45242D01*
X167405Y45160D01*
X167426Y43734D01*
X167454Y41815D01*
X167469Y41733D01*
X167474Y41650D01*
X167490Y41613D01*
X167497Y41573D01*
X167537Y41500D01*
X167569Y41423D01*
X167602Y41382D01*
X167615Y41357D01*
X167637Y41337D01*
X167673Y41292D01*
X168008Y40952D01*
X168024Y40941D01*
X168036Y40925D01*
X168123Y40868D01*
X168207Y40807D01*
X168226Y40801D01*
X168242Y40790D01*
X168342Y40764D01*
X168441Y40733D01*
X168461Y40734D01*
X168480Y40729D01*
X168584Y40736D01*
G37*
G36*
X168361Y104929D02*
X168361Y104929D01*
X168413Y104931D01*
X168480Y104955D01*
X168551Y104971D01*
X168595Y104997D01*
X168644Y105015D01*
X168700Y105060D01*
X168762Y105097D01*
X168796Y105136D01*
X168836Y105169D01*
X168875Y105229D01*
X168922Y105284D01*
X168941Y105332D01*
X168969Y105376D01*
X168987Y105445D01*
X169014Y105512D01*
X169021Y105583D01*
X169029Y105614D01*
X169028Y105638D01*
X169032Y105679D01*
X169032Y108703D01*
X170655Y110326D01*
X179950Y110326D01*
X181146Y109130D01*
X181204Y109089D01*
X181256Y109039D01*
X181304Y109017D01*
X181346Y108987D01*
X181414Y108966D01*
X181479Y108936D01*
X181531Y108930D01*
X181581Y108915D01*
X181653Y108916D01*
X181724Y108908D01*
X181775Y108920D01*
X181827Y108921D01*
X181894Y108946D01*
X181964Y108961D01*
X182009Y108987D01*
X182058Y109005D01*
X182114Y109050D01*
X182175Y109087D01*
X182209Y109126D01*
X182250Y109159D01*
X182288Y109219D01*
X182335Y109274D01*
X182355Y109322D01*
X182383Y109366D01*
X182400Y109435D01*
X182427Y109502D01*
X182435Y109573D01*
X182443Y109604D01*
X182441Y109628D01*
X182446Y109669D01*
X182446Y145113D01*
X182442Y145133D01*
X182444Y145153D01*
X182422Y145254D01*
X182406Y145356D01*
X182396Y145373D01*
X182392Y145393D01*
X182339Y145482D01*
X182291Y145573D01*
X182276Y145587D01*
X182266Y145604D01*
X182187Y145671D01*
X182112Y145743D01*
X182094Y145751D01*
X182079Y145764D01*
X181983Y145803D01*
X181889Y145846D01*
X181870Y145848D01*
X181851Y145856D01*
X181684Y145874D01*
X173455Y145874D01*
X173383Y145863D01*
X173311Y145861D01*
X173263Y145843D01*
X173212Y145835D01*
X173148Y145801D01*
X173080Y145776D01*
X173040Y145744D01*
X172994Y145720D01*
X172945Y145667D01*
X172888Y145622D01*
X172861Y145579D01*
X172825Y145541D01*
X172795Y145476D01*
X172756Y145415D01*
X172743Y145365D01*
X172721Y145318D01*
X172713Y145246D01*
X172696Y145176D01*
X172700Y145125D01*
X172694Y145074D01*
X172705Y145025D01*
X172705Y142485D01*
X172720Y142395D01*
X172727Y142304D01*
X172739Y142274D01*
X172745Y142242D01*
X172787Y142162D01*
X172823Y142078D01*
X172849Y142046D01*
X172860Y142025D01*
X172883Y142003D01*
X172928Y141947D01*
X173131Y141744D01*
X173205Y141691D01*
X173274Y141631D01*
X173305Y141619D01*
X173331Y141600D01*
X173418Y141573D01*
X173503Y141539D01*
X173544Y141535D01*
X173566Y141528D01*
X173598Y141529D01*
X173669Y141521D01*
X175458Y141521D01*
X177521Y139458D01*
X177521Y136542D01*
X175458Y134479D01*
X173466Y134479D01*
X173446Y134476D01*
X173427Y134478D01*
X173325Y134456D01*
X173223Y134440D01*
X173206Y134430D01*
X173186Y134426D01*
X173097Y134373D01*
X173006Y134324D01*
X172992Y134310D01*
X172975Y134300D01*
X172908Y134221D01*
X172837Y134146D01*
X172828Y134128D01*
X172815Y134113D01*
X172776Y134017D01*
X172733Y133923D01*
X172731Y133903D01*
X172723Y133885D01*
X172705Y133718D01*
X172705Y133282D01*
X172708Y133262D01*
X172706Y133243D01*
X172728Y133141D01*
X172745Y133039D01*
X172754Y133022D01*
X172758Y133002D01*
X172811Y132913D01*
X172860Y132822D01*
X172874Y132808D01*
X172884Y132791D01*
X172963Y132724D01*
X173038Y132652D01*
X173056Y132644D01*
X173071Y132631D01*
X173167Y132592D01*
X173261Y132549D01*
X173281Y132547D01*
X173299Y132539D01*
X173466Y132521D01*
X175458Y132521D01*
X177521Y130458D01*
X177521Y127542D01*
X175458Y125479D01*
X173403Y125479D01*
X173383Y125476D01*
X173364Y125478D01*
X173262Y125456D01*
X173160Y125440D01*
X173143Y125430D01*
X173123Y125426D01*
X173034Y125373D01*
X172943Y125324D01*
X172929Y125310D01*
X172912Y125300D01*
X172845Y125221D01*
X172774Y125146D01*
X172765Y125128D01*
X172752Y125113D01*
X172713Y125017D01*
X172670Y124923D01*
X172668Y124903D01*
X172660Y124885D01*
X172642Y124718D01*
X172642Y122194D01*
X171284Y120836D01*
X171272Y120820D01*
X171257Y120808D01*
X171201Y120720D01*
X171140Y120636D01*
X171135Y120617D01*
X171124Y120601D01*
X171099Y120500D01*
X171068Y120401D01*
X171069Y120381D01*
X171064Y120362D01*
X171072Y120259D01*
X171074Y120155D01*
X171081Y120137D01*
X171083Y120117D01*
X171123Y120022D01*
X171159Y119924D01*
X171171Y119909D01*
X171179Y119891D01*
X171284Y119760D01*
X172642Y118402D01*
X172642Y113594D01*
X171075Y112027D01*
X165667Y112027D01*
X164100Y113594D01*
X164100Y117079D01*
X164086Y117169D01*
X164079Y117260D01*
X164066Y117289D01*
X164061Y117321D01*
X164018Y117402D01*
X163982Y117486D01*
X163957Y117518D01*
X163946Y117539D01*
X163922Y117561D01*
X163877Y117617D01*
X159896Y121599D01*
X159822Y121652D01*
X159752Y121711D01*
X159722Y121723D01*
X159696Y121742D01*
X159609Y121769D01*
X159524Y121803D01*
X159483Y121808D01*
X159461Y121815D01*
X159429Y121814D01*
X159357Y121822D01*
X154282Y121822D01*
X154262Y121818D01*
X154243Y121821D01*
X154141Y121799D01*
X154039Y121782D01*
X154022Y121773D01*
X154002Y121768D01*
X153913Y121715D01*
X153822Y121667D01*
X153808Y121652D01*
X153791Y121642D01*
X153724Y121563D01*
X153652Y121488D01*
X153644Y121470D01*
X153631Y121455D01*
X153592Y121359D01*
X153549Y121265D01*
X153547Y121246D01*
X153539Y121227D01*
X153521Y121060D01*
X153521Y115612D01*
X153524Y115592D01*
X153522Y115573D01*
X153544Y115471D01*
X153560Y115369D01*
X153570Y115352D01*
X153574Y115332D01*
X153627Y115243D01*
X153676Y115152D01*
X153690Y115138D01*
X153700Y115121D01*
X153779Y115054D01*
X153854Y114982D01*
X153872Y114974D01*
X153887Y114961D01*
X153983Y114922D01*
X154077Y114879D01*
X154097Y114877D01*
X154115Y114869D01*
X154282Y114851D01*
X158222Y114851D01*
X167014Y106059D01*
X167014Y105949D01*
X167017Y105929D01*
X167015Y105910D01*
X167037Y105808D01*
X167054Y105706D01*
X167063Y105689D01*
X167067Y105669D01*
X167120Y105580D01*
X167169Y105489D01*
X167183Y105475D01*
X167193Y105458D01*
X167272Y105391D01*
X167347Y105320D01*
X167365Y105311D01*
X167380Y105298D01*
X167476Y105260D01*
X167570Y105216D01*
X167590Y105214D01*
X167608Y105206D01*
X167674Y105199D01*
X167732Y105140D01*
X167791Y105099D01*
X167843Y105049D01*
X167890Y105027D01*
X167932Y104997D01*
X168001Y104976D01*
X168066Y104946D01*
X168117Y104940D01*
X168167Y104924D01*
X168239Y104926D01*
X168310Y104918D01*
X168361Y104929D01*
G37*
G36*
X93738Y130155D02*
X93738Y130155D01*
X93757Y130153D01*
X93859Y130175D01*
X93961Y130192D01*
X93978Y130201D01*
X93998Y130205D01*
X94087Y130259D01*
X94178Y130307D01*
X94192Y130321D01*
X94209Y130332D01*
X94276Y130410D01*
X94348Y130485D01*
X94356Y130503D01*
X94369Y130518D01*
X94408Y130615D01*
X94451Y130708D01*
X94453Y130728D01*
X94461Y130747D01*
X94479Y130913D01*
X94479Y131458D01*
X96542Y133521D01*
X99458Y133521D01*
X101521Y131458D01*
X101521Y131282D01*
X101524Y131262D01*
X101522Y131243D01*
X101544Y131141D01*
X101560Y131039D01*
X101570Y131022D01*
X101574Y131002D01*
X101627Y130913D01*
X101676Y130822D01*
X101690Y130808D01*
X101700Y130791D01*
X101779Y130724D01*
X101854Y130652D01*
X101872Y130644D01*
X101887Y130631D01*
X101983Y130592D01*
X102077Y130549D01*
X102097Y130547D01*
X102115Y130539D01*
X102282Y130521D01*
X103718Y130521D01*
X103738Y130524D01*
X103757Y130522D01*
X103859Y130544D01*
X103961Y130560D01*
X103978Y130570D01*
X103998Y130574D01*
X104087Y130627D01*
X104178Y130676D01*
X104192Y130690D01*
X104209Y130700D01*
X104276Y130779D01*
X104348Y130854D01*
X104356Y130872D01*
X104369Y130887D01*
X104408Y130983D01*
X104451Y131077D01*
X104453Y131097D01*
X104461Y131115D01*
X104479Y131282D01*
X104479Y131458D01*
X106542Y133521D01*
X109458Y133521D01*
X111371Y131608D01*
X111445Y131555D01*
X111515Y131495D01*
X111545Y131483D01*
X111571Y131464D01*
X111658Y131437D01*
X111743Y131403D01*
X111784Y131399D01*
X111806Y131392D01*
X111838Y131393D01*
X111910Y131385D01*
X115165Y131385D01*
X115667Y130883D01*
X115683Y130872D01*
X115695Y130856D01*
X115783Y130800D01*
X115867Y130740D01*
X115886Y130734D01*
X115902Y130723D01*
X116003Y130698D01*
X116102Y130667D01*
X116122Y130668D01*
X116141Y130663D01*
X116244Y130671D01*
X116347Y130674D01*
X116366Y130681D01*
X116386Y130682D01*
X116481Y130723D01*
X116579Y130758D01*
X116594Y130771D01*
X116612Y130778D01*
X116721Y130865D01*
X116722Y130866D01*
X116723Y130867D01*
X116743Y130883D01*
X116770Y130910D01*
X116823Y130984D01*
X116882Y131053D01*
X116894Y131083D01*
X116913Y131109D01*
X116940Y131196D01*
X116974Y131281D01*
X116979Y131322D01*
X116986Y131344D01*
X116985Y131377D01*
X116993Y131448D01*
X116993Y133855D01*
X118559Y135422D01*
X123967Y135422D01*
X125180Y134209D01*
X125238Y134167D01*
X125290Y134118D01*
X125337Y134096D01*
X125379Y134066D01*
X125448Y134045D01*
X125513Y134014D01*
X125565Y134009D01*
X125615Y133993D01*
X125686Y133995D01*
X125757Y133987D01*
X125808Y133998D01*
X125860Y134000D01*
X125928Y134024D01*
X125998Y134039D01*
X126043Y134066D01*
X126091Y134084D01*
X126147Y134129D01*
X126209Y134166D01*
X126243Y134205D01*
X126283Y134238D01*
X126322Y134298D01*
X126341Y134321D01*
X126983Y134962D01*
X126994Y134978D01*
X127010Y134990D01*
X127066Y135078D01*
X127126Y135161D01*
X127132Y135180D01*
X127143Y135197D01*
X127168Y135298D01*
X127199Y135397D01*
X127198Y135416D01*
X127203Y135436D01*
X127195Y135539D01*
X127192Y135642D01*
X127185Y135661D01*
X127184Y135681D01*
X127143Y135776D01*
X127108Y135873D01*
X127095Y135889D01*
X127087Y135907D01*
X126983Y136038D01*
X125479Y137542D01*
X125479Y140458D01*
X127542Y142521D01*
X129331Y142521D01*
X129421Y142535D01*
X129512Y142543D01*
X129541Y142555D01*
X129573Y142560D01*
X129654Y142603D01*
X129738Y142639D01*
X129770Y142665D01*
X129791Y142676D01*
X129813Y142699D01*
X129869Y142744D01*
X131700Y144575D01*
X131742Y144633D01*
X131791Y144685D01*
X131813Y144732D01*
X131844Y144775D01*
X131865Y144843D01*
X131895Y144908D01*
X131901Y144960D01*
X131916Y145010D01*
X131914Y145081D01*
X131922Y145153D01*
X131911Y145203D01*
X131910Y145255D01*
X131885Y145323D01*
X131870Y145393D01*
X131843Y145438D01*
X131825Y145487D01*
X131780Y145543D01*
X131744Y145604D01*
X131704Y145638D01*
X131671Y145679D01*
X131611Y145717D01*
X131557Y145764D01*
X131508Y145783D01*
X131465Y145812D01*
X131395Y145829D01*
X131329Y145856D01*
X131257Y145864D01*
X131226Y145872D01*
X131203Y145870D01*
X131162Y145874D01*
X105427Y145874D01*
X105356Y145863D01*
X105284Y145861D01*
X105236Y145843D01*
X105184Y145835D01*
X105121Y145801D01*
X105053Y145776D01*
X105013Y145744D01*
X104967Y145720D01*
X104917Y145668D01*
X104861Y145623D01*
X104833Y145579D01*
X104797Y145541D01*
X104767Y145476D01*
X104728Y145416D01*
X104716Y145365D01*
X104694Y145318D01*
X104686Y145247D01*
X104668Y145177D01*
X104672Y145125D01*
X104667Y145074D01*
X104682Y145003D01*
X104688Y144932D01*
X104708Y144884D01*
X104719Y144833D01*
X104756Y144772D01*
X104784Y144706D01*
X104829Y144650D01*
X104845Y144622D01*
X104863Y144607D01*
X104889Y144575D01*
X106035Y143428D01*
X106109Y143375D01*
X106179Y143315D01*
X106209Y143303D01*
X106235Y143284D01*
X106322Y143258D01*
X106407Y143223D01*
X106448Y143219D01*
X106470Y143212D01*
X106502Y143213D01*
X106574Y143205D01*
X106943Y143205D01*
X109161Y140987D01*
X109161Y137850D01*
X106943Y135632D01*
X103806Y135632D01*
X101588Y137850D01*
X101588Y138219D01*
X101573Y138309D01*
X101566Y138400D01*
X101553Y138430D01*
X101548Y138462D01*
X101505Y138542D01*
X101469Y138626D01*
X101444Y138659D01*
X101433Y138679D01*
X101409Y138701D01*
X101365Y138757D01*
X98495Y141627D01*
X98421Y141680D01*
X98351Y141740D01*
X98321Y141752D01*
X98295Y141771D01*
X98208Y141798D01*
X98123Y141832D01*
X98082Y141836D01*
X98060Y141843D01*
X98028Y141842D01*
X97956Y141850D01*
X97470Y141850D01*
X95136Y142817D01*
X93349Y144604D01*
X93087Y145238D01*
X93049Y145299D01*
X93020Y145364D01*
X92984Y145403D01*
X92957Y145447D01*
X92902Y145493D01*
X92853Y145546D01*
X92808Y145571D01*
X92767Y145604D01*
X92700Y145630D01*
X92638Y145664D01*
X92586Y145673D01*
X92538Y145692D01*
X92466Y145695D01*
X92396Y145708D01*
X92344Y145700D01*
X92292Y145702D01*
X92223Y145683D01*
X92152Y145672D01*
X92106Y145648D01*
X92056Y145634D01*
X91997Y145593D01*
X91933Y145561D01*
X91897Y145523D01*
X91854Y145494D01*
X91811Y145436D01*
X91761Y145385D01*
X91726Y145322D01*
X91707Y145296D01*
X91700Y145274D01*
X91680Y145238D01*
X91417Y144604D01*
X90899Y144085D01*
X90845Y144011D01*
X90786Y143942D01*
X90774Y143912D01*
X90755Y143885D01*
X90728Y143798D01*
X90694Y143713D01*
X90690Y143673D01*
X90683Y143650D01*
X90684Y143618D01*
X90676Y143547D01*
X90676Y130913D01*
X90679Y130894D01*
X90677Y130874D01*
X90699Y130773D01*
X90715Y130671D01*
X90725Y130653D01*
X90729Y130633D01*
X90782Y130544D01*
X90830Y130453D01*
X90845Y130439D01*
X90855Y130422D01*
X90934Y130355D01*
X91009Y130284D01*
X91027Y130275D01*
X91042Y130262D01*
X91138Y130224D01*
X91232Y130180D01*
X91252Y130178D01*
X91270Y130171D01*
X91437Y130152D01*
X93718Y130152D01*
X93738Y130155D01*
G37*
G36*
X124738Y115527D02*
X124738Y115527D01*
X124757Y115525D01*
X124859Y115547D01*
X124961Y115563D01*
X124978Y115573D01*
X124998Y115577D01*
X125087Y115630D01*
X125178Y115678D01*
X125192Y115693D01*
X125209Y115703D01*
X125276Y115782D01*
X125348Y115857D01*
X125356Y115875D01*
X125369Y115890D01*
X125408Y115986D01*
X125451Y116080D01*
X125453Y116100D01*
X125461Y116118D01*
X125479Y116285D01*
X125479Y119458D01*
X126483Y120462D01*
X126494Y120478D01*
X126510Y120490D01*
X126566Y120578D01*
X126626Y120661D01*
X126632Y120680D01*
X126643Y120697D01*
X126668Y120798D01*
X126699Y120897D01*
X126698Y120916D01*
X126703Y120936D01*
X126695Y121039D01*
X126692Y121142D01*
X126685Y121161D01*
X126684Y121181D01*
X126643Y121276D01*
X126608Y121373D01*
X126595Y121389D01*
X126587Y121407D01*
X126483Y121538D01*
X125479Y122542D01*
X125479Y125458D01*
X127542Y127521D01*
X130458Y127521D01*
X131818Y126161D01*
X131892Y126108D01*
X131961Y126049D01*
X131991Y126036D01*
X132018Y126018D01*
X132105Y125991D01*
X132189Y125957D01*
X132230Y125952D01*
X132253Y125945D01*
X132285Y125946D01*
X132356Y125938D01*
X144937Y125938D01*
X147563Y123312D01*
X147564Y123308D01*
X147572Y123257D01*
X147606Y123194D01*
X147631Y123126D01*
X147663Y123086D01*
X147688Y123040D01*
X147740Y122990D01*
X147784Y122934D01*
X147828Y122906D01*
X147866Y122870D01*
X147931Y122840D01*
X147991Y122801D01*
X148042Y122789D01*
X148089Y122767D01*
X148160Y122759D01*
X148230Y122741D01*
X148282Y122745D01*
X148333Y122740D01*
X148404Y122755D01*
X148475Y122760D01*
X148523Y122781D01*
X148574Y122792D01*
X148635Y122829D01*
X148701Y122857D01*
X148757Y122901D01*
X148785Y122918D01*
X148800Y122936D01*
X148832Y122961D01*
X150344Y124473D01*
X151758Y125887D01*
X161357Y125887D01*
X162801Y124443D01*
X162859Y124401D01*
X162911Y124352D01*
X162958Y124330D01*
X163001Y124299D01*
X163069Y124278D01*
X163134Y124248D01*
X163186Y124242D01*
X163236Y124227D01*
X163307Y124229D01*
X163379Y124221D01*
X163429Y124232D01*
X163482Y124233D01*
X163549Y124258D01*
X163619Y124273D01*
X163664Y124300D01*
X163713Y124318D01*
X163769Y124363D01*
X163830Y124399D01*
X163864Y124439D01*
X163905Y124471D01*
X163943Y124532D01*
X163990Y124586D01*
X164009Y124635D01*
X164038Y124678D01*
X164055Y124748D01*
X164082Y124814D01*
X164090Y124886D01*
X164098Y124917D01*
X164096Y124940D01*
X164100Y124981D01*
X164100Y127002D01*
X165782Y128683D01*
X165794Y128699D01*
X165809Y128712D01*
X165865Y128799D01*
X165925Y128883D01*
X165931Y128902D01*
X165942Y128919D01*
X165967Y129019D01*
X165998Y129118D01*
X165997Y129138D01*
X166002Y129157D01*
X165994Y129260D01*
X165991Y129364D01*
X165985Y129383D01*
X165983Y129403D01*
X165943Y129497D01*
X165907Y129595D01*
X165894Y129611D01*
X165887Y129629D01*
X165782Y129760D01*
X164799Y130743D01*
X164783Y130755D01*
X164770Y130770D01*
X164683Y130826D01*
X164599Y130887D01*
X164580Y130892D01*
X164563Y130903D01*
X164463Y130929D01*
X164364Y130959D01*
X164344Y130958D01*
X164325Y130963D01*
X164222Y130955D01*
X164118Y130953D01*
X164099Y130946D01*
X164079Y130944D01*
X163985Y130904D01*
X163887Y130868D01*
X163871Y130856D01*
X163853Y130848D01*
X163722Y130743D01*
X162458Y129479D01*
X159542Y129479D01*
X157277Y131744D01*
X157203Y131797D01*
X157133Y131857D01*
X157103Y131869D01*
X157077Y131888D01*
X156990Y131915D01*
X156905Y131949D01*
X156864Y131953D01*
X156842Y131960D01*
X156810Y131959D01*
X156738Y131967D01*
X154601Y131967D01*
X148832Y137736D01*
X148774Y137778D01*
X148722Y137827D01*
X148675Y137849D01*
X148633Y137879D01*
X148564Y137901D01*
X148499Y137931D01*
X148447Y137936D01*
X148397Y137952D01*
X148326Y137950D01*
X148255Y137958D01*
X148204Y137947D01*
X148152Y137945D01*
X148084Y137921D01*
X148014Y137906D01*
X147969Y137879D01*
X147921Y137861D01*
X147865Y137816D01*
X147803Y137779D01*
X147769Y137740D01*
X147729Y137707D01*
X147690Y137647D01*
X147643Y137592D01*
X147624Y137544D01*
X147596Y137500D01*
X147578Y137431D01*
X147551Y137364D01*
X147543Y137293D01*
X147535Y137262D01*
X147537Y137239D01*
X147533Y137198D01*
X147533Y136974D01*
X146119Y135561D01*
X145939Y135381D01*
X144526Y133967D01*
X134282Y133967D01*
X134262Y133964D01*
X134243Y133966D01*
X134141Y133944D01*
X134039Y133928D01*
X134022Y133918D01*
X134002Y133914D01*
X133913Y133861D01*
X133822Y133812D01*
X133808Y133798D01*
X133791Y133788D01*
X133724Y133709D01*
X133652Y133634D01*
X133644Y133616D01*
X133631Y133601D01*
X133592Y133505D01*
X133549Y133411D01*
X133547Y133391D01*
X133539Y133373D01*
X133521Y133206D01*
X133521Y131542D01*
X131458Y129479D01*
X128542Y129479D01*
X126834Y131187D01*
X126775Y131229D01*
X126723Y131279D01*
X126676Y131300D01*
X126634Y131331D01*
X126565Y131352D01*
X126500Y131382D01*
X126449Y131388D01*
X126399Y131403D01*
X126327Y131401D01*
X126256Y131409D01*
X126205Y131398D01*
X126153Y131397D01*
X126086Y131372D01*
X126016Y131357D01*
X125971Y131330D01*
X125922Y131312D01*
X125866Y131268D01*
X125804Y131231D01*
X125771Y131191D01*
X125730Y131159D01*
X125691Y131098D01*
X125645Y131044D01*
X125625Y130996D01*
X125597Y130952D01*
X125579Y130882D01*
X125553Y130816D01*
X125545Y130744D01*
X125537Y130713D01*
X125539Y130690D01*
X125534Y130649D01*
X125534Y129047D01*
X123967Y127480D01*
X121560Y127480D01*
X121470Y127465D01*
X121379Y127458D01*
X121350Y127446D01*
X121318Y127440D01*
X121237Y127398D01*
X121153Y127362D01*
X121121Y127336D01*
X121100Y127325D01*
X121079Y127303D01*
X121076Y127301D01*
X121073Y127298D01*
X121022Y127257D01*
X118568Y124803D01*
X116473Y124803D01*
X116383Y124789D01*
X116292Y124781D01*
X116262Y124769D01*
X116230Y124764D01*
X116149Y124721D01*
X116065Y124685D01*
X116033Y124659D01*
X116012Y124649D01*
X115990Y124625D01*
X115934Y124580D01*
X115738Y124384D01*
X115684Y124310D01*
X115625Y124240D01*
X115613Y124210D01*
X115594Y124184D01*
X115567Y124097D01*
X115533Y124012D01*
X115529Y123971D01*
X115522Y123949D01*
X115522Y123917D01*
X115515Y123845D01*
X115515Y118861D01*
X115497Y118805D01*
X115463Y118720D01*
X115459Y118679D01*
X115452Y118657D01*
X115452Y118624D01*
X115445Y118553D01*
X115445Y116723D01*
X115448Y116703D01*
X115446Y116683D01*
X115468Y116582D01*
X115484Y116480D01*
X115494Y116463D01*
X115498Y116443D01*
X115551Y116354D01*
X115599Y116263D01*
X115614Y116249D01*
X115624Y116232D01*
X115703Y116165D01*
X115778Y116093D01*
X115796Y116085D01*
X115811Y116072D01*
X115907Y116033D01*
X116001Y115990D01*
X116021Y115988D01*
X116039Y115980D01*
X116206Y115962D01*
X123000Y115962D01*
X123215Y115747D01*
X123289Y115693D01*
X123359Y115634D01*
X123389Y115622D01*
X123415Y115603D01*
X123502Y115576D01*
X123587Y115542D01*
X123628Y115538D01*
X123650Y115531D01*
X123682Y115532D01*
X123754Y115524D01*
X124718Y115524D01*
X124738Y115527D01*
G37*
G36*
X181704Y1853D02*
X181704Y1853D01*
X181724Y1851D01*
X181825Y1873D01*
X181927Y1890D01*
X181945Y1899D01*
X181964Y1903D01*
X182053Y1956D01*
X182144Y2005D01*
X182158Y2019D01*
X182175Y2029D01*
X182243Y2108D01*
X182314Y2183D01*
X182322Y2201D01*
X182335Y2216D01*
X182374Y2312D01*
X182417Y2406D01*
X182420Y2426D01*
X182427Y2444D01*
X182446Y2611D01*
X182446Y33272D01*
X182442Y33292D01*
X182444Y33312D01*
X182422Y33413D01*
X182406Y33515D01*
X182396Y33532D01*
X182392Y33552D01*
X182339Y33641D01*
X182291Y33732D01*
X182276Y33746D01*
X182266Y33763D01*
X182187Y33830D01*
X182112Y33902D01*
X182094Y33910D01*
X182079Y33923D01*
X181983Y33962D01*
X181889Y34005D01*
X181870Y34007D01*
X181851Y34015D01*
X181684Y34033D01*
X175895Y34033D01*
X175808Y34019D01*
X175719Y34013D01*
X175687Y33999D01*
X175652Y33994D01*
X175574Y33952D01*
X175492Y33918D01*
X175457Y33890D01*
X175435Y33879D01*
X175413Y33856D01*
X175361Y33814D01*
X175251Y33706D01*
X170380Y33740D01*
X169044Y35096D01*
X169027Y35108D01*
X169015Y35123D01*
X168928Y35180D01*
X168845Y35241D01*
X168826Y35247D01*
X168809Y35258D01*
X168709Y35284D01*
X168610Y35315D01*
X168590Y35314D01*
X168571Y35319D01*
X168468Y35312D01*
X168364Y35310D01*
X168346Y35303D01*
X168326Y35302D01*
X168230Y35262D01*
X168133Y35227D01*
X168117Y35215D01*
X168099Y35207D01*
X167967Y35103D01*
X166544Y33700D01*
X162366Y33700D01*
X162346Y33697D01*
X162326Y33699D01*
X162225Y33677D01*
X162123Y33661D01*
X162105Y33651D01*
X162086Y33647D01*
X161997Y33594D01*
X161906Y33545D01*
X161892Y33531D01*
X161875Y33521D01*
X161807Y33442D01*
X161736Y33367D01*
X161728Y33349D01*
X161715Y33334D01*
X161676Y33238D01*
X161633Y33144D01*
X161630Y33124D01*
X161623Y33106D01*
X161604Y32939D01*
X161604Y26590D01*
X161616Y26520D01*
X161618Y26448D01*
X161636Y26399D01*
X161644Y26348D01*
X161678Y26284D01*
X161702Y26217D01*
X161735Y26176D01*
X161759Y26130D01*
X161811Y26081D01*
X161856Y26025D01*
X161900Y25997D01*
X161938Y25961D01*
X162003Y25931D01*
X162063Y25892D01*
X162114Y25879D01*
X162161Y25857D01*
X162232Y25849D01*
X162302Y25832D01*
X162353Y25836D01*
X162405Y25830D01*
X162475Y25845D01*
X162547Y25851D01*
X162595Y25871D01*
X162646Y25882D01*
X162707Y25919D01*
X162773Y25947D01*
X162829Y25992D01*
X162857Y26009D01*
X162872Y26026D01*
X162904Y26052D01*
X163307Y26455D01*
X174860Y26455D01*
X175604Y25711D01*
X175604Y2611D01*
X175608Y2591D01*
X175606Y2572D01*
X175628Y2470D01*
X175644Y2368D01*
X175654Y2351D01*
X175658Y2331D01*
X175711Y2242D01*
X175759Y2151D01*
X175774Y2137D01*
X175784Y2120D01*
X175863Y2053D01*
X175938Y1982D01*
X175956Y1973D01*
X175971Y1960D01*
X176067Y1921D01*
X176161Y1878D01*
X176180Y1876D01*
X176199Y1868D01*
X176366Y1850D01*
X181684Y1850D01*
X181704Y1853D01*
G37*
G36*
X54762Y121991D02*
X54762Y121991D01*
X54781Y121988D01*
X54883Y122010D01*
X54985Y122027D01*
X55002Y122036D01*
X55022Y122041D01*
X55111Y122094D01*
X55202Y122142D01*
X55216Y122157D01*
X55233Y122167D01*
X55300Y122245D01*
X55371Y122320D01*
X55380Y122339D01*
X55393Y122354D01*
X55431Y122450D01*
X55475Y122544D01*
X55477Y122563D01*
X55485Y122582D01*
X55503Y122749D01*
X55503Y123517D01*
X56247Y124262D01*
X56921Y124262D01*
X56991Y124273D01*
X57063Y124275D01*
X57112Y124293D01*
X57163Y124301D01*
X57227Y124335D01*
X57294Y124360D01*
X57335Y124392D01*
X57381Y124416D01*
X57430Y124468D01*
X57486Y124513D01*
X57514Y124557D01*
X57550Y124595D01*
X57580Y124660D01*
X57619Y124720D01*
X57632Y124771D01*
X57654Y124818D01*
X57662Y124889D01*
X57679Y124959D01*
X57675Y125011D01*
X57681Y125062D01*
X57666Y125132D01*
X57660Y125204D01*
X57640Y125252D01*
X57629Y125303D01*
X57592Y125364D01*
X57564Y125430D01*
X57519Y125486D01*
X57503Y125514D01*
X57485Y125529D01*
X57459Y125561D01*
X54527Y128493D01*
X54453Y128546D01*
X54384Y128605D01*
X54354Y128618D01*
X54328Y128636D01*
X54241Y128663D01*
X54156Y128697D01*
X54115Y128702D01*
X54093Y128709D01*
X54060Y128708D01*
X53989Y128716D01*
X51125Y128716D01*
X49558Y130283D01*
X49558Y135690D01*
X51125Y137257D01*
X55932Y137257D01*
X57499Y135690D01*
X57499Y133023D01*
X57514Y132932D01*
X57521Y132842D01*
X57534Y132812D01*
X57539Y132780D01*
X57582Y132699D01*
X57617Y132615D01*
X57643Y132583D01*
X57654Y132562D01*
X57677Y132540D01*
X57722Y132484D01*
X60195Y130011D01*
X60269Y129958D01*
X60339Y129899D01*
X60369Y129886D01*
X60395Y129868D01*
X60482Y129841D01*
X60567Y129807D01*
X60608Y129802D01*
X60630Y129795D01*
X60662Y129796D01*
X60734Y129788D01*
X62372Y129788D01*
X63856Y128304D01*
X63905Y128269D01*
X64130Y128041D01*
X64190Y127997D01*
X64244Y127946D01*
X64288Y127925D01*
X64328Y127896D01*
X64399Y127873D01*
X64467Y127842D01*
X64516Y127837D01*
X64563Y127822D01*
X64637Y127823D01*
X64711Y127815D01*
X64759Y127825D01*
X64809Y127826D01*
X64879Y127851D01*
X64952Y127867D01*
X64994Y127892D01*
X65040Y127909D01*
X65099Y127955D01*
X65163Y127993D01*
X65195Y128031D01*
X65233Y128061D01*
X65274Y128124D01*
X65323Y128180D01*
X65341Y128226D01*
X65368Y128267D01*
X65387Y128339D01*
X65415Y128408D01*
X65422Y128475D01*
X65430Y128505D01*
X65428Y128530D01*
X65433Y128575D01*
X65433Y130785D01*
X67100Y132452D01*
X67153Y132526D01*
X67213Y132596D01*
X67225Y132626D01*
X67244Y132652D01*
X67270Y132739D01*
X67305Y132824D01*
X67309Y132865D01*
X67316Y132887D01*
X67315Y132919D01*
X67323Y132991D01*
X67323Y135757D01*
X69067Y137501D01*
X69109Y137559D01*
X69158Y137611D01*
X69180Y137658D01*
X69210Y137700D01*
X69231Y137769D01*
X69262Y137834D01*
X69267Y137886D01*
X69283Y137935D01*
X69281Y138007D01*
X69289Y138078D01*
X69278Y138129D01*
X69276Y138181D01*
X69252Y138249D01*
X69237Y138319D01*
X69210Y138363D01*
X69192Y138412D01*
X69147Y138468D01*
X69110Y138530D01*
X69071Y138564D01*
X69038Y138604D01*
X68978Y138643D01*
X68923Y138690D01*
X68875Y138709D01*
X68831Y138737D01*
X68762Y138755D01*
X68695Y138782D01*
X68624Y138790D01*
X68593Y138797D01*
X68569Y138796D01*
X68529Y138800D01*
X54459Y138800D01*
X51121Y142139D01*
X51026Y142206D01*
X50932Y142277D01*
X50926Y142279D01*
X50921Y142282D01*
X50810Y142316D01*
X50698Y142353D01*
X50692Y142353D01*
X50686Y142355D01*
X50569Y142352D01*
X50452Y142350D01*
X50445Y142348D01*
X50440Y142348D01*
X50423Y142342D01*
X50291Y142304D01*
X49196Y141850D01*
X46670Y141850D01*
X44336Y142817D01*
X42549Y144604D01*
X42287Y145238D01*
X42249Y145299D01*
X42220Y145364D01*
X42184Y145403D01*
X42157Y145447D01*
X42102Y145493D01*
X42053Y145546D01*
X42008Y145571D01*
X41967Y145604D01*
X41901Y145630D01*
X41838Y145664D01*
X41786Y145673D01*
X41738Y145692D01*
X41666Y145695D01*
X41596Y145708D01*
X41544Y145700D01*
X41492Y145702D01*
X41423Y145683D01*
X41352Y145672D01*
X41306Y145648D01*
X41256Y145634D01*
X41197Y145593D01*
X41133Y145561D01*
X41097Y145523D01*
X41054Y145494D01*
X41011Y145436D01*
X40961Y145385D01*
X40926Y145322D01*
X40907Y145296D01*
X40900Y145274D01*
X40880Y145238D01*
X40617Y144604D01*
X39027Y143013D01*
X39015Y142997D01*
X39000Y142985D01*
X38944Y142898D01*
X38883Y142814D01*
X38877Y142795D01*
X38867Y142778D01*
X38841Y142678D01*
X38811Y142579D01*
X38812Y142559D01*
X38807Y142539D01*
X38815Y142436D01*
X38817Y142333D01*
X38824Y142314D01*
X38826Y142294D01*
X38866Y142199D01*
X38902Y142102D01*
X38914Y142086D01*
X38922Y142068D01*
X39027Y141937D01*
X39070Y141893D01*
X39072Y141879D01*
X39115Y141799D01*
X39151Y141715D01*
X39177Y141683D01*
X39188Y141662D01*
X39211Y141640D01*
X39256Y141584D01*
X42229Y138610D01*
X42229Y130125D01*
X42244Y130035D01*
X42251Y129944D01*
X42264Y129914D01*
X42269Y129882D01*
X42312Y129801D01*
X42347Y129717D01*
X42373Y129685D01*
X42384Y129665D01*
X42407Y129642D01*
X42452Y129586D01*
X49828Y122210D01*
X49902Y122157D01*
X49972Y122098D01*
X50002Y122086D01*
X50028Y122067D01*
X50115Y122040D01*
X50200Y122006D01*
X50241Y122001D01*
X50263Y121994D01*
X50295Y121995D01*
X50367Y121987D01*
X54742Y121987D01*
X54762Y121991D01*
G37*
G36*
X149966Y94409D02*
X149966Y94409D01*
X149985Y94407D01*
X150087Y94429D01*
X150189Y94446D01*
X150206Y94455D01*
X150225Y94459D01*
X150315Y94512D01*
X150407Y94561D01*
X150420Y94575D01*
X150436Y94585D01*
X150504Y94664D01*
X150576Y94739D01*
X150584Y94757D01*
X150597Y94771D01*
X150636Y94868D01*
X150680Y94962D01*
X150682Y94981D01*
X150689Y94999D01*
X150703Y95122D01*
X152277Y96690D01*
X157685Y96681D01*
X159384Y94976D01*
X159403Y94939D01*
X159456Y94889D01*
X159501Y94833D01*
X159544Y94805D01*
X159581Y94770D01*
X159647Y94739D01*
X159708Y94700D01*
X159758Y94687D01*
X159804Y94666D01*
X159876Y94657D01*
X159947Y94640D01*
X159998Y94644D01*
X160049Y94638D01*
X160120Y94653D01*
X160192Y94659D01*
X160239Y94679D01*
X160289Y94690D01*
X160351Y94727D01*
X160418Y94755D01*
X160473Y94799D01*
X160500Y94815D01*
X160516Y94833D01*
X160549Y94860D01*
X162068Y96379D01*
X162080Y96395D01*
X162095Y96408D01*
X162151Y96495D01*
X162212Y96579D01*
X162218Y96598D01*
X162228Y96614D01*
X162254Y96715D01*
X162284Y96814D01*
X162284Y96834D01*
X162288Y96853D01*
X162280Y96956D01*
X162278Y97060D01*
X162271Y97078D01*
X162269Y97098D01*
X162229Y97193D01*
X162193Y97291D01*
X162181Y97306D01*
X162173Y97325D01*
X162068Y97455D01*
X160710Y98813D01*
X160710Y103621D01*
X161668Y104579D01*
X161680Y104595D01*
X161695Y104607D01*
X161751Y104695D01*
X161812Y104779D01*
X161817Y104797D01*
X161828Y104814D01*
X161853Y104915D01*
X161884Y105014D01*
X161883Y105034D01*
X161888Y105053D01*
X161880Y105156D01*
X161878Y105259D01*
X161871Y105278D01*
X161869Y105298D01*
X161829Y105393D01*
X161793Y105490D01*
X161781Y105506D01*
X161773Y105524D01*
X161668Y105655D01*
X156761Y110562D01*
X156687Y110615D01*
X156618Y110675D01*
X156588Y110687D01*
X156561Y110706D01*
X156474Y110733D01*
X156389Y110767D01*
X156349Y110771D01*
X156326Y110778D01*
X156294Y110777D01*
X156223Y110785D01*
X149122Y110785D01*
X149051Y110774D01*
X148979Y110772D01*
X148930Y110754D01*
X148879Y110746D01*
X148816Y110712D01*
X148748Y110687D01*
X148708Y110655D01*
X148662Y110630D01*
X148612Y110578D01*
X148556Y110534D01*
X148528Y110490D01*
X148492Y110452D01*
X148462Y110387D01*
X148423Y110327D01*
X148411Y110276D01*
X148389Y110229D01*
X148381Y110158D01*
X148363Y110088D01*
X148367Y110036D01*
X148362Y109985D01*
X148377Y109914D01*
X148382Y109843D01*
X148403Y109795D01*
X148414Y109744D01*
X148451Y109683D01*
X148479Y109617D01*
X148523Y109561D01*
X148540Y109533D01*
X148558Y109518D01*
X148583Y109486D01*
X149657Y108412D01*
X149657Y103604D01*
X148091Y102037D01*
X142683Y102037D01*
X141759Y102961D01*
X141743Y102972D01*
X141731Y102988D01*
X141644Y103044D01*
X141560Y103104D01*
X141541Y103110D01*
X141524Y103121D01*
X141424Y103146D01*
X141325Y103176D01*
X141305Y103176D01*
X141285Y103181D01*
X141182Y103173D01*
X141079Y103170D01*
X141060Y103163D01*
X141040Y103162D01*
X140945Y103121D01*
X140848Y103086D01*
X140832Y103073D01*
X140814Y103065D01*
X140683Y102961D01*
X139602Y101880D01*
X139564Y101827D01*
X139509Y101769D01*
X139501Y101751D01*
X139488Y101736D01*
X139474Y101702D01*
X139458Y101680D01*
X139440Y101620D01*
X139406Y101546D01*
X139404Y101527D01*
X139396Y101508D01*
X139391Y101460D01*
X139386Y101445D01*
X139387Y101422D01*
X139378Y101341D01*
X139378Y97405D01*
X139381Y97386D01*
X139379Y97366D01*
X139396Y97286D01*
X139401Y97224D01*
X139411Y97200D01*
X139417Y97163D01*
X139427Y97145D01*
X139431Y97125D01*
X139472Y97056D01*
X139497Y96998D01*
X139519Y96971D01*
X139532Y96945D01*
X139547Y96931D01*
X139557Y96914D01*
X139579Y96895D01*
X139602Y96867D01*
X140569Y95900D01*
X140569Y95167D01*
X140572Y95148D01*
X140570Y95128D01*
X140592Y95027D01*
X140609Y94925D01*
X140618Y94907D01*
X140623Y94887D01*
X140676Y94798D01*
X140724Y94707D01*
X140739Y94693D01*
X140749Y94676D01*
X140827Y94609D01*
X140902Y94538D01*
X140920Y94529D01*
X140936Y94516D01*
X141032Y94478D01*
X141126Y94434D01*
X141145Y94432D01*
X141164Y94424D01*
X141331Y94406D01*
X149947Y94406D01*
X149966Y94409D01*
G37*
D10*
X119474Y58491D03*
X119474Y63491D03*
X119474Y68491D03*
X119474Y73491D03*
X119474Y78491D03*
X119474Y83491D03*
X119474Y88491D03*
X119474Y93491D03*
X119474Y98491D03*
X119474Y103491D03*
X119474Y108491D03*
X119474Y113491D03*
D11*
X112974Y119991D03*
X107974Y119991D03*
X102974Y119991D03*
X97974Y119991D03*
X92974Y119991D03*
X87974Y119991D03*
X82974Y119991D03*
X77974Y119991D03*
X72974Y119991D03*
X67974Y119991D03*
X62974Y119991D03*
X57974Y119991D03*
D10*
X51474Y113491D03*
X51474Y108491D03*
X51474Y103491D03*
X51474Y98491D03*
X51474Y93491D03*
X51474Y88491D03*
X51474Y83491D03*
X51474Y78491D03*
X51474Y73491D03*
X51474Y68491D03*
X51474Y63491D03*
X51474Y58491D03*
D11*
X57974Y51991D03*
X62974Y51991D03*
X67974Y51991D03*
X72974Y51991D03*
X77974Y51991D03*
X82974Y51991D03*
X87974Y51991D03*
X92974Y51991D03*
X97974Y51991D03*
X102974Y51991D03*
X107974Y51991D03*
X112974Y51991D03*
D12*
X85474Y85991D03*
D13*
X72874Y109241D03*
X85474Y109241D03*
X98074Y109241D03*
X72874Y62741D03*
X85474Y62741D03*
X98074Y62741D03*
X62224Y98591D03*
X62224Y85991D03*
X62224Y73391D03*
X108724Y98591D03*
X108724Y85991D03*
X108724Y73391D03*
X85474Y98591D03*
X85220Y85991D03*
X85474Y73391D03*
X72874Y98591D03*
X72874Y85991D03*
X72874Y73391D03*
X98074Y98591D03*
X98074Y85991D03*
X98074Y73391D03*
D14*
X19459Y122325D02*
X19459Y124917D01*
X22651Y124917D01*
X22651Y122325D01*
X19459Y122325D01*
X22651Y130925D02*
X22651Y133517D01*
X22651Y130925D02*
X19459Y130925D01*
X19459Y133517D01*
X22651Y133517D01*
X9546Y124810D02*
X9546Y122218D01*
X9546Y124810D02*
X12738Y124810D01*
X12738Y122218D01*
X9546Y122218D01*
X12738Y130818D02*
X12738Y133410D01*
X12738Y130818D02*
X9546Y130818D01*
X9546Y133410D01*
X12738Y133410D01*
X30667Y16906D02*
X33259Y16906D01*
X30667Y16906D02*
X30667Y20098D01*
X33259Y20098D01*
X33259Y16906D01*
X33259Y19574D02*
X30667Y19574D01*
X24659Y20098D02*
X22067Y20098D01*
X24659Y20098D02*
X24659Y16906D01*
X22067Y16906D01*
X22067Y20098D01*
X22067Y19574D02*
X24659Y19574D01*
X24623Y29795D02*
X22031Y29795D01*
X24623Y29795D02*
X24623Y26603D01*
X22031Y26603D01*
X22031Y29795D01*
X22031Y29271D02*
X24623Y29271D01*
X30631Y26603D02*
X33223Y26603D01*
X30631Y26603D02*
X30631Y29795D01*
X33223Y29795D01*
X33223Y26603D01*
X33223Y29271D02*
X30631Y29271D01*
X43632Y134583D02*
X46224Y134583D01*
X46224Y131391D01*
X43632Y131391D01*
X43632Y134583D01*
X43632Y134059D02*
X46224Y134059D01*
X52232Y131391D02*
X54824Y131391D01*
X52232Y131391D02*
X52232Y134583D01*
X54824Y134583D01*
X54824Y131391D01*
X54824Y134059D02*
X52232Y134059D01*
X156587Y102608D02*
X156582Y100017D01*
X153391Y100022D01*
X153396Y102613D01*
X156587Y102608D01*
X153381Y94013D02*
X153376Y91422D01*
X153381Y94013D02*
X156572Y94008D01*
X156567Y91417D01*
X153376Y91422D01*
X143791Y96112D02*
X143791Y98704D01*
X146983Y98704D01*
X146983Y96112D01*
X143791Y96112D01*
X146983Y104712D02*
X146983Y107304D01*
X146983Y104712D02*
X143791Y104712D01*
X143791Y107304D01*
X146983Y107304D01*
X119667Y130155D02*
X119667Y132747D01*
X122859Y132747D01*
X122859Y130155D01*
X119667Y130155D01*
X122859Y138755D02*
X122859Y141347D01*
X122859Y138755D02*
X119667Y138755D01*
X119667Y141347D01*
X122859Y141347D01*
X72590Y131457D02*
X69998Y131457D01*
X69998Y134649D01*
X72590Y134649D01*
X72590Y131457D01*
X72590Y134125D02*
X69998Y134125D01*
X63990Y134649D02*
X61398Y134649D01*
X63990Y134649D02*
X63990Y131457D01*
X61398Y131457D01*
X61398Y134649D01*
X61398Y134125D02*
X63990Y134125D01*
X73331Y24766D02*
X73331Y22174D01*
X70139Y22174D01*
X70139Y24766D01*
X73331Y24766D01*
X70139Y16166D02*
X70139Y13574D01*
X70139Y16166D02*
X73331Y16166D01*
X73331Y13574D01*
X70139Y13574D01*
X33268Y36622D02*
X30676Y36622D01*
X30676Y39814D01*
X33268Y39814D01*
X33268Y36622D01*
X33268Y39290D02*
X30676Y39290D01*
X24668Y39814D02*
X22076Y39814D01*
X24668Y39814D02*
X24668Y36622D01*
X22076Y36622D01*
X22076Y39814D01*
X22076Y39290D02*
X24668Y39290D01*
D15*
X29112Y48699D02*
X34112Y48699D01*
X29112Y48699D02*
X29112Y57899D01*
X34112Y57899D01*
X34112Y48699D01*
X34112Y53449D02*
X29112Y53449D01*
X15412Y57899D02*
X10412Y57899D01*
X15412Y57899D02*
X15412Y48699D01*
X10412Y48699D01*
X10412Y57899D01*
X10412Y53449D02*
X15412Y53449D01*
X15426Y97706D02*
X10426Y97706D01*
X15426Y97706D02*
X15426Y88506D01*
X10426Y88506D01*
X10426Y97706D01*
X10426Y93256D02*
X15426Y93256D01*
X29126Y88506D02*
X34126Y88506D01*
X29126Y88506D02*
X29126Y97706D01*
X34126Y97706D01*
X34126Y88506D01*
X34126Y93256D02*
X29126Y93256D01*
D14*
X114338Y44849D02*
X114338Y42257D01*
X111146Y42257D01*
X111146Y44849D01*
X114338Y44849D01*
X111146Y36249D02*
X111146Y33657D01*
X111146Y36249D02*
X114338Y36249D01*
X114338Y33657D01*
X111146Y33657D01*
X124288Y42331D02*
X124288Y44923D01*
X124288Y42331D02*
X121096Y42331D01*
X121096Y44923D01*
X124288Y44923D01*
X121096Y36323D02*
X121096Y33731D01*
X121096Y36323D02*
X124288Y36323D01*
X124288Y33731D01*
X121096Y33731D01*
D16*
X35606Y130329D02*
X35606Y134201D01*
X35606Y130329D02*
X30334Y130329D01*
X30334Y134201D01*
X35606Y134201D01*
X35606Y134157D02*
X30334Y134157D01*
X30334Y117801D02*
X30334Y113929D01*
X30334Y117801D02*
X35606Y117801D01*
X35606Y113929D01*
X30334Y113929D01*
X30334Y117757D02*
X35606Y117757D01*
D15*
X34291Y68645D02*
X29291Y68645D01*
X29291Y77845D01*
X34291Y77845D01*
X34291Y68645D01*
X34291Y73395D02*
X29291Y73395D01*
X15591Y77845D02*
X10591Y77845D01*
X15591Y77845D02*
X15591Y68645D01*
X10591Y68645D01*
X10591Y77845D01*
X10591Y73395D02*
X15591Y73395D01*
D17*
X109127Y25834D03*
X94627Y25834D03*
X94627Y14334D03*
X109127Y14334D03*
D18*
X134004Y67073D02*
X136704Y67073D01*
X134004Y67073D02*
X134004Y70373D01*
X136704Y70373D01*
X136704Y67073D01*
X136704Y69638D02*
X134004Y69638D01*
X142644Y67073D02*
X145344Y67073D01*
X142644Y67073D02*
X142644Y70373D01*
X145344Y70373D01*
X145344Y67073D01*
X145344Y69638D02*
X142644Y69638D01*
X136785Y77301D02*
X134085Y77301D01*
X134085Y80601D01*
X136785Y80601D01*
X136785Y77301D01*
X136785Y79866D02*
X134085Y79866D01*
X142725Y77301D02*
X145425Y77301D01*
X142725Y77301D02*
X142725Y80601D01*
X145425Y80601D01*
X145425Y77301D01*
X145425Y79866D02*
X142725Y79866D01*
X142848Y39394D02*
X145548Y39394D01*
X145548Y36094D01*
X142848Y36094D01*
X142848Y39394D01*
X142848Y38659D02*
X145548Y38659D01*
X136908Y39394D02*
X134208Y39394D01*
X136908Y39394D02*
X136908Y36094D01*
X134208Y36094D01*
X134208Y39394D01*
X134208Y38659D02*
X136908Y38659D01*
X136809Y56741D02*
X134109Y56741D01*
X134109Y60041D01*
X136809Y60041D01*
X136809Y56741D01*
X136809Y59306D02*
X134109Y59306D01*
X142749Y56741D02*
X145449Y56741D01*
X142749Y56741D02*
X142749Y60041D01*
X145449Y60041D01*
X145449Y56741D01*
X145449Y59306D02*
X142749Y59306D01*
X161067Y80574D02*
X163767Y80574D01*
X163767Y77274D01*
X161067Y77274D01*
X161067Y80574D01*
X161067Y79839D02*
X163767Y79839D01*
X155127Y80574D02*
X152427Y80574D01*
X155127Y80574D02*
X155127Y77274D01*
X152427Y77274D01*
X152427Y80574D01*
X152427Y79839D02*
X155127Y79839D01*
X171338Y50486D02*
X174038Y50486D01*
X174038Y47186D01*
X171338Y47186D01*
X171338Y50486D01*
X171338Y49751D02*
X174038Y49751D01*
X165398Y50486D02*
X162698Y50486D01*
X165398Y50486D02*
X165398Y47186D01*
X162698Y47186D01*
X162698Y50486D01*
X162698Y49751D02*
X165398Y49751D01*
X165544Y36395D02*
X162845Y36414D01*
X162868Y39713D01*
X165567Y39694D01*
X165544Y36395D01*
X165562Y38960D02*
X162863Y38960D01*
X171485Y36354D02*
X174184Y36335D01*
X171485Y36354D02*
X171508Y39653D01*
X174207Y39634D01*
X174184Y36335D01*
X174202Y38900D02*
X171503Y38900D01*
X136809Y46506D02*
X134109Y46506D01*
X134109Y49806D01*
X136809Y49806D01*
X136809Y46506D01*
X136809Y49071D02*
X134109Y49071D01*
X142749Y46506D02*
X145449Y46506D01*
X142749Y46506D02*
X142749Y49806D01*
X145449Y49806D01*
X145449Y46506D01*
X145449Y49071D02*
X142749Y49071D01*
X152416Y66923D02*
X155116Y66923D01*
X152416Y66923D02*
X152416Y70223D01*
X155116Y70223D01*
X155116Y66923D01*
X155116Y69488D02*
X152416Y69488D01*
X161056Y66923D02*
X163756Y66923D01*
X161056Y66923D02*
X161056Y70223D01*
X163756Y70223D01*
X163756Y66923D01*
X163756Y69488D02*
X161056Y69488D01*
X171102Y69339D02*
X171102Y66639D01*
X171102Y69339D02*
X174402Y69339D01*
X174402Y66639D01*
X171102Y66639D01*
X171102Y69204D02*
X174402Y69204D01*
X171102Y60699D02*
X171102Y57999D01*
X171102Y60699D02*
X174402Y60699D01*
X174402Y57999D01*
X171102Y57999D01*
X171102Y60564D02*
X174402Y60564D01*
X84522Y16203D02*
X84522Y13503D01*
X81222Y13503D01*
X81222Y16203D01*
X84522Y16203D01*
X84522Y16068D02*
X81222Y16068D01*
X84522Y22143D02*
X84522Y24843D01*
X84522Y22143D02*
X81222Y22143D01*
X81222Y24843D01*
X84522Y24843D01*
X84522Y24708D02*
X81222Y24708D01*
X120677Y23993D02*
X120677Y26693D01*
X123977Y26693D01*
X123977Y23993D01*
X120677Y23993D01*
X120677Y26558D02*
X123977Y26558D01*
X120677Y18053D02*
X120677Y15353D01*
X120677Y18053D02*
X123977Y18053D01*
X123977Y15353D01*
X120677Y15353D01*
X120677Y17918D02*
X123977Y17918D01*
D15*
X206777Y47814D02*
X206777Y57814D01*
X206796Y47875D02*
X228796Y47875D01*
X228796Y57875D02*
X206796Y57875D01*
X228805Y47886D02*
X228805Y37886D01*
X228796Y67875D02*
X206796Y67875D01*
X206796Y77875D02*
X228796Y77875D01*
X228796Y87875D02*
X206796Y87875D01*
X206796Y97875D02*
X228796Y97875D01*
X228796Y107875D02*
X206796Y107875D01*
X206796Y117875D02*
X228796Y117875D01*
X228849Y67914D02*
X228849Y57914D01*
X206749Y67914D02*
X206749Y77914D01*
X228849Y77814D02*
X228849Y87814D01*
X228849Y117914D02*
X228849Y127914D01*
X206749Y97914D02*
X206749Y87914D01*
X228849Y97914D02*
X228849Y107914D01*
X206749Y107914D02*
X206749Y117914D01*
X185703Y37807D02*
X228703Y37807D01*
D19*
X185616Y37810D03*
D20*
X141584Y14185D03*
X169084Y14185D03*
D21*
X155334Y29435D03*
D18*
X162705Y39621D02*
X165405Y39621D01*
X165405Y36321D01*
X162705Y36321D01*
X162705Y39621D01*
X162705Y38886D02*
X165405Y38886D01*
X156765Y39621D02*
X154065Y39621D01*
X156765Y39621D02*
X156765Y36321D01*
X154065Y36321D01*
X154065Y39621D01*
X154065Y38886D02*
X156765Y38886D01*
D22*
X73580Y-620D03*
X86280Y-620D03*
X60880Y-620D03*
X98980Y-620D03*
X48180Y-620D03*
X111680Y-620D03*
X35480Y-620D03*
X22780Y-620D03*
X4Y67617D03*
X4Y54917D03*
X4Y80317D03*
X4Y42217D03*
X4Y93017D03*
X4Y29517D03*
X4Y105717D03*
X4Y118417D03*
X73333Y148201D03*
X86033Y148201D03*
X60633Y148201D03*
X98733Y148201D03*
X47933Y148201D03*
X111433Y148201D03*
X35233Y148201D03*
X22533Y148201D03*
D23*
X133799Y92373D03*
X133799Y106373D03*
D24*
X140500Y117650D03*
X145500Y117650D03*
X150500Y117650D03*
X155500Y117650D03*
X155500Y142350D03*
X150500Y142350D03*
X145500Y142350D03*
X140500Y142350D03*
D25*
X148000Y130000D03*
D14*
X170030Y141086D02*
X170030Y143678D01*
X170030Y141086D02*
X166838Y141086D01*
X166838Y143678D01*
X170030Y143678D01*
X166838Y135078D02*
X166838Y132486D01*
X166838Y135078D02*
X170030Y135078D01*
X170030Y132486D01*
X166838Y132486D01*
X11006Y11301D02*
X11006Y8709D01*
X11006Y11301D02*
X14198Y11301D01*
X14198Y8709D01*
X11006Y8709D01*
X14198Y17309D02*
X14198Y19901D01*
X14198Y17309D02*
X11006Y17309D01*
X11006Y19901D01*
X14198Y19901D01*
X169967Y123302D02*
X169967Y125894D01*
X169967Y123302D02*
X166775Y123302D01*
X166775Y125894D01*
X169967Y125894D01*
X166775Y117294D02*
X166775Y114702D01*
X166775Y117294D02*
X169967Y117294D01*
X169967Y114702D01*
X166775Y114702D01*
D26*
X171803Y90015D02*
X178803Y90015D01*
X178803Y83015D01*
X171803Y83015D01*
X171803Y90015D01*
X171803Y85865D02*
X178803Y85865D01*
X178803Y88715D02*
X171803Y88715D01*
X171803Y107555D02*
X178803Y107555D01*
X178803Y100555D01*
X171803Y100555D01*
X171803Y107555D01*
X171803Y103405D02*
X178803Y103405D01*
X178803Y106255D02*
X171803Y106255D01*
D14*
X166577Y102513D02*
X166577Y99921D01*
X163385Y99921D01*
X163385Y102513D01*
X166577Y102513D01*
X163385Y93913D02*
X163385Y91321D01*
X163385Y93913D02*
X166577Y93913D01*
X166577Y91321D01*
X163385Y91321D01*
D27*
X124380Y98491D02*
X119474Y98491D01*
X124380Y98491D02*
X126360Y100470D01*
X128157Y106373D02*
X133799Y106373D01*
X126360Y104576D02*
X126360Y100470D01*
X126360Y104576D02*
X128157Y106373D01*
X133799Y106373D02*
X145021Y106373D01*
X145387Y106008D01*
X125193Y93491D02*
X119474Y93491D01*
X125193Y93491D02*
X126630Y92053D01*
X133479Y92053D01*
X133799Y92373D01*
X154632Y92373D01*
X154974Y92715D01*
X31927Y28199D02*
X31963Y18502D01*
X45853Y63491D02*
X51474Y63491D01*
X42000Y59637D02*
X42000Y57000D01*
X42000Y59637D02*
X45853Y63491D01*
D28*
X42000Y57000D03*
D27*
X42191Y38463D02*
X31927Y28199D01*
X42191Y56809D02*
X42000Y57000D01*
X42191Y56809D02*
X42191Y38463D01*
D29*
X45704Y73491D02*
X51474Y73491D01*
X45704Y73491D02*
X45597Y73598D01*
D30*
X45704Y73491D02*
X32036Y73491D01*
X31791Y73245D01*
D31*
X112742Y43553D02*
X113740Y43553D01*
X114048Y43553D02*
X112742Y43553D01*
D30*
X13091Y73245D02*
X13091Y82017D01*
X13070Y92963D02*
X13091Y92984D01*
X13070Y92963D02*
X12926Y93106D01*
X13091Y92984D02*
X13091Y82017D01*
X14672Y83598D01*
X23597Y83598D01*
D32*
X23597Y83598D03*
D31*
X112815Y43627D02*
X122692Y43627D01*
X112815Y43627D02*
X112742Y43553D01*
X122692Y43627D02*
X122692Y48023D01*
X124779Y50111D01*
D32*
X124779Y50111D03*
D29*
X97974Y51991D02*
X97974Y44086D01*
X98060Y44000D01*
D32*
X98060Y44000D03*
D29*
X112974Y43785D02*
X112974Y51991D01*
X112974Y43785D02*
X112815Y43627D01*
D31*
X72431Y23470D02*
X71735Y23470D01*
D29*
X67974Y119991D02*
X67974Y129733D01*
X71294Y133053D01*
D31*
X33105Y114730D02*
X32970Y114865D01*
X32970Y115865D01*
X33105Y114730D02*
X40642Y121770D01*
D32*
X40642Y121770D03*
D31*
X31612Y49387D02*
X37602Y43398D01*
X31612Y49387D02*
X31612Y53299D01*
D32*
X37602Y43398D03*
D29*
X44772Y68522D02*
X51474Y68491D01*
D30*
X31612Y54997D02*
X31612Y53299D01*
X31612Y54997D02*
X44772Y68157D01*
D29*
X112974Y119991D02*
X112974Y126975D01*
X113597Y127598D01*
D32*
X113597Y127598D03*
D31*
X117411Y127598D02*
X121263Y131451D01*
X117411Y127598D02*
X113597Y127598D01*
X71735Y29735D02*
X71735Y23470D01*
X71735Y29735D02*
X72000Y30000D01*
D32*
X72000Y30000D03*
D29*
X84000Y30000D02*
X92974Y38974D01*
X84000Y30000D02*
X72000Y30000D01*
X92974Y38974D02*
X92974Y51991D01*
X75744Y133053D02*
X71294Y133053D01*
X75744Y133053D02*
X78000Y130797D01*
D32*
X78000Y130797D03*
D31*
X37602Y43398D02*
X37153Y43398D01*
X31972Y38218D01*
D27*
X44772Y68157D02*
X44772Y68522D01*
D28*
X179497Y4948D03*
X179497Y11298D03*
X179497Y17648D03*
X179497Y23998D03*
X179497Y30348D03*
X179497Y45588D03*
X179497Y53208D03*
X179497Y60828D03*
X179497Y68448D03*
X179497Y76068D03*
X151557Y45588D03*
X151557Y51938D03*
X152827Y58288D03*
X157907Y60828D03*
X164257Y60828D03*
X157907Y45588D03*
X157907Y51938D03*
X164257Y55748D03*
X141397Y13838D03*
X141397Y20188D03*
X141397Y6218D03*
X169337Y13838D03*
X169337Y20188D03*
X169337Y7488D03*
X72817Y63368D03*
X85517Y63368D03*
X98217Y63368D03*
X98217Y73528D03*
X108377Y73528D03*
X108377Y86228D03*
X108377Y98928D03*
X98217Y109088D03*
X85517Y109088D03*
X72817Y109088D03*
X72817Y98928D03*
X85517Y98928D03*
X98217Y98928D03*
X62657Y98928D03*
X62657Y86228D03*
X62657Y73528D03*
X72817Y86228D03*
X85517Y86228D03*
X98217Y86228D03*
X85517Y73528D03*
X72817Y73528D03*
X134897Y85748D03*
X143423Y85748D03*
X151459Y85705D03*
X158776Y85713D03*
X171458Y76077D03*
X126964Y69238D03*
X126964Y77128D03*
X126926Y85815D03*
D29*
X112815Y35027D02*
X112742Y34953D01*
X122692Y35027D02*
X123080Y35027D01*
D28*
X128978Y39040D03*
D27*
X94627Y25834D02*
X93711Y25834D01*
D28*
X128978Y30040D03*
X129044Y4571D03*
X94965Y34098D03*
D29*
X44928Y132072D02*
X44928Y132987D01*
X44928Y132072D02*
X49000Y128000D01*
X49000Y127000D01*
D32*
X49000Y127000D03*
D29*
X21055Y123621D02*
X20947Y123514D01*
X11142Y123514D01*
X21055Y123621D02*
X21055Y117055D01*
X21000Y117000D01*
D32*
X21000Y117000D03*
D28*
X12978Y42040D03*
X12978Y35040D03*
X120044Y4571D03*
X129044Y21571D03*
X129044Y13571D03*
D27*
X85474Y85991D02*
X85474Y98885D01*
X85517Y98928D01*
D28*
X60978Y23040D03*
X60978Y16040D03*
X5004Y4161D03*
X5364Y142533D03*
X179497Y114548D03*
X179497Y122548D03*
X179497Y133548D03*
X179497Y143548D03*
X4913Y14243D03*
X93497Y140548D03*
D27*
X154989Y107556D02*
X154989Y101315D01*
X154989Y107556D02*
X154861Y107684D01*
D28*
X154861Y107684D03*
D27*
X155500Y117650D02*
X159957Y117650D01*
X161241Y116367D01*
D28*
X161241Y116367D03*
X178888Y95226D03*
D27*
X148543Y130543D02*
X148543Y134591D01*
X148543Y130543D02*
X148000Y130000D01*
D28*
X148543Y134591D03*
X166731Y85718D03*
D31*
X11250Y132221D02*
X11142Y132114D01*
X11250Y132221D02*
X16597Y132221D01*
X21055Y132221D01*
X32926Y132221D01*
X32970Y132265D01*
X16597Y132221D02*
X16597Y138598D01*
D32*
X16597Y138598D03*
X105374Y139418D03*
D30*
X98733Y146059D01*
X98733Y148201D01*
X105374Y139418D02*
X105374Y139418D01*
D27*
X132350Y142350D02*
X140500Y142350D01*
X132350Y142350D02*
X129000Y139000D01*
D28*
X129000Y139000D03*
D27*
X21005Y10005D02*
X12602Y10005D01*
X23363Y12363D02*
X23363Y18502D01*
X22000Y11000D02*
X21005Y10005D01*
X22000Y11000D02*
X23363Y12363D01*
X168434Y129000D02*
X168434Y133782D01*
X168434Y129000D02*
X168434Y124661D01*
X168371Y124598D01*
X168434Y129000D02*
X174000Y129000D01*
D28*
X174000Y129000D03*
X22000Y11000D03*
D27*
X51474Y113491D02*
X51474Y115632D01*
X49973Y117133D01*
X45597Y117133D01*
D28*
X45597Y117133D03*
D27*
X49209Y119955D02*
X40196Y128967D01*
X37000Y140965D02*
X37000Y141089D01*
X37000Y140965D02*
X40196Y137768D01*
X57974Y119991D02*
X57938Y119955D01*
X49209Y119955D01*
X40196Y128967D02*
X40196Y137768D01*
X37000Y141089D02*
X32287Y141089D01*
X25175Y148201D01*
X22533Y148201D01*
D31*
X135388Y58462D02*
X135459Y58391D01*
D30*
X135459Y48156D01*
D31*
X119530Y58435D02*
X119474Y58491D01*
X119530Y58435D02*
X135388Y58462D01*
X135354Y68723D02*
X135354Y69966D01*
X135737Y69106D02*
X135354Y68723D01*
X135308Y78824D02*
X135435Y78951D01*
X135354Y68723D02*
X135306Y68674D01*
D30*
X135354Y68723D02*
X135435Y78951D01*
D31*
X124588Y63485D02*
X119474Y63491D01*
X130070Y63439D02*
X135354Y68723D01*
X130070Y63439D02*
X124588Y63485D01*
D30*
X143994Y68723D02*
X153766Y68573D01*
X144099Y58391D01*
D31*
X144099Y48156D02*
X144226Y48029D01*
D30*
X144099Y48156D02*
X144198Y37744D01*
D31*
X162406Y68573D02*
X162380Y68598D01*
D30*
X162406Y68573D02*
X172210Y68530D01*
X172752Y67989D01*
X162380Y68598D02*
X162417Y78924D01*
X172752Y59349D02*
X172688Y48836D01*
D29*
X217796Y67875D02*
X217796Y68448D01*
D15*
X185616Y37810D02*
X185610Y37804D01*
X173035Y37804D02*
X172846Y37994D01*
X173035Y37804D02*
X185610Y37804D01*
D31*
X173038Y37807D02*
X173035Y37804D01*
X173038Y37807D02*
X207203Y37807D01*
X228805Y37807D01*
X228805Y42886D01*
X228805Y47875D01*
X217796Y47875D01*
X206777Y47875D01*
X206777Y52814D01*
X206777Y57875D01*
X217796Y57875D01*
X228849Y57875D01*
X228849Y62914D01*
X228849Y67875D01*
X217796Y67875D01*
X206749Y67875D01*
X206749Y72914D01*
X206749Y77875D01*
X217796Y77875D01*
X228849Y77875D01*
X228849Y82814D01*
X228849Y87875D01*
X217796Y87875D01*
X206749Y87875D01*
X206749Y92914D01*
X206749Y97875D01*
X217796Y97875D01*
X228849Y97875D01*
X228849Y102914D01*
X228849Y107875D01*
X217796Y107875D01*
X206749Y107875D01*
X206749Y112914D01*
X206749Y117875D01*
X217796Y117875D01*
X228849Y117875D01*
X228849Y122914D01*
D30*
X164048Y48836D02*
X164175Y48709D01*
X164048Y48836D02*
X164148Y42002D01*
X164206Y38054D01*
D27*
X164148Y38064D02*
X164055Y37971D01*
X164148Y38064D02*
X164148Y42002D01*
D30*
X155415Y37971D02*
X155334Y29435D01*
D29*
X62974Y119991D02*
X63016Y125551D01*
X61319Y127247D01*
X59366Y127247D01*
X53627Y132987D02*
X53528Y132987D01*
X53627Y132987D02*
X59366Y127247D01*
D27*
X92974Y126605D02*
X92974Y119991D01*
X92974Y126605D02*
X93000Y126631D01*
D28*
X93000Y126631D03*
D27*
X77974Y123403D02*
X77974Y119991D01*
X77974Y123403D02*
X82736Y128166D01*
X82736Y136424D01*
X78327Y140833D01*
X55301Y140833D01*
X47933Y148201D01*
X72974Y126080D02*
X72974Y119991D01*
X72974Y126080D02*
X73502Y126608D01*
D28*
X73502Y126608D03*
D27*
X82974Y123180D02*
X82974Y119991D01*
X82974Y123180D02*
X85849Y126055D01*
X85849Y137263D02*
X74911Y148201D01*
X85849Y137263D02*
X85849Y126055D01*
X74911Y148201D02*
X73333Y148201D01*
X87974Y124228D02*
X87974Y119991D01*
X87974Y124228D02*
X88643Y124897D01*
X88643Y145591D01*
X86033Y148201D01*
X51474Y108491D02*
X46910Y108491D01*
X42755Y112646D01*
X41153Y112646D01*
D28*
X41153Y112646D03*
D27*
X51407Y103558D02*
X51474Y103491D01*
X51407Y103558D02*
X47286Y103558D01*
X44148Y106695D01*
X42075Y106695D01*
D28*
X42075Y106695D03*
D27*
X46229Y98491D02*
X51474Y98491D01*
X46229Y98491D02*
X43704Y101015D01*
D28*
X43704Y101015D03*
X40704Y95843D03*
D27*
X47565Y93491D02*
X51474Y93491D01*
X47565Y93491D02*
X45207Y95849D01*
X40710Y95849D01*
X40704Y95843D01*
X46399Y88491D02*
X51474Y88491D01*
X46399Y88491D02*
X43949Y90940D01*
D28*
X43949Y90940D03*
D27*
X129350Y117650D02*
X140500Y117650D01*
X129350Y117650D02*
X129000Y118000D01*
D28*
X129000Y118000D03*
D27*
X13000Y26000D02*
X12602Y25602D01*
X12602Y18605D01*
D28*
X13000Y26000D03*
X40609Y85806D03*
D27*
X47468Y83491D02*
X51474Y83491D01*
X47468Y83491D02*
X45248Y85711D01*
X40705Y85711D01*
X40609Y85806D01*
X43509Y78491D02*
X51474Y78491D01*
X43509Y78491D02*
X42000Y80000D01*
D28*
X42000Y80000D03*
D27*
X51474Y58491D02*
X51000Y58017D01*
X51000Y53000D01*
X50000Y53000D01*
D28*
X50000Y53000D03*
X84000Y37000D03*
D27*
X87974Y40974D02*
X87974Y51991D01*
X87974Y40974D02*
X84000Y37000D01*
X51706Y24270D02*
X51706Y16457D01*
X51706Y24270D02*
X57466Y30030D01*
X61884Y30030D02*
X69266Y37412D01*
X82974Y46907D02*
X82974Y51991D01*
X75866Y9794D02*
X86280Y-620D01*
X75866Y9794D02*
X58369Y9794D01*
X51706Y16457D01*
X57466Y30030D02*
X61884Y30030D01*
X69266Y37412D02*
X73478Y37412D01*
X82974Y46907D01*
X65960Y7000D02*
X73580Y-620D01*
X57212Y7000D02*
X48912Y15299D01*
X48912Y25428D01*
X56309Y32824D02*
X60727Y32824D01*
X68109Y40206D01*
X71783Y40206D01*
X77974Y46397D01*
X77974Y51991D01*
X65960Y7000D02*
X57212Y7000D01*
X48912Y25428D02*
X56309Y32824D01*
X46000Y14260D02*
X60880Y-620D01*
X46000Y14260D02*
X46000Y26467D01*
X72974Y46974D02*
X72974Y51991D01*
X69000Y43000D02*
X66951Y43000D01*
X59569Y35618D02*
X55151Y35618D01*
X69000Y43000D02*
X72974Y46974D01*
X66951Y43000D02*
X59569Y35618D01*
X55151Y35618D02*
X46000Y26467D01*
X48180Y5381D02*
X48180Y-620D01*
X48180Y5381D02*
X43000Y10560D01*
X43000Y27418D01*
X53994Y38412D01*
X67974Y47974D02*
X67974Y51991D01*
X58412Y38412D02*
X53994Y38412D01*
X58412Y38412D02*
X67974Y47974D01*
X35480Y5480D02*
X35480Y-620D01*
X35480Y5480D02*
X40000Y10000D01*
X52837Y41206D02*
X57157Y41206D01*
X62974Y47022D01*
X62974Y51991D01*
X40000Y28369D02*
X40000Y10000D01*
X40000Y28369D02*
X52837Y41206D01*
X57974Y46974D02*
X57974Y51991D01*
X55000Y44000D02*
X51679Y44000D01*
X37000Y29321D01*
X37000Y12000D01*
X27611Y2611D01*
X55000Y44000D02*
X57974Y46974D01*
X26010Y2611D02*
X22780Y-620D01*
X26010Y2611D02*
X27611Y2611D01*
X107974Y119991D02*
X107974Y129974D01*
X108000Y130000D01*
D28*
X108000Y130000D03*
D27*
X144500Y118650D02*
X145500Y117650D01*
D28*
X129000Y124000D03*
D27*
X145500Y122500D02*
X145500Y117650D01*
X145500Y122500D02*
X144095Y123906D01*
X129095Y123906D01*
X129000Y124000D01*
X102974Y126974D02*
X102974Y119991D01*
X102974Y126974D02*
X103000Y127000D01*
D28*
X103000Y127000D03*
D27*
X155500Y142350D02*
X160679Y142350D01*
X161616Y143287D01*
D28*
X161616Y143287D03*
D27*
X97974Y129974D02*
X97974Y119991D01*
X97974Y129974D02*
X98000Y130000D01*
D28*
X98000Y130000D03*
D27*
X150500Y138943D02*
X150500Y142350D01*
X155443Y134000D02*
X160000Y134000D01*
X161000Y133000D01*
X155443Y134000D02*
X150500Y138943D01*
D28*
X161000Y133000D03*
D27*
X150500Y121755D02*
X150500Y117650D01*
X150500Y121755D02*
X152600Y123854D01*
X160515Y123854D01*
X168371Y115998D01*
X145500Y137816D02*
X145500Y142350D01*
X143684Y136000D02*
X133000Y136000D01*
X130000Y133000D01*
X143684Y136000D02*
X145500Y137816D01*
D28*
X130000Y133000D03*
D27*
X168434Y142382D02*
X169618Y142382D01*
X174000Y138000D01*
D28*
X174000Y138000D03*
D27*
X94107Y14853D02*
X82872Y14853D01*
X94107Y14853D02*
X94627Y14334D01*
X102000Y20000D01*
X102345Y41926D02*
X102974Y42555D01*
X102974Y51991D01*
X102345Y20345D02*
X102000Y20000D01*
X102345Y20345D02*
X102345Y41926D01*
X109127Y25834D02*
X121836Y25834D01*
X122327Y25343D01*
X109127Y25834D02*
X107710Y27251D01*
X107710Y51727D02*
X107974Y51991D01*
X107710Y51727D02*
X107710Y27251D01*
X119474Y113491D02*
X124820Y113491D01*
X125493Y112818D01*
X157380Y112818D01*
X164981Y105217D02*
X164981Y101217D01*
X164981Y105217D02*
X157380Y112818D01*
X175303Y102939D02*
X164981Y92617D01*
X175303Y102939D02*
X175303Y104055D01*
M02*
