G04 EAGLE Gerber RS-274X export*
G75*
%MOMM*%
%FSLAX34Y34*%
%LPD*%
%INTop Copper*%
%IPPOS*%
%AMOC8*
5,1,8,0,0,1.08239X$1,22.5*%
G01*
%ADD10R,0.240000X0.600000*%
%ADD11R,0.600000X0.240000*%
%ADD12R,5.150000X5.150000*%
%ADD13C,0.500000*%
%ADD14C,0.280800*%
%ADD15C,0.500000*%
%ADD16C,0.402900*%
%ADD17R,0.850000X0.950000*%
%ADD18C,0.270000*%
%ADD19R,0.500000X0.500000*%
%ADD20R,2.200000X1.050000*%
%ADD21R,0.800000X1.000000*%
%ADD22C,1.016000*%
%ADD23R,0.600000X1.100000*%
%ADD24R,0.560000X0.350000*%
%ADD25R,0.200000X1.600000*%
%ADD26C,0.300000*%
%ADD27C,0.152400*%
%ADD28C,0.450000*%
%ADD29C,0.406400*%
%ADD30C,0.254000*%
%ADD31C,0.304800*%
%ADD32C,0.503200*%
%ADD33C,0.508000*%
%ADD34C,0.609600*%

G36*
X77496Y121782D02*
X77496Y121782D01*
X77599Y121784D01*
X77618Y121791D01*
X77638Y121793D01*
X77733Y121833D01*
X77830Y121869D01*
X77846Y121881D01*
X77864Y121889D01*
X77995Y121994D01*
X78230Y122229D01*
X81406Y122229D01*
X81422Y122232D01*
X81439Y122230D01*
X81543Y122252D01*
X81649Y122269D01*
X81663Y122277D01*
X81679Y122280D01*
X81772Y122334D01*
X81866Y122384D01*
X81877Y122396D01*
X81892Y122405D01*
X81962Y122485D01*
X82035Y122562D01*
X82042Y122577D01*
X82053Y122590D01*
X82094Y122689D01*
X82139Y122786D01*
X82141Y122802D01*
X82147Y122817D01*
X82167Y122984D01*
X82168Y123081D01*
X82167Y123083D01*
X82168Y123086D01*
X82169Y124444D01*
X82173Y124456D01*
X82172Y124487D01*
X82180Y124554D01*
X82202Y127088D01*
X82187Y127181D01*
X82180Y127275D01*
X82169Y127302D01*
X82164Y127331D01*
X82121Y127415D01*
X82084Y127502D01*
X82061Y127530D01*
X82051Y127549D01*
X82027Y127572D01*
X81979Y127633D01*
X79966Y129645D01*
X79892Y129698D01*
X79823Y129758D01*
X79793Y129770D01*
X79767Y129789D01*
X79680Y129815D01*
X79595Y129850D01*
X79554Y129854D01*
X79531Y129861D01*
X79499Y129860D01*
X79428Y129868D01*
X76989Y129868D01*
X76083Y130775D01*
X76009Y130828D01*
X75939Y130887D01*
X75909Y130900D01*
X75883Y130918D01*
X75796Y130945D01*
X75711Y130979D01*
X75670Y130984D01*
X75648Y130991D01*
X75616Y130990D01*
X75544Y130998D01*
X73596Y130998D01*
X73506Y130983D01*
X73415Y130976D01*
X73386Y130963D01*
X73354Y130958D01*
X73273Y130915D01*
X73189Y130880D01*
X73157Y130854D01*
X73136Y130843D01*
X73114Y130820D01*
X73058Y130775D01*
X72232Y129949D01*
X66761Y129949D01*
X65226Y131484D01*
X65226Y136355D01*
X66761Y137890D01*
X72232Y137890D01*
X73312Y136810D01*
X73386Y136757D01*
X73455Y136698D01*
X73486Y136685D01*
X73512Y136667D01*
X73599Y136640D01*
X73684Y136606D01*
X73725Y136601D01*
X73747Y136594D01*
X73779Y136595D01*
X73850Y136587D01*
X75452Y136587D01*
X75542Y136602D01*
X75633Y136609D01*
X75663Y136622D01*
X75694Y136627D01*
X75775Y136670D01*
X75859Y136705D01*
X75891Y136731D01*
X75912Y136742D01*
X75934Y136765D01*
X75990Y136810D01*
X76800Y137621D01*
X76812Y137637D01*
X76828Y137649D01*
X76884Y137736D01*
X76944Y137820D01*
X76950Y137839D01*
X76961Y137856D01*
X76986Y137957D01*
X77016Y138055D01*
X77016Y138075D01*
X77021Y138095D01*
X77013Y138198D01*
X77010Y138301D01*
X77003Y138320D01*
X77001Y138340D01*
X76961Y138435D01*
X76925Y138532D01*
X76913Y138548D01*
X76905Y138566D01*
X76800Y138697D01*
X75454Y140043D01*
X75454Y144914D01*
X76989Y146450D01*
X77728Y146450D01*
X77732Y146450D01*
X77736Y146450D01*
X77855Y146470D01*
X77971Y146489D01*
X77974Y146491D01*
X77979Y146492D01*
X78084Y146549D01*
X78188Y146604D01*
X78191Y146607D01*
X78195Y146609D01*
X78277Y146698D01*
X78357Y146783D01*
X78359Y146787D01*
X78362Y146790D01*
X78439Y146939D01*
X79335Y149281D01*
X79357Y149386D01*
X79383Y149489D01*
X79381Y149506D01*
X79385Y149522D01*
X79372Y149628D01*
X79364Y149734D01*
X79357Y149750D01*
X79355Y149766D01*
X79309Y149862D01*
X79267Y149960D01*
X79261Y149968D01*
X79261Y154864D01*
X80607Y156210D01*
X80619Y156226D01*
X80634Y156239D01*
X80690Y156326D01*
X80751Y156410D01*
X80756Y156429D01*
X80767Y156446D01*
X80792Y156546D01*
X80823Y156645D01*
X80822Y156665D01*
X80827Y156684D01*
X80819Y156787D01*
X80817Y156891D01*
X80810Y156910D01*
X80808Y156929D01*
X80768Y157025D01*
X80732Y157122D01*
X80720Y157137D01*
X80712Y157156D01*
X80607Y157287D01*
X80024Y157870D01*
X79949Y157924D01*
X79880Y157983D01*
X79850Y157995D01*
X79824Y158014D01*
X79737Y158041D01*
X79652Y158075D01*
X79611Y158079D01*
X79589Y158086D01*
X79557Y158085D01*
X79485Y158093D01*
X77358Y158093D01*
X77268Y158078D01*
X77177Y158071D01*
X77147Y158059D01*
X77115Y158053D01*
X77035Y158011D01*
X76951Y157975D01*
X76919Y157949D01*
X76898Y157938D01*
X76876Y157915D01*
X76820Y157870D01*
X75867Y156917D01*
X70396Y156917D01*
X68860Y158452D01*
X68860Y163324D01*
X70396Y164859D01*
X75867Y164859D01*
X76820Y163906D01*
X76894Y163853D01*
X76963Y163793D01*
X76993Y163781D01*
X77019Y163762D01*
X77106Y163735D01*
X77191Y163701D01*
X77232Y163697D01*
X77255Y163690D01*
X77287Y163691D01*
X77358Y163683D01*
X79124Y163683D01*
X79214Y163697D01*
X79305Y163705D01*
X79335Y163717D01*
X79367Y163722D01*
X79448Y163765D01*
X79532Y163801D01*
X79564Y163827D01*
X79584Y163838D01*
X79607Y163861D01*
X79663Y163906D01*
X80796Y165039D01*
X86267Y165039D01*
X87220Y164086D01*
X87294Y164033D01*
X87364Y163974D01*
X87394Y163961D01*
X87420Y163943D01*
X87507Y163916D01*
X87592Y163882D01*
X87633Y163877D01*
X87655Y163870D01*
X87687Y163871D01*
X87758Y163863D01*
X88810Y163863D01*
X88900Y163878D01*
X88991Y163885D01*
X89021Y163898D01*
X89053Y163903D01*
X89134Y163946D01*
X89218Y163981D01*
X89250Y164007D01*
X89270Y164018D01*
X89292Y164041D01*
X89348Y164086D01*
X90455Y165193D01*
X95326Y165193D01*
X96672Y163846D01*
X96688Y163835D01*
X96701Y163819D01*
X96788Y163763D01*
X96872Y163703D01*
X96891Y163697D01*
X96908Y163686D01*
X97008Y163661D01*
X97107Y163630D01*
X97127Y163631D01*
X97146Y163626D01*
X97249Y163634D01*
X97353Y163637D01*
X97372Y163644D01*
X97391Y163645D01*
X97486Y163686D01*
X97584Y163721D01*
X97599Y163734D01*
X97618Y163742D01*
X97749Y163846D01*
X99095Y165193D01*
X102639Y165193D01*
X102656Y165195D01*
X102674Y165193D01*
X102778Y165215D01*
X102881Y165232D01*
X102897Y165241D01*
X102915Y165244D01*
X103064Y165322D01*
X105987Y167289D01*
X106017Y167318D01*
X106053Y167339D01*
X106106Y167401D01*
X106166Y167458D01*
X106185Y167494D01*
X106213Y167526D01*
X106243Y167602D01*
X106282Y167675D01*
X106289Y167715D01*
X106304Y167754D01*
X106322Y167910D01*
X106323Y167917D01*
X106323Y167919D01*
X106323Y167921D01*
X106323Y169513D01*
X107002Y170192D01*
X107043Y170250D01*
X107093Y170302D01*
X107115Y170349D01*
X107145Y170391D01*
X107166Y170460D01*
X107196Y170525D01*
X107202Y170577D01*
X107217Y170627D01*
X107216Y170698D01*
X107223Y170769D01*
X107212Y170820D01*
X107211Y170872D01*
X107186Y170940D01*
X107171Y171010D01*
X107144Y171055D01*
X107127Y171103D01*
X107082Y171159D01*
X107045Y171221D01*
X107005Y171255D01*
X106973Y171295D01*
X106913Y171334D01*
X106858Y171381D01*
X106810Y171400D01*
X106766Y171428D01*
X106696Y171446D01*
X106630Y171473D01*
X106559Y171481D01*
X106527Y171489D01*
X106504Y171487D01*
X106463Y171491D01*
X105789Y171491D01*
X105491Y171789D01*
X105491Y179669D01*
X105488Y179689D01*
X105490Y179708D01*
X105468Y179810D01*
X105452Y179912D01*
X105442Y179929D01*
X105438Y179949D01*
X105385Y180038D01*
X105336Y180129D01*
X105322Y180143D01*
X105312Y180160D01*
X105233Y180227D01*
X105158Y180298D01*
X105140Y180307D01*
X105125Y180320D01*
X105029Y180359D01*
X104935Y180402D01*
X104915Y180404D01*
X104897Y180412D01*
X104730Y180430D01*
X3335Y180430D01*
X3315Y180427D01*
X3295Y180429D01*
X3194Y180407D01*
X3092Y180390D01*
X3074Y180381D01*
X3055Y180377D01*
X2966Y180324D01*
X2874Y180275D01*
X2861Y180261D01*
X2844Y180251D01*
X2776Y180172D01*
X2705Y180097D01*
X2697Y180079D01*
X2684Y180064D01*
X2645Y179968D01*
X2601Y179874D01*
X2599Y179854D01*
X2592Y179836D01*
X2573Y179669D01*
X2573Y167036D01*
X2576Y167016D01*
X2574Y166996D01*
X2596Y166895D01*
X2613Y166793D01*
X2622Y166775D01*
X2627Y166756D01*
X2680Y166667D01*
X2728Y166576D01*
X2743Y166562D01*
X2753Y166545D01*
X2831Y166477D01*
X2906Y166406D01*
X2924Y166398D01*
X2940Y166385D01*
X3036Y166346D01*
X3130Y166303D01*
X3149Y166300D01*
X3168Y166293D01*
X3335Y166274D01*
X8279Y166274D01*
X9637Y164917D01*
X9653Y164905D01*
X9666Y164889D01*
X9753Y164833D01*
X9837Y164773D01*
X9856Y164767D01*
X9873Y164756D01*
X9973Y164731D01*
X10072Y164701D01*
X10092Y164701D01*
X10111Y164696D01*
X10214Y164704D01*
X10318Y164707D01*
X10337Y164714D01*
X10356Y164716D01*
X10451Y164756D01*
X10549Y164792D01*
X10564Y164804D01*
X10583Y164812D01*
X10714Y164917D01*
X11458Y165661D01*
X11511Y165735D01*
X11570Y165804D01*
X11582Y165834D01*
X11601Y165860D01*
X11628Y165947D01*
X11662Y166032D01*
X11667Y166073D01*
X11674Y166095D01*
X11673Y166128D01*
X11681Y166199D01*
X11681Y167629D01*
X11666Y167719D01*
X11659Y167810D01*
X11646Y167840D01*
X11641Y167872D01*
X11598Y167953D01*
X11562Y168036D01*
X11537Y168069D01*
X11526Y168089D01*
X11502Y168111D01*
X11458Y168167D01*
X10674Y168951D01*
X10674Y174358D01*
X12241Y175925D01*
X17049Y175925D01*
X18334Y174640D01*
X18408Y174587D01*
X18477Y174528D01*
X18508Y174516D01*
X18534Y174497D01*
X18621Y174470D01*
X18706Y174436D01*
X18747Y174431D01*
X18769Y174424D01*
X18801Y174425D01*
X18872Y174417D01*
X19456Y174417D01*
X19547Y174432D01*
X19637Y174439D01*
X19667Y174452D01*
X19699Y174457D01*
X19780Y174500D01*
X19864Y174536D01*
X19896Y174561D01*
X19917Y174572D01*
X19939Y174596D01*
X19995Y174640D01*
X21248Y175893D01*
X26056Y175893D01*
X27413Y174536D01*
X27430Y174524D01*
X27442Y174508D01*
X27529Y174452D01*
X27613Y174392D01*
X27632Y174386D01*
X27649Y174375D01*
X27749Y174350D01*
X27848Y174320D01*
X27868Y174320D01*
X27887Y174315D01*
X27990Y174323D01*
X28094Y174326D01*
X28113Y174333D01*
X28133Y174334D01*
X28228Y174375D01*
X28325Y174410D01*
X28341Y174423D01*
X28359Y174431D01*
X28490Y174536D01*
X29848Y175893D01*
X34656Y175893D01*
X36222Y174327D01*
X36222Y171468D01*
X36237Y171378D01*
X36244Y171287D01*
X36257Y171257D01*
X36262Y171225D01*
X36305Y171144D01*
X36341Y171060D01*
X36366Y171028D01*
X36377Y171008D01*
X36401Y170985D01*
X36445Y170929D01*
X36631Y170744D01*
X36705Y170691D01*
X36774Y170631D01*
X36805Y170619D01*
X36831Y170600D01*
X36918Y170573D01*
X37003Y170539D01*
X37044Y170535D01*
X37066Y170528D01*
X37098Y170529D01*
X37169Y170521D01*
X38958Y170521D01*
X41021Y168458D01*
X41021Y165542D01*
X38958Y163479D01*
X37006Y163479D01*
X36986Y163476D01*
X36966Y163478D01*
X36865Y163456D01*
X36763Y163440D01*
X36745Y163430D01*
X36726Y163426D01*
X36637Y163373D01*
X36545Y163324D01*
X36532Y163310D01*
X36515Y163300D01*
X36447Y163221D01*
X36376Y163146D01*
X36368Y163128D01*
X36355Y163113D01*
X36316Y163017D01*
X36272Y162923D01*
X36270Y162903D01*
X36263Y162885D01*
X36244Y162718D01*
X36244Y159339D01*
X34678Y157772D01*
X31193Y157772D01*
X31103Y157757D01*
X31012Y157750D01*
X30982Y157737D01*
X30950Y157732D01*
X30870Y157689D01*
X30786Y157654D01*
X30753Y157628D01*
X30733Y157617D01*
X30711Y157594D01*
X30655Y157549D01*
X26756Y153650D01*
X26703Y153576D01*
X26643Y153507D01*
X26631Y153476D01*
X26612Y153450D01*
X26585Y153363D01*
X26551Y153278D01*
X26547Y153237D01*
X26540Y153215D01*
X26541Y153183D01*
X26533Y153112D01*
X26533Y150657D01*
X26547Y150567D01*
X26555Y150476D01*
X26567Y150446D01*
X26572Y150415D01*
X26615Y150334D01*
X26651Y150250D01*
X26677Y150218D01*
X26688Y150197D01*
X26711Y150175D01*
X26756Y150119D01*
X27305Y149570D01*
X27321Y149558D01*
X27333Y149543D01*
X27420Y149487D01*
X27504Y149427D01*
X27523Y149421D01*
X27540Y149410D01*
X27640Y149385D01*
X27739Y149354D01*
X27759Y149355D01*
X27779Y149350D01*
X27882Y149358D01*
X27985Y149361D01*
X28004Y149367D01*
X28024Y149369D01*
X28119Y149410D01*
X28216Y149445D01*
X28226Y149453D01*
X34916Y149453D01*
X35661Y148708D01*
X35661Y134156D01*
X34780Y133275D01*
X34769Y133259D01*
X34753Y133247D01*
X34697Y133159D01*
X34637Y133075D01*
X34631Y133056D01*
X34620Y133040D01*
X34595Y132939D01*
X34564Y132840D01*
X34565Y132820D01*
X34560Y132801D01*
X34568Y132698D01*
X34571Y132595D01*
X34578Y132576D01*
X34579Y132556D01*
X34620Y132461D01*
X34655Y132364D01*
X34668Y132348D01*
X34676Y132330D01*
X34780Y132199D01*
X35021Y131958D01*
X35021Y128925D01*
X35024Y128905D01*
X35022Y128885D01*
X35044Y128784D01*
X35060Y128682D01*
X35070Y128664D01*
X35074Y128645D01*
X35127Y128556D01*
X35176Y128465D01*
X35190Y128451D01*
X35200Y128434D01*
X35279Y128366D01*
X35354Y128295D01*
X35372Y128287D01*
X35387Y128274D01*
X35483Y128235D01*
X35577Y128192D01*
X35597Y128189D01*
X35615Y128182D01*
X35782Y128163D01*
X36890Y128163D01*
X36910Y128167D01*
X36930Y128164D01*
X37031Y128186D01*
X37133Y128203D01*
X37151Y128212D01*
X37170Y128217D01*
X37259Y128270D01*
X37351Y128318D01*
X37364Y128333D01*
X37381Y128343D01*
X37449Y128422D01*
X37520Y128497D01*
X37528Y128515D01*
X37541Y128530D01*
X37580Y128626D01*
X37624Y128720D01*
X37626Y128739D01*
X37633Y128758D01*
X37652Y128925D01*
X37652Y139774D01*
X38396Y140518D01*
X40291Y140518D01*
X40381Y140533D01*
X40472Y140540D01*
X40502Y140553D01*
X40534Y140558D01*
X40614Y140601D01*
X40698Y140636D01*
X40730Y140662D01*
X40751Y140673D01*
X40773Y140696D01*
X40829Y140741D01*
X41180Y141092D01*
X41222Y141150D01*
X41271Y141202D01*
X41293Y141249D01*
X41323Y141291D01*
X41344Y141360D01*
X41375Y141425D01*
X41380Y141477D01*
X41396Y141526D01*
X41394Y141598D01*
X41402Y141669D01*
X41391Y141720D01*
X41389Y141772D01*
X41365Y141840D01*
X41349Y141910D01*
X41323Y141954D01*
X41305Y142003D01*
X41260Y142059D01*
X41223Y142121D01*
X41184Y142155D01*
X41151Y142195D01*
X41091Y142234D01*
X41036Y142281D01*
X40995Y142298D01*
X39334Y143958D01*
X39334Y148766D01*
X40901Y150333D01*
X46309Y150333D01*
X47876Y148766D01*
X47876Y143958D01*
X46294Y142376D01*
X46258Y142368D01*
X46156Y142351D01*
X46139Y142342D01*
X46119Y142338D01*
X46030Y142285D01*
X45939Y142236D01*
X45925Y142222D01*
X45908Y142212D01*
X45841Y142133D01*
X45770Y142058D01*
X45761Y142040D01*
X45748Y142025D01*
X45709Y141929D01*
X45666Y141835D01*
X45664Y141815D01*
X45656Y141797D01*
X45638Y141630D01*
X45638Y140644D01*
X45653Y140554D01*
X45660Y140463D01*
X45672Y140434D01*
X45678Y140402D01*
X45720Y140321D01*
X45756Y140237D01*
X45782Y140205D01*
X45793Y140184D01*
X45816Y140162D01*
X45861Y140106D01*
X46274Y139693D01*
X46300Y139650D01*
X46348Y139559D01*
X46362Y139545D01*
X46373Y139528D01*
X46451Y139460D01*
X46526Y139389D01*
X46544Y139381D01*
X46560Y139368D01*
X46656Y139329D01*
X46749Y139286D01*
X46769Y139283D01*
X46788Y139276D01*
X46954Y139257D01*
X50890Y139257D01*
X50910Y139261D01*
X50930Y139258D01*
X51031Y139280D01*
X51133Y139297D01*
X51151Y139306D01*
X51170Y139311D01*
X51259Y139364D01*
X51351Y139412D01*
X51364Y139427D01*
X51381Y139437D01*
X51449Y139516D01*
X51520Y139591D01*
X51528Y139609D01*
X51541Y139624D01*
X51568Y139690D01*
X52341Y140463D01*
X52394Y140537D01*
X52453Y140606D01*
X52465Y140636D01*
X52484Y140663D01*
X52511Y140750D01*
X52545Y140834D01*
X52550Y140875D01*
X52557Y140898D01*
X52556Y140930D01*
X52564Y141001D01*
X52564Y141707D01*
X52561Y141726D01*
X52563Y141745D01*
X52541Y141847D01*
X52524Y141950D01*
X52515Y141967D01*
X52511Y141986D01*
X52458Y142075D01*
X52409Y142167D01*
X52395Y142181D01*
X52385Y142197D01*
X52306Y142265D01*
X52231Y142337D01*
X52213Y142345D01*
X52198Y142357D01*
X52102Y142397D01*
X52007Y142440D01*
X51988Y142443D01*
X51970Y142450D01*
X51896Y142458D01*
X50322Y144038D01*
X50330Y148846D01*
X51899Y150410D01*
X57307Y150400D01*
X58871Y148831D01*
X58863Y144023D01*
X57276Y142441D01*
X57251Y142436D01*
X57149Y142420D01*
X57131Y142410D01*
X57111Y142406D01*
X57022Y142353D01*
X56931Y142305D01*
X56917Y142290D01*
X56899Y142279D01*
X56833Y142201D01*
X56762Y142127D01*
X56753Y142108D01*
X56740Y142092D01*
X56701Y141997D01*
X56658Y141904D01*
X56655Y141883D01*
X56648Y141864D01*
X56629Y141698D01*
X56629Y141493D01*
X56644Y141403D01*
X56651Y141312D01*
X56664Y141282D01*
X56669Y141250D01*
X56712Y141170D01*
X56747Y141086D01*
X56773Y141054D01*
X56784Y141033D01*
X56807Y141011D01*
X56836Y140975D01*
X56837Y140974D01*
X56852Y140955D01*
X57066Y140741D01*
X57140Y140688D01*
X57209Y140629D01*
X57239Y140616D01*
X57266Y140598D01*
X57353Y140571D01*
X57438Y140537D01*
X57479Y140532D01*
X57501Y140525D01*
X57533Y140526D01*
X57604Y140518D01*
X59449Y140518D01*
X60193Y139774D01*
X60193Y127721D01*
X59449Y126977D01*
X59242Y126977D01*
X59222Y126973D01*
X59202Y126976D01*
X59101Y126954D01*
X58999Y126937D01*
X58981Y126928D01*
X58962Y126923D01*
X58873Y126870D01*
X58781Y126822D01*
X58768Y126807D01*
X58751Y126797D01*
X58683Y126718D01*
X58612Y126643D01*
X58604Y126625D01*
X58591Y126610D01*
X58552Y126514D01*
X58508Y126420D01*
X58506Y126401D01*
X58499Y126382D01*
X58480Y126215D01*
X58480Y123138D01*
X58467Y123095D01*
X58469Y123023D01*
X58461Y122951D01*
X58472Y122900D01*
X58473Y122849D01*
X58498Y122781D01*
X58513Y122711D01*
X58540Y122666D01*
X58557Y122618D01*
X58602Y122561D01*
X58639Y122500D01*
X58679Y122466D01*
X58711Y122425D01*
X58771Y122386D01*
X58826Y122340D01*
X58874Y122320D01*
X58918Y122292D01*
X58987Y122275D01*
X59054Y122248D01*
X59125Y122240D01*
X59156Y122232D01*
X59180Y122234D01*
X59221Y122229D01*
X61683Y122229D01*
X61918Y121994D01*
X61935Y121982D01*
X61947Y121967D01*
X62034Y121911D01*
X62118Y121850D01*
X62137Y121845D01*
X62154Y121834D01*
X62254Y121808D01*
X62353Y121778D01*
X62373Y121779D01*
X62393Y121774D01*
X62496Y121782D01*
X62599Y121784D01*
X62618Y121791D01*
X62638Y121793D01*
X62733Y121833D01*
X62830Y121869D01*
X62846Y121881D01*
X62864Y121889D01*
X62995Y121994D01*
X63230Y122229D01*
X66683Y122229D01*
X66918Y121994D01*
X66935Y121982D01*
X66947Y121967D01*
X67034Y121911D01*
X67118Y121850D01*
X67137Y121845D01*
X67154Y121834D01*
X67254Y121808D01*
X67353Y121778D01*
X67373Y121779D01*
X67393Y121774D01*
X67496Y121782D01*
X67599Y121784D01*
X67618Y121791D01*
X67638Y121793D01*
X67733Y121833D01*
X67830Y121869D01*
X67846Y121881D01*
X67864Y121889D01*
X67995Y121994D01*
X68230Y122229D01*
X71683Y122229D01*
X71918Y121994D01*
X71935Y121982D01*
X71947Y121967D01*
X72034Y121911D01*
X72118Y121850D01*
X72137Y121845D01*
X72154Y121834D01*
X72254Y121808D01*
X72353Y121778D01*
X72373Y121779D01*
X72393Y121774D01*
X72496Y121782D01*
X72599Y121784D01*
X72618Y121791D01*
X72638Y121793D01*
X72733Y121833D01*
X72830Y121869D01*
X72846Y121881D01*
X72864Y121889D01*
X72995Y121994D01*
X73230Y122229D01*
X76683Y122229D01*
X76918Y121994D01*
X76935Y121982D01*
X76947Y121967D01*
X77034Y121911D01*
X77118Y121850D01*
X77137Y121845D01*
X77154Y121834D01*
X77254Y121808D01*
X77353Y121778D01*
X77373Y121779D01*
X77393Y121774D01*
X77496Y121782D01*
G37*
G36*
X145856Y637D02*
X145856Y637D01*
X145876Y635D01*
X145977Y657D01*
X146079Y674D01*
X146097Y683D01*
X146116Y687D01*
X146205Y741D01*
X146297Y789D01*
X146310Y803D01*
X146327Y814D01*
X146395Y892D01*
X146466Y967D01*
X146474Y985D01*
X146487Y1001D01*
X146526Y1097D01*
X146570Y1190D01*
X146572Y1210D01*
X146579Y1229D01*
X146598Y1395D01*
X146598Y14905D01*
X146579Y15019D01*
X146562Y15136D01*
X146559Y15141D01*
X146558Y15147D01*
X146504Y15250D01*
X146450Y15355D01*
X146446Y15359D01*
X146443Y15365D01*
X146359Y15445D01*
X146275Y15527D01*
X146268Y15531D01*
X146265Y15534D01*
X146248Y15542D01*
X146128Y15608D01*
X145470Y15881D01*
X143683Y17667D01*
X142716Y20001D01*
X142716Y22528D01*
X143170Y23623D01*
X143196Y23736D01*
X143225Y23850D01*
X143225Y23856D01*
X143226Y23862D01*
X143215Y23979D01*
X143206Y24095D01*
X143203Y24101D01*
X143203Y24107D01*
X143155Y24214D01*
X143110Y24321D01*
X143105Y24327D01*
X143103Y24332D01*
X143090Y24345D01*
X143005Y24452D01*
X141336Y26121D01*
X139922Y27535D01*
X139922Y38610D01*
X139908Y38700D01*
X139900Y38791D01*
X139888Y38821D01*
X139883Y38853D01*
X139840Y38933D01*
X139804Y39017D01*
X139778Y39049D01*
X139768Y39070D01*
X139744Y39092D01*
X139699Y39148D01*
X137128Y41719D01*
X137128Y42843D01*
X137114Y42933D01*
X137106Y43024D01*
X137094Y43053D01*
X137089Y43085D01*
X137046Y43166D01*
X137010Y43250D01*
X136984Y43282D01*
X136974Y43303D01*
X136950Y43325D01*
X136905Y43381D01*
X136827Y43459D01*
X136753Y43512D01*
X136684Y43572D01*
X136654Y43584D01*
X136627Y43603D01*
X136540Y43629D01*
X136456Y43664D01*
X136415Y43668D01*
X136392Y43675D01*
X136360Y43674D01*
X136289Y43682D01*
X113320Y43682D01*
X111907Y45096D01*
X111820Y45182D01*
X111762Y45224D01*
X111710Y45274D01*
X111663Y45295D01*
X111621Y45326D01*
X111552Y45347D01*
X111487Y45377D01*
X111435Y45383D01*
X111386Y45398D01*
X111314Y45396D01*
X111243Y45404D01*
X111192Y45393D01*
X111140Y45392D01*
X111072Y45367D01*
X111002Y45352D01*
X110958Y45325D01*
X110909Y45307D01*
X110853Y45263D01*
X110791Y45226D01*
X110757Y45186D01*
X110717Y45154D01*
X110678Y45093D01*
X110631Y45039D01*
X110612Y44991D01*
X110584Y44947D01*
X110566Y44877D01*
X110539Y44811D01*
X110531Y44740D01*
X110523Y44708D01*
X110525Y44685D01*
X110521Y44644D01*
X110521Y44542D01*
X108235Y42256D01*
X108226Y42244D01*
X108206Y42228D01*
X108178Y42184D01*
X108142Y42146D01*
X108117Y42092D01*
X108092Y42057D01*
X108088Y42043D01*
X108073Y42021D01*
X108061Y41970D01*
X108039Y41923D01*
X108032Y41862D01*
X108019Y41821D01*
X108020Y41808D01*
X108013Y41782D01*
X108017Y41730D01*
X108012Y41679D01*
X108025Y41618D01*
X108026Y41576D01*
X108030Y41563D01*
X108032Y41537D01*
X108053Y41489D01*
X108064Y41438D01*
X108095Y41386D01*
X108110Y41345D01*
X108119Y41334D01*
X108129Y41311D01*
X108174Y41255D01*
X108190Y41227D01*
X108208Y41212D01*
X108234Y41180D01*
X109034Y40379D01*
X109108Y40326D01*
X109178Y40267D01*
X109208Y40254D01*
X109234Y40236D01*
X109321Y40209D01*
X109406Y40175D01*
X109447Y40170D01*
X109469Y40163D01*
X109501Y40164D01*
X109573Y40156D01*
X113057Y40156D01*
X114603Y38610D01*
X114619Y38598D01*
X114632Y38583D01*
X114719Y38527D01*
X114803Y38467D01*
X114822Y38461D01*
X114839Y38450D01*
X114939Y38425D01*
X115038Y38394D01*
X115058Y38395D01*
X115077Y38390D01*
X115180Y38398D01*
X115284Y38401D01*
X115303Y38407D01*
X115322Y38409D01*
X115417Y38449D01*
X115515Y38485D01*
X115530Y38497D01*
X115549Y38505D01*
X115680Y38610D01*
X117201Y40131D01*
X122609Y40131D01*
X124175Y38564D01*
X124175Y33756D01*
X122818Y32399D01*
X122806Y32382D01*
X122790Y32370D01*
X122734Y32283D01*
X122674Y32199D01*
X122668Y32180D01*
X122657Y32163D01*
X122632Y32063D01*
X122602Y31964D01*
X122602Y31944D01*
X122597Y31925D01*
X122605Y31822D01*
X122608Y31718D01*
X122615Y31699D01*
X122616Y31679D01*
X122657Y31585D01*
X122661Y31572D01*
X122663Y31566D01*
X122665Y31562D01*
X122692Y31487D01*
X122705Y31471D01*
X122713Y31453D01*
X122781Y31368D01*
X122789Y31355D01*
X122797Y31347D01*
X122818Y31322D01*
X124175Y29964D01*
X124175Y27016D01*
X124179Y26996D01*
X124176Y26976D01*
X124198Y26875D01*
X124215Y26773D01*
X124224Y26755D01*
X124229Y26736D01*
X124282Y26647D01*
X124330Y26555D01*
X124345Y26542D01*
X124355Y26525D01*
X124434Y26457D01*
X124509Y26386D01*
X124527Y26378D01*
X124542Y26365D01*
X124638Y26326D01*
X124732Y26282D01*
X124751Y26280D01*
X124770Y26273D01*
X124937Y26254D01*
X126458Y26254D01*
X128521Y24192D01*
X128521Y23149D01*
X128524Y23129D01*
X128522Y23110D01*
X128544Y23008D01*
X128560Y22906D01*
X128570Y22889D01*
X128574Y22869D01*
X128627Y22780D01*
X128676Y22689D01*
X128690Y22675D01*
X128700Y22658D01*
X128779Y22591D01*
X128854Y22520D01*
X128872Y22511D01*
X128887Y22498D01*
X128983Y22459D01*
X129077Y22416D01*
X129097Y22414D01*
X129115Y22406D01*
X129282Y22388D01*
X137564Y22388D01*
X139187Y20765D01*
X139187Y11469D01*
X137564Y9846D01*
X128269Y9846D01*
X126646Y11469D01*
X126646Y13323D01*
X126642Y13343D01*
X126645Y13363D01*
X126623Y13464D01*
X126606Y13566D01*
X126597Y13583D01*
X126592Y13603D01*
X126539Y13692D01*
X126491Y13783D01*
X126476Y13797D01*
X126466Y13814D01*
X126387Y13881D01*
X126312Y13953D01*
X126294Y13961D01*
X126279Y13974D01*
X126183Y14013D01*
X126089Y14056D01*
X126070Y14058D01*
X126051Y14066D01*
X125884Y14084D01*
X125280Y14084D01*
X125261Y14081D01*
X125241Y14083D01*
X125139Y14061D01*
X125037Y14045D01*
X125020Y14035D01*
X125000Y14031D01*
X124911Y13978D01*
X124820Y13930D01*
X124806Y13915D01*
X124789Y13905D01*
X124722Y13826D01*
X124651Y13751D01*
X124642Y13733D01*
X124629Y13718D01*
X124591Y13622D01*
X124547Y13528D01*
X124545Y13508D01*
X124537Y13490D01*
X124523Y13356D01*
X122952Y11786D01*
X118144Y11786D01*
X116786Y13143D01*
X116770Y13155D01*
X116758Y13171D01*
X116670Y13227D01*
X116587Y13287D01*
X116568Y13293D01*
X116551Y13304D01*
X116450Y13329D01*
X116352Y13359D01*
X116332Y13359D01*
X116312Y13364D01*
X116209Y13356D01*
X116106Y13353D01*
X116087Y13346D01*
X116067Y13345D01*
X115972Y13304D01*
X115875Y13269D01*
X115859Y13256D01*
X115841Y13248D01*
X115710Y13143D01*
X114352Y11786D01*
X109544Y11786D01*
X107962Y13368D01*
X107954Y13403D01*
X107938Y13505D01*
X107928Y13523D01*
X107924Y13542D01*
X107871Y13631D01*
X107823Y13723D01*
X107808Y13736D01*
X107798Y13753D01*
X107719Y13821D01*
X107644Y13892D01*
X107626Y13900D01*
X107611Y13913D01*
X107515Y13952D01*
X107421Y13996D01*
X107401Y13998D01*
X107383Y14005D01*
X107216Y14024D01*
X106214Y14024D01*
X106124Y14009D01*
X106033Y14002D01*
X106003Y13989D01*
X105971Y13984D01*
X105890Y13941D01*
X105806Y13905D01*
X105774Y13880D01*
X105754Y13869D01*
X105731Y13845D01*
X105675Y13801D01*
X104744Y12869D01*
X104691Y12795D01*
X104631Y12726D01*
X104619Y12695D01*
X104600Y12669D01*
X104573Y12582D01*
X104539Y12497D01*
X104535Y12456D01*
X104528Y12434D01*
X104529Y12402D01*
X104521Y12331D01*
X104521Y10542D01*
X102458Y8479D01*
X99542Y8479D01*
X97479Y10542D01*
X97479Y13458D01*
X99542Y15521D01*
X101331Y15521D01*
X101421Y15535D01*
X101512Y15543D01*
X101541Y15555D01*
X101573Y15560D01*
X101654Y15603D01*
X101738Y15639D01*
X101770Y15665D01*
X101791Y15676D01*
X101813Y15699D01*
X101869Y15744D01*
X104214Y18089D01*
X107216Y18089D01*
X107236Y18092D01*
X107256Y18090D01*
X107357Y18112D01*
X107459Y18129D01*
X107477Y18138D01*
X107496Y18142D01*
X107585Y18196D01*
X107676Y18244D01*
X107690Y18258D01*
X107707Y18269D01*
X107775Y18347D01*
X107846Y18422D01*
X107854Y18440D01*
X107867Y18455D01*
X107906Y18552D01*
X107949Y18645D01*
X107952Y18665D01*
X107959Y18684D01*
X107966Y18749D01*
X109544Y20327D01*
X114352Y20327D01*
X115710Y18969D01*
X115726Y18958D01*
X115739Y18942D01*
X115826Y18886D01*
X115910Y18826D01*
X115929Y18820D01*
X115945Y18809D01*
X116046Y18784D01*
X116145Y18753D01*
X116165Y18754D01*
X116184Y18749D01*
X116287Y18757D01*
X116391Y18760D01*
X116409Y18767D01*
X116429Y18768D01*
X116524Y18809D01*
X116622Y18844D01*
X116637Y18857D01*
X116656Y18864D01*
X116786Y18969D01*
X118144Y20327D01*
X120718Y20327D01*
X120738Y20330D01*
X120757Y20328D01*
X120859Y20350D01*
X120961Y20367D01*
X120978Y20376D01*
X120998Y20380D01*
X121087Y20434D01*
X121178Y20482D01*
X121192Y20496D01*
X121209Y20507D01*
X121276Y20585D01*
X121348Y20660D01*
X121356Y20678D01*
X121369Y20693D01*
X121408Y20790D01*
X121451Y20883D01*
X121453Y20903D01*
X121461Y20922D01*
X121479Y21088D01*
X121479Y22828D01*
X121476Y22848D01*
X121478Y22868D01*
X121456Y22969D01*
X121440Y23071D01*
X121430Y23089D01*
X121426Y23108D01*
X121373Y23197D01*
X121324Y23288D01*
X121310Y23302D01*
X121300Y23319D01*
X121221Y23387D01*
X121146Y23458D01*
X121128Y23466D01*
X121113Y23479D01*
X121017Y23518D01*
X120923Y23561D01*
X120903Y23564D01*
X120885Y23571D01*
X120718Y23590D01*
X117201Y23590D01*
X115634Y25156D01*
X115634Y29964D01*
X116992Y31322D01*
X117003Y31338D01*
X117019Y31351D01*
X117049Y31397D01*
X117068Y31417D01*
X117082Y31448D01*
X117135Y31522D01*
X117141Y31541D01*
X117152Y31558D01*
X117177Y31658D01*
X117208Y31757D01*
X117207Y31777D01*
X117212Y31796D01*
X117204Y31899D01*
X117201Y32003D01*
X117194Y32022D01*
X117193Y32041D01*
X117152Y32136D01*
X117117Y32234D01*
X117104Y32249D01*
X117096Y32268D01*
X116992Y32399D01*
X115655Y33736D01*
X115639Y33747D01*
X115626Y33763D01*
X115539Y33819D01*
X115455Y33879D01*
X115436Y33885D01*
X115419Y33896D01*
X115319Y33921D01*
X115220Y33952D01*
X115200Y33951D01*
X115181Y33956D01*
X115078Y33948D01*
X114974Y33945D01*
X114955Y33938D01*
X114935Y33937D01*
X114841Y33896D01*
X114743Y33861D01*
X114727Y33848D01*
X114709Y33840D01*
X114578Y33736D01*
X113057Y32215D01*
X107649Y32215D01*
X106101Y33763D01*
X106085Y33775D01*
X106072Y33790D01*
X105985Y33847D01*
X105901Y33907D01*
X105882Y33913D01*
X105865Y33923D01*
X105765Y33949D01*
X105666Y33979D01*
X105646Y33979D01*
X105627Y33984D01*
X105524Y33975D01*
X105420Y33973D01*
X105401Y33966D01*
X105381Y33964D01*
X105287Y33924D01*
X105189Y33888D01*
X105173Y33876D01*
X105155Y33868D01*
X105024Y33763D01*
X103463Y32203D01*
X98056Y32203D01*
X97611Y32648D01*
X97536Y32701D01*
X97467Y32760D01*
X97437Y32772D01*
X97411Y32791D01*
X97324Y32818D01*
X97239Y32852D01*
X97198Y32857D01*
X97176Y32863D01*
X97144Y32863D01*
X97072Y32871D01*
X95844Y32871D01*
X95754Y32856D01*
X95663Y32849D01*
X95633Y32836D01*
X95601Y32831D01*
X95521Y32788D01*
X95437Y32752D01*
X95405Y32727D01*
X95384Y32716D01*
X95362Y32692D01*
X95306Y32648D01*
X94358Y31699D01*
X94304Y31625D01*
X94245Y31556D01*
X94233Y31526D01*
X94214Y31499D01*
X94187Y31412D01*
X94153Y31328D01*
X94148Y31287D01*
X94142Y31264D01*
X94142Y31232D01*
X94135Y31161D01*
X94135Y26035D01*
X91926Y23826D01*
X79733Y23826D01*
X79652Y23813D01*
X79571Y23809D01*
X79532Y23794D01*
X79490Y23787D01*
X79418Y23749D01*
X79342Y23719D01*
X79310Y23691D01*
X79273Y23672D01*
X79217Y23613D01*
X79154Y23560D01*
X79132Y23524D01*
X79103Y23493D01*
X79069Y23419D01*
X79027Y23350D01*
X79017Y23308D01*
X79000Y23270D01*
X78991Y23189D01*
X78973Y23110D01*
X78977Y23068D01*
X78973Y23026D01*
X78990Y22946D01*
X78998Y22865D01*
X79016Y22827D01*
X79025Y22785D01*
X79067Y22715D01*
X79100Y22641D01*
X79136Y22599D01*
X79151Y22574D01*
X79165Y22562D01*
X79165Y21881D01*
X79166Y21873D01*
X79165Y21861D01*
X79229Y19391D01*
X78753Y18914D01*
X78748Y18908D01*
X78739Y18900D01*
X78332Y18471D01*
X78286Y18404D01*
X78233Y18342D01*
X78217Y18303D01*
X78194Y18268D01*
X78192Y18263D01*
X77048Y17119D01*
X77044Y17113D01*
X77035Y17105D01*
X75907Y15917D01*
X75847Y15892D01*
X75804Y15857D01*
X75779Y15843D01*
X75760Y15822D01*
X75716Y15787D01*
X74438Y14509D01*
X74385Y14435D01*
X74326Y14365D01*
X74313Y14335D01*
X74295Y14309D01*
X74268Y14222D01*
X74234Y14137D01*
X74229Y14096D01*
X74222Y14074D01*
X74223Y14042D01*
X74215Y13971D01*
X74215Y7242D01*
X71825Y4852D01*
X71813Y4836D01*
X71798Y4823D01*
X71742Y4736D01*
X71681Y4652D01*
X71675Y4633D01*
X71665Y4617D01*
X71639Y4516D01*
X71609Y4417D01*
X71609Y4397D01*
X71605Y4378D01*
X71613Y4275D01*
X71615Y4171D01*
X71622Y4153D01*
X71624Y4133D01*
X71664Y4038D01*
X71700Y3940D01*
X71712Y3925D01*
X71720Y3906D01*
X71825Y3776D01*
X73514Y2086D01*
X73777Y1452D01*
X73815Y1391D01*
X73844Y1325D01*
X73879Y1287D01*
X73906Y1243D01*
X73962Y1197D01*
X74010Y1144D01*
X74056Y1119D01*
X74096Y1086D01*
X74163Y1060D01*
X74226Y1026D01*
X74277Y1016D01*
X74326Y998D01*
X74397Y995D01*
X74468Y982D01*
X74519Y990D01*
X74571Y987D01*
X74640Y1007D01*
X74711Y1018D01*
X74758Y1041D01*
X74808Y1056D01*
X74866Y1097D01*
X74930Y1129D01*
X74967Y1166D01*
X75010Y1196D01*
X75052Y1254D01*
X75103Y1305D01*
X75137Y1368D01*
X75156Y1393D01*
X75164Y1416D01*
X75183Y1452D01*
X75446Y2086D01*
X77233Y3873D01*
X79567Y4840D01*
X82093Y4840D01*
X84428Y3873D01*
X86214Y2086D01*
X86477Y1452D01*
X86515Y1391D01*
X86544Y1325D01*
X86579Y1287D01*
X86606Y1243D01*
X86662Y1197D01*
X86710Y1144D01*
X86756Y1119D01*
X86796Y1086D01*
X86863Y1060D01*
X86926Y1026D01*
X86977Y1016D01*
X87025Y998D01*
X87097Y995D01*
X87168Y982D01*
X87219Y990D01*
X87271Y987D01*
X87340Y1007D01*
X87411Y1018D01*
X87457Y1041D01*
X87507Y1056D01*
X87566Y1097D01*
X87630Y1129D01*
X87667Y1166D01*
X87710Y1196D01*
X87752Y1254D01*
X87803Y1305D01*
X87837Y1368D01*
X87856Y1393D01*
X87864Y1416D01*
X87883Y1452D01*
X88146Y2086D01*
X89933Y3873D01*
X92267Y4840D01*
X94793Y4840D01*
X97128Y3873D01*
X98914Y2086D01*
X99177Y1452D01*
X99215Y1391D01*
X99244Y1325D01*
X99279Y1287D01*
X99306Y1243D01*
X99362Y1197D01*
X99410Y1144D01*
X99456Y1119D01*
X99496Y1086D01*
X99563Y1060D01*
X99626Y1026D01*
X99677Y1016D01*
X99725Y998D01*
X99797Y995D01*
X99868Y982D01*
X99919Y990D01*
X99971Y987D01*
X100040Y1007D01*
X100111Y1018D01*
X100157Y1041D01*
X100207Y1056D01*
X100266Y1097D01*
X100330Y1129D01*
X100367Y1166D01*
X100410Y1196D01*
X100452Y1254D01*
X100503Y1305D01*
X100537Y1368D01*
X100556Y1393D01*
X100564Y1416D01*
X100583Y1452D01*
X100846Y2086D01*
X102633Y3873D01*
X104967Y4840D01*
X107493Y4840D01*
X109828Y3873D01*
X111614Y2086D01*
X111877Y1452D01*
X111915Y1391D01*
X111944Y1325D01*
X111979Y1287D01*
X112006Y1243D01*
X112062Y1197D01*
X112110Y1144D01*
X112156Y1119D01*
X112196Y1086D01*
X112263Y1060D01*
X112326Y1026D01*
X112377Y1016D01*
X112425Y998D01*
X112497Y995D01*
X112568Y982D01*
X112619Y990D01*
X112671Y987D01*
X112740Y1007D01*
X112811Y1018D01*
X112857Y1041D01*
X112907Y1056D01*
X112966Y1097D01*
X113030Y1129D01*
X113067Y1166D01*
X113110Y1196D01*
X113152Y1254D01*
X113203Y1305D01*
X113237Y1368D01*
X113256Y1393D01*
X113264Y1416D01*
X113283Y1452D01*
X113546Y2086D01*
X115333Y3873D01*
X117667Y4840D01*
X120193Y4840D01*
X122528Y3873D01*
X124314Y2086D01*
X124721Y1104D01*
X124783Y1004D01*
X124842Y905D01*
X124847Y900D01*
X124850Y895D01*
X124941Y820D01*
X125029Y745D01*
X125035Y742D01*
X125040Y738D01*
X125148Y697D01*
X125257Y653D01*
X125265Y652D01*
X125270Y650D01*
X125288Y649D01*
X125424Y634D01*
X145837Y634D01*
X145856Y637D01*
G37*
G36*
X142286Y98773D02*
X142286Y98773D01*
X142364Y98775D01*
X142407Y98791D01*
X142453Y98798D01*
X142522Y98833D01*
X142595Y98860D01*
X142631Y98889D01*
X142672Y98909D01*
X142727Y98965D01*
X142787Y99014D01*
X142812Y99052D01*
X142844Y99085D01*
X142910Y99205D01*
X142920Y99220D01*
X142922Y99225D01*
X142925Y99232D01*
X143683Y101062D01*
X145470Y102848D01*
X146104Y103111D01*
X146165Y103149D01*
X146231Y103178D01*
X146269Y103213D01*
X146313Y103241D01*
X146359Y103296D01*
X146412Y103345D01*
X146437Y103390D01*
X146470Y103430D01*
X146496Y103497D01*
X146530Y103560D01*
X146540Y103611D01*
X146558Y103660D01*
X146561Y103731D01*
X146574Y103802D01*
X146566Y103854D01*
X146569Y103906D01*
X146549Y103974D01*
X146538Y104045D01*
X146515Y104092D01*
X146500Y104142D01*
X146459Y104201D01*
X146427Y104265D01*
X146390Y104301D01*
X146360Y104344D01*
X146302Y104387D01*
X146251Y104437D01*
X146188Y104472D01*
X146162Y104491D01*
X146140Y104498D01*
X146104Y104518D01*
X145470Y104781D01*
X143683Y106567D01*
X142716Y108901D01*
X142716Y111428D01*
X143683Y113762D01*
X145470Y115548D01*
X146128Y115821D01*
X146227Y115883D01*
X146327Y115943D01*
X146332Y115947D01*
X146337Y115951D01*
X146411Y116041D01*
X146487Y116129D01*
X146490Y116135D01*
X146494Y116140D01*
X146535Y116249D01*
X146579Y116358D01*
X146580Y116365D01*
X146582Y116370D01*
X146583Y116388D01*
X146598Y116524D01*
X146598Y132786D01*
X146595Y132806D01*
X146597Y132826D01*
X146575Y132927D01*
X146558Y133029D01*
X146549Y133047D01*
X146545Y133066D01*
X146491Y133155D01*
X146443Y133247D01*
X146429Y133260D01*
X146418Y133277D01*
X146340Y133345D01*
X146265Y133416D01*
X146247Y133424D01*
X146231Y133437D01*
X146135Y133476D01*
X146042Y133520D01*
X146022Y133522D01*
X146003Y133529D01*
X145837Y133548D01*
X123984Y133548D01*
X123240Y134292D01*
X123240Y145845D01*
X123643Y146248D01*
X123685Y146306D01*
X123734Y146358D01*
X123756Y146406D01*
X123787Y146448D01*
X123808Y146516D01*
X123838Y146581D01*
X123844Y146633D01*
X123859Y146683D01*
X123857Y146755D01*
X123865Y146826D01*
X123854Y146877D01*
X123853Y146929D01*
X123828Y146996D01*
X123813Y147066D01*
X123786Y147111D01*
X123768Y147160D01*
X123723Y147216D01*
X123687Y147277D01*
X123647Y147311D01*
X123615Y147352D01*
X123554Y147391D01*
X123500Y147437D01*
X123451Y147457D01*
X123408Y147485D01*
X123338Y147502D01*
X123272Y147529D01*
X123200Y147537D01*
X123169Y147545D01*
X123146Y147543D01*
X123105Y147548D01*
X115734Y147548D01*
X114990Y148292D01*
X114990Y154281D01*
X114978Y154352D01*
X114976Y154424D01*
X114958Y154472D01*
X114950Y154524D01*
X114917Y154587D01*
X114892Y154655D01*
X114859Y154695D01*
X114835Y154741D01*
X114783Y154791D01*
X114738Y154847D01*
X114694Y154875D01*
X114657Y154911D01*
X114591Y154941D01*
X114531Y154980D01*
X114481Y154992D01*
X114434Y155014D01*
X114362Y155022D01*
X114293Y155040D01*
X114241Y155036D01*
X114189Y155041D01*
X114119Y155026D01*
X114047Y155020D01*
X114000Y155000D01*
X113949Y154989D01*
X113887Y154952D01*
X113821Y154924D01*
X113765Y154879D01*
X113738Y154863D01*
X113722Y154845D01*
X113690Y154819D01*
X113340Y154469D01*
X107869Y154469D01*
X106334Y156004D01*
X106334Y157181D01*
X106322Y157252D01*
X106320Y157324D01*
X106302Y157373D01*
X106294Y157424D01*
X106260Y157487D01*
X106236Y157555D01*
X106203Y157595D01*
X106179Y157641D01*
X106127Y157691D01*
X106082Y157747D01*
X106038Y157775D01*
X106001Y157811D01*
X105936Y157841D01*
X105875Y157880D01*
X105825Y157892D01*
X105778Y157914D01*
X105706Y157922D01*
X105637Y157940D01*
X105585Y157936D01*
X105533Y157941D01*
X105463Y157926D01*
X105392Y157921D01*
X105344Y157900D01*
X105293Y157889D01*
X105231Y157852D01*
X105165Y157824D01*
X105109Y157779D01*
X105082Y157763D01*
X105066Y157745D01*
X105034Y157719D01*
X103966Y156651D01*
X99095Y156651D01*
X97749Y157997D01*
X97733Y158009D01*
X97720Y158024D01*
X97655Y158066D01*
X97613Y158103D01*
X97589Y158112D01*
X97549Y158141D01*
X97530Y158147D01*
X97513Y158157D01*
X97415Y158182D01*
X97384Y158194D01*
X97369Y158196D01*
X97314Y158213D01*
X97294Y158213D01*
X97275Y158218D01*
X97216Y158213D01*
X97203Y158213D01*
X97191Y158211D01*
X97172Y158209D01*
X97068Y158207D01*
X97049Y158200D01*
X97029Y158198D01*
X96976Y158176D01*
X96960Y158173D01*
X96925Y158155D01*
X96837Y158122D01*
X96821Y158110D01*
X96803Y158102D01*
X96758Y158066D01*
X96743Y158058D01*
X96727Y158041D01*
X96672Y157997D01*
X95326Y156651D01*
X90455Y156651D01*
X89055Y158051D01*
X88981Y158104D01*
X88912Y158163D01*
X88882Y158175D01*
X88856Y158194D01*
X88768Y158221D01*
X88684Y158255D01*
X88643Y158260D01*
X88620Y158267D01*
X88588Y158266D01*
X88517Y158274D01*
X87758Y158274D01*
X87668Y158259D01*
X87577Y158252D01*
X87548Y158239D01*
X87516Y158234D01*
X87435Y158191D01*
X87351Y158156D01*
X87319Y158130D01*
X87298Y158119D01*
X87276Y158096D01*
X87220Y158051D01*
X86456Y157287D01*
X86445Y157271D01*
X86429Y157258D01*
X86373Y157171D01*
X86313Y157087D01*
X86307Y157068D01*
X86296Y157051D01*
X86271Y156951D01*
X86240Y156852D01*
X86241Y156832D01*
X86236Y156813D01*
X86244Y156710D01*
X86247Y156606D01*
X86254Y156587D01*
X86255Y156567D01*
X86296Y156472D01*
X86331Y156375D01*
X86344Y156359D01*
X86351Y156341D01*
X86456Y156210D01*
X87802Y154864D01*
X87802Y151273D01*
X87805Y151258D01*
X87803Y151242D01*
X87825Y151136D01*
X87842Y151030D01*
X87849Y151016D01*
X87852Y151001D01*
X87929Y150852D01*
X90552Y146895D01*
X90582Y146862D01*
X90605Y146824D01*
X90665Y146773D01*
X90719Y146714D01*
X90758Y146693D01*
X90791Y146665D01*
X90865Y146635D01*
X90935Y146597D01*
X90978Y146589D01*
X91020Y146573D01*
X91163Y146557D01*
X91177Y146554D01*
X91181Y146555D01*
X91186Y146554D01*
X92792Y146554D01*
X94327Y145019D01*
X94327Y140148D01*
X92981Y138802D01*
X92969Y138785D01*
X92954Y138773D01*
X92898Y138686D01*
X92837Y138602D01*
X92832Y138583D01*
X92821Y138566D01*
X92795Y138466D01*
X92765Y138367D01*
X92766Y138347D01*
X92761Y138328D01*
X92769Y138225D01*
X92771Y138121D01*
X92778Y138102D01*
X92780Y138082D01*
X92820Y137988D01*
X92856Y137890D01*
X92868Y137874D01*
X92876Y137856D01*
X92981Y137725D01*
X93745Y136961D01*
X93819Y136908D01*
X93888Y136849D01*
X93918Y136836D01*
X93945Y136818D01*
X94032Y136791D01*
X94117Y136757D01*
X94158Y136752D01*
X94180Y136745D01*
X94212Y136746D01*
X94283Y136738D01*
X96065Y136738D01*
X96155Y136753D01*
X96246Y136760D01*
X96276Y136773D01*
X96308Y136778D01*
X96388Y136820D01*
X96472Y136856D01*
X96504Y136882D01*
X96525Y136893D01*
X96547Y136916D01*
X96603Y136961D01*
X97367Y137725D01*
X97379Y137741D01*
X97394Y137754D01*
X97450Y137841D01*
X97511Y137925D01*
X97517Y137944D01*
X97527Y137961D01*
X97553Y138061D01*
X97583Y138160D01*
X97583Y138180D01*
X97587Y138199D01*
X97579Y138302D01*
X97577Y138406D01*
X97570Y138425D01*
X97568Y138444D01*
X97528Y138539D01*
X97492Y138637D01*
X97480Y138652D01*
X97472Y138671D01*
X97367Y138802D01*
X96021Y140148D01*
X96021Y145019D01*
X97556Y146554D01*
X103027Y146554D01*
X103881Y145701D01*
X103955Y145648D01*
X104024Y145588D01*
X104054Y145576D01*
X104080Y145557D01*
X104167Y145530D01*
X104252Y145496D01*
X104293Y145492D01*
X104315Y145485D01*
X104348Y145486D01*
X104419Y145478D01*
X106476Y145478D01*
X106566Y145493D01*
X106657Y145500D01*
X106687Y145512D01*
X106719Y145518D01*
X106800Y145560D01*
X106884Y145596D01*
X106916Y145622D01*
X106936Y145633D01*
X106959Y145656D01*
X107015Y145701D01*
X107968Y146654D01*
X113439Y146654D01*
X114974Y145119D01*
X114974Y140247D01*
X113439Y138712D01*
X107968Y138712D01*
X107015Y139665D01*
X106941Y139718D01*
X106871Y139778D01*
X106841Y139790D01*
X106815Y139809D01*
X106728Y139836D01*
X106643Y139870D01*
X106602Y139874D01*
X106580Y139881D01*
X106548Y139880D01*
X106476Y139888D01*
X104618Y139888D01*
X104528Y139874D01*
X104437Y139866D01*
X104408Y139854D01*
X104376Y139849D01*
X104295Y139806D01*
X104211Y139770D01*
X104179Y139744D01*
X104158Y139733D01*
X104136Y139710D01*
X104080Y139665D01*
X103216Y138802D01*
X103205Y138785D01*
X103189Y138773D01*
X103133Y138686D01*
X103073Y138602D01*
X103067Y138583D01*
X103056Y138566D01*
X103031Y138466D01*
X103000Y138367D01*
X103001Y138347D01*
X102996Y138328D01*
X103004Y138225D01*
X103007Y138121D01*
X103014Y138102D01*
X103015Y138082D01*
X103056Y137987D01*
X103091Y137890D01*
X103104Y137874D01*
X103112Y137856D01*
X103216Y137725D01*
X104563Y136379D01*
X104563Y131508D01*
X103027Y129973D01*
X97556Y129973D01*
X96603Y130926D01*
X96529Y130979D01*
X96460Y131038D01*
X96430Y131050D01*
X96403Y131069D01*
X96316Y131096D01*
X96232Y131130D01*
X96191Y131135D01*
X96168Y131142D01*
X96136Y131141D01*
X96065Y131149D01*
X94283Y131149D01*
X94193Y131134D01*
X94102Y131127D01*
X94072Y131114D01*
X94041Y131109D01*
X93960Y131066D01*
X93876Y131031D01*
X93844Y131005D01*
X93823Y130994D01*
X93801Y130971D01*
X93745Y130926D01*
X93011Y130191D01*
X92957Y130117D01*
X92898Y130047D01*
X92886Y130017D01*
X92867Y129992D01*
X92840Y129904D01*
X92806Y129819D01*
X92802Y129779D01*
X92795Y129757D01*
X92796Y129724D01*
X92788Y129652D01*
X92800Y122440D01*
X92814Y122356D01*
X92819Y122271D01*
X92824Y122260D01*
X92802Y120987D01*
X92803Y120981D01*
X92802Y120973D01*
X92805Y119532D01*
X92809Y116829D01*
X92659Y116685D01*
X92601Y116606D01*
X92538Y116532D01*
X92528Y116508D01*
X92513Y116487D01*
X92482Y116395D01*
X92446Y116304D01*
X92442Y116272D01*
X92436Y116253D01*
X92437Y116221D01*
X92427Y116137D01*
X92427Y114691D01*
X92431Y114671D01*
X92428Y114651D01*
X92450Y114550D01*
X92467Y114448D01*
X92476Y114430D01*
X92481Y114411D01*
X92534Y114322D01*
X92582Y114230D01*
X92597Y114217D01*
X92607Y114200D01*
X92686Y114132D01*
X92761Y114061D01*
X92779Y114053D01*
X92794Y114040D01*
X92890Y114001D01*
X92984Y113957D01*
X93003Y113955D01*
X93022Y113948D01*
X93189Y113929D01*
X94580Y113929D01*
X94651Y113941D01*
X94723Y113943D01*
X94771Y113961D01*
X94823Y113969D01*
X94886Y114003D01*
X94954Y114027D01*
X94994Y114060D01*
X95040Y114084D01*
X95089Y114136D01*
X95146Y114181D01*
X95174Y114225D01*
X95210Y114262D01*
X95240Y114328D01*
X95279Y114388D01*
X95291Y114438D01*
X95313Y114486D01*
X95321Y114557D01*
X95339Y114626D01*
X95335Y114678D01*
X95340Y114730D01*
X95325Y114800D01*
X95319Y114872D01*
X95299Y114920D01*
X95288Y114970D01*
X95251Y115032D01*
X95223Y115098D01*
X95218Y115104D01*
X95218Y118266D01*
X97436Y120484D01*
X100089Y120484D01*
X100109Y120488D01*
X100128Y120485D01*
X100230Y120507D01*
X100332Y120524D01*
X100349Y120533D01*
X100369Y120538D01*
X100458Y120591D01*
X100549Y120639D01*
X100563Y120654D01*
X100580Y120664D01*
X100647Y120743D01*
X100719Y120818D01*
X100727Y120836D01*
X100740Y120851D01*
X100779Y120947D01*
X100822Y121041D01*
X100824Y121060D01*
X100832Y121079D01*
X100850Y121246D01*
X100850Y123880D01*
X102417Y125447D01*
X107225Y125447D01*
X108792Y123880D01*
X108792Y118472D01*
X107839Y117519D01*
X107786Y117445D01*
X107726Y117376D01*
X107714Y117346D01*
X107695Y117320D01*
X107668Y117233D01*
X107634Y117148D01*
X107630Y117107D01*
X107623Y117085D01*
X107624Y117052D01*
X107616Y116981D01*
X107616Y116280D01*
X107630Y116190D01*
X107638Y116099D01*
X107650Y116069D01*
X107655Y116037D01*
X107698Y115956D01*
X107734Y115873D01*
X107760Y115840D01*
X107771Y115820D01*
X107794Y115798D01*
X107839Y115742D01*
X109397Y114184D01*
X109397Y108776D01*
X108206Y107585D01*
X108164Y107527D01*
X108114Y107475D01*
X108092Y107427D01*
X108062Y107385D01*
X108041Y107317D01*
X108011Y107252D01*
X108005Y107200D01*
X107990Y107150D01*
X107992Y107078D01*
X107984Y107007D01*
X107995Y106956D01*
X107996Y106904D01*
X108021Y106837D01*
X108036Y106767D01*
X108063Y106722D01*
X108081Y106673D01*
X108125Y106617D01*
X108162Y106556D01*
X108202Y106522D01*
X108234Y106481D01*
X108295Y106442D01*
X108349Y106396D01*
X108397Y106376D01*
X108441Y106348D01*
X108511Y106331D01*
X108577Y106304D01*
X108649Y106296D01*
X108680Y106288D01*
X108703Y106290D01*
X108744Y106285D01*
X113920Y106285D01*
X114010Y106300D01*
X114101Y106307D01*
X114131Y106320D01*
X114163Y106325D01*
X114243Y106368D01*
X114327Y106403D01*
X114359Y106429D01*
X114380Y106440D01*
X114402Y106464D01*
X114458Y106508D01*
X117310Y109360D01*
X119262Y109360D01*
X119281Y109364D01*
X119301Y109361D01*
X119402Y109383D01*
X119504Y109400D01*
X119522Y109409D01*
X119541Y109414D01*
X119631Y109467D01*
X119722Y109515D01*
X119735Y109530D01*
X119753Y109540D01*
X119820Y109619D01*
X119891Y109694D01*
X119900Y109712D01*
X119913Y109727D01*
X119951Y109823D01*
X119995Y109917D01*
X119997Y109936D01*
X120004Y109955D01*
X120023Y110122D01*
X120023Y112604D01*
X120767Y113348D01*
X122750Y113348D01*
X122769Y113352D01*
X122789Y113349D01*
X122890Y113371D01*
X122992Y113388D01*
X123010Y113397D01*
X123029Y113402D01*
X123119Y113455D01*
X123210Y113503D01*
X123223Y113518D01*
X123241Y113528D01*
X123308Y113607D01*
X123379Y113682D01*
X123388Y113700D01*
X123401Y113715D01*
X123439Y113811D01*
X123483Y113905D01*
X123485Y113924D01*
X123492Y113943D01*
X123511Y114110D01*
X123511Y116107D01*
X123496Y116197D01*
X123489Y116288D01*
X123476Y116317D01*
X123471Y116349D01*
X123428Y116430D01*
X123393Y116514D01*
X123367Y116546D01*
X123356Y116567D01*
X123333Y116589D01*
X123288Y116645D01*
X122197Y117736D01*
X122197Y123207D01*
X123732Y124742D01*
X128603Y124742D01*
X130138Y123207D01*
X130138Y117736D01*
X128603Y116201D01*
X128338Y116201D01*
X128318Y116198D01*
X128298Y116200D01*
X128197Y116178D01*
X128095Y116161D01*
X128077Y116152D01*
X128058Y116148D01*
X127969Y116094D01*
X127878Y116046D01*
X127864Y116032D01*
X127847Y116021D01*
X127779Y115943D01*
X127708Y115868D01*
X127700Y115850D01*
X127687Y115835D01*
X127648Y115738D01*
X127605Y115645D01*
X127602Y115625D01*
X127595Y115606D01*
X127576Y115440D01*
X127576Y114110D01*
X127580Y114090D01*
X127577Y114070D01*
X127599Y113969D01*
X127616Y113867D01*
X127625Y113849D01*
X127630Y113830D01*
X127683Y113741D01*
X127731Y113650D01*
X127746Y113636D01*
X127756Y113619D01*
X127835Y113551D01*
X127910Y113480D01*
X127928Y113472D01*
X127943Y113459D01*
X128039Y113420D01*
X128133Y113377D01*
X128152Y113374D01*
X128171Y113367D01*
X128338Y113348D01*
X130320Y113348D01*
X131064Y112604D01*
X131064Y102371D01*
X131079Y102281D01*
X131086Y102190D01*
X131099Y102160D01*
X131104Y102128D01*
X131147Y102047D01*
X131183Y101963D01*
X131208Y101931D01*
X131219Y101911D01*
X131243Y101888D01*
X131287Y101832D01*
X134048Y99071D01*
X134122Y99018D01*
X134192Y98959D01*
X134222Y98947D01*
X134248Y98928D01*
X134335Y98901D01*
X134420Y98867D01*
X134461Y98862D01*
X134483Y98856D01*
X134515Y98856D01*
X134587Y98848D01*
X141873Y98848D01*
X141883Y98841D01*
X141927Y98828D01*
X141967Y98806D01*
X142044Y98792D01*
X142118Y98769D01*
X142164Y98770D01*
X142209Y98762D01*
X142286Y98773D01*
G37*
G36*
X23651Y653D02*
X23651Y653D01*
X23767Y670D01*
X23773Y673D01*
X23779Y674D01*
X23881Y728D01*
X23986Y782D01*
X23991Y786D01*
X23996Y789D01*
X24076Y873D01*
X24159Y957D01*
X24162Y964D01*
X24166Y967D01*
X24173Y984D01*
X24239Y1104D01*
X24646Y2086D01*
X26433Y3873D01*
X28767Y4840D01*
X31293Y4840D01*
X33628Y3873D01*
X35414Y2086D01*
X35677Y1452D01*
X35715Y1391D01*
X35744Y1325D01*
X35779Y1287D01*
X35806Y1243D01*
X35862Y1197D01*
X35910Y1144D01*
X35956Y1119D01*
X35996Y1086D01*
X36063Y1060D01*
X36126Y1026D01*
X36177Y1016D01*
X36226Y998D01*
X36297Y995D01*
X36368Y982D01*
X36419Y990D01*
X36471Y987D01*
X36540Y1007D01*
X36611Y1018D01*
X36658Y1041D01*
X36708Y1056D01*
X36766Y1097D01*
X36830Y1129D01*
X36867Y1166D01*
X36910Y1196D01*
X36952Y1254D01*
X37003Y1305D01*
X37037Y1368D01*
X37056Y1393D01*
X37064Y1416D01*
X37083Y1452D01*
X37346Y2086D01*
X39133Y3873D01*
X39310Y3946D01*
X39349Y3970D01*
X39392Y3986D01*
X39453Y4035D01*
X39519Y4076D01*
X39548Y4111D01*
X39584Y4140D01*
X39626Y4205D01*
X39676Y4265D01*
X39692Y4308D01*
X39717Y4347D01*
X39736Y4422D01*
X39764Y4495D01*
X39766Y4541D01*
X39777Y4585D01*
X39771Y4663D01*
X39774Y4741D01*
X39762Y4785D01*
X39758Y4830D01*
X39727Y4902D01*
X39706Y4977D01*
X39680Y5015D01*
X39662Y5057D01*
X39576Y5163D01*
X39566Y5179D01*
X39561Y5182D01*
X39557Y5188D01*
X37470Y7275D01*
X37470Y15399D01*
X39679Y17607D01*
X52002Y17607D01*
X54254Y15356D01*
X54328Y15303D01*
X54396Y15244D01*
X54427Y15232D01*
X54454Y15212D01*
X54540Y15186D01*
X54624Y15152D01*
X54666Y15147D01*
X54689Y15140D01*
X54721Y15141D01*
X54791Y15133D01*
X56920Y15130D01*
X57011Y15144D01*
X57103Y15151D01*
X57132Y15164D01*
X57163Y15169D01*
X57245Y15212D01*
X57329Y15248D01*
X57360Y15273D01*
X57381Y15284D01*
X57403Y15307D01*
X57460Y15353D01*
X59683Y17575D01*
X66411Y17575D01*
X66501Y17590D01*
X66592Y17597D01*
X66621Y17610D01*
X66653Y17615D01*
X66734Y17658D01*
X66818Y17693D01*
X66850Y17719D01*
X66871Y17730D01*
X66893Y17753D01*
X66949Y17798D01*
X71369Y22218D01*
X71422Y22292D01*
X71433Y22305D01*
X71562Y22434D01*
X71604Y22492D01*
X71653Y22544D01*
X71675Y22591D01*
X71706Y22634D01*
X71727Y22702D01*
X71757Y22767D01*
X71763Y22819D01*
X71778Y22869D01*
X71776Y22941D01*
X71784Y23012D01*
X71773Y23063D01*
X71772Y23115D01*
X71747Y23182D01*
X71732Y23252D01*
X71705Y23297D01*
X71687Y23346D01*
X71643Y23402D01*
X71606Y23463D01*
X71566Y23497D01*
X71534Y23538D01*
X71473Y23577D01*
X71419Y23623D01*
X71370Y23643D01*
X71327Y23671D01*
X71257Y23688D01*
X71191Y23715D01*
X71119Y23723D01*
X71088Y23731D01*
X71065Y23729D01*
X71024Y23734D01*
X59683Y23734D01*
X57474Y25942D01*
X57474Y34066D01*
X59544Y36136D01*
X59555Y36152D01*
X59571Y36165D01*
X59627Y36252D01*
X59687Y36336D01*
X59693Y36355D01*
X59704Y36372D01*
X59729Y36472D01*
X59760Y36571D01*
X59759Y36591D01*
X59764Y36610D01*
X59756Y36713D01*
X59753Y36817D01*
X59746Y36836D01*
X59745Y36855D01*
X59704Y36950D01*
X59669Y37048D01*
X59656Y37063D01*
X59648Y37082D01*
X59544Y37213D01*
X59121Y37636D01*
X59121Y38718D01*
X59119Y38729D01*
X59120Y38736D01*
X59118Y38743D01*
X59120Y38757D01*
X59098Y38859D01*
X59081Y38961D01*
X59072Y38978D01*
X59067Y38998D01*
X59014Y39087D01*
X58966Y39178D01*
X58951Y39192D01*
X58941Y39209D01*
X58863Y39276D01*
X58788Y39348D01*
X58769Y39356D01*
X58754Y39369D01*
X58658Y39408D01*
X58564Y39451D01*
X58545Y39453D01*
X58526Y39461D01*
X58359Y39479D01*
X56887Y39479D01*
X56867Y39476D01*
X56847Y39478D01*
X56746Y39456D01*
X56644Y39440D01*
X56626Y39430D01*
X56607Y39426D01*
X56518Y39373D01*
X56427Y39324D01*
X56413Y39310D01*
X56396Y39300D01*
X56328Y39221D01*
X56257Y39146D01*
X56249Y39128D01*
X56236Y39113D01*
X56197Y39017D01*
X56154Y38923D01*
X56151Y38903D01*
X56144Y38885D01*
X56125Y38718D01*
X56125Y37731D01*
X54063Y35668D01*
X51146Y35668D01*
X49084Y37731D01*
X49084Y37907D01*
X49081Y37927D01*
X49083Y37946D01*
X49061Y38048D01*
X49044Y38150D01*
X49035Y38167D01*
X49031Y38187D01*
X48977Y38276D01*
X48929Y38367D01*
X48915Y38381D01*
X48904Y38398D01*
X48826Y38465D01*
X48751Y38536D01*
X48733Y38545D01*
X48718Y38558D01*
X48621Y38597D01*
X48528Y38640D01*
X48508Y38642D01*
X48489Y38650D01*
X48323Y38668D01*
X45974Y38668D01*
X45945Y38697D01*
X45929Y38708D01*
X45917Y38724D01*
X45829Y38780D01*
X45746Y38840D01*
X45727Y38846D01*
X45710Y38857D01*
X45609Y38882D01*
X45510Y38913D01*
X45491Y38912D01*
X45471Y38917D01*
X45368Y38909D01*
X45265Y38906D01*
X45246Y38900D01*
X45226Y38898D01*
X45131Y38858D01*
X45034Y38822D01*
X45018Y38809D01*
X45000Y38802D01*
X44869Y38697D01*
X43211Y37039D01*
X40294Y37039D01*
X39776Y37557D01*
X39760Y37568D01*
X39747Y37584D01*
X39660Y37640D01*
X39576Y37700D01*
X39557Y37706D01*
X39540Y37717D01*
X39440Y37742D01*
X39341Y37773D01*
X39321Y37772D01*
X39302Y37777D01*
X39199Y37769D01*
X39095Y37766D01*
X39076Y37759D01*
X39057Y37758D01*
X38962Y37718D01*
X38864Y37682D01*
X38849Y37669D01*
X38830Y37662D01*
X38699Y37557D01*
X37260Y36117D01*
X34347Y36117D01*
X34277Y36106D01*
X34205Y36104D01*
X34156Y36086D01*
X34105Y36078D01*
X34041Y36044D01*
X33974Y36020D01*
X33933Y35987D01*
X33887Y35963D01*
X33838Y35911D01*
X33782Y35866D01*
X33754Y35822D01*
X33718Y35784D01*
X33688Y35719D01*
X33649Y35659D01*
X33636Y35608D01*
X33614Y35561D01*
X33606Y35490D01*
X33589Y35420D01*
X33593Y35368D01*
X33587Y35317D01*
X33602Y35247D01*
X33608Y35175D01*
X33628Y35127D01*
X33639Y35076D01*
X33676Y35015D01*
X33704Y34949D01*
X33749Y34893D01*
X33766Y34865D01*
X33783Y34850D01*
X33809Y34818D01*
X34102Y34525D01*
X34102Y26533D01*
X32177Y24608D01*
X25585Y24608D01*
X23660Y26533D01*
X23660Y34525D01*
X24524Y35388D01*
X24535Y35405D01*
X24551Y35417D01*
X24607Y35504D01*
X24667Y35588D01*
X24673Y35607D01*
X24684Y35624D01*
X24709Y35724D01*
X24739Y35823D01*
X24739Y35843D01*
X24744Y35862D01*
X24736Y35965D01*
X24733Y36069D01*
X24726Y36088D01*
X24725Y36108D01*
X24684Y36203D01*
X24649Y36300D01*
X24636Y36316D01*
X24628Y36334D01*
X24524Y36465D01*
X22712Y38277D01*
X22712Y41414D01*
X24930Y43632D01*
X27033Y43632D01*
X27053Y43635D01*
X27072Y43633D01*
X27174Y43655D01*
X27276Y43672D01*
X27293Y43681D01*
X27313Y43685D01*
X27402Y43739D01*
X27493Y43787D01*
X27507Y43801D01*
X27524Y43812D01*
X27591Y43890D01*
X27662Y43965D01*
X27671Y43983D01*
X27684Y43998D01*
X27722Y44095D01*
X27766Y44188D01*
X27768Y44208D01*
X27776Y44227D01*
X27794Y44393D01*
X27794Y45540D01*
X28434Y46180D01*
X28475Y46238D01*
X28525Y46290D01*
X28547Y46337D01*
X28577Y46379D01*
X28598Y46448D01*
X28628Y46513D01*
X28634Y46565D01*
X28649Y46615D01*
X28648Y46686D01*
X28655Y46757D01*
X28644Y46808D01*
X28643Y46860D01*
X28618Y46928D01*
X28603Y46998D01*
X28577Y47043D01*
X28559Y47091D01*
X28514Y47147D01*
X28477Y47209D01*
X28437Y47243D01*
X28405Y47283D01*
X28345Y47322D01*
X28290Y47369D01*
X28242Y47388D01*
X28198Y47416D01*
X28129Y47434D01*
X28062Y47461D01*
X27991Y47469D01*
X27960Y47477D01*
X27936Y47475D01*
X27895Y47479D01*
X25542Y47479D01*
X23479Y49542D01*
X23479Y52458D01*
X24431Y53410D01*
X24443Y53427D01*
X24458Y53439D01*
X24489Y53487D01*
X24496Y53494D01*
X24501Y53505D01*
X24514Y53526D01*
X24575Y53610D01*
X24581Y53629D01*
X24591Y53646D01*
X24617Y53746D01*
X24647Y53845D01*
X24647Y53865D01*
X24652Y53884D01*
X24643Y53987D01*
X24641Y54091D01*
X24634Y54110D01*
X24632Y54130D01*
X24592Y54225D01*
X24556Y54322D01*
X24544Y54338D01*
X24536Y54356D01*
X24431Y54487D01*
X24186Y54732D01*
X24186Y55405D01*
X24174Y55476D01*
X24173Y55548D01*
X24155Y55597D01*
X24146Y55648D01*
X24113Y55712D01*
X24088Y55779D01*
X24056Y55820D01*
X24031Y55866D01*
X23979Y55915D01*
X23934Y55971D01*
X23891Y55999D01*
X23853Y56035D01*
X23788Y56065D01*
X23727Y56104D01*
X23677Y56117D01*
X23630Y56139D01*
X23558Y56146D01*
X23489Y56164D01*
X23437Y56160D01*
X23385Y56166D01*
X23315Y56150D01*
X23244Y56145D01*
X23196Y56125D01*
X23145Y56113D01*
X23083Y56077D01*
X23017Y56049D01*
X22961Y56004D01*
X22934Y55987D01*
X22919Y55969D01*
X22886Y55944D01*
X19955Y53012D01*
X19902Y52938D01*
X19842Y52869D01*
X19830Y52839D01*
X19811Y52812D01*
X19784Y52725D01*
X19750Y52640D01*
X19746Y52600D01*
X19739Y52577D01*
X19740Y52545D01*
X19732Y52474D01*
X19732Y49609D01*
X18165Y48042D01*
X12757Y48042D01*
X11190Y49609D01*
X11190Y54417D01*
X12757Y55984D01*
X15425Y55984D01*
X15515Y55999D01*
X15606Y56006D01*
X15636Y56018D01*
X15668Y56024D01*
X15748Y56066D01*
X15832Y56102D01*
X15864Y56128D01*
X15885Y56139D01*
X15907Y56162D01*
X15963Y56207D01*
X22082Y62326D01*
X22118Y62375D01*
X22360Y62614D01*
X22404Y62674D01*
X22456Y62729D01*
X22476Y62773D01*
X22505Y62813D01*
X22528Y62884D01*
X22559Y62952D01*
X22565Y63000D01*
X22580Y63047D01*
X22578Y63122D01*
X22586Y63196D01*
X22576Y63244D01*
X22575Y63293D01*
X22550Y63363D01*
X22534Y63436D01*
X22509Y63479D01*
X22492Y63525D01*
X22446Y63583D01*
X22408Y63648D01*
X22371Y63679D01*
X22340Y63718D01*
X22278Y63759D01*
X22221Y63807D01*
X22175Y63826D01*
X22134Y63853D01*
X22062Y63871D01*
X21993Y63899D01*
X21927Y63907D01*
X21896Y63915D01*
X21871Y63913D01*
X21826Y63918D01*
X17662Y63918D01*
X15995Y65585D01*
X15921Y65638D01*
X15852Y65697D01*
X15822Y65710D01*
X15795Y65728D01*
X15709Y65755D01*
X15624Y65789D01*
X15583Y65794D01*
X15560Y65801D01*
X15528Y65800D01*
X15457Y65808D01*
X12691Y65808D01*
X10947Y67552D01*
X10889Y67593D01*
X10837Y67643D01*
X10790Y67665D01*
X10747Y67695D01*
X10679Y67716D01*
X10614Y67746D01*
X10562Y67752D01*
X10512Y67767D01*
X10440Y67766D01*
X10369Y67773D01*
X10318Y67762D01*
X10266Y67761D01*
X10199Y67736D01*
X10129Y67721D01*
X10084Y67695D01*
X10035Y67677D01*
X9979Y67632D01*
X9918Y67595D01*
X9884Y67555D01*
X9843Y67523D01*
X9805Y67463D01*
X9758Y67408D01*
X9738Y67360D01*
X9710Y67316D01*
X9693Y67247D01*
X9666Y67180D01*
X9658Y67109D01*
X9650Y67077D01*
X9652Y67054D01*
X9648Y67013D01*
X9648Y52944D01*
X8234Y51530D01*
X6309Y49606D01*
X6241Y49512D01*
X6171Y49417D01*
X6169Y49411D01*
X6165Y49406D01*
X6131Y49295D01*
X6095Y49183D01*
X6095Y49177D01*
X6093Y49171D01*
X6096Y49054D01*
X6097Y48937D01*
X6099Y48930D01*
X6099Y48925D01*
X6106Y48907D01*
X6144Y48776D01*
X6597Y47681D01*
X6597Y45155D01*
X5631Y42821D01*
X3844Y41034D01*
X3210Y40771D01*
X3149Y40733D01*
X3083Y40704D01*
X3045Y40669D01*
X3001Y40642D01*
X2955Y40586D01*
X2902Y40538D01*
X2877Y40492D01*
X2844Y40452D01*
X2818Y40385D01*
X2783Y40322D01*
X2774Y40271D01*
X2756Y40223D01*
X2752Y40151D01*
X2740Y40080D01*
X2747Y40029D01*
X2745Y39977D01*
X2765Y39908D01*
X2776Y39837D01*
X2799Y39791D01*
X2814Y39741D01*
X2854Y39682D01*
X2887Y39618D01*
X2924Y39581D01*
X2954Y39539D01*
X3011Y39496D01*
X3063Y39446D01*
X3125Y39411D01*
X3151Y39392D01*
X3174Y39384D01*
X3210Y39365D01*
X3844Y39102D01*
X5631Y37315D01*
X6489Y35243D01*
X6513Y35204D01*
X6529Y35160D01*
X6578Y35100D01*
X6619Y35033D01*
X6654Y35004D01*
X6683Y34968D01*
X6748Y34926D01*
X6808Y34877D01*
X6851Y34860D01*
X6890Y34835D01*
X6965Y34816D01*
X7038Y34788D01*
X7084Y34787D01*
X7128Y34775D01*
X7206Y34781D01*
X7284Y34778D01*
X7328Y34791D01*
X7373Y34794D01*
X7445Y34825D01*
X7520Y34847D01*
X7558Y34873D01*
X7600Y34891D01*
X7706Y34976D01*
X7722Y34987D01*
X7725Y34991D01*
X7731Y34996D01*
X9185Y36450D01*
X15777Y36450D01*
X17702Y34525D01*
X17702Y26533D01*
X16111Y24942D01*
X16058Y24868D01*
X15998Y24798D01*
X15986Y24768D01*
X15967Y24742D01*
X15940Y24655D01*
X15906Y24570D01*
X15902Y24529D01*
X15895Y24507D01*
X15896Y24475D01*
X15888Y24403D01*
X15888Y22649D01*
X15891Y22629D01*
X15889Y22610D01*
X15911Y22508D01*
X15928Y22406D01*
X15937Y22389D01*
X15941Y22369D01*
X15994Y22280D01*
X16043Y22189D01*
X16057Y22175D01*
X16067Y22158D01*
X16146Y22091D01*
X16221Y22020D01*
X16239Y22011D01*
X16254Y21998D01*
X16350Y21959D01*
X16444Y21916D01*
X16464Y21914D01*
X16482Y21906D01*
X16649Y21888D01*
X17706Y21888D01*
X17796Y21903D01*
X17887Y21910D01*
X17916Y21922D01*
X17948Y21928D01*
X18029Y21970D01*
X18113Y22006D01*
X18145Y22032D01*
X18166Y22043D01*
X18171Y22048D01*
X23616Y22048D01*
X23651Y22018D01*
X23678Y22007D01*
X23702Y21990D01*
X23792Y21963D01*
X23880Y21928D01*
X23917Y21924D01*
X23937Y21918D01*
X23970Y21919D01*
X24046Y21911D01*
X27611Y21937D01*
X27698Y21952D01*
X27786Y21958D01*
X27818Y21972D01*
X27853Y21978D01*
X27931Y22020D01*
X28012Y22055D01*
X28048Y22083D01*
X28070Y22095D01*
X28091Y22118D01*
X28093Y22120D01*
X33511Y22120D01*
X35078Y20553D01*
X35078Y15745D01*
X33511Y14178D01*
X28076Y14178D01*
X28041Y14208D01*
X28014Y14218D01*
X27990Y14236D01*
X27900Y14263D01*
X27812Y14298D01*
X27775Y14302D01*
X27755Y14308D01*
X27722Y14307D01*
X27645Y14315D01*
X24081Y14289D01*
X23994Y14274D01*
X23906Y14268D01*
X23874Y14254D01*
X23839Y14248D01*
X23761Y14206D01*
X23680Y14171D01*
X23644Y14143D01*
X23622Y14131D01*
X23601Y14108D01*
X23599Y14106D01*
X18158Y14106D01*
X18100Y14156D01*
X18070Y14168D01*
X18044Y14187D01*
X17957Y14214D01*
X17872Y14248D01*
X17831Y14252D01*
X17809Y14259D01*
X17777Y14258D01*
X17706Y14266D01*
X13871Y14266D01*
X13781Y14252D01*
X13690Y14244D01*
X13661Y14232D01*
X13629Y14227D01*
X13548Y14184D01*
X13464Y14148D01*
X13432Y14122D01*
X13411Y14112D01*
X13389Y14088D01*
X13333Y14043D01*
X10976Y11687D01*
X7819Y11687D01*
X5587Y13919D01*
X5587Y15539D01*
X5576Y15610D01*
X5574Y15682D01*
X5556Y15731D01*
X5547Y15782D01*
X5514Y15845D01*
X5489Y15913D01*
X5457Y15954D01*
X5432Y16000D01*
X5380Y16049D01*
X5336Y16105D01*
X5292Y16133D01*
X5254Y16169D01*
X5189Y16199D01*
X5129Y16238D01*
X5078Y16251D01*
X5031Y16273D01*
X4960Y16280D01*
X4890Y16298D01*
X4838Y16294D01*
X4787Y16300D01*
X4716Y16284D01*
X4645Y16279D01*
X4597Y16258D01*
X4546Y16247D01*
X4485Y16211D01*
X4419Y16183D01*
X4363Y16138D01*
X4335Y16121D01*
X4320Y16103D01*
X4288Y16078D01*
X3844Y15634D01*
X3043Y15302D01*
X2943Y15240D01*
X2844Y15181D01*
X2840Y15176D01*
X2834Y15173D01*
X2759Y15082D01*
X2684Y14994D01*
X2681Y14988D01*
X2677Y14983D01*
X2636Y14875D01*
X2592Y14766D01*
X2591Y14758D01*
X2589Y14754D01*
X2588Y14735D01*
X2573Y14599D01*
X2573Y1395D01*
X2576Y1376D01*
X2574Y1356D01*
X2596Y1255D01*
X2613Y1153D01*
X2622Y1135D01*
X2627Y1116D01*
X2680Y1027D01*
X2728Y935D01*
X2743Y922D01*
X2753Y905D01*
X2831Y837D01*
X2906Y766D01*
X2924Y758D01*
X2940Y745D01*
X3036Y706D01*
X3130Y662D01*
X3149Y660D01*
X3168Y653D01*
X3335Y634D01*
X23536Y634D01*
X23651Y653D01*
G37*
G36*
X135045Y62167D02*
X135045Y62167D01*
X135136Y62174D01*
X135166Y62186D01*
X135198Y62192D01*
X135279Y62234D01*
X135363Y62270D01*
X135395Y62296D01*
X135415Y62307D01*
X135438Y62330D01*
X135494Y62375D01*
X136398Y63279D01*
X136441Y63339D01*
X136489Y63390D01*
X136497Y63407D01*
X136510Y63423D01*
X136523Y63453D01*
X136541Y63479D01*
X136563Y63549D01*
X136593Y63613D01*
X136595Y63632D01*
X136602Y63651D01*
X136607Y63692D01*
X136614Y63714D01*
X136613Y63746D01*
X136621Y63817D01*
X136621Y65624D01*
X139233Y68237D01*
X139286Y68311D01*
X139346Y68380D01*
X139358Y68410D01*
X139377Y68436D01*
X139403Y68523D01*
X139438Y68608D01*
X139442Y68649D01*
X139449Y68671D01*
X139448Y68704D01*
X139456Y68775D01*
X139456Y75774D01*
X139453Y75794D01*
X139455Y75813D01*
X139433Y75915D01*
X139416Y76017D01*
X139407Y76034D01*
X139403Y76054D01*
X139350Y76143D01*
X139301Y76234D01*
X139287Y76248D01*
X139277Y76265D01*
X139198Y76332D01*
X139123Y76403D01*
X139105Y76412D01*
X139090Y76425D01*
X138994Y76464D01*
X138900Y76507D01*
X138880Y76509D01*
X138862Y76517D01*
X138695Y76535D01*
X134072Y76535D01*
X132537Y78070D01*
X132537Y83541D01*
X134252Y85256D01*
X134305Y85330D01*
X134365Y85400D01*
X134377Y85430D01*
X134396Y85456D01*
X134423Y85543D01*
X134457Y85628D01*
X134461Y85669D01*
X134468Y85691D01*
X134467Y85723D01*
X134475Y85795D01*
X134475Y86046D01*
X134472Y86065D01*
X134474Y86085D01*
X134452Y86186D01*
X134435Y86288D01*
X134426Y86306D01*
X134422Y86326D01*
X134369Y86415D01*
X134320Y86506D01*
X134306Y86520D01*
X134296Y86537D01*
X134217Y86604D01*
X134142Y86675D01*
X134124Y86684D01*
X134109Y86697D01*
X134013Y86735D01*
X133919Y86779D01*
X133899Y86781D01*
X133881Y86789D01*
X133714Y86807D01*
X132267Y86807D01*
X131523Y87551D01*
X131523Y95532D01*
X131508Y95622D01*
X131501Y95713D01*
X131488Y95743D01*
X131483Y95775D01*
X131440Y95856D01*
X131405Y95939D01*
X131379Y95972D01*
X131368Y95992D01*
X131345Y96014D01*
X131300Y96070D01*
X129579Y97791D01*
X129505Y97845D01*
X129435Y97904D01*
X129405Y97916D01*
X129379Y97935D01*
X129292Y97962D01*
X129207Y97996D01*
X129166Y98000D01*
X129144Y98007D01*
X129112Y98006D01*
X129041Y98014D01*
X116285Y98014D01*
X115097Y99203D01*
X115023Y99256D01*
X114953Y99315D01*
X114923Y99328D01*
X114897Y99346D01*
X114810Y99373D01*
X114725Y99407D01*
X114684Y99412D01*
X114662Y99419D01*
X114630Y99418D01*
X114559Y99426D01*
X108759Y99426D01*
X108689Y99414D01*
X108617Y99412D01*
X108568Y99394D01*
X108517Y99386D01*
X108453Y99353D01*
X108386Y99328D01*
X108345Y99295D01*
X108299Y99271D01*
X108250Y99219D01*
X108194Y99174D01*
X108166Y99130D01*
X108130Y99093D01*
X108100Y99028D01*
X108061Y98967D01*
X108048Y98917D01*
X108026Y98870D01*
X108018Y98798D01*
X108001Y98729D01*
X108005Y98677D01*
X107999Y98625D01*
X108014Y98555D01*
X108020Y98484D01*
X108040Y98436D01*
X108051Y98385D01*
X108088Y98323D01*
X108116Y98257D01*
X108161Y98201D01*
X108178Y98174D01*
X108195Y98158D01*
X108221Y98126D01*
X108234Y98113D01*
X108234Y94973D01*
X108228Y94968D01*
X108172Y94881D01*
X108111Y94797D01*
X108105Y94778D01*
X108095Y94761D01*
X108069Y94661D01*
X108039Y94562D01*
X108039Y94542D01*
X108035Y94522D01*
X108043Y94419D01*
X108045Y94316D01*
X108052Y94297D01*
X108054Y94277D01*
X108094Y94182D01*
X108130Y94085D01*
X108142Y94069D01*
X108150Y94051D01*
X108255Y93920D01*
X127083Y75092D01*
X127157Y75039D01*
X127226Y74979D01*
X127257Y74967D01*
X127283Y74948D01*
X127370Y74921D01*
X127455Y74887D01*
X127495Y74883D01*
X127518Y74876D01*
X127550Y74877D01*
X127621Y74869D01*
X130028Y74869D01*
X131595Y73302D01*
X131595Y67894D01*
X130028Y66327D01*
X127621Y66327D01*
X127531Y66312D01*
X127440Y66305D01*
X127410Y66293D01*
X127379Y66287D01*
X127298Y66245D01*
X127214Y66209D01*
X127182Y66183D01*
X127161Y66172D01*
X127139Y66149D01*
X127083Y66104D01*
X126209Y65230D01*
X126156Y65156D01*
X126096Y65087D01*
X126084Y65056D01*
X126065Y65030D01*
X126038Y64943D01*
X126004Y64858D01*
X126000Y64817D01*
X125993Y64795D01*
X125994Y64763D01*
X125986Y64692D01*
X125986Y64082D01*
X125355Y63451D01*
X125313Y63393D01*
X125264Y63341D01*
X125242Y63294D01*
X125212Y63252D01*
X125191Y63183D01*
X125160Y63118D01*
X125155Y63066D01*
X125139Y63017D01*
X125141Y62945D01*
X125133Y62874D01*
X125144Y62823D01*
X125146Y62771D01*
X125170Y62703D01*
X125186Y62633D01*
X125212Y62589D01*
X125230Y62540D01*
X125275Y62484D01*
X125312Y62422D01*
X125351Y62388D01*
X125384Y62348D01*
X125444Y62309D01*
X125499Y62262D01*
X125547Y62243D01*
X125591Y62215D01*
X125660Y62197D01*
X125727Y62170D01*
X125798Y62162D01*
X125829Y62155D01*
X125853Y62156D01*
X125893Y62152D01*
X134955Y62152D01*
X135045Y62167D01*
G37*
G36*
X17554Y89164D02*
X17554Y89164D01*
X17574Y89161D01*
X17675Y89183D01*
X17777Y89200D01*
X17795Y89209D01*
X17814Y89214D01*
X17903Y89267D01*
X17994Y89315D01*
X18008Y89330D01*
X18025Y89340D01*
X18093Y89419D01*
X18164Y89494D01*
X18172Y89512D01*
X18185Y89527D01*
X18224Y89623D01*
X18267Y89717D01*
X18270Y89736D01*
X18277Y89755D01*
X18296Y89922D01*
X18296Y92203D01*
X18292Y92222D01*
X18295Y92242D01*
X18273Y92343D01*
X18256Y92445D01*
X18247Y92463D01*
X18242Y92483D01*
X18189Y92572D01*
X18141Y92663D01*
X18126Y92677D01*
X18116Y92694D01*
X18037Y92761D01*
X17962Y92832D01*
X17944Y92841D01*
X17929Y92854D01*
X17833Y92892D01*
X17739Y92936D01*
X17720Y92938D01*
X17701Y92946D01*
X17534Y92964D01*
X16989Y92964D01*
X14927Y95026D01*
X14927Y97943D01*
X16989Y100005D01*
X17166Y100005D01*
X17185Y100009D01*
X17205Y100006D01*
X17306Y100028D01*
X17408Y100045D01*
X17426Y100054D01*
X17445Y100059D01*
X17534Y100112D01*
X17626Y100160D01*
X17639Y100175D01*
X17657Y100185D01*
X17724Y100264D01*
X17795Y100339D01*
X17803Y100357D01*
X17816Y100372D01*
X17855Y100468D01*
X17899Y100562D01*
X17901Y100581D01*
X17908Y100600D01*
X17927Y100767D01*
X17927Y102248D01*
X17924Y102268D01*
X17926Y102288D01*
X17904Y102389D01*
X17887Y102491D01*
X17878Y102509D01*
X17874Y102528D01*
X17820Y102617D01*
X17772Y102708D01*
X17758Y102722D01*
X17747Y102739D01*
X17669Y102807D01*
X17594Y102878D01*
X17576Y102886D01*
X17560Y102899D01*
X17464Y102938D01*
X17371Y102981D01*
X17351Y102984D01*
X17332Y102991D01*
X17166Y103010D01*
X16853Y103010D01*
X14790Y105072D01*
X14790Y107989D01*
X16853Y110051D01*
X19463Y110051D01*
X19506Y110058D01*
X19549Y110056D01*
X19627Y110078D01*
X19706Y110091D01*
X19744Y110111D01*
X19786Y110123D01*
X19852Y110168D01*
X19923Y110206D01*
X19953Y110237D01*
X19989Y110261D01*
X20037Y110326D01*
X20093Y110384D01*
X20111Y110423D01*
X20137Y110458D01*
X20162Y110534D01*
X20196Y110607D01*
X20201Y110650D01*
X20215Y110691D01*
X20215Y110772D01*
X20224Y110852D01*
X20214Y110894D01*
X20214Y110937D01*
X20188Y111013D01*
X20171Y111092D01*
X20149Y111129D01*
X20135Y111170D01*
X20051Y111293D01*
X20045Y111303D01*
X20043Y111305D01*
X20041Y111308D01*
X18038Y113639D01*
X17947Y113716D01*
X17855Y113794D01*
X17852Y113795D01*
X17850Y113797D01*
X17740Y113840D01*
X17627Y113886D01*
X17623Y113886D01*
X17621Y113887D01*
X17609Y113888D01*
X17461Y113904D01*
X15086Y113904D01*
X13520Y115471D01*
X13520Y120879D01*
X15086Y122446D01*
X15320Y122446D01*
X15340Y122449D01*
X15359Y122447D01*
X15461Y122469D01*
X15563Y122486D01*
X15580Y122495D01*
X15600Y122499D01*
X15689Y122552D01*
X15780Y122601D01*
X15794Y122615D01*
X15811Y122625D01*
X15878Y122704D01*
X15949Y122779D01*
X15958Y122797D01*
X15971Y122812D01*
X16009Y122908D01*
X16053Y123002D01*
X16055Y123022D01*
X16063Y123040D01*
X16081Y123207D01*
X16081Y125718D01*
X16078Y125738D01*
X16080Y125757D01*
X16058Y125859D01*
X16041Y125961D01*
X16032Y125978D01*
X16028Y125998D01*
X15975Y126087D01*
X15926Y126178D01*
X15912Y126192D01*
X15902Y126209D01*
X15823Y126276D01*
X15748Y126348D01*
X15730Y126356D01*
X15715Y126369D01*
X15618Y126408D01*
X15525Y126451D01*
X15505Y126453D01*
X15487Y126461D01*
X15320Y126479D01*
X14042Y126479D01*
X13522Y126999D01*
X13506Y127011D01*
X13493Y127026D01*
X13406Y127082D01*
X13322Y127143D01*
X13303Y127148D01*
X13286Y127159D01*
X13186Y127185D01*
X13087Y127215D01*
X13067Y127214D01*
X13048Y127219D01*
X12945Y127211D01*
X12841Y127209D01*
X12822Y127202D01*
X12803Y127200D01*
X12708Y127160D01*
X12610Y127124D01*
X12595Y127112D01*
X12576Y127104D01*
X12445Y126999D01*
X10559Y125113D01*
X7642Y125113D01*
X5580Y127175D01*
X5580Y127886D01*
X5565Y127976D01*
X5558Y128067D01*
X5545Y128097D01*
X5540Y128129D01*
X5497Y128210D01*
X5462Y128294D01*
X5436Y128326D01*
X5425Y128346D01*
X5401Y128369D01*
X5357Y128425D01*
X3873Y129909D01*
X3815Y129950D01*
X3763Y130000D01*
X3715Y130022D01*
X3673Y130052D01*
X3605Y130073D01*
X3540Y130103D01*
X3488Y130109D01*
X3438Y130124D01*
X3366Y130123D01*
X3295Y130130D01*
X3244Y130119D01*
X3192Y130118D01*
X3125Y130093D01*
X3055Y130078D01*
X3010Y130052D01*
X2961Y130034D01*
X2905Y129989D01*
X2844Y129952D01*
X2810Y129912D01*
X2769Y129880D01*
X2730Y129820D01*
X2684Y129765D01*
X2664Y129717D01*
X2636Y129673D01*
X2619Y129604D01*
X2592Y129537D01*
X2584Y129466D01*
X2576Y129434D01*
X2578Y129411D01*
X2573Y129370D01*
X2573Y104461D01*
X2587Y104376D01*
X2593Y104290D01*
X2607Y104255D01*
X2613Y104218D01*
X2653Y104142D01*
X2686Y104062D01*
X2711Y104034D01*
X2728Y104001D01*
X2791Y103941D01*
X2847Y103876D01*
X2879Y103857D01*
X2906Y103832D01*
X2985Y103795D01*
X3059Y103751D01*
X3096Y103744D01*
X3130Y103728D01*
X3215Y103718D01*
X3300Y103701D01*
X3337Y103705D01*
X3374Y103701D01*
X3458Y103719D01*
X3544Y103729D01*
X3589Y103748D01*
X3614Y103753D01*
X3641Y103769D01*
X3699Y103793D01*
X6155Y105135D01*
X6175Y105150D01*
X6198Y105160D01*
X6329Y105264D01*
X7077Y106013D01*
X7569Y106013D01*
X7673Y106030D01*
X7779Y106043D01*
X7799Y106051D01*
X7812Y106053D01*
X7839Y106068D01*
X7934Y106106D01*
X8366Y106342D01*
X9382Y106044D01*
X9406Y106041D01*
X9429Y106032D01*
X9596Y106013D01*
X10655Y106013D01*
X11003Y105666D01*
X11089Y105604D01*
X11172Y105538D01*
X11192Y105530D01*
X11203Y105522D01*
X11232Y105513D01*
X11327Y105473D01*
X11799Y105335D01*
X12306Y104406D01*
X12322Y104386D01*
X12331Y104363D01*
X12436Y104232D01*
X13185Y103483D01*
X13185Y102992D01*
X13202Y102887D01*
X13215Y102782D01*
X13223Y102762D01*
X13225Y102749D01*
X13239Y102722D01*
X13278Y102627D01*
X13514Y102195D01*
X13216Y101179D01*
X13213Y101154D01*
X13204Y101131D01*
X13185Y100965D01*
X13185Y94230D01*
X13194Y94176D01*
X13193Y94122D01*
X13220Y94017D01*
X13225Y93987D01*
X13230Y93977D01*
X13235Y93959D01*
X13379Y93580D01*
X13267Y93330D01*
X13245Y93249D01*
X13215Y93170D01*
X13211Y93119D01*
X13204Y93092D01*
X13206Y93063D01*
X13200Y93003D01*
X13221Y91966D01*
X12294Y91039D01*
X12262Y90994D01*
X12222Y90956D01*
X12167Y90863D01*
X12150Y90839D01*
X12147Y90828D01*
X12137Y90812D01*
X11878Y90233D01*
X11863Y90178D01*
X11839Y90127D01*
X11832Y90060D01*
X11815Y89995D01*
X11818Y89939D01*
X11812Y89882D01*
X11826Y89817D01*
X11831Y89750D01*
X11852Y89697D01*
X11864Y89642D01*
X11899Y89584D01*
X11924Y89522D01*
X11961Y89479D01*
X11991Y89431D01*
X12041Y89387D01*
X12085Y89337D01*
X12134Y89308D01*
X12178Y89271D01*
X12240Y89246D01*
X12297Y89212D01*
X12353Y89200D01*
X12406Y89179D01*
X12508Y89168D01*
X12538Y89161D01*
X12551Y89163D01*
X12572Y89160D01*
X17534Y89160D01*
X17554Y89164D01*
G37*
G36*
X123176Y160101D02*
X123176Y160101D01*
X123247Y160103D01*
X123296Y160121D01*
X123348Y160129D01*
X123411Y160162D01*
X123478Y160187D01*
X123519Y160220D01*
X123565Y160244D01*
X123614Y160296D01*
X123670Y160341D01*
X123699Y160385D01*
X123734Y160422D01*
X123765Y160487D01*
X123803Y160548D01*
X123816Y160598D01*
X123838Y160645D01*
X123846Y160717D01*
X123863Y160786D01*
X123859Y160838D01*
X123865Y160890D01*
X123850Y160960D01*
X123844Y161031D01*
X123824Y161079D01*
X123813Y161130D01*
X123776Y161192D01*
X123748Y161258D01*
X123703Y161314D01*
X123687Y161341D01*
X123669Y161357D01*
X123643Y161389D01*
X123240Y161792D01*
X123240Y173345D01*
X123984Y174089D01*
X145837Y174089D01*
X145856Y174092D01*
X145876Y174090D01*
X145977Y174112D01*
X146079Y174129D01*
X146097Y174138D01*
X146116Y174142D01*
X146205Y174196D01*
X146297Y174244D01*
X146310Y174258D01*
X146327Y174269D01*
X146395Y174347D01*
X146466Y174422D01*
X146474Y174440D01*
X146487Y174456D01*
X146526Y174552D01*
X146570Y174645D01*
X146572Y174665D01*
X146579Y174684D01*
X146598Y174850D01*
X146598Y179669D01*
X146595Y179689D01*
X146597Y179708D01*
X146575Y179810D01*
X146558Y179912D01*
X146549Y179929D01*
X146545Y179949D01*
X146491Y180038D01*
X146443Y180129D01*
X146429Y180143D01*
X146418Y180160D01*
X146340Y180227D01*
X146265Y180298D01*
X146247Y180307D01*
X146231Y180320D01*
X146135Y180359D01*
X146042Y180402D01*
X146022Y180404D01*
X146003Y180412D01*
X145837Y180430D01*
X116270Y180430D01*
X116250Y180427D01*
X116231Y180429D01*
X116129Y180407D01*
X116027Y180390D01*
X116010Y180381D01*
X115990Y180377D01*
X115901Y180324D01*
X115810Y180275D01*
X115796Y180261D01*
X115779Y180251D01*
X115712Y180172D01*
X115640Y180097D01*
X115632Y180079D01*
X115619Y180064D01*
X115580Y179968D01*
X115537Y179874D01*
X115535Y179854D01*
X115527Y179836D01*
X115509Y179669D01*
X115509Y171789D01*
X115211Y171491D01*
X114737Y171491D01*
X114666Y171480D01*
X114595Y171478D01*
X114546Y171460D01*
X114494Y171452D01*
X114431Y171418D01*
X114364Y171393D01*
X114323Y171361D01*
X114277Y171336D01*
X114228Y171284D01*
X114172Y171240D01*
X114144Y171196D01*
X114108Y171158D01*
X114077Y171093D01*
X114039Y171033D01*
X114026Y170982D01*
X114004Y170935D01*
X113996Y170864D01*
X113979Y170794D01*
X113983Y170742D01*
X113977Y170691D01*
X113992Y170620D01*
X113998Y170549D01*
X114018Y170501D01*
X114029Y170450D01*
X114066Y170389D01*
X114094Y170323D01*
X114139Y170267D01*
X114155Y170239D01*
X114173Y170224D01*
X114199Y170192D01*
X114875Y169515D01*
X114875Y164644D01*
X113529Y163298D01*
X113517Y163282D01*
X113502Y163270D01*
X113472Y163222D01*
X113458Y163209D01*
X113447Y163185D01*
X113446Y163182D01*
X113386Y163098D01*
X113380Y163079D01*
X113369Y163063D01*
X113344Y162962D01*
X113313Y162863D01*
X113314Y162843D01*
X113309Y162824D01*
X113317Y162721D01*
X113320Y162617D01*
X113326Y162599D01*
X113328Y162579D01*
X113368Y162484D01*
X113404Y162386D01*
X113416Y162371D01*
X113424Y162353D01*
X113529Y162222D01*
X114219Y161531D01*
X114256Y161505D01*
X114287Y161472D01*
X114405Y161398D01*
X114419Y161388D01*
X114423Y161386D01*
X114429Y161383D01*
X114583Y161309D01*
X114665Y161285D01*
X114745Y161253D01*
X114794Y161248D01*
X114819Y161240D01*
X114850Y161241D01*
X114912Y161235D01*
X115262Y161235D01*
X115650Y160846D01*
X115687Y160820D01*
X115718Y160787D01*
X115836Y160713D01*
X115850Y160703D01*
X115854Y160702D01*
X115860Y160698D01*
X116976Y160164D01*
X117058Y160140D01*
X117138Y160108D01*
X117187Y160102D01*
X117212Y160095D01*
X117243Y160096D01*
X117305Y160089D01*
X123105Y160089D01*
X123176Y160101D01*
G37*
G36*
X11656Y131422D02*
X11656Y131422D01*
X11759Y131425D01*
X11778Y131432D01*
X11798Y131433D01*
X11893Y131473D01*
X11990Y131509D01*
X12006Y131522D01*
X12024Y131529D01*
X12155Y131634D01*
X14042Y133521D01*
X16958Y133521D01*
X18014Y132465D01*
X18030Y132454D01*
X18043Y132438D01*
X18130Y132382D01*
X18214Y132322D01*
X18233Y132316D01*
X18249Y132305D01*
X18350Y132280D01*
X18449Y132249D01*
X18469Y132250D01*
X18488Y132245D01*
X18591Y132253D01*
X18695Y132256D01*
X18713Y132263D01*
X18733Y132264D01*
X18828Y132304D01*
X18926Y132340D01*
X18941Y132353D01*
X18960Y132360D01*
X19090Y132465D01*
X21744Y135119D01*
X21797Y135193D01*
X21857Y135262D01*
X21869Y135293D01*
X21888Y135319D01*
X21915Y135406D01*
X21949Y135491D01*
X21953Y135532D01*
X21960Y135554D01*
X21959Y135586D01*
X21967Y135657D01*
X21967Y138687D01*
X23381Y140101D01*
X26665Y143384D01*
X26676Y143400D01*
X26692Y143413D01*
X26748Y143500D01*
X26808Y143584D01*
X26814Y143603D01*
X26825Y143620D01*
X26850Y143720D01*
X26880Y143819D01*
X26880Y143839D01*
X26885Y143858D01*
X26877Y143961D01*
X26874Y144065D01*
X26867Y144084D01*
X26866Y144103D01*
X26825Y144198D01*
X26790Y144296D01*
X26777Y144311D01*
X26769Y144330D01*
X26665Y144461D01*
X23881Y147244D01*
X22467Y148658D01*
X22467Y152650D01*
X22456Y152721D01*
X22454Y152793D01*
X22436Y152842D01*
X22428Y152893D01*
X22394Y152956D01*
X22369Y153024D01*
X22337Y153064D01*
X22312Y153111D01*
X22260Y153160D01*
X22216Y153216D01*
X22172Y153244D01*
X22134Y153280D01*
X22069Y153310D01*
X22009Y153349D01*
X21958Y153362D01*
X21911Y153384D01*
X21840Y153391D01*
X21770Y153409D01*
X21718Y153405D01*
X21667Y153411D01*
X21596Y153395D01*
X21525Y153390D01*
X21477Y153369D01*
X21426Y153358D01*
X21365Y153322D01*
X21299Y153293D01*
X21243Y153249D01*
X21215Y153232D01*
X21200Y153214D01*
X21168Y153189D01*
X20458Y152479D01*
X18546Y152479D01*
X18526Y152476D01*
X18507Y152478D01*
X18405Y152456D01*
X18303Y152440D01*
X18286Y152430D01*
X18266Y152426D01*
X18177Y152373D01*
X18086Y152324D01*
X18072Y152310D01*
X18055Y152300D01*
X17988Y152221D01*
X17917Y152146D01*
X17908Y152128D01*
X17895Y152113D01*
X17856Y152017D01*
X17813Y151923D01*
X17811Y151903D01*
X17803Y151885D01*
X17785Y151718D01*
X17785Y150073D01*
X16815Y149104D01*
X16804Y149088D01*
X16788Y149075D01*
X16732Y148988D01*
X16672Y148904D01*
X16666Y148885D01*
X16655Y148869D01*
X16630Y148768D01*
X16600Y148669D01*
X16600Y148649D01*
X16595Y148630D01*
X16603Y148527D01*
X16606Y148423D01*
X16613Y148405D01*
X16614Y148385D01*
X16655Y148290D01*
X16690Y148192D01*
X16703Y148177D01*
X16711Y148158D01*
X16815Y148027D01*
X17720Y147123D01*
X17720Y144206D01*
X16321Y142808D01*
X16310Y142791D01*
X16294Y142779D01*
X16238Y142692D01*
X16178Y142608D01*
X16172Y142589D01*
X16161Y142572D01*
X16136Y142472D01*
X16105Y142373D01*
X16106Y142353D01*
X16101Y142333D01*
X16109Y142230D01*
X16112Y142127D01*
X16119Y142108D01*
X16120Y142088D01*
X16161Y141993D01*
X16196Y141896D01*
X16209Y141880D01*
X16217Y141862D01*
X16321Y141731D01*
X17595Y140457D01*
X17595Y137541D01*
X15533Y135478D01*
X12616Y135478D01*
X12260Y135834D01*
X12202Y135876D01*
X12150Y135925D01*
X12103Y135947D01*
X12061Y135977D01*
X11992Y135999D01*
X11927Y136029D01*
X11875Y136034D01*
X11825Y136050D01*
X11754Y136048D01*
X11682Y136056D01*
X11632Y136045D01*
X11580Y136043D01*
X11512Y136019D01*
X11442Y136004D01*
X11397Y135977D01*
X11349Y135959D01*
X11293Y135914D01*
X11231Y135877D01*
X11197Y135838D01*
X11156Y135805D01*
X11118Y135745D01*
X11071Y135690D01*
X11052Y135642D01*
X11024Y135598D01*
X11006Y135529D01*
X10979Y135462D01*
X10971Y135391D01*
X10963Y135360D01*
X10965Y135337D01*
X10961Y135296D01*
X10961Y134156D01*
X10259Y133454D01*
X10217Y133395D01*
X10167Y133343D01*
X10145Y133296D01*
X10115Y133254D01*
X10094Y133185D01*
X10064Y133120D01*
X10058Y133068D01*
X10043Y133019D01*
X10045Y132947D01*
X10037Y132876D01*
X10048Y132825D01*
X10049Y132773D01*
X10074Y132705D01*
X10089Y132635D01*
X10116Y132591D01*
X10134Y132542D01*
X10178Y132486D01*
X10215Y132424D01*
X10255Y132390D01*
X10287Y132350D01*
X10348Y132311D01*
X10402Y132264D01*
X10450Y132245D01*
X10494Y132217D01*
X10497Y132216D01*
X11079Y131634D01*
X11095Y131623D01*
X11107Y131607D01*
X11194Y131551D01*
X11278Y131491D01*
X11297Y131485D01*
X11314Y131474D01*
X11415Y131449D01*
X11513Y131418D01*
X11533Y131419D01*
X11553Y131414D01*
X11656Y131422D01*
G37*
D10*
X89957Y117959D03*
X84957Y117959D03*
X79957Y117959D03*
X74957Y117959D03*
X69957Y117959D03*
X64957Y117959D03*
X59957Y117959D03*
X54957Y117959D03*
X49957Y117959D03*
X44957Y117959D03*
X39957Y117959D03*
X34957Y117959D03*
D11*
X28457Y111459D03*
X28457Y106459D03*
X28457Y101459D03*
X28457Y96459D03*
X28457Y91459D03*
X28457Y86459D03*
X28457Y81459D03*
X28457Y76459D03*
X28457Y71459D03*
X28457Y66459D03*
X28457Y61459D03*
X28457Y56459D03*
D10*
X34957Y49959D03*
X39957Y49959D03*
X44957Y49959D03*
X49957Y49959D03*
X54957Y49959D03*
X59957Y49959D03*
X64957Y49959D03*
X69957Y49959D03*
X74957Y49959D03*
X79957Y49959D03*
X84957Y49959D03*
X89957Y49959D03*
D11*
X96457Y56459D03*
X96457Y61459D03*
X96457Y66459D03*
X96457Y71459D03*
X96457Y76459D03*
X96457Y81459D03*
X96457Y86459D03*
X96457Y91459D03*
X96457Y96459D03*
X96457Y101459D03*
X96457Y106459D03*
X96457Y111459D03*
D12*
X62457Y83959D03*
D13*
X39207Y71359D03*
X39207Y83959D03*
X39207Y96559D03*
X85707Y71359D03*
X85707Y83959D03*
X85707Y96559D03*
X49857Y60709D03*
X62457Y60709D03*
X75057Y60709D03*
X49857Y107209D03*
X62457Y107209D03*
X75057Y107209D03*
X49857Y83959D03*
X62457Y83705D03*
X75057Y83959D03*
X49857Y71359D03*
X62457Y71359D03*
X75057Y71359D03*
X49857Y96559D03*
X62457Y96559D03*
X75057Y96559D03*
D14*
X19289Y10773D02*
X19289Y8181D01*
X19289Y10773D02*
X22481Y10773D01*
X22481Y8181D01*
X19289Y8181D01*
X22481Y16781D02*
X22481Y19373D01*
X22481Y16781D02*
X19289Y16781D01*
X19289Y19373D01*
X22481Y19373D01*
X29211Y10845D02*
X29211Y8253D01*
X29211Y10845D02*
X32403Y10845D01*
X32403Y8253D01*
X29211Y8253D01*
X32403Y16853D02*
X32403Y19445D01*
X32403Y16853D02*
X29211Y16853D01*
X29211Y19445D01*
X32403Y19445D01*
X121501Y34864D02*
X121501Y37456D01*
X121501Y34864D02*
X118309Y34864D01*
X118309Y37456D01*
X121501Y37456D01*
X118309Y28856D02*
X118309Y26264D01*
X118309Y28856D02*
X121501Y28856D01*
X121501Y26264D01*
X118309Y26264D01*
X108757Y26289D02*
X108757Y28881D01*
X111949Y28881D01*
X111949Y26289D01*
X108757Y26289D01*
X111949Y34889D02*
X111949Y37481D01*
X111949Y34889D02*
X108757Y34889D01*
X108757Y37481D01*
X111949Y37481D01*
X13865Y42117D02*
X13865Y44709D01*
X17057Y44709D01*
X17057Y42117D01*
X13865Y42117D01*
X17057Y50717D02*
X17057Y53309D01*
X17057Y50717D02*
X13865Y50717D01*
X13865Y53309D01*
X17057Y53309D01*
X56204Y153736D02*
X56209Y156327D01*
X56204Y153736D02*
X53013Y153741D01*
X53018Y156332D01*
X56209Y156327D01*
X53003Y147732D02*
X52998Y145141D01*
X53003Y147732D02*
X56194Y147727D01*
X56189Y145136D01*
X52998Y145141D01*
X45201Y153666D02*
X45201Y156258D01*
X45201Y153666D02*
X42009Y153666D01*
X42009Y156258D01*
X45201Y156258D01*
X42009Y147658D02*
X42009Y145066D01*
X42009Y147658D02*
X45201Y147658D01*
X45201Y145066D01*
X42009Y145066D01*
X18786Y116579D02*
X16194Y116579D01*
X16194Y119771D01*
X18786Y119771D01*
X18786Y116579D01*
X18786Y119247D02*
X16194Y119247D01*
X10186Y119771D02*
X7594Y119771D01*
X10186Y119771D02*
X10186Y116579D01*
X7594Y116579D01*
X7594Y119771D01*
X7594Y119247D02*
X10186Y119247D01*
X16991Y71075D02*
X16991Y68483D01*
X13799Y68483D01*
X13799Y71075D01*
X16991Y71075D01*
X13799Y62475D02*
X13799Y59883D01*
X13799Y62475D02*
X16991Y62475D01*
X16991Y59883D01*
X13799Y59883D01*
X126328Y72194D02*
X128920Y72194D01*
X128920Y69002D01*
X126328Y69002D01*
X126328Y72194D01*
X126328Y71670D02*
X128920Y71670D01*
X134928Y69002D02*
X137520Y69002D01*
X134928Y69002D02*
X134928Y72194D01*
X137520Y72194D01*
X137520Y69002D01*
X137520Y71670D02*
X134928Y71670D01*
X102355Y37469D02*
X102355Y34877D01*
X99163Y34877D01*
X99163Y37469D01*
X102355Y37469D01*
X99163Y28869D02*
X99163Y26277D01*
X99163Y28869D02*
X102355Y28869D01*
X102355Y26277D01*
X99163Y26277D01*
D15*
X90364Y27597D02*
X90364Y32597D01*
X90364Y27597D02*
X81164Y27597D01*
X81164Y32597D01*
X90364Y32597D01*
X90364Y32347D02*
X81164Y32347D01*
X81164Y13897D02*
X81164Y8897D01*
X81164Y13897D02*
X90364Y13897D01*
X90364Y8897D01*
X81164Y8897D01*
X81164Y13647D02*
X90364Y13647D01*
X41240Y13837D02*
X41240Y8837D01*
X41240Y13837D02*
X50440Y13837D01*
X50440Y8837D01*
X41240Y8837D01*
X41240Y13587D02*
X50440Y13587D01*
X50440Y27537D02*
X50440Y32537D01*
X50440Y27537D02*
X41240Y27537D01*
X41240Y32537D01*
X50440Y32537D01*
X50440Y32287D02*
X41240Y32287D01*
D14*
X104130Y113076D02*
X106722Y113076D01*
X106722Y109884D01*
X104130Y109884D01*
X104130Y113076D01*
X104130Y112552D02*
X106722Y112552D01*
X112730Y109884D02*
X115322Y109884D01*
X112730Y109884D02*
X112730Y113076D01*
X115322Y113076D01*
X115322Y109884D01*
X115322Y112552D02*
X112730Y112552D01*
X106117Y122772D02*
X103525Y122772D01*
X106117Y122772D02*
X106117Y119580D01*
X103525Y119580D01*
X103525Y122772D01*
X103525Y122248D02*
X106117Y122248D01*
X112125Y119580D02*
X114717Y119580D01*
X112125Y119580D02*
X112125Y122772D01*
X114717Y122772D01*
X114717Y119580D01*
X114717Y122248D02*
X112125Y122248D01*
D16*
X14417Y33165D02*
X10545Y33165D01*
X14417Y33165D02*
X14417Y27893D01*
X10545Y27893D01*
X10545Y33165D01*
X10545Y31721D02*
X14417Y31721D01*
X26945Y27893D02*
X30817Y27893D01*
X26945Y27893D02*
X26945Y33165D01*
X30817Y33165D01*
X30817Y27893D01*
X30817Y31721D02*
X26945Y31721D01*
D15*
X70444Y32504D02*
X70444Y27504D01*
X61244Y27504D01*
X61244Y32504D01*
X70444Y32504D01*
X70444Y32254D02*
X61244Y32254D01*
X61244Y13804D02*
X61244Y8804D01*
X61244Y13804D02*
X70444Y13804D01*
X70444Y8804D01*
X61244Y8804D01*
X61244Y13554D02*
X70444Y13554D01*
D17*
X125544Y107328D03*
X125544Y92828D03*
X137044Y92828D03*
X137044Y107328D03*
D18*
X81375Y132489D02*
X81375Y135189D01*
X81375Y132489D02*
X78075Y132489D01*
X78075Y135189D01*
X81375Y135189D01*
X81375Y135054D02*
X78075Y135054D01*
X81375Y141129D02*
X81375Y143829D01*
X81375Y141129D02*
X78075Y141129D01*
X78075Y143829D01*
X81375Y143829D01*
X81375Y143694D02*
X78075Y143694D01*
X71147Y135270D02*
X71147Y132570D01*
X67847Y132570D01*
X67847Y135270D01*
X71147Y135270D01*
X71147Y135135D02*
X67847Y135135D01*
X71147Y141210D02*
X71147Y143910D01*
X71147Y141210D02*
X67847Y141210D01*
X67847Y143910D01*
X71147Y143910D01*
X71147Y143775D02*
X67847Y143775D01*
X109053Y144033D02*
X109053Y141333D01*
X109053Y144033D02*
X112353Y144033D01*
X112353Y141333D01*
X109053Y141333D01*
X109053Y143898D02*
X112353Y143898D01*
X109053Y135393D02*
X109053Y132693D01*
X109053Y135393D02*
X112353Y135393D01*
X112353Y132693D01*
X109053Y132693D01*
X109053Y135258D02*
X112353Y135258D01*
X91706Y135293D02*
X91706Y132593D01*
X88406Y132593D01*
X88406Y135293D01*
X91706Y135293D01*
X91706Y135158D02*
X88406Y135158D01*
X91706Y141233D02*
X91706Y143933D01*
X91706Y141233D02*
X88406Y141233D01*
X88406Y143933D01*
X91706Y143933D01*
X91706Y143798D02*
X88406Y143798D01*
X71481Y159538D02*
X71481Y162238D01*
X74781Y162238D01*
X74781Y159538D01*
X71481Y159538D01*
X71481Y162103D02*
X74781Y162103D01*
X71481Y153598D02*
X71481Y150898D01*
X71481Y153598D02*
X74781Y153598D01*
X74781Y150898D01*
X71481Y150898D01*
X71481Y153463D02*
X74781Y153463D01*
X112244Y165728D02*
X112244Y168428D01*
X112244Y165728D02*
X108944Y165728D01*
X108944Y168428D01*
X112244Y168428D01*
X112244Y168293D02*
X108944Y168293D01*
X112244Y174368D02*
X112244Y177068D01*
X112244Y174368D02*
X108944Y174368D01*
X108944Y177068D01*
X112244Y177068D01*
X112244Y176933D02*
X108944Y176933D01*
X101942Y135293D02*
X101942Y132593D01*
X98642Y132593D01*
X98642Y135293D01*
X101942Y135293D01*
X101942Y135158D02*
X98642Y135158D01*
X101942Y141233D02*
X101942Y143933D01*
X101942Y141233D02*
X98642Y141233D01*
X98642Y143933D01*
X101942Y143933D01*
X101942Y143798D02*
X98642Y143798D01*
X85182Y151078D02*
X85182Y153778D01*
X85182Y151078D02*
X81882Y151078D01*
X81882Y153778D01*
X85182Y153778D01*
X85182Y153643D02*
X81882Y153643D01*
X85182Y159718D02*
X85182Y162418D01*
X85182Y159718D02*
X81882Y159718D01*
X81882Y162418D01*
X85182Y162418D01*
X85182Y162283D02*
X81882Y162283D01*
X91540Y159272D02*
X94240Y159272D01*
X91540Y159272D02*
X91540Y162572D01*
X94240Y162572D01*
X94240Y159272D01*
X94240Y161837D02*
X91540Y161837D01*
X100180Y159272D02*
X102880Y159272D01*
X100180Y159272D02*
X100180Y162572D01*
X102880Y162572D01*
X102880Y159272D01*
X102880Y161837D02*
X100180Y161837D01*
X135158Y82456D02*
X137858Y82456D01*
X137858Y79156D01*
X135158Y79156D01*
X135158Y82456D01*
X135158Y81721D02*
X137858Y81721D01*
X129218Y82456D02*
X126518Y82456D01*
X129218Y82456D02*
X129218Y79156D01*
X126518Y79156D01*
X126518Y82456D01*
X126518Y81721D02*
X129218Y81721D01*
X127517Y118822D02*
X124817Y118822D01*
X124817Y122122D01*
X127517Y122122D01*
X127517Y118822D01*
X127517Y121387D02*
X124817Y121387D01*
X133457Y118822D02*
X136157Y118822D01*
X133457Y118822D02*
X133457Y122122D01*
X136157Y122122D01*
X136157Y118822D01*
X136157Y121387D02*
X133457Y121387D01*
D15*
X100634Y205261D02*
X90634Y205261D01*
X100573Y205281D02*
X100573Y227281D01*
X90573Y227281D02*
X90573Y205281D01*
X100562Y227289D02*
X110562Y227289D01*
X80573Y227281D02*
X80573Y205281D01*
X70573Y205281D02*
X70573Y227281D01*
X60573Y227281D02*
X60573Y205281D01*
X50573Y205281D02*
X50573Y227281D01*
X40573Y227281D02*
X40573Y205281D01*
X30573Y205281D02*
X30573Y227281D01*
X80534Y227333D02*
X90534Y227333D01*
X80534Y205233D02*
X70534Y205233D01*
X70634Y227333D02*
X60634Y227333D01*
X30534Y227333D02*
X20534Y227333D01*
X50534Y205233D02*
X60534Y205233D01*
X50534Y227333D02*
X40534Y227333D01*
X40534Y205233D02*
X30534Y205233D01*
X110641Y184188D02*
X110641Y227188D01*
D19*
X110637Y184101D03*
D20*
X135511Y140068D03*
X135511Y167568D03*
D21*
X120261Y153818D03*
D22*
X149067Y72065D03*
X149067Y84765D03*
X149067Y59365D03*
X149067Y97465D03*
X149067Y46665D03*
X149067Y110165D03*
X149067Y33965D03*
X149067Y21265D03*
X80830Y-1511D03*
X93530Y-1511D03*
X68130Y-1511D03*
X106230Y-1511D03*
X55430Y-1511D03*
X118930Y-1511D03*
X42730Y-1511D03*
X30030Y-1511D03*
X247Y71818D03*
X247Y84518D03*
X247Y59118D03*
X247Y97218D03*
X247Y46418D03*
X247Y109918D03*
X247Y33718D03*
X247Y21018D03*
D23*
X55922Y133747D03*
X41922Y133747D03*
D24*
X31590Y136432D03*
X31590Y141432D03*
X31590Y146432D03*
X31590Y151432D03*
X6890Y151432D03*
X6890Y146432D03*
X6890Y141432D03*
X6890Y136432D03*
D25*
X19240Y143932D03*
D14*
X7171Y163600D02*
X4579Y163600D01*
X7171Y163600D02*
X7171Y160408D01*
X4579Y160408D01*
X4579Y163600D01*
X4579Y163076D02*
X7171Y163076D01*
X13179Y160408D02*
X15771Y160408D01*
X13179Y160408D02*
X13179Y163600D01*
X15771Y163600D01*
X15771Y160408D01*
X15771Y163076D02*
X13179Y163076D01*
X22356Y173219D02*
X24948Y173219D01*
X24948Y170027D01*
X22356Y170027D01*
X22356Y173219D01*
X22356Y172695D02*
X24948Y172695D01*
X30956Y170027D02*
X33548Y170027D01*
X30956Y170027D02*
X30956Y173219D01*
X33548Y173219D01*
X33548Y170027D01*
X33548Y172695D02*
X30956Y172695D01*
X24970Y163639D02*
X22378Y163639D01*
X24970Y163639D02*
X24970Y160447D01*
X22378Y160447D01*
X22378Y163639D01*
X22378Y163115D02*
X24970Y163115D01*
X30978Y160447D02*
X33570Y160447D01*
X30978Y160447D02*
X30978Y163639D01*
X33570Y163639D01*
X33570Y160447D01*
X33570Y163115D02*
X30978Y163115D01*
D26*
X129416Y30157D02*
X136416Y30157D01*
X129416Y30157D02*
X129416Y37157D01*
X136416Y37157D01*
X136416Y30157D01*
X136416Y33007D02*
X129416Y33007D01*
X129416Y35857D02*
X136416Y35857D01*
X136416Y12617D02*
X129416Y12617D01*
X129416Y19617D01*
X136416Y19617D01*
X136416Y12617D01*
X136416Y15467D02*
X129416Y15467D01*
X129416Y18317D02*
X136416Y18317D01*
D14*
X113244Y17652D02*
X110652Y17652D01*
X113244Y17652D02*
X113244Y14460D01*
X110652Y14460D01*
X110652Y17652D01*
X110652Y17128D02*
X113244Y17128D01*
X119252Y14460D02*
X121844Y14460D01*
X119252Y14460D02*
X119252Y17652D01*
X121844Y17652D01*
X121844Y14460D01*
X121844Y17128D02*
X119252Y17128D01*
X7341Y173251D02*
X4749Y173251D01*
X7341Y173251D02*
X7341Y170059D01*
X4749Y170059D01*
X4749Y173251D01*
X4749Y172727D02*
X7341Y172727D01*
X13349Y170059D02*
X15941Y170059D01*
X13349Y170059D02*
X13349Y173251D01*
X15941Y173251D01*
X15941Y170059D01*
X15941Y172727D02*
X13349Y172727D01*
D18*
X108955Y168430D02*
X108955Y165730D01*
X108955Y168430D02*
X112255Y168430D01*
X112255Y165730D01*
X108955Y165730D01*
X108955Y168295D02*
X112255Y168295D01*
X108955Y159790D02*
X108955Y157090D01*
X108955Y159790D02*
X112255Y159790D01*
X112255Y157090D01*
X108955Y157090D01*
X108955Y159655D02*
X112255Y159655D01*
D27*
X43605Y146362D02*
X43605Y140642D01*
X41922Y138960D02*
X41922Y133747D01*
X41922Y138960D02*
X43605Y140642D01*
X49957Y123096D02*
X49957Y117959D01*
X49957Y123096D02*
X49873Y123180D01*
X42000Y133670D02*
X41922Y133747D01*
X42000Y133670D02*
X42000Y126963D01*
X49873Y123180D01*
X54957Y122677D02*
X54957Y117959D01*
X54957Y122677D02*
X56448Y124168D01*
X56448Y133222D01*
X55922Y133747D01*
X54596Y140336D02*
X54596Y146434D01*
X55922Y139010D02*
X55922Y133747D01*
X55922Y139010D02*
X54596Y140336D01*
X110389Y36221D02*
X110353Y36185D01*
X85021Y49894D02*
X84957Y49959D01*
X85021Y49894D02*
X85021Y45635D01*
X87370Y43286D01*
D28*
X87370Y43286D03*
D27*
X103252Y43286D01*
X110353Y36185D01*
X119880Y36185D01*
X119905Y36160D01*
D29*
X65844Y30004D02*
X65599Y30250D01*
X65844Y30004D02*
X64607Y31242D01*
X65844Y30004D02*
X66181Y30004D01*
X67934Y30004D02*
X68761Y30832D01*
X67934Y30004D02*
X65844Y30004D01*
D30*
X74957Y43605D02*
X74957Y49959D01*
D29*
X74957Y43605D02*
X74957Y38829D01*
X66578Y30004D02*
X65844Y30004D01*
X66132Y30004D02*
X74957Y38829D01*
X66132Y30004D02*
X65844Y30004D01*
D31*
X105426Y111480D02*
X105426Y112478D01*
X105426Y112786D02*
X105426Y111480D01*
X104821Y112085D02*
X104821Y121176D01*
X104821Y112085D02*
X104821Y111300D01*
X105426Y111480D02*
X104821Y112085D01*
X99136Y116566D02*
X99005Y116698D01*
X99136Y116566D02*
X104821Y116566D01*
X104821Y121176D01*
D32*
X99005Y116698D03*
D30*
X96457Y96459D02*
X104362Y96459D01*
X104448Y96544D01*
D32*
X104448Y96544D03*
D30*
X104662Y111459D02*
X96457Y111459D01*
X104662Y111459D02*
X104821Y111300D01*
D33*
X65844Y11304D02*
X45840Y11337D01*
X74312Y19772D02*
X75378Y20895D01*
X74312Y19772D02*
X65844Y11304D01*
D32*
X75378Y20895D03*
D31*
X127624Y70598D02*
X127624Y71294D01*
D30*
X28457Y66459D02*
X18715Y66459D01*
X15395Y69779D01*
D31*
X18441Y117224D02*
X17490Y118175D01*
X106764Y91459D02*
X127624Y70598D01*
D30*
X106764Y91459D02*
X96457Y91459D01*
X15395Y74228D02*
X15395Y69779D01*
X15395Y74228D02*
X17651Y76485D01*
D32*
X17651Y76485D03*
X19868Y124965D03*
D30*
X23276Y111442D02*
X28457Y111459D01*
X23276Y111442D02*
X17490Y118175D01*
D31*
X122677Y65650D02*
X127624Y70598D01*
X122677Y65650D02*
X122199Y65650D01*
D32*
X122199Y65650D03*
X26498Y39845D03*
D29*
X88085Y30097D02*
X94161Y36173D01*
X94613Y36173D02*
X100759Y36173D01*
X94613Y36173D02*
X94161Y36173D01*
X94613Y36173D02*
X93612Y38410D01*
D32*
X93612Y38410D03*
D29*
X28881Y37463D02*
X26498Y39845D01*
X28881Y37463D02*
X28881Y30529D01*
X80924Y34768D02*
X80924Y41106D01*
D30*
X79957Y35701D02*
X80754Y34931D01*
X79957Y35701D02*
X79957Y49959D01*
D29*
X80924Y34768D02*
X85764Y30097D01*
X88085Y30097D01*
X80924Y34768D02*
X80867Y34822D01*
X80834Y34854D01*
X80754Y34931D01*
X80867Y34822D02*
X85764Y30097D01*
X80834Y34854D01*
D31*
X17490Y118175D02*
X19868Y124965D01*
D28*
X144000Y177981D03*
X137650Y177981D03*
X130800Y177981D03*
X124450Y177981D03*
X118100Y177981D03*
X102860Y177981D03*
X95740Y177981D03*
X88120Y177981D03*
X80500Y177981D03*
X72880Y177981D03*
X134610Y139881D03*
X128260Y139881D03*
X142230Y139881D03*
X134610Y167821D03*
X128260Y167821D03*
X140960Y167821D03*
X85080Y71301D03*
X85080Y84001D03*
X85080Y96701D03*
X74920Y96701D03*
X74920Y106861D03*
X62220Y106861D03*
X49520Y106861D03*
X39360Y96701D03*
X39360Y84001D03*
X39360Y71301D03*
X49520Y71301D03*
X49520Y84001D03*
X49520Y96701D03*
X49520Y61141D03*
X62220Y61141D03*
X74920Y61141D03*
X62220Y71301D03*
X62220Y84001D03*
X62220Y96701D03*
X74920Y84001D03*
X74920Y71301D03*
X62700Y132382D03*
X62700Y138907D03*
X62742Y145944D03*
X65401Y153840D03*
X79210Y125449D03*
X71320Y125449D03*
D30*
X113953Y111553D02*
X114026Y111480D01*
X113421Y121176D02*
X113421Y121565D01*
D28*
X108148Y127463D03*
D27*
X125544Y92828D02*
X125544Y91912D01*
D28*
X118408Y127463D03*
X143877Y127529D03*
X117350Y92450D03*
D30*
X16376Y43413D02*
X15461Y43413D01*
D32*
X22678Y45326D03*
D28*
X143877Y118529D03*
X126877Y127529D03*
X134877Y127529D03*
D27*
X62457Y83959D02*
X49562Y83959D01*
X49520Y84001D01*
D28*
X132782Y64559D03*
X98842Y127568D03*
D31*
X20765Y43413D02*
X15461Y43413D01*
X20765Y43413D02*
X22678Y45326D01*
D28*
X65508Y161836D03*
X65380Y177981D03*
X58880Y177981D03*
X52380Y177981D03*
X45743Y177981D03*
X39539Y178069D03*
X52870Y168314D03*
X45870Y168314D03*
X45874Y161914D03*
X52874Y161914D03*
X62700Y125382D03*
X132719Y24835D03*
X5029Y178211D03*
X12005Y178089D03*
X19177Y178089D03*
X26128Y178031D03*
X33128Y178187D03*
X118600Y170981D03*
X118600Y162981D03*
X118600Y143481D03*
X118600Y135481D03*
D27*
X19308Y144000D02*
X19240Y143932D01*
X19308Y144000D02*
X23779Y144000D01*
D28*
X23779Y144000D03*
X59374Y161914D03*
X58870Y168314D03*
X65370Y168314D03*
X72870Y168314D03*
X80370Y168314D03*
X87870Y168314D03*
X95870Y168314D03*
X102870Y168314D03*
X48870Y173314D03*
X55370Y173314D03*
X62370Y173314D03*
X69370Y173314D03*
X41870Y173314D03*
X76870Y173314D03*
X84370Y173314D03*
X91370Y173314D03*
X99370Y173314D03*
X102870Y153814D03*
X92370Y153814D03*
X97870Y149314D03*
D30*
X119905Y27560D02*
X119895Y27551D01*
D27*
X119905Y27560D02*
X120173Y27560D01*
X125000Y22734D01*
D28*
X125000Y22734D03*
D33*
X30807Y18149D02*
X20885Y18077D01*
D32*
X9398Y15497D03*
D33*
X12077Y18077D02*
X20885Y18077D01*
X12077Y18077D02*
X11978Y18077D01*
X9398Y15497D01*
X12077Y18077D02*
X12077Y30125D01*
X12481Y30529D01*
D34*
X672Y97218D02*
X247Y97218D01*
X672Y97218D02*
X8866Y101695D01*
D32*
X8866Y101695D03*
X8707Y93716D03*
D34*
X8866Y93719D02*
X8866Y101695D01*
X8866Y93719D02*
X8707Y93716D01*
X2098Y96679D02*
X428Y97037D01*
X247Y97218D01*
X2098Y96679D02*
X8707Y93716D01*
D28*
X9100Y128633D03*
D31*
X6890Y130844D01*
X6890Y136432D01*
X14475Y162004D02*
X14514Y162043D01*
X19000Y162043D01*
X23674Y162043D01*
X14475Y162004D02*
X14475Y167000D01*
X14475Y171485D01*
X14645Y171655D01*
X23674Y166500D02*
X23674Y162043D01*
X23674Y166500D02*
X23674Y171202D01*
X23674Y171601D02*
X23652Y171623D01*
X19500Y171623D01*
X14677Y171623D01*
X14645Y171655D01*
D28*
X19000Y167000D03*
D31*
X14475Y167000D01*
X19000Y167000D02*
X19500Y167500D01*
X19500Y171623D01*
X19000Y167000D02*
X23174Y167000D01*
X23674Y166500D01*
X19000Y167000D02*
X19000Y162043D01*
X23674Y162626D02*
X14645Y171655D01*
X23674Y162626D02*
X23674Y162043D01*
X23674Y171202D02*
X14475Y162004D01*
X23674Y171202D02*
X23674Y171601D01*
D27*
X32816Y49959D02*
X34957Y49959D01*
X32816Y49959D02*
X31315Y48458D01*
X31315Y44082D01*
D28*
X31315Y44082D03*
D27*
X28493Y56422D02*
X28457Y56459D01*
X28457Y52457D01*
X27000Y51000D01*
D28*
X27000Y51000D03*
D31*
X89986Y133873D02*
X90056Y133943D01*
X89986Y133873D02*
X90007Y121000D01*
X90012Y118014D01*
X89957Y117959D02*
X90007Y121000D01*
X90056Y133943D02*
X100292Y133943D01*
X100292Y133943D01*
X79725Y133839D02*
X78481Y133839D01*
X79342Y134222D02*
X79725Y133839D01*
X69624Y133793D02*
X69497Y133920D01*
X79725Y133839D02*
X79773Y133791D01*
X84963Y123073D02*
X84957Y117959D01*
X85009Y128555D02*
X79725Y133839D01*
X85009Y128555D02*
X84963Y123073D01*
X79679Y133793D02*
X79725Y133839D01*
X79679Y133793D02*
X69624Y133793D01*
X90056Y142583D02*
X90056Y142770D01*
X80219Y142973D02*
X79725Y142479D01*
X90056Y142583D02*
X90056Y143188D01*
X83532Y151759D02*
X83532Y152428D01*
X79725Y142479D01*
X90056Y142583D02*
X83532Y152428D01*
X100292Y142583D02*
X100419Y142710D01*
X100391Y142683D02*
X100292Y142583D01*
X100391Y142683D02*
X110703Y142683D01*
X83532Y161068D02*
X83351Y160888D01*
X73131Y160888D01*
X83532Y161068D02*
X92744Y161068D01*
X92890Y160922D01*
D30*
X28457Y61459D02*
X24835Y61486D01*
X15461Y52111D02*
X15461Y52013D01*
X15461Y52111D02*
X24835Y61486D01*
D27*
X21842Y91459D02*
X28457Y91459D01*
X21842Y91459D02*
X21816Y91485D01*
D28*
X21816Y91485D03*
D27*
X25044Y76459D02*
X28457Y76459D01*
X25044Y76459D02*
X20282Y81221D01*
X12024Y81221D01*
X7615Y76812D01*
X7615Y53786D01*
X247Y46418D01*
X22368Y71459D02*
X28457Y71459D01*
X22368Y71459D02*
X21839Y71987D01*
D28*
X21839Y71987D03*
D27*
X25268Y81459D02*
X28457Y81459D01*
X25268Y81459D02*
X22393Y84334D01*
X11185Y84334D02*
X247Y73395D01*
X11185Y84334D02*
X22393Y84334D01*
X247Y73395D02*
X247Y71818D01*
X24219Y86459D02*
X28457Y86459D01*
X24219Y86459D02*
X23550Y87128D01*
X2856Y87128D01*
X247Y84518D01*
X39957Y49959D02*
X39957Y45395D01*
X35802Y41240D01*
X35802Y39638D01*
D28*
X35802Y39638D03*
D27*
X44890Y49891D02*
X44957Y49959D01*
X44890Y49891D02*
X44890Y45770D01*
X41752Y42633D01*
X41752Y40560D01*
D28*
X41752Y40560D03*
D27*
X49957Y44713D02*
X49957Y49959D01*
X49957Y44713D02*
X47432Y42189D01*
D28*
X47432Y42189D03*
X52605Y39189D03*
D27*
X54957Y46050D02*
X54957Y49959D01*
X54957Y46050D02*
X52599Y43692D01*
X52599Y39195D01*
X52605Y39189D01*
X59957Y44957D02*
X59957Y49959D01*
X59957Y44957D02*
X58000Y43000D01*
D28*
X58000Y43000D03*
D27*
X32877Y171623D02*
X32252Y171623D01*
X32877Y171623D02*
X37500Y167000D01*
D28*
X37500Y167000D03*
D27*
X31590Y136432D02*
X31590Y130590D01*
X31500Y130500D01*
D28*
X31500Y130500D03*
X62641Y39094D03*
D27*
X64957Y45952D02*
X64957Y49959D01*
X64957Y45952D02*
X62737Y43733D01*
X62737Y39190D01*
X62641Y39094D01*
X69957Y44591D02*
X69957Y49959D01*
X69957Y44591D02*
X67899Y42533D01*
D28*
X67899Y42533D03*
D27*
X104000Y49000D02*
X107000Y46000D01*
X90915Y49000D02*
X89957Y49959D01*
X90915Y49000D02*
X104000Y49000D01*
D28*
X107000Y46000D03*
X108948Y81485D03*
D27*
X103974Y86459D02*
X96457Y86459D01*
X103974Y86459D02*
X108948Y81485D01*
X149067Y84765D02*
X149067Y84765D01*
X136113Y60119D02*
X121295Y60119D01*
X99956Y81459D01*
X96457Y81459D01*
X138654Y64782D02*
X138654Y62660D01*
X138654Y64782D02*
X141489Y67618D01*
X141489Y77186D02*
X145837Y81534D01*
X145718Y81652D01*
X138654Y62660D02*
X136113Y60119D01*
X141489Y67618D02*
X141489Y77186D01*
X145837Y81534D02*
X149067Y84765D01*
X149067Y72065D02*
X149067Y71153D01*
X141448Y63534D01*
X141448Y61185D02*
X137527Y57265D01*
X119571Y57265D01*
X100377Y76459D01*
X96457Y76459D01*
X141448Y63534D02*
X141448Y61185D01*
X146547Y59365D02*
X149067Y59365D01*
X146547Y59365D02*
X141604Y54421D01*
X118171Y54421D01*
X101134Y71459D02*
X96457Y71459D01*
X101134Y71459D02*
X118171Y54421D01*
X116952Y51532D02*
X144200Y51532D01*
X116952Y51532D02*
X102025Y66459D01*
X96457Y66459D01*
X144200Y51532D02*
X149067Y46665D01*
X149067Y33965D02*
X148968Y33965D01*
X102898Y61459D02*
X96457Y61459D01*
X102898Y61459D02*
X115659Y48698D01*
X136698Y48698D01*
X136738Y48738D01*
X139217Y48738D02*
X141955Y46000D01*
X141955Y43719D01*
X145837Y39837D01*
X139217Y48738D02*
X136738Y48738D01*
X145837Y37195D02*
X149067Y33965D01*
X145837Y37195D02*
X145837Y39837D01*
X103419Y56459D02*
X96457Y56459D01*
X103419Y56459D02*
X114162Y45715D01*
X141955Y28377D02*
X149067Y21265D01*
X139161Y44000D02*
X137446Y45715D01*
X139161Y44000D02*
X139161Y42561D01*
X141955Y39767D01*
X141955Y28377D01*
X137446Y45715D02*
X114162Y45715D01*
X28457Y106459D02*
X18383Y106459D01*
X18311Y106530D01*
D28*
X18311Y106530D03*
D27*
X30590Y140432D02*
X31590Y141432D01*
X27587Y141432D01*
X24000Y137845D01*
X24000Y134500D01*
X19500Y130000D01*
X15500Y130000D01*
X15000Y130000D01*
D28*
X15500Y130000D03*
D27*
X21474Y101459D02*
X28457Y101459D01*
X21474Y101459D02*
X21448Y101485D01*
D28*
X21448Y101485D03*
D27*
X14164Y151432D02*
X6890Y151432D01*
X14164Y151432D02*
X14264Y151532D01*
D28*
X14264Y151532D03*
D27*
X18474Y96459D02*
X28457Y96459D01*
X18474Y96459D02*
X18448Y96485D01*
D28*
X18448Y96485D03*
D27*
X13432Y146432D02*
X6890Y146432D01*
X13432Y146432D02*
X14199Y145665D01*
D28*
X14199Y145665D03*
D27*
X27568Y146432D02*
X31590Y146432D01*
X27568Y146432D02*
X24500Y149500D01*
X24500Y154269D01*
X32274Y162043D01*
X5875Y162004D02*
X5875Y163187D01*
X5875Y162004D02*
X6000Y161879D01*
X6000Y157500D01*
X7500Y156000D01*
X19000Y156000D01*
D28*
X19000Y156000D03*
D27*
X11641Y141432D02*
X6890Y141432D01*
X11641Y141432D02*
X14074Y138999D01*
D28*
X14074Y138999D03*
D27*
X96457Y101459D02*
X115716Y101459D01*
X130198Y100047D02*
X137044Y93201D01*
X137044Y92828D01*
X130198Y100047D02*
X117127Y100047D01*
X115716Y101459D01*
X136508Y92292D02*
X136508Y80806D01*
X136508Y92292D02*
X137044Y92828D01*
X125676Y119980D02*
X126167Y120472D01*
X125544Y107328D02*
X124520Y106304D01*
X96611Y106304D02*
X96457Y106459D01*
X102196Y106459D01*
X104402Y104253D01*
X118153Y107328D02*
X125544Y107328D01*
X115077Y104253D02*
X104402Y104253D01*
X115077Y104253D02*
X118153Y107328D01*
X125544Y107328D02*
X125544Y119848D01*
X126167Y120472D01*
X34957Y117959D02*
X34957Y123025D01*
X36574Y124643D01*
D28*
X36574Y124643D03*
D27*
X105056Y16056D02*
X111948Y16056D01*
X105056Y16056D02*
X101000Y12000D01*
D28*
X101000Y12000D03*
D27*
X120548Y16056D02*
X120609Y16117D01*
X132916Y16117D01*
D31*
X117048Y157031D02*
X114105Y158440D01*
X110605Y158440D01*
X117048Y157031D02*
X120261Y153818D01*
X110605Y167080D02*
X110602Y167078D01*
X110594Y167078D01*
X110605Y167080D02*
X110446Y166922D01*
X101530Y160922D01*
X25701Y227500D02*
X25534Y227333D01*
X25701Y227500D02*
X31000Y227500D01*
X31000Y216708D01*
X30573Y216281D01*
X30573Y205573D01*
X30000Y205000D01*
X35301Y205000D01*
X35534Y205233D01*
X39767Y205233D01*
X40500Y204500D01*
X40573Y204573D01*
X40573Y216281D01*
X40573Y226427D01*
X40000Y227000D01*
X40333Y227333D01*
X45534Y227333D01*
X50833Y227333D01*
X51000Y227500D01*
X51000Y216708D01*
X50573Y216281D01*
X50573Y206073D01*
X50000Y205500D01*
X50267Y205233D01*
X55534Y205233D01*
X60573Y216281D02*
X60573Y225427D01*
X60000Y226000D01*
X61333Y227333D01*
X65634Y227333D01*
X65801Y227500D01*
X71000Y227500D01*
X71000Y216708D01*
X70573Y216281D01*
X70573Y206073D01*
X70000Y205500D01*
X70267Y205233D01*
X75534Y205233D01*
X81267Y205233D01*
X81500Y205000D01*
X81500Y215354D01*
X80573Y216281D01*
X80573Y226427D01*
X80000Y227000D01*
X85534Y227333D02*
X90667Y227333D01*
X91000Y227000D01*
X91000Y216708D01*
X90573Y216281D01*
X90573Y207427D01*
X92739Y205261D02*
X95634Y205261D01*
X92739Y205261D02*
X90573Y207427D01*
X95634Y205261D02*
X95895Y205000D01*
X101000Y205000D01*
X101000Y215854D01*
X100573Y216281D01*
X100000Y216854D01*
X100000Y227000D01*
X100289Y227289D01*
X105562Y227289D01*
X110211Y227289D01*
X110641Y226859D02*
X110641Y205688D01*
X110641Y226859D02*
X110211Y227289D01*
X110641Y205688D02*
X110641Y184105D01*
X110637Y184101D01*
X84628Y226427D02*
X85534Y227333D01*
X84628Y226427D02*
X80573Y226427D01*
D33*
X110637Y184101D02*
X110637Y175761D01*
X110594Y175718D01*
D27*
X60733Y205233D02*
X60733Y216121D01*
X60573Y216281D01*
X60573Y205394D02*
X60733Y205233D01*
X60573Y205394D02*
X60573Y216281D01*
X60733Y205233D02*
X55534Y205233D01*
M02*
