G04 EAGLE Gerber RS-274X export*
G75*
%MOMM*%
%FSLAX34Y34*%
%LPD*%
%INCopper Layer 2*%
%IPPOS*%
%AMOC8*
5,1,8,0,0,1.08239X$1,22.5*%
G01*
%ADD10C,0.975000*%
%ADD11C,0.403200*%
%ADD12C,0.503200*%
%ADD13C,0.152400*%
%ADD14C,0.203200*%

G36*
X23873Y653D02*
X23873Y653D01*
X23989Y670D01*
X23995Y673D01*
X24001Y674D01*
X24103Y728D01*
X24208Y782D01*
X24213Y786D01*
X24218Y789D01*
X24298Y873D01*
X24380Y957D01*
X24384Y964D01*
X24388Y967D01*
X24395Y984D01*
X24461Y1104D01*
X24820Y1970D01*
X26549Y3699D01*
X28808Y4635D01*
X31253Y4635D01*
X33511Y3699D01*
X35240Y1970D01*
X35599Y1104D01*
X35660Y1005D01*
X35720Y905D01*
X35725Y900D01*
X35729Y895D01*
X35819Y821D01*
X35907Y745D01*
X35913Y742D01*
X35918Y738D01*
X36026Y697D01*
X36136Y653D01*
X36143Y652D01*
X36148Y650D01*
X36166Y649D01*
X36302Y634D01*
X36458Y634D01*
X36573Y653D01*
X36689Y670D01*
X36695Y673D01*
X36701Y674D01*
X36803Y728D01*
X36908Y782D01*
X36913Y786D01*
X36918Y789D01*
X36998Y873D01*
X37080Y957D01*
X37084Y964D01*
X37088Y967D01*
X37095Y984D01*
X37161Y1104D01*
X37520Y1970D01*
X39249Y3699D01*
X41508Y4635D01*
X43953Y4635D01*
X46211Y3699D01*
X47940Y1970D01*
X48299Y1104D01*
X48360Y1005D01*
X48420Y905D01*
X48425Y900D01*
X48429Y895D01*
X48519Y821D01*
X48607Y745D01*
X48613Y742D01*
X48618Y738D01*
X48726Y697D01*
X48836Y653D01*
X48843Y652D01*
X48848Y650D01*
X48866Y649D01*
X49002Y634D01*
X49158Y634D01*
X49273Y653D01*
X49389Y670D01*
X49395Y673D01*
X49401Y674D01*
X49503Y728D01*
X49608Y782D01*
X49613Y786D01*
X49618Y789D01*
X49698Y873D01*
X49780Y957D01*
X49784Y964D01*
X49788Y967D01*
X49795Y984D01*
X49861Y1104D01*
X50220Y1970D01*
X51949Y3699D01*
X54208Y4635D01*
X56653Y4635D01*
X58911Y3699D01*
X60640Y1970D01*
X60999Y1104D01*
X61060Y1005D01*
X61120Y905D01*
X61125Y900D01*
X61129Y895D01*
X61219Y821D01*
X61307Y745D01*
X61313Y742D01*
X61318Y738D01*
X61426Y697D01*
X61536Y653D01*
X61543Y652D01*
X61548Y650D01*
X61566Y649D01*
X61702Y634D01*
X61858Y634D01*
X61973Y653D01*
X62089Y670D01*
X62095Y673D01*
X62101Y674D01*
X62203Y728D01*
X62308Y782D01*
X62313Y786D01*
X62318Y789D01*
X62398Y873D01*
X62480Y957D01*
X62484Y964D01*
X62488Y967D01*
X62495Y984D01*
X62561Y1104D01*
X62920Y1970D01*
X64649Y3699D01*
X66908Y4635D01*
X69353Y4635D01*
X71611Y3699D01*
X73340Y1970D01*
X73699Y1104D01*
X73760Y1005D01*
X73820Y905D01*
X73825Y900D01*
X73829Y895D01*
X73919Y821D01*
X74007Y745D01*
X74013Y742D01*
X74018Y738D01*
X74126Y697D01*
X74236Y653D01*
X74243Y652D01*
X74248Y650D01*
X74266Y649D01*
X74402Y634D01*
X74558Y634D01*
X74673Y653D01*
X74789Y670D01*
X74795Y673D01*
X74801Y674D01*
X74903Y728D01*
X75008Y782D01*
X75013Y786D01*
X75018Y789D01*
X75098Y873D01*
X75180Y957D01*
X75184Y964D01*
X75188Y967D01*
X75195Y984D01*
X75261Y1104D01*
X75620Y1970D01*
X77349Y3699D01*
X79608Y4635D01*
X82053Y4635D01*
X84311Y3699D01*
X86040Y1970D01*
X86399Y1104D01*
X86460Y1005D01*
X86520Y905D01*
X86525Y900D01*
X86529Y895D01*
X86619Y821D01*
X86707Y745D01*
X86713Y742D01*
X86718Y738D01*
X86826Y697D01*
X86936Y653D01*
X86943Y652D01*
X86948Y650D01*
X86966Y649D01*
X87102Y634D01*
X87258Y634D01*
X87373Y653D01*
X87489Y670D01*
X87495Y673D01*
X87501Y674D01*
X87603Y728D01*
X87708Y782D01*
X87713Y786D01*
X87718Y789D01*
X87798Y873D01*
X87880Y957D01*
X87884Y964D01*
X87888Y967D01*
X87895Y984D01*
X87961Y1104D01*
X88320Y1970D01*
X90049Y3699D01*
X92308Y4635D01*
X94753Y4635D01*
X97011Y3699D01*
X98740Y1970D01*
X99099Y1104D01*
X99160Y1005D01*
X99220Y905D01*
X99225Y900D01*
X99229Y895D01*
X99319Y821D01*
X99407Y745D01*
X99413Y742D01*
X99418Y738D01*
X99526Y697D01*
X99636Y653D01*
X99643Y652D01*
X99648Y650D01*
X99666Y649D01*
X99802Y634D01*
X99958Y634D01*
X100073Y653D01*
X100189Y670D01*
X100195Y673D01*
X100201Y674D01*
X100303Y728D01*
X100408Y782D01*
X100413Y786D01*
X100418Y789D01*
X100498Y873D01*
X100580Y957D01*
X100584Y964D01*
X100588Y967D01*
X100595Y984D01*
X100661Y1104D01*
X101020Y1970D01*
X102749Y3699D01*
X105008Y4635D01*
X107453Y4635D01*
X109711Y3699D01*
X111440Y1970D01*
X111799Y1104D01*
X111860Y1005D01*
X111920Y905D01*
X111925Y900D01*
X111929Y895D01*
X112019Y821D01*
X112107Y745D01*
X112113Y742D01*
X112118Y738D01*
X112226Y697D01*
X112336Y653D01*
X112343Y652D01*
X112348Y650D01*
X112366Y649D01*
X112502Y634D01*
X112658Y634D01*
X112773Y653D01*
X112889Y670D01*
X112895Y673D01*
X112901Y674D01*
X113003Y728D01*
X113108Y782D01*
X113113Y786D01*
X113118Y789D01*
X113198Y873D01*
X113280Y957D01*
X113284Y964D01*
X113288Y967D01*
X113295Y984D01*
X113361Y1104D01*
X113720Y1970D01*
X115449Y3699D01*
X117708Y4635D01*
X120153Y4635D01*
X122411Y3699D01*
X124140Y1970D01*
X124499Y1104D01*
X124560Y1005D01*
X124620Y905D01*
X124625Y900D01*
X124629Y895D01*
X124719Y821D01*
X124807Y745D01*
X124813Y742D01*
X124818Y738D01*
X124926Y697D01*
X125036Y653D01*
X125043Y652D01*
X125048Y650D01*
X125066Y649D01*
X125202Y634D01*
X145837Y634D01*
X145856Y637D01*
X145876Y635D01*
X145977Y657D01*
X146079Y674D01*
X146097Y683D01*
X146116Y687D01*
X146205Y741D01*
X146297Y789D01*
X146310Y803D01*
X146327Y814D01*
X146395Y892D01*
X146466Y967D01*
X146474Y985D01*
X146487Y1001D01*
X146526Y1097D01*
X146570Y1190D01*
X146572Y1210D01*
X146579Y1229D01*
X146598Y1395D01*
X146598Y15127D01*
X146596Y15135D01*
X146597Y15137D01*
X146594Y15151D01*
X146579Y15241D01*
X146562Y15358D01*
X146559Y15363D01*
X146558Y15369D01*
X146504Y15472D01*
X146450Y15577D01*
X146446Y15581D01*
X146443Y15587D01*
X146359Y15667D01*
X146275Y15749D01*
X146268Y15753D01*
X146265Y15756D01*
X146248Y15764D01*
X146128Y15830D01*
X145586Y16054D01*
X143857Y17783D01*
X142921Y20042D01*
X142921Y22487D01*
X143857Y24746D01*
X145586Y26475D01*
X146128Y26699D01*
X146227Y26761D01*
X146327Y26821D01*
X146332Y26825D01*
X146337Y26829D01*
X146411Y26918D01*
X146487Y27008D01*
X146490Y27013D01*
X146494Y27018D01*
X146535Y27126D01*
X146579Y27236D01*
X146580Y27243D01*
X146582Y27248D01*
X146583Y27266D01*
X146598Y27402D01*
X146598Y27827D01*
X146579Y27941D01*
X146562Y28058D01*
X146559Y28063D01*
X146558Y28069D01*
X146504Y28172D01*
X146450Y28277D01*
X146446Y28281D01*
X146443Y28287D01*
X146359Y28367D01*
X146275Y28449D01*
X146268Y28453D01*
X146265Y28456D01*
X146248Y28464D01*
X146128Y28530D01*
X145586Y28754D01*
X143857Y30483D01*
X142921Y32742D01*
X142921Y35187D01*
X143857Y37446D01*
X145586Y39175D01*
X146128Y39399D01*
X146227Y39461D01*
X146327Y39521D01*
X146332Y39525D01*
X146337Y39529D01*
X146411Y39618D01*
X146487Y39708D01*
X146490Y39713D01*
X146494Y39718D01*
X146535Y39826D01*
X146579Y39936D01*
X146580Y39943D01*
X146582Y39948D01*
X146583Y39966D01*
X146598Y40102D01*
X146598Y40527D01*
X146579Y40641D01*
X146562Y40758D01*
X146559Y40763D01*
X146558Y40769D01*
X146504Y40872D01*
X146450Y40977D01*
X146446Y40981D01*
X146443Y40987D01*
X146359Y41067D01*
X146275Y41149D01*
X146268Y41153D01*
X146265Y41156D01*
X146248Y41164D01*
X146128Y41230D01*
X145586Y41454D01*
X143857Y43183D01*
X142921Y45442D01*
X142921Y47887D01*
X143857Y50146D01*
X145586Y51875D01*
X146128Y52099D01*
X146227Y52161D01*
X146327Y52221D01*
X146332Y52225D01*
X146337Y52229D01*
X146411Y52318D01*
X146487Y52408D01*
X146490Y52413D01*
X146494Y52418D01*
X146535Y52526D01*
X146579Y52636D01*
X146580Y52643D01*
X146582Y52648D01*
X146583Y52666D01*
X146598Y52802D01*
X146598Y53227D01*
X146579Y53341D01*
X146562Y53458D01*
X146559Y53463D01*
X146558Y53469D01*
X146504Y53572D01*
X146450Y53677D01*
X146446Y53681D01*
X146443Y53687D01*
X146359Y53767D01*
X146275Y53849D01*
X146268Y53853D01*
X146265Y53856D01*
X146248Y53864D01*
X146128Y53930D01*
X145586Y54154D01*
X143857Y55883D01*
X142921Y58142D01*
X142921Y60587D01*
X143857Y62846D01*
X145586Y64575D01*
X146128Y64799D01*
X146227Y64861D01*
X146327Y64921D01*
X146332Y64925D01*
X146337Y64929D01*
X146411Y65018D01*
X146487Y65108D01*
X146490Y65113D01*
X146494Y65118D01*
X146535Y65226D01*
X146579Y65336D01*
X146580Y65343D01*
X146582Y65348D01*
X146583Y65366D01*
X146598Y65502D01*
X146598Y65927D01*
X146579Y66041D01*
X146562Y66158D01*
X146559Y66163D01*
X146558Y66169D01*
X146504Y66272D01*
X146450Y66377D01*
X146446Y66381D01*
X146443Y66387D01*
X146359Y66467D01*
X146275Y66549D01*
X146268Y66553D01*
X146265Y66556D01*
X146248Y66564D01*
X146128Y66630D01*
X145586Y66854D01*
X143857Y68583D01*
X142921Y70842D01*
X142921Y73287D01*
X143857Y75546D01*
X145586Y77275D01*
X146128Y77499D01*
X146226Y77560D01*
X146327Y77621D01*
X146332Y77625D01*
X146337Y77629D01*
X146411Y77718D01*
X146487Y77808D01*
X146490Y77813D01*
X146494Y77818D01*
X146535Y77926D01*
X146579Y78036D01*
X146580Y78043D01*
X146582Y78048D01*
X146583Y78066D01*
X146598Y78202D01*
X146598Y78627D01*
X146579Y78741D01*
X146562Y78858D01*
X146559Y78863D01*
X146558Y78869D01*
X146504Y78972D01*
X146450Y79077D01*
X146446Y79081D01*
X146443Y79087D01*
X146359Y79167D01*
X146275Y79249D01*
X146268Y79253D01*
X146265Y79256D01*
X146248Y79264D01*
X146128Y79330D01*
X145586Y79554D01*
X143857Y81283D01*
X142921Y83542D01*
X142921Y85987D01*
X143857Y88246D01*
X145586Y89975D01*
X146128Y90199D01*
X146227Y90261D01*
X146327Y90321D01*
X146332Y90325D01*
X146337Y90329D01*
X146411Y90418D01*
X146487Y90508D01*
X146490Y90513D01*
X146494Y90518D01*
X146535Y90626D01*
X146579Y90736D01*
X146580Y90743D01*
X146582Y90748D01*
X146583Y90766D01*
X146598Y90902D01*
X146598Y91327D01*
X146579Y91441D01*
X146562Y91558D01*
X146559Y91563D01*
X146558Y91569D01*
X146504Y91672D01*
X146450Y91777D01*
X146446Y91781D01*
X146443Y91787D01*
X146359Y91867D01*
X146275Y91949D01*
X146268Y91953D01*
X146265Y91956D01*
X146248Y91964D01*
X146128Y92030D01*
X145586Y92254D01*
X143857Y93983D01*
X142921Y96242D01*
X142921Y98687D01*
X143857Y100946D01*
X145586Y102675D01*
X146128Y102899D01*
X146227Y102961D01*
X146327Y103021D01*
X146332Y103025D01*
X146337Y103029D01*
X146411Y103118D01*
X146487Y103208D01*
X146490Y103213D01*
X146494Y103218D01*
X146535Y103326D01*
X146579Y103436D01*
X146580Y103443D01*
X146582Y103448D01*
X146583Y103466D01*
X146598Y103602D01*
X146598Y104027D01*
X146579Y104141D01*
X146562Y104258D01*
X146559Y104263D01*
X146558Y104269D01*
X146504Y104372D01*
X146450Y104477D01*
X146446Y104481D01*
X146443Y104487D01*
X146359Y104567D01*
X146275Y104649D01*
X146268Y104653D01*
X146265Y104656D01*
X146248Y104664D01*
X146128Y104730D01*
X145586Y104954D01*
X143857Y106683D01*
X142921Y108942D01*
X142921Y111387D01*
X143857Y113646D01*
X145586Y115375D01*
X146128Y115599D01*
X146227Y115661D01*
X146327Y115721D01*
X146332Y115725D01*
X146337Y115729D01*
X146411Y115818D01*
X146487Y115908D01*
X146490Y115913D01*
X146494Y115918D01*
X146535Y116026D01*
X146579Y116136D01*
X146580Y116143D01*
X146582Y116148D01*
X146583Y116166D01*
X146598Y116302D01*
X146598Y180019D01*
X146595Y180038D01*
X146597Y180058D01*
X146575Y180159D01*
X146558Y180261D01*
X146549Y180279D01*
X146545Y180299D01*
X146491Y180388D01*
X146443Y180479D01*
X146429Y180493D01*
X146418Y180510D01*
X146340Y180577D01*
X146265Y180648D01*
X146247Y180657D01*
X146231Y180670D01*
X146135Y180708D01*
X146042Y180752D01*
X146022Y180754D01*
X146003Y180762D01*
X145837Y180780D01*
X3335Y180780D01*
X3315Y180777D01*
X3295Y180779D01*
X3194Y180757D01*
X3092Y180740D01*
X3074Y180731D01*
X3055Y180727D01*
X2966Y180673D01*
X2874Y180625D01*
X2861Y180611D01*
X2844Y180600D01*
X2776Y180522D01*
X2705Y180447D01*
X2697Y180429D01*
X2684Y180414D01*
X2645Y180317D01*
X2601Y180224D01*
X2599Y180204D01*
X2592Y180185D01*
X2573Y180019D01*
X2573Y163999D01*
X2585Y163928D01*
X2587Y163856D01*
X2605Y163807D01*
X2613Y163756D01*
X2647Y163693D01*
X2671Y163625D01*
X2704Y163585D01*
X2728Y163539D01*
X2780Y163489D01*
X2825Y163433D01*
X2869Y163405D01*
X2906Y163369D01*
X2972Y163339D01*
X3032Y163300D01*
X3082Y163287D01*
X3130Y163266D01*
X3201Y163258D01*
X3270Y163240D01*
X3322Y163244D01*
X3374Y163238D01*
X3444Y163254D01*
X3516Y163259D01*
X3563Y163280D01*
X3614Y163291D01*
X3676Y163328D01*
X3742Y163356D01*
X3781Y163387D01*
X6632Y163387D01*
X6686Y163373D01*
X6785Y163343D01*
X6805Y163343D01*
X6825Y163338D01*
X6928Y163346D01*
X7031Y163349D01*
X7050Y163356D01*
X7070Y163358D01*
X7165Y163398D01*
X7262Y163433D01*
X7278Y163446D01*
X7296Y163454D01*
X7427Y163559D01*
X11327Y167459D01*
X19271Y167459D01*
X23114Y163615D01*
X23114Y163086D01*
X23129Y162996D01*
X23136Y162905D01*
X23149Y162875D01*
X23154Y162843D01*
X23197Y162763D01*
X23233Y162679D01*
X23258Y162646D01*
X23269Y162626D01*
X23293Y162604D01*
X23337Y162548D01*
X24114Y161771D01*
X24114Y159048D01*
X22189Y157123D01*
X19466Y157123D01*
X18448Y158141D01*
X18432Y158152D01*
X18420Y158168D01*
X18332Y158224D01*
X18248Y158284D01*
X18229Y158290D01*
X18213Y158301D01*
X18112Y158326D01*
X18013Y158357D01*
X17993Y158356D01*
X17974Y158361D01*
X17871Y158353D01*
X17767Y158350D01*
X17749Y158343D01*
X17729Y158342D01*
X17634Y158301D01*
X17536Y158266D01*
X17521Y158253D01*
X17503Y158245D01*
X17372Y158141D01*
X16176Y156945D01*
X15572Y156945D01*
X15552Y156942D01*
X15532Y156944D01*
X15431Y156922D01*
X15329Y156906D01*
X15311Y156896D01*
X15292Y156892D01*
X15203Y156839D01*
X15112Y156791D01*
X15098Y156776D01*
X15081Y156766D01*
X15013Y156687D01*
X14942Y156612D01*
X14934Y156594D01*
X14921Y156579D01*
X14882Y156483D01*
X14839Y156389D01*
X14836Y156369D01*
X14829Y156351D01*
X14810Y156184D01*
X14810Y134537D01*
X14825Y134447D01*
X14832Y134356D01*
X14845Y134327D01*
X14850Y134295D01*
X14893Y134214D01*
X14929Y134130D01*
X14954Y134098D01*
X14965Y134077D01*
X14989Y134055D01*
X15033Y133999D01*
X24154Y124878D01*
X24228Y124825D01*
X24298Y124766D01*
X24328Y124754D01*
X24354Y124735D01*
X24441Y124708D01*
X24526Y124674D01*
X24567Y124669D01*
X24589Y124662D01*
X24621Y124663D01*
X24692Y124655D01*
X26791Y124655D01*
X26862Y124667D01*
X26933Y124669D01*
X26982Y124687D01*
X27034Y124695D01*
X27097Y124729D01*
X27164Y124753D01*
X27205Y124786D01*
X27251Y124810D01*
X27300Y124862D01*
X27357Y124907D01*
X27385Y124951D01*
X27421Y124989D01*
X27451Y125054D01*
X27489Y125114D01*
X27502Y125164D01*
X27524Y125212D01*
X27532Y125283D01*
X27550Y125352D01*
X27545Y125404D01*
X27551Y125456D01*
X27536Y125526D01*
X27530Y125598D01*
X27510Y125645D01*
X27499Y125696D01*
X27462Y125758D01*
X27434Y125824D01*
X27389Y125880D01*
X27373Y125908D01*
X27355Y125923D01*
X27329Y125955D01*
X27161Y126123D01*
X27161Y127833D01*
X27158Y127853D01*
X27160Y127873D01*
X27138Y127974D01*
X27121Y128076D01*
X27112Y128094D01*
X27108Y128113D01*
X27054Y128202D01*
X27006Y128293D01*
X26992Y128307D01*
X26981Y128324D01*
X26903Y128392D01*
X26828Y128463D01*
X26810Y128471D01*
X26794Y128484D01*
X26698Y128523D01*
X26605Y128566D01*
X26585Y128569D01*
X26566Y128576D01*
X26400Y128594D01*
X24661Y128594D01*
X22736Y130520D01*
X22736Y133243D01*
X24661Y135168D01*
X27384Y135168D01*
X29309Y133243D01*
X29309Y131533D01*
X29313Y131513D01*
X29310Y131493D01*
X29332Y131392D01*
X29349Y131290D01*
X29358Y131272D01*
X29363Y131253D01*
X29416Y131164D01*
X29464Y131073D01*
X29479Y131059D01*
X29489Y131042D01*
X29568Y130974D01*
X29643Y130903D01*
X29661Y130895D01*
X29676Y130882D01*
X29772Y130843D01*
X29866Y130800D01*
X29885Y130797D01*
X29904Y130790D01*
X30071Y130771D01*
X31809Y130771D01*
X33734Y128846D01*
X33734Y126094D01*
X33725Y126083D01*
X33713Y126053D01*
X33694Y126027D01*
X33667Y125940D01*
X33633Y125855D01*
X33628Y125814D01*
X33622Y125792D01*
X33622Y125759D01*
X33615Y125688D01*
X33615Y57508D01*
X33629Y57418D01*
X33636Y57327D01*
X33649Y57297D01*
X33654Y57265D01*
X33697Y57184D01*
X33733Y57101D01*
X33758Y57068D01*
X33769Y57048D01*
X33793Y57026D01*
X33838Y56970D01*
X40314Y50493D01*
X40388Y50440D01*
X40458Y50380D01*
X40488Y50368D01*
X40514Y50349D01*
X40601Y50322D01*
X40686Y50288D01*
X40727Y50284D01*
X40749Y50277D01*
X40781Y50278D01*
X40853Y50270D01*
X53123Y50270D01*
X57449Y45944D01*
X57523Y45891D01*
X57593Y45831D01*
X57623Y45819D01*
X57649Y45800D01*
X57736Y45773D01*
X57821Y45739D01*
X57862Y45735D01*
X57884Y45728D01*
X57916Y45729D01*
X57988Y45721D01*
X58869Y45721D01*
X60794Y43796D01*
X60794Y43142D01*
X60797Y43122D01*
X60795Y43102D01*
X60817Y43001D01*
X60834Y42899D01*
X60843Y42882D01*
X60847Y42862D01*
X60900Y42773D01*
X60949Y42682D01*
X60963Y42668D01*
X60973Y42651D01*
X61052Y42584D01*
X61127Y42512D01*
X61145Y42504D01*
X61160Y42491D01*
X61257Y42452D01*
X61350Y42409D01*
X61370Y42407D01*
X61388Y42399D01*
X61555Y42381D01*
X64003Y42381D01*
X64311Y42073D01*
X64327Y42061D01*
X64339Y42045D01*
X64427Y41990D01*
X64511Y41929D01*
X64530Y41923D01*
X64546Y41912D01*
X64647Y41887D01*
X64746Y41857D01*
X64766Y41857D01*
X64785Y41852D01*
X64888Y41860D01*
X64992Y41863D01*
X65010Y41870D01*
X65030Y41872D01*
X65125Y41912D01*
X65223Y41948D01*
X65238Y41960D01*
X65256Y41968D01*
X65387Y42073D01*
X67086Y43771D01*
X69809Y43771D01*
X71734Y41846D01*
X71734Y39123D01*
X69809Y37198D01*
X67086Y37198D01*
X66778Y37506D01*
X66762Y37518D01*
X66750Y37533D01*
X66662Y37589D01*
X66578Y37650D01*
X66559Y37655D01*
X66543Y37666D01*
X66442Y37691D01*
X66343Y37722D01*
X66323Y37721D01*
X66304Y37726D01*
X66201Y37718D01*
X66097Y37716D01*
X66079Y37709D01*
X66059Y37707D01*
X65964Y37667D01*
X65866Y37631D01*
X65851Y37619D01*
X65833Y37611D01*
X65702Y37506D01*
X64003Y35807D01*
X62838Y35807D01*
X62767Y35796D01*
X62695Y35794D01*
X62646Y35776D01*
X62595Y35767D01*
X62532Y35734D01*
X62464Y35709D01*
X62423Y35677D01*
X62377Y35652D01*
X62328Y35601D01*
X62272Y35556D01*
X62244Y35512D01*
X62208Y35474D01*
X62178Y35409D01*
X62139Y35349D01*
X62126Y35298D01*
X62104Y35251D01*
X62097Y35180D01*
X62079Y35110D01*
X62083Y35058D01*
X62077Y35007D01*
X62093Y34936D01*
X62098Y34865D01*
X62119Y34817D01*
X62130Y34766D01*
X62166Y34705D01*
X62195Y34639D01*
X62239Y34583D01*
X62256Y34555D01*
X62274Y34540D01*
X62299Y34508D01*
X76067Y20740D01*
X76141Y20687D01*
X76210Y20628D01*
X76240Y20616D01*
X76266Y20597D01*
X76353Y20570D01*
X76438Y20536D01*
X76479Y20531D01*
X76501Y20525D01*
X76534Y20525D01*
X76605Y20517D01*
X110290Y20517D01*
X116496Y14311D01*
X116502Y14234D01*
X116515Y14205D01*
X116520Y14173D01*
X116563Y14092D01*
X116598Y14008D01*
X116624Y13976D01*
X116635Y13955D01*
X116659Y13933D01*
X116703Y13877D01*
X117734Y12846D01*
X117734Y10123D01*
X115809Y8198D01*
X113086Y8198D01*
X111161Y10123D01*
X111161Y12850D01*
X111175Y12862D01*
X111231Y12949D01*
X111291Y13033D01*
X111297Y13052D01*
X111308Y13069D01*
X111333Y13169D01*
X111364Y13268D01*
X111363Y13288D01*
X111368Y13307D01*
X111360Y13410D01*
X111357Y13514D01*
X111351Y13533D01*
X111349Y13552D01*
X111308Y13648D01*
X111273Y13745D01*
X111261Y13760D01*
X111253Y13779D01*
X111148Y13910D01*
X108829Y16229D01*
X108755Y16282D01*
X108685Y16342D01*
X108655Y16354D01*
X108629Y16373D01*
X108542Y16399D01*
X108457Y16434D01*
X108416Y16438D01*
X108394Y16445D01*
X108362Y16444D01*
X108290Y16452D01*
X74606Y16452D01*
X73192Y17866D01*
X69936Y21122D01*
X69878Y21164D01*
X69826Y21213D01*
X69778Y21235D01*
X69736Y21265D01*
X69668Y21286D01*
X69603Y21317D01*
X69551Y21322D01*
X69501Y21338D01*
X69429Y21336D01*
X69358Y21344D01*
X69307Y21333D01*
X69255Y21331D01*
X69188Y21307D01*
X69118Y21291D01*
X69073Y21265D01*
X69024Y21247D01*
X68968Y21202D01*
X68907Y21165D01*
X68873Y21126D01*
X68832Y21093D01*
X68793Y21033D01*
X68747Y20978D01*
X68727Y20930D01*
X68699Y20886D01*
X68682Y20817D01*
X68655Y20750D01*
X68647Y20679D01*
X68639Y20648D01*
X68641Y20624D01*
X68636Y20584D01*
X68636Y20513D01*
X66418Y18295D01*
X63281Y18295D01*
X61063Y20513D01*
X61063Y23650D01*
X63281Y25868D01*
X63352Y25868D01*
X63422Y25880D01*
X63494Y25882D01*
X63543Y25900D01*
X63594Y25908D01*
X63658Y25941D01*
X63725Y25966D01*
X63766Y25999D01*
X63812Y26023D01*
X63861Y26075D01*
X63917Y26120D01*
X63945Y26164D01*
X63981Y26201D01*
X64011Y26266D01*
X64050Y26327D01*
X64063Y26377D01*
X64085Y26424D01*
X64093Y26496D01*
X64110Y26565D01*
X64106Y26617D01*
X64112Y26669D01*
X64097Y26739D01*
X64091Y26810D01*
X64071Y26858D01*
X64060Y26909D01*
X64023Y26971D01*
X63995Y27037D01*
X63950Y27093D01*
X63933Y27120D01*
X63916Y27136D01*
X63890Y27168D01*
X56829Y34229D01*
X56828Y34229D01*
X55401Y35656D01*
X55384Y35705D01*
X55375Y35756D01*
X55342Y35819D01*
X55317Y35887D01*
X55284Y35927D01*
X55260Y35973D01*
X55208Y36023D01*
X55163Y36079D01*
X55119Y36107D01*
X55082Y36143D01*
X55017Y36173D01*
X54956Y36212D01*
X54906Y36224D01*
X54859Y36246D01*
X54787Y36254D01*
X54718Y36272D01*
X54666Y36268D01*
X54614Y36273D01*
X54544Y36258D01*
X54473Y36253D01*
X54425Y36232D01*
X54374Y36221D01*
X54312Y36184D01*
X54246Y36156D01*
X54190Y36111D01*
X54163Y36095D01*
X54147Y36077D01*
X54115Y36051D01*
X53966Y35902D01*
X51243Y35902D01*
X49318Y37827D01*
X49318Y38141D01*
X49315Y38161D01*
X49317Y38180D01*
X49295Y38282D01*
X49278Y38384D01*
X49269Y38401D01*
X49265Y38421D01*
X49211Y38510D01*
X49163Y38601D01*
X49149Y38615D01*
X49138Y38632D01*
X49060Y38699D01*
X48985Y38770D01*
X48967Y38779D01*
X48952Y38792D01*
X48855Y38831D01*
X48762Y38874D01*
X48742Y38876D01*
X48723Y38884D01*
X48557Y38902D01*
X46071Y38902D01*
X45945Y39028D01*
X45929Y39039D01*
X45917Y39055D01*
X45829Y39111D01*
X45746Y39171D01*
X45727Y39177D01*
X45710Y39188D01*
X45609Y39213D01*
X45510Y39244D01*
X45491Y39243D01*
X45471Y39248D01*
X45368Y39240D01*
X45265Y39237D01*
X45246Y39230D01*
X45226Y39229D01*
X45131Y39189D01*
X45034Y39153D01*
X45018Y39140D01*
X45000Y39133D01*
X44869Y39028D01*
X43114Y37273D01*
X40391Y37273D01*
X39776Y37888D01*
X39760Y37899D01*
X39747Y37915D01*
X39660Y37971D01*
X39576Y38031D01*
X39557Y38037D01*
X39540Y38048D01*
X39440Y38073D01*
X39341Y38104D01*
X39321Y38103D01*
X39302Y38108D01*
X39199Y38100D01*
X39095Y38097D01*
X39076Y38090D01*
X39057Y38089D01*
X38962Y38049D01*
X38864Y38013D01*
X38849Y38000D01*
X38830Y37993D01*
X38699Y37888D01*
X37163Y36351D01*
X34440Y36351D01*
X32515Y38277D01*
X32515Y40034D01*
X32512Y40054D01*
X32514Y40073D01*
X32492Y40175D01*
X32475Y40277D01*
X32466Y40294D01*
X32462Y40314D01*
X32408Y40403D01*
X32360Y40494D01*
X32346Y40508D01*
X32335Y40525D01*
X32257Y40592D01*
X32182Y40663D01*
X32164Y40672D01*
X32149Y40685D01*
X32052Y40724D01*
X31959Y40767D01*
X31939Y40769D01*
X31920Y40777D01*
X31754Y40795D01*
X31225Y40795D01*
X31206Y40792D01*
X31186Y40794D01*
X31085Y40772D01*
X30983Y40755D01*
X30965Y40746D01*
X30945Y40742D01*
X30856Y40689D01*
X30765Y40640D01*
X30751Y40626D01*
X30734Y40616D01*
X30667Y40537D01*
X30596Y40462D01*
X30587Y40444D01*
X30574Y40429D01*
X30536Y40333D01*
X30492Y40239D01*
X30490Y40219D01*
X30483Y40201D01*
X30464Y40034D01*
X30464Y37558D01*
X28246Y35340D01*
X25109Y35340D01*
X22891Y37558D01*
X22891Y40695D01*
X25109Y42913D01*
X27267Y42913D01*
X27287Y42916D01*
X27306Y42914D01*
X27408Y42936D01*
X27510Y42953D01*
X27527Y42962D01*
X27547Y42966D01*
X27636Y43020D01*
X27727Y43068D01*
X27741Y43082D01*
X27758Y43093D01*
X27825Y43171D01*
X27896Y43246D01*
X27905Y43264D01*
X27918Y43280D01*
X27956Y43376D01*
X28000Y43469D01*
X28002Y43489D01*
X28010Y43508D01*
X28028Y43674D01*
X28028Y45443D01*
X29953Y47369D01*
X32676Y47369D01*
X34602Y45443D01*
X34602Y43686D01*
X34605Y43666D01*
X34603Y43647D01*
X34625Y43545D01*
X34641Y43443D01*
X34651Y43426D01*
X34655Y43406D01*
X34708Y43317D01*
X34756Y43226D01*
X34771Y43212D01*
X34781Y43195D01*
X34860Y43128D01*
X34935Y43057D01*
X34953Y43048D01*
X34968Y43035D01*
X35064Y42997D01*
X35158Y42953D01*
X35178Y42951D01*
X35196Y42943D01*
X35363Y42925D01*
X37163Y42925D01*
X37778Y42310D01*
X37794Y42298D01*
X37807Y42283D01*
X37894Y42227D01*
X37978Y42166D01*
X37997Y42161D01*
X38014Y42150D01*
X38114Y42124D01*
X38213Y42094D01*
X38233Y42095D01*
X38252Y42090D01*
X38355Y42098D01*
X38459Y42100D01*
X38477Y42107D01*
X38497Y42109D01*
X38592Y42149D01*
X38690Y42185D01*
X38705Y42197D01*
X38724Y42205D01*
X38855Y42310D01*
X40391Y43846D01*
X43114Y43846D01*
X43239Y43721D01*
X43255Y43709D01*
X43268Y43693D01*
X43355Y43637D01*
X43439Y43577D01*
X43458Y43571D01*
X43475Y43560D01*
X43575Y43535D01*
X43674Y43505D01*
X43694Y43505D01*
X43713Y43500D01*
X43817Y43508D01*
X43920Y43511D01*
X43939Y43518D01*
X43959Y43520D01*
X44054Y43560D01*
X44151Y43596D01*
X44167Y43608D01*
X44185Y43616D01*
X44316Y43721D01*
X45500Y44905D01*
X45542Y44963D01*
X45591Y45015D01*
X45613Y45062D01*
X45643Y45104D01*
X45665Y45173D01*
X45695Y45238D01*
X45700Y45290D01*
X45716Y45340D01*
X45714Y45411D01*
X45722Y45482D01*
X45711Y45533D01*
X45709Y45585D01*
X45685Y45653D01*
X45670Y45723D01*
X45643Y45767D01*
X45625Y45816D01*
X45580Y45872D01*
X45543Y45934D01*
X45504Y45968D01*
X45471Y46008D01*
X45411Y46047D01*
X45357Y46094D01*
X45308Y46113D01*
X45264Y46141D01*
X45195Y46159D01*
X45128Y46186D01*
X45057Y46194D01*
X45026Y46202D01*
X45003Y46200D01*
X44962Y46204D01*
X38853Y46204D01*
X29549Y55508D01*
X29549Y96701D01*
X29538Y96771D01*
X29536Y96843D01*
X29518Y96892D01*
X29509Y96943D01*
X29476Y97007D01*
X29451Y97074D01*
X29419Y97115D01*
X29394Y97161D01*
X29342Y97210D01*
X29297Y97266D01*
X29254Y97294D01*
X29216Y97330D01*
X29151Y97360D01*
X29091Y97399D01*
X29040Y97412D01*
X28993Y97434D01*
X28922Y97442D01*
X28852Y97459D01*
X28800Y97455D01*
X28748Y97461D01*
X28678Y97446D01*
X28607Y97440D01*
X28559Y97420D01*
X28508Y97409D01*
X28446Y97372D01*
X28380Y97344D01*
X28325Y97299D01*
X28297Y97282D01*
X28282Y97265D01*
X28250Y97239D01*
X26876Y95866D01*
X25463Y94452D01*
X25335Y94452D01*
X25264Y94440D01*
X25193Y94439D01*
X25144Y94421D01*
X25092Y94412D01*
X25029Y94379D01*
X24961Y94354D01*
X24921Y94322D01*
X24875Y94297D01*
X24825Y94245D01*
X24769Y94200D01*
X24741Y94157D01*
X24705Y94119D01*
X24675Y94054D01*
X24636Y93993D01*
X24624Y93943D01*
X24602Y93896D01*
X24594Y93824D01*
X24576Y93755D01*
X24580Y93703D01*
X24575Y93651D01*
X24590Y93581D01*
X24596Y93510D01*
X24616Y93462D01*
X24627Y93411D01*
X24664Y93349D01*
X24692Y93283D01*
X24737Y93227D01*
X24753Y93200D01*
X24771Y93185D01*
X24797Y93152D01*
X25103Y92846D01*
X25103Y90123D01*
X23178Y88198D01*
X20455Y88198D01*
X18530Y90123D01*
X18530Y92437D01*
X18526Y92456D01*
X18529Y92476D01*
X18507Y92577D01*
X18490Y92679D01*
X18481Y92697D01*
X18476Y92717D01*
X18423Y92806D01*
X18375Y92897D01*
X18360Y92911D01*
X18350Y92928D01*
X18271Y92995D01*
X18196Y93066D01*
X18178Y93075D01*
X18163Y93088D01*
X18067Y93126D01*
X17973Y93170D01*
X17954Y93172D01*
X17935Y93180D01*
X17768Y93198D01*
X17086Y93198D01*
X15161Y95123D01*
X15161Y97846D01*
X17086Y99771D01*
X17400Y99771D01*
X17419Y99775D01*
X17439Y99772D01*
X17540Y99794D01*
X17642Y99811D01*
X17660Y99820D01*
X17679Y99825D01*
X17768Y99878D01*
X17860Y99926D01*
X17873Y99941D01*
X17891Y99951D01*
X17958Y100030D01*
X18029Y100105D01*
X18037Y100123D01*
X18050Y100138D01*
X18089Y100234D01*
X18133Y100328D01*
X18135Y100347D01*
X18142Y100366D01*
X18161Y100533D01*
X18161Y102482D01*
X18158Y102502D01*
X18160Y102522D01*
X18138Y102623D01*
X18121Y102725D01*
X18112Y102743D01*
X18108Y102762D01*
X18054Y102851D01*
X18006Y102942D01*
X17992Y102956D01*
X17981Y102973D01*
X17903Y103041D01*
X17828Y103112D01*
X17810Y103120D01*
X17794Y103133D01*
X17698Y103172D01*
X17605Y103215D01*
X17585Y103218D01*
X17566Y103225D01*
X17400Y103244D01*
X16949Y103244D01*
X15024Y105169D01*
X15024Y107892D01*
X16949Y109817D01*
X19672Y109817D01*
X21598Y107892D01*
X21598Y105533D01*
X21601Y105513D01*
X21599Y105493D01*
X21621Y105392D01*
X21637Y105290D01*
X21647Y105272D01*
X21651Y105253D01*
X21704Y105164D01*
X21752Y105073D01*
X21767Y105059D01*
X21777Y105042D01*
X21856Y104974D01*
X21931Y104903D01*
X21949Y104895D01*
X21964Y104882D01*
X22060Y104843D01*
X22154Y104800D01*
X22174Y104797D01*
X22192Y104790D01*
X22359Y104771D01*
X22809Y104771D01*
X24734Y102846D01*
X24734Y101311D01*
X24746Y101240D01*
X24748Y101168D01*
X24766Y101120D01*
X24774Y101068D01*
X24808Y101005D01*
X24832Y100937D01*
X24865Y100897D01*
X24889Y100851D01*
X24941Y100801D01*
X24986Y100745D01*
X25030Y100717D01*
X25068Y100681D01*
X25133Y100651D01*
X25193Y100612D01*
X25243Y100600D01*
X25291Y100578D01*
X25362Y100570D01*
X25431Y100552D01*
X25483Y100556D01*
X25535Y100551D01*
X25605Y100566D01*
X25677Y100572D01*
X25724Y100592D01*
X25775Y100603D01*
X25837Y100640D01*
X25903Y100668D01*
X25959Y100713D01*
X25987Y100729D01*
X26002Y100747D01*
X26034Y100773D01*
X26482Y101221D01*
X26536Y101295D01*
X26595Y101365D01*
X26607Y101395D01*
X26626Y101421D01*
X26653Y101508D01*
X26687Y101593D01*
X26691Y101634D01*
X26698Y101656D01*
X26697Y101688D01*
X26705Y101759D01*
X26705Y113527D01*
X26702Y113546D01*
X26704Y113566D01*
X26682Y113667D01*
X26666Y113769D01*
X26656Y113787D01*
X26652Y113806D01*
X26599Y113895D01*
X26550Y113987D01*
X26536Y114000D01*
X26526Y114018D01*
X26447Y114085D01*
X26372Y114156D01*
X26354Y114165D01*
X26339Y114177D01*
X26243Y114216D01*
X26149Y114260D01*
X26129Y114262D01*
X26111Y114269D01*
X25944Y114288D01*
X22560Y114288D01*
X20342Y116506D01*
X20342Y119643D01*
X21453Y120754D01*
X21464Y120770D01*
X21480Y120782D01*
X21536Y120870D01*
X21596Y120954D01*
X21602Y120973D01*
X21613Y120989D01*
X21638Y121090D01*
X21669Y121189D01*
X21668Y121209D01*
X21673Y121228D01*
X21665Y121331D01*
X21662Y121435D01*
X21655Y121453D01*
X21654Y121473D01*
X21613Y121568D01*
X21578Y121666D01*
X21565Y121681D01*
X21557Y121699D01*
X21453Y121830D01*
X21279Y122004D01*
X19571Y123712D01*
X19555Y123724D01*
X19542Y123739D01*
X19455Y123795D01*
X19371Y123856D01*
X19352Y123861D01*
X19335Y123872D01*
X19235Y123898D01*
X19136Y123928D01*
X19116Y123927D01*
X19097Y123932D01*
X18994Y123924D01*
X18890Y123922D01*
X18871Y123915D01*
X18852Y123913D01*
X18757Y123873D01*
X18659Y123837D01*
X18644Y123825D01*
X18625Y123817D01*
X18494Y123712D01*
X16645Y121863D01*
X13922Y121863D01*
X13130Y122654D01*
X13114Y122666D01*
X13102Y122682D01*
X13015Y122738D01*
X12931Y122798D01*
X12912Y122804D01*
X12895Y122815D01*
X12794Y122840D01*
X12696Y122870D01*
X12676Y122870D01*
X12656Y122875D01*
X12553Y122867D01*
X12450Y122864D01*
X12431Y122857D01*
X12411Y122855D01*
X12316Y122815D01*
X12219Y122779D01*
X12203Y122767D01*
X12185Y122759D01*
X12054Y122654D01*
X10864Y121464D01*
X8141Y121464D01*
X6216Y123389D01*
X6216Y126112D01*
X6993Y126889D01*
X7046Y126963D01*
X7105Y127033D01*
X7117Y127063D01*
X7136Y127089D01*
X7163Y127176D01*
X7197Y127261D01*
X7202Y127302D01*
X7208Y127324D01*
X7208Y127356D01*
X7216Y127428D01*
X7216Y156052D01*
X7212Y156072D01*
X7215Y156092D01*
X7193Y156193D01*
X7176Y156295D01*
X7167Y156313D01*
X7162Y156332D01*
X7109Y156421D01*
X7061Y156512D01*
X7046Y156526D01*
X7036Y156543D01*
X6957Y156611D01*
X6882Y156682D01*
X6864Y156690D01*
X6849Y156703D01*
X6753Y156742D01*
X6659Y156785D01*
X6640Y156788D01*
X6621Y156795D01*
X6454Y156814D01*
X3781Y156814D01*
X3763Y156831D01*
X3715Y156853D01*
X3673Y156884D01*
X3605Y156905D01*
X3540Y156935D01*
X3488Y156941D01*
X3438Y156956D01*
X3366Y156954D01*
X3295Y156962D01*
X3244Y156951D01*
X3192Y156950D01*
X3125Y156925D01*
X3055Y156910D01*
X3010Y156883D01*
X2961Y156865D01*
X2905Y156820D01*
X2844Y156784D01*
X2810Y156744D01*
X2769Y156712D01*
X2730Y156651D01*
X2684Y156597D01*
X2664Y156548D01*
X2636Y156505D01*
X2619Y156435D01*
X2592Y156369D01*
X2584Y156297D01*
X2576Y156266D01*
X2578Y156243D01*
X2573Y156202D01*
X2573Y117490D01*
X2592Y117375D01*
X2609Y117259D01*
X2612Y117253D01*
X2613Y117247D01*
X2667Y117145D01*
X2721Y117039D01*
X2725Y117035D01*
X2728Y117029D01*
X2812Y116950D01*
X2896Y116867D01*
X2903Y116864D01*
X2906Y116860D01*
X2923Y116852D01*
X3043Y116786D01*
X3759Y116490D01*
X4974Y115678D01*
X6007Y114645D01*
X6818Y113431D01*
X7377Y112081D01*
X7505Y111441D01*
X3335Y111441D01*
X3315Y111438D01*
X3295Y111440D01*
X3194Y111418D01*
X3092Y111401D01*
X3074Y111392D01*
X3055Y111388D01*
X2966Y111335D01*
X2874Y111286D01*
X2861Y111272D01*
X2844Y111262D01*
X2776Y111183D01*
X2705Y111108D01*
X2697Y111090D01*
X2684Y111075D01*
X2645Y110979D01*
X2601Y110885D01*
X2599Y110865D01*
X2592Y110847D01*
X2573Y110680D01*
X2573Y109156D01*
X2576Y109136D01*
X2574Y109116D01*
X2596Y109015D01*
X2613Y108913D01*
X2622Y108896D01*
X2627Y108876D01*
X2680Y108787D01*
X2728Y108696D01*
X2743Y108682D01*
X2753Y108665D01*
X2831Y108598D01*
X2906Y108526D01*
X2924Y108518D01*
X2940Y108505D01*
X3036Y108466D01*
X3130Y108423D01*
X3149Y108421D01*
X3168Y108413D01*
X3335Y108395D01*
X7526Y108395D01*
X7523Y108367D01*
X7529Y108339D01*
X7528Y108310D01*
X7555Y108219D01*
X7575Y108127D01*
X7590Y108102D01*
X7599Y108074D01*
X7653Y107997D01*
X7701Y107916D01*
X7724Y107897D01*
X7741Y107873D01*
X7817Y107817D01*
X7888Y107756D01*
X7916Y107745D01*
X7939Y107728D01*
X8029Y107699D01*
X8117Y107664D01*
X8153Y107660D01*
X8174Y107654D01*
X8206Y107654D01*
X8283Y107646D01*
X10598Y107646D01*
X12816Y105428D01*
X12816Y102290D01*
X10598Y100072D01*
X7461Y100072D01*
X7189Y100344D01*
X7110Y100401D01*
X7035Y100463D01*
X7011Y100472D01*
X6989Y100487D01*
X6896Y100516D01*
X6805Y100551D01*
X6779Y100552D01*
X6754Y100560D01*
X6657Y100557D01*
X6560Y100561D01*
X6535Y100554D01*
X6508Y100553D01*
X6417Y100520D01*
X6323Y100493D01*
X6302Y100478D01*
X6277Y100469D01*
X6201Y100408D01*
X6121Y100353D01*
X6106Y100332D01*
X6085Y100315D01*
X6033Y100233D01*
X5975Y100155D01*
X5967Y100130D01*
X5952Y100108D01*
X5929Y100014D01*
X5898Y99921D01*
X5899Y99895D01*
X5892Y99870D01*
X5900Y99773D01*
X5901Y99675D01*
X5910Y99644D01*
X5911Y99625D01*
X5924Y99594D01*
X5948Y99514D01*
X6392Y98440D01*
X6392Y95995D01*
X5457Y93737D01*
X3728Y92008D01*
X3043Y91724D01*
X2943Y91662D01*
X2844Y91603D01*
X2840Y91598D01*
X2834Y91595D01*
X2759Y91504D01*
X2684Y91416D01*
X2681Y91410D01*
X2677Y91405D01*
X2636Y91297D01*
X2592Y91188D01*
X2591Y91180D01*
X2589Y91176D01*
X2588Y91157D01*
X2573Y91021D01*
X2573Y90715D01*
X2592Y90600D01*
X2609Y90484D01*
X2612Y90478D01*
X2613Y90472D01*
X2667Y90370D01*
X2721Y90265D01*
X2725Y90260D01*
X2728Y90255D01*
X2812Y90175D01*
X2896Y90093D01*
X2903Y90089D01*
X2906Y90085D01*
X2923Y90078D01*
X3043Y90012D01*
X3728Y89728D01*
X5457Y87999D01*
X6392Y85740D01*
X6392Y83295D01*
X5457Y81037D01*
X3728Y79308D01*
X3043Y79024D01*
X2943Y78962D01*
X2844Y78903D01*
X2840Y78898D01*
X2834Y78895D01*
X2759Y78804D01*
X2684Y78716D01*
X2681Y78710D01*
X2677Y78705D01*
X2636Y78597D01*
X2592Y78488D01*
X2591Y78480D01*
X2589Y78476D01*
X2588Y78457D01*
X2573Y78321D01*
X2573Y78015D01*
X2592Y77898D01*
X2609Y77784D01*
X2612Y77778D01*
X2613Y77772D01*
X2667Y77670D01*
X2721Y77565D01*
X2725Y77560D01*
X2728Y77555D01*
X2812Y77475D01*
X2896Y77393D01*
X2903Y77389D01*
X2906Y77385D01*
X2923Y77378D01*
X3043Y77312D01*
X3728Y77028D01*
X5457Y75299D01*
X6392Y73040D01*
X6392Y70595D01*
X5457Y68337D01*
X3728Y66608D01*
X3043Y66324D01*
X2943Y66262D01*
X2844Y66203D01*
X2840Y66198D01*
X2834Y66195D01*
X2759Y66104D01*
X2684Y66016D01*
X2681Y66010D01*
X2677Y66005D01*
X2636Y65897D01*
X2592Y65788D01*
X2591Y65780D01*
X2589Y65776D01*
X2588Y65757D01*
X2573Y65621D01*
X2573Y65315D01*
X2575Y65306D01*
X2574Y65301D01*
X2579Y65278D01*
X2592Y65200D01*
X2609Y65084D01*
X2612Y65078D01*
X2613Y65072D01*
X2667Y64970D01*
X2721Y64865D01*
X2725Y64860D01*
X2728Y64855D01*
X2812Y64775D01*
X2896Y64693D01*
X2903Y64689D01*
X2906Y64685D01*
X2923Y64678D01*
X3043Y64612D01*
X3728Y64328D01*
X5457Y62599D01*
X6392Y60340D01*
X6392Y57895D01*
X5457Y55637D01*
X3728Y53908D01*
X3043Y53624D01*
X2943Y53562D01*
X2844Y53503D01*
X2840Y53498D01*
X2834Y53495D01*
X2759Y53404D01*
X2684Y53316D01*
X2681Y53310D01*
X2677Y53305D01*
X2636Y53197D01*
X2592Y53088D01*
X2591Y53080D01*
X2589Y53076D01*
X2588Y53057D01*
X2573Y52921D01*
X2573Y52615D01*
X2592Y52500D01*
X2609Y52384D01*
X2612Y52378D01*
X2613Y52372D01*
X2667Y52270D01*
X2721Y52165D01*
X2725Y52160D01*
X2728Y52155D01*
X2812Y52075D01*
X2896Y51993D01*
X2903Y51989D01*
X2906Y51985D01*
X2923Y51978D01*
X3043Y51912D01*
X3728Y51628D01*
X5457Y49899D01*
X6392Y47640D01*
X6392Y45195D01*
X5457Y42937D01*
X3728Y41208D01*
X3043Y40924D01*
X2943Y40862D01*
X2941Y40861D01*
X2874Y40826D01*
X2864Y40815D01*
X2844Y40803D01*
X2840Y40798D01*
X2834Y40795D01*
X2761Y40706D01*
X2705Y40647D01*
X2698Y40633D01*
X2684Y40616D01*
X2681Y40610D01*
X2677Y40605D01*
X2639Y40504D01*
X2601Y40424D01*
X2599Y40407D01*
X2592Y40388D01*
X2591Y40380D01*
X2589Y40376D01*
X2588Y40357D01*
X2573Y40221D01*
X2573Y39915D01*
X2592Y39800D01*
X2609Y39684D01*
X2612Y39678D01*
X2613Y39672D01*
X2667Y39570D01*
X2721Y39465D01*
X2725Y39460D01*
X2728Y39455D01*
X2812Y39375D01*
X2896Y39293D01*
X2903Y39289D01*
X2906Y39285D01*
X2923Y39278D01*
X3043Y39212D01*
X3728Y38928D01*
X5457Y37199D01*
X6392Y34940D01*
X6392Y32495D01*
X5457Y30237D01*
X3728Y28508D01*
X3043Y28224D01*
X2943Y28162D01*
X2844Y28103D01*
X2840Y28098D01*
X2834Y28095D01*
X2759Y28004D01*
X2684Y27916D01*
X2681Y27910D01*
X2677Y27905D01*
X2636Y27797D01*
X2592Y27688D01*
X2591Y27680D01*
X2589Y27676D01*
X2588Y27657D01*
X2573Y27521D01*
X2573Y27215D01*
X2592Y27100D01*
X2609Y26984D01*
X2612Y26978D01*
X2613Y26972D01*
X2667Y26870D01*
X2721Y26765D01*
X2725Y26760D01*
X2728Y26755D01*
X2812Y26675D01*
X2896Y26593D01*
X2903Y26589D01*
X2906Y26585D01*
X2923Y26578D01*
X3043Y26512D01*
X3728Y26228D01*
X5457Y24499D01*
X6392Y22240D01*
X6392Y19795D01*
X5587Y17852D01*
X5565Y17757D01*
X5536Y17664D01*
X5537Y17638D01*
X5531Y17612D01*
X5540Y17516D01*
X5543Y17418D01*
X5552Y17394D01*
X5554Y17368D01*
X5594Y17279D01*
X5627Y17187D01*
X5644Y17167D01*
X5654Y17143D01*
X5720Y17071D01*
X5781Y16995D01*
X5803Y16981D01*
X5821Y16962D01*
X5906Y16915D01*
X5988Y16862D01*
X6013Y16856D01*
X6036Y16843D01*
X6132Y16826D01*
X6226Y16802D01*
X6252Y16804D01*
X6278Y16799D01*
X6375Y16814D01*
X6472Y16821D01*
X6496Y16831D01*
X6522Y16835D01*
X6609Y16879D01*
X6698Y16918D01*
X6723Y16938D01*
X6741Y16947D01*
X6764Y16970D01*
X6829Y17022D01*
X8202Y18396D01*
X11339Y18396D01*
X13558Y16178D01*
X13558Y13040D01*
X11339Y10822D01*
X8202Y10822D01*
X5984Y13040D01*
X5984Y16226D01*
X5973Y16297D01*
X5971Y16369D01*
X5953Y16418D01*
X5944Y16469D01*
X5911Y16532D01*
X5886Y16600D01*
X5854Y16640D01*
X5829Y16686D01*
X5777Y16736D01*
X5732Y16792D01*
X5689Y16820D01*
X5651Y16856D01*
X5586Y16886D01*
X5526Y16925D01*
X5475Y16937D01*
X5428Y16959D01*
X5357Y16967D01*
X5287Y16985D01*
X5235Y16981D01*
X5183Y16986D01*
X5113Y16971D01*
X5042Y16966D01*
X4994Y16945D01*
X4943Y16934D01*
X4881Y16897D01*
X4815Y16869D01*
X4760Y16824D01*
X4732Y16808D01*
X4717Y16790D01*
X4685Y16764D01*
X3728Y15808D01*
X3043Y15524D01*
X2943Y15462D01*
X2844Y15403D01*
X2840Y15398D01*
X2834Y15395D01*
X2759Y15304D01*
X2684Y15216D01*
X2681Y15210D01*
X2677Y15205D01*
X2636Y15097D01*
X2592Y14988D01*
X2591Y14980D01*
X2589Y14976D01*
X2588Y14957D01*
X2573Y14821D01*
X2573Y1395D01*
X2576Y1376D01*
X2574Y1356D01*
X2596Y1255D01*
X2613Y1153D01*
X2622Y1135D01*
X2627Y1116D01*
X2680Y1027D01*
X2728Y935D01*
X2743Y922D01*
X2753Y905D01*
X2831Y837D01*
X2906Y766D01*
X2924Y758D01*
X2940Y745D01*
X3036Y706D01*
X3130Y662D01*
X3149Y660D01*
X3168Y653D01*
X3335Y634D01*
X23758Y634D01*
X23873Y653D01*
G37*
%LPC*%
G36*
X20478Y68700D02*
X20478Y68700D01*
X18552Y70626D01*
X18552Y71937D01*
X18549Y71956D01*
X18551Y71976D01*
X18529Y72077D01*
X18513Y72179D01*
X18503Y72197D01*
X18499Y72217D01*
X18446Y72306D01*
X18398Y72397D01*
X18383Y72411D01*
X18373Y72428D01*
X18294Y72495D01*
X18219Y72566D01*
X18201Y72575D01*
X18186Y72588D01*
X18090Y72626D01*
X17996Y72670D01*
X17976Y72672D01*
X17958Y72680D01*
X17791Y72698D01*
X16083Y72698D01*
X13864Y74916D01*
X13864Y78053D01*
X16083Y80271D01*
X19220Y80271D01*
X21438Y78053D01*
X21438Y76035D01*
X21441Y76015D01*
X21439Y75996D01*
X21461Y75894D01*
X21478Y75792D01*
X21487Y75775D01*
X21491Y75755D01*
X21544Y75666D01*
X21593Y75575D01*
X21607Y75561D01*
X21617Y75544D01*
X21696Y75477D01*
X21771Y75406D01*
X21789Y75397D01*
X21804Y75384D01*
X21900Y75345D01*
X21994Y75302D01*
X22014Y75300D01*
X22032Y75292D01*
X22199Y75274D01*
X23201Y75274D01*
X25126Y73348D01*
X25126Y70626D01*
X23201Y68700D01*
X20478Y68700D01*
G37*
%LPD*%
%LPC*%
G36*
X97436Y112911D02*
X97436Y112911D01*
X95218Y115129D01*
X95218Y118266D01*
X97436Y120484D01*
X100573Y120484D01*
X102791Y118266D01*
X102791Y115129D01*
X100573Y112911D01*
X97436Y112911D01*
G37*
%LPD*%
%LPC*%
G36*
X102879Y92758D02*
X102879Y92758D01*
X100661Y94976D01*
X100661Y98113D01*
X102879Y100331D01*
X106016Y100331D01*
X108234Y98113D01*
X108234Y94976D01*
X106016Y92758D01*
X102879Y92758D01*
G37*
%LPD*%
%LPC*%
G36*
X120879Y61698D02*
X120879Y61698D01*
X118661Y63916D01*
X118661Y67053D01*
X120879Y69271D01*
X124016Y69271D01*
X126234Y67053D01*
X126234Y63916D01*
X124016Y61698D01*
X120879Y61698D01*
G37*
%LPD*%
%LPC*%
G36*
X103481Y32300D02*
X103481Y32300D01*
X101263Y34518D01*
X101263Y37655D01*
X103481Y39873D01*
X106618Y39873D01*
X108836Y37655D01*
X108836Y34518D01*
X106618Y32300D01*
X103481Y32300D01*
G37*
%LPD*%
%LPC*%
G36*
X133879Y12698D02*
X133879Y12698D01*
X131661Y14916D01*
X131661Y18053D01*
X133879Y20271D01*
X137016Y20271D01*
X139234Y18053D01*
X139234Y14916D01*
X137016Y12698D01*
X133879Y12698D01*
G37*
%LPD*%
%LPC*%
G36*
X9086Y169198D02*
X9086Y169198D01*
X7161Y171123D01*
X7161Y173846D01*
X9086Y175771D01*
X11809Y175771D01*
X13734Y173846D01*
X13734Y171123D01*
X11809Y169198D01*
X9086Y169198D01*
G37*
%LPD*%
%LPC*%
G36*
X110086Y79198D02*
X110086Y79198D01*
X108161Y81123D01*
X108161Y83846D01*
X110086Y85771D01*
X112809Y85771D01*
X114734Y83846D01*
X114734Y81123D01*
X112809Y79198D01*
X110086Y79198D01*
G37*
%LPD*%
%LPC*%
G36*
X93517Y46185D02*
X93517Y46185D01*
X91591Y48110D01*
X91591Y50833D01*
X93517Y52759D01*
X96240Y52759D01*
X98165Y50833D01*
X98165Y48110D01*
X96240Y46185D01*
X93517Y46185D01*
G37*
%LPD*%
%LPC*%
G36*
X90086Y37198D02*
X90086Y37198D01*
X88161Y39123D01*
X88161Y41846D01*
X90086Y43771D01*
X92809Y43771D01*
X94734Y41846D01*
X94734Y39123D01*
X92809Y37198D01*
X90086Y37198D01*
G37*
%LPD*%
D10*
X149067Y72065D03*
X149067Y84765D03*
X149067Y59365D03*
X149067Y97465D03*
X149067Y46665D03*
X149067Y110165D03*
X149067Y33965D03*
X149067Y21265D03*
X80830Y-1511D03*
X93530Y-1511D03*
X68130Y-1511D03*
X106230Y-1511D03*
X55430Y-1511D03*
X118930Y-1511D03*
X42730Y-1511D03*
X30030Y-1511D03*
X247Y71818D03*
X247Y84518D03*
X247Y59118D03*
X247Y97218D03*
X247Y46418D03*
X247Y109918D03*
X247Y33718D03*
X247Y21018D03*
D11*
X91448Y40485D03*
D12*
X64850Y22081D03*
X99005Y116698D03*
X104448Y96544D03*
X26677Y39126D03*
X105050Y36086D03*
X17651Y76485D03*
X24129Y118075D03*
X122448Y65485D03*
D11*
X143500Y177981D03*
X137150Y177981D03*
X130800Y177981D03*
X124450Y177981D03*
X118100Y177981D03*
X102860Y177981D03*
X95240Y177981D03*
X87620Y177981D03*
X80000Y177981D03*
X72380Y177981D03*
X102917Y150329D03*
X96510Y150329D03*
X90491Y150159D03*
X87581Y155977D03*
X87327Y162733D03*
X102860Y156391D03*
X96510Y156391D03*
X92700Y162821D03*
X134610Y139881D03*
X128260Y139881D03*
X142230Y139881D03*
X134610Y167821D03*
X128260Y167821D03*
X140960Y167821D03*
X85080Y71301D03*
X85080Y84001D03*
X85080Y96701D03*
X74920Y96701D03*
X74920Y106861D03*
X62220Y106861D03*
X49520Y106861D03*
X39360Y96701D03*
X39360Y84001D03*
X39360Y71301D03*
X49520Y71301D03*
X49520Y84001D03*
X49520Y96701D03*
X49520Y61141D03*
X62220Y61141D03*
X74920Y61141D03*
X62220Y71301D03*
X62220Y84001D03*
X62220Y96701D03*
X74920Y84001D03*
X74920Y71301D03*
X62700Y132382D03*
X62700Y138907D03*
X62742Y145944D03*
X62735Y153260D03*
X72291Y167580D03*
X79210Y125449D03*
X71320Y125449D03*
X62633Y125411D03*
X108148Y127463D03*
X118408Y127463D03*
X143877Y127529D03*
X117350Y92450D03*
D12*
X21448Y47485D03*
D11*
X106408Y11463D03*
X143877Y118529D03*
X126877Y127529D03*
X134877Y127529D03*
X133542Y62487D03*
X144287Y3489D03*
X5914Y3849D03*
X134205Y3398D03*
X7900Y91981D03*
X32081Y159725D03*
X53221Y177373D03*
X62808Y166082D03*
X33536Y9733D03*
X98842Y127568D03*
D12*
X31448Y19485D03*
D11*
X117542Y71487D03*
X72370Y172814D03*
X144287Y12489D03*
X62843Y159344D03*
X18425Y134856D03*
X15221Y177373D03*
X5221Y177373D03*
D12*
X9771Y14609D03*
X9029Y103859D03*
D11*
X9502Y124751D03*
X20828Y160409D03*
D13*
X9420Y124833D02*
X9502Y124751D01*
D12*
X135448Y16485D03*
D14*
X9502Y124751D02*
X9502Y162400D01*
X12274Y165172D02*
X18324Y165172D01*
X20828Y162668D01*
X20828Y160409D01*
X12274Y165172D02*
X9502Y162400D01*
D11*
X31315Y44082D03*
X21816Y91485D03*
X21839Y71987D03*
X35802Y39638D03*
X41752Y40560D03*
X47432Y42189D03*
X52605Y39189D03*
X57507Y42434D03*
X30448Y127485D03*
D13*
X57448Y42434D02*
X57507Y42434D01*
X57507Y43011D02*
X52281Y48237D01*
X57507Y43011D02*
X57507Y42434D01*
X52281Y48237D02*
X39695Y48237D01*
X31582Y126351D02*
X30448Y127485D01*
X31582Y126351D02*
X31582Y56351D01*
X39695Y48237D01*
X57448Y42434D02*
X57448Y36485D01*
D11*
X114448Y11485D03*
D13*
X109448Y18485D02*
X75448Y18485D01*
X109448Y18485D02*
X114448Y13485D01*
X114448Y11485D01*
X75448Y18485D02*
X57448Y36485D01*
D11*
X62641Y39094D03*
X68448Y40485D03*
X94878Y49472D03*
X111448Y82485D03*
X18311Y106530D03*
X26023Y131881D03*
X21448Y101485D03*
X5161Y160100D03*
X18448Y96485D03*
D13*
X24621Y96485D02*
X28738Y100602D01*
X24621Y96485D02*
X18448Y96485D01*
X28738Y100602D02*
X28738Y119923D01*
D11*
X14815Y160232D03*
D13*
X12778Y158195D01*
X12778Y133380D01*
X23535Y122623D01*
X28712Y119923D02*
X28738Y119923D01*
X26013Y122623D02*
X23535Y122623D01*
X26013Y122623D02*
X28712Y119923D01*
D11*
X15284Y125149D03*
X10448Y172485D03*
M02*
