G04 EAGLE Gerber RS-274X export*
G75*
%MOMM*%
%FSLAX34Y34*%
%LPD*%
%INSilkscreen Top*%
%IPPOS*%
%AMOC8*
5,1,8,0,0,1.08239X$1,22.5*%
G01*
%ADD10C,0.152400*%
%ADD11C,0.254000*%
%ADD12C,0.120000*%
%ADD13C,0.200000*%
%ADD14C,0.203200*%
%ADD15C,0.127000*%


D10*
X121034Y53479D02*
X121034Y50431D01*
X121034Y118503D02*
X121034Y121551D01*
X52962Y121551D02*
X49914Y121551D01*
X117986Y121551D02*
X121034Y121551D01*
X49914Y53479D02*
X49914Y50431D01*
X49914Y118503D02*
X49914Y121551D01*
X49914Y50431D02*
X52962Y50431D01*
X117986Y50431D02*
X121034Y50431D01*
D11*
X126114Y58305D02*
X126116Y58375D01*
X126122Y58445D01*
X126131Y58514D01*
X126145Y58583D01*
X126162Y58651D01*
X126183Y58717D01*
X126207Y58783D01*
X126235Y58847D01*
X126267Y58909D01*
X126302Y58970D01*
X126340Y59029D01*
X126382Y59085D01*
X126426Y59139D01*
X126474Y59191D01*
X126524Y59239D01*
X126577Y59285D01*
X126632Y59328D01*
X126689Y59368D01*
X126749Y59405D01*
X126811Y59438D01*
X126874Y59468D01*
X126939Y59494D01*
X127005Y59517D01*
X127072Y59536D01*
X127141Y59551D01*
X127210Y59563D01*
X127279Y59571D01*
X127349Y59575D01*
X127419Y59575D01*
X127489Y59571D01*
X127558Y59563D01*
X127627Y59551D01*
X127696Y59536D01*
X127763Y59517D01*
X127829Y59494D01*
X127894Y59468D01*
X127957Y59438D01*
X128019Y59405D01*
X128079Y59368D01*
X128136Y59328D01*
X128191Y59285D01*
X128244Y59239D01*
X128294Y59191D01*
X128342Y59139D01*
X128386Y59085D01*
X128428Y59029D01*
X128466Y58970D01*
X128501Y58909D01*
X128533Y58847D01*
X128561Y58783D01*
X128585Y58717D01*
X128606Y58651D01*
X128623Y58583D01*
X128637Y58514D01*
X128646Y58445D01*
X128652Y58375D01*
X128654Y58305D01*
X128652Y58235D01*
X128646Y58165D01*
X128637Y58096D01*
X128623Y58027D01*
X128606Y57959D01*
X128585Y57893D01*
X128561Y57827D01*
X128533Y57763D01*
X128501Y57701D01*
X128466Y57640D01*
X128428Y57581D01*
X128386Y57525D01*
X128342Y57471D01*
X128294Y57419D01*
X128244Y57371D01*
X128191Y57325D01*
X128136Y57282D01*
X128079Y57242D01*
X128019Y57205D01*
X127957Y57172D01*
X127894Y57142D01*
X127829Y57116D01*
X127763Y57093D01*
X127696Y57074D01*
X127627Y57059D01*
X127558Y57047D01*
X127489Y57039D01*
X127419Y57035D01*
X127349Y57035D01*
X127279Y57039D01*
X127210Y57047D01*
X127141Y57059D01*
X127072Y57074D01*
X127005Y57093D01*
X126939Y57116D01*
X126874Y57142D01*
X126811Y57172D01*
X126749Y57205D01*
X126689Y57242D01*
X126632Y57282D01*
X126577Y57325D01*
X126524Y57371D01*
X126474Y57419D01*
X126426Y57471D01*
X126382Y57525D01*
X126340Y57581D01*
X126302Y57640D01*
X126267Y57701D01*
X126235Y57763D01*
X126207Y57827D01*
X126183Y57893D01*
X126162Y57959D01*
X126145Y58027D01*
X126131Y58096D01*
X126122Y58165D01*
X126116Y58235D01*
X126114Y58305D01*
D12*
X24812Y46299D02*
X19712Y46299D01*
X19712Y60299D02*
X24812Y60299D01*
X24826Y100106D02*
X19726Y100106D01*
X19726Y86106D02*
X24826Y86106D01*
X28470Y121614D02*
X28470Y126516D01*
X37470Y126516D02*
X37470Y121614D01*
X24991Y66245D02*
X19891Y66245D01*
X19891Y80245D02*
X24991Y80245D01*
D13*
X115053Y23154D02*
X115055Y23216D01*
X115061Y23277D01*
X115070Y23338D01*
X115083Y23398D01*
X115100Y23457D01*
X115121Y23515D01*
X115145Y23572D01*
X115172Y23627D01*
X115203Y23680D01*
X115237Y23732D01*
X115274Y23781D01*
X115314Y23828D01*
X115357Y23872D01*
X115402Y23913D01*
X115450Y23952D01*
X115501Y23988D01*
X115553Y24020D01*
X115607Y24049D01*
X115663Y24075D01*
X115721Y24097D01*
X115779Y24116D01*
X115839Y24131D01*
X115900Y24142D01*
X115961Y24150D01*
X116022Y24154D01*
X116084Y24154D01*
X116145Y24150D01*
X116206Y24142D01*
X116267Y24131D01*
X116327Y24116D01*
X116385Y24097D01*
X116443Y24075D01*
X116499Y24049D01*
X116553Y24020D01*
X116605Y23988D01*
X116656Y23952D01*
X116704Y23913D01*
X116749Y23872D01*
X116792Y23828D01*
X116832Y23781D01*
X116869Y23732D01*
X116903Y23680D01*
X116934Y23627D01*
X116961Y23572D01*
X116985Y23515D01*
X117006Y23457D01*
X117023Y23398D01*
X117036Y23338D01*
X117045Y23277D01*
X117051Y23216D01*
X117053Y23154D01*
X117051Y23092D01*
X117045Y23031D01*
X117036Y22970D01*
X117023Y22910D01*
X117006Y22851D01*
X116985Y22793D01*
X116961Y22736D01*
X116934Y22681D01*
X116903Y22628D01*
X116869Y22576D01*
X116832Y22527D01*
X116792Y22480D01*
X116749Y22436D01*
X116704Y22395D01*
X116656Y22356D01*
X116605Y22320D01*
X116553Y22288D01*
X116499Y22259D01*
X116443Y22233D01*
X116385Y22211D01*
X116327Y22192D01*
X116267Y22177D01*
X116206Y22166D01*
X116145Y22158D01*
X116084Y22154D01*
X116022Y22154D01*
X115961Y22158D01*
X115900Y22166D01*
X115839Y22177D01*
X115779Y22192D01*
X115721Y22211D01*
X115663Y22233D01*
X115607Y22259D01*
X115553Y22288D01*
X115501Y22320D01*
X115450Y22356D01*
X115402Y22395D01*
X115357Y22436D01*
X115314Y22480D01*
X115274Y22527D01*
X115237Y22576D01*
X115203Y22628D01*
X115172Y22681D01*
X115145Y22736D01*
X115121Y22793D01*
X115100Y22851D01*
X115083Y22910D01*
X115070Y22970D01*
X115061Y23031D01*
X115055Y23092D01*
X115053Y23154D01*
D14*
X134334Y27185D02*
X148334Y27185D01*
X134334Y27185D02*
X134334Y1185D01*
X176334Y1185D02*
X176334Y27185D01*
X162334Y27185D01*
X148334Y1185D02*
X134334Y1185D01*
X162334Y1185D02*
X176334Y1185D01*
X148334Y28185D02*
X135334Y28185D01*
X162334Y28185D02*
X175334Y28185D01*
X148334Y29185D02*
X134334Y29185D01*
X162334Y29185D02*
X176334Y29185D01*
X134334Y29185D02*
X134334Y27185D01*
X148334Y27185D02*
X148334Y29185D01*
X162334Y29185D02*
X162334Y27185D01*
X176334Y27185D02*
X176334Y29185D01*
D10*
X127799Y96373D02*
X127799Y102373D01*
X139799Y102373D02*
X139799Y96373D01*
D13*
X133857Y117423D02*
X133859Y117486D01*
X133865Y117548D01*
X133875Y117610D01*
X133888Y117672D01*
X133906Y117732D01*
X133927Y117791D01*
X133952Y117849D01*
X133981Y117905D01*
X134013Y117959D01*
X134048Y118011D01*
X134086Y118060D01*
X134128Y118108D01*
X134172Y118152D01*
X134220Y118194D01*
X134269Y118232D01*
X134321Y118267D01*
X134375Y118299D01*
X134431Y118328D01*
X134489Y118353D01*
X134548Y118374D01*
X134608Y118392D01*
X134670Y118405D01*
X134732Y118415D01*
X134794Y118421D01*
X134857Y118423D01*
X134920Y118421D01*
X134982Y118415D01*
X135044Y118405D01*
X135106Y118392D01*
X135166Y118374D01*
X135225Y118353D01*
X135283Y118328D01*
X135339Y118299D01*
X135393Y118267D01*
X135445Y118232D01*
X135494Y118194D01*
X135542Y118152D01*
X135586Y118108D01*
X135628Y118060D01*
X135666Y118011D01*
X135701Y117959D01*
X135733Y117905D01*
X135762Y117849D01*
X135787Y117791D01*
X135808Y117732D01*
X135826Y117672D01*
X135839Y117610D01*
X135849Y117548D01*
X135855Y117486D01*
X135857Y117423D01*
X135855Y117360D01*
X135849Y117298D01*
X135839Y117236D01*
X135826Y117174D01*
X135808Y117114D01*
X135787Y117055D01*
X135762Y116997D01*
X135733Y116941D01*
X135701Y116887D01*
X135666Y116835D01*
X135628Y116786D01*
X135586Y116738D01*
X135542Y116694D01*
X135494Y116652D01*
X135445Y116614D01*
X135393Y116579D01*
X135339Y116547D01*
X135283Y116518D01*
X135225Y116493D01*
X135166Y116472D01*
X135106Y116454D01*
X135044Y116441D01*
X134982Y116431D01*
X134920Y116425D01*
X134857Y116423D01*
X134794Y116425D01*
X134732Y116431D01*
X134670Y116441D01*
X134608Y116454D01*
X134548Y116472D01*
X134489Y116493D01*
X134431Y116518D01*
X134375Y116547D01*
X134321Y116579D01*
X134269Y116614D01*
X134220Y116652D01*
X134172Y116694D01*
X134128Y116738D01*
X134086Y116786D01*
X134048Y116835D01*
X134013Y116887D01*
X133981Y116941D01*
X133952Y116997D01*
X133927Y117055D01*
X133906Y117114D01*
X133888Y117174D01*
X133875Y117236D01*
X133865Y117298D01*
X133859Y117360D01*
X133857Y117423D01*
D15*
X171543Y79410D02*
X181068Y79410D01*
M02*
