G04 EAGLE Gerber RS-274X export*
G75*
%MOMM*%
%FSLAX34Y34*%
%LPD*%
%INSilkscreen Bottom*%
%IPPOS*%
%AMOC8*
5,1,8,0,0,1.08239X$1,22.5*%
G01*
%ADD10C,0.076200*%
%ADD11C,0.127000*%


D10*
X191030Y5909D02*
X185301Y5909D01*
X185223Y5907D01*
X185145Y5902D01*
X185068Y5892D01*
X184991Y5879D01*
X184915Y5863D01*
X184840Y5843D01*
X184766Y5819D01*
X184693Y5792D01*
X184621Y5761D01*
X184551Y5727D01*
X184483Y5690D01*
X184416Y5649D01*
X184351Y5605D01*
X184289Y5559D01*
X184229Y5509D01*
X184171Y5457D01*
X184116Y5402D01*
X184064Y5344D01*
X184014Y5284D01*
X183968Y5222D01*
X183924Y5157D01*
X183883Y5091D01*
X183846Y5022D01*
X183812Y4952D01*
X183781Y4880D01*
X183754Y4807D01*
X183730Y4733D01*
X183710Y4658D01*
X183694Y4582D01*
X183681Y4505D01*
X183671Y4428D01*
X183666Y4350D01*
X183664Y4272D01*
X183664Y3454D01*
X183664Y9603D02*
X191030Y9603D01*
X183664Y9603D02*
X183664Y12877D01*
X183664Y17297D02*
X183664Y18934D01*
X183664Y17297D02*
X183666Y17219D01*
X183671Y17141D01*
X183681Y17064D01*
X183694Y16987D01*
X183710Y16911D01*
X183730Y16836D01*
X183754Y16762D01*
X183781Y16689D01*
X183812Y16617D01*
X183846Y16547D01*
X183883Y16479D01*
X183924Y16412D01*
X183968Y16347D01*
X184014Y16285D01*
X184064Y16225D01*
X184116Y16167D01*
X184171Y16112D01*
X184229Y16060D01*
X184289Y16010D01*
X184351Y15964D01*
X184416Y15920D01*
X184483Y15879D01*
X184551Y15842D01*
X184621Y15808D01*
X184693Y15777D01*
X184766Y15750D01*
X184840Y15726D01*
X184915Y15706D01*
X184991Y15690D01*
X185068Y15677D01*
X185145Y15667D01*
X185223Y15662D01*
X185301Y15660D01*
X189393Y15660D01*
X189471Y15662D01*
X189549Y15667D01*
X189626Y15677D01*
X189703Y15690D01*
X189779Y15706D01*
X189854Y15726D01*
X189928Y15750D01*
X190001Y15777D01*
X190073Y15808D01*
X190143Y15842D01*
X190212Y15879D01*
X190278Y15920D01*
X190343Y15964D01*
X190405Y16010D01*
X190465Y16060D01*
X190523Y16112D01*
X190578Y16167D01*
X190630Y16225D01*
X190680Y16285D01*
X190726Y16347D01*
X190770Y16412D01*
X190811Y16479D01*
X190848Y16547D01*
X190882Y16617D01*
X190913Y16689D01*
X190940Y16762D01*
X190964Y16836D01*
X190984Y16911D01*
X191000Y16987D01*
X191013Y17064D01*
X191023Y17141D01*
X191028Y17219D01*
X191030Y17297D01*
X191030Y18934D01*
X191030Y23465D02*
X185301Y23465D01*
X185223Y23463D01*
X185145Y23458D01*
X185068Y23448D01*
X184991Y23435D01*
X184915Y23419D01*
X184840Y23399D01*
X184766Y23375D01*
X184693Y23348D01*
X184621Y23317D01*
X184551Y23283D01*
X184483Y23246D01*
X184416Y23205D01*
X184351Y23161D01*
X184289Y23115D01*
X184229Y23065D01*
X184171Y23013D01*
X184116Y22958D01*
X184064Y22900D01*
X184014Y22840D01*
X183968Y22778D01*
X183924Y22713D01*
X183883Y22647D01*
X183846Y22578D01*
X183812Y22508D01*
X183781Y22436D01*
X183754Y22363D01*
X183730Y22289D01*
X183710Y22214D01*
X183694Y22138D01*
X183681Y22061D01*
X183671Y21984D01*
X183666Y21906D01*
X183664Y21828D01*
X183664Y21010D01*
X183664Y27159D02*
X191030Y27159D01*
X183664Y27159D02*
X183664Y30433D01*
X183664Y34853D02*
X183664Y36490D01*
X183664Y34853D02*
X183666Y34775D01*
X183671Y34697D01*
X183681Y34620D01*
X183694Y34543D01*
X183710Y34467D01*
X183730Y34392D01*
X183754Y34318D01*
X183781Y34245D01*
X183812Y34173D01*
X183846Y34103D01*
X183883Y34035D01*
X183924Y33968D01*
X183968Y33903D01*
X184014Y33841D01*
X184064Y33781D01*
X184116Y33723D01*
X184171Y33668D01*
X184229Y33616D01*
X184289Y33566D01*
X184351Y33520D01*
X184416Y33476D01*
X184483Y33435D01*
X184551Y33398D01*
X184621Y33364D01*
X184693Y33333D01*
X184766Y33306D01*
X184840Y33282D01*
X184915Y33262D01*
X184991Y33246D01*
X185068Y33233D01*
X185145Y33223D01*
X185223Y33218D01*
X185301Y33216D01*
X185301Y33217D02*
X189393Y33217D01*
X189393Y33216D02*
X189471Y33218D01*
X189549Y33223D01*
X189626Y33233D01*
X189703Y33246D01*
X189779Y33262D01*
X189854Y33282D01*
X189928Y33306D01*
X190001Y33333D01*
X190073Y33364D01*
X190143Y33398D01*
X190212Y33435D01*
X190278Y33476D01*
X190343Y33520D01*
X190405Y33566D01*
X190465Y33616D01*
X190523Y33668D01*
X190578Y33723D01*
X190630Y33781D01*
X190680Y33841D01*
X190726Y33903D01*
X190770Y33968D01*
X190811Y34035D01*
X190848Y34103D01*
X190882Y34173D01*
X190913Y34245D01*
X190940Y34318D01*
X190964Y34392D01*
X190984Y34467D01*
X191000Y34543D01*
X191013Y34620D01*
X191023Y34697D01*
X191028Y34775D01*
X191030Y34853D01*
X191030Y36490D01*
X191030Y41022D02*
X185301Y41022D01*
X185223Y41020D01*
X185145Y41015D01*
X185068Y41005D01*
X184991Y40992D01*
X184915Y40976D01*
X184840Y40956D01*
X184766Y40932D01*
X184693Y40905D01*
X184621Y40874D01*
X184551Y40840D01*
X184483Y40803D01*
X184416Y40762D01*
X184351Y40718D01*
X184289Y40672D01*
X184229Y40622D01*
X184171Y40570D01*
X184116Y40515D01*
X184064Y40457D01*
X184014Y40397D01*
X183968Y40335D01*
X183924Y40270D01*
X183883Y40204D01*
X183846Y40135D01*
X183812Y40065D01*
X183781Y39993D01*
X183754Y39920D01*
X183730Y39846D01*
X183710Y39771D01*
X183694Y39695D01*
X183681Y39618D01*
X183671Y39541D01*
X183666Y39463D01*
X183664Y39385D01*
X183664Y38566D01*
X183664Y44716D02*
X191030Y44716D01*
X183664Y44716D02*
X183664Y47989D01*
X183664Y52410D02*
X183664Y54047D01*
X183664Y52410D02*
X183666Y52332D01*
X183671Y52254D01*
X183681Y52177D01*
X183694Y52100D01*
X183710Y52024D01*
X183730Y51949D01*
X183754Y51875D01*
X183781Y51802D01*
X183812Y51730D01*
X183846Y51660D01*
X183883Y51592D01*
X183924Y51525D01*
X183968Y51460D01*
X184014Y51398D01*
X184064Y51338D01*
X184116Y51280D01*
X184171Y51225D01*
X184229Y51173D01*
X184289Y51123D01*
X184351Y51077D01*
X184416Y51033D01*
X184483Y50992D01*
X184551Y50955D01*
X184621Y50921D01*
X184693Y50890D01*
X184766Y50863D01*
X184840Y50839D01*
X184915Y50819D01*
X184991Y50803D01*
X185068Y50790D01*
X185145Y50780D01*
X185223Y50775D01*
X185301Y50773D01*
X189393Y50773D01*
X189471Y50775D01*
X189549Y50780D01*
X189626Y50790D01*
X189703Y50803D01*
X189779Y50819D01*
X189854Y50839D01*
X189928Y50863D01*
X190001Y50890D01*
X190073Y50921D01*
X190143Y50955D01*
X190212Y50992D01*
X190278Y51033D01*
X190343Y51077D01*
X190405Y51123D01*
X190465Y51173D01*
X190523Y51225D01*
X190578Y51280D01*
X190630Y51338D01*
X190680Y51398D01*
X190726Y51460D01*
X190770Y51525D01*
X190811Y51592D01*
X190848Y51660D01*
X190882Y51730D01*
X190913Y51802D01*
X190940Y51875D01*
X190964Y51949D01*
X190984Y52024D01*
X191000Y52100D01*
X191013Y52177D01*
X191023Y52254D01*
X191028Y52332D01*
X191030Y52410D01*
X191030Y54047D01*
X191030Y58578D02*
X185301Y58578D01*
X185223Y58576D01*
X185145Y58571D01*
X185068Y58561D01*
X184991Y58548D01*
X184915Y58532D01*
X184840Y58512D01*
X184766Y58488D01*
X184693Y58461D01*
X184621Y58430D01*
X184551Y58396D01*
X184483Y58359D01*
X184416Y58318D01*
X184351Y58274D01*
X184289Y58228D01*
X184229Y58178D01*
X184171Y58126D01*
X184116Y58071D01*
X184064Y58013D01*
X184014Y57953D01*
X183968Y57891D01*
X183924Y57826D01*
X183883Y57760D01*
X183846Y57691D01*
X183812Y57621D01*
X183781Y57549D01*
X183754Y57476D01*
X183730Y57402D01*
X183710Y57327D01*
X183694Y57251D01*
X183681Y57174D01*
X183671Y57097D01*
X183666Y57019D01*
X183664Y56941D01*
X183664Y56123D01*
X183664Y62272D02*
X191030Y62272D01*
X183664Y62272D02*
X183664Y65546D01*
X183664Y69966D02*
X183664Y71603D01*
X183664Y69966D02*
X183666Y69888D01*
X183671Y69810D01*
X183681Y69733D01*
X183694Y69656D01*
X183710Y69580D01*
X183730Y69505D01*
X183754Y69431D01*
X183781Y69358D01*
X183812Y69286D01*
X183846Y69216D01*
X183883Y69148D01*
X183924Y69081D01*
X183968Y69016D01*
X184014Y68954D01*
X184064Y68894D01*
X184116Y68836D01*
X184171Y68781D01*
X184229Y68729D01*
X184289Y68679D01*
X184351Y68633D01*
X184416Y68589D01*
X184483Y68548D01*
X184551Y68511D01*
X184621Y68477D01*
X184693Y68446D01*
X184766Y68419D01*
X184840Y68395D01*
X184915Y68375D01*
X184991Y68359D01*
X185068Y68346D01*
X185145Y68336D01*
X185223Y68331D01*
X185301Y68329D01*
X189393Y68329D01*
X189471Y68331D01*
X189549Y68336D01*
X189626Y68346D01*
X189703Y68359D01*
X189779Y68375D01*
X189854Y68395D01*
X189928Y68419D01*
X190001Y68446D01*
X190073Y68477D01*
X190143Y68511D01*
X190212Y68548D01*
X190278Y68589D01*
X190343Y68633D01*
X190405Y68679D01*
X190465Y68729D01*
X190523Y68781D01*
X190578Y68836D01*
X190630Y68894D01*
X190680Y68954D01*
X190726Y69016D01*
X190770Y69081D01*
X190811Y69148D01*
X190848Y69216D01*
X190882Y69286D01*
X190913Y69358D01*
X190940Y69431D01*
X190964Y69505D01*
X190984Y69580D01*
X191000Y69656D01*
X191013Y69733D01*
X191023Y69810D01*
X191028Y69888D01*
X191030Y69966D01*
X191030Y71603D01*
D11*
X116486Y7952D02*
X107596Y7890D01*
X116486Y7952D02*
X116469Y10422D01*
X116468Y10421D02*
X116465Y10519D01*
X116459Y10617D01*
X116448Y10715D01*
X116434Y10812D01*
X116416Y10909D01*
X116394Y11004D01*
X116368Y11099D01*
X116339Y11193D01*
X116305Y11285D01*
X116269Y11376D01*
X116228Y11466D01*
X116184Y11553D01*
X116137Y11639D01*
X116086Y11723D01*
X116032Y11805D01*
X115975Y11885D01*
X115914Y11962D01*
X115851Y12037D01*
X115784Y12110D01*
X115715Y12179D01*
X115643Y12246D01*
X115569Y12310D01*
X115492Y12371D01*
X115412Y12429D01*
X115331Y12483D01*
X115247Y12534D01*
X115161Y12582D01*
X115074Y12627D01*
X114984Y12668D01*
X114894Y12705D01*
X114801Y12739D01*
X114708Y12769D01*
X114613Y12795D01*
X114518Y12818D01*
X114421Y12837D01*
X114324Y12851D01*
X114227Y12862D01*
X114129Y12870D01*
X114031Y12873D01*
X113933Y12872D01*
X113835Y12868D01*
X113737Y12859D01*
X113639Y12847D01*
X113543Y12830D01*
X113446Y12810D01*
X113351Y12787D01*
X113257Y12759D01*
X113164Y12728D01*
X113072Y12692D01*
X112982Y12654D01*
X112893Y12612D01*
X112806Y12566D01*
X112721Y12517D01*
X112638Y12464D01*
X112558Y12409D01*
X112479Y12350D01*
X112403Y12288D01*
X112329Y12223D01*
X112258Y12155D01*
X112190Y12084D01*
X112125Y12011D01*
X112062Y11935D01*
X112003Y11857D01*
X111947Y11777D01*
X111894Y11694D01*
X111844Y11609D01*
X111798Y11523D01*
X111755Y11434D01*
X111716Y11344D01*
X111680Y11253D01*
X111649Y11160D01*
X111620Y11066D01*
X111596Y10971D01*
X111575Y10875D01*
X111558Y10778D01*
X111546Y10681D01*
X111536Y10583D01*
X111531Y10485D01*
X111530Y10387D01*
X111547Y7918D01*
X111526Y10881D02*
X107562Y12829D01*
X107514Y19617D02*
X107515Y19703D01*
X107520Y19789D01*
X107529Y19875D01*
X107542Y19961D01*
X107558Y20045D01*
X107578Y20129D01*
X107601Y20212D01*
X107628Y20294D01*
X107659Y20374D01*
X107693Y20454D01*
X107731Y20531D01*
X107772Y20607D01*
X107816Y20681D01*
X107863Y20753D01*
X107914Y20823D01*
X107967Y20891D01*
X108024Y20956D01*
X108083Y21018D01*
X108145Y21079D01*
X108209Y21136D01*
X108276Y21190D01*
X108345Y21242D01*
X108417Y21290D01*
X108490Y21335D01*
X108565Y21377D01*
X108642Y21416D01*
X108721Y21451D01*
X108801Y21483D01*
X108883Y21511D01*
X108965Y21536D01*
X109049Y21557D01*
X109133Y21575D01*
X109218Y21588D01*
X109304Y21598D01*
X109390Y21604D01*
X109476Y21607D01*
X107514Y19617D02*
X107517Y19490D01*
X107524Y19364D01*
X107534Y19237D01*
X107548Y19111D01*
X107567Y18986D01*
X107588Y18861D01*
X107614Y18737D01*
X107644Y18614D01*
X107677Y18492D01*
X107714Y18370D01*
X107754Y18250D01*
X107799Y18131D01*
X107846Y18014D01*
X107898Y17898D01*
X107952Y17784D01*
X108011Y17671D01*
X108072Y17561D01*
X108137Y17452D01*
X108206Y17345D01*
X108277Y17241D01*
X108352Y17138D01*
X108429Y17038D01*
X108510Y16940D01*
X108594Y16845D01*
X108680Y16752D01*
X108769Y16662D01*
X114448Y16948D02*
X114534Y16951D01*
X114620Y16957D01*
X114706Y16967D01*
X114791Y16980D01*
X114875Y16998D01*
X114959Y17019D01*
X115041Y17044D01*
X115123Y17072D01*
X115203Y17104D01*
X115282Y17139D01*
X115359Y17178D01*
X115434Y17220D01*
X115507Y17265D01*
X115579Y17313D01*
X115648Y17365D01*
X115715Y17419D01*
X115779Y17477D01*
X115841Y17537D01*
X115900Y17599D01*
X115957Y17664D01*
X116010Y17732D01*
X116061Y17802D01*
X116108Y17874D01*
X116152Y17948D01*
X116193Y18024D01*
X116231Y18101D01*
X116265Y18181D01*
X116296Y18261D01*
X116323Y18343D01*
X116346Y18426D01*
X116366Y18510D01*
X116382Y18595D01*
X116395Y18680D01*
X116404Y18766D01*
X116409Y18852D01*
X116410Y18938D01*
X116407Y19057D01*
X116401Y19176D01*
X116390Y19295D01*
X116376Y19413D01*
X116358Y19531D01*
X116336Y19648D01*
X116311Y19765D01*
X116281Y19880D01*
X116248Y19995D01*
X116212Y20108D01*
X116171Y20220D01*
X116127Y20331D01*
X116080Y20441D01*
X116029Y20548D01*
X115975Y20654D01*
X115917Y20759D01*
X115856Y20861D01*
X115792Y20961D01*
X115724Y21060D01*
X115653Y21156D01*
X112711Y17924D02*
X112757Y17850D01*
X112807Y17779D01*
X112859Y17710D01*
X112914Y17643D01*
X112972Y17578D01*
X113033Y17517D01*
X113097Y17457D01*
X113163Y17401D01*
X113231Y17348D01*
X113302Y17297D01*
X113375Y17250D01*
X113449Y17206D01*
X113526Y17165D01*
X113604Y17127D01*
X113684Y17093D01*
X113765Y17062D01*
X113848Y17035D01*
X113931Y17012D01*
X114016Y16992D01*
X114101Y16976D01*
X114187Y16963D01*
X114273Y16954D01*
X114360Y16949D01*
X114447Y16948D01*
X111212Y20631D02*
X111166Y20705D01*
X111116Y20776D01*
X111064Y20845D01*
X111009Y20912D01*
X110951Y20977D01*
X110890Y21038D01*
X110826Y21098D01*
X110760Y21154D01*
X110692Y21207D01*
X110621Y21258D01*
X110548Y21305D01*
X110474Y21349D01*
X110397Y21390D01*
X110319Y21428D01*
X110239Y21462D01*
X110158Y21493D01*
X110075Y21520D01*
X109992Y21543D01*
X109907Y21563D01*
X109822Y21579D01*
X109736Y21592D01*
X109650Y21601D01*
X109563Y21606D01*
X109476Y21607D01*
X111211Y20631D02*
X112712Y17925D01*
X116350Y27415D02*
X107460Y27352D01*
X116367Y24945D02*
X116333Y29884D01*
X103786Y7952D02*
X94896Y7890D01*
X103786Y7952D02*
X103769Y10422D01*
X103768Y10421D02*
X103765Y10518D01*
X103759Y10615D01*
X103749Y10711D01*
X103735Y10807D01*
X103717Y10903D01*
X103696Y10997D01*
X103671Y11091D01*
X103642Y11183D01*
X103609Y11275D01*
X103573Y11365D01*
X103534Y11453D01*
X103491Y11540D01*
X103445Y11625D01*
X103395Y11709D01*
X103342Y11790D01*
X103286Y11869D01*
X103227Y11946D01*
X103165Y12021D01*
X103100Y12093D01*
X103033Y12162D01*
X102962Y12229D01*
X102889Y12293D01*
X102814Y12354D01*
X102736Y12412D01*
X102656Y12466D01*
X102574Y12518D01*
X102490Y12567D01*
X102405Y12612D01*
X102317Y12653D01*
X102228Y12692D01*
X102137Y12726D01*
X102046Y12757D01*
X101953Y12785D01*
X101859Y12809D01*
X101764Y12829D01*
X101668Y12845D01*
X101572Y12858D01*
X101476Y12867D01*
X101379Y12872D01*
X101282Y12873D01*
X101282Y12874D02*
X97331Y12846D01*
X97234Y12843D01*
X97137Y12837D01*
X97041Y12827D01*
X96945Y12813D01*
X96849Y12795D01*
X96755Y12774D01*
X96661Y12749D01*
X96569Y12720D01*
X96477Y12687D01*
X96387Y12651D01*
X96299Y12612D01*
X96212Y12569D01*
X96127Y12523D01*
X96043Y12473D01*
X95962Y12420D01*
X95883Y12364D01*
X95806Y12305D01*
X95731Y12243D01*
X95659Y12178D01*
X95590Y12111D01*
X95523Y12040D01*
X95459Y11967D01*
X95398Y11892D01*
X95340Y11814D01*
X95286Y11734D01*
X95234Y11652D01*
X95185Y11568D01*
X95140Y11483D01*
X95099Y11395D01*
X95060Y11306D01*
X95026Y11215D01*
X94995Y11124D01*
X94967Y11031D01*
X94943Y10937D01*
X94923Y10842D01*
X94907Y10746D01*
X94894Y10650D01*
X94885Y10554D01*
X94880Y10457D01*
X94879Y10360D01*
X94896Y7890D01*
X94826Y17979D02*
X103715Y18041D01*
X94832Y16992D02*
X94819Y18967D01*
X103708Y19029D02*
X103722Y17054D01*
X101212Y22870D02*
X97261Y22842D01*
X101212Y22870D02*
X101310Y22873D01*
X101408Y22879D01*
X101506Y22890D01*
X101603Y22904D01*
X101700Y22922D01*
X101795Y22944D01*
X101890Y22970D01*
X101984Y22999D01*
X102076Y23033D01*
X102167Y23069D01*
X102257Y23110D01*
X102344Y23154D01*
X102430Y23201D01*
X102514Y23252D01*
X102596Y23306D01*
X102676Y23363D01*
X102753Y23424D01*
X102828Y23487D01*
X102901Y23554D01*
X102970Y23623D01*
X103037Y23695D01*
X103101Y23769D01*
X103162Y23846D01*
X103220Y23926D01*
X103274Y24007D01*
X103325Y24091D01*
X103373Y24177D01*
X103418Y24264D01*
X103459Y24354D01*
X103496Y24444D01*
X103530Y24537D01*
X103560Y24630D01*
X103586Y24725D01*
X103609Y24820D01*
X103628Y24916D01*
X103642Y25014D01*
X103653Y25111D01*
X103661Y25209D01*
X103664Y25307D01*
X103663Y25405D01*
X103659Y25503D01*
X103650Y25601D01*
X103638Y25699D01*
X103621Y25795D01*
X103601Y25892D01*
X103578Y25987D01*
X103550Y26081D01*
X103519Y26174D01*
X103483Y26266D01*
X103445Y26356D01*
X103403Y26445D01*
X103357Y26531D01*
X103308Y26617D01*
X103255Y26699D01*
X103200Y26780D01*
X103141Y26859D01*
X103079Y26935D01*
X103014Y27009D01*
X102946Y27080D01*
X102875Y27148D01*
X102802Y27213D01*
X102726Y27276D01*
X102648Y27335D01*
X102568Y27391D01*
X102485Y27444D01*
X102400Y27494D01*
X102314Y27540D01*
X102225Y27583D01*
X102135Y27622D01*
X102044Y27658D01*
X101951Y27689D01*
X101857Y27718D01*
X101762Y27742D01*
X101666Y27763D01*
X101569Y27779D01*
X101472Y27792D01*
X101374Y27802D01*
X101276Y27807D01*
X101178Y27808D01*
X101178Y27809D02*
X97227Y27781D01*
X97129Y27778D01*
X97031Y27772D01*
X96933Y27761D01*
X96836Y27747D01*
X96739Y27729D01*
X96644Y27707D01*
X96549Y27681D01*
X96455Y27652D01*
X96363Y27618D01*
X96272Y27582D01*
X96182Y27541D01*
X96095Y27497D01*
X96009Y27450D01*
X95925Y27399D01*
X95843Y27345D01*
X95763Y27288D01*
X95686Y27227D01*
X95611Y27164D01*
X95538Y27097D01*
X95469Y27028D01*
X95402Y26956D01*
X95338Y26882D01*
X95277Y26805D01*
X95219Y26725D01*
X95165Y26644D01*
X95114Y26560D01*
X95066Y26474D01*
X95021Y26387D01*
X94980Y26297D01*
X94943Y26207D01*
X94909Y26114D01*
X94879Y26021D01*
X94853Y25926D01*
X94830Y25831D01*
X94811Y25734D01*
X94797Y25637D01*
X94786Y25540D01*
X94778Y25442D01*
X94775Y25344D01*
X94776Y25246D01*
X94780Y25148D01*
X94789Y25050D01*
X94801Y24952D01*
X94818Y24856D01*
X94838Y24759D01*
X94861Y24664D01*
X94889Y24570D01*
X94920Y24477D01*
X94956Y24385D01*
X94994Y24295D01*
X95036Y24206D01*
X95082Y24119D01*
X95131Y24034D01*
X95184Y23951D01*
X95239Y23871D01*
X95298Y23792D01*
X95360Y23716D01*
X95425Y23642D01*
X95493Y23571D01*
X95564Y23503D01*
X95637Y23438D01*
X95713Y23375D01*
X95791Y23316D01*
X95871Y23260D01*
X95954Y23207D01*
X96039Y23157D01*
X96125Y23111D01*
X96214Y23068D01*
X96304Y23029D01*
X96395Y22993D01*
X96488Y22962D01*
X96582Y22933D01*
X96677Y22909D01*
X96773Y22888D01*
X96870Y22871D01*
X96967Y22859D01*
X97065Y22849D01*
X97163Y22844D01*
X97261Y22843D01*
X94728Y31969D02*
X94711Y34438D01*
X94712Y34536D01*
X94717Y34634D01*
X94727Y34732D01*
X94740Y34829D01*
X94756Y34926D01*
X94777Y35022D01*
X94801Y35117D01*
X94830Y35211D01*
X94861Y35304D01*
X94897Y35395D01*
X94936Y35485D01*
X94979Y35574D01*
X95025Y35660D01*
X95075Y35745D01*
X95128Y35828D01*
X95184Y35908D01*
X95243Y35986D01*
X95306Y36062D01*
X95371Y36135D01*
X95439Y36206D01*
X95510Y36274D01*
X95584Y36339D01*
X95660Y36401D01*
X95739Y36460D01*
X95820Y36515D01*
X95902Y36568D01*
X95988Y36617D01*
X96074Y36663D01*
X96163Y36705D01*
X96253Y36743D01*
X96345Y36779D01*
X96438Y36810D01*
X96532Y36838D01*
X96627Y36861D01*
X96724Y36881D01*
X96820Y36898D01*
X96918Y36910D01*
X97016Y36919D01*
X97114Y36923D01*
X97212Y36924D01*
X97310Y36921D01*
X97408Y36913D01*
X97505Y36902D01*
X97603Y36888D01*
X97699Y36869D01*
X97794Y36846D01*
X97889Y36820D01*
X97982Y36790D01*
X98075Y36756D01*
X98165Y36719D01*
X98255Y36678D01*
X98342Y36633D01*
X98428Y36585D01*
X98512Y36534D01*
X98593Y36480D01*
X98673Y36422D01*
X98750Y36361D01*
X98824Y36297D01*
X98896Y36230D01*
X98965Y36161D01*
X99032Y36088D01*
X99095Y36013D01*
X99156Y35936D01*
X99213Y35856D01*
X99267Y35774D01*
X99318Y35690D01*
X99365Y35604D01*
X99409Y35517D01*
X99450Y35427D01*
X99486Y35336D01*
X99520Y35244D01*
X99549Y35150D01*
X99575Y35055D01*
X99597Y34960D01*
X99615Y34863D01*
X99629Y34766D01*
X99640Y34668D01*
X99646Y34570D01*
X99649Y34472D01*
X103597Y34994D02*
X103618Y32031D01*
X103598Y34994D02*
X103595Y35081D01*
X103589Y35168D01*
X103579Y35255D01*
X103565Y35341D01*
X103547Y35427D01*
X103525Y35512D01*
X103500Y35595D01*
X103471Y35678D01*
X103438Y35759D01*
X103402Y35839D01*
X103362Y35916D01*
X103319Y35992D01*
X103272Y36067D01*
X103223Y36138D01*
X103170Y36208D01*
X103114Y36275D01*
X103055Y36340D01*
X102994Y36402D01*
X102930Y36462D01*
X102863Y36518D01*
X102794Y36571D01*
X102722Y36622D01*
X102648Y36669D01*
X102573Y36712D01*
X102495Y36753D01*
X102416Y36790D01*
X102335Y36823D01*
X102253Y36853D01*
X102169Y36879D01*
X102085Y36901D01*
X101999Y36920D01*
X101913Y36934D01*
X101826Y36945D01*
X101739Y36953D01*
X101652Y36956D01*
X101565Y36955D01*
X101477Y36951D01*
X101390Y36942D01*
X101304Y36930D01*
X101218Y36914D01*
X101132Y36894D01*
X101048Y36871D01*
X100965Y36844D01*
X100883Y36813D01*
X100803Y36778D01*
X100724Y36740D01*
X100647Y36699D01*
X100572Y36654D01*
X100499Y36606D01*
X100428Y36555D01*
X100360Y36500D01*
X100294Y36443D01*
X100230Y36383D01*
X100170Y36320D01*
X100112Y36254D01*
X100057Y36186D01*
X100005Y36116D01*
X99957Y36043D01*
X99911Y35969D01*
X99869Y35892D01*
X99830Y35814D01*
X99795Y35734D01*
X99764Y35652D01*
X99736Y35569D01*
X99712Y35485D01*
X99691Y35400D01*
X99674Y35314D01*
X99662Y35228D01*
X99653Y35141D01*
X99647Y35054D01*
X99646Y34966D01*
X99660Y32991D01*
X99109Y41143D02*
X99284Y41146D01*
X99459Y41154D01*
X99634Y41166D01*
X99808Y41181D01*
X99982Y41201D01*
X100155Y41226D01*
X100327Y41254D01*
X100499Y41286D01*
X100670Y41323D01*
X100840Y41363D01*
X101010Y41408D01*
X101178Y41456D01*
X101344Y41509D01*
X101510Y41565D01*
X101674Y41626D01*
X101837Y41690D01*
X101998Y41758D01*
X102157Y41831D01*
X102315Y41906D01*
X102314Y41906D02*
X102393Y41936D01*
X102470Y41969D01*
X102545Y42005D01*
X102619Y42046D01*
X102691Y42089D01*
X102761Y42136D01*
X102828Y42186D01*
X102893Y42239D01*
X102956Y42294D01*
X103016Y42353D01*
X103073Y42415D01*
X103128Y42478D01*
X103179Y42545D01*
X103228Y42614D01*
X103273Y42684D01*
X103315Y42757D01*
X103353Y42832D01*
X103388Y42908D01*
X103419Y42986D01*
X103447Y43065D01*
X103471Y43146D01*
X103492Y43227D01*
X103509Y43309D01*
X103521Y43392D01*
X103530Y43476D01*
X103536Y43560D01*
X103537Y43644D01*
X103534Y43728D01*
X103528Y43811D01*
X103518Y43895D01*
X103504Y43977D01*
X103486Y44059D01*
X103465Y44141D01*
X103439Y44221D01*
X103410Y44299D01*
X103378Y44377D01*
X103342Y44453D01*
X103302Y44527D01*
X103260Y44599D01*
X103213Y44669D01*
X103164Y44737D01*
X103112Y44803D01*
X103057Y44866D01*
X102998Y44926D01*
X102938Y44984D01*
X102874Y45039D01*
X102808Y45091D01*
X102740Y45140D01*
X102670Y45186D01*
X102597Y45228D01*
X102523Y45267D01*
X102447Y45303D01*
X102369Y45335D01*
X102290Y45363D01*
X102131Y45437D01*
X101971Y45507D01*
X101809Y45573D01*
X101645Y45635D01*
X101480Y45693D01*
X101314Y45747D01*
X101147Y45798D01*
X100978Y45844D01*
X100808Y45886D01*
X100638Y45924D01*
X100466Y45958D01*
X100294Y45988D01*
X100121Y46014D01*
X99947Y46036D01*
X99773Y46053D01*
X99599Y46067D01*
X99424Y46076D01*
X99249Y46081D01*
X99075Y46082D01*
X99109Y41143D02*
X98934Y41144D01*
X98759Y41149D01*
X98585Y41158D01*
X98410Y41172D01*
X98236Y41189D01*
X98063Y41211D01*
X97890Y41237D01*
X97717Y41267D01*
X97546Y41301D01*
X97375Y41339D01*
X97205Y41381D01*
X97037Y41427D01*
X96869Y41478D01*
X96703Y41532D01*
X96538Y41590D01*
X96375Y41652D01*
X96213Y41718D01*
X96052Y41788D01*
X95894Y41862D01*
X95893Y41862D02*
X95814Y41890D01*
X95737Y41922D01*
X95660Y41958D01*
X95586Y41997D01*
X95514Y42040D01*
X95443Y42085D01*
X95375Y42134D01*
X95309Y42186D01*
X95246Y42241D01*
X95185Y42299D01*
X95127Y42360D01*
X95071Y42423D01*
X95019Y42488D01*
X94970Y42556D01*
X94924Y42627D01*
X94881Y42699D01*
X94841Y42773D01*
X94805Y42849D01*
X94773Y42926D01*
X94744Y43005D01*
X94719Y43085D01*
X94697Y43166D01*
X94679Y43248D01*
X94665Y43331D01*
X94655Y43414D01*
X94649Y43498D01*
X94646Y43582D01*
X95870Y45319D02*
X96028Y45394D01*
X96187Y45467D01*
X96348Y45535D01*
X96511Y45599D01*
X96675Y45660D01*
X96840Y45716D01*
X97007Y45769D01*
X97175Y45817D01*
X97344Y45862D01*
X97514Y45902D01*
X97685Y45939D01*
X97857Y45971D01*
X98030Y46000D01*
X98203Y46024D01*
X98377Y46044D01*
X98551Y46059D01*
X98725Y46071D01*
X98900Y46079D01*
X99075Y46082D01*
X95869Y45319D02*
X95791Y45289D01*
X95714Y45256D01*
X95638Y45220D01*
X95565Y45180D01*
X95493Y45136D01*
X95423Y45089D01*
X95355Y45040D01*
X95290Y44987D01*
X95228Y44931D01*
X95168Y44872D01*
X95110Y44811D01*
X95056Y44747D01*
X95004Y44681D01*
X94956Y44612D01*
X94911Y44541D01*
X94869Y44468D01*
X94831Y44394D01*
X94796Y44317D01*
X94764Y44240D01*
X94737Y44160D01*
X94713Y44080D01*
X94692Y43999D01*
X94675Y43916D01*
X94663Y43833D01*
X94654Y43750D01*
X94648Y43666D01*
X94647Y43582D01*
X96636Y41620D02*
X101547Y45606D01*
X91086Y7952D02*
X82196Y7890D01*
X91086Y7952D02*
X91069Y10422D01*
X91068Y10421D02*
X91065Y10518D01*
X91059Y10615D01*
X91049Y10711D01*
X91035Y10807D01*
X91017Y10903D01*
X90996Y10997D01*
X90971Y11091D01*
X90942Y11183D01*
X90909Y11275D01*
X90873Y11365D01*
X90834Y11453D01*
X90791Y11540D01*
X90745Y11625D01*
X90695Y11709D01*
X90642Y11790D01*
X90586Y11869D01*
X90527Y11946D01*
X90465Y12021D01*
X90400Y12093D01*
X90333Y12162D01*
X90262Y12229D01*
X90189Y12293D01*
X90114Y12354D01*
X90036Y12412D01*
X89956Y12466D01*
X89874Y12518D01*
X89790Y12567D01*
X89705Y12612D01*
X89617Y12653D01*
X89528Y12692D01*
X89437Y12726D01*
X89346Y12757D01*
X89253Y12785D01*
X89159Y12809D01*
X89064Y12829D01*
X88968Y12845D01*
X88872Y12858D01*
X88776Y12867D01*
X88679Y12872D01*
X88582Y12873D01*
X88582Y12874D02*
X84631Y12846D01*
X84534Y12843D01*
X84437Y12837D01*
X84341Y12827D01*
X84245Y12813D01*
X84149Y12795D01*
X84055Y12774D01*
X83961Y12749D01*
X83869Y12720D01*
X83777Y12687D01*
X83687Y12651D01*
X83599Y12612D01*
X83512Y12569D01*
X83427Y12523D01*
X83343Y12473D01*
X83262Y12420D01*
X83183Y12364D01*
X83106Y12305D01*
X83031Y12243D01*
X82959Y12178D01*
X82890Y12111D01*
X82823Y12040D01*
X82759Y11967D01*
X82698Y11892D01*
X82640Y11814D01*
X82586Y11734D01*
X82534Y11652D01*
X82485Y11568D01*
X82440Y11483D01*
X82399Y11395D01*
X82360Y11306D01*
X82326Y11215D01*
X82295Y11124D01*
X82267Y11031D01*
X82243Y10937D01*
X82223Y10842D01*
X82207Y10746D01*
X82194Y10650D01*
X82185Y10554D01*
X82180Y10457D01*
X82179Y10360D01*
X82196Y7890D01*
X82126Y17979D02*
X91015Y18041D01*
X82132Y16992D02*
X82119Y18967D01*
X91008Y19029D02*
X91022Y17054D01*
X88512Y22870D02*
X84561Y22842D01*
X88512Y22870D02*
X88610Y22873D01*
X88708Y22879D01*
X88806Y22890D01*
X88903Y22904D01*
X89000Y22922D01*
X89095Y22944D01*
X89190Y22970D01*
X89284Y22999D01*
X89376Y23033D01*
X89467Y23069D01*
X89557Y23110D01*
X89644Y23154D01*
X89730Y23201D01*
X89814Y23252D01*
X89896Y23306D01*
X89976Y23363D01*
X90053Y23424D01*
X90128Y23487D01*
X90201Y23554D01*
X90270Y23623D01*
X90337Y23695D01*
X90401Y23769D01*
X90462Y23846D01*
X90520Y23926D01*
X90574Y24007D01*
X90625Y24091D01*
X90673Y24177D01*
X90718Y24264D01*
X90759Y24354D01*
X90796Y24444D01*
X90830Y24537D01*
X90860Y24630D01*
X90886Y24725D01*
X90909Y24820D01*
X90928Y24916D01*
X90942Y25014D01*
X90953Y25111D01*
X90961Y25209D01*
X90964Y25307D01*
X90963Y25405D01*
X90959Y25503D01*
X90950Y25601D01*
X90938Y25699D01*
X90921Y25795D01*
X90901Y25892D01*
X90878Y25987D01*
X90850Y26081D01*
X90819Y26174D01*
X90783Y26266D01*
X90745Y26356D01*
X90703Y26445D01*
X90657Y26531D01*
X90608Y26617D01*
X90555Y26699D01*
X90500Y26780D01*
X90441Y26859D01*
X90379Y26935D01*
X90314Y27009D01*
X90246Y27080D01*
X90175Y27148D01*
X90102Y27213D01*
X90026Y27276D01*
X89948Y27335D01*
X89868Y27391D01*
X89785Y27444D01*
X89700Y27494D01*
X89614Y27540D01*
X89525Y27583D01*
X89435Y27622D01*
X89344Y27658D01*
X89251Y27689D01*
X89157Y27718D01*
X89062Y27742D01*
X88966Y27763D01*
X88869Y27779D01*
X88772Y27792D01*
X88674Y27802D01*
X88576Y27807D01*
X88478Y27808D01*
X88478Y27809D02*
X84527Y27781D01*
X84429Y27778D01*
X84331Y27772D01*
X84233Y27761D01*
X84136Y27747D01*
X84039Y27729D01*
X83944Y27707D01*
X83849Y27681D01*
X83755Y27652D01*
X83663Y27618D01*
X83572Y27582D01*
X83482Y27541D01*
X83395Y27497D01*
X83309Y27450D01*
X83225Y27399D01*
X83143Y27345D01*
X83063Y27288D01*
X82986Y27227D01*
X82911Y27164D01*
X82838Y27097D01*
X82769Y27028D01*
X82702Y26956D01*
X82638Y26882D01*
X82577Y26805D01*
X82519Y26725D01*
X82465Y26644D01*
X82414Y26560D01*
X82366Y26474D01*
X82321Y26387D01*
X82280Y26297D01*
X82243Y26207D01*
X82209Y26114D01*
X82179Y26021D01*
X82153Y25926D01*
X82130Y25831D01*
X82111Y25734D01*
X82097Y25637D01*
X82086Y25540D01*
X82078Y25442D01*
X82075Y25344D01*
X82076Y25246D01*
X82080Y25148D01*
X82089Y25050D01*
X82101Y24952D01*
X82118Y24856D01*
X82138Y24759D01*
X82161Y24664D01*
X82189Y24570D01*
X82220Y24477D01*
X82256Y24385D01*
X82294Y24295D01*
X82336Y24206D01*
X82382Y24119D01*
X82431Y24034D01*
X82484Y23951D01*
X82539Y23871D01*
X82598Y23792D01*
X82660Y23716D01*
X82725Y23642D01*
X82793Y23571D01*
X82864Y23503D01*
X82937Y23438D01*
X83013Y23375D01*
X83091Y23316D01*
X83171Y23260D01*
X83254Y23207D01*
X83339Y23157D01*
X83425Y23111D01*
X83514Y23068D01*
X83604Y23029D01*
X83695Y22993D01*
X83788Y22962D01*
X83882Y22933D01*
X83977Y22909D01*
X84073Y22888D01*
X84170Y22871D01*
X84267Y22859D01*
X84365Y22849D01*
X84463Y22844D01*
X84561Y22843D01*
X90899Y34748D02*
X90896Y34839D01*
X90890Y34931D01*
X90880Y35022D01*
X90866Y35113D01*
X90848Y35203D01*
X90827Y35293D01*
X90802Y35381D01*
X90773Y35468D01*
X90741Y35555D01*
X90705Y35639D01*
X90666Y35722D01*
X90624Y35804D01*
X90578Y35883D01*
X90528Y35961D01*
X90476Y36036D01*
X90421Y36110D01*
X90362Y36181D01*
X90301Y36249D01*
X90237Y36315D01*
X90170Y36378D01*
X90101Y36438D01*
X90029Y36496D01*
X89955Y36550D01*
X89879Y36601D01*
X89801Y36650D01*
X89720Y36694D01*
X89638Y36736D01*
X89555Y36774D01*
X89470Y36809D01*
X89383Y36840D01*
X89295Y36867D01*
X89207Y36891D01*
X89117Y36911D01*
X89027Y36927D01*
X88936Y36940D01*
X88844Y36949D01*
X88752Y36954D01*
X88661Y36955D01*
X90899Y34747D02*
X90898Y34641D01*
X90893Y34536D01*
X90884Y34431D01*
X90871Y34326D01*
X90854Y34222D01*
X90833Y34118D01*
X90809Y34015D01*
X90781Y33914D01*
X90749Y33813D01*
X90713Y33714D01*
X90674Y33616D01*
X90631Y33519D01*
X90584Y33424D01*
X90535Y33331D01*
X90481Y33240D01*
X90425Y33151D01*
X90365Y33064D01*
X90302Y32979D01*
X90235Y32897D01*
X90166Y32817D01*
X90094Y32740D01*
X90019Y32666D01*
X89942Y32594D01*
X89861Y32525D01*
X89779Y32459D01*
X89694Y32397D01*
X89606Y32337D01*
X89517Y32281D01*
X89426Y32229D01*
X89332Y32179D01*
X89237Y32133D01*
X89140Y32091D01*
X89042Y32052D01*
X88943Y32017D01*
X86938Y36201D02*
X87006Y36270D01*
X87076Y36337D01*
X87149Y36400D01*
X87224Y36460D01*
X87302Y36518D01*
X87382Y36572D01*
X87464Y36623D01*
X87549Y36670D01*
X87635Y36714D01*
X87722Y36754D01*
X87812Y36791D01*
X87902Y36825D01*
X87994Y36854D01*
X88088Y36880D01*
X88182Y36902D01*
X88277Y36920D01*
X88372Y36934D01*
X88468Y36945D01*
X88565Y36951D01*
X88661Y36954D01*
X86937Y36201D02*
X82028Y31969D01*
X81994Y36908D01*
X85901Y43116D02*
X85881Y46079D01*
X85901Y43115D02*
X85904Y43029D01*
X85910Y42943D01*
X85920Y42857D01*
X85933Y42772D01*
X85951Y42688D01*
X85972Y42604D01*
X85997Y42522D01*
X86025Y42440D01*
X86057Y42360D01*
X86092Y42281D01*
X86131Y42204D01*
X86173Y42129D01*
X86218Y42056D01*
X86266Y41984D01*
X86318Y41915D01*
X86372Y41848D01*
X86430Y41784D01*
X86490Y41722D01*
X86552Y41663D01*
X86617Y41606D01*
X86685Y41553D01*
X86755Y41502D01*
X86827Y41455D01*
X86901Y41411D01*
X86977Y41370D01*
X87054Y41332D01*
X87134Y41298D01*
X87214Y41267D01*
X87296Y41240D01*
X87379Y41217D01*
X87463Y41197D01*
X87548Y41181D01*
X87633Y41168D01*
X87719Y41159D01*
X87805Y41154D01*
X87891Y41153D01*
X87891Y41154D02*
X88385Y41157D01*
X88384Y41158D02*
X88482Y41161D01*
X88580Y41167D01*
X88678Y41178D01*
X88775Y41192D01*
X88872Y41210D01*
X88967Y41232D01*
X89062Y41258D01*
X89156Y41287D01*
X89248Y41321D01*
X89339Y41357D01*
X89428Y41398D01*
X89516Y41442D01*
X89602Y41489D01*
X89686Y41540D01*
X89768Y41594D01*
X89848Y41651D01*
X89925Y41712D01*
X90000Y41775D01*
X90072Y41842D01*
X90142Y41911D01*
X90209Y41983D01*
X90273Y42057D01*
X90334Y42134D01*
X90392Y42214D01*
X90446Y42295D01*
X90497Y42379D01*
X90545Y42465D01*
X90590Y42552D01*
X90631Y42642D01*
X90668Y42732D01*
X90702Y42824D01*
X90732Y42918D01*
X90758Y43013D01*
X90781Y43108D01*
X90800Y43204D01*
X90814Y43302D01*
X90825Y43399D01*
X90833Y43497D01*
X90836Y43595D01*
X90835Y43693D01*
X90831Y43791D01*
X90822Y43889D01*
X90810Y43987D01*
X90793Y44083D01*
X90773Y44180D01*
X90750Y44275D01*
X90722Y44369D01*
X90691Y44462D01*
X90655Y44554D01*
X90617Y44644D01*
X90575Y44733D01*
X90529Y44820D01*
X90480Y44905D01*
X90427Y44988D01*
X90372Y45068D01*
X90313Y45147D01*
X90251Y45223D01*
X90186Y45297D01*
X90118Y45368D01*
X90047Y45436D01*
X89974Y45501D01*
X89898Y45564D01*
X89820Y45623D01*
X89740Y45679D01*
X89657Y45732D01*
X89572Y45782D01*
X89486Y45828D01*
X89397Y45871D01*
X89307Y45910D01*
X89216Y45946D01*
X89123Y45977D01*
X89029Y46006D01*
X88934Y46030D01*
X88838Y46051D01*
X88741Y46068D01*
X88644Y46080D01*
X88546Y46090D01*
X88448Y46095D01*
X88350Y46096D01*
X85881Y46079D01*
X85880Y46079D02*
X85756Y46076D01*
X85632Y46069D01*
X85509Y46059D01*
X85385Y46044D01*
X85263Y46026D01*
X85141Y46004D01*
X85019Y45978D01*
X84899Y45948D01*
X84779Y45914D01*
X84661Y45877D01*
X84544Y45836D01*
X84428Y45791D01*
X84314Y45743D01*
X84201Y45691D01*
X84090Y45636D01*
X83980Y45577D01*
X83873Y45515D01*
X83768Y45449D01*
X83664Y45380D01*
X83563Y45308D01*
X83465Y45233D01*
X83368Y45155D01*
X83275Y45073D01*
X83183Y44989D01*
X83095Y44902D01*
X83009Y44812D01*
X82926Y44720D01*
X82846Y44625D01*
X82769Y44528D01*
X82695Y44428D01*
X82625Y44326D01*
X82557Y44222D01*
X82493Y44115D01*
X82433Y44007D01*
X82375Y43897D01*
X82321Y43785D01*
X82271Y43672D01*
X82224Y43557D01*
X82181Y43440D01*
X82142Y43323D01*
X82106Y43204D01*
X82074Y43084D01*
X82046Y42963D01*
X82022Y42841D01*
X82001Y42719D01*
X81985Y42596D01*
X81972Y42472D01*
X81963Y42349D01*
X81958Y42225D01*
X81957Y42100D01*
X78386Y7952D02*
X69496Y7890D01*
X78386Y7952D02*
X78369Y10422D01*
X78368Y10421D02*
X78365Y10518D01*
X78359Y10615D01*
X78349Y10711D01*
X78335Y10807D01*
X78317Y10903D01*
X78296Y10997D01*
X78271Y11091D01*
X78242Y11183D01*
X78209Y11275D01*
X78173Y11365D01*
X78134Y11453D01*
X78091Y11540D01*
X78045Y11625D01*
X77995Y11709D01*
X77942Y11790D01*
X77886Y11869D01*
X77827Y11946D01*
X77765Y12021D01*
X77700Y12093D01*
X77633Y12162D01*
X77562Y12229D01*
X77489Y12293D01*
X77414Y12354D01*
X77336Y12412D01*
X77256Y12466D01*
X77174Y12518D01*
X77090Y12567D01*
X77005Y12612D01*
X76917Y12653D01*
X76828Y12692D01*
X76737Y12726D01*
X76646Y12757D01*
X76553Y12785D01*
X76459Y12809D01*
X76364Y12829D01*
X76268Y12845D01*
X76172Y12858D01*
X76076Y12867D01*
X75979Y12872D01*
X75882Y12873D01*
X75882Y12874D02*
X71931Y12846D01*
X71834Y12843D01*
X71737Y12837D01*
X71641Y12827D01*
X71545Y12813D01*
X71449Y12795D01*
X71355Y12774D01*
X71261Y12749D01*
X71169Y12720D01*
X71077Y12687D01*
X70987Y12651D01*
X70899Y12612D01*
X70812Y12569D01*
X70727Y12523D01*
X70643Y12473D01*
X70562Y12420D01*
X70483Y12364D01*
X70406Y12305D01*
X70331Y12243D01*
X70259Y12178D01*
X70190Y12111D01*
X70123Y12040D01*
X70059Y11967D01*
X69998Y11892D01*
X69940Y11814D01*
X69886Y11734D01*
X69834Y11652D01*
X69785Y11568D01*
X69740Y11483D01*
X69699Y11395D01*
X69660Y11306D01*
X69626Y11215D01*
X69595Y11124D01*
X69567Y11031D01*
X69543Y10937D01*
X69523Y10842D01*
X69507Y10746D01*
X69494Y10650D01*
X69485Y10554D01*
X69480Y10457D01*
X69479Y10360D01*
X69496Y7890D01*
X69426Y17979D02*
X78315Y18041D01*
X69432Y16992D02*
X69419Y18967D01*
X78308Y19029D02*
X78322Y17054D01*
X75812Y22870D02*
X71861Y22842D01*
X75812Y22870D02*
X75910Y22873D01*
X76008Y22879D01*
X76106Y22890D01*
X76203Y22904D01*
X76300Y22922D01*
X76395Y22944D01*
X76490Y22970D01*
X76584Y22999D01*
X76676Y23033D01*
X76767Y23069D01*
X76857Y23110D01*
X76944Y23154D01*
X77030Y23201D01*
X77114Y23252D01*
X77196Y23306D01*
X77276Y23363D01*
X77353Y23424D01*
X77428Y23487D01*
X77501Y23554D01*
X77570Y23623D01*
X77637Y23695D01*
X77701Y23769D01*
X77762Y23846D01*
X77820Y23926D01*
X77874Y24007D01*
X77925Y24091D01*
X77973Y24177D01*
X78018Y24264D01*
X78059Y24354D01*
X78096Y24444D01*
X78130Y24537D01*
X78160Y24630D01*
X78186Y24725D01*
X78209Y24820D01*
X78228Y24916D01*
X78242Y25014D01*
X78253Y25111D01*
X78261Y25209D01*
X78264Y25307D01*
X78263Y25405D01*
X78259Y25503D01*
X78250Y25601D01*
X78238Y25699D01*
X78221Y25795D01*
X78201Y25892D01*
X78178Y25987D01*
X78150Y26081D01*
X78119Y26174D01*
X78083Y26266D01*
X78045Y26356D01*
X78003Y26445D01*
X77957Y26531D01*
X77908Y26617D01*
X77855Y26699D01*
X77800Y26780D01*
X77741Y26859D01*
X77679Y26935D01*
X77614Y27009D01*
X77546Y27080D01*
X77475Y27148D01*
X77402Y27213D01*
X77326Y27276D01*
X77248Y27335D01*
X77168Y27391D01*
X77085Y27444D01*
X77000Y27494D01*
X76914Y27540D01*
X76825Y27583D01*
X76735Y27622D01*
X76644Y27658D01*
X76551Y27689D01*
X76457Y27718D01*
X76362Y27742D01*
X76266Y27763D01*
X76169Y27779D01*
X76072Y27792D01*
X75974Y27802D01*
X75876Y27807D01*
X75778Y27808D01*
X75778Y27809D02*
X71827Y27781D01*
X71729Y27778D01*
X71631Y27772D01*
X71533Y27761D01*
X71436Y27747D01*
X71339Y27729D01*
X71244Y27707D01*
X71149Y27681D01*
X71055Y27652D01*
X70963Y27618D01*
X70872Y27582D01*
X70782Y27541D01*
X70695Y27497D01*
X70609Y27450D01*
X70525Y27399D01*
X70443Y27345D01*
X70363Y27288D01*
X70286Y27227D01*
X70211Y27164D01*
X70138Y27097D01*
X70069Y27028D01*
X70002Y26956D01*
X69938Y26882D01*
X69877Y26805D01*
X69819Y26725D01*
X69765Y26644D01*
X69714Y26560D01*
X69666Y26474D01*
X69621Y26387D01*
X69580Y26297D01*
X69543Y26207D01*
X69509Y26114D01*
X69479Y26021D01*
X69453Y25926D01*
X69430Y25831D01*
X69411Y25734D01*
X69397Y25637D01*
X69386Y25540D01*
X69378Y25442D01*
X69375Y25344D01*
X69376Y25246D01*
X69380Y25148D01*
X69389Y25050D01*
X69401Y24952D01*
X69418Y24856D01*
X69438Y24759D01*
X69461Y24664D01*
X69489Y24570D01*
X69520Y24477D01*
X69556Y24385D01*
X69594Y24295D01*
X69636Y24206D01*
X69682Y24119D01*
X69731Y24034D01*
X69784Y23951D01*
X69839Y23871D01*
X69898Y23792D01*
X69960Y23716D01*
X70025Y23642D01*
X70093Y23571D01*
X70164Y23503D01*
X70237Y23438D01*
X70313Y23375D01*
X70391Y23316D01*
X70471Y23260D01*
X70554Y23207D01*
X70639Y23157D01*
X70725Y23111D01*
X70814Y23068D01*
X70904Y23029D01*
X70995Y22993D01*
X71088Y22962D01*
X71182Y22933D01*
X71277Y22909D01*
X71373Y22888D01*
X71470Y22871D01*
X71567Y22859D01*
X71665Y22849D01*
X71763Y22844D01*
X71861Y22843D01*
X78199Y34748D02*
X78196Y34839D01*
X78190Y34931D01*
X78180Y35022D01*
X78166Y35113D01*
X78148Y35203D01*
X78127Y35293D01*
X78102Y35381D01*
X78073Y35468D01*
X78041Y35555D01*
X78005Y35639D01*
X77966Y35722D01*
X77924Y35804D01*
X77878Y35883D01*
X77828Y35961D01*
X77776Y36036D01*
X77721Y36110D01*
X77662Y36181D01*
X77601Y36249D01*
X77537Y36315D01*
X77470Y36378D01*
X77401Y36438D01*
X77329Y36496D01*
X77255Y36550D01*
X77179Y36601D01*
X77101Y36650D01*
X77020Y36694D01*
X76938Y36736D01*
X76855Y36774D01*
X76770Y36809D01*
X76683Y36840D01*
X76595Y36867D01*
X76507Y36891D01*
X76417Y36911D01*
X76327Y36927D01*
X76236Y36940D01*
X76144Y36949D01*
X76052Y36954D01*
X75961Y36955D01*
X78199Y34747D02*
X78198Y34641D01*
X78193Y34536D01*
X78184Y34431D01*
X78171Y34326D01*
X78154Y34222D01*
X78133Y34118D01*
X78109Y34015D01*
X78081Y33914D01*
X78049Y33813D01*
X78013Y33714D01*
X77974Y33616D01*
X77931Y33519D01*
X77884Y33424D01*
X77835Y33331D01*
X77781Y33240D01*
X77725Y33151D01*
X77665Y33064D01*
X77602Y32979D01*
X77535Y32897D01*
X77466Y32817D01*
X77394Y32740D01*
X77319Y32666D01*
X77242Y32594D01*
X77161Y32525D01*
X77079Y32459D01*
X76994Y32397D01*
X76906Y32337D01*
X76817Y32281D01*
X76726Y32229D01*
X76632Y32179D01*
X76537Y32133D01*
X76440Y32091D01*
X76342Y32052D01*
X76243Y32017D01*
X74238Y36201D02*
X74306Y36270D01*
X74376Y36337D01*
X74449Y36400D01*
X74524Y36460D01*
X74602Y36518D01*
X74682Y36572D01*
X74764Y36623D01*
X74849Y36670D01*
X74935Y36714D01*
X75022Y36754D01*
X75112Y36791D01*
X75202Y36825D01*
X75294Y36854D01*
X75388Y36880D01*
X75482Y36902D01*
X75577Y36920D01*
X75672Y36934D01*
X75768Y36945D01*
X75865Y36951D01*
X75961Y36954D01*
X74237Y36201D02*
X69328Y31969D01*
X69294Y36908D01*
X71733Y41130D02*
X71831Y41133D01*
X71929Y41139D01*
X72027Y41150D01*
X72124Y41164D01*
X72221Y41182D01*
X72316Y41204D01*
X72411Y41230D01*
X72505Y41259D01*
X72597Y41293D01*
X72688Y41329D01*
X72777Y41370D01*
X72865Y41414D01*
X72951Y41461D01*
X73035Y41512D01*
X73117Y41566D01*
X73197Y41623D01*
X73274Y41684D01*
X73349Y41747D01*
X73421Y41814D01*
X73491Y41883D01*
X73558Y41955D01*
X73622Y42029D01*
X73683Y42106D01*
X73741Y42186D01*
X73795Y42267D01*
X73846Y42351D01*
X73894Y42437D01*
X73939Y42524D01*
X73980Y42614D01*
X74017Y42704D01*
X74051Y42797D01*
X74081Y42890D01*
X74107Y42985D01*
X74130Y43080D01*
X74149Y43176D01*
X74163Y43274D01*
X74174Y43371D01*
X74182Y43469D01*
X74185Y43567D01*
X74184Y43665D01*
X74180Y43763D01*
X74171Y43861D01*
X74159Y43959D01*
X74142Y44055D01*
X74122Y44152D01*
X74099Y44247D01*
X74071Y44341D01*
X74040Y44434D01*
X74004Y44526D01*
X73966Y44616D01*
X73924Y44705D01*
X73878Y44792D01*
X73829Y44877D01*
X73776Y44960D01*
X73721Y45040D01*
X73662Y45119D01*
X73600Y45195D01*
X73535Y45269D01*
X73467Y45340D01*
X73396Y45408D01*
X73323Y45473D01*
X73247Y45536D01*
X73169Y45595D01*
X73089Y45651D01*
X73006Y45704D01*
X72921Y45754D01*
X72835Y45800D01*
X72746Y45843D01*
X72656Y45882D01*
X72565Y45918D01*
X72472Y45949D01*
X72378Y45978D01*
X72283Y46002D01*
X72187Y46023D01*
X72090Y46040D01*
X71993Y46052D01*
X71895Y46062D01*
X71797Y46067D01*
X71699Y46068D01*
X71601Y46065D01*
X71503Y46059D01*
X71405Y46048D01*
X71308Y46034D01*
X71211Y46016D01*
X71116Y45994D01*
X71021Y45968D01*
X70927Y45939D01*
X70835Y45905D01*
X70744Y45869D01*
X70654Y45828D01*
X70567Y45784D01*
X70481Y45737D01*
X70397Y45686D01*
X70315Y45632D01*
X70235Y45575D01*
X70158Y45514D01*
X70083Y45451D01*
X70010Y45384D01*
X69941Y45315D01*
X69874Y45243D01*
X69810Y45169D01*
X69749Y45092D01*
X69691Y45012D01*
X69637Y44931D01*
X69586Y44847D01*
X69538Y44761D01*
X69493Y44674D01*
X69452Y44584D01*
X69415Y44494D01*
X69381Y44401D01*
X69351Y44308D01*
X69325Y44213D01*
X69302Y44118D01*
X69283Y44021D01*
X69269Y43924D01*
X69258Y43827D01*
X69250Y43729D01*
X69247Y43631D01*
X69248Y43533D01*
X69252Y43435D01*
X69261Y43337D01*
X69273Y43239D01*
X69290Y43143D01*
X69310Y43046D01*
X69333Y42951D01*
X69361Y42857D01*
X69392Y42764D01*
X69428Y42672D01*
X69466Y42582D01*
X69508Y42493D01*
X69554Y42407D01*
X69603Y42321D01*
X69656Y42239D01*
X69711Y42158D01*
X69770Y42079D01*
X69832Y42003D01*
X69897Y41929D01*
X69965Y41858D01*
X70036Y41790D01*
X70109Y41725D01*
X70185Y41662D01*
X70263Y41603D01*
X70343Y41547D01*
X70426Y41494D01*
X70511Y41444D01*
X70597Y41398D01*
X70686Y41355D01*
X70776Y41316D01*
X70867Y41280D01*
X70960Y41249D01*
X71054Y41220D01*
X71149Y41196D01*
X71245Y41175D01*
X71342Y41159D01*
X71439Y41146D01*
X71537Y41136D01*
X71635Y41131D01*
X71733Y41130D01*
X76175Y41654D02*
X76264Y41657D01*
X76352Y41663D01*
X76440Y41674D01*
X76527Y41688D01*
X76614Y41707D01*
X76700Y41729D01*
X76785Y41755D01*
X76868Y41785D01*
X76950Y41819D01*
X77031Y41856D01*
X77110Y41897D01*
X77186Y41941D01*
X77261Y41989D01*
X77334Y42040D01*
X77404Y42094D01*
X77471Y42151D01*
X77537Y42211D01*
X77599Y42274D01*
X77658Y42340D01*
X77714Y42409D01*
X77768Y42480D01*
X77818Y42553D01*
X77864Y42628D01*
X77908Y42706D01*
X77947Y42785D01*
X77983Y42866D01*
X78016Y42949D01*
X78045Y43033D01*
X78069Y43118D01*
X78090Y43204D01*
X78108Y43291D01*
X78121Y43378D01*
X78130Y43467D01*
X78136Y43555D01*
X78137Y43644D01*
X78134Y43732D01*
X78128Y43821D01*
X78117Y43909D01*
X78103Y43996D01*
X78084Y44083D01*
X78062Y44169D01*
X78036Y44254D01*
X78006Y44337D01*
X77973Y44419D01*
X77935Y44500D01*
X77894Y44578D01*
X77850Y44655D01*
X77802Y44730D01*
X77751Y44803D01*
X77697Y44873D01*
X77640Y44940D01*
X77580Y45005D01*
X77517Y45068D01*
X77451Y45127D01*
X77382Y45183D01*
X77311Y45237D01*
X77238Y45287D01*
X77163Y45333D01*
X77085Y45377D01*
X77006Y45416D01*
X76925Y45452D01*
X76842Y45485D01*
X76759Y45513D01*
X76673Y45538D01*
X76587Y45559D01*
X76500Y45577D01*
X76413Y45590D01*
X76324Y45599D01*
X76236Y45605D01*
X76147Y45606D01*
X76060Y45603D01*
X75973Y45597D01*
X75886Y45587D01*
X75800Y45573D01*
X75714Y45555D01*
X75629Y45533D01*
X75546Y45508D01*
X75463Y45479D01*
X75382Y45446D01*
X75303Y45410D01*
X75225Y45370D01*
X75149Y45327D01*
X75075Y45280D01*
X75003Y45231D01*
X74933Y45178D01*
X74866Y45122D01*
X74801Y45063D01*
X74739Y45002D01*
X74680Y44938D01*
X74623Y44871D01*
X74570Y44802D01*
X74519Y44730D01*
X74472Y44656D01*
X74429Y44581D01*
X74388Y44503D01*
X74351Y44424D01*
X74318Y44343D01*
X74288Y44261D01*
X74262Y44177D01*
X74240Y44093D01*
X74221Y44007D01*
X74207Y43921D01*
X74196Y43834D01*
X74188Y43747D01*
X74185Y43660D01*
X74186Y43572D01*
X74190Y43485D01*
X74199Y43398D01*
X74211Y43312D01*
X74227Y43226D01*
X74247Y43140D01*
X74270Y43056D01*
X74297Y42973D01*
X74328Y42891D01*
X74363Y42811D01*
X74401Y42732D01*
X74442Y42655D01*
X74487Y42580D01*
X74535Y42507D01*
X74586Y42436D01*
X74641Y42368D01*
X74698Y42302D01*
X74758Y42238D01*
X74821Y42178D01*
X74887Y42120D01*
X74955Y42065D01*
X75025Y42013D01*
X75098Y41965D01*
X75172Y41919D01*
X75249Y41877D01*
X75327Y41838D01*
X75408Y41803D01*
X75489Y41772D01*
X75572Y41744D01*
X75656Y41720D01*
X75741Y41699D01*
X75827Y41682D01*
X75913Y41670D01*
X76000Y41661D01*
X76087Y41655D01*
X76175Y41654D01*
X65686Y7952D02*
X56796Y7890D01*
X65686Y7952D02*
X65669Y10422D01*
X65668Y10421D02*
X65665Y10518D01*
X65659Y10615D01*
X65649Y10711D01*
X65635Y10807D01*
X65617Y10903D01*
X65596Y10997D01*
X65571Y11091D01*
X65542Y11183D01*
X65509Y11275D01*
X65473Y11365D01*
X65434Y11453D01*
X65391Y11540D01*
X65345Y11625D01*
X65295Y11709D01*
X65242Y11790D01*
X65186Y11869D01*
X65127Y11946D01*
X65065Y12021D01*
X65000Y12093D01*
X64933Y12162D01*
X64862Y12229D01*
X64789Y12293D01*
X64714Y12354D01*
X64636Y12412D01*
X64556Y12466D01*
X64474Y12518D01*
X64390Y12567D01*
X64305Y12612D01*
X64217Y12653D01*
X64128Y12692D01*
X64037Y12726D01*
X63946Y12757D01*
X63853Y12785D01*
X63759Y12809D01*
X63664Y12829D01*
X63568Y12845D01*
X63472Y12858D01*
X63376Y12867D01*
X63279Y12872D01*
X63182Y12873D01*
X63182Y12874D02*
X59231Y12846D01*
X59134Y12843D01*
X59037Y12837D01*
X58941Y12827D01*
X58845Y12813D01*
X58749Y12795D01*
X58655Y12774D01*
X58561Y12749D01*
X58469Y12720D01*
X58377Y12687D01*
X58287Y12651D01*
X58199Y12612D01*
X58112Y12569D01*
X58027Y12523D01*
X57943Y12473D01*
X57862Y12420D01*
X57783Y12364D01*
X57706Y12305D01*
X57631Y12243D01*
X57559Y12178D01*
X57490Y12111D01*
X57423Y12040D01*
X57359Y11967D01*
X57298Y11892D01*
X57240Y11814D01*
X57186Y11734D01*
X57134Y11652D01*
X57085Y11568D01*
X57040Y11483D01*
X56999Y11395D01*
X56960Y11306D01*
X56926Y11215D01*
X56895Y11124D01*
X56867Y11031D01*
X56843Y10937D01*
X56823Y10842D01*
X56807Y10746D01*
X56794Y10650D01*
X56785Y10554D01*
X56780Y10457D01*
X56779Y10360D01*
X56796Y7890D01*
X56726Y17979D02*
X65615Y18041D01*
X56732Y16992D02*
X56719Y18967D01*
X65608Y19029D02*
X65622Y17054D01*
X63112Y22870D02*
X59161Y22842D01*
X63112Y22870D02*
X63210Y22873D01*
X63308Y22879D01*
X63406Y22890D01*
X63503Y22904D01*
X63600Y22922D01*
X63695Y22944D01*
X63790Y22970D01*
X63884Y22999D01*
X63976Y23033D01*
X64067Y23069D01*
X64157Y23110D01*
X64244Y23154D01*
X64330Y23201D01*
X64414Y23252D01*
X64496Y23306D01*
X64576Y23363D01*
X64653Y23424D01*
X64728Y23487D01*
X64801Y23554D01*
X64870Y23623D01*
X64937Y23695D01*
X65001Y23769D01*
X65062Y23846D01*
X65120Y23926D01*
X65174Y24007D01*
X65225Y24091D01*
X65273Y24177D01*
X65318Y24264D01*
X65359Y24354D01*
X65396Y24444D01*
X65430Y24537D01*
X65460Y24630D01*
X65486Y24725D01*
X65509Y24820D01*
X65528Y24916D01*
X65542Y25014D01*
X65553Y25111D01*
X65561Y25209D01*
X65564Y25307D01*
X65563Y25405D01*
X65559Y25503D01*
X65550Y25601D01*
X65538Y25699D01*
X65521Y25795D01*
X65501Y25892D01*
X65478Y25987D01*
X65450Y26081D01*
X65419Y26174D01*
X65383Y26266D01*
X65345Y26356D01*
X65303Y26445D01*
X65257Y26531D01*
X65208Y26617D01*
X65155Y26699D01*
X65100Y26780D01*
X65041Y26859D01*
X64979Y26935D01*
X64914Y27009D01*
X64846Y27080D01*
X64775Y27148D01*
X64702Y27213D01*
X64626Y27276D01*
X64548Y27335D01*
X64468Y27391D01*
X64385Y27444D01*
X64300Y27494D01*
X64214Y27540D01*
X64125Y27583D01*
X64035Y27622D01*
X63944Y27658D01*
X63851Y27689D01*
X63757Y27718D01*
X63662Y27742D01*
X63566Y27763D01*
X63469Y27779D01*
X63372Y27792D01*
X63274Y27802D01*
X63176Y27807D01*
X63078Y27808D01*
X63078Y27809D02*
X59127Y27781D01*
X59029Y27778D01*
X58931Y27772D01*
X58833Y27761D01*
X58736Y27747D01*
X58639Y27729D01*
X58544Y27707D01*
X58449Y27681D01*
X58355Y27652D01*
X58263Y27618D01*
X58172Y27582D01*
X58082Y27541D01*
X57995Y27497D01*
X57909Y27450D01*
X57825Y27399D01*
X57743Y27345D01*
X57663Y27288D01*
X57586Y27227D01*
X57511Y27164D01*
X57438Y27097D01*
X57369Y27028D01*
X57302Y26956D01*
X57238Y26882D01*
X57177Y26805D01*
X57119Y26725D01*
X57065Y26644D01*
X57014Y26560D01*
X56966Y26474D01*
X56921Y26387D01*
X56880Y26297D01*
X56843Y26207D01*
X56809Y26114D01*
X56779Y26021D01*
X56753Y25926D01*
X56730Y25831D01*
X56711Y25734D01*
X56697Y25637D01*
X56686Y25540D01*
X56678Y25442D01*
X56675Y25344D01*
X56676Y25246D01*
X56680Y25148D01*
X56689Y25050D01*
X56701Y24952D01*
X56718Y24856D01*
X56738Y24759D01*
X56761Y24664D01*
X56789Y24570D01*
X56820Y24477D01*
X56856Y24385D01*
X56894Y24295D01*
X56936Y24206D01*
X56982Y24119D01*
X57031Y24034D01*
X57084Y23951D01*
X57139Y23871D01*
X57198Y23792D01*
X57260Y23716D01*
X57325Y23642D01*
X57393Y23571D01*
X57464Y23503D01*
X57537Y23438D01*
X57613Y23375D01*
X57691Y23316D01*
X57771Y23260D01*
X57854Y23207D01*
X57939Y23157D01*
X58025Y23111D01*
X58114Y23068D01*
X58204Y23029D01*
X58295Y22993D01*
X58388Y22962D01*
X58482Y22933D01*
X58577Y22909D01*
X58673Y22888D01*
X58770Y22871D01*
X58867Y22859D01*
X58965Y22849D01*
X59063Y22844D01*
X59161Y22843D01*
X65499Y34748D02*
X65496Y34839D01*
X65490Y34931D01*
X65480Y35022D01*
X65466Y35113D01*
X65448Y35203D01*
X65427Y35293D01*
X65402Y35381D01*
X65373Y35468D01*
X65341Y35555D01*
X65305Y35639D01*
X65266Y35722D01*
X65224Y35804D01*
X65178Y35883D01*
X65128Y35961D01*
X65076Y36036D01*
X65021Y36110D01*
X64962Y36181D01*
X64901Y36249D01*
X64837Y36315D01*
X64770Y36378D01*
X64701Y36438D01*
X64629Y36496D01*
X64555Y36550D01*
X64479Y36601D01*
X64401Y36650D01*
X64320Y36694D01*
X64238Y36736D01*
X64155Y36774D01*
X64070Y36809D01*
X63983Y36840D01*
X63895Y36867D01*
X63807Y36891D01*
X63717Y36911D01*
X63627Y36927D01*
X63536Y36940D01*
X63444Y36949D01*
X63352Y36954D01*
X63261Y36955D01*
X65499Y34747D02*
X65498Y34641D01*
X65493Y34536D01*
X65484Y34431D01*
X65471Y34326D01*
X65454Y34222D01*
X65433Y34118D01*
X65409Y34015D01*
X65381Y33914D01*
X65349Y33813D01*
X65313Y33714D01*
X65274Y33616D01*
X65231Y33519D01*
X65184Y33424D01*
X65135Y33331D01*
X65081Y33240D01*
X65025Y33151D01*
X64965Y33064D01*
X64902Y32979D01*
X64835Y32897D01*
X64766Y32817D01*
X64694Y32740D01*
X64619Y32666D01*
X64542Y32594D01*
X64461Y32525D01*
X64379Y32459D01*
X64294Y32397D01*
X64206Y32337D01*
X64117Y32281D01*
X64026Y32229D01*
X63932Y32179D01*
X63837Y32133D01*
X63740Y32091D01*
X63642Y32052D01*
X63543Y32017D01*
X61538Y36201D02*
X61606Y36270D01*
X61676Y36337D01*
X61749Y36400D01*
X61824Y36460D01*
X61902Y36518D01*
X61982Y36572D01*
X62064Y36623D01*
X62149Y36670D01*
X62235Y36714D01*
X62322Y36754D01*
X62412Y36791D01*
X62502Y36825D01*
X62594Y36854D01*
X62688Y36880D01*
X62782Y36902D01*
X62877Y36920D01*
X62972Y36934D01*
X63068Y36945D01*
X63165Y36951D01*
X63261Y36954D01*
X61537Y36201D02*
X56628Y31969D01*
X56594Y36908D01*
X64466Y41168D02*
X65454Y41175D01*
X65419Y46113D01*
X56547Y43582D01*
X52986Y7952D02*
X44096Y7890D01*
X52986Y7952D02*
X52969Y10422D01*
X52968Y10421D02*
X52965Y10518D01*
X52959Y10615D01*
X52949Y10711D01*
X52935Y10807D01*
X52917Y10903D01*
X52896Y10997D01*
X52871Y11091D01*
X52842Y11183D01*
X52809Y11275D01*
X52773Y11365D01*
X52734Y11453D01*
X52691Y11540D01*
X52645Y11625D01*
X52595Y11709D01*
X52542Y11790D01*
X52486Y11869D01*
X52427Y11946D01*
X52365Y12021D01*
X52300Y12093D01*
X52233Y12162D01*
X52162Y12229D01*
X52089Y12293D01*
X52014Y12354D01*
X51936Y12412D01*
X51856Y12466D01*
X51774Y12518D01*
X51690Y12567D01*
X51605Y12612D01*
X51517Y12653D01*
X51428Y12692D01*
X51337Y12726D01*
X51246Y12757D01*
X51153Y12785D01*
X51059Y12809D01*
X50964Y12829D01*
X50868Y12845D01*
X50772Y12858D01*
X50676Y12867D01*
X50579Y12872D01*
X50482Y12873D01*
X50482Y12874D02*
X46531Y12846D01*
X46434Y12843D01*
X46337Y12837D01*
X46241Y12827D01*
X46145Y12813D01*
X46049Y12795D01*
X45955Y12774D01*
X45861Y12749D01*
X45769Y12720D01*
X45677Y12687D01*
X45587Y12651D01*
X45499Y12612D01*
X45412Y12569D01*
X45327Y12523D01*
X45243Y12473D01*
X45162Y12420D01*
X45083Y12364D01*
X45006Y12305D01*
X44931Y12243D01*
X44859Y12178D01*
X44790Y12111D01*
X44723Y12040D01*
X44659Y11967D01*
X44598Y11892D01*
X44540Y11814D01*
X44486Y11734D01*
X44434Y11652D01*
X44385Y11568D01*
X44340Y11483D01*
X44299Y11395D01*
X44260Y11306D01*
X44226Y11215D01*
X44195Y11124D01*
X44167Y11031D01*
X44143Y10937D01*
X44123Y10842D01*
X44107Y10746D01*
X44094Y10650D01*
X44085Y10554D01*
X44080Y10457D01*
X44079Y10360D01*
X44096Y7890D01*
X44026Y17979D02*
X52915Y18041D01*
X44032Y16992D02*
X44019Y18967D01*
X52908Y19029D02*
X52922Y17054D01*
X50412Y22870D02*
X46461Y22842D01*
X50412Y22870D02*
X50510Y22873D01*
X50608Y22879D01*
X50706Y22890D01*
X50803Y22904D01*
X50900Y22922D01*
X50995Y22944D01*
X51090Y22970D01*
X51184Y22999D01*
X51276Y23033D01*
X51367Y23069D01*
X51457Y23110D01*
X51544Y23154D01*
X51630Y23201D01*
X51714Y23252D01*
X51796Y23306D01*
X51876Y23363D01*
X51953Y23424D01*
X52028Y23487D01*
X52101Y23554D01*
X52170Y23623D01*
X52237Y23695D01*
X52301Y23769D01*
X52362Y23846D01*
X52420Y23926D01*
X52474Y24007D01*
X52525Y24091D01*
X52573Y24177D01*
X52618Y24264D01*
X52659Y24354D01*
X52696Y24444D01*
X52730Y24537D01*
X52760Y24630D01*
X52786Y24725D01*
X52809Y24820D01*
X52828Y24916D01*
X52842Y25014D01*
X52853Y25111D01*
X52861Y25209D01*
X52864Y25307D01*
X52863Y25405D01*
X52859Y25503D01*
X52850Y25601D01*
X52838Y25699D01*
X52821Y25795D01*
X52801Y25892D01*
X52778Y25987D01*
X52750Y26081D01*
X52719Y26174D01*
X52683Y26266D01*
X52645Y26356D01*
X52603Y26445D01*
X52557Y26531D01*
X52508Y26617D01*
X52455Y26699D01*
X52400Y26780D01*
X52341Y26859D01*
X52279Y26935D01*
X52214Y27009D01*
X52146Y27080D01*
X52075Y27148D01*
X52002Y27213D01*
X51926Y27276D01*
X51848Y27335D01*
X51768Y27391D01*
X51685Y27444D01*
X51600Y27494D01*
X51514Y27540D01*
X51425Y27583D01*
X51335Y27622D01*
X51244Y27658D01*
X51151Y27689D01*
X51057Y27718D01*
X50962Y27742D01*
X50866Y27763D01*
X50769Y27779D01*
X50672Y27792D01*
X50574Y27802D01*
X50476Y27807D01*
X50378Y27808D01*
X50378Y27809D02*
X46427Y27781D01*
X46329Y27778D01*
X46231Y27772D01*
X46133Y27761D01*
X46036Y27747D01*
X45939Y27729D01*
X45844Y27707D01*
X45749Y27681D01*
X45655Y27652D01*
X45563Y27618D01*
X45472Y27582D01*
X45382Y27541D01*
X45295Y27497D01*
X45209Y27450D01*
X45125Y27399D01*
X45043Y27345D01*
X44963Y27288D01*
X44886Y27227D01*
X44811Y27164D01*
X44738Y27097D01*
X44669Y27028D01*
X44602Y26956D01*
X44538Y26882D01*
X44477Y26805D01*
X44419Y26725D01*
X44365Y26644D01*
X44314Y26560D01*
X44266Y26474D01*
X44221Y26387D01*
X44180Y26297D01*
X44143Y26207D01*
X44109Y26114D01*
X44079Y26021D01*
X44053Y25926D01*
X44030Y25831D01*
X44011Y25734D01*
X43997Y25637D01*
X43986Y25540D01*
X43978Y25442D01*
X43975Y25344D01*
X43976Y25246D01*
X43980Y25148D01*
X43989Y25050D01*
X44001Y24952D01*
X44018Y24856D01*
X44038Y24759D01*
X44061Y24664D01*
X44089Y24570D01*
X44120Y24477D01*
X44156Y24385D01*
X44194Y24295D01*
X44236Y24206D01*
X44282Y24119D01*
X44331Y24034D01*
X44384Y23951D01*
X44439Y23871D01*
X44498Y23792D01*
X44560Y23716D01*
X44625Y23642D01*
X44693Y23571D01*
X44764Y23503D01*
X44837Y23438D01*
X44913Y23375D01*
X44991Y23316D01*
X45071Y23260D01*
X45154Y23207D01*
X45239Y23157D01*
X45325Y23111D01*
X45414Y23068D01*
X45504Y23029D01*
X45595Y22993D01*
X45688Y22962D01*
X45782Y22933D01*
X45877Y22909D01*
X45973Y22888D01*
X46070Y22871D01*
X46167Y22859D01*
X46265Y22849D01*
X46363Y22844D01*
X46461Y22843D01*
X52799Y34748D02*
X52796Y34839D01*
X52790Y34931D01*
X52780Y35022D01*
X52766Y35113D01*
X52748Y35203D01*
X52727Y35293D01*
X52702Y35381D01*
X52673Y35468D01*
X52641Y35555D01*
X52605Y35639D01*
X52566Y35722D01*
X52524Y35804D01*
X52478Y35883D01*
X52428Y35961D01*
X52376Y36036D01*
X52321Y36110D01*
X52262Y36181D01*
X52201Y36249D01*
X52137Y36315D01*
X52070Y36378D01*
X52001Y36438D01*
X51929Y36496D01*
X51855Y36550D01*
X51779Y36601D01*
X51701Y36650D01*
X51620Y36694D01*
X51538Y36736D01*
X51455Y36774D01*
X51370Y36809D01*
X51283Y36840D01*
X51195Y36867D01*
X51107Y36891D01*
X51017Y36911D01*
X50927Y36927D01*
X50836Y36940D01*
X50744Y36949D01*
X50652Y36954D01*
X50561Y36955D01*
X52799Y34747D02*
X52798Y34641D01*
X52793Y34536D01*
X52784Y34431D01*
X52771Y34326D01*
X52754Y34222D01*
X52733Y34118D01*
X52709Y34015D01*
X52681Y33914D01*
X52649Y33813D01*
X52613Y33714D01*
X52574Y33616D01*
X52531Y33519D01*
X52484Y33424D01*
X52435Y33331D01*
X52381Y33240D01*
X52325Y33151D01*
X52265Y33064D01*
X52202Y32979D01*
X52135Y32897D01*
X52066Y32817D01*
X51994Y32740D01*
X51919Y32666D01*
X51842Y32594D01*
X51761Y32525D01*
X51679Y32459D01*
X51594Y32397D01*
X51506Y32337D01*
X51417Y32281D01*
X51326Y32229D01*
X51232Y32179D01*
X51137Y32133D01*
X51040Y32091D01*
X50942Y32052D01*
X50843Y32017D01*
X48838Y36201D02*
X48906Y36270D01*
X48976Y36337D01*
X49049Y36400D01*
X49124Y36460D01*
X49202Y36518D01*
X49282Y36572D01*
X49364Y36623D01*
X49449Y36670D01*
X49535Y36714D01*
X49622Y36754D01*
X49712Y36791D01*
X49802Y36825D01*
X49894Y36854D01*
X49988Y36880D01*
X50082Y36902D01*
X50177Y36920D01*
X50272Y36934D01*
X50368Y36945D01*
X50465Y36951D01*
X50561Y36954D01*
X48837Y36201D02*
X43928Y31969D01*
X43894Y36908D01*
X48803Y41147D02*
X48782Y44110D01*
X48783Y44110D02*
X48780Y44196D01*
X48774Y44282D01*
X48764Y44368D01*
X48751Y44453D01*
X48733Y44537D01*
X48712Y44621D01*
X48687Y44703D01*
X48659Y44785D01*
X48627Y44865D01*
X48592Y44944D01*
X48553Y45021D01*
X48511Y45096D01*
X48466Y45169D01*
X48418Y45241D01*
X48366Y45310D01*
X48312Y45377D01*
X48255Y45441D01*
X48194Y45503D01*
X48132Y45562D01*
X48067Y45619D01*
X47999Y45672D01*
X47929Y45723D01*
X47857Y45770D01*
X47783Y45814D01*
X47707Y45855D01*
X47630Y45893D01*
X47550Y45927D01*
X47470Y45958D01*
X47388Y45985D01*
X47305Y46008D01*
X47221Y46028D01*
X47137Y46044D01*
X47051Y46057D01*
X46965Y46066D01*
X46879Y46071D01*
X46793Y46072D01*
X46299Y46068D01*
X46201Y46065D01*
X46103Y46059D01*
X46005Y46048D01*
X45908Y46034D01*
X45811Y46016D01*
X45716Y45994D01*
X45621Y45968D01*
X45527Y45939D01*
X45435Y45905D01*
X45344Y45869D01*
X45254Y45828D01*
X45167Y45784D01*
X45081Y45737D01*
X44997Y45686D01*
X44915Y45632D01*
X44835Y45575D01*
X44758Y45514D01*
X44683Y45451D01*
X44610Y45384D01*
X44541Y45315D01*
X44474Y45243D01*
X44410Y45169D01*
X44349Y45092D01*
X44291Y45012D01*
X44237Y44931D01*
X44186Y44847D01*
X44138Y44761D01*
X44093Y44674D01*
X44052Y44584D01*
X44015Y44494D01*
X43981Y44401D01*
X43951Y44308D01*
X43925Y44213D01*
X43902Y44118D01*
X43883Y44021D01*
X43869Y43924D01*
X43858Y43827D01*
X43850Y43729D01*
X43847Y43631D01*
X43848Y43533D01*
X43852Y43435D01*
X43861Y43337D01*
X43873Y43239D01*
X43890Y43143D01*
X43910Y43046D01*
X43933Y42951D01*
X43961Y42857D01*
X43992Y42764D01*
X44028Y42672D01*
X44066Y42582D01*
X44108Y42493D01*
X44154Y42407D01*
X44203Y42322D01*
X44256Y42239D01*
X44311Y42158D01*
X44370Y42079D01*
X44432Y42003D01*
X44497Y41929D01*
X44565Y41858D01*
X44636Y41790D01*
X44709Y41725D01*
X44785Y41662D01*
X44863Y41603D01*
X44943Y41547D01*
X45026Y41494D01*
X45111Y41444D01*
X45197Y41398D01*
X45286Y41355D01*
X45376Y41316D01*
X45467Y41280D01*
X45560Y41249D01*
X45654Y41220D01*
X45749Y41196D01*
X45845Y41175D01*
X45942Y41159D01*
X46039Y41146D01*
X46137Y41137D01*
X46235Y41131D01*
X46333Y41130D01*
X46334Y41130D02*
X48803Y41147D01*
X48927Y41150D01*
X49051Y41157D01*
X49174Y41167D01*
X49298Y41182D01*
X49420Y41200D01*
X49542Y41222D01*
X49664Y41248D01*
X49784Y41278D01*
X49904Y41312D01*
X50022Y41349D01*
X50139Y41390D01*
X50255Y41435D01*
X50369Y41483D01*
X50482Y41535D01*
X50593Y41590D01*
X50703Y41649D01*
X50810Y41711D01*
X50915Y41777D01*
X51019Y41846D01*
X51120Y41918D01*
X51218Y41993D01*
X51315Y42071D01*
X51408Y42153D01*
X51500Y42237D01*
X51588Y42324D01*
X51674Y42414D01*
X51757Y42506D01*
X51837Y42601D01*
X51914Y42698D01*
X51988Y42798D01*
X52058Y42900D01*
X52126Y43004D01*
X52190Y43111D01*
X52250Y43219D01*
X52308Y43329D01*
X52362Y43441D01*
X52412Y43554D01*
X52459Y43669D01*
X52502Y43786D01*
X52541Y43903D01*
X52577Y44022D01*
X52609Y44142D01*
X52637Y44263D01*
X52661Y44385D01*
X52682Y44507D01*
X52698Y44630D01*
X52711Y44754D01*
X52720Y44877D01*
X52725Y45001D01*
X52726Y45126D01*
X40286Y7952D02*
X31396Y7890D01*
X40286Y7952D02*
X40269Y10422D01*
X40268Y10421D02*
X40265Y10518D01*
X40259Y10615D01*
X40249Y10711D01*
X40235Y10807D01*
X40217Y10903D01*
X40196Y10997D01*
X40171Y11091D01*
X40142Y11183D01*
X40109Y11275D01*
X40073Y11365D01*
X40034Y11453D01*
X39991Y11540D01*
X39945Y11625D01*
X39895Y11709D01*
X39842Y11790D01*
X39786Y11869D01*
X39727Y11946D01*
X39665Y12021D01*
X39600Y12093D01*
X39533Y12162D01*
X39462Y12229D01*
X39389Y12293D01*
X39314Y12354D01*
X39236Y12412D01*
X39156Y12466D01*
X39074Y12518D01*
X38990Y12567D01*
X38905Y12612D01*
X38817Y12653D01*
X38728Y12692D01*
X38637Y12726D01*
X38546Y12757D01*
X38453Y12785D01*
X38359Y12809D01*
X38264Y12829D01*
X38168Y12845D01*
X38072Y12858D01*
X37976Y12867D01*
X37879Y12872D01*
X37782Y12873D01*
X37782Y12874D02*
X33831Y12846D01*
X33734Y12843D01*
X33637Y12837D01*
X33541Y12827D01*
X33445Y12813D01*
X33349Y12795D01*
X33255Y12774D01*
X33161Y12749D01*
X33069Y12720D01*
X32977Y12687D01*
X32887Y12651D01*
X32799Y12612D01*
X32712Y12569D01*
X32627Y12523D01*
X32543Y12473D01*
X32462Y12420D01*
X32383Y12364D01*
X32306Y12305D01*
X32231Y12243D01*
X32159Y12178D01*
X32090Y12111D01*
X32023Y12040D01*
X31959Y11967D01*
X31898Y11892D01*
X31840Y11814D01*
X31786Y11734D01*
X31734Y11652D01*
X31685Y11568D01*
X31640Y11483D01*
X31599Y11395D01*
X31560Y11306D01*
X31526Y11215D01*
X31495Y11124D01*
X31467Y11031D01*
X31443Y10937D01*
X31423Y10842D01*
X31407Y10746D01*
X31394Y10650D01*
X31385Y10554D01*
X31380Y10457D01*
X31379Y10360D01*
X31396Y7890D01*
X31326Y17979D02*
X40215Y18041D01*
X31332Y16992D02*
X31319Y18967D01*
X40208Y19029D02*
X40222Y17054D01*
X37712Y22870D02*
X33761Y22842D01*
X37712Y22870D02*
X37810Y22873D01*
X37908Y22879D01*
X38006Y22890D01*
X38103Y22904D01*
X38200Y22922D01*
X38295Y22944D01*
X38390Y22970D01*
X38484Y22999D01*
X38576Y23033D01*
X38667Y23069D01*
X38757Y23110D01*
X38844Y23154D01*
X38930Y23201D01*
X39014Y23252D01*
X39096Y23306D01*
X39176Y23363D01*
X39253Y23424D01*
X39328Y23487D01*
X39401Y23554D01*
X39470Y23623D01*
X39537Y23695D01*
X39601Y23769D01*
X39662Y23846D01*
X39720Y23926D01*
X39774Y24007D01*
X39825Y24091D01*
X39873Y24177D01*
X39918Y24264D01*
X39959Y24354D01*
X39996Y24444D01*
X40030Y24537D01*
X40060Y24630D01*
X40086Y24725D01*
X40109Y24820D01*
X40128Y24916D01*
X40142Y25014D01*
X40153Y25111D01*
X40161Y25209D01*
X40164Y25307D01*
X40163Y25405D01*
X40159Y25503D01*
X40150Y25601D01*
X40138Y25699D01*
X40121Y25795D01*
X40101Y25892D01*
X40078Y25987D01*
X40050Y26081D01*
X40019Y26174D01*
X39983Y26266D01*
X39945Y26356D01*
X39903Y26445D01*
X39857Y26531D01*
X39808Y26617D01*
X39755Y26699D01*
X39700Y26780D01*
X39641Y26859D01*
X39579Y26935D01*
X39514Y27009D01*
X39446Y27080D01*
X39375Y27148D01*
X39302Y27213D01*
X39226Y27276D01*
X39148Y27335D01*
X39068Y27391D01*
X38985Y27444D01*
X38900Y27494D01*
X38814Y27540D01*
X38725Y27583D01*
X38635Y27622D01*
X38544Y27658D01*
X38451Y27689D01*
X38357Y27718D01*
X38262Y27742D01*
X38166Y27763D01*
X38069Y27779D01*
X37972Y27792D01*
X37874Y27802D01*
X37776Y27807D01*
X37678Y27808D01*
X37678Y27809D02*
X33727Y27781D01*
X33629Y27778D01*
X33531Y27772D01*
X33433Y27761D01*
X33336Y27747D01*
X33239Y27729D01*
X33144Y27707D01*
X33049Y27681D01*
X32955Y27652D01*
X32863Y27618D01*
X32772Y27582D01*
X32682Y27541D01*
X32595Y27497D01*
X32509Y27450D01*
X32425Y27399D01*
X32343Y27345D01*
X32263Y27288D01*
X32186Y27227D01*
X32111Y27164D01*
X32038Y27097D01*
X31969Y27028D01*
X31902Y26956D01*
X31838Y26882D01*
X31777Y26805D01*
X31719Y26725D01*
X31665Y26644D01*
X31614Y26560D01*
X31566Y26474D01*
X31521Y26387D01*
X31480Y26297D01*
X31443Y26207D01*
X31409Y26114D01*
X31379Y26021D01*
X31353Y25926D01*
X31330Y25831D01*
X31311Y25734D01*
X31297Y25637D01*
X31286Y25540D01*
X31278Y25442D01*
X31275Y25344D01*
X31276Y25246D01*
X31280Y25148D01*
X31289Y25050D01*
X31301Y24952D01*
X31318Y24856D01*
X31338Y24759D01*
X31361Y24664D01*
X31389Y24570D01*
X31420Y24477D01*
X31456Y24385D01*
X31494Y24295D01*
X31536Y24206D01*
X31582Y24119D01*
X31631Y24034D01*
X31684Y23951D01*
X31739Y23871D01*
X31798Y23792D01*
X31860Y23716D01*
X31925Y23642D01*
X31993Y23571D01*
X32064Y23503D01*
X32137Y23438D01*
X32213Y23375D01*
X32291Y23316D01*
X32371Y23260D01*
X32454Y23207D01*
X32539Y23157D01*
X32625Y23111D01*
X32714Y23068D01*
X32804Y23029D01*
X32895Y22993D01*
X32988Y22962D01*
X33082Y22933D01*
X33177Y22909D01*
X33273Y22888D01*
X33370Y22871D01*
X33467Y22859D01*
X33565Y22849D01*
X33663Y22844D01*
X33761Y22843D01*
X40099Y34748D02*
X40096Y34839D01*
X40090Y34931D01*
X40080Y35022D01*
X40066Y35113D01*
X40048Y35203D01*
X40027Y35293D01*
X40002Y35381D01*
X39973Y35468D01*
X39941Y35555D01*
X39905Y35639D01*
X39866Y35722D01*
X39824Y35804D01*
X39778Y35883D01*
X39728Y35961D01*
X39676Y36036D01*
X39621Y36110D01*
X39562Y36181D01*
X39501Y36249D01*
X39437Y36315D01*
X39370Y36378D01*
X39301Y36438D01*
X39229Y36496D01*
X39155Y36550D01*
X39079Y36601D01*
X39001Y36650D01*
X38920Y36694D01*
X38838Y36736D01*
X38755Y36774D01*
X38670Y36809D01*
X38583Y36840D01*
X38495Y36867D01*
X38407Y36891D01*
X38317Y36911D01*
X38227Y36927D01*
X38136Y36940D01*
X38044Y36949D01*
X37952Y36954D01*
X37861Y36955D01*
X40099Y34747D02*
X40098Y34641D01*
X40093Y34536D01*
X40084Y34431D01*
X40071Y34326D01*
X40054Y34222D01*
X40033Y34118D01*
X40009Y34015D01*
X39981Y33914D01*
X39949Y33813D01*
X39913Y33714D01*
X39874Y33616D01*
X39831Y33519D01*
X39784Y33424D01*
X39735Y33331D01*
X39681Y33240D01*
X39625Y33151D01*
X39565Y33064D01*
X39502Y32979D01*
X39435Y32897D01*
X39366Y32817D01*
X39294Y32740D01*
X39219Y32666D01*
X39142Y32594D01*
X39061Y32525D01*
X38979Y32459D01*
X38894Y32397D01*
X38806Y32337D01*
X38717Y32281D01*
X38626Y32229D01*
X38532Y32179D01*
X38437Y32133D01*
X38340Y32091D01*
X38242Y32052D01*
X38143Y32017D01*
X36138Y36201D02*
X36206Y36270D01*
X36276Y36337D01*
X36349Y36400D01*
X36424Y36460D01*
X36502Y36518D01*
X36582Y36572D01*
X36664Y36623D01*
X36749Y36670D01*
X36835Y36714D01*
X36922Y36754D01*
X37012Y36791D01*
X37102Y36825D01*
X37194Y36854D01*
X37288Y36880D01*
X37382Y36902D01*
X37477Y36920D01*
X37572Y36934D01*
X37668Y36945D01*
X37765Y36951D01*
X37861Y36954D01*
X36137Y36201D02*
X31228Y31969D01*
X31194Y36908D01*
X31164Y41113D02*
X31143Y44076D01*
X31144Y44162D01*
X31149Y44248D01*
X31158Y44334D01*
X31171Y44420D01*
X31187Y44504D01*
X31207Y44588D01*
X31230Y44671D01*
X31257Y44753D01*
X31288Y44833D01*
X31322Y44913D01*
X31360Y44990D01*
X31401Y45066D01*
X31445Y45140D01*
X31492Y45212D01*
X31543Y45282D01*
X31596Y45350D01*
X31653Y45415D01*
X31712Y45477D01*
X31774Y45538D01*
X31838Y45595D01*
X31905Y45649D01*
X31974Y45701D01*
X32046Y45749D01*
X32119Y45794D01*
X32194Y45836D01*
X32271Y45875D01*
X32350Y45910D01*
X32430Y45942D01*
X32512Y45970D01*
X32594Y45995D01*
X32678Y46016D01*
X32762Y46034D01*
X32847Y46047D01*
X32933Y46057D01*
X33019Y46063D01*
X33105Y46066D01*
X33105Y46065D02*
X34093Y46072D01*
X34179Y46071D01*
X34265Y46066D01*
X34351Y46057D01*
X34437Y46044D01*
X34521Y46028D01*
X34605Y46008D01*
X34688Y45985D01*
X34770Y45958D01*
X34850Y45927D01*
X34930Y45893D01*
X35007Y45855D01*
X35083Y45814D01*
X35157Y45770D01*
X35229Y45723D01*
X35299Y45672D01*
X35367Y45619D01*
X35432Y45562D01*
X35494Y45503D01*
X35555Y45441D01*
X35612Y45377D01*
X35666Y45310D01*
X35718Y45241D01*
X35766Y45169D01*
X35811Y45096D01*
X35853Y45021D01*
X35892Y44944D01*
X35927Y44865D01*
X35959Y44785D01*
X35987Y44703D01*
X36012Y44621D01*
X36033Y44537D01*
X36051Y44453D01*
X36064Y44368D01*
X36074Y44282D01*
X36080Y44196D01*
X36083Y44110D01*
X36082Y44110D02*
X36103Y41147D01*
X40054Y41175D01*
X40019Y46113D01*
X27586Y7952D02*
X18696Y7890D01*
X27586Y7952D02*
X27569Y10422D01*
X27568Y10421D02*
X27565Y10518D01*
X27559Y10615D01*
X27549Y10711D01*
X27535Y10807D01*
X27517Y10903D01*
X27496Y10997D01*
X27471Y11091D01*
X27442Y11183D01*
X27409Y11275D01*
X27373Y11365D01*
X27334Y11453D01*
X27291Y11540D01*
X27245Y11625D01*
X27195Y11709D01*
X27142Y11790D01*
X27086Y11869D01*
X27027Y11946D01*
X26965Y12021D01*
X26900Y12093D01*
X26833Y12162D01*
X26762Y12229D01*
X26689Y12293D01*
X26614Y12354D01*
X26536Y12412D01*
X26456Y12466D01*
X26374Y12518D01*
X26290Y12567D01*
X26205Y12612D01*
X26117Y12653D01*
X26028Y12692D01*
X25937Y12726D01*
X25846Y12757D01*
X25753Y12785D01*
X25659Y12809D01*
X25564Y12829D01*
X25468Y12845D01*
X25372Y12858D01*
X25276Y12867D01*
X25179Y12872D01*
X25082Y12873D01*
X25082Y12874D02*
X21131Y12846D01*
X21034Y12843D01*
X20937Y12837D01*
X20841Y12827D01*
X20745Y12813D01*
X20649Y12795D01*
X20555Y12774D01*
X20461Y12749D01*
X20369Y12720D01*
X20277Y12687D01*
X20187Y12651D01*
X20099Y12612D01*
X20012Y12569D01*
X19927Y12523D01*
X19843Y12473D01*
X19762Y12420D01*
X19683Y12364D01*
X19606Y12305D01*
X19531Y12243D01*
X19459Y12178D01*
X19390Y12111D01*
X19323Y12040D01*
X19259Y11967D01*
X19198Y11892D01*
X19140Y11814D01*
X19086Y11734D01*
X19034Y11652D01*
X18985Y11568D01*
X18940Y11483D01*
X18899Y11395D01*
X18860Y11306D01*
X18826Y11215D01*
X18795Y11124D01*
X18767Y11031D01*
X18743Y10937D01*
X18723Y10842D01*
X18707Y10746D01*
X18694Y10650D01*
X18685Y10554D01*
X18680Y10457D01*
X18679Y10360D01*
X18696Y7890D01*
X18626Y17979D02*
X27515Y18041D01*
X18632Y16992D02*
X18619Y18967D01*
X27508Y19029D02*
X27522Y17054D01*
X25012Y22870D02*
X21061Y22842D01*
X25012Y22870D02*
X25110Y22873D01*
X25208Y22879D01*
X25306Y22890D01*
X25403Y22904D01*
X25500Y22922D01*
X25595Y22944D01*
X25690Y22970D01*
X25784Y22999D01*
X25876Y23033D01*
X25967Y23069D01*
X26057Y23110D01*
X26144Y23154D01*
X26230Y23201D01*
X26314Y23252D01*
X26396Y23306D01*
X26476Y23363D01*
X26553Y23424D01*
X26628Y23487D01*
X26701Y23554D01*
X26770Y23623D01*
X26837Y23695D01*
X26901Y23769D01*
X26962Y23846D01*
X27020Y23926D01*
X27074Y24007D01*
X27125Y24091D01*
X27173Y24177D01*
X27218Y24264D01*
X27259Y24354D01*
X27296Y24444D01*
X27330Y24537D01*
X27360Y24630D01*
X27386Y24725D01*
X27409Y24820D01*
X27428Y24916D01*
X27442Y25014D01*
X27453Y25111D01*
X27461Y25209D01*
X27464Y25307D01*
X27463Y25405D01*
X27459Y25503D01*
X27450Y25601D01*
X27438Y25699D01*
X27421Y25795D01*
X27401Y25892D01*
X27378Y25987D01*
X27350Y26081D01*
X27319Y26174D01*
X27283Y26266D01*
X27245Y26356D01*
X27203Y26445D01*
X27157Y26531D01*
X27108Y26617D01*
X27055Y26699D01*
X27000Y26780D01*
X26941Y26859D01*
X26879Y26935D01*
X26814Y27009D01*
X26746Y27080D01*
X26675Y27148D01*
X26602Y27213D01*
X26526Y27276D01*
X26448Y27335D01*
X26368Y27391D01*
X26285Y27444D01*
X26200Y27494D01*
X26114Y27540D01*
X26025Y27583D01*
X25935Y27622D01*
X25844Y27658D01*
X25751Y27689D01*
X25657Y27718D01*
X25562Y27742D01*
X25466Y27763D01*
X25369Y27779D01*
X25272Y27792D01*
X25174Y27802D01*
X25076Y27807D01*
X24978Y27808D01*
X24978Y27809D02*
X21027Y27781D01*
X20929Y27778D01*
X20831Y27772D01*
X20733Y27761D01*
X20636Y27747D01*
X20539Y27729D01*
X20444Y27707D01*
X20349Y27681D01*
X20255Y27652D01*
X20163Y27618D01*
X20072Y27582D01*
X19982Y27541D01*
X19895Y27497D01*
X19809Y27450D01*
X19725Y27399D01*
X19643Y27345D01*
X19563Y27288D01*
X19486Y27227D01*
X19411Y27164D01*
X19338Y27097D01*
X19269Y27028D01*
X19202Y26956D01*
X19138Y26882D01*
X19077Y26805D01*
X19019Y26725D01*
X18965Y26644D01*
X18914Y26560D01*
X18866Y26474D01*
X18821Y26387D01*
X18780Y26297D01*
X18743Y26207D01*
X18709Y26114D01*
X18679Y26021D01*
X18653Y25926D01*
X18630Y25831D01*
X18611Y25734D01*
X18597Y25637D01*
X18586Y25540D01*
X18578Y25442D01*
X18575Y25344D01*
X18576Y25246D01*
X18580Y25148D01*
X18589Y25050D01*
X18601Y24952D01*
X18618Y24856D01*
X18638Y24759D01*
X18661Y24664D01*
X18689Y24570D01*
X18720Y24477D01*
X18756Y24385D01*
X18794Y24295D01*
X18836Y24206D01*
X18882Y24119D01*
X18931Y24034D01*
X18984Y23951D01*
X19039Y23871D01*
X19098Y23792D01*
X19160Y23716D01*
X19225Y23642D01*
X19293Y23571D01*
X19364Y23503D01*
X19437Y23438D01*
X19513Y23375D01*
X19591Y23316D01*
X19671Y23260D01*
X19754Y23207D01*
X19839Y23157D01*
X19925Y23111D01*
X20014Y23068D01*
X20104Y23029D01*
X20195Y22993D01*
X20288Y22962D01*
X20382Y22933D01*
X20477Y22909D01*
X20573Y22888D01*
X20670Y22871D01*
X20767Y22859D01*
X20865Y22849D01*
X20963Y22844D01*
X21061Y22843D01*
X27399Y34748D02*
X27396Y34839D01*
X27390Y34931D01*
X27380Y35022D01*
X27366Y35113D01*
X27348Y35203D01*
X27327Y35293D01*
X27302Y35381D01*
X27273Y35468D01*
X27241Y35555D01*
X27205Y35639D01*
X27166Y35722D01*
X27124Y35804D01*
X27078Y35883D01*
X27028Y35961D01*
X26976Y36036D01*
X26921Y36110D01*
X26862Y36181D01*
X26801Y36249D01*
X26737Y36315D01*
X26670Y36378D01*
X26601Y36438D01*
X26529Y36496D01*
X26455Y36550D01*
X26379Y36601D01*
X26301Y36650D01*
X26220Y36694D01*
X26138Y36736D01*
X26055Y36774D01*
X25970Y36809D01*
X25883Y36840D01*
X25795Y36867D01*
X25707Y36891D01*
X25617Y36911D01*
X25527Y36927D01*
X25436Y36940D01*
X25344Y36949D01*
X25252Y36954D01*
X25161Y36955D01*
X27399Y34747D02*
X27398Y34641D01*
X27393Y34536D01*
X27384Y34431D01*
X27371Y34326D01*
X27354Y34222D01*
X27333Y34118D01*
X27309Y34015D01*
X27281Y33914D01*
X27249Y33813D01*
X27213Y33714D01*
X27174Y33616D01*
X27131Y33519D01*
X27084Y33424D01*
X27035Y33331D01*
X26981Y33240D01*
X26925Y33151D01*
X26865Y33064D01*
X26802Y32979D01*
X26735Y32897D01*
X26666Y32817D01*
X26594Y32740D01*
X26519Y32666D01*
X26442Y32594D01*
X26361Y32525D01*
X26279Y32459D01*
X26194Y32397D01*
X26106Y32337D01*
X26017Y32281D01*
X25926Y32229D01*
X25832Y32179D01*
X25737Y32133D01*
X25640Y32091D01*
X25542Y32052D01*
X25443Y32017D01*
X23438Y36201D02*
X23506Y36270D01*
X23576Y36337D01*
X23649Y36400D01*
X23724Y36460D01*
X23802Y36518D01*
X23882Y36572D01*
X23964Y36623D01*
X24049Y36670D01*
X24135Y36714D01*
X24222Y36754D01*
X24312Y36791D01*
X24402Y36825D01*
X24494Y36854D01*
X24588Y36880D01*
X24682Y36902D01*
X24777Y36920D01*
X24872Y36934D01*
X24968Y36945D01*
X25065Y36951D01*
X25161Y36954D01*
X23437Y36201D02*
X18528Y31969D01*
X18494Y36908D01*
X20440Y41126D02*
X27340Y43150D01*
X20440Y41126D02*
X20405Y46065D01*
X22391Y44597D02*
X18440Y44570D01*
X18696Y116878D02*
X27586Y116940D01*
X27603Y114471D02*
X27569Y119410D01*
X27541Y123425D02*
X18651Y123363D01*
X22582Y126354D02*
X27541Y123425D01*
X22582Y126354D02*
X27500Y129352D01*
X18610Y129290D01*
X18558Y136574D02*
X18559Y136660D01*
X18564Y136746D01*
X18573Y136832D01*
X18586Y136918D01*
X18602Y137002D01*
X18622Y137086D01*
X18645Y137169D01*
X18672Y137251D01*
X18703Y137331D01*
X18737Y137411D01*
X18775Y137488D01*
X18816Y137564D01*
X18860Y137638D01*
X18907Y137710D01*
X18958Y137780D01*
X19011Y137848D01*
X19068Y137913D01*
X19127Y137975D01*
X19189Y138036D01*
X19253Y138093D01*
X19320Y138147D01*
X19389Y138199D01*
X19461Y138247D01*
X19534Y138292D01*
X19609Y138334D01*
X19686Y138373D01*
X19765Y138408D01*
X19845Y138440D01*
X19927Y138468D01*
X20009Y138493D01*
X20093Y138514D01*
X20177Y138532D01*
X20262Y138545D01*
X20348Y138555D01*
X20434Y138561D01*
X20520Y138564D01*
X18559Y136574D02*
X18562Y136447D01*
X18569Y136321D01*
X18579Y136194D01*
X18593Y136068D01*
X18612Y135943D01*
X18633Y135818D01*
X18659Y135694D01*
X18689Y135571D01*
X18722Y135449D01*
X18759Y135327D01*
X18799Y135207D01*
X18844Y135088D01*
X18891Y134971D01*
X18943Y134855D01*
X18997Y134741D01*
X19056Y134628D01*
X19117Y134518D01*
X19182Y134409D01*
X19251Y134302D01*
X19322Y134198D01*
X19397Y134095D01*
X19474Y133995D01*
X19555Y133897D01*
X19639Y133802D01*
X19725Y133709D01*
X19814Y133619D01*
X25493Y133905D02*
X25579Y133908D01*
X25665Y133914D01*
X25751Y133924D01*
X25836Y133937D01*
X25920Y133955D01*
X26004Y133976D01*
X26086Y134001D01*
X26168Y134029D01*
X26248Y134061D01*
X26327Y134096D01*
X26404Y134135D01*
X26479Y134177D01*
X26552Y134222D01*
X26624Y134270D01*
X26693Y134322D01*
X26760Y134376D01*
X26824Y134434D01*
X26886Y134494D01*
X26945Y134556D01*
X27002Y134621D01*
X27055Y134689D01*
X27106Y134759D01*
X27153Y134831D01*
X27197Y134905D01*
X27238Y134981D01*
X27276Y135058D01*
X27310Y135138D01*
X27341Y135218D01*
X27368Y135300D01*
X27391Y135383D01*
X27411Y135467D01*
X27427Y135552D01*
X27440Y135637D01*
X27449Y135723D01*
X27454Y135809D01*
X27455Y135895D01*
X27454Y135895D02*
X27451Y136014D01*
X27445Y136133D01*
X27434Y136252D01*
X27420Y136370D01*
X27402Y136488D01*
X27380Y136605D01*
X27355Y136722D01*
X27325Y136837D01*
X27292Y136952D01*
X27256Y137065D01*
X27215Y137177D01*
X27171Y137288D01*
X27124Y137398D01*
X27073Y137505D01*
X27019Y137611D01*
X26961Y137716D01*
X26900Y137818D01*
X26836Y137918D01*
X26768Y138017D01*
X26697Y138113D01*
X23756Y134881D02*
X23802Y134807D01*
X23852Y134736D01*
X23904Y134667D01*
X23959Y134600D01*
X24017Y134535D01*
X24078Y134474D01*
X24142Y134414D01*
X24208Y134358D01*
X24276Y134305D01*
X24347Y134254D01*
X24420Y134207D01*
X24494Y134163D01*
X24571Y134122D01*
X24649Y134084D01*
X24729Y134050D01*
X24810Y134019D01*
X24893Y133992D01*
X24976Y133969D01*
X25061Y133949D01*
X25146Y133933D01*
X25232Y133920D01*
X25318Y133911D01*
X25405Y133906D01*
X25492Y133905D01*
X22257Y137588D02*
X22211Y137662D01*
X22161Y137733D01*
X22109Y137802D01*
X22054Y137869D01*
X21996Y137934D01*
X21935Y137995D01*
X21871Y138055D01*
X21805Y138111D01*
X21737Y138164D01*
X21666Y138215D01*
X21593Y138262D01*
X21519Y138306D01*
X21442Y138347D01*
X21364Y138385D01*
X21284Y138419D01*
X21203Y138450D01*
X21120Y138477D01*
X21037Y138500D01*
X20952Y138520D01*
X20867Y138536D01*
X20781Y138549D01*
X20695Y138558D01*
X20608Y138563D01*
X20521Y138564D01*
X22256Y137587D02*
X23757Y134881D01*
X31512Y100388D02*
X40401Y100450D01*
X40384Y102920D01*
X40381Y103017D01*
X40375Y103114D01*
X40365Y103210D01*
X40351Y103306D01*
X40333Y103402D01*
X40312Y103496D01*
X40287Y103590D01*
X40258Y103682D01*
X40225Y103774D01*
X40189Y103864D01*
X40150Y103952D01*
X40107Y104039D01*
X40061Y104124D01*
X40011Y104208D01*
X39958Y104289D01*
X39902Y104368D01*
X39843Y104445D01*
X39781Y104520D01*
X39716Y104592D01*
X39649Y104661D01*
X39578Y104728D01*
X39505Y104792D01*
X39430Y104853D01*
X39352Y104911D01*
X39272Y104965D01*
X39190Y105017D01*
X39106Y105066D01*
X39021Y105111D01*
X38933Y105152D01*
X38844Y105191D01*
X38753Y105225D01*
X38662Y105256D01*
X38569Y105284D01*
X38475Y105308D01*
X38380Y105328D01*
X38284Y105344D01*
X38188Y105357D01*
X38092Y105366D01*
X37995Y105371D01*
X37898Y105372D01*
X37897Y105372D02*
X33946Y105344D01*
X33947Y105344D02*
X33850Y105341D01*
X33753Y105335D01*
X33657Y105325D01*
X33561Y105311D01*
X33465Y105293D01*
X33371Y105272D01*
X33277Y105247D01*
X33185Y105218D01*
X33093Y105185D01*
X33003Y105149D01*
X32915Y105110D01*
X32828Y105067D01*
X32743Y105021D01*
X32659Y104971D01*
X32578Y104918D01*
X32499Y104862D01*
X32422Y104803D01*
X32347Y104741D01*
X32275Y104676D01*
X32206Y104609D01*
X32139Y104538D01*
X32075Y104465D01*
X32014Y104390D01*
X31956Y104312D01*
X31902Y104232D01*
X31850Y104150D01*
X31801Y104066D01*
X31756Y103981D01*
X31715Y103893D01*
X31676Y103804D01*
X31642Y103713D01*
X31611Y103622D01*
X31583Y103529D01*
X31559Y103435D01*
X31539Y103340D01*
X31523Y103244D01*
X31510Y103148D01*
X31501Y103052D01*
X31496Y102955D01*
X31495Y102858D01*
X31494Y102858D02*
X31512Y100388D01*
X31441Y110477D02*
X40331Y110539D01*
X31448Y109490D02*
X31434Y111465D01*
X40324Y111527D02*
X40338Y109552D01*
X37828Y115368D02*
X33877Y115340D01*
X37827Y115368D02*
X37925Y115371D01*
X38023Y115377D01*
X38121Y115388D01*
X38218Y115402D01*
X38315Y115420D01*
X38410Y115442D01*
X38505Y115468D01*
X38599Y115497D01*
X38691Y115531D01*
X38782Y115567D01*
X38872Y115608D01*
X38959Y115652D01*
X39045Y115699D01*
X39129Y115750D01*
X39211Y115804D01*
X39291Y115861D01*
X39368Y115922D01*
X39443Y115985D01*
X39516Y116052D01*
X39585Y116121D01*
X39652Y116193D01*
X39716Y116267D01*
X39777Y116344D01*
X39835Y116424D01*
X39889Y116505D01*
X39940Y116589D01*
X39988Y116675D01*
X40033Y116762D01*
X40074Y116852D01*
X40111Y116942D01*
X40145Y117035D01*
X40175Y117128D01*
X40201Y117223D01*
X40224Y117318D01*
X40243Y117414D01*
X40257Y117512D01*
X40268Y117609D01*
X40276Y117707D01*
X40279Y117805D01*
X40278Y117903D01*
X40274Y118001D01*
X40265Y118099D01*
X40253Y118197D01*
X40236Y118293D01*
X40216Y118390D01*
X40193Y118485D01*
X40165Y118579D01*
X40134Y118672D01*
X40098Y118764D01*
X40060Y118854D01*
X40018Y118943D01*
X39972Y119029D01*
X39923Y119115D01*
X39870Y119197D01*
X39815Y119278D01*
X39756Y119357D01*
X39694Y119433D01*
X39629Y119507D01*
X39561Y119578D01*
X39490Y119646D01*
X39417Y119711D01*
X39341Y119774D01*
X39263Y119833D01*
X39183Y119889D01*
X39100Y119942D01*
X39015Y119992D01*
X38929Y120038D01*
X38840Y120081D01*
X38750Y120120D01*
X38659Y120156D01*
X38566Y120187D01*
X38472Y120216D01*
X38377Y120240D01*
X38281Y120261D01*
X38184Y120277D01*
X38087Y120290D01*
X37989Y120300D01*
X37891Y120305D01*
X37793Y120306D01*
X37793Y120307D02*
X33842Y120279D01*
X33843Y120279D02*
X33745Y120276D01*
X33647Y120270D01*
X33549Y120259D01*
X33452Y120245D01*
X33355Y120227D01*
X33260Y120205D01*
X33165Y120179D01*
X33071Y120150D01*
X32979Y120116D01*
X32888Y120080D01*
X32798Y120039D01*
X32711Y119995D01*
X32625Y119948D01*
X32541Y119897D01*
X32459Y119843D01*
X32379Y119786D01*
X32302Y119725D01*
X32227Y119662D01*
X32154Y119595D01*
X32085Y119526D01*
X32018Y119454D01*
X31954Y119380D01*
X31893Y119303D01*
X31835Y119223D01*
X31781Y119142D01*
X31730Y119058D01*
X31682Y118972D01*
X31637Y118885D01*
X31596Y118795D01*
X31559Y118705D01*
X31525Y118612D01*
X31495Y118519D01*
X31469Y118424D01*
X31446Y118329D01*
X31427Y118232D01*
X31413Y118135D01*
X31402Y118038D01*
X31394Y117940D01*
X31391Y117842D01*
X31392Y117744D01*
X31396Y117646D01*
X31405Y117548D01*
X31417Y117450D01*
X31434Y117354D01*
X31454Y117257D01*
X31477Y117162D01*
X31505Y117068D01*
X31536Y116975D01*
X31572Y116883D01*
X31610Y116793D01*
X31652Y116704D01*
X31698Y116617D01*
X31747Y116532D01*
X31800Y116449D01*
X31855Y116369D01*
X31914Y116290D01*
X31976Y116214D01*
X32041Y116140D01*
X32109Y116069D01*
X32180Y116001D01*
X32253Y115936D01*
X32329Y115873D01*
X32407Y115814D01*
X32487Y115758D01*
X32570Y115705D01*
X32655Y115655D01*
X32741Y115609D01*
X32830Y115566D01*
X32920Y115527D01*
X33011Y115491D01*
X33104Y115460D01*
X33198Y115431D01*
X33293Y115407D01*
X33389Y115386D01*
X33486Y115369D01*
X33583Y115357D01*
X33681Y115347D01*
X33779Y115342D01*
X33877Y115341D01*
X38258Y124515D02*
X40216Y126998D01*
X31326Y126936D01*
X31344Y124467D02*
X31309Y129406D01*
X38194Y133659D02*
X40152Y136142D01*
X31263Y136080D01*
X31280Y133611D02*
X31245Y138549D01*
X44212Y100388D02*
X53101Y100450D01*
X53084Y102920D01*
X53081Y103017D01*
X53075Y103114D01*
X53065Y103210D01*
X53051Y103306D01*
X53033Y103402D01*
X53012Y103496D01*
X52987Y103590D01*
X52958Y103682D01*
X52925Y103774D01*
X52889Y103864D01*
X52850Y103952D01*
X52807Y104039D01*
X52761Y104124D01*
X52711Y104208D01*
X52658Y104289D01*
X52602Y104368D01*
X52543Y104445D01*
X52481Y104520D01*
X52416Y104592D01*
X52349Y104661D01*
X52278Y104728D01*
X52205Y104792D01*
X52130Y104853D01*
X52052Y104911D01*
X51972Y104965D01*
X51890Y105017D01*
X51806Y105066D01*
X51721Y105111D01*
X51633Y105152D01*
X51544Y105191D01*
X51453Y105225D01*
X51362Y105256D01*
X51269Y105284D01*
X51175Y105308D01*
X51080Y105328D01*
X50984Y105344D01*
X50888Y105357D01*
X50792Y105366D01*
X50695Y105371D01*
X50598Y105372D01*
X50597Y105372D02*
X46646Y105344D01*
X46647Y105344D02*
X46550Y105341D01*
X46453Y105335D01*
X46357Y105325D01*
X46261Y105311D01*
X46165Y105293D01*
X46071Y105272D01*
X45977Y105247D01*
X45885Y105218D01*
X45793Y105185D01*
X45703Y105149D01*
X45615Y105110D01*
X45528Y105067D01*
X45443Y105021D01*
X45359Y104971D01*
X45278Y104918D01*
X45199Y104862D01*
X45122Y104803D01*
X45047Y104741D01*
X44975Y104676D01*
X44906Y104609D01*
X44839Y104538D01*
X44775Y104465D01*
X44714Y104390D01*
X44656Y104312D01*
X44602Y104232D01*
X44550Y104150D01*
X44501Y104066D01*
X44456Y103981D01*
X44415Y103893D01*
X44376Y103804D01*
X44342Y103713D01*
X44311Y103622D01*
X44283Y103529D01*
X44259Y103435D01*
X44239Y103340D01*
X44223Y103244D01*
X44210Y103148D01*
X44201Y103052D01*
X44196Y102955D01*
X44195Y102858D01*
X44194Y102858D02*
X44212Y100388D01*
X44141Y110477D02*
X53031Y110539D01*
X44148Y109490D02*
X44134Y111465D01*
X53024Y111527D02*
X53038Y109552D01*
X50528Y115368D02*
X46577Y115340D01*
X50527Y115368D02*
X50625Y115371D01*
X50723Y115377D01*
X50821Y115388D01*
X50918Y115402D01*
X51015Y115420D01*
X51110Y115442D01*
X51205Y115468D01*
X51299Y115497D01*
X51391Y115531D01*
X51482Y115567D01*
X51572Y115608D01*
X51659Y115652D01*
X51745Y115699D01*
X51829Y115750D01*
X51911Y115804D01*
X51991Y115861D01*
X52068Y115922D01*
X52143Y115985D01*
X52216Y116052D01*
X52285Y116121D01*
X52352Y116193D01*
X52416Y116267D01*
X52477Y116344D01*
X52535Y116424D01*
X52589Y116505D01*
X52640Y116589D01*
X52688Y116675D01*
X52733Y116762D01*
X52774Y116852D01*
X52811Y116942D01*
X52845Y117035D01*
X52875Y117128D01*
X52901Y117223D01*
X52924Y117318D01*
X52943Y117414D01*
X52957Y117512D01*
X52968Y117609D01*
X52976Y117707D01*
X52979Y117805D01*
X52978Y117903D01*
X52974Y118001D01*
X52965Y118099D01*
X52953Y118197D01*
X52936Y118293D01*
X52916Y118390D01*
X52893Y118485D01*
X52865Y118579D01*
X52834Y118672D01*
X52798Y118764D01*
X52760Y118854D01*
X52718Y118943D01*
X52672Y119029D01*
X52623Y119115D01*
X52570Y119197D01*
X52515Y119278D01*
X52456Y119357D01*
X52394Y119433D01*
X52329Y119507D01*
X52261Y119578D01*
X52190Y119646D01*
X52117Y119711D01*
X52041Y119774D01*
X51963Y119833D01*
X51883Y119889D01*
X51800Y119942D01*
X51715Y119992D01*
X51629Y120038D01*
X51540Y120081D01*
X51450Y120120D01*
X51359Y120156D01*
X51266Y120187D01*
X51172Y120216D01*
X51077Y120240D01*
X50981Y120261D01*
X50884Y120277D01*
X50787Y120290D01*
X50689Y120300D01*
X50591Y120305D01*
X50493Y120306D01*
X50493Y120307D02*
X46542Y120279D01*
X46543Y120279D02*
X46445Y120276D01*
X46347Y120270D01*
X46249Y120259D01*
X46152Y120245D01*
X46055Y120227D01*
X45960Y120205D01*
X45865Y120179D01*
X45771Y120150D01*
X45679Y120116D01*
X45588Y120080D01*
X45498Y120039D01*
X45411Y119995D01*
X45325Y119948D01*
X45241Y119897D01*
X45159Y119843D01*
X45079Y119786D01*
X45002Y119725D01*
X44927Y119662D01*
X44854Y119595D01*
X44785Y119526D01*
X44718Y119454D01*
X44654Y119380D01*
X44593Y119303D01*
X44535Y119223D01*
X44481Y119142D01*
X44430Y119058D01*
X44382Y118972D01*
X44337Y118885D01*
X44296Y118795D01*
X44259Y118705D01*
X44225Y118612D01*
X44195Y118519D01*
X44169Y118424D01*
X44146Y118329D01*
X44127Y118232D01*
X44113Y118135D01*
X44102Y118038D01*
X44094Y117940D01*
X44091Y117842D01*
X44092Y117744D01*
X44096Y117646D01*
X44105Y117548D01*
X44117Y117450D01*
X44134Y117354D01*
X44154Y117257D01*
X44177Y117162D01*
X44205Y117068D01*
X44236Y116975D01*
X44272Y116883D01*
X44310Y116793D01*
X44352Y116704D01*
X44398Y116617D01*
X44447Y116532D01*
X44500Y116449D01*
X44555Y116369D01*
X44614Y116290D01*
X44676Y116214D01*
X44741Y116140D01*
X44809Y116069D01*
X44880Y116001D01*
X44953Y115936D01*
X45029Y115873D01*
X45107Y115814D01*
X45187Y115758D01*
X45270Y115705D01*
X45355Y115655D01*
X45441Y115609D01*
X45530Y115566D01*
X45620Y115527D01*
X45711Y115491D01*
X45804Y115460D01*
X45898Y115431D01*
X45993Y115407D01*
X46089Y115386D01*
X46186Y115369D01*
X46283Y115357D01*
X46381Y115347D01*
X46479Y115342D01*
X46577Y115341D01*
X50958Y124515D02*
X52916Y126998D01*
X44026Y126936D01*
X44044Y124467D02*
X44009Y129406D01*
X45955Y133624D02*
X52856Y135648D01*
X45955Y133624D02*
X45921Y138563D01*
X47907Y137095D02*
X43956Y137068D01*
X56912Y100388D02*
X65801Y100450D01*
X65784Y102920D01*
X65781Y103017D01*
X65775Y103114D01*
X65765Y103210D01*
X65751Y103306D01*
X65733Y103402D01*
X65712Y103496D01*
X65687Y103590D01*
X65658Y103682D01*
X65625Y103774D01*
X65589Y103864D01*
X65550Y103952D01*
X65507Y104039D01*
X65461Y104124D01*
X65411Y104208D01*
X65358Y104289D01*
X65302Y104368D01*
X65243Y104445D01*
X65181Y104520D01*
X65116Y104592D01*
X65049Y104661D01*
X64978Y104728D01*
X64905Y104792D01*
X64830Y104853D01*
X64752Y104911D01*
X64672Y104965D01*
X64590Y105017D01*
X64506Y105066D01*
X64421Y105111D01*
X64333Y105152D01*
X64244Y105191D01*
X64153Y105225D01*
X64062Y105256D01*
X63969Y105284D01*
X63875Y105308D01*
X63780Y105328D01*
X63684Y105344D01*
X63588Y105357D01*
X63492Y105366D01*
X63395Y105371D01*
X63298Y105372D01*
X63297Y105372D02*
X59346Y105344D01*
X59347Y105344D02*
X59250Y105341D01*
X59153Y105335D01*
X59057Y105325D01*
X58961Y105311D01*
X58865Y105293D01*
X58771Y105272D01*
X58677Y105247D01*
X58585Y105218D01*
X58493Y105185D01*
X58403Y105149D01*
X58315Y105110D01*
X58228Y105067D01*
X58143Y105021D01*
X58059Y104971D01*
X57978Y104918D01*
X57899Y104862D01*
X57822Y104803D01*
X57747Y104741D01*
X57675Y104676D01*
X57606Y104609D01*
X57539Y104538D01*
X57475Y104465D01*
X57414Y104390D01*
X57356Y104312D01*
X57302Y104232D01*
X57250Y104150D01*
X57201Y104066D01*
X57156Y103981D01*
X57115Y103893D01*
X57076Y103804D01*
X57042Y103713D01*
X57011Y103622D01*
X56983Y103529D01*
X56959Y103435D01*
X56939Y103340D01*
X56923Y103244D01*
X56910Y103148D01*
X56901Y103052D01*
X56896Y102955D01*
X56895Y102858D01*
X56894Y102858D02*
X56912Y100388D01*
X56841Y110477D02*
X65731Y110539D01*
X56848Y109490D02*
X56834Y111465D01*
X65724Y111527D02*
X65738Y109552D01*
X63228Y115368D02*
X59277Y115340D01*
X63227Y115368D02*
X63325Y115371D01*
X63423Y115377D01*
X63521Y115388D01*
X63618Y115402D01*
X63715Y115420D01*
X63810Y115442D01*
X63905Y115468D01*
X63999Y115497D01*
X64091Y115531D01*
X64182Y115567D01*
X64272Y115608D01*
X64359Y115652D01*
X64445Y115699D01*
X64529Y115750D01*
X64611Y115804D01*
X64691Y115861D01*
X64768Y115922D01*
X64843Y115985D01*
X64916Y116052D01*
X64985Y116121D01*
X65052Y116193D01*
X65116Y116267D01*
X65177Y116344D01*
X65235Y116424D01*
X65289Y116505D01*
X65340Y116589D01*
X65388Y116675D01*
X65433Y116762D01*
X65474Y116852D01*
X65511Y116942D01*
X65545Y117035D01*
X65575Y117128D01*
X65601Y117223D01*
X65624Y117318D01*
X65643Y117414D01*
X65657Y117512D01*
X65668Y117609D01*
X65676Y117707D01*
X65679Y117805D01*
X65678Y117903D01*
X65674Y118001D01*
X65665Y118099D01*
X65653Y118197D01*
X65636Y118293D01*
X65616Y118390D01*
X65593Y118485D01*
X65565Y118579D01*
X65534Y118672D01*
X65498Y118764D01*
X65460Y118854D01*
X65418Y118943D01*
X65372Y119029D01*
X65323Y119115D01*
X65270Y119197D01*
X65215Y119278D01*
X65156Y119357D01*
X65094Y119433D01*
X65029Y119507D01*
X64961Y119578D01*
X64890Y119646D01*
X64817Y119711D01*
X64741Y119774D01*
X64663Y119833D01*
X64583Y119889D01*
X64500Y119942D01*
X64415Y119992D01*
X64329Y120038D01*
X64240Y120081D01*
X64150Y120120D01*
X64059Y120156D01*
X63966Y120187D01*
X63872Y120216D01*
X63777Y120240D01*
X63681Y120261D01*
X63584Y120277D01*
X63487Y120290D01*
X63389Y120300D01*
X63291Y120305D01*
X63193Y120306D01*
X63193Y120307D02*
X59242Y120279D01*
X59243Y120279D02*
X59145Y120276D01*
X59047Y120270D01*
X58949Y120259D01*
X58852Y120245D01*
X58755Y120227D01*
X58660Y120205D01*
X58565Y120179D01*
X58471Y120150D01*
X58379Y120116D01*
X58288Y120080D01*
X58198Y120039D01*
X58111Y119995D01*
X58025Y119948D01*
X57941Y119897D01*
X57859Y119843D01*
X57779Y119786D01*
X57702Y119725D01*
X57627Y119662D01*
X57554Y119595D01*
X57485Y119526D01*
X57418Y119454D01*
X57354Y119380D01*
X57293Y119303D01*
X57235Y119223D01*
X57181Y119142D01*
X57130Y119058D01*
X57082Y118972D01*
X57037Y118885D01*
X56996Y118795D01*
X56959Y118705D01*
X56925Y118612D01*
X56895Y118519D01*
X56869Y118424D01*
X56846Y118329D01*
X56827Y118232D01*
X56813Y118135D01*
X56802Y118038D01*
X56794Y117940D01*
X56791Y117842D01*
X56792Y117744D01*
X56796Y117646D01*
X56805Y117548D01*
X56817Y117450D01*
X56834Y117354D01*
X56854Y117257D01*
X56877Y117162D01*
X56905Y117068D01*
X56936Y116975D01*
X56972Y116883D01*
X57010Y116793D01*
X57052Y116704D01*
X57098Y116617D01*
X57147Y116532D01*
X57200Y116449D01*
X57255Y116369D01*
X57314Y116290D01*
X57376Y116214D01*
X57441Y116140D01*
X57509Y116069D01*
X57580Y116001D01*
X57653Y115936D01*
X57729Y115873D01*
X57807Y115814D01*
X57887Y115758D01*
X57970Y115705D01*
X58055Y115655D01*
X58141Y115609D01*
X58230Y115566D01*
X58320Y115527D01*
X58411Y115491D01*
X58504Y115460D01*
X58598Y115431D01*
X58693Y115407D01*
X58789Y115386D01*
X58886Y115369D01*
X58983Y115357D01*
X59081Y115347D01*
X59179Y115342D01*
X59277Y115341D01*
X63658Y124515D02*
X65616Y126998D01*
X56726Y126936D01*
X56744Y124467D02*
X56709Y129406D01*
X56680Y133611D02*
X56659Y136574D01*
X56660Y136660D01*
X56665Y136746D01*
X56674Y136832D01*
X56687Y136918D01*
X56703Y137002D01*
X56723Y137086D01*
X56746Y137169D01*
X56773Y137251D01*
X56804Y137331D01*
X56838Y137411D01*
X56876Y137488D01*
X56917Y137564D01*
X56961Y137638D01*
X57008Y137710D01*
X57059Y137780D01*
X57112Y137848D01*
X57169Y137913D01*
X57228Y137975D01*
X57290Y138036D01*
X57354Y138093D01*
X57421Y138147D01*
X57490Y138199D01*
X57562Y138247D01*
X57635Y138292D01*
X57710Y138334D01*
X57787Y138373D01*
X57866Y138408D01*
X57946Y138440D01*
X58028Y138468D01*
X58110Y138493D01*
X58194Y138514D01*
X58278Y138532D01*
X58363Y138545D01*
X58449Y138555D01*
X58535Y138561D01*
X58621Y138564D01*
X58621Y138563D02*
X59609Y138570D01*
X59608Y138570D02*
X59694Y138569D01*
X59780Y138564D01*
X59866Y138555D01*
X59952Y138542D01*
X60036Y138526D01*
X60120Y138506D01*
X60203Y138483D01*
X60285Y138456D01*
X60365Y138425D01*
X60445Y138391D01*
X60522Y138353D01*
X60598Y138312D01*
X60672Y138268D01*
X60744Y138221D01*
X60814Y138170D01*
X60882Y138117D01*
X60947Y138060D01*
X61009Y138001D01*
X61070Y137939D01*
X61127Y137875D01*
X61181Y137808D01*
X61233Y137739D01*
X61281Y137667D01*
X61326Y137594D01*
X61368Y137519D01*
X61407Y137442D01*
X61442Y137363D01*
X61474Y137283D01*
X61502Y137201D01*
X61527Y137119D01*
X61548Y137035D01*
X61566Y136951D01*
X61579Y136866D01*
X61589Y136780D01*
X61595Y136694D01*
X61598Y136608D01*
X61619Y133645D01*
X65570Y133673D01*
X65535Y138611D01*
X69612Y100388D02*
X78501Y100450D01*
X78484Y102920D01*
X78481Y103017D01*
X78475Y103114D01*
X78465Y103210D01*
X78451Y103306D01*
X78433Y103402D01*
X78412Y103496D01*
X78387Y103590D01*
X78358Y103682D01*
X78325Y103774D01*
X78289Y103864D01*
X78250Y103952D01*
X78207Y104039D01*
X78161Y104124D01*
X78111Y104208D01*
X78058Y104289D01*
X78002Y104368D01*
X77943Y104445D01*
X77881Y104520D01*
X77816Y104592D01*
X77749Y104661D01*
X77678Y104728D01*
X77605Y104792D01*
X77530Y104853D01*
X77452Y104911D01*
X77372Y104965D01*
X77290Y105017D01*
X77206Y105066D01*
X77121Y105111D01*
X77033Y105152D01*
X76944Y105191D01*
X76853Y105225D01*
X76762Y105256D01*
X76669Y105284D01*
X76575Y105308D01*
X76480Y105328D01*
X76384Y105344D01*
X76288Y105357D01*
X76192Y105366D01*
X76095Y105371D01*
X75998Y105372D01*
X75997Y105372D02*
X72046Y105344D01*
X72047Y105344D02*
X71950Y105341D01*
X71853Y105335D01*
X71757Y105325D01*
X71661Y105311D01*
X71565Y105293D01*
X71471Y105272D01*
X71377Y105247D01*
X71285Y105218D01*
X71193Y105185D01*
X71103Y105149D01*
X71015Y105110D01*
X70928Y105067D01*
X70843Y105021D01*
X70759Y104971D01*
X70678Y104918D01*
X70599Y104862D01*
X70522Y104803D01*
X70447Y104741D01*
X70375Y104676D01*
X70306Y104609D01*
X70239Y104538D01*
X70175Y104465D01*
X70114Y104390D01*
X70056Y104312D01*
X70002Y104232D01*
X69950Y104150D01*
X69901Y104066D01*
X69856Y103981D01*
X69815Y103893D01*
X69776Y103804D01*
X69742Y103713D01*
X69711Y103622D01*
X69683Y103529D01*
X69659Y103435D01*
X69639Y103340D01*
X69623Y103244D01*
X69610Y103148D01*
X69601Y103052D01*
X69596Y102955D01*
X69595Y102858D01*
X69594Y102858D02*
X69612Y100388D01*
X69541Y110477D02*
X78431Y110539D01*
X69548Y109490D02*
X69534Y111465D01*
X78424Y111527D02*
X78438Y109552D01*
X75928Y115368D02*
X71977Y115340D01*
X75927Y115368D02*
X76025Y115371D01*
X76123Y115377D01*
X76221Y115388D01*
X76318Y115402D01*
X76415Y115420D01*
X76510Y115442D01*
X76605Y115468D01*
X76699Y115497D01*
X76791Y115531D01*
X76882Y115567D01*
X76972Y115608D01*
X77059Y115652D01*
X77145Y115699D01*
X77229Y115750D01*
X77311Y115804D01*
X77391Y115861D01*
X77468Y115922D01*
X77543Y115985D01*
X77616Y116052D01*
X77685Y116121D01*
X77752Y116193D01*
X77816Y116267D01*
X77877Y116344D01*
X77935Y116424D01*
X77989Y116505D01*
X78040Y116589D01*
X78088Y116675D01*
X78133Y116762D01*
X78174Y116852D01*
X78211Y116942D01*
X78245Y117035D01*
X78275Y117128D01*
X78301Y117223D01*
X78324Y117318D01*
X78343Y117414D01*
X78357Y117512D01*
X78368Y117609D01*
X78376Y117707D01*
X78379Y117805D01*
X78378Y117903D01*
X78374Y118001D01*
X78365Y118099D01*
X78353Y118197D01*
X78336Y118293D01*
X78316Y118390D01*
X78293Y118485D01*
X78265Y118579D01*
X78234Y118672D01*
X78198Y118764D01*
X78160Y118854D01*
X78118Y118943D01*
X78072Y119029D01*
X78023Y119115D01*
X77970Y119197D01*
X77915Y119278D01*
X77856Y119357D01*
X77794Y119433D01*
X77729Y119507D01*
X77661Y119578D01*
X77590Y119646D01*
X77517Y119711D01*
X77441Y119774D01*
X77363Y119833D01*
X77283Y119889D01*
X77200Y119942D01*
X77115Y119992D01*
X77029Y120038D01*
X76940Y120081D01*
X76850Y120120D01*
X76759Y120156D01*
X76666Y120187D01*
X76572Y120216D01*
X76477Y120240D01*
X76381Y120261D01*
X76284Y120277D01*
X76187Y120290D01*
X76089Y120300D01*
X75991Y120305D01*
X75893Y120306D01*
X75893Y120307D02*
X71942Y120279D01*
X71943Y120279D02*
X71845Y120276D01*
X71747Y120270D01*
X71649Y120259D01*
X71552Y120245D01*
X71455Y120227D01*
X71360Y120205D01*
X71265Y120179D01*
X71171Y120150D01*
X71079Y120116D01*
X70988Y120080D01*
X70898Y120039D01*
X70811Y119995D01*
X70725Y119948D01*
X70641Y119897D01*
X70559Y119843D01*
X70479Y119786D01*
X70402Y119725D01*
X70327Y119662D01*
X70254Y119595D01*
X70185Y119526D01*
X70118Y119454D01*
X70054Y119380D01*
X69993Y119303D01*
X69935Y119223D01*
X69881Y119142D01*
X69830Y119058D01*
X69782Y118972D01*
X69737Y118885D01*
X69696Y118795D01*
X69659Y118705D01*
X69625Y118612D01*
X69595Y118519D01*
X69569Y118424D01*
X69546Y118329D01*
X69527Y118232D01*
X69513Y118135D01*
X69502Y118038D01*
X69494Y117940D01*
X69491Y117842D01*
X69492Y117744D01*
X69496Y117646D01*
X69505Y117548D01*
X69517Y117450D01*
X69534Y117354D01*
X69554Y117257D01*
X69577Y117162D01*
X69605Y117068D01*
X69636Y116975D01*
X69672Y116883D01*
X69710Y116793D01*
X69752Y116704D01*
X69798Y116617D01*
X69847Y116532D01*
X69900Y116449D01*
X69955Y116369D01*
X70014Y116290D01*
X70076Y116214D01*
X70141Y116140D01*
X70209Y116069D01*
X70280Y116001D01*
X70353Y115936D01*
X70429Y115873D01*
X70507Y115814D01*
X70587Y115758D01*
X70670Y115705D01*
X70755Y115655D01*
X70841Y115609D01*
X70930Y115566D01*
X71020Y115527D01*
X71111Y115491D01*
X71204Y115460D01*
X71298Y115431D01*
X71393Y115407D01*
X71489Y115386D01*
X71586Y115369D01*
X71683Y115357D01*
X71781Y115347D01*
X71879Y115342D01*
X71977Y115341D01*
X76358Y124515D02*
X78316Y126998D01*
X69426Y126936D01*
X69444Y124467D02*
X69409Y129406D01*
X69380Y133611D02*
X69363Y136080D01*
X69364Y136178D01*
X69369Y136276D01*
X69379Y136374D01*
X69392Y136471D01*
X69408Y136568D01*
X69429Y136664D01*
X69453Y136759D01*
X69482Y136853D01*
X69513Y136946D01*
X69549Y137037D01*
X69588Y137127D01*
X69631Y137216D01*
X69677Y137302D01*
X69727Y137387D01*
X69780Y137470D01*
X69836Y137550D01*
X69895Y137628D01*
X69958Y137704D01*
X70023Y137777D01*
X70091Y137848D01*
X70162Y137916D01*
X70236Y137981D01*
X70312Y138043D01*
X70391Y138102D01*
X70472Y138157D01*
X70554Y138210D01*
X70640Y138259D01*
X70726Y138305D01*
X70815Y138347D01*
X70905Y138385D01*
X70997Y138421D01*
X71090Y138452D01*
X71184Y138480D01*
X71279Y138503D01*
X71376Y138523D01*
X71472Y138540D01*
X71570Y138552D01*
X71668Y138561D01*
X71766Y138565D01*
X71864Y138566D01*
X71962Y138563D01*
X72060Y138555D01*
X72157Y138544D01*
X72255Y138530D01*
X72351Y138511D01*
X72446Y138488D01*
X72541Y138462D01*
X72634Y138432D01*
X72727Y138398D01*
X72817Y138361D01*
X72907Y138320D01*
X72994Y138275D01*
X73080Y138227D01*
X73164Y138176D01*
X73245Y138122D01*
X73325Y138064D01*
X73402Y138003D01*
X73476Y137939D01*
X73548Y137872D01*
X73617Y137803D01*
X73684Y137730D01*
X73747Y137655D01*
X73808Y137578D01*
X73865Y137498D01*
X73919Y137416D01*
X73970Y137332D01*
X74017Y137246D01*
X74061Y137159D01*
X74102Y137069D01*
X74138Y136978D01*
X74172Y136886D01*
X74201Y136792D01*
X74227Y136697D01*
X74249Y136602D01*
X74267Y136505D01*
X74281Y136408D01*
X74292Y136310D01*
X74298Y136212D01*
X74301Y136114D01*
X78249Y136636D02*
X78270Y133673D01*
X78249Y136636D02*
X78246Y136723D01*
X78240Y136810D01*
X78230Y136897D01*
X78216Y136983D01*
X78198Y137069D01*
X78176Y137154D01*
X78151Y137237D01*
X78122Y137320D01*
X78089Y137401D01*
X78053Y137481D01*
X78013Y137558D01*
X77970Y137634D01*
X77923Y137709D01*
X77874Y137780D01*
X77821Y137850D01*
X77765Y137917D01*
X77706Y137982D01*
X77645Y138044D01*
X77581Y138104D01*
X77514Y138160D01*
X77445Y138213D01*
X77373Y138264D01*
X77299Y138311D01*
X77224Y138354D01*
X77146Y138395D01*
X77067Y138432D01*
X76986Y138465D01*
X76904Y138495D01*
X76820Y138521D01*
X76736Y138543D01*
X76650Y138562D01*
X76564Y138576D01*
X76477Y138587D01*
X76390Y138595D01*
X76303Y138598D01*
X76216Y138597D01*
X76128Y138593D01*
X76041Y138584D01*
X75955Y138572D01*
X75869Y138556D01*
X75783Y138536D01*
X75699Y138513D01*
X75616Y138486D01*
X75534Y138455D01*
X75454Y138420D01*
X75375Y138382D01*
X75298Y138341D01*
X75223Y138296D01*
X75150Y138248D01*
X75079Y138197D01*
X75011Y138142D01*
X74945Y138085D01*
X74881Y138025D01*
X74821Y137962D01*
X74763Y137896D01*
X74708Y137828D01*
X74656Y137758D01*
X74608Y137685D01*
X74562Y137611D01*
X74520Y137534D01*
X74481Y137456D01*
X74446Y137376D01*
X74415Y137294D01*
X74387Y137211D01*
X74363Y137127D01*
X74342Y137042D01*
X74325Y136956D01*
X74313Y136870D01*
X74304Y136783D01*
X74298Y136696D01*
X74297Y136608D01*
X74298Y136608D02*
X74312Y134633D01*
X82312Y100388D02*
X91201Y100450D01*
X91184Y102920D01*
X91181Y103017D01*
X91175Y103114D01*
X91165Y103210D01*
X91151Y103306D01*
X91133Y103402D01*
X91112Y103496D01*
X91087Y103590D01*
X91058Y103682D01*
X91025Y103774D01*
X90989Y103864D01*
X90950Y103952D01*
X90907Y104039D01*
X90861Y104124D01*
X90811Y104208D01*
X90758Y104289D01*
X90702Y104368D01*
X90643Y104445D01*
X90581Y104520D01*
X90516Y104592D01*
X90449Y104661D01*
X90378Y104728D01*
X90305Y104792D01*
X90230Y104853D01*
X90152Y104911D01*
X90072Y104965D01*
X89990Y105017D01*
X89906Y105066D01*
X89821Y105111D01*
X89733Y105152D01*
X89644Y105191D01*
X89553Y105225D01*
X89462Y105256D01*
X89369Y105284D01*
X89275Y105308D01*
X89180Y105328D01*
X89084Y105344D01*
X88988Y105357D01*
X88892Y105366D01*
X88795Y105371D01*
X88698Y105372D01*
X88697Y105372D02*
X84746Y105344D01*
X84747Y105344D02*
X84650Y105341D01*
X84553Y105335D01*
X84457Y105325D01*
X84361Y105311D01*
X84265Y105293D01*
X84171Y105272D01*
X84077Y105247D01*
X83985Y105218D01*
X83893Y105185D01*
X83803Y105149D01*
X83715Y105110D01*
X83628Y105067D01*
X83543Y105021D01*
X83459Y104971D01*
X83378Y104918D01*
X83299Y104862D01*
X83222Y104803D01*
X83147Y104741D01*
X83075Y104676D01*
X83006Y104609D01*
X82939Y104538D01*
X82875Y104465D01*
X82814Y104390D01*
X82756Y104312D01*
X82702Y104232D01*
X82650Y104150D01*
X82601Y104066D01*
X82556Y103981D01*
X82515Y103893D01*
X82476Y103804D01*
X82442Y103713D01*
X82411Y103622D01*
X82383Y103529D01*
X82359Y103435D01*
X82339Y103340D01*
X82323Y103244D01*
X82310Y103148D01*
X82301Y103052D01*
X82296Y102955D01*
X82295Y102858D01*
X82294Y102858D02*
X82312Y100388D01*
X82241Y110477D02*
X91131Y110539D01*
X82248Y109490D02*
X82234Y111465D01*
X91124Y111527D02*
X91138Y109552D01*
X88628Y115368D02*
X84677Y115340D01*
X88627Y115368D02*
X88725Y115371D01*
X88823Y115377D01*
X88921Y115388D01*
X89018Y115402D01*
X89115Y115420D01*
X89210Y115442D01*
X89305Y115468D01*
X89399Y115497D01*
X89491Y115531D01*
X89582Y115567D01*
X89672Y115608D01*
X89759Y115652D01*
X89845Y115699D01*
X89929Y115750D01*
X90011Y115804D01*
X90091Y115861D01*
X90168Y115922D01*
X90243Y115985D01*
X90316Y116052D01*
X90385Y116121D01*
X90452Y116193D01*
X90516Y116267D01*
X90577Y116344D01*
X90635Y116424D01*
X90689Y116505D01*
X90740Y116589D01*
X90788Y116675D01*
X90833Y116762D01*
X90874Y116852D01*
X90911Y116942D01*
X90945Y117035D01*
X90975Y117128D01*
X91001Y117223D01*
X91024Y117318D01*
X91043Y117414D01*
X91057Y117512D01*
X91068Y117609D01*
X91076Y117707D01*
X91079Y117805D01*
X91078Y117903D01*
X91074Y118001D01*
X91065Y118099D01*
X91053Y118197D01*
X91036Y118293D01*
X91016Y118390D01*
X90993Y118485D01*
X90965Y118579D01*
X90934Y118672D01*
X90898Y118764D01*
X90860Y118854D01*
X90818Y118943D01*
X90772Y119029D01*
X90723Y119115D01*
X90670Y119197D01*
X90615Y119278D01*
X90556Y119357D01*
X90494Y119433D01*
X90429Y119507D01*
X90361Y119578D01*
X90290Y119646D01*
X90217Y119711D01*
X90141Y119774D01*
X90063Y119833D01*
X89983Y119889D01*
X89900Y119942D01*
X89815Y119992D01*
X89729Y120038D01*
X89640Y120081D01*
X89550Y120120D01*
X89459Y120156D01*
X89366Y120187D01*
X89272Y120216D01*
X89177Y120240D01*
X89081Y120261D01*
X88984Y120277D01*
X88887Y120290D01*
X88789Y120300D01*
X88691Y120305D01*
X88593Y120306D01*
X88593Y120307D02*
X84642Y120279D01*
X84643Y120279D02*
X84545Y120276D01*
X84447Y120270D01*
X84349Y120259D01*
X84252Y120245D01*
X84155Y120227D01*
X84060Y120205D01*
X83965Y120179D01*
X83871Y120150D01*
X83779Y120116D01*
X83688Y120080D01*
X83598Y120039D01*
X83511Y119995D01*
X83425Y119948D01*
X83341Y119897D01*
X83259Y119843D01*
X83179Y119786D01*
X83102Y119725D01*
X83027Y119662D01*
X82954Y119595D01*
X82885Y119526D01*
X82818Y119454D01*
X82754Y119380D01*
X82693Y119303D01*
X82635Y119223D01*
X82581Y119142D01*
X82530Y119058D01*
X82482Y118972D01*
X82437Y118885D01*
X82396Y118795D01*
X82359Y118705D01*
X82325Y118612D01*
X82295Y118519D01*
X82269Y118424D01*
X82246Y118329D01*
X82227Y118232D01*
X82213Y118135D01*
X82202Y118038D01*
X82194Y117940D01*
X82191Y117842D01*
X82192Y117744D01*
X82196Y117646D01*
X82205Y117548D01*
X82217Y117450D01*
X82234Y117354D01*
X82254Y117257D01*
X82277Y117162D01*
X82305Y117068D01*
X82336Y116975D01*
X82372Y116883D01*
X82410Y116793D01*
X82452Y116704D01*
X82498Y116617D01*
X82547Y116532D01*
X82600Y116449D01*
X82655Y116369D01*
X82714Y116290D01*
X82776Y116214D01*
X82841Y116140D01*
X82909Y116069D01*
X82980Y116001D01*
X83053Y115936D01*
X83129Y115873D01*
X83207Y115814D01*
X83287Y115758D01*
X83370Y115705D01*
X83455Y115655D01*
X83541Y115609D01*
X83630Y115566D01*
X83720Y115527D01*
X83811Y115491D01*
X83904Y115460D01*
X83998Y115431D01*
X84093Y115407D01*
X84189Y115386D01*
X84286Y115369D01*
X84383Y115357D01*
X84481Y115347D01*
X84579Y115342D01*
X84677Y115341D01*
X89058Y124515D02*
X91016Y126998D01*
X82126Y126936D01*
X82144Y124467D02*
X82109Y129406D01*
X90951Y136389D02*
X90948Y136480D01*
X90942Y136572D01*
X90932Y136663D01*
X90918Y136754D01*
X90900Y136844D01*
X90879Y136934D01*
X90854Y137022D01*
X90825Y137109D01*
X90793Y137196D01*
X90757Y137280D01*
X90718Y137363D01*
X90676Y137445D01*
X90630Y137524D01*
X90580Y137602D01*
X90528Y137677D01*
X90473Y137751D01*
X90414Y137822D01*
X90353Y137890D01*
X90289Y137956D01*
X90222Y138019D01*
X90153Y138079D01*
X90081Y138137D01*
X90007Y138191D01*
X89931Y138242D01*
X89853Y138291D01*
X89772Y138335D01*
X89690Y138377D01*
X89607Y138415D01*
X89522Y138450D01*
X89435Y138481D01*
X89347Y138508D01*
X89259Y138532D01*
X89169Y138552D01*
X89079Y138568D01*
X88988Y138581D01*
X88896Y138590D01*
X88804Y138595D01*
X88713Y138596D01*
X90950Y136389D02*
X90949Y136283D01*
X90944Y136178D01*
X90935Y136073D01*
X90922Y135968D01*
X90905Y135864D01*
X90884Y135760D01*
X90860Y135657D01*
X90832Y135556D01*
X90800Y135455D01*
X90764Y135356D01*
X90725Y135258D01*
X90682Y135161D01*
X90635Y135066D01*
X90586Y134973D01*
X90532Y134882D01*
X90476Y134793D01*
X90416Y134706D01*
X90353Y134621D01*
X90286Y134539D01*
X90217Y134459D01*
X90145Y134382D01*
X90070Y134308D01*
X89993Y134236D01*
X89912Y134167D01*
X89830Y134101D01*
X89745Y134039D01*
X89657Y133979D01*
X89568Y133923D01*
X89477Y133871D01*
X89383Y133821D01*
X89288Y133775D01*
X89191Y133733D01*
X89093Y133694D01*
X88994Y133659D01*
X86989Y137842D02*
X87057Y137911D01*
X87127Y137978D01*
X87200Y138041D01*
X87275Y138101D01*
X87353Y138159D01*
X87433Y138213D01*
X87515Y138264D01*
X87600Y138311D01*
X87686Y138355D01*
X87773Y138395D01*
X87863Y138432D01*
X87953Y138466D01*
X88045Y138495D01*
X88139Y138521D01*
X88233Y138543D01*
X88328Y138561D01*
X88423Y138575D01*
X88519Y138586D01*
X88616Y138592D01*
X88712Y138595D01*
X86989Y137843D02*
X82080Y133611D01*
X82045Y138549D01*
X94890Y117792D02*
X94907Y115323D01*
X94890Y117793D02*
X94891Y117891D01*
X94896Y117989D01*
X94906Y118087D01*
X94919Y118184D01*
X94935Y118281D01*
X94956Y118377D01*
X94980Y118472D01*
X95009Y118566D01*
X95040Y118659D01*
X95076Y118750D01*
X95115Y118840D01*
X95158Y118929D01*
X95204Y119015D01*
X95254Y119100D01*
X95307Y119183D01*
X95363Y119263D01*
X95422Y119341D01*
X95485Y119417D01*
X95550Y119490D01*
X95618Y119561D01*
X95689Y119629D01*
X95763Y119694D01*
X95839Y119756D01*
X95918Y119815D01*
X95999Y119870D01*
X96081Y119923D01*
X96167Y119972D01*
X96253Y120018D01*
X96342Y120060D01*
X96432Y120098D01*
X96524Y120134D01*
X96617Y120165D01*
X96711Y120193D01*
X96806Y120216D01*
X96903Y120236D01*
X96999Y120253D01*
X97097Y120265D01*
X97195Y120274D01*
X97293Y120278D01*
X97391Y120279D01*
X97489Y120276D01*
X97587Y120268D01*
X97684Y120257D01*
X97782Y120243D01*
X97878Y120224D01*
X97973Y120201D01*
X98068Y120175D01*
X98161Y120145D01*
X98254Y120111D01*
X98344Y120074D01*
X98434Y120033D01*
X98521Y119988D01*
X98607Y119940D01*
X98691Y119889D01*
X98772Y119835D01*
X98852Y119777D01*
X98929Y119716D01*
X99003Y119652D01*
X99075Y119585D01*
X99144Y119516D01*
X99211Y119443D01*
X99274Y119368D01*
X99335Y119291D01*
X99392Y119211D01*
X99446Y119129D01*
X99497Y119045D01*
X99544Y118959D01*
X99588Y118872D01*
X99629Y118782D01*
X99665Y118691D01*
X99699Y118599D01*
X99728Y118505D01*
X99754Y118410D01*
X99776Y118315D01*
X99794Y118218D01*
X99808Y118121D01*
X99819Y118023D01*
X99825Y117925D01*
X99828Y117827D01*
X103776Y118348D02*
X103797Y115385D01*
X103777Y118349D02*
X103774Y118436D01*
X103768Y118523D01*
X103758Y118610D01*
X103744Y118696D01*
X103726Y118782D01*
X103704Y118867D01*
X103679Y118950D01*
X103650Y119033D01*
X103617Y119114D01*
X103581Y119194D01*
X103541Y119271D01*
X103498Y119347D01*
X103451Y119422D01*
X103402Y119493D01*
X103349Y119563D01*
X103293Y119630D01*
X103234Y119695D01*
X103173Y119757D01*
X103109Y119817D01*
X103042Y119873D01*
X102973Y119926D01*
X102901Y119977D01*
X102827Y120024D01*
X102752Y120067D01*
X102674Y120108D01*
X102595Y120145D01*
X102514Y120178D01*
X102432Y120208D01*
X102348Y120234D01*
X102264Y120256D01*
X102178Y120275D01*
X102092Y120289D01*
X102005Y120300D01*
X101918Y120308D01*
X101831Y120311D01*
X101744Y120310D01*
X101656Y120306D01*
X101569Y120297D01*
X101483Y120285D01*
X101397Y120269D01*
X101311Y120249D01*
X101227Y120226D01*
X101144Y120199D01*
X101062Y120168D01*
X100982Y120133D01*
X100903Y120095D01*
X100826Y120054D01*
X100751Y120009D01*
X100678Y119961D01*
X100607Y119910D01*
X100539Y119855D01*
X100473Y119798D01*
X100409Y119738D01*
X100349Y119675D01*
X100291Y119609D01*
X100236Y119541D01*
X100184Y119471D01*
X100136Y119398D01*
X100090Y119324D01*
X100048Y119247D01*
X100009Y119169D01*
X99974Y119089D01*
X99943Y119007D01*
X99915Y118924D01*
X99891Y118840D01*
X99870Y118755D01*
X99853Y118669D01*
X99841Y118583D01*
X99832Y118496D01*
X99826Y118409D01*
X99825Y118321D01*
X99839Y116345D01*
X103737Y124035D02*
X94826Y126936D01*
X103695Y129962D01*
X94780Y133611D02*
X94762Y136080D01*
X94763Y136080D02*
X94764Y136178D01*
X94769Y136276D01*
X94779Y136374D01*
X94792Y136471D01*
X94808Y136568D01*
X94829Y136664D01*
X94853Y136759D01*
X94882Y136853D01*
X94913Y136946D01*
X94949Y137037D01*
X94988Y137127D01*
X95031Y137216D01*
X95077Y137302D01*
X95127Y137387D01*
X95180Y137470D01*
X95236Y137550D01*
X95295Y137628D01*
X95358Y137704D01*
X95423Y137777D01*
X95491Y137848D01*
X95562Y137916D01*
X95636Y137981D01*
X95712Y138043D01*
X95791Y138102D01*
X95872Y138157D01*
X95954Y138210D01*
X96040Y138259D01*
X96126Y138305D01*
X96215Y138347D01*
X96305Y138385D01*
X96397Y138421D01*
X96490Y138452D01*
X96584Y138480D01*
X96679Y138503D01*
X96776Y138523D01*
X96872Y138540D01*
X96970Y138552D01*
X97068Y138561D01*
X97166Y138565D01*
X97264Y138566D01*
X97362Y138563D01*
X97460Y138555D01*
X97557Y138544D01*
X97655Y138530D01*
X97751Y138511D01*
X97846Y138488D01*
X97941Y138462D01*
X98034Y138432D01*
X98127Y138398D01*
X98217Y138361D01*
X98307Y138320D01*
X98394Y138275D01*
X98480Y138227D01*
X98564Y138176D01*
X98645Y138122D01*
X98725Y138064D01*
X98802Y138003D01*
X98876Y137939D01*
X98948Y137872D01*
X99017Y137803D01*
X99084Y137730D01*
X99147Y137655D01*
X99208Y137578D01*
X99265Y137498D01*
X99319Y137416D01*
X99370Y137332D01*
X99417Y137246D01*
X99461Y137159D01*
X99502Y137069D01*
X99538Y136978D01*
X99572Y136886D01*
X99601Y136792D01*
X99627Y136697D01*
X99649Y136602D01*
X99667Y136505D01*
X99681Y136408D01*
X99692Y136310D01*
X99698Y136212D01*
X99701Y136114D01*
X103649Y136636D02*
X103669Y133673D01*
X103649Y136636D02*
X103646Y136723D01*
X103640Y136810D01*
X103630Y136897D01*
X103616Y136983D01*
X103598Y137069D01*
X103576Y137154D01*
X103551Y137237D01*
X103522Y137320D01*
X103489Y137401D01*
X103453Y137481D01*
X103413Y137558D01*
X103370Y137634D01*
X103323Y137709D01*
X103274Y137780D01*
X103221Y137850D01*
X103165Y137917D01*
X103106Y137982D01*
X103045Y138044D01*
X102981Y138104D01*
X102914Y138160D01*
X102845Y138213D01*
X102773Y138264D01*
X102699Y138311D01*
X102624Y138354D01*
X102546Y138395D01*
X102467Y138432D01*
X102386Y138465D01*
X102304Y138495D01*
X102220Y138521D01*
X102136Y138543D01*
X102050Y138562D01*
X101964Y138576D01*
X101877Y138587D01*
X101790Y138595D01*
X101703Y138598D01*
X101616Y138597D01*
X101528Y138593D01*
X101441Y138584D01*
X101355Y138572D01*
X101269Y138556D01*
X101183Y138536D01*
X101099Y138513D01*
X101016Y138486D01*
X100934Y138455D01*
X100854Y138420D01*
X100775Y138382D01*
X100698Y138341D01*
X100623Y138296D01*
X100550Y138248D01*
X100479Y138197D01*
X100411Y138142D01*
X100345Y138085D01*
X100281Y138025D01*
X100221Y137962D01*
X100163Y137896D01*
X100108Y137828D01*
X100056Y137758D01*
X100008Y137685D01*
X99962Y137611D01*
X99920Y137534D01*
X99881Y137456D01*
X99846Y137376D01*
X99815Y137294D01*
X99787Y137211D01*
X99763Y137127D01*
X99742Y137042D01*
X99725Y136956D01*
X99713Y136870D01*
X99704Y136783D01*
X99698Y136696D01*
X99697Y136608D01*
X99698Y136608D02*
X99712Y134633D01*
X112520Y119077D02*
X112530Y117596D01*
X112520Y119077D02*
X107581Y119043D01*
X107602Y116079D01*
X107601Y116079D02*
X107604Y115993D01*
X107610Y115907D01*
X107620Y115821D01*
X107633Y115736D01*
X107651Y115652D01*
X107672Y115568D01*
X107697Y115486D01*
X107725Y115404D01*
X107757Y115324D01*
X107792Y115245D01*
X107831Y115168D01*
X107873Y115093D01*
X107918Y115020D01*
X107966Y114948D01*
X108018Y114879D01*
X108072Y114812D01*
X108129Y114748D01*
X108190Y114686D01*
X108252Y114627D01*
X108317Y114570D01*
X108385Y114517D01*
X108455Y114466D01*
X108527Y114419D01*
X108601Y114375D01*
X108677Y114334D01*
X108754Y114296D01*
X108834Y114262D01*
X108914Y114231D01*
X108996Y114204D01*
X109079Y114181D01*
X109163Y114161D01*
X109247Y114145D01*
X109333Y114132D01*
X109419Y114123D01*
X109505Y114118D01*
X109591Y114117D01*
X109591Y114118D02*
X114530Y114152D01*
X114616Y114155D01*
X114702Y114161D01*
X114788Y114171D01*
X114873Y114184D01*
X114957Y114202D01*
X115041Y114223D01*
X115123Y114248D01*
X115205Y114276D01*
X115285Y114308D01*
X115364Y114343D01*
X115441Y114382D01*
X115516Y114424D01*
X115589Y114469D01*
X115661Y114517D01*
X115730Y114569D01*
X115797Y114623D01*
X115861Y114680D01*
X115923Y114741D01*
X115982Y114803D01*
X116039Y114868D01*
X116092Y114936D01*
X116143Y115006D01*
X116190Y115078D01*
X116234Y115152D01*
X116275Y115228D01*
X116313Y115305D01*
X116347Y115385D01*
X116378Y115465D01*
X116405Y115547D01*
X116428Y115630D01*
X116448Y115714D01*
X116464Y115798D01*
X116477Y115884D01*
X116486Y115970D01*
X116491Y116056D01*
X116492Y116142D01*
X116471Y119105D01*
X116438Y123919D02*
X107548Y123857D01*
X107513Y128796D02*
X116438Y123919D01*
X116403Y128858D02*
X107513Y128796D01*
X107480Y133611D02*
X116369Y133673D01*
X116352Y136142D01*
X116349Y136239D01*
X116343Y136336D01*
X116333Y136432D01*
X116319Y136528D01*
X116301Y136624D01*
X116280Y136718D01*
X116255Y136812D01*
X116226Y136904D01*
X116193Y136996D01*
X116157Y137086D01*
X116118Y137174D01*
X116075Y137261D01*
X116029Y137346D01*
X115979Y137430D01*
X115926Y137511D01*
X115870Y137590D01*
X115811Y137667D01*
X115749Y137742D01*
X115684Y137814D01*
X115617Y137883D01*
X115546Y137950D01*
X115473Y138014D01*
X115398Y138075D01*
X115320Y138133D01*
X115240Y138187D01*
X115158Y138239D01*
X115074Y138288D01*
X114989Y138333D01*
X114901Y138374D01*
X114812Y138413D01*
X114721Y138447D01*
X114630Y138478D01*
X114537Y138506D01*
X114443Y138530D01*
X114348Y138550D01*
X114252Y138566D01*
X114156Y138579D01*
X114060Y138588D01*
X113963Y138593D01*
X113866Y138594D01*
X109915Y138567D01*
X109915Y138566D02*
X109818Y138563D01*
X109721Y138557D01*
X109625Y138547D01*
X109529Y138533D01*
X109433Y138515D01*
X109339Y138494D01*
X109245Y138469D01*
X109153Y138440D01*
X109061Y138407D01*
X108971Y138371D01*
X108883Y138332D01*
X108796Y138289D01*
X108711Y138243D01*
X108627Y138193D01*
X108546Y138140D01*
X108467Y138084D01*
X108390Y138025D01*
X108315Y137963D01*
X108243Y137898D01*
X108174Y137831D01*
X108107Y137760D01*
X108043Y137687D01*
X107982Y137612D01*
X107924Y137534D01*
X107870Y137454D01*
X107818Y137372D01*
X107769Y137288D01*
X107724Y137203D01*
X107683Y137115D01*
X107644Y137026D01*
X107610Y136935D01*
X107579Y136844D01*
X107551Y136751D01*
X107527Y136657D01*
X107507Y136562D01*
X107491Y136466D01*
X107478Y136370D01*
X107469Y136274D01*
X107464Y136177D01*
X107463Y136080D01*
X107462Y136080D02*
X107480Y133611D01*
X171295Y123754D02*
X171357Y114864D01*
X173764Y123771D02*
X168825Y123737D01*
X163351Y114808D02*
X161375Y114794D01*
X163351Y114808D02*
X163437Y114811D01*
X163523Y114817D01*
X163609Y114827D01*
X163694Y114840D01*
X163778Y114858D01*
X163862Y114879D01*
X163944Y114904D01*
X164026Y114932D01*
X164106Y114964D01*
X164185Y114999D01*
X164262Y115038D01*
X164337Y115080D01*
X164410Y115125D01*
X164482Y115173D01*
X164551Y115225D01*
X164618Y115279D01*
X164682Y115337D01*
X164744Y115397D01*
X164803Y115459D01*
X164860Y115524D01*
X164913Y115592D01*
X164964Y115662D01*
X165011Y115734D01*
X165055Y115808D01*
X165096Y115884D01*
X165134Y115961D01*
X165168Y116041D01*
X165199Y116121D01*
X165226Y116203D01*
X165249Y116286D01*
X165269Y116370D01*
X165285Y116455D01*
X165298Y116540D01*
X165307Y116626D01*
X165312Y116712D01*
X165313Y116798D01*
X165312Y116798D02*
X165278Y121736D01*
X165278Y121737D02*
X165275Y121823D01*
X165269Y121909D01*
X165259Y121995D01*
X165246Y122080D01*
X165228Y122164D01*
X165207Y122248D01*
X165182Y122330D01*
X165154Y122412D01*
X165122Y122492D01*
X165087Y122571D01*
X165048Y122648D01*
X165006Y122723D01*
X164961Y122796D01*
X164913Y122868D01*
X164861Y122937D01*
X164807Y123004D01*
X164750Y123068D01*
X164689Y123130D01*
X164627Y123189D01*
X164562Y123246D01*
X164494Y123299D01*
X164424Y123350D01*
X164352Y123397D01*
X164278Y123441D01*
X164202Y123482D01*
X164125Y123520D01*
X164045Y123554D01*
X163965Y123585D01*
X163883Y123612D01*
X163800Y123635D01*
X163716Y123655D01*
X163632Y123671D01*
X163546Y123684D01*
X163460Y123693D01*
X163374Y123698D01*
X163288Y123699D01*
X163288Y123698D02*
X161313Y123684D01*
X157132Y123655D02*
X157194Y114765D01*
X157170Y118222D02*
X152193Y123621D01*
X155180Y120184D02*
X152255Y114731D01*
X171295Y111054D02*
X171357Y102164D01*
X173764Y111071D02*
X168825Y111037D01*
X164925Y111010D02*
X164987Y102120D01*
X164925Y111010D02*
X162456Y110992D01*
X162359Y110989D01*
X162262Y110983D01*
X162166Y110973D01*
X162070Y110959D01*
X161974Y110941D01*
X161880Y110920D01*
X161786Y110895D01*
X161694Y110866D01*
X161602Y110833D01*
X161512Y110797D01*
X161424Y110758D01*
X161337Y110715D01*
X161252Y110669D01*
X161168Y110619D01*
X161087Y110566D01*
X161008Y110510D01*
X160931Y110451D01*
X160856Y110389D01*
X160784Y110324D01*
X160715Y110257D01*
X160648Y110186D01*
X160584Y110113D01*
X160523Y110038D01*
X160465Y109960D01*
X160411Y109880D01*
X160359Y109798D01*
X160310Y109714D01*
X160265Y109629D01*
X160224Y109541D01*
X160185Y109452D01*
X160151Y109361D01*
X160120Y109270D01*
X160092Y109177D01*
X160068Y109083D01*
X160048Y108988D01*
X160032Y108892D01*
X160019Y108796D01*
X160010Y108700D01*
X160005Y108603D01*
X160004Y108506D01*
X160031Y104555D01*
X160032Y104555D02*
X160035Y104458D01*
X160041Y104361D01*
X160051Y104265D01*
X160065Y104169D01*
X160083Y104073D01*
X160104Y103979D01*
X160129Y103885D01*
X160158Y103793D01*
X160191Y103701D01*
X160227Y103611D01*
X160266Y103523D01*
X160309Y103436D01*
X160355Y103351D01*
X160405Y103267D01*
X160458Y103186D01*
X160514Y103107D01*
X160573Y103030D01*
X160635Y102955D01*
X160700Y102883D01*
X160767Y102814D01*
X160838Y102747D01*
X160911Y102683D01*
X160986Y102622D01*
X161064Y102564D01*
X161144Y102510D01*
X161226Y102458D01*
X161310Y102409D01*
X161395Y102364D01*
X161483Y102323D01*
X161572Y102284D01*
X161663Y102250D01*
X161754Y102219D01*
X161847Y102191D01*
X161941Y102167D01*
X162036Y102147D01*
X162132Y102131D01*
X162228Y102118D01*
X162324Y102109D01*
X162421Y102104D01*
X162518Y102103D01*
X162518Y102102D02*
X164987Y102120D01*
X155521Y104523D02*
X155494Y108474D01*
X155493Y108474D02*
X155490Y108572D01*
X155484Y108670D01*
X155473Y108768D01*
X155459Y108865D01*
X155441Y108962D01*
X155419Y109057D01*
X155393Y109152D01*
X155364Y109246D01*
X155330Y109338D01*
X155294Y109429D01*
X155253Y109519D01*
X155209Y109606D01*
X155162Y109692D01*
X155111Y109776D01*
X155057Y109858D01*
X155000Y109938D01*
X154939Y110015D01*
X154876Y110090D01*
X154809Y110163D01*
X154740Y110232D01*
X154668Y110299D01*
X154594Y110363D01*
X154517Y110424D01*
X154437Y110482D01*
X154356Y110536D01*
X154272Y110587D01*
X154186Y110635D01*
X154099Y110680D01*
X154009Y110721D01*
X153919Y110758D01*
X153826Y110792D01*
X153733Y110822D01*
X153638Y110848D01*
X153543Y110871D01*
X153447Y110890D01*
X153349Y110904D01*
X153252Y110915D01*
X153154Y110923D01*
X153056Y110926D01*
X152958Y110925D01*
X152860Y110921D01*
X152762Y110912D01*
X152664Y110900D01*
X152568Y110883D01*
X152471Y110863D01*
X152376Y110840D01*
X152282Y110812D01*
X152189Y110781D01*
X152097Y110745D01*
X152007Y110707D01*
X151918Y110665D01*
X151832Y110619D01*
X151746Y110570D01*
X151664Y110517D01*
X151583Y110462D01*
X151504Y110403D01*
X151428Y110341D01*
X151354Y110276D01*
X151283Y110208D01*
X151215Y110137D01*
X151150Y110064D01*
X151087Y109988D01*
X151028Y109910D01*
X150972Y109830D01*
X150919Y109747D01*
X150869Y109662D01*
X150823Y109576D01*
X150780Y109487D01*
X150741Y109397D01*
X150705Y109306D01*
X150674Y109213D01*
X150645Y109119D01*
X150621Y109024D01*
X150600Y108928D01*
X150584Y108831D01*
X150571Y108734D01*
X150561Y108636D01*
X150556Y108538D01*
X150555Y108440D01*
X150583Y104489D01*
X150586Y104391D01*
X150592Y104293D01*
X150603Y104195D01*
X150617Y104098D01*
X150635Y104001D01*
X150657Y103906D01*
X150683Y103811D01*
X150712Y103717D01*
X150746Y103625D01*
X150782Y103534D01*
X150823Y103444D01*
X150867Y103357D01*
X150914Y103271D01*
X150965Y103187D01*
X151019Y103105D01*
X151076Y103025D01*
X151137Y102948D01*
X151200Y102873D01*
X151267Y102800D01*
X151336Y102731D01*
X151408Y102664D01*
X151482Y102600D01*
X151559Y102539D01*
X151639Y102481D01*
X151720Y102427D01*
X151804Y102376D01*
X151890Y102328D01*
X151977Y102283D01*
X152067Y102242D01*
X152157Y102205D01*
X152250Y102171D01*
X152343Y102141D01*
X152438Y102115D01*
X152533Y102092D01*
X152630Y102073D01*
X152727Y102059D01*
X152824Y102048D01*
X152922Y102040D01*
X153020Y102037D01*
X153118Y102038D01*
X153216Y102042D01*
X153314Y102051D01*
X153412Y102063D01*
X153508Y102080D01*
X153605Y102100D01*
X153700Y102123D01*
X153794Y102151D01*
X153887Y102182D01*
X153979Y102218D01*
X154069Y102256D01*
X154158Y102298D01*
X154245Y102344D01*
X154330Y102393D01*
X154413Y102446D01*
X154493Y102501D01*
X154572Y102560D01*
X154648Y102622D01*
X154722Y102687D01*
X154793Y102755D01*
X154861Y102826D01*
X154926Y102899D01*
X154989Y102975D01*
X155048Y103053D01*
X155104Y103133D01*
X155157Y103216D01*
X155207Y103301D01*
X155253Y103387D01*
X155296Y103476D01*
X155335Y103566D01*
X155371Y103657D01*
X155402Y103750D01*
X155431Y103844D01*
X155455Y103939D01*
X155476Y104035D01*
X155493Y104132D01*
X155505Y104229D01*
X155515Y104327D01*
X155520Y104425D01*
X155521Y104523D01*
X171295Y98354D02*
X171357Y89464D01*
X173764Y98371D02*
X168825Y98337D01*
X164925Y98310D02*
X164987Y89420D01*
X164925Y98310D02*
X162456Y98292D01*
X162359Y98289D01*
X162262Y98283D01*
X162166Y98273D01*
X162070Y98259D01*
X161974Y98241D01*
X161880Y98220D01*
X161786Y98195D01*
X161694Y98166D01*
X161602Y98133D01*
X161512Y98097D01*
X161424Y98058D01*
X161337Y98015D01*
X161252Y97969D01*
X161168Y97919D01*
X161087Y97866D01*
X161008Y97810D01*
X160931Y97751D01*
X160856Y97689D01*
X160784Y97624D01*
X160715Y97557D01*
X160648Y97486D01*
X160584Y97413D01*
X160523Y97338D01*
X160465Y97260D01*
X160411Y97180D01*
X160359Y97098D01*
X160310Y97014D01*
X160265Y96929D01*
X160224Y96841D01*
X160185Y96752D01*
X160151Y96661D01*
X160120Y96570D01*
X160092Y96477D01*
X160068Y96383D01*
X160048Y96288D01*
X160032Y96192D01*
X160019Y96096D01*
X160010Y96000D01*
X160005Y95903D01*
X160004Y95806D01*
X160031Y91855D01*
X160032Y91855D02*
X160035Y91758D01*
X160041Y91661D01*
X160051Y91565D01*
X160065Y91469D01*
X160083Y91373D01*
X160104Y91279D01*
X160129Y91185D01*
X160158Y91093D01*
X160191Y91001D01*
X160227Y90911D01*
X160266Y90823D01*
X160309Y90736D01*
X160355Y90651D01*
X160405Y90567D01*
X160458Y90486D01*
X160514Y90407D01*
X160573Y90330D01*
X160635Y90255D01*
X160700Y90183D01*
X160767Y90114D01*
X160838Y90047D01*
X160911Y89983D01*
X160986Y89922D01*
X161064Y89864D01*
X161144Y89810D01*
X161226Y89758D01*
X161310Y89709D01*
X161395Y89664D01*
X161483Y89623D01*
X161572Y89584D01*
X161663Y89550D01*
X161754Y89519D01*
X161847Y89491D01*
X161941Y89467D01*
X162036Y89447D01*
X162132Y89431D01*
X162228Y89418D01*
X162324Y89409D01*
X162421Y89404D01*
X162518Y89403D01*
X162518Y89402D02*
X164987Y89420D01*
X154898Y89349D02*
X154836Y98239D01*
X155886Y89356D02*
X153910Y89342D01*
X153848Y98232D02*
X155824Y98246D01*
X173364Y85671D02*
X173426Y76781D01*
X173364Y85671D02*
X170895Y85654D01*
X170798Y85651D01*
X170701Y85645D01*
X170605Y85635D01*
X170509Y85621D01*
X170413Y85603D01*
X170319Y85582D01*
X170225Y85557D01*
X170133Y85528D01*
X170041Y85495D01*
X169951Y85459D01*
X169863Y85420D01*
X169776Y85377D01*
X169691Y85331D01*
X169607Y85281D01*
X169526Y85228D01*
X169447Y85172D01*
X169370Y85113D01*
X169295Y85051D01*
X169223Y84986D01*
X169154Y84919D01*
X169087Y84848D01*
X169023Y84775D01*
X168962Y84700D01*
X168904Y84622D01*
X168850Y84542D01*
X168798Y84460D01*
X168749Y84376D01*
X168704Y84291D01*
X168663Y84203D01*
X168624Y84114D01*
X168590Y84023D01*
X168559Y83932D01*
X168531Y83839D01*
X168507Y83745D01*
X168487Y83650D01*
X168471Y83554D01*
X168458Y83458D01*
X168449Y83362D01*
X168444Y83265D01*
X168443Y83168D01*
X168442Y83167D02*
X168470Y79216D01*
X168470Y79217D02*
X168473Y79120D01*
X168479Y79023D01*
X168489Y78927D01*
X168503Y78831D01*
X168521Y78735D01*
X168542Y78641D01*
X168567Y78547D01*
X168596Y78455D01*
X168629Y78363D01*
X168665Y78273D01*
X168704Y78185D01*
X168747Y78098D01*
X168793Y78013D01*
X168843Y77929D01*
X168896Y77848D01*
X168952Y77769D01*
X169011Y77692D01*
X169073Y77617D01*
X169138Y77545D01*
X169205Y77476D01*
X169276Y77409D01*
X169349Y77345D01*
X169424Y77284D01*
X169502Y77226D01*
X169582Y77172D01*
X169664Y77120D01*
X169748Y77071D01*
X169833Y77026D01*
X169921Y76985D01*
X170010Y76946D01*
X170101Y76912D01*
X170192Y76881D01*
X170285Y76853D01*
X170379Y76829D01*
X170474Y76809D01*
X170570Y76793D01*
X170666Y76780D01*
X170762Y76771D01*
X170859Y76766D01*
X170956Y76765D01*
X170957Y76764D02*
X173426Y76781D01*
X163337Y76711D02*
X163275Y85601D01*
X164325Y76718D02*
X162349Y76704D01*
X162287Y85594D02*
X164263Y85608D01*
X158447Y83097D02*
X158474Y79146D01*
X158446Y83097D02*
X158443Y83195D01*
X158437Y83293D01*
X158426Y83391D01*
X158412Y83488D01*
X158394Y83585D01*
X158372Y83680D01*
X158346Y83775D01*
X158317Y83869D01*
X158283Y83961D01*
X158247Y84052D01*
X158206Y84142D01*
X158162Y84229D01*
X158115Y84315D01*
X158064Y84399D01*
X158010Y84481D01*
X157953Y84561D01*
X157892Y84638D01*
X157829Y84713D01*
X157762Y84786D01*
X157693Y84855D01*
X157621Y84922D01*
X157547Y84986D01*
X157470Y85047D01*
X157390Y85105D01*
X157309Y85159D01*
X157225Y85210D01*
X157139Y85258D01*
X157052Y85303D01*
X156962Y85344D01*
X156872Y85381D01*
X156779Y85415D01*
X156686Y85445D01*
X156591Y85471D01*
X156496Y85494D01*
X156400Y85513D01*
X156302Y85527D01*
X156205Y85538D01*
X156107Y85546D01*
X156009Y85549D01*
X155911Y85548D01*
X155813Y85544D01*
X155715Y85535D01*
X155617Y85523D01*
X155521Y85506D01*
X155424Y85486D01*
X155329Y85463D01*
X155235Y85435D01*
X155142Y85404D01*
X155050Y85368D01*
X154960Y85330D01*
X154871Y85288D01*
X154785Y85242D01*
X154699Y85193D01*
X154617Y85140D01*
X154536Y85085D01*
X154457Y85026D01*
X154381Y84964D01*
X154307Y84899D01*
X154236Y84831D01*
X154168Y84760D01*
X154103Y84687D01*
X154040Y84611D01*
X153981Y84533D01*
X153925Y84453D01*
X153872Y84370D01*
X153822Y84285D01*
X153776Y84199D01*
X153733Y84110D01*
X153694Y84020D01*
X153658Y83929D01*
X153627Y83836D01*
X153598Y83742D01*
X153574Y83647D01*
X153553Y83551D01*
X153537Y83454D01*
X153524Y83357D01*
X153514Y83259D01*
X153509Y83161D01*
X153508Y83063D01*
X153535Y79112D01*
X153536Y79112D02*
X153539Y79014D01*
X153545Y78916D01*
X153556Y78818D01*
X153570Y78721D01*
X153588Y78624D01*
X153610Y78529D01*
X153636Y78434D01*
X153665Y78340D01*
X153699Y78248D01*
X153735Y78157D01*
X153776Y78067D01*
X153820Y77980D01*
X153867Y77894D01*
X153918Y77810D01*
X153972Y77728D01*
X154029Y77648D01*
X154090Y77571D01*
X154153Y77496D01*
X154220Y77423D01*
X154289Y77354D01*
X154361Y77287D01*
X154435Y77223D01*
X154512Y77162D01*
X154592Y77104D01*
X154673Y77050D01*
X154757Y76999D01*
X154843Y76951D01*
X154930Y76906D01*
X155020Y76865D01*
X155110Y76828D01*
X155203Y76794D01*
X155296Y76764D01*
X155391Y76738D01*
X155486Y76715D01*
X155583Y76696D01*
X155680Y76682D01*
X155777Y76671D01*
X155875Y76663D01*
X155973Y76660D01*
X156071Y76661D01*
X156169Y76665D01*
X156267Y76674D01*
X156365Y76686D01*
X156461Y76703D01*
X156558Y76723D01*
X156653Y76746D01*
X156747Y76774D01*
X156840Y76805D01*
X156932Y76841D01*
X157022Y76879D01*
X157111Y76921D01*
X157198Y76967D01*
X157283Y77016D01*
X157366Y77069D01*
X157446Y77124D01*
X157525Y77183D01*
X157601Y77245D01*
X157675Y77310D01*
X157746Y77378D01*
X157814Y77449D01*
X157879Y77522D01*
X157942Y77598D01*
X158001Y77676D01*
X158057Y77756D01*
X158110Y77839D01*
X158160Y77924D01*
X158206Y78010D01*
X158249Y78099D01*
X158288Y78189D01*
X158324Y78280D01*
X158355Y78373D01*
X158384Y78467D01*
X158408Y78562D01*
X158429Y78658D01*
X158446Y78755D01*
X158458Y78852D01*
X158468Y78950D01*
X158473Y79048D01*
X158474Y79146D01*
X149299Y83527D02*
X146816Y85486D01*
X146878Y76596D01*
X144409Y76579D02*
X149348Y76613D01*
X140186Y79019D02*
X140183Y79117D01*
X140177Y79215D01*
X140166Y79313D01*
X140152Y79410D01*
X140134Y79507D01*
X140112Y79602D01*
X140086Y79697D01*
X140057Y79791D01*
X140023Y79883D01*
X139987Y79974D01*
X139946Y80063D01*
X139902Y80151D01*
X139855Y80237D01*
X139804Y80321D01*
X139750Y80403D01*
X139693Y80483D01*
X139632Y80560D01*
X139569Y80635D01*
X139502Y80707D01*
X139433Y80777D01*
X139361Y80844D01*
X139287Y80908D01*
X139210Y80969D01*
X139130Y81027D01*
X139049Y81081D01*
X138965Y81132D01*
X138879Y81180D01*
X138792Y81225D01*
X138702Y81266D01*
X138612Y81303D01*
X138519Y81337D01*
X138426Y81367D01*
X138331Y81393D01*
X138236Y81416D01*
X138140Y81435D01*
X138042Y81449D01*
X137945Y81460D01*
X137847Y81468D01*
X137749Y81471D01*
X137651Y81470D01*
X137553Y81466D01*
X137455Y81457D01*
X137357Y81445D01*
X137261Y81428D01*
X137164Y81408D01*
X137069Y81385D01*
X136975Y81357D01*
X136882Y81326D01*
X136790Y81290D01*
X136700Y81252D01*
X136611Y81210D01*
X136524Y81164D01*
X136439Y81115D01*
X136356Y81062D01*
X136276Y81007D01*
X136197Y80948D01*
X136121Y80886D01*
X136047Y80821D01*
X135976Y80753D01*
X135908Y80682D01*
X135843Y80609D01*
X135780Y80533D01*
X135721Y80455D01*
X135665Y80375D01*
X135612Y80292D01*
X135562Y80207D01*
X135516Y80121D01*
X135473Y80032D01*
X135434Y79942D01*
X135398Y79851D01*
X135367Y79758D01*
X135338Y79664D01*
X135314Y79569D01*
X135293Y79473D01*
X135276Y79376D01*
X135264Y79279D01*
X135254Y79181D01*
X135249Y79083D01*
X135248Y78985D01*
X135251Y78887D01*
X135257Y78789D01*
X135268Y78691D01*
X135282Y78594D01*
X135300Y78497D01*
X135322Y78402D01*
X135348Y78307D01*
X135377Y78213D01*
X135411Y78121D01*
X135447Y78030D01*
X135488Y77940D01*
X135532Y77853D01*
X135579Y77767D01*
X135630Y77683D01*
X135684Y77601D01*
X135741Y77521D01*
X135802Y77444D01*
X135865Y77369D01*
X135932Y77296D01*
X136001Y77227D01*
X136073Y77160D01*
X136147Y77096D01*
X136224Y77035D01*
X136304Y76977D01*
X136385Y76923D01*
X136469Y76872D01*
X136555Y76824D01*
X136642Y76779D01*
X136732Y76738D01*
X136822Y76701D01*
X136915Y76667D01*
X137008Y76637D01*
X137103Y76611D01*
X137198Y76588D01*
X137295Y76569D01*
X137392Y76555D01*
X137489Y76544D01*
X137587Y76536D01*
X137685Y76533D01*
X137783Y76534D01*
X137881Y76538D01*
X137979Y76547D01*
X138077Y76559D01*
X138173Y76576D01*
X138270Y76596D01*
X138365Y76619D01*
X138459Y76647D01*
X138552Y76678D01*
X138644Y76714D01*
X138734Y76752D01*
X138823Y76794D01*
X138909Y76840D01*
X138995Y76889D01*
X139077Y76942D01*
X139158Y76997D01*
X139237Y77056D01*
X139313Y77118D01*
X139387Y77183D01*
X139458Y77251D01*
X139526Y77322D01*
X139591Y77395D01*
X139654Y77471D01*
X139713Y77549D01*
X139769Y77629D01*
X139822Y77712D01*
X139872Y77797D01*
X139918Y77883D01*
X139961Y77972D01*
X140000Y78062D01*
X140036Y78153D01*
X140067Y78246D01*
X140096Y78340D01*
X140120Y78435D01*
X140141Y78531D01*
X140157Y78628D01*
X140170Y78725D01*
X140180Y78823D01*
X140185Y78921D01*
X140186Y79019D01*
X139662Y83460D02*
X139659Y83549D01*
X139653Y83637D01*
X139642Y83725D01*
X139628Y83812D01*
X139609Y83899D01*
X139587Y83985D01*
X139561Y84070D01*
X139531Y84153D01*
X139497Y84235D01*
X139460Y84316D01*
X139419Y84395D01*
X139375Y84471D01*
X139327Y84546D01*
X139276Y84619D01*
X139222Y84689D01*
X139165Y84756D01*
X139105Y84822D01*
X139042Y84884D01*
X138976Y84943D01*
X138907Y84999D01*
X138836Y85053D01*
X138763Y85103D01*
X138688Y85149D01*
X138610Y85193D01*
X138531Y85232D01*
X138450Y85268D01*
X138367Y85301D01*
X138283Y85330D01*
X138198Y85354D01*
X138112Y85375D01*
X138025Y85393D01*
X137938Y85406D01*
X137849Y85415D01*
X137761Y85421D01*
X137672Y85422D01*
X137584Y85419D01*
X137495Y85413D01*
X137407Y85402D01*
X137320Y85388D01*
X137233Y85369D01*
X137147Y85347D01*
X137062Y85321D01*
X136979Y85291D01*
X136897Y85258D01*
X136816Y85220D01*
X136738Y85179D01*
X136661Y85135D01*
X136586Y85087D01*
X136513Y85036D01*
X136443Y84982D01*
X136376Y84925D01*
X136311Y84865D01*
X136248Y84802D01*
X136189Y84736D01*
X136133Y84667D01*
X136079Y84596D01*
X136029Y84523D01*
X135983Y84448D01*
X135939Y84370D01*
X135900Y84291D01*
X135864Y84210D01*
X135831Y84127D01*
X135803Y84044D01*
X135778Y83958D01*
X135757Y83872D01*
X135739Y83785D01*
X135726Y83698D01*
X135717Y83609D01*
X135711Y83521D01*
X135710Y83432D01*
X135713Y83345D01*
X135719Y83258D01*
X135729Y83171D01*
X135743Y83085D01*
X135761Y82999D01*
X135783Y82914D01*
X135808Y82831D01*
X135837Y82748D01*
X135870Y82667D01*
X135906Y82588D01*
X135946Y82510D01*
X135989Y82434D01*
X136036Y82360D01*
X136085Y82288D01*
X136138Y82218D01*
X136194Y82151D01*
X136253Y82086D01*
X136314Y82024D01*
X136378Y81965D01*
X136445Y81908D01*
X136514Y81855D01*
X136586Y81804D01*
X136660Y81757D01*
X136735Y81714D01*
X136813Y81673D01*
X136892Y81636D01*
X136973Y81603D01*
X137055Y81573D01*
X137139Y81547D01*
X137223Y81525D01*
X137309Y81506D01*
X137395Y81492D01*
X137482Y81481D01*
X137569Y81473D01*
X137656Y81470D01*
X137744Y81471D01*
X137831Y81475D01*
X137918Y81484D01*
X138004Y81496D01*
X138090Y81512D01*
X138176Y81532D01*
X138260Y81555D01*
X138343Y81582D01*
X138425Y81613D01*
X138505Y81648D01*
X138584Y81686D01*
X138661Y81727D01*
X138736Y81772D01*
X138809Y81820D01*
X138880Y81871D01*
X138948Y81926D01*
X139014Y81983D01*
X139078Y82043D01*
X139138Y82106D01*
X139196Y82172D01*
X139251Y82240D01*
X139303Y82310D01*
X139351Y82383D01*
X139397Y82457D01*
X139439Y82534D01*
X139478Y82612D01*
X139513Y82693D01*
X139544Y82774D01*
X139572Y82857D01*
X139596Y82941D01*
X139617Y83026D01*
X139634Y83112D01*
X139646Y83198D01*
X139655Y83285D01*
X139661Y83372D01*
X139662Y83460D01*
X173764Y72971D02*
X173826Y64081D01*
X173764Y72971D02*
X171295Y72954D01*
X171198Y72951D01*
X171101Y72945D01*
X171005Y72935D01*
X170909Y72921D01*
X170813Y72903D01*
X170719Y72882D01*
X170625Y72857D01*
X170533Y72828D01*
X170441Y72795D01*
X170351Y72759D01*
X170263Y72720D01*
X170176Y72677D01*
X170091Y72631D01*
X170007Y72581D01*
X169926Y72528D01*
X169847Y72472D01*
X169770Y72413D01*
X169695Y72351D01*
X169623Y72286D01*
X169554Y72219D01*
X169487Y72148D01*
X169423Y72075D01*
X169362Y72000D01*
X169304Y71922D01*
X169250Y71842D01*
X169198Y71760D01*
X169149Y71676D01*
X169104Y71591D01*
X169063Y71503D01*
X169024Y71414D01*
X168990Y71323D01*
X168959Y71232D01*
X168931Y71139D01*
X168907Y71045D01*
X168887Y70950D01*
X168871Y70854D01*
X168858Y70758D01*
X168849Y70662D01*
X168844Y70565D01*
X168843Y70468D01*
X168842Y70467D02*
X168870Y66516D01*
X168870Y66517D02*
X168873Y66420D01*
X168879Y66323D01*
X168889Y66227D01*
X168903Y66131D01*
X168921Y66035D01*
X168942Y65941D01*
X168967Y65847D01*
X168996Y65755D01*
X169029Y65663D01*
X169065Y65573D01*
X169104Y65485D01*
X169147Y65398D01*
X169193Y65313D01*
X169243Y65229D01*
X169296Y65148D01*
X169352Y65069D01*
X169411Y64992D01*
X169473Y64917D01*
X169538Y64845D01*
X169605Y64776D01*
X169676Y64709D01*
X169749Y64645D01*
X169824Y64584D01*
X169902Y64526D01*
X169982Y64472D01*
X170064Y64420D01*
X170148Y64371D01*
X170233Y64326D01*
X170321Y64285D01*
X170410Y64246D01*
X170501Y64212D01*
X170592Y64181D01*
X170685Y64153D01*
X170779Y64129D01*
X170874Y64109D01*
X170970Y64093D01*
X171066Y64080D01*
X171162Y64071D01*
X171259Y64066D01*
X171356Y64065D01*
X171357Y64064D02*
X173826Y64081D01*
X163737Y64011D02*
X163675Y72901D01*
X164725Y64018D02*
X162749Y64004D01*
X162687Y72894D02*
X164663Y72908D01*
X158847Y70397D02*
X158874Y66446D01*
X158846Y70397D02*
X158843Y70495D01*
X158837Y70593D01*
X158826Y70691D01*
X158812Y70788D01*
X158794Y70885D01*
X158772Y70980D01*
X158746Y71075D01*
X158717Y71169D01*
X158683Y71261D01*
X158647Y71352D01*
X158606Y71442D01*
X158562Y71529D01*
X158515Y71615D01*
X158464Y71699D01*
X158410Y71781D01*
X158353Y71861D01*
X158292Y71938D01*
X158229Y72013D01*
X158162Y72086D01*
X158093Y72155D01*
X158021Y72222D01*
X157947Y72286D01*
X157870Y72347D01*
X157790Y72405D01*
X157709Y72459D01*
X157625Y72510D01*
X157539Y72558D01*
X157452Y72603D01*
X157362Y72644D01*
X157272Y72681D01*
X157179Y72715D01*
X157086Y72745D01*
X156991Y72771D01*
X156896Y72794D01*
X156800Y72813D01*
X156702Y72827D01*
X156605Y72838D01*
X156507Y72846D01*
X156409Y72849D01*
X156311Y72848D01*
X156213Y72844D01*
X156115Y72835D01*
X156017Y72823D01*
X155921Y72806D01*
X155824Y72786D01*
X155729Y72763D01*
X155635Y72735D01*
X155542Y72704D01*
X155450Y72668D01*
X155360Y72630D01*
X155271Y72588D01*
X155185Y72542D01*
X155099Y72493D01*
X155017Y72440D01*
X154936Y72385D01*
X154857Y72326D01*
X154781Y72264D01*
X154707Y72199D01*
X154636Y72131D01*
X154568Y72060D01*
X154503Y71987D01*
X154440Y71911D01*
X154381Y71833D01*
X154325Y71753D01*
X154272Y71670D01*
X154222Y71585D01*
X154176Y71499D01*
X154133Y71410D01*
X154094Y71320D01*
X154058Y71229D01*
X154027Y71136D01*
X153998Y71042D01*
X153974Y70947D01*
X153953Y70851D01*
X153937Y70754D01*
X153924Y70657D01*
X153914Y70559D01*
X153909Y70461D01*
X153908Y70363D01*
X153935Y66412D01*
X153936Y66412D02*
X153939Y66314D01*
X153945Y66216D01*
X153956Y66118D01*
X153970Y66021D01*
X153988Y65924D01*
X154010Y65829D01*
X154036Y65734D01*
X154065Y65640D01*
X154099Y65548D01*
X154135Y65457D01*
X154176Y65367D01*
X154220Y65280D01*
X154267Y65194D01*
X154318Y65110D01*
X154372Y65028D01*
X154429Y64948D01*
X154490Y64871D01*
X154553Y64796D01*
X154620Y64723D01*
X154689Y64654D01*
X154761Y64587D01*
X154835Y64523D01*
X154912Y64462D01*
X154992Y64404D01*
X155073Y64350D01*
X155157Y64299D01*
X155243Y64251D01*
X155330Y64206D01*
X155420Y64165D01*
X155510Y64128D01*
X155603Y64094D01*
X155696Y64064D01*
X155791Y64038D01*
X155886Y64015D01*
X155983Y63996D01*
X156080Y63982D01*
X156177Y63971D01*
X156275Y63963D01*
X156373Y63960D01*
X156471Y63961D01*
X156569Y63965D01*
X156667Y63974D01*
X156765Y63986D01*
X156861Y64003D01*
X156958Y64023D01*
X157053Y64046D01*
X157147Y64074D01*
X157240Y64105D01*
X157332Y64141D01*
X157422Y64179D01*
X157511Y64221D01*
X157598Y64267D01*
X157683Y64316D01*
X157766Y64369D01*
X157846Y64424D01*
X157925Y64483D01*
X158001Y64545D01*
X158075Y64610D01*
X158146Y64678D01*
X158214Y64749D01*
X158279Y64822D01*
X158342Y64898D01*
X158401Y64976D01*
X158457Y65056D01*
X158510Y65139D01*
X158560Y65224D01*
X158606Y65310D01*
X158649Y65399D01*
X158688Y65489D01*
X158724Y65580D01*
X158755Y65673D01*
X158784Y65767D01*
X158808Y65862D01*
X158829Y65958D01*
X158846Y66055D01*
X158858Y66152D01*
X158868Y66250D01*
X158873Y66348D01*
X158874Y66446D01*
X149699Y70827D02*
X147216Y72786D01*
X147278Y63896D01*
X144809Y63879D02*
X149748Y63913D01*
X138601Y67787D02*
X135638Y67766D01*
X138601Y67786D02*
X138687Y67789D01*
X138773Y67795D01*
X138859Y67805D01*
X138944Y67818D01*
X139028Y67836D01*
X139112Y67857D01*
X139194Y67882D01*
X139276Y67910D01*
X139356Y67942D01*
X139435Y67977D01*
X139512Y68016D01*
X139587Y68058D01*
X139660Y68103D01*
X139732Y68151D01*
X139801Y68203D01*
X139868Y68257D01*
X139932Y68315D01*
X139994Y68375D01*
X140053Y68437D01*
X140110Y68502D01*
X140163Y68570D01*
X140214Y68640D01*
X140261Y68712D01*
X140305Y68786D01*
X140346Y68862D01*
X140384Y68939D01*
X140418Y69019D01*
X140449Y69099D01*
X140476Y69181D01*
X140499Y69264D01*
X140519Y69348D01*
X140535Y69433D01*
X140548Y69518D01*
X140557Y69604D01*
X140562Y69690D01*
X140563Y69776D01*
X140562Y69776D02*
X140559Y70270D01*
X140556Y70368D01*
X140550Y70466D01*
X140539Y70564D01*
X140525Y70661D01*
X140507Y70758D01*
X140485Y70853D01*
X140459Y70948D01*
X140430Y71042D01*
X140396Y71134D01*
X140360Y71225D01*
X140319Y71314D01*
X140275Y71402D01*
X140228Y71488D01*
X140177Y71572D01*
X140123Y71654D01*
X140066Y71734D01*
X140005Y71811D01*
X139942Y71886D01*
X139875Y71958D01*
X139806Y72028D01*
X139734Y72095D01*
X139660Y72159D01*
X139583Y72220D01*
X139503Y72278D01*
X139422Y72332D01*
X139338Y72383D01*
X139252Y72431D01*
X139165Y72476D01*
X139075Y72517D01*
X138985Y72554D01*
X138893Y72588D01*
X138799Y72618D01*
X138704Y72644D01*
X138609Y72667D01*
X138513Y72686D01*
X138415Y72700D01*
X138318Y72711D01*
X138220Y72719D01*
X138122Y72722D01*
X138024Y72721D01*
X137926Y72717D01*
X137828Y72708D01*
X137730Y72696D01*
X137634Y72679D01*
X137537Y72659D01*
X137442Y72636D01*
X137348Y72608D01*
X137255Y72577D01*
X137163Y72541D01*
X137073Y72503D01*
X136984Y72461D01*
X136897Y72415D01*
X136812Y72366D01*
X136729Y72313D01*
X136649Y72258D01*
X136570Y72199D01*
X136494Y72137D01*
X136420Y72072D01*
X136349Y72004D01*
X136281Y71933D01*
X136216Y71860D01*
X136153Y71784D01*
X136094Y71706D01*
X136038Y71626D01*
X135985Y71543D01*
X135935Y71458D01*
X135889Y71372D01*
X135846Y71283D01*
X135807Y71193D01*
X135771Y71102D01*
X135740Y71009D01*
X135711Y70915D01*
X135687Y70820D01*
X135666Y70724D01*
X135649Y70627D01*
X135637Y70530D01*
X135627Y70432D01*
X135622Y70334D01*
X135621Y70236D01*
X135620Y70235D02*
X135638Y67766D01*
X135638Y67765D02*
X135641Y67641D01*
X135648Y67517D01*
X135658Y67394D01*
X135673Y67270D01*
X135691Y67148D01*
X135713Y67026D01*
X135739Y66904D01*
X135769Y66784D01*
X135803Y66664D01*
X135840Y66546D01*
X135881Y66429D01*
X135926Y66313D01*
X135974Y66199D01*
X136026Y66086D01*
X136081Y65975D01*
X136140Y65865D01*
X136202Y65758D01*
X136268Y65653D01*
X136337Y65549D01*
X136409Y65448D01*
X136484Y65350D01*
X136562Y65253D01*
X136644Y65160D01*
X136728Y65068D01*
X136815Y64980D01*
X136905Y64894D01*
X136997Y64811D01*
X137092Y64731D01*
X137189Y64654D01*
X137289Y64580D01*
X137391Y64510D01*
X137495Y64442D01*
X137602Y64378D01*
X137710Y64318D01*
X137820Y64260D01*
X137932Y64206D01*
X138045Y64156D01*
X138160Y64109D01*
X138277Y64066D01*
X138394Y64027D01*
X138513Y63991D01*
X138633Y63959D01*
X138754Y63931D01*
X138876Y63907D01*
X138998Y63886D01*
X139121Y63870D01*
X139245Y63857D01*
X139368Y63848D01*
X139492Y63843D01*
X139617Y63842D01*
X173764Y60271D02*
X173826Y51381D01*
X173764Y60271D02*
X171295Y60254D01*
X171198Y60251D01*
X171101Y60245D01*
X171005Y60235D01*
X170909Y60221D01*
X170813Y60203D01*
X170719Y60182D01*
X170625Y60157D01*
X170533Y60128D01*
X170441Y60095D01*
X170351Y60059D01*
X170263Y60020D01*
X170176Y59977D01*
X170091Y59931D01*
X170007Y59881D01*
X169926Y59828D01*
X169847Y59772D01*
X169770Y59713D01*
X169695Y59651D01*
X169623Y59586D01*
X169554Y59519D01*
X169487Y59448D01*
X169423Y59375D01*
X169362Y59300D01*
X169304Y59222D01*
X169250Y59142D01*
X169198Y59060D01*
X169149Y58976D01*
X169104Y58891D01*
X169063Y58803D01*
X169024Y58714D01*
X168990Y58623D01*
X168959Y58532D01*
X168931Y58439D01*
X168907Y58345D01*
X168887Y58250D01*
X168871Y58154D01*
X168858Y58058D01*
X168849Y57962D01*
X168844Y57865D01*
X168843Y57768D01*
X168842Y57767D02*
X168870Y53816D01*
X168870Y53817D02*
X168873Y53720D01*
X168879Y53623D01*
X168889Y53527D01*
X168903Y53431D01*
X168921Y53335D01*
X168942Y53241D01*
X168967Y53147D01*
X168996Y53055D01*
X169029Y52963D01*
X169065Y52873D01*
X169104Y52785D01*
X169147Y52698D01*
X169193Y52613D01*
X169243Y52529D01*
X169296Y52448D01*
X169352Y52369D01*
X169411Y52292D01*
X169473Y52217D01*
X169538Y52145D01*
X169605Y52076D01*
X169676Y52009D01*
X169749Y51945D01*
X169824Y51884D01*
X169902Y51826D01*
X169982Y51772D01*
X170064Y51720D01*
X170148Y51671D01*
X170233Y51626D01*
X170321Y51585D01*
X170410Y51546D01*
X170501Y51512D01*
X170592Y51481D01*
X170685Y51453D01*
X170779Y51429D01*
X170874Y51409D01*
X170970Y51393D01*
X171066Y51380D01*
X171162Y51371D01*
X171259Y51366D01*
X171356Y51365D01*
X171357Y51364D02*
X173826Y51381D01*
X163737Y51311D02*
X163675Y60201D01*
X164725Y51318D02*
X162749Y51304D01*
X162687Y60194D02*
X164663Y60208D01*
X158847Y57697D02*
X158874Y53746D01*
X158846Y57697D02*
X158843Y57795D01*
X158837Y57893D01*
X158826Y57991D01*
X158812Y58088D01*
X158794Y58185D01*
X158772Y58280D01*
X158746Y58375D01*
X158717Y58469D01*
X158683Y58561D01*
X158647Y58652D01*
X158606Y58742D01*
X158562Y58829D01*
X158515Y58915D01*
X158464Y58999D01*
X158410Y59081D01*
X158353Y59161D01*
X158292Y59238D01*
X158229Y59313D01*
X158162Y59386D01*
X158093Y59455D01*
X158021Y59522D01*
X157947Y59586D01*
X157870Y59647D01*
X157790Y59705D01*
X157709Y59759D01*
X157625Y59810D01*
X157539Y59858D01*
X157452Y59903D01*
X157362Y59944D01*
X157272Y59981D01*
X157179Y60015D01*
X157086Y60045D01*
X156991Y60071D01*
X156896Y60094D01*
X156800Y60113D01*
X156702Y60127D01*
X156605Y60138D01*
X156507Y60146D01*
X156409Y60149D01*
X156311Y60148D01*
X156213Y60144D01*
X156115Y60135D01*
X156017Y60123D01*
X155921Y60106D01*
X155824Y60086D01*
X155729Y60063D01*
X155635Y60035D01*
X155542Y60004D01*
X155450Y59968D01*
X155360Y59930D01*
X155271Y59888D01*
X155185Y59842D01*
X155099Y59793D01*
X155017Y59740D01*
X154936Y59685D01*
X154857Y59626D01*
X154781Y59564D01*
X154707Y59499D01*
X154636Y59431D01*
X154568Y59360D01*
X154503Y59287D01*
X154440Y59211D01*
X154381Y59133D01*
X154325Y59053D01*
X154272Y58970D01*
X154222Y58885D01*
X154176Y58799D01*
X154133Y58710D01*
X154094Y58620D01*
X154058Y58529D01*
X154027Y58436D01*
X153998Y58342D01*
X153974Y58247D01*
X153953Y58151D01*
X153937Y58054D01*
X153924Y57957D01*
X153914Y57859D01*
X153909Y57761D01*
X153908Y57663D01*
X153935Y53712D01*
X153936Y53712D02*
X153939Y53614D01*
X153945Y53516D01*
X153956Y53418D01*
X153970Y53321D01*
X153988Y53224D01*
X154010Y53129D01*
X154036Y53034D01*
X154065Y52940D01*
X154099Y52848D01*
X154135Y52757D01*
X154176Y52667D01*
X154220Y52580D01*
X154267Y52494D01*
X154318Y52410D01*
X154372Y52328D01*
X154429Y52248D01*
X154490Y52171D01*
X154553Y52096D01*
X154620Y52023D01*
X154689Y51954D01*
X154761Y51887D01*
X154835Y51823D01*
X154912Y51762D01*
X154992Y51704D01*
X155073Y51650D01*
X155157Y51599D01*
X155243Y51551D01*
X155330Y51506D01*
X155420Y51465D01*
X155510Y51428D01*
X155603Y51394D01*
X155696Y51364D01*
X155791Y51338D01*
X155886Y51315D01*
X155983Y51296D01*
X156080Y51282D01*
X156177Y51271D01*
X156275Y51263D01*
X156373Y51260D01*
X156471Y51261D01*
X156569Y51265D01*
X156667Y51274D01*
X156765Y51286D01*
X156861Y51303D01*
X156958Y51323D01*
X157053Y51346D01*
X157147Y51374D01*
X157240Y51405D01*
X157332Y51441D01*
X157422Y51479D01*
X157511Y51521D01*
X157598Y51567D01*
X157683Y51616D01*
X157766Y51669D01*
X157846Y51724D01*
X157925Y51783D01*
X158001Y51845D01*
X158075Y51910D01*
X158146Y51978D01*
X158214Y52049D01*
X158279Y52122D01*
X158342Y52198D01*
X158401Y52276D01*
X158457Y52356D01*
X158510Y52439D01*
X158560Y52524D01*
X158606Y52610D01*
X158649Y52699D01*
X158688Y52789D01*
X158724Y52880D01*
X158755Y52973D01*
X158784Y53067D01*
X158808Y53162D01*
X158829Y53258D01*
X158846Y53355D01*
X158858Y53452D01*
X158868Y53550D01*
X158873Y53648D01*
X158874Y53746D01*
X146969Y60085D02*
X146878Y60082D01*
X146786Y60076D01*
X146695Y60066D01*
X146604Y60052D01*
X146514Y60034D01*
X146424Y60013D01*
X146336Y59988D01*
X146249Y59959D01*
X146162Y59927D01*
X146078Y59891D01*
X145995Y59852D01*
X145913Y59810D01*
X145834Y59764D01*
X145756Y59714D01*
X145681Y59662D01*
X145607Y59607D01*
X145536Y59548D01*
X145468Y59487D01*
X145402Y59423D01*
X145339Y59356D01*
X145279Y59287D01*
X145221Y59215D01*
X145167Y59141D01*
X145116Y59065D01*
X145067Y58987D01*
X145023Y58906D01*
X144981Y58824D01*
X144943Y58741D01*
X144908Y58656D01*
X144877Y58569D01*
X144850Y58481D01*
X144826Y58393D01*
X144806Y58303D01*
X144790Y58213D01*
X144777Y58122D01*
X144768Y58030D01*
X144763Y57938D01*
X144762Y57847D01*
X146969Y60084D02*
X147075Y60083D01*
X147180Y60078D01*
X147285Y60069D01*
X147390Y60056D01*
X147494Y60039D01*
X147598Y60018D01*
X147701Y59994D01*
X147802Y59966D01*
X147903Y59934D01*
X148002Y59898D01*
X148100Y59859D01*
X148197Y59816D01*
X148292Y59769D01*
X148385Y59719D01*
X148476Y59666D01*
X148565Y59610D01*
X148652Y59550D01*
X148737Y59487D01*
X148819Y59420D01*
X148899Y59351D01*
X148976Y59279D01*
X149050Y59204D01*
X149122Y59127D01*
X149191Y59046D01*
X149257Y58964D01*
X149319Y58879D01*
X149379Y58791D01*
X149435Y58702D01*
X149487Y58611D01*
X149537Y58517D01*
X149583Y58422D01*
X149625Y58325D01*
X149664Y58227D01*
X149699Y58127D01*
X145516Y56123D02*
X145447Y56191D01*
X145380Y56261D01*
X145317Y56334D01*
X145257Y56409D01*
X145199Y56487D01*
X145145Y56567D01*
X145094Y56649D01*
X145047Y56734D01*
X145003Y56820D01*
X144963Y56907D01*
X144926Y56997D01*
X144892Y57087D01*
X144863Y57179D01*
X144837Y57273D01*
X144815Y57367D01*
X144797Y57462D01*
X144783Y57557D01*
X144772Y57653D01*
X144766Y57750D01*
X144763Y57846D01*
X145515Y56123D02*
X149748Y51213D01*
X144809Y51179D01*
X140556Y58064D02*
X138072Y60022D01*
X138134Y51132D01*
X135665Y51115D02*
X140604Y51149D01*
X173764Y47571D02*
X173826Y38681D01*
X173764Y47571D02*
X171295Y47554D01*
X171198Y47551D01*
X171101Y47545D01*
X171005Y47535D01*
X170909Y47521D01*
X170813Y47503D01*
X170719Y47482D01*
X170625Y47457D01*
X170533Y47428D01*
X170441Y47395D01*
X170351Y47359D01*
X170263Y47320D01*
X170176Y47277D01*
X170091Y47231D01*
X170007Y47181D01*
X169926Y47128D01*
X169847Y47072D01*
X169770Y47013D01*
X169695Y46951D01*
X169623Y46886D01*
X169554Y46819D01*
X169487Y46748D01*
X169423Y46675D01*
X169362Y46600D01*
X169304Y46522D01*
X169250Y46442D01*
X169198Y46360D01*
X169149Y46276D01*
X169104Y46191D01*
X169063Y46103D01*
X169024Y46014D01*
X168990Y45923D01*
X168959Y45832D01*
X168931Y45739D01*
X168907Y45645D01*
X168887Y45550D01*
X168871Y45454D01*
X168858Y45358D01*
X168849Y45262D01*
X168844Y45165D01*
X168843Y45068D01*
X168842Y45067D02*
X168870Y41116D01*
X168870Y41117D02*
X168873Y41020D01*
X168879Y40923D01*
X168889Y40827D01*
X168903Y40731D01*
X168921Y40635D01*
X168942Y40541D01*
X168967Y40447D01*
X168996Y40355D01*
X169029Y40263D01*
X169065Y40173D01*
X169104Y40085D01*
X169147Y39998D01*
X169193Y39913D01*
X169243Y39829D01*
X169296Y39748D01*
X169352Y39669D01*
X169411Y39592D01*
X169473Y39517D01*
X169538Y39445D01*
X169605Y39376D01*
X169676Y39309D01*
X169749Y39245D01*
X169824Y39184D01*
X169902Y39126D01*
X169982Y39072D01*
X170064Y39020D01*
X170148Y38971D01*
X170233Y38926D01*
X170321Y38885D01*
X170410Y38846D01*
X170501Y38812D01*
X170592Y38781D01*
X170685Y38753D01*
X170779Y38729D01*
X170874Y38709D01*
X170970Y38693D01*
X171066Y38680D01*
X171162Y38671D01*
X171259Y38666D01*
X171356Y38665D01*
X171357Y38664D02*
X173826Y38681D01*
X163737Y38611D02*
X163675Y47501D01*
X164725Y38618D02*
X162749Y38604D01*
X162687Y47494D02*
X164663Y47508D01*
X158847Y44997D02*
X158874Y41046D01*
X158846Y44997D02*
X158843Y45095D01*
X158837Y45193D01*
X158826Y45291D01*
X158812Y45388D01*
X158794Y45485D01*
X158772Y45580D01*
X158746Y45675D01*
X158717Y45769D01*
X158683Y45861D01*
X158647Y45952D01*
X158606Y46042D01*
X158562Y46129D01*
X158515Y46215D01*
X158464Y46299D01*
X158410Y46381D01*
X158353Y46461D01*
X158292Y46538D01*
X158229Y46613D01*
X158162Y46686D01*
X158093Y46755D01*
X158021Y46822D01*
X157947Y46886D01*
X157870Y46947D01*
X157790Y47005D01*
X157709Y47059D01*
X157625Y47110D01*
X157539Y47158D01*
X157452Y47203D01*
X157362Y47244D01*
X157272Y47281D01*
X157179Y47315D01*
X157086Y47345D01*
X156991Y47371D01*
X156896Y47394D01*
X156800Y47413D01*
X156702Y47427D01*
X156605Y47438D01*
X156507Y47446D01*
X156409Y47449D01*
X156311Y47448D01*
X156213Y47444D01*
X156115Y47435D01*
X156017Y47423D01*
X155921Y47406D01*
X155824Y47386D01*
X155729Y47363D01*
X155635Y47335D01*
X155542Y47304D01*
X155450Y47268D01*
X155360Y47230D01*
X155271Y47188D01*
X155185Y47142D01*
X155099Y47093D01*
X155017Y47040D01*
X154936Y46985D01*
X154857Y46926D01*
X154781Y46864D01*
X154707Y46799D01*
X154636Y46731D01*
X154568Y46660D01*
X154503Y46587D01*
X154440Y46511D01*
X154381Y46433D01*
X154325Y46353D01*
X154272Y46270D01*
X154222Y46185D01*
X154176Y46099D01*
X154133Y46010D01*
X154094Y45920D01*
X154058Y45829D01*
X154027Y45736D01*
X153998Y45642D01*
X153974Y45547D01*
X153953Y45451D01*
X153937Y45354D01*
X153924Y45257D01*
X153914Y45159D01*
X153909Y45061D01*
X153908Y44963D01*
X153935Y41012D01*
X153936Y41012D02*
X153939Y40914D01*
X153945Y40816D01*
X153956Y40718D01*
X153970Y40621D01*
X153988Y40524D01*
X154010Y40429D01*
X154036Y40334D01*
X154065Y40240D01*
X154099Y40148D01*
X154135Y40057D01*
X154176Y39967D01*
X154220Y39880D01*
X154267Y39794D01*
X154318Y39710D01*
X154372Y39628D01*
X154429Y39548D01*
X154490Y39471D01*
X154553Y39396D01*
X154620Y39323D01*
X154689Y39254D01*
X154761Y39187D01*
X154835Y39123D01*
X154912Y39062D01*
X154992Y39004D01*
X155073Y38950D01*
X155157Y38899D01*
X155243Y38851D01*
X155330Y38806D01*
X155420Y38765D01*
X155510Y38728D01*
X155603Y38694D01*
X155696Y38664D01*
X155791Y38638D01*
X155886Y38615D01*
X155983Y38596D01*
X156080Y38582D01*
X156177Y38571D01*
X156275Y38563D01*
X156373Y38560D01*
X156471Y38561D01*
X156569Y38565D01*
X156667Y38574D01*
X156765Y38586D01*
X156861Y38603D01*
X156958Y38623D01*
X157053Y38646D01*
X157147Y38674D01*
X157240Y38705D01*
X157332Y38741D01*
X157422Y38779D01*
X157511Y38821D01*
X157598Y38867D01*
X157683Y38916D01*
X157766Y38969D01*
X157846Y39024D01*
X157925Y39083D01*
X158001Y39145D01*
X158075Y39210D01*
X158146Y39278D01*
X158214Y39349D01*
X158279Y39422D01*
X158342Y39498D01*
X158401Y39576D01*
X158457Y39656D01*
X158510Y39739D01*
X158560Y39824D01*
X158606Y39910D01*
X158649Y39999D01*
X158688Y40089D01*
X158724Y40180D01*
X158755Y40273D01*
X158784Y40367D01*
X158808Y40462D01*
X158829Y40558D01*
X158846Y40655D01*
X158858Y40752D01*
X158868Y40850D01*
X158873Y40948D01*
X158874Y41046D01*
X146969Y47385D02*
X146878Y47382D01*
X146786Y47376D01*
X146695Y47366D01*
X146604Y47352D01*
X146514Y47334D01*
X146424Y47313D01*
X146336Y47288D01*
X146249Y47259D01*
X146162Y47227D01*
X146078Y47191D01*
X145995Y47152D01*
X145913Y47110D01*
X145834Y47064D01*
X145756Y47014D01*
X145681Y46962D01*
X145607Y46907D01*
X145536Y46848D01*
X145468Y46787D01*
X145402Y46723D01*
X145339Y46656D01*
X145279Y46587D01*
X145221Y46515D01*
X145167Y46441D01*
X145116Y46365D01*
X145067Y46287D01*
X145023Y46206D01*
X144981Y46124D01*
X144943Y46041D01*
X144908Y45956D01*
X144877Y45869D01*
X144850Y45781D01*
X144826Y45693D01*
X144806Y45603D01*
X144790Y45513D01*
X144777Y45422D01*
X144768Y45330D01*
X144763Y45238D01*
X144762Y45147D01*
X146969Y47384D02*
X147075Y47383D01*
X147180Y47378D01*
X147285Y47369D01*
X147390Y47356D01*
X147494Y47339D01*
X147598Y47318D01*
X147701Y47294D01*
X147802Y47266D01*
X147903Y47234D01*
X148002Y47198D01*
X148100Y47159D01*
X148197Y47116D01*
X148292Y47069D01*
X148385Y47019D01*
X148476Y46966D01*
X148565Y46910D01*
X148652Y46850D01*
X148737Y46787D01*
X148819Y46720D01*
X148899Y46651D01*
X148976Y46579D01*
X149050Y46504D01*
X149122Y46427D01*
X149191Y46346D01*
X149257Y46264D01*
X149319Y46179D01*
X149379Y46091D01*
X149435Y46002D01*
X149487Y45911D01*
X149537Y45817D01*
X149583Y45722D01*
X149625Y45625D01*
X149664Y45527D01*
X149699Y45427D01*
X145516Y43423D02*
X145447Y43491D01*
X145380Y43561D01*
X145317Y43634D01*
X145257Y43709D01*
X145199Y43787D01*
X145145Y43867D01*
X145094Y43949D01*
X145047Y44034D01*
X145003Y44120D01*
X144963Y44207D01*
X144926Y44297D01*
X144892Y44387D01*
X144863Y44479D01*
X144837Y44573D01*
X144815Y44667D01*
X144797Y44762D01*
X144783Y44857D01*
X144772Y44953D01*
X144766Y45050D01*
X144763Y45146D01*
X145515Y43423D02*
X149748Y38513D01*
X144809Y38479D01*
X137825Y47321D02*
X137734Y47318D01*
X137642Y47312D01*
X137551Y47302D01*
X137460Y47288D01*
X137370Y47270D01*
X137280Y47249D01*
X137192Y47224D01*
X137105Y47195D01*
X137018Y47163D01*
X136934Y47127D01*
X136851Y47088D01*
X136769Y47046D01*
X136690Y47000D01*
X136612Y46950D01*
X136537Y46898D01*
X136463Y46843D01*
X136392Y46784D01*
X136324Y46723D01*
X136258Y46659D01*
X136195Y46592D01*
X136135Y46523D01*
X136077Y46451D01*
X136023Y46377D01*
X135972Y46301D01*
X135923Y46223D01*
X135879Y46142D01*
X135837Y46060D01*
X135799Y45977D01*
X135764Y45892D01*
X135733Y45805D01*
X135706Y45717D01*
X135682Y45629D01*
X135662Y45539D01*
X135646Y45449D01*
X135633Y45358D01*
X135624Y45266D01*
X135619Y45174D01*
X135618Y45083D01*
X137825Y47320D02*
X137931Y47319D01*
X138036Y47314D01*
X138141Y47305D01*
X138246Y47292D01*
X138350Y47275D01*
X138454Y47254D01*
X138557Y47230D01*
X138658Y47202D01*
X138759Y47170D01*
X138858Y47134D01*
X138956Y47095D01*
X139053Y47052D01*
X139148Y47005D01*
X139241Y46955D01*
X139332Y46902D01*
X139421Y46846D01*
X139508Y46786D01*
X139593Y46723D01*
X139675Y46656D01*
X139755Y46587D01*
X139832Y46515D01*
X139906Y46440D01*
X139978Y46363D01*
X140047Y46282D01*
X140113Y46200D01*
X140175Y46115D01*
X140235Y46027D01*
X140291Y45938D01*
X140343Y45847D01*
X140393Y45753D01*
X140439Y45658D01*
X140481Y45561D01*
X140520Y45463D01*
X140555Y45363D01*
X136372Y43359D02*
X136303Y43427D01*
X136236Y43497D01*
X136173Y43570D01*
X136113Y43645D01*
X136055Y43723D01*
X136001Y43803D01*
X135950Y43885D01*
X135903Y43970D01*
X135859Y44056D01*
X135819Y44143D01*
X135782Y44233D01*
X135748Y44323D01*
X135719Y44415D01*
X135693Y44509D01*
X135671Y44603D01*
X135653Y44698D01*
X135639Y44793D01*
X135628Y44889D01*
X135622Y44986D01*
X135619Y45082D01*
X136371Y43359D02*
X140604Y38449D01*
X135665Y38415D01*
X173764Y34871D02*
X173826Y25981D01*
X173764Y34871D02*
X171295Y34854D01*
X171198Y34851D01*
X171101Y34845D01*
X171005Y34835D01*
X170909Y34821D01*
X170813Y34803D01*
X170719Y34782D01*
X170625Y34757D01*
X170533Y34728D01*
X170441Y34695D01*
X170351Y34659D01*
X170263Y34620D01*
X170176Y34577D01*
X170091Y34531D01*
X170007Y34481D01*
X169926Y34428D01*
X169847Y34372D01*
X169770Y34313D01*
X169695Y34251D01*
X169623Y34186D01*
X169554Y34119D01*
X169487Y34048D01*
X169423Y33975D01*
X169362Y33900D01*
X169304Y33822D01*
X169250Y33742D01*
X169198Y33660D01*
X169149Y33576D01*
X169104Y33491D01*
X169063Y33403D01*
X169024Y33314D01*
X168990Y33223D01*
X168959Y33132D01*
X168931Y33039D01*
X168907Y32945D01*
X168887Y32850D01*
X168871Y32754D01*
X168858Y32658D01*
X168849Y32562D01*
X168844Y32465D01*
X168843Y32368D01*
X168842Y32367D02*
X168870Y28416D01*
X168870Y28417D02*
X168873Y28320D01*
X168879Y28223D01*
X168889Y28127D01*
X168903Y28031D01*
X168921Y27935D01*
X168942Y27841D01*
X168967Y27747D01*
X168996Y27655D01*
X169029Y27563D01*
X169065Y27473D01*
X169104Y27385D01*
X169147Y27298D01*
X169193Y27213D01*
X169243Y27129D01*
X169296Y27048D01*
X169352Y26969D01*
X169411Y26892D01*
X169473Y26817D01*
X169538Y26745D01*
X169605Y26676D01*
X169676Y26609D01*
X169749Y26545D01*
X169824Y26484D01*
X169902Y26426D01*
X169982Y26372D01*
X170064Y26320D01*
X170148Y26271D01*
X170233Y26226D01*
X170321Y26185D01*
X170410Y26146D01*
X170501Y26112D01*
X170592Y26081D01*
X170685Y26053D01*
X170779Y26029D01*
X170874Y26009D01*
X170970Y25993D01*
X171066Y25980D01*
X171162Y25971D01*
X171259Y25966D01*
X171356Y25965D01*
X171357Y25964D02*
X173826Y25981D01*
X163737Y25911D02*
X163675Y34801D01*
X164725Y25918D02*
X162749Y25904D01*
X162687Y34794D02*
X164663Y34808D01*
X158847Y32297D02*
X158874Y28346D01*
X158846Y32297D02*
X158843Y32395D01*
X158837Y32493D01*
X158826Y32591D01*
X158812Y32688D01*
X158794Y32785D01*
X158772Y32880D01*
X158746Y32975D01*
X158717Y33069D01*
X158683Y33161D01*
X158647Y33252D01*
X158606Y33342D01*
X158562Y33429D01*
X158515Y33515D01*
X158464Y33599D01*
X158410Y33681D01*
X158353Y33761D01*
X158292Y33838D01*
X158229Y33913D01*
X158162Y33986D01*
X158093Y34055D01*
X158021Y34122D01*
X157947Y34186D01*
X157870Y34247D01*
X157790Y34305D01*
X157709Y34359D01*
X157625Y34410D01*
X157539Y34458D01*
X157452Y34503D01*
X157362Y34544D01*
X157272Y34581D01*
X157179Y34615D01*
X157086Y34645D01*
X156991Y34671D01*
X156896Y34694D01*
X156800Y34713D01*
X156702Y34727D01*
X156605Y34738D01*
X156507Y34746D01*
X156409Y34749D01*
X156311Y34748D01*
X156213Y34744D01*
X156115Y34735D01*
X156017Y34723D01*
X155921Y34706D01*
X155824Y34686D01*
X155729Y34663D01*
X155635Y34635D01*
X155542Y34604D01*
X155450Y34568D01*
X155360Y34530D01*
X155271Y34488D01*
X155185Y34442D01*
X155099Y34393D01*
X155017Y34340D01*
X154936Y34285D01*
X154857Y34226D01*
X154781Y34164D01*
X154707Y34099D01*
X154636Y34031D01*
X154568Y33960D01*
X154503Y33887D01*
X154440Y33811D01*
X154381Y33733D01*
X154325Y33653D01*
X154272Y33570D01*
X154222Y33485D01*
X154176Y33399D01*
X154133Y33310D01*
X154094Y33220D01*
X154058Y33129D01*
X154027Y33036D01*
X153998Y32942D01*
X153974Y32847D01*
X153953Y32751D01*
X153937Y32654D01*
X153924Y32557D01*
X153914Y32459D01*
X153909Y32361D01*
X153908Y32263D01*
X153935Y28312D01*
X153936Y28312D02*
X153939Y28214D01*
X153945Y28116D01*
X153956Y28018D01*
X153970Y27921D01*
X153988Y27824D01*
X154010Y27729D01*
X154036Y27634D01*
X154065Y27540D01*
X154099Y27448D01*
X154135Y27357D01*
X154176Y27267D01*
X154220Y27180D01*
X154267Y27094D01*
X154318Y27010D01*
X154372Y26928D01*
X154429Y26848D01*
X154490Y26771D01*
X154553Y26696D01*
X154620Y26623D01*
X154689Y26554D01*
X154761Y26487D01*
X154835Y26423D01*
X154912Y26362D01*
X154992Y26304D01*
X155073Y26250D01*
X155157Y26199D01*
X155243Y26151D01*
X155330Y26106D01*
X155420Y26065D01*
X155510Y26028D01*
X155603Y25994D01*
X155696Y25964D01*
X155791Y25938D01*
X155886Y25915D01*
X155983Y25896D01*
X156080Y25882D01*
X156177Y25871D01*
X156275Y25863D01*
X156373Y25860D01*
X156471Y25861D01*
X156569Y25865D01*
X156667Y25874D01*
X156765Y25886D01*
X156861Y25903D01*
X156958Y25923D01*
X157053Y25946D01*
X157147Y25974D01*
X157240Y26005D01*
X157332Y26041D01*
X157422Y26079D01*
X157511Y26121D01*
X157598Y26167D01*
X157683Y26216D01*
X157766Y26269D01*
X157846Y26324D01*
X157925Y26383D01*
X158001Y26445D01*
X158075Y26510D01*
X158146Y26578D01*
X158214Y26649D01*
X158279Y26722D01*
X158342Y26798D01*
X158401Y26876D01*
X158457Y26956D01*
X158510Y27039D01*
X158560Y27124D01*
X158606Y27210D01*
X158649Y27299D01*
X158688Y27389D01*
X158724Y27480D01*
X158755Y27573D01*
X158784Y27667D01*
X158808Y27762D01*
X158829Y27858D01*
X158846Y27955D01*
X158858Y28052D01*
X158868Y28150D01*
X158873Y28248D01*
X158874Y28346D01*
X146969Y34685D02*
X146878Y34682D01*
X146786Y34676D01*
X146695Y34666D01*
X146604Y34652D01*
X146514Y34634D01*
X146424Y34613D01*
X146336Y34588D01*
X146249Y34559D01*
X146162Y34527D01*
X146078Y34491D01*
X145995Y34452D01*
X145913Y34410D01*
X145834Y34364D01*
X145756Y34314D01*
X145681Y34262D01*
X145607Y34207D01*
X145536Y34148D01*
X145468Y34087D01*
X145402Y34023D01*
X145339Y33956D01*
X145279Y33887D01*
X145221Y33815D01*
X145167Y33741D01*
X145116Y33665D01*
X145067Y33587D01*
X145023Y33506D01*
X144981Y33424D01*
X144943Y33341D01*
X144908Y33256D01*
X144877Y33169D01*
X144850Y33081D01*
X144826Y32993D01*
X144806Y32903D01*
X144790Y32813D01*
X144777Y32722D01*
X144768Y32630D01*
X144763Y32538D01*
X144762Y32447D01*
X146969Y34684D02*
X147075Y34683D01*
X147180Y34678D01*
X147285Y34669D01*
X147390Y34656D01*
X147494Y34639D01*
X147598Y34618D01*
X147701Y34594D01*
X147802Y34566D01*
X147903Y34534D01*
X148002Y34498D01*
X148100Y34459D01*
X148197Y34416D01*
X148292Y34369D01*
X148385Y34319D01*
X148476Y34266D01*
X148565Y34210D01*
X148652Y34150D01*
X148737Y34087D01*
X148819Y34020D01*
X148899Y33951D01*
X148976Y33879D01*
X149050Y33804D01*
X149122Y33727D01*
X149191Y33646D01*
X149257Y33564D01*
X149319Y33479D01*
X149379Y33391D01*
X149435Y33302D01*
X149487Y33211D01*
X149537Y33117D01*
X149583Y33022D01*
X149625Y32925D01*
X149664Y32827D01*
X149699Y32727D01*
X145516Y30723D02*
X145447Y30791D01*
X145380Y30861D01*
X145317Y30934D01*
X145257Y31009D01*
X145199Y31087D01*
X145145Y31167D01*
X145094Y31249D01*
X145047Y31334D01*
X145003Y31420D01*
X144963Y31507D01*
X144926Y31597D01*
X144892Y31687D01*
X144863Y31779D01*
X144837Y31873D01*
X144815Y31967D01*
X144797Y32062D01*
X144783Y32157D01*
X144772Y32253D01*
X144766Y32350D01*
X144763Y32446D01*
X145515Y30723D02*
X149748Y25813D01*
X144809Y25779D01*
X140604Y25749D02*
X138134Y25732D01*
X138036Y25733D01*
X137938Y25738D01*
X137840Y25748D01*
X137743Y25760D01*
X137646Y25777D01*
X137550Y25798D01*
X137455Y25822D01*
X137361Y25851D01*
X137268Y25882D01*
X137177Y25918D01*
X137087Y25957D01*
X136998Y26000D01*
X136912Y26046D01*
X136827Y26096D01*
X136744Y26149D01*
X136664Y26205D01*
X136586Y26264D01*
X136510Y26327D01*
X136437Y26392D01*
X136366Y26460D01*
X136298Y26531D01*
X136233Y26605D01*
X136171Y26681D01*
X136112Y26760D01*
X136057Y26840D01*
X136004Y26923D01*
X135955Y27008D01*
X135909Y27095D01*
X135867Y27184D01*
X135829Y27274D01*
X135793Y27366D01*
X135762Y27459D01*
X135734Y27553D01*
X135711Y27648D01*
X135691Y27745D01*
X135674Y27841D01*
X135662Y27939D01*
X135653Y28037D01*
X135649Y28135D01*
X135648Y28233D01*
X135651Y28331D01*
X135659Y28429D01*
X135670Y28526D01*
X135684Y28624D01*
X135703Y28720D01*
X135726Y28815D01*
X135752Y28910D01*
X135782Y29003D01*
X135816Y29096D01*
X135853Y29186D01*
X135894Y29276D01*
X135939Y29363D01*
X135987Y29449D01*
X136038Y29533D01*
X136092Y29614D01*
X136150Y29694D01*
X136211Y29771D01*
X136275Y29845D01*
X136342Y29917D01*
X136411Y29986D01*
X136484Y30053D01*
X136559Y30116D01*
X136636Y30177D01*
X136716Y30234D01*
X136798Y30288D01*
X136882Y30339D01*
X136968Y30386D01*
X137056Y30430D01*
X137145Y30471D01*
X137236Y30507D01*
X137328Y30541D01*
X137422Y30570D01*
X137517Y30596D01*
X137612Y30618D01*
X137709Y30636D01*
X137806Y30650D01*
X137904Y30661D01*
X138002Y30667D01*
X138100Y30670D01*
X137579Y34618D02*
X140542Y34639D01*
X137578Y34619D02*
X137491Y34616D01*
X137404Y34610D01*
X137317Y34600D01*
X137231Y34586D01*
X137145Y34568D01*
X137060Y34546D01*
X136977Y34521D01*
X136894Y34492D01*
X136813Y34459D01*
X136733Y34423D01*
X136656Y34383D01*
X136580Y34340D01*
X136505Y34293D01*
X136434Y34244D01*
X136364Y34191D01*
X136297Y34135D01*
X136232Y34076D01*
X136170Y34015D01*
X136110Y33951D01*
X136054Y33884D01*
X136001Y33815D01*
X135950Y33743D01*
X135903Y33669D01*
X135860Y33594D01*
X135819Y33516D01*
X135782Y33437D01*
X135749Y33356D01*
X135719Y33274D01*
X135693Y33190D01*
X135671Y33106D01*
X135652Y33020D01*
X135638Y32934D01*
X135627Y32847D01*
X135619Y32760D01*
X135616Y32673D01*
X135617Y32586D01*
X135621Y32498D01*
X135630Y32411D01*
X135642Y32325D01*
X135658Y32239D01*
X135678Y32153D01*
X135701Y32069D01*
X135728Y31986D01*
X135759Y31904D01*
X135794Y31824D01*
X135832Y31745D01*
X135873Y31668D01*
X135918Y31593D01*
X135966Y31520D01*
X136017Y31449D01*
X136072Y31381D01*
X136129Y31315D01*
X136189Y31251D01*
X136252Y31191D01*
X136318Y31133D01*
X136386Y31078D01*
X136456Y31026D01*
X136529Y30978D01*
X136603Y30932D01*
X136680Y30890D01*
X136758Y30851D01*
X136838Y30816D01*
X136920Y30785D01*
X137003Y30757D01*
X137087Y30733D01*
X137172Y30712D01*
X137258Y30695D01*
X137344Y30683D01*
X137431Y30674D01*
X137518Y30668D01*
X137606Y30667D01*
X139582Y30681D01*
X227523Y71932D02*
X227502Y74895D01*
X230479Y72940D02*
X223071Y72888D01*
X223070Y72888D02*
X222995Y72889D01*
X222920Y72895D01*
X222846Y72904D01*
X222772Y72916D01*
X222699Y72933D01*
X222626Y72953D01*
X222555Y72977D01*
X222485Y73004D01*
X222417Y73035D01*
X222350Y73069D01*
X222285Y73107D01*
X222222Y73148D01*
X222161Y73192D01*
X222103Y73239D01*
X222046Y73289D01*
X221993Y73341D01*
X221942Y73397D01*
X221894Y73455D01*
X221850Y73515D01*
X221808Y73577D01*
X221769Y73642D01*
X221734Y73708D01*
X221702Y73776D01*
X221674Y73846D01*
X221649Y73917D01*
X221628Y73989D01*
X221610Y74062D01*
X221597Y74135D01*
X221587Y74210D01*
X221580Y74285D01*
X221578Y74360D01*
X221579Y74360D02*
X221575Y74854D01*
X221553Y78096D02*
X222047Y78100D01*
X222043Y78594D01*
X221549Y78590D01*
X221553Y78096D01*
X221521Y82695D02*
X227447Y82736D01*
X227416Y87181D01*
X227417Y87181D02*
X227415Y87256D01*
X227408Y87331D01*
X227398Y87406D01*
X227385Y87479D01*
X227367Y87552D01*
X227346Y87625D01*
X227321Y87695D01*
X227293Y87765D01*
X227261Y87833D01*
X227226Y87899D01*
X227187Y87964D01*
X227145Y88026D01*
X227101Y88086D01*
X227053Y88144D01*
X227002Y88200D01*
X226949Y88252D01*
X226892Y88302D01*
X226834Y88349D01*
X226773Y88393D01*
X226710Y88434D01*
X226645Y88472D01*
X226578Y88506D01*
X226510Y88537D01*
X226440Y88564D01*
X226369Y88588D01*
X226296Y88608D01*
X226223Y88625D01*
X226149Y88637D01*
X226075Y88646D01*
X226000Y88652D01*
X225925Y88653D01*
X225924Y88652D02*
X221479Y88621D01*
X221500Y85658D02*
X227426Y85700D01*
X221437Y94613D02*
X221420Y97082D01*
X221437Y94613D02*
X221439Y94538D01*
X221446Y94463D01*
X221456Y94388D01*
X221469Y94315D01*
X221487Y94242D01*
X221508Y94169D01*
X221533Y94099D01*
X221561Y94029D01*
X221593Y93961D01*
X221628Y93895D01*
X221667Y93830D01*
X221709Y93768D01*
X221753Y93708D01*
X221801Y93650D01*
X221852Y93594D01*
X221905Y93542D01*
X221962Y93492D01*
X222020Y93445D01*
X222081Y93401D01*
X222144Y93360D01*
X222209Y93322D01*
X222276Y93288D01*
X222344Y93257D01*
X222414Y93230D01*
X222485Y93206D01*
X222558Y93186D01*
X222631Y93169D01*
X222705Y93157D01*
X222779Y93148D01*
X222854Y93142D01*
X222929Y93141D01*
X222929Y93142D02*
X225399Y93159D01*
X225399Y93158D02*
X225486Y93161D01*
X225573Y93167D01*
X225660Y93177D01*
X225746Y93191D01*
X225832Y93209D01*
X225917Y93231D01*
X226000Y93256D01*
X226083Y93285D01*
X226164Y93318D01*
X226244Y93354D01*
X226321Y93394D01*
X226397Y93437D01*
X226472Y93484D01*
X226543Y93533D01*
X226613Y93586D01*
X226680Y93642D01*
X226745Y93701D01*
X226807Y93762D01*
X226867Y93826D01*
X226923Y93893D01*
X226976Y93962D01*
X227027Y94034D01*
X227074Y94108D01*
X227117Y94183D01*
X227158Y94261D01*
X227195Y94340D01*
X227228Y94421D01*
X227258Y94503D01*
X227284Y94587D01*
X227306Y94671D01*
X227325Y94757D01*
X227339Y94843D01*
X227350Y94930D01*
X227358Y95017D01*
X227361Y95104D01*
X227360Y95191D01*
X227356Y95279D01*
X227347Y95366D01*
X227335Y95452D01*
X227319Y95538D01*
X227299Y95624D01*
X227276Y95708D01*
X227249Y95791D01*
X227218Y95873D01*
X227183Y95953D01*
X227145Y96032D01*
X227104Y96109D01*
X227059Y96184D01*
X227011Y96257D01*
X226960Y96328D01*
X226905Y96396D01*
X226848Y96462D01*
X226788Y96526D01*
X226725Y96586D01*
X226659Y96644D01*
X226591Y96699D01*
X226521Y96751D01*
X226448Y96799D01*
X226374Y96845D01*
X226297Y96887D01*
X226219Y96926D01*
X226139Y96961D01*
X226057Y96992D01*
X225974Y97020D01*
X225890Y97044D01*
X225805Y97065D01*
X225719Y97082D01*
X225633Y97094D01*
X225546Y97103D01*
X225459Y97109D01*
X225371Y97110D01*
X224384Y97103D01*
X224411Y93152D01*
X220407Y100744D02*
X231245Y104771D01*
X230204Y112323D02*
X221314Y112261D01*
X221332Y109792D01*
X221331Y109792D02*
X221333Y109717D01*
X221340Y109642D01*
X221350Y109567D01*
X221363Y109494D01*
X221381Y109421D01*
X221402Y109348D01*
X221427Y109278D01*
X221455Y109208D01*
X221487Y109140D01*
X221522Y109074D01*
X221561Y109009D01*
X221603Y108947D01*
X221647Y108887D01*
X221695Y108829D01*
X221746Y108773D01*
X221799Y108721D01*
X221856Y108671D01*
X221914Y108624D01*
X221975Y108580D01*
X222038Y108539D01*
X222103Y108501D01*
X222170Y108467D01*
X222238Y108436D01*
X222308Y108409D01*
X222379Y108385D01*
X222452Y108365D01*
X222525Y108348D01*
X222599Y108336D01*
X222673Y108327D01*
X222748Y108321D01*
X222823Y108320D01*
X222824Y108321D02*
X225787Y108341D01*
X225786Y108341D02*
X225861Y108343D01*
X225936Y108350D01*
X226011Y108360D01*
X226084Y108373D01*
X226157Y108391D01*
X226230Y108412D01*
X226300Y108437D01*
X226370Y108465D01*
X226438Y108497D01*
X226504Y108532D01*
X226569Y108571D01*
X226631Y108613D01*
X226691Y108657D01*
X226749Y108705D01*
X226805Y108756D01*
X226857Y108809D01*
X226907Y108866D01*
X226954Y108924D01*
X226998Y108985D01*
X227039Y109048D01*
X227077Y109113D01*
X227111Y109180D01*
X227142Y109248D01*
X227169Y109318D01*
X227193Y109389D01*
X227213Y109462D01*
X227230Y109535D01*
X227242Y109609D01*
X227251Y109683D01*
X227257Y109758D01*
X227258Y109833D01*
X227241Y112303D01*
X221274Y118082D02*
X221257Y120551D01*
X221273Y118082D02*
X221275Y118007D01*
X221282Y117932D01*
X221292Y117857D01*
X221305Y117784D01*
X221323Y117711D01*
X221344Y117638D01*
X221369Y117568D01*
X221397Y117498D01*
X221429Y117430D01*
X221464Y117364D01*
X221503Y117299D01*
X221545Y117237D01*
X221589Y117177D01*
X221637Y117119D01*
X221688Y117063D01*
X221741Y117011D01*
X221798Y116961D01*
X221856Y116914D01*
X221917Y116870D01*
X221980Y116829D01*
X222045Y116791D01*
X222112Y116757D01*
X222180Y116726D01*
X222250Y116699D01*
X222321Y116675D01*
X222394Y116655D01*
X222467Y116638D01*
X222541Y116626D01*
X222615Y116617D01*
X222690Y116611D01*
X222765Y116610D01*
X222766Y116610D02*
X225235Y116628D01*
X225235Y116627D02*
X225322Y116630D01*
X225409Y116636D01*
X225496Y116646D01*
X225582Y116660D01*
X225668Y116678D01*
X225753Y116700D01*
X225836Y116725D01*
X225919Y116754D01*
X226000Y116787D01*
X226080Y116823D01*
X226157Y116863D01*
X226233Y116906D01*
X226308Y116953D01*
X226379Y117002D01*
X226449Y117055D01*
X226516Y117111D01*
X226581Y117170D01*
X226643Y117231D01*
X226703Y117295D01*
X226759Y117362D01*
X226812Y117431D01*
X226863Y117503D01*
X226910Y117577D01*
X226953Y117652D01*
X226994Y117730D01*
X227031Y117809D01*
X227064Y117890D01*
X227094Y117972D01*
X227120Y118056D01*
X227142Y118140D01*
X227161Y118226D01*
X227175Y118312D01*
X227186Y118399D01*
X227194Y118486D01*
X227197Y118573D01*
X227196Y118660D01*
X227192Y118748D01*
X227183Y118835D01*
X227171Y118921D01*
X227155Y119007D01*
X227135Y119093D01*
X227112Y119177D01*
X227085Y119260D01*
X227054Y119342D01*
X227019Y119422D01*
X226981Y119501D01*
X226940Y119578D01*
X226895Y119653D01*
X226847Y119726D01*
X226796Y119797D01*
X226741Y119865D01*
X226684Y119931D01*
X226624Y119995D01*
X226561Y120055D01*
X226495Y120113D01*
X226427Y120168D01*
X226357Y120220D01*
X226284Y120268D01*
X226210Y120314D01*
X226133Y120356D01*
X226055Y120395D01*
X225975Y120430D01*
X225893Y120461D01*
X225810Y120489D01*
X225726Y120513D01*
X225641Y120534D01*
X225555Y120551D01*
X225469Y120563D01*
X225382Y120572D01*
X225295Y120578D01*
X225207Y120579D01*
X225208Y120579D02*
X224220Y120572D01*
X224247Y116621D01*
X224674Y126217D02*
X224659Y128439D01*
X224675Y126217D02*
X224674Y126135D01*
X224668Y126053D01*
X224659Y125971D01*
X224646Y125890D01*
X224629Y125809D01*
X224608Y125729D01*
X224584Y125651D01*
X224556Y125574D01*
X224524Y125498D01*
X224488Y125423D01*
X224449Y125351D01*
X224407Y125280D01*
X224361Y125212D01*
X224313Y125146D01*
X224261Y125082D01*
X224206Y125021D01*
X224148Y124962D01*
X224087Y124906D01*
X224024Y124853D01*
X223959Y124804D01*
X223891Y124757D01*
X223821Y124714D01*
X223749Y124674D01*
X223675Y124637D01*
X223600Y124604D01*
X223523Y124575D01*
X223445Y124549D01*
X223365Y124528D01*
X223285Y124510D01*
X223204Y124495D01*
X223122Y124485D01*
X223040Y124479D01*
X222958Y124476D01*
X222876Y124477D01*
X222794Y124483D01*
X222712Y124492D01*
X222631Y124505D01*
X222550Y124522D01*
X222470Y124543D01*
X222392Y124567D01*
X222315Y124595D01*
X222239Y124627D01*
X222164Y124663D01*
X222092Y124702D01*
X222021Y124744D01*
X221953Y124790D01*
X221887Y124838D01*
X221823Y124890D01*
X221762Y124945D01*
X221703Y125003D01*
X221647Y125064D01*
X221594Y125127D01*
X221545Y125192D01*
X221498Y125260D01*
X221455Y125330D01*
X221415Y125402D01*
X221378Y125476D01*
X221345Y125551D01*
X221316Y125628D01*
X221290Y125706D01*
X221269Y125786D01*
X221251Y125866D01*
X221236Y125947D01*
X221226Y126029D01*
X221220Y126111D01*
X221217Y126193D01*
X221202Y128415D01*
X225647Y128446D01*
X225647Y128447D02*
X225722Y128446D01*
X225797Y128440D01*
X225871Y128431D01*
X225945Y128419D01*
X226018Y128402D01*
X226091Y128382D01*
X226162Y128358D01*
X226232Y128331D01*
X226300Y128300D01*
X226367Y128266D01*
X226432Y128228D01*
X226495Y128187D01*
X226556Y128143D01*
X226614Y128096D01*
X226671Y128046D01*
X226724Y127994D01*
X226775Y127938D01*
X226823Y127880D01*
X226867Y127820D01*
X226909Y127758D01*
X226948Y127693D01*
X226983Y127627D01*
X227015Y127559D01*
X227043Y127489D01*
X227068Y127419D01*
X227089Y127346D01*
X227107Y127273D01*
X227120Y127200D01*
X227130Y127125D01*
X227137Y127050D01*
X227139Y126975D01*
X227138Y126975D02*
X227152Y124999D01*
X221173Y132449D02*
X227072Y136441D01*
X227100Y132491D02*
X221146Y136400D01*
X221122Y139764D02*
X227021Y143756D01*
X227049Y139805D02*
X221095Y143715D01*
M02*
