G04 EAGLE Gerber RS-274X export*
G75*
%MOMM*%
%FSLAX34Y34*%
%LPD*%
%INSilkscreen Top*%
%IPPOS*%
%AMOC8*
5,1,8,0,0,1.08239X$1,22.5*%
G01*
%ADD10C,0.127000*%
%ADD11C,0.152400*%
%ADD12C,0.254000*%
%ADD13C,0.120000*%
%ADD14C,0.200000*%
%ADD15C,0.203200*%


D10*
X64500Y129500D02*
X74000Y129500D01*
X64500Y129500D02*
X64500Y147000D01*
X74000Y147000D01*
X74000Y129500D01*
X75000Y129500D02*
X75000Y147000D01*
X84000Y147000D01*
X84000Y129500D01*
X75000Y129500D01*
X85500Y129500D02*
X85500Y147000D01*
X94500Y147000D01*
X94500Y129500D01*
X85500Y129500D01*
X95500Y129500D02*
X95500Y147000D01*
X95500Y129500D02*
X104500Y129500D01*
X104500Y147000D01*
X95500Y147000D01*
X106000Y147000D02*
X106000Y129500D01*
X115500Y129500D01*
X115500Y147000D01*
X106000Y147000D01*
X64500Y148000D02*
X64500Y165500D01*
X64500Y148000D02*
X74000Y148000D01*
X74000Y165500D01*
X64500Y165500D01*
X75000Y165500D02*
X75000Y148000D01*
X75000Y165500D02*
X84500Y165500D01*
X84500Y148000D01*
X75500Y148000D01*
X76000Y166500D02*
X76000Y176000D01*
X76000Y166500D02*
X93500Y166500D01*
X93500Y176000D01*
X76000Y176000D01*
X95000Y175500D02*
X95000Y158000D01*
X104500Y158000D01*
X104500Y175500D01*
X95000Y175500D01*
X105500Y175500D02*
X105500Y149500D01*
X115000Y149500D01*
X115000Y175500D01*
X105500Y175500D01*
X48000Y140000D02*
X39500Y140000D01*
X48000Y140000D02*
X48000Y157000D01*
X39500Y157000D01*
X39500Y140000D01*
X50000Y140000D02*
X50000Y157000D01*
X50000Y140000D02*
X59000Y140000D01*
X59000Y157000D01*
X50000Y157000D01*
X39000Y159000D02*
X39000Y167500D01*
X39000Y159000D02*
X56000Y159000D01*
X56000Y167500D01*
X39000Y167500D01*
X20000Y171500D02*
X20000Y180000D01*
X20000Y171500D02*
X36500Y171500D01*
X36500Y180000D01*
X20000Y180000D01*
X20000Y171500D02*
X20000Y171000D01*
X20000Y162500D01*
X36500Y162500D01*
X36500Y171000D01*
X20000Y171000D01*
X2000Y171500D02*
X2000Y162500D01*
X18500Y162500D01*
X18500Y171500D01*
X2000Y171500D01*
X100500Y125500D02*
X100500Y117000D01*
X117500Y117000D01*
X117500Y125500D01*
X100500Y125500D01*
X121500Y125000D02*
X121500Y116000D01*
X139000Y116000D01*
X139000Y125000D01*
X121500Y125000D01*
X101500Y116000D02*
X101500Y107000D01*
X118000Y107000D01*
X118000Y116000D01*
X101500Y116000D01*
X123500Y85500D02*
X123500Y76000D01*
X141000Y76000D01*
X141000Y85500D01*
X123500Y85500D01*
X123500Y66000D02*
X140500Y66000D01*
X140500Y75000D01*
X123500Y75000D01*
X123500Y66000D01*
X117000Y7000D02*
X134000Y7000D01*
X134000Y16000D01*
X117000Y16000D01*
X117000Y7000D01*
X106000Y17500D02*
X106000Y34500D01*
X106000Y17500D02*
X114500Y17500D01*
X114500Y34500D01*
X106000Y34500D01*
X116000Y17500D02*
X124500Y17500D01*
X124500Y34500D01*
X116000Y34500D01*
X116000Y17500D01*
X125500Y17500D02*
X125500Y34500D01*
X125500Y17500D02*
X134500Y17500D01*
X134500Y34500D01*
X125500Y34500D01*
X29000Y5000D02*
X12000Y5000D01*
X29000Y5000D02*
X29000Y14000D01*
X12000Y14000D01*
X12000Y5000D01*
X12000Y15000D02*
X29000Y15000D01*
X29000Y24000D01*
X12000Y24000D01*
X12000Y15500D01*
X5000Y113500D02*
X21500Y113500D01*
X21500Y122500D01*
X5000Y122500D01*
X5000Y113500D01*
X11000Y74000D02*
X11000Y57000D01*
X19500Y57000D01*
X19500Y74000D01*
X11000Y74000D01*
X11000Y56000D02*
X20000Y56000D01*
X19500Y55500D01*
X19500Y39000D01*
X11000Y39000D01*
X11000Y56000D01*
D11*
X94969Y119519D02*
X98017Y119519D01*
X29945Y119519D02*
X26897Y119519D01*
X26897Y51447D02*
X26897Y48399D01*
X26897Y116471D02*
X26897Y119519D01*
X94969Y48399D02*
X98017Y48399D01*
X29945Y48399D02*
X26897Y48399D01*
X98017Y48399D02*
X98017Y51447D01*
X98017Y116471D02*
X98017Y119519D01*
D12*
X90143Y124599D02*
X90073Y124601D01*
X90003Y124607D01*
X89934Y124616D01*
X89865Y124630D01*
X89797Y124647D01*
X89731Y124668D01*
X89665Y124692D01*
X89601Y124720D01*
X89539Y124752D01*
X89478Y124787D01*
X89419Y124825D01*
X89363Y124867D01*
X89309Y124911D01*
X89257Y124959D01*
X89209Y125009D01*
X89163Y125062D01*
X89120Y125117D01*
X89080Y125174D01*
X89043Y125234D01*
X89010Y125296D01*
X88980Y125359D01*
X88954Y125424D01*
X88931Y125490D01*
X88912Y125557D01*
X88897Y125626D01*
X88885Y125695D01*
X88877Y125764D01*
X88873Y125834D01*
X88873Y125904D01*
X88877Y125974D01*
X88885Y126043D01*
X88897Y126112D01*
X88912Y126181D01*
X88931Y126248D01*
X88954Y126314D01*
X88980Y126379D01*
X89010Y126442D01*
X89043Y126504D01*
X89080Y126564D01*
X89120Y126621D01*
X89163Y126676D01*
X89209Y126729D01*
X89257Y126779D01*
X89309Y126827D01*
X89363Y126871D01*
X89419Y126913D01*
X89478Y126951D01*
X89539Y126986D01*
X89601Y127018D01*
X89665Y127046D01*
X89731Y127070D01*
X89797Y127091D01*
X89865Y127108D01*
X89934Y127122D01*
X90003Y127131D01*
X90073Y127137D01*
X90143Y127139D01*
X90213Y127137D01*
X90283Y127131D01*
X90352Y127122D01*
X90421Y127108D01*
X90489Y127091D01*
X90555Y127070D01*
X90621Y127046D01*
X90685Y127018D01*
X90747Y126986D01*
X90808Y126951D01*
X90867Y126913D01*
X90923Y126871D01*
X90977Y126827D01*
X91029Y126779D01*
X91077Y126729D01*
X91123Y126676D01*
X91166Y126621D01*
X91206Y126564D01*
X91243Y126504D01*
X91276Y126442D01*
X91306Y126379D01*
X91332Y126314D01*
X91355Y126248D01*
X91374Y126181D01*
X91389Y126112D01*
X91401Y126043D01*
X91409Y125974D01*
X91413Y125904D01*
X91413Y125834D01*
X91409Y125764D01*
X91401Y125695D01*
X91389Y125626D01*
X91374Y125557D01*
X91355Y125490D01*
X91332Y125424D01*
X91306Y125359D01*
X91276Y125296D01*
X91243Y125234D01*
X91206Y125174D01*
X91166Y125117D01*
X91123Y125062D01*
X91077Y125009D01*
X91029Y124959D01*
X90977Y124911D01*
X90923Y124867D01*
X90867Y124825D01*
X90808Y124787D01*
X90747Y124752D01*
X90685Y124720D01*
X90621Y124692D01*
X90555Y124668D01*
X90489Y124647D01*
X90421Y124630D01*
X90352Y124616D01*
X90283Y124607D01*
X90213Y124601D01*
X90143Y124599D01*
D13*
X102149Y23297D02*
X102149Y18197D01*
X88149Y18197D02*
X88149Y23297D01*
X48342Y23311D02*
X48342Y18211D01*
X62342Y18211D02*
X62342Y23311D01*
X26834Y26954D02*
X21932Y26954D01*
X21932Y35954D02*
X26834Y35954D01*
X82202Y23475D02*
X82202Y18375D01*
X68202Y18375D02*
X68202Y23475D01*
D14*
X125294Y113538D02*
X125232Y113540D01*
X125171Y113546D01*
X125110Y113555D01*
X125050Y113568D01*
X124991Y113585D01*
X124933Y113606D01*
X124876Y113630D01*
X124821Y113657D01*
X124768Y113688D01*
X124716Y113722D01*
X124667Y113759D01*
X124620Y113799D01*
X124576Y113842D01*
X124535Y113887D01*
X124496Y113935D01*
X124460Y113986D01*
X124428Y114038D01*
X124399Y114092D01*
X124373Y114148D01*
X124351Y114206D01*
X124332Y114264D01*
X124317Y114324D01*
X124306Y114385D01*
X124298Y114446D01*
X124294Y114507D01*
X124294Y114569D01*
X124298Y114630D01*
X124306Y114691D01*
X124317Y114752D01*
X124332Y114812D01*
X124351Y114870D01*
X124373Y114928D01*
X124399Y114984D01*
X124428Y115038D01*
X124460Y115090D01*
X124496Y115141D01*
X124535Y115189D01*
X124576Y115234D01*
X124620Y115277D01*
X124667Y115317D01*
X124716Y115354D01*
X124768Y115388D01*
X124821Y115419D01*
X124876Y115446D01*
X124933Y115470D01*
X124991Y115491D01*
X125050Y115508D01*
X125110Y115521D01*
X125171Y115530D01*
X125232Y115536D01*
X125294Y115538D01*
X125356Y115536D01*
X125417Y115530D01*
X125478Y115521D01*
X125538Y115508D01*
X125597Y115491D01*
X125655Y115470D01*
X125712Y115446D01*
X125767Y115419D01*
X125820Y115388D01*
X125872Y115354D01*
X125921Y115317D01*
X125968Y115277D01*
X126012Y115234D01*
X126053Y115189D01*
X126092Y115141D01*
X126128Y115090D01*
X126160Y115038D01*
X126189Y114984D01*
X126215Y114928D01*
X126237Y114870D01*
X126256Y114812D01*
X126271Y114752D01*
X126282Y114691D01*
X126290Y114630D01*
X126294Y114569D01*
X126294Y114507D01*
X126290Y114446D01*
X126282Y114385D01*
X126271Y114324D01*
X126256Y114264D01*
X126237Y114206D01*
X126215Y114148D01*
X126189Y114092D01*
X126160Y114038D01*
X126128Y113986D01*
X126092Y113935D01*
X126053Y113887D01*
X126012Y113842D01*
X125968Y113799D01*
X125921Y113759D01*
X125872Y113722D01*
X125820Y113688D01*
X125767Y113657D01*
X125712Y113630D01*
X125655Y113606D01*
X125597Y113585D01*
X125538Y113568D01*
X125478Y113555D01*
X125417Y113546D01*
X125356Y113540D01*
X125294Y113538D01*
D15*
X122511Y132818D02*
X122511Y146818D01*
X122511Y132818D02*
X148511Y132818D01*
X148511Y174818D02*
X122511Y174818D01*
X122511Y160818D01*
X148511Y146818D02*
X148511Y132818D01*
X148511Y160818D02*
X148511Y174818D01*
X121511Y146818D02*
X121511Y133818D01*
X121511Y160818D02*
X121511Y173818D01*
X120511Y146818D02*
X120511Y132818D01*
X120511Y160818D02*
X120511Y174818D01*
X120511Y132818D02*
X122511Y132818D01*
X122511Y146818D02*
X120511Y146818D01*
X120511Y160818D02*
X122511Y160818D01*
X122511Y174818D02*
X120511Y174818D01*
D11*
X52074Y126283D02*
X46074Y126283D01*
X46074Y138283D02*
X52074Y138283D01*
D14*
X30024Y133341D02*
X30026Y133404D01*
X30032Y133466D01*
X30042Y133528D01*
X30055Y133590D01*
X30073Y133650D01*
X30094Y133709D01*
X30119Y133767D01*
X30148Y133823D01*
X30180Y133877D01*
X30215Y133929D01*
X30253Y133978D01*
X30295Y134026D01*
X30339Y134070D01*
X30387Y134112D01*
X30436Y134150D01*
X30488Y134185D01*
X30542Y134217D01*
X30598Y134246D01*
X30656Y134271D01*
X30715Y134292D01*
X30775Y134310D01*
X30837Y134323D01*
X30899Y134333D01*
X30961Y134339D01*
X31024Y134341D01*
X31087Y134339D01*
X31149Y134333D01*
X31211Y134323D01*
X31273Y134310D01*
X31333Y134292D01*
X31392Y134271D01*
X31450Y134246D01*
X31506Y134217D01*
X31560Y134185D01*
X31612Y134150D01*
X31661Y134112D01*
X31709Y134070D01*
X31753Y134026D01*
X31795Y133978D01*
X31833Y133929D01*
X31868Y133877D01*
X31900Y133823D01*
X31929Y133767D01*
X31954Y133709D01*
X31975Y133650D01*
X31993Y133590D01*
X32006Y133528D01*
X32016Y133466D01*
X32022Y133404D01*
X32024Y133341D01*
X32022Y133278D01*
X32016Y133216D01*
X32006Y133154D01*
X31993Y133092D01*
X31975Y133032D01*
X31954Y132973D01*
X31929Y132915D01*
X31900Y132859D01*
X31868Y132805D01*
X31833Y132753D01*
X31795Y132704D01*
X31753Y132656D01*
X31709Y132612D01*
X31661Y132570D01*
X31612Y132532D01*
X31560Y132497D01*
X31506Y132465D01*
X31450Y132436D01*
X31392Y132411D01*
X31333Y132390D01*
X31273Y132372D01*
X31211Y132359D01*
X31149Y132349D01*
X31087Y132343D01*
X31024Y132341D01*
X30961Y132343D01*
X30899Y132349D01*
X30837Y132359D01*
X30775Y132372D01*
X30715Y132390D01*
X30656Y132411D01*
X30598Y132436D01*
X30542Y132465D01*
X30488Y132497D01*
X30436Y132532D01*
X30387Y132570D01*
X30339Y132612D01*
X30295Y132656D01*
X30253Y132704D01*
X30215Y132753D01*
X30180Y132805D01*
X30148Y132859D01*
X30119Y132915D01*
X30094Y132973D01*
X30073Y133032D01*
X30055Y133092D01*
X30042Y133154D01*
X30032Y133216D01*
X30026Y133278D01*
X30024Y133341D01*
D10*
X69037Y170027D02*
X69037Y179552D01*
M02*
