G04 EAGLE Gerber RS-274X export*
G75*
%MOMM*%
%FSLAX34Y34*%
%LPD*%
%INSilkscreen Top*%
%IPPOS*%
%AMOC8*
5,1,8,0,0,1.08239X$1,22.5*%
G01*
%ADD10C,0.127000*%
%ADD11C,0.101600*%
%ADD12C,0.152400*%
%ADD13C,0.254000*%
%ADD14C,0.120000*%
%ADD15C,0.200000*%
%ADD16C,0.203200*%


D10*
X64500Y129500D02*
X74000Y129500D01*
X64500Y129500D02*
X64500Y147000D01*
X74000Y147000D01*
X74000Y129500D01*
X75000Y129500D02*
X75000Y147000D01*
X84000Y147000D01*
X84000Y129500D01*
X75000Y129500D01*
X85500Y129500D02*
X85500Y147000D01*
X94500Y147000D01*
X94500Y129500D01*
X85500Y129500D01*
X95500Y129500D02*
X95500Y147000D01*
X95500Y129500D02*
X104500Y129500D01*
X104500Y147000D01*
X95500Y147000D01*
X106000Y147000D02*
X106000Y129500D01*
X115500Y129500D01*
X115500Y147000D01*
X106000Y147000D01*
X64500Y148000D02*
X64500Y165500D01*
X64500Y148000D02*
X74000Y148000D01*
X74000Y165500D01*
X64500Y165500D01*
X75000Y165500D02*
X75000Y148000D01*
X75000Y165500D02*
X84500Y165500D01*
X84500Y148000D01*
X75500Y148000D01*
X76000Y166500D02*
X76000Y176000D01*
X76000Y166500D02*
X93500Y166500D01*
X93500Y176000D01*
X76000Y176000D01*
X95000Y175500D02*
X95000Y158000D01*
X104500Y158000D01*
X104500Y175500D01*
X95000Y175500D01*
X105500Y175500D02*
X105500Y149500D01*
X115000Y149500D01*
X115000Y175500D01*
X105500Y175500D01*
X48000Y142000D02*
X39300Y142000D01*
X48000Y142000D02*
X48000Y159000D01*
X39300Y159000D01*
X39300Y142000D01*
X50000Y142000D02*
X50000Y159000D01*
X50000Y142000D02*
X59000Y142000D01*
X59000Y159000D01*
X50000Y159000D01*
X20000Y171500D02*
X20000Y180000D01*
X20000Y171500D02*
X36500Y171500D01*
X36500Y180000D01*
X20000Y180000D01*
X20000Y171500D02*
X20000Y171000D01*
X20000Y162500D01*
X36500Y162500D01*
X36500Y171000D01*
X20000Y171000D01*
X2000Y171500D02*
X2000Y162500D01*
X18600Y162467D01*
X18600Y171467D01*
X2000Y171500D01*
X100500Y125500D02*
X100500Y117000D01*
X117500Y117000D01*
X117500Y125500D01*
X100500Y125500D01*
X121500Y125000D02*
X121500Y116000D01*
X139000Y116000D01*
X139000Y125000D01*
X121500Y125000D01*
X101500Y116000D02*
X101500Y107000D01*
X118000Y107000D01*
X118000Y116000D01*
X101500Y116000D01*
X123500Y85500D02*
X123500Y76000D01*
X141000Y76000D01*
X141000Y85500D01*
X123500Y85500D01*
X123500Y66000D02*
X140500Y66000D01*
X140500Y75000D01*
X123500Y75000D01*
X123500Y66000D01*
X21500Y113500D02*
X5000Y113500D01*
X21500Y113500D02*
X21500Y122500D01*
X5000Y122500D01*
X5000Y113500D01*
X11000Y74000D02*
X11000Y57000D01*
X19500Y57000D01*
X19500Y74000D01*
X11000Y74000D01*
X11000Y56000D02*
X20000Y56000D01*
X19500Y55500D01*
X19500Y39000D01*
X11000Y39000D01*
X11000Y56000D01*
X18556Y179990D02*
X2056Y179990D01*
X2048Y179939D02*
X2048Y170939D01*
X18604Y170961D02*
X18604Y179961D01*
X96000Y23000D02*
X106000Y23000D01*
X115000Y23000D01*
X125000Y23000D01*
X125000Y40000D01*
X115000Y40000D01*
X106000Y40000D01*
X96000Y40000D01*
X96000Y23000D01*
X106000Y23000D02*
X106000Y40000D01*
X115000Y40000D02*
X115000Y23000D01*
X108000Y11500D02*
X125000Y11500D01*
X125000Y20500D01*
X108000Y20500D01*
X108000Y11500D01*
D11*
X134001Y5886D02*
X135187Y5878D01*
X135159Y1927D01*
X132789Y1943D01*
X132789Y1944D02*
X132711Y1946D01*
X132634Y1953D01*
X132557Y1963D01*
X132481Y1977D01*
X132405Y1994D01*
X132331Y2015D01*
X132257Y2040D01*
X132185Y2069D01*
X132115Y2100D01*
X132045Y2136D01*
X131978Y2174D01*
X131913Y2216D01*
X131850Y2262D01*
X131789Y2310D01*
X131731Y2361D01*
X131675Y2415D01*
X131622Y2471D01*
X131572Y2530D01*
X131524Y2592D01*
X131480Y2655D01*
X131439Y2721D01*
X131401Y2789D01*
X131367Y2858D01*
X131336Y2930D01*
X131309Y3002D01*
X131285Y3076D01*
X131265Y3151D01*
X131248Y3227D01*
X131236Y3303D01*
X131227Y3380D01*
X131221Y3458D01*
X131220Y3535D01*
X131219Y3535D02*
X131247Y7486D01*
X131249Y7564D01*
X131256Y7641D01*
X131266Y7718D01*
X131280Y7794D01*
X131297Y7870D01*
X131318Y7944D01*
X131343Y8018D01*
X131372Y8090D01*
X131403Y8160D01*
X131439Y8230D01*
X131477Y8297D01*
X131519Y8362D01*
X131565Y8425D01*
X131613Y8486D01*
X131664Y8544D01*
X131718Y8600D01*
X131774Y8653D01*
X131833Y8703D01*
X131895Y8751D01*
X131958Y8795D01*
X132024Y8836D01*
X132092Y8874D01*
X132161Y8908D01*
X132233Y8939D01*
X132305Y8966D01*
X132379Y8990D01*
X132454Y9010D01*
X132530Y9027D01*
X132606Y9039D01*
X132683Y9048D01*
X132760Y9054D01*
X132838Y9055D01*
X135209Y9039D01*
D10*
X26000Y5000D02*
X16000Y5000D01*
X26000Y5000D02*
X35000Y5000D01*
X35000Y22000D01*
X26000Y22000D01*
X16000Y22000D01*
X16000Y5000D01*
X26000Y5000D02*
X26000Y22000D01*
D12*
X94969Y119519D02*
X98017Y119519D01*
X29945Y119519D02*
X26897Y119519D01*
X26897Y51447D02*
X26897Y48399D01*
X26897Y116471D02*
X26897Y119519D01*
X94969Y48399D02*
X98017Y48399D01*
X29945Y48399D02*
X26897Y48399D01*
X98017Y48399D02*
X98017Y51447D01*
X98017Y116471D02*
X98017Y119519D01*
D13*
X90143Y124599D02*
X90073Y124601D01*
X90003Y124607D01*
X89934Y124616D01*
X89865Y124630D01*
X89797Y124647D01*
X89731Y124668D01*
X89665Y124692D01*
X89601Y124720D01*
X89539Y124752D01*
X89478Y124787D01*
X89419Y124825D01*
X89363Y124867D01*
X89309Y124911D01*
X89257Y124959D01*
X89209Y125009D01*
X89163Y125062D01*
X89120Y125117D01*
X89080Y125174D01*
X89043Y125234D01*
X89010Y125296D01*
X88980Y125359D01*
X88954Y125424D01*
X88931Y125490D01*
X88912Y125557D01*
X88897Y125626D01*
X88885Y125695D01*
X88877Y125764D01*
X88873Y125834D01*
X88873Y125904D01*
X88877Y125974D01*
X88885Y126043D01*
X88897Y126112D01*
X88912Y126181D01*
X88931Y126248D01*
X88954Y126314D01*
X88980Y126379D01*
X89010Y126442D01*
X89043Y126504D01*
X89080Y126564D01*
X89120Y126621D01*
X89163Y126676D01*
X89209Y126729D01*
X89257Y126779D01*
X89309Y126827D01*
X89363Y126871D01*
X89419Y126913D01*
X89478Y126951D01*
X89539Y126986D01*
X89601Y127018D01*
X89665Y127046D01*
X89731Y127070D01*
X89797Y127091D01*
X89865Y127108D01*
X89934Y127122D01*
X90003Y127131D01*
X90073Y127137D01*
X90143Y127139D01*
X90213Y127137D01*
X90283Y127131D01*
X90352Y127122D01*
X90421Y127108D01*
X90489Y127091D01*
X90555Y127070D01*
X90621Y127046D01*
X90685Y127018D01*
X90747Y126986D01*
X90808Y126951D01*
X90867Y126913D01*
X90923Y126871D01*
X90977Y126827D01*
X91029Y126779D01*
X91077Y126729D01*
X91123Y126676D01*
X91166Y126621D01*
X91206Y126564D01*
X91243Y126504D01*
X91276Y126442D01*
X91306Y126379D01*
X91332Y126314D01*
X91355Y126248D01*
X91374Y126181D01*
X91389Y126112D01*
X91401Y126043D01*
X91409Y125974D01*
X91413Y125904D01*
X91413Y125834D01*
X91409Y125764D01*
X91401Y125695D01*
X91389Y125626D01*
X91374Y125557D01*
X91355Y125490D01*
X91332Y125424D01*
X91306Y125359D01*
X91276Y125296D01*
X91243Y125234D01*
X91206Y125174D01*
X91166Y125117D01*
X91123Y125062D01*
X91077Y125009D01*
X91029Y124959D01*
X90977Y124911D01*
X90923Y124867D01*
X90867Y124825D01*
X90808Y124787D01*
X90747Y124752D01*
X90685Y124720D01*
X90621Y124692D01*
X90555Y124668D01*
X90489Y124647D01*
X90421Y124630D01*
X90352Y124616D01*
X90283Y124607D01*
X90213Y124601D01*
X90143Y124599D01*
D14*
X92764Y23297D02*
X92764Y18197D01*
X78764Y18197D02*
X78764Y23297D01*
X38840Y23237D02*
X38840Y18137D01*
X52840Y18137D02*
X52840Y23237D01*
X23132Y26029D02*
X18230Y26029D01*
X18230Y35029D02*
X23132Y35029D01*
X72844Y23204D02*
X72844Y18104D01*
X58844Y18104D02*
X58844Y23204D01*
D15*
X125294Y113538D02*
X125232Y113540D01*
X125171Y113546D01*
X125110Y113555D01*
X125050Y113568D01*
X124991Y113585D01*
X124933Y113606D01*
X124876Y113630D01*
X124821Y113657D01*
X124768Y113688D01*
X124716Y113722D01*
X124667Y113759D01*
X124620Y113799D01*
X124576Y113842D01*
X124535Y113887D01*
X124496Y113935D01*
X124460Y113986D01*
X124428Y114038D01*
X124399Y114092D01*
X124373Y114148D01*
X124351Y114206D01*
X124332Y114264D01*
X124317Y114324D01*
X124306Y114385D01*
X124298Y114446D01*
X124294Y114507D01*
X124294Y114569D01*
X124298Y114630D01*
X124306Y114691D01*
X124317Y114752D01*
X124332Y114812D01*
X124351Y114870D01*
X124373Y114928D01*
X124399Y114984D01*
X124428Y115038D01*
X124460Y115090D01*
X124496Y115141D01*
X124535Y115189D01*
X124576Y115234D01*
X124620Y115277D01*
X124667Y115317D01*
X124716Y115354D01*
X124768Y115388D01*
X124821Y115419D01*
X124876Y115446D01*
X124933Y115470D01*
X124991Y115491D01*
X125050Y115508D01*
X125110Y115521D01*
X125171Y115530D01*
X125232Y115536D01*
X125294Y115538D01*
X125356Y115536D01*
X125417Y115530D01*
X125478Y115521D01*
X125538Y115508D01*
X125597Y115491D01*
X125655Y115470D01*
X125712Y115446D01*
X125767Y115419D01*
X125820Y115388D01*
X125872Y115354D01*
X125921Y115317D01*
X125968Y115277D01*
X126012Y115234D01*
X126053Y115189D01*
X126092Y115141D01*
X126128Y115090D01*
X126160Y115038D01*
X126189Y114984D01*
X126215Y114928D01*
X126237Y114870D01*
X126256Y114812D01*
X126271Y114752D01*
X126282Y114691D01*
X126290Y114630D01*
X126294Y114569D01*
X126294Y114507D01*
X126290Y114446D01*
X126282Y114385D01*
X126271Y114324D01*
X126256Y114264D01*
X126237Y114206D01*
X126215Y114148D01*
X126189Y114092D01*
X126160Y114038D01*
X126128Y113986D01*
X126092Y113935D01*
X126053Y113887D01*
X126012Y113842D01*
X125968Y113799D01*
X125921Y113759D01*
X125872Y113722D01*
X125820Y113688D01*
X125767Y113657D01*
X125712Y113630D01*
X125655Y113606D01*
X125597Y113585D01*
X125538Y113568D01*
X125478Y113555D01*
X125417Y113546D01*
X125356Y113540D01*
X125294Y113538D01*
D16*
X122511Y132818D02*
X122511Y146818D01*
X122511Y132818D02*
X148511Y132818D01*
X148511Y174818D02*
X122511Y174818D01*
X122511Y160818D01*
X148511Y146818D02*
X148511Y132818D01*
X148511Y160818D02*
X148511Y174818D01*
X121511Y146818D02*
X121511Y133818D01*
X121511Y160818D02*
X121511Y173818D01*
X120511Y146818D02*
X120511Y132818D01*
X120511Y160818D02*
X120511Y174818D01*
X120511Y132818D02*
X122511Y132818D01*
X122511Y146818D02*
X120511Y146818D01*
X120511Y160818D02*
X122511Y160818D01*
X122511Y174818D02*
X120511Y174818D01*
D12*
X51922Y127747D02*
X45922Y127747D01*
X45922Y139747D02*
X51922Y139747D01*
D15*
X30024Y133341D02*
X30026Y133404D01*
X30032Y133466D01*
X30042Y133528D01*
X30055Y133590D01*
X30073Y133650D01*
X30094Y133709D01*
X30119Y133767D01*
X30148Y133823D01*
X30180Y133877D01*
X30215Y133929D01*
X30253Y133978D01*
X30295Y134026D01*
X30339Y134070D01*
X30387Y134112D01*
X30436Y134150D01*
X30488Y134185D01*
X30542Y134217D01*
X30598Y134246D01*
X30656Y134271D01*
X30715Y134292D01*
X30775Y134310D01*
X30837Y134323D01*
X30899Y134333D01*
X30961Y134339D01*
X31024Y134341D01*
X31087Y134339D01*
X31149Y134333D01*
X31211Y134323D01*
X31273Y134310D01*
X31333Y134292D01*
X31392Y134271D01*
X31450Y134246D01*
X31506Y134217D01*
X31560Y134185D01*
X31612Y134150D01*
X31661Y134112D01*
X31709Y134070D01*
X31753Y134026D01*
X31795Y133978D01*
X31833Y133929D01*
X31868Y133877D01*
X31900Y133823D01*
X31929Y133767D01*
X31954Y133709D01*
X31975Y133650D01*
X31993Y133590D01*
X32006Y133528D01*
X32016Y133466D01*
X32022Y133404D01*
X32024Y133341D01*
X32022Y133278D01*
X32016Y133216D01*
X32006Y133154D01*
X31993Y133092D01*
X31975Y133032D01*
X31954Y132973D01*
X31929Y132915D01*
X31900Y132859D01*
X31868Y132805D01*
X31833Y132753D01*
X31795Y132704D01*
X31753Y132656D01*
X31709Y132612D01*
X31661Y132570D01*
X31612Y132532D01*
X31560Y132497D01*
X31506Y132465D01*
X31450Y132436D01*
X31392Y132411D01*
X31333Y132390D01*
X31273Y132372D01*
X31211Y132359D01*
X31149Y132349D01*
X31087Y132343D01*
X31024Y132341D01*
X30961Y132343D01*
X30899Y132349D01*
X30837Y132359D01*
X30775Y132372D01*
X30715Y132390D01*
X30656Y132411D01*
X30598Y132436D01*
X30542Y132465D01*
X30488Y132497D01*
X30436Y132532D01*
X30387Y132570D01*
X30339Y132612D01*
X30295Y132656D01*
X30253Y132704D01*
X30215Y132753D01*
X30180Y132805D01*
X30148Y132859D01*
X30119Y132915D01*
X30094Y132973D01*
X30073Y133032D01*
X30055Y133092D01*
X30042Y133154D01*
X30032Y133216D01*
X30026Y133278D01*
X30024Y133341D01*
D10*
X128154Y40762D02*
X137679Y40762D01*
M02*
