G04 EAGLE Gerber RS-274X export*
G75*
%MOMM*%
%FSLAX34Y34*%
%LPD*%
%INSoldermask Top*%
%IPPOS*%
%AMOC8*
5,1,8,0,0,1.08239X$1,22.5*%
G01*
%ADD10R,0.356838X0.716838*%
%ADD11R,0.716838X0.356838*%
%ADD12R,5.266838X5.266838*%
%ADD13C,0.616838*%
%ADD14C,0.400669*%
%ADD15C,0.614259*%
%ADD16C,0.516897*%
%ADD17R,0.966838X1.066838*%
%ADD18C,0.387531*%
%ADD19R,2.316838X1.166837*%
%ADD20R,0.916838X1.116838*%
%ADD21C,1.132838*%
%ADD22R,0.716838X1.216838*%
%ADD23R,0.676837X0.466838*%
%ADD24R,0.316837X1.716838*%
%ADD25C,0.413228*%


D10*
X89957Y117959D03*
X84957Y117959D03*
X79957Y117959D03*
X74957Y117959D03*
X69957Y117959D03*
X64957Y117959D03*
X59957Y117959D03*
X54957Y117959D03*
X49957Y117959D03*
X44957Y117959D03*
X39957Y117959D03*
X34957Y117959D03*
D11*
X28457Y111459D03*
X28457Y106459D03*
X28457Y101459D03*
X28457Y96459D03*
X28457Y91459D03*
X28457Y86459D03*
X28457Y81459D03*
X28457Y76459D03*
X28457Y71459D03*
X28457Y66459D03*
X28457Y61459D03*
X28457Y56459D03*
D10*
X34957Y49959D03*
X39957Y49959D03*
X44957Y49959D03*
X49957Y49959D03*
X54957Y49959D03*
X59957Y49959D03*
X64957Y49959D03*
X69957Y49959D03*
X74957Y49959D03*
X79957Y49959D03*
X84957Y49959D03*
X89957Y49959D03*
D11*
X96457Y56459D03*
X96457Y61459D03*
X96457Y66459D03*
X96457Y71459D03*
X96457Y76459D03*
X96457Y81459D03*
X96457Y86459D03*
X96457Y91459D03*
X96457Y96459D03*
X96457Y101459D03*
X96457Y106459D03*
X96457Y111459D03*
D12*
X62457Y83959D03*
D13*
X39207Y71359D03*
X39207Y83959D03*
X39207Y96559D03*
X85707Y71359D03*
X85707Y83959D03*
X85707Y96559D03*
X49857Y60709D03*
X62457Y60709D03*
X75057Y60709D03*
X49857Y107209D03*
X62457Y107209D03*
X75057Y107209D03*
X49857Y83959D03*
X62457Y83705D03*
X75057Y83959D03*
X49857Y71359D03*
X62457Y71359D03*
X75057Y71359D03*
X49857Y96559D03*
X62457Y96559D03*
X75057Y96559D03*
D14*
X19304Y10758D02*
X19304Y8196D01*
X19304Y10758D02*
X22466Y10758D01*
X22466Y8196D01*
X19304Y8196D01*
X22466Y16796D02*
X22466Y19358D01*
X22466Y16796D02*
X19304Y16796D01*
X19304Y19358D01*
X22466Y19358D01*
X29226Y10830D02*
X29226Y8268D01*
X29226Y10830D02*
X32388Y10830D01*
X32388Y8268D01*
X29226Y8268D01*
X32388Y16868D02*
X32388Y19430D01*
X32388Y16868D02*
X29226Y16868D01*
X29226Y19430D01*
X32388Y19430D01*
X121486Y34879D02*
X121486Y37441D01*
X121486Y34879D02*
X118324Y34879D01*
X118324Y37441D01*
X121486Y37441D01*
X118324Y28841D02*
X118324Y26279D01*
X118324Y28841D02*
X121486Y28841D01*
X121486Y26279D01*
X118324Y26279D01*
X108772Y26304D02*
X108772Y28866D01*
X111934Y28866D01*
X111934Y26304D01*
X108772Y26304D01*
X111934Y34904D02*
X111934Y37466D01*
X111934Y34904D02*
X108772Y34904D01*
X108772Y37466D01*
X111934Y37466D01*
X13880Y42132D02*
X13880Y44694D01*
X17042Y44694D01*
X17042Y42132D01*
X13880Y42132D01*
X17042Y50732D02*
X17042Y53294D01*
X17042Y50732D02*
X13880Y50732D01*
X13880Y53294D01*
X17042Y53294D01*
X56189Y153751D02*
X56194Y156312D01*
X56189Y153751D02*
X53028Y153756D01*
X53033Y156317D01*
X56194Y156312D01*
X53018Y147717D02*
X53013Y145156D01*
X53018Y147717D02*
X56179Y147712D01*
X56174Y145151D01*
X53013Y145156D01*
X45186Y153681D02*
X45186Y156243D01*
X45186Y153681D02*
X42024Y153681D01*
X42024Y156243D01*
X45186Y156243D01*
X42024Y147643D02*
X42024Y145081D01*
X42024Y147643D02*
X45186Y147643D01*
X45186Y145081D01*
X42024Y145081D01*
X18771Y116594D02*
X16209Y116594D01*
X16209Y119756D01*
X18771Y119756D01*
X18771Y116594D01*
X10171Y119756D02*
X7609Y119756D01*
X10171Y119756D02*
X10171Y116594D01*
X7609Y116594D01*
X7609Y119756D01*
X16976Y71060D02*
X16976Y68498D01*
X13814Y68498D01*
X13814Y71060D01*
X16976Y71060D01*
X13814Y62460D02*
X13814Y59898D01*
X13814Y62460D02*
X16976Y62460D01*
X16976Y59898D01*
X13814Y59898D01*
X126343Y72179D02*
X128905Y72179D01*
X128905Y69017D01*
X126343Y69017D01*
X126343Y72179D01*
X134943Y69017D02*
X137505Y69017D01*
X134943Y69017D02*
X134943Y72179D01*
X137505Y72179D01*
X137505Y69017D01*
X102340Y37454D02*
X102340Y34892D01*
X99178Y34892D01*
X99178Y37454D01*
X102340Y37454D01*
X99178Y28854D02*
X99178Y26292D01*
X99178Y28854D02*
X102340Y28854D01*
X102340Y26292D01*
X99178Y26292D01*
D15*
X90377Y27584D02*
X90377Y32610D01*
X90377Y27584D02*
X81151Y27584D01*
X81151Y32610D01*
X90377Y32610D01*
X81151Y13910D02*
X81151Y8884D01*
X81151Y13910D02*
X90377Y13910D01*
X90377Y8884D01*
X81151Y8884D01*
X41227Y8824D02*
X41227Y13850D01*
X50453Y13850D01*
X50453Y8824D01*
X41227Y8824D01*
X50453Y27524D02*
X50453Y32550D01*
X50453Y27524D02*
X41227Y27524D01*
X41227Y32550D01*
X50453Y32550D01*
D14*
X104145Y113061D02*
X106707Y113061D01*
X106707Y109899D01*
X104145Y109899D01*
X104145Y113061D01*
X112745Y109899D02*
X115307Y109899D01*
X112745Y109899D02*
X112745Y113061D01*
X115307Y113061D01*
X115307Y109899D01*
X106102Y122757D02*
X103540Y122757D01*
X106102Y122757D02*
X106102Y119595D01*
X103540Y119595D01*
X103540Y122757D01*
X112140Y119595D02*
X114702Y119595D01*
X112140Y119595D02*
X112140Y122757D01*
X114702Y122757D01*
X114702Y119595D01*
D16*
X14431Y33179D02*
X10531Y33179D01*
X14431Y33179D02*
X14431Y27879D01*
X10531Y27879D01*
X10531Y33179D01*
X10531Y32790D02*
X14431Y32790D01*
X26931Y27879D02*
X30831Y27879D01*
X26931Y27879D02*
X26931Y33179D01*
X30831Y33179D01*
X30831Y27879D01*
X30831Y32790D02*
X26931Y32790D01*
D15*
X70457Y32517D02*
X70457Y27491D01*
X61231Y27491D01*
X61231Y32517D01*
X70457Y32517D01*
X61231Y13817D02*
X61231Y8791D01*
X61231Y13817D02*
X70457Y13817D01*
X70457Y8791D01*
X61231Y8791D01*
D17*
X125544Y107328D03*
X125544Y92828D03*
X137044Y92828D03*
X137044Y107328D03*
D18*
X81372Y132492D02*
X81372Y135186D01*
X81372Y132492D02*
X78078Y132492D01*
X78078Y135186D01*
X81372Y135186D01*
X81372Y141132D02*
X81372Y143826D01*
X81372Y141132D02*
X78078Y141132D01*
X78078Y143826D01*
X81372Y143826D01*
X71144Y135267D02*
X71144Y132573D01*
X67850Y132573D01*
X67850Y135267D01*
X71144Y135267D01*
X71144Y141213D02*
X71144Y143907D01*
X71144Y141213D02*
X67850Y141213D01*
X67850Y143907D01*
X71144Y143907D01*
X109056Y144030D02*
X109056Y141336D01*
X109056Y144030D02*
X112350Y144030D01*
X112350Y141336D01*
X109056Y141336D01*
X109056Y135390D02*
X109056Y132696D01*
X109056Y135390D02*
X112350Y135390D01*
X112350Y132696D01*
X109056Y132696D01*
X91703Y132596D02*
X91703Y135290D01*
X91703Y132596D02*
X88409Y132596D01*
X88409Y135290D01*
X91703Y135290D01*
X91703Y141236D02*
X91703Y143930D01*
X91703Y141236D02*
X88409Y141236D01*
X88409Y143930D01*
X91703Y143930D01*
X70484Y161041D02*
X70484Y163735D01*
X73778Y163735D01*
X73778Y161041D01*
X70484Y161041D01*
X70484Y155095D02*
X70484Y152401D01*
X70484Y155095D02*
X73778Y155095D01*
X73778Y152401D01*
X70484Y152401D01*
X112241Y161231D02*
X112241Y163925D01*
X112241Y161231D02*
X108947Y161231D01*
X108947Y163925D01*
X112241Y163925D01*
X112241Y169871D02*
X112241Y172565D01*
X112241Y169871D02*
X108947Y169871D01*
X108947Y172565D01*
X112241Y172565D01*
X101939Y135290D02*
X101939Y132596D01*
X98645Y132596D01*
X98645Y135290D01*
X101939Y135290D01*
X101939Y141236D02*
X101939Y143930D01*
X101939Y141236D02*
X98645Y141236D01*
X98645Y143930D01*
X101939Y143930D01*
X84179Y152581D02*
X84179Y155275D01*
X84179Y152581D02*
X80885Y152581D01*
X80885Y155275D01*
X84179Y155275D01*
X84179Y161221D02*
X84179Y163915D01*
X84179Y161221D02*
X80885Y161221D01*
X80885Y163915D01*
X84179Y163915D01*
X91043Y160775D02*
X93737Y160775D01*
X91043Y160775D02*
X91043Y164069D01*
X93737Y164069D01*
X93737Y160775D01*
X99683Y160775D02*
X102377Y160775D01*
X99683Y160775D02*
X99683Y164069D01*
X102377Y164069D01*
X102377Y160775D01*
X135161Y82453D02*
X137855Y82453D01*
X137855Y79159D01*
X135161Y79159D01*
X135161Y82453D01*
X129215Y82453D02*
X126521Y82453D01*
X129215Y82453D02*
X129215Y79159D01*
X126521Y79159D01*
X126521Y82453D01*
X127514Y118825D02*
X124820Y118825D01*
X124820Y122119D01*
X127514Y122119D01*
X127514Y118825D01*
X133460Y118825D02*
X136154Y118825D01*
X133460Y118825D02*
X133460Y122119D01*
X136154Y122119D01*
X136154Y118825D01*
D19*
X135511Y140068D03*
X135511Y167568D03*
D20*
X120261Y153818D03*
D21*
X149067Y72065D03*
X149067Y84765D03*
X149067Y59365D03*
X149067Y97465D03*
X149067Y46665D03*
X149067Y110165D03*
X149067Y33965D03*
X149067Y21265D03*
X80830Y-1511D03*
X93530Y-1511D03*
X68130Y-1511D03*
X106230Y-1511D03*
X55430Y-1511D03*
X118930Y-1511D03*
X42730Y-1511D03*
X30030Y-1511D03*
X247Y71818D03*
X247Y84518D03*
X247Y59118D03*
X247Y97218D03*
X247Y46418D03*
X247Y109918D03*
X247Y33718D03*
X247Y21018D03*
D22*
X55922Y133747D03*
X41922Y133747D03*
D23*
X31590Y136432D03*
X31590Y141432D03*
X31590Y146432D03*
X31590Y151432D03*
X6890Y151432D03*
X6890Y146432D03*
X6890Y141432D03*
X6890Y136432D03*
D24*
X19240Y143932D03*
D14*
X7156Y163585D02*
X4594Y163585D01*
X7156Y163585D02*
X7156Y160423D01*
X4594Y160423D01*
X4594Y163585D01*
X13194Y160423D02*
X15756Y160423D01*
X13194Y160423D02*
X13194Y163585D01*
X15756Y163585D01*
X15756Y160423D01*
X22371Y173204D02*
X24933Y173204D01*
X24933Y170042D01*
X22371Y170042D01*
X22371Y173204D01*
X30971Y170042D02*
X33533Y170042D01*
X30971Y170042D02*
X30971Y173204D01*
X33533Y173204D01*
X33533Y170042D01*
X24955Y163624D02*
X22393Y163624D01*
X24955Y163624D02*
X24955Y160462D01*
X22393Y160462D01*
X22393Y163624D01*
X30993Y160462D02*
X33555Y160462D01*
X30993Y160462D02*
X30993Y163624D01*
X33555Y163624D01*
X33555Y160462D01*
D25*
X129398Y30139D02*
X136434Y30139D01*
X129398Y30139D02*
X129398Y37175D01*
X136434Y37175D01*
X136434Y30139D01*
X136434Y34064D02*
X129398Y34064D01*
X129398Y12599D02*
X136434Y12599D01*
X129398Y12599D02*
X129398Y19635D01*
X136434Y19635D01*
X136434Y12599D01*
X136434Y16524D02*
X129398Y16524D01*
D14*
X113229Y17637D02*
X110667Y17637D01*
X113229Y17637D02*
X113229Y14475D01*
X110667Y14475D01*
X110667Y17637D01*
X119267Y14475D02*
X121829Y14475D01*
X119267Y14475D02*
X119267Y17637D01*
X121829Y17637D01*
X121829Y14475D01*
X7326Y173236D02*
X4764Y173236D01*
X7326Y173236D02*
X7326Y170074D01*
X4764Y170074D01*
X4764Y173236D01*
X13364Y170074D02*
X15926Y170074D01*
X13364Y170074D02*
X13364Y173236D01*
X15926Y173236D01*
X15926Y170074D01*
D18*
X108958Y163927D02*
X108958Y161233D01*
X108958Y163927D02*
X112252Y163927D01*
X112252Y161233D01*
X108958Y161233D01*
X108958Y155287D02*
X108958Y152593D01*
X108958Y155287D02*
X112252Y155287D01*
X112252Y152593D01*
X108958Y152593D01*
M02*
