G04 EAGLE Gerber RS-274X export*
G75*
%MOMM*%
%FSLAX34Y34*%
%LPD*%
%INSoldermask Top*%
%IPPOS*%
%AMOC8*
5,1,8,0,0,1.08239X$1,22.5*%
G01*
%ADD10R,0.367000X0.727000*%
%ADD11R,0.727000X0.367000*%
%ADD12R,5.277000X5.277000*%
%ADD13C,0.627000*%
%ADD14C,0.406869*%
%ADD15C,0.631119*%
%ADD16C,0.531859*%
%ADD17R,0.977000X1.077000*%
%ADD18C,0.400200*%
%ADD19R,2.327000X1.177000*%
%ADD20R,0.927000X1.127000*%
%ADD21C,1.143000*%
%ADD22R,0.727000X1.227000*%
%ADD23R,0.687000X0.477000*%
%ADD24R,0.327000X1.727000*%
%ADD25C,0.428259*%


D10*
X89957Y117959D03*
X84957Y117959D03*
X79957Y117959D03*
X74957Y117959D03*
X69957Y117959D03*
X64957Y117959D03*
X59957Y117959D03*
X54957Y117959D03*
X49957Y117959D03*
X44957Y117959D03*
X39957Y117959D03*
X34957Y117959D03*
D11*
X28457Y111459D03*
X28457Y106459D03*
X28457Y101459D03*
X28457Y96459D03*
X28457Y91459D03*
X28457Y86459D03*
X28457Y81459D03*
X28457Y76459D03*
X28457Y71459D03*
X28457Y66459D03*
X28457Y61459D03*
X28457Y56459D03*
D10*
X34957Y49959D03*
X39957Y49959D03*
X44957Y49959D03*
X49957Y49959D03*
X54957Y49959D03*
X59957Y49959D03*
X64957Y49959D03*
X69957Y49959D03*
X74957Y49959D03*
X79957Y49959D03*
X84957Y49959D03*
X89957Y49959D03*
D11*
X96457Y56459D03*
X96457Y61459D03*
X96457Y66459D03*
X96457Y71459D03*
X96457Y76459D03*
X96457Y81459D03*
X96457Y86459D03*
X96457Y91459D03*
X96457Y96459D03*
X96457Y101459D03*
X96457Y106459D03*
X96457Y111459D03*
D12*
X62457Y83959D03*
D13*
X39207Y71359D03*
X39207Y83959D03*
X39207Y96559D03*
X85707Y71359D03*
X85707Y83959D03*
X85707Y96559D03*
X49857Y60709D03*
X62457Y60709D03*
X75057Y60709D03*
X49857Y107209D03*
X62457Y107209D03*
X75057Y107209D03*
X49857Y83959D03*
X62457Y83705D03*
X75057Y83959D03*
X49857Y71359D03*
X62457Y71359D03*
X75057Y71359D03*
X49857Y96559D03*
X62457Y96559D03*
X75057Y96559D03*
D14*
X26633Y17123D02*
X24031Y17123D01*
X24031Y20325D01*
X26633Y20325D01*
X26633Y17123D01*
X18033Y20325D02*
X15431Y20325D01*
X18033Y20325D02*
X18033Y17123D01*
X15431Y17123D01*
X15431Y20325D01*
X23998Y8141D02*
X26600Y8141D01*
X23998Y8141D02*
X23998Y11343D01*
X26600Y11343D01*
X26600Y8141D01*
X18000Y11343D02*
X15398Y11343D01*
X18000Y11343D02*
X18000Y8141D01*
X15398Y8141D01*
X15398Y11343D01*
X134547Y34147D02*
X134547Y36749D01*
X134547Y34147D02*
X131345Y34147D01*
X131345Y36749D01*
X134547Y36749D01*
X131345Y28149D02*
X131345Y25547D01*
X131345Y28149D02*
X134547Y28149D01*
X134547Y25547D01*
X131345Y25547D01*
X122647Y25511D02*
X122647Y28113D01*
X125849Y28113D01*
X125849Y25511D01*
X122647Y25511D01*
X125849Y34111D02*
X125849Y36713D01*
X125849Y34111D02*
X122647Y34111D01*
X122647Y36713D01*
X125849Y36713D01*
X13860Y42112D02*
X13860Y44714D01*
X17062Y44714D01*
X17062Y42112D01*
X13860Y42112D01*
X17062Y50712D02*
X17062Y53314D01*
X17062Y50712D02*
X13860Y50712D01*
X13860Y53314D01*
X17062Y53314D01*
X56209Y153731D02*
X56214Y156332D01*
X56209Y153731D02*
X53008Y153736D01*
X53013Y156337D01*
X56214Y156332D01*
X52998Y147737D02*
X52993Y145136D01*
X52998Y147737D02*
X56199Y147732D01*
X56194Y145131D01*
X52993Y145136D01*
X45206Y153661D02*
X45206Y156263D01*
X45206Y153661D02*
X42004Y153661D01*
X42004Y156263D01*
X45206Y156263D01*
X42004Y147663D02*
X42004Y145061D01*
X42004Y147663D02*
X45206Y147663D01*
X45206Y145061D01*
X42004Y145061D01*
X18891Y116475D02*
X16289Y116475D01*
X16289Y119677D01*
X18891Y119677D01*
X18891Y116475D01*
X10291Y119677D02*
X7689Y119677D01*
X10291Y119677D02*
X10291Y116475D01*
X7689Y116475D01*
X7689Y119677D01*
X16996Y71080D02*
X16996Y68478D01*
X13794Y68478D01*
X13794Y71080D01*
X16996Y71080D01*
X13794Y62480D02*
X13794Y59878D01*
X13794Y62480D02*
X16996Y62480D01*
X16996Y59878D01*
X13794Y59878D01*
X126323Y72199D02*
X128925Y72199D01*
X128925Y68997D01*
X126323Y68997D01*
X126323Y72199D01*
X134923Y68997D02*
X137525Y68997D01*
X134923Y68997D02*
X134923Y72199D01*
X137525Y72199D01*
X137525Y68997D01*
X116331Y36758D02*
X116331Y34156D01*
X113129Y34156D01*
X113129Y36758D01*
X116331Y36758D01*
X113129Y28158D02*
X113129Y25556D01*
X113129Y28158D02*
X116331Y28158D01*
X116331Y25556D01*
X113129Y25556D01*
D15*
X100729Y27617D02*
X100729Y32577D01*
X100729Y27617D02*
X91569Y27617D01*
X91569Y32577D01*
X100729Y32577D01*
X91569Y13877D02*
X91569Y8917D01*
X91569Y13877D02*
X100729Y13877D01*
X100729Y8917D01*
X91569Y8917D01*
X51866Y9000D02*
X51866Y13960D01*
X61026Y13960D01*
X61026Y9000D01*
X51866Y9000D01*
X61026Y27700D02*
X61026Y32660D01*
X61026Y27700D02*
X51866Y27700D01*
X51866Y32660D01*
X61026Y32660D01*
D14*
X104125Y113081D02*
X106727Y113081D01*
X106727Y109879D01*
X104125Y109879D01*
X104125Y113081D01*
X112725Y109879D02*
X115327Y109879D01*
X112725Y109879D02*
X112725Y113081D01*
X115327Y113081D01*
X115327Y109879D01*
X106122Y122777D02*
X103520Y122777D01*
X106122Y122777D02*
X106122Y119575D01*
X103520Y119575D01*
X103520Y122777D01*
X112120Y119575D02*
X114722Y119575D01*
X112120Y119575D02*
X112120Y122777D01*
X114722Y122777D01*
X114722Y119575D01*
D16*
X18486Y33155D02*
X14634Y33155D01*
X18486Y33155D02*
X18486Y27903D01*
X14634Y27903D01*
X14634Y33155D01*
X14634Y32956D02*
X18486Y32956D01*
X31034Y27903D02*
X34886Y27903D01*
X31034Y27903D02*
X31034Y33155D01*
X34886Y33155D01*
X34886Y27903D01*
X34886Y32956D02*
X31034Y32956D01*
D15*
X80818Y32548D02*
X80818Y27588D01*
X71658Y27588D01*
X71658Y32548D01*
X80818Y32548D01*
X71658Y13848D02*
X71658Y8888D01*
X71658Y13848D02*
X80818Y13848D01*
X80818Y8888D01*
X71658Y8888D01*
D17*
X125544Y107328D03*
X125544Y92828D03*
X137044Y92828D03*
X137044Y107328D03*
D18*
X81359Y132505D02*
X81359Y135173D01*
X81359Y132505D02*
X78091Y132505D01*
X78091Y135173D01*
X81359Y135173D01*
X81359Y141145D02*
X81359Y143813D01*
X81359Y141145D02*
X78091Y141145D01*
X78091Y143813D01*
X81359Y143813D01*
X71131Y135254D02*
X71131Y132586D01*
X67863Y132586D01*
X67863Y135254D01*
X71131Y135254D01*
X71131Y141226D02*
X71131Y143894D01*
X71131Y141226D02*
X67863Y141226D01*
X67863Y143894D01*
X71131Y143894D01*
X109069Y144017D02*
X109069Y141349D01*
X109069Y144017D02*
X112337Y144017D01*
X112337Y141349D01*
X109069Y141349D01*
X109069Y135377D02*
X109069Y132709D01*
X109069Y135377D02*
X112337Y135377D01*
X112337Y132709D01*
X109069Y132709D01*
X91690Y132609D02*
X91690Y135277D01*
X91690Y132609D02*
X88422Y132609D01*
X88422Y135277D01*
X91690Y135277D01*
X91690Y141249D02*
X91690Y143917D01*
X91690Y141249D02*
X88422Y141249D01*
X88422Y143917D01*
X91690Y143917D01*
X67890Y159568D02*
X67890Y162236D01*
X71158Y162236D01*
X71158Y159568D01*
X67890Y159568D01*
X67890Y153596D02*
X67890Y150928D01*
X67890Y153596D02*
X71158Y153596D01*
X71158Y150928D01*
X67890Y150928D01*
X97977Y169839D02*
X97977Y172507D01*
X101245Y172507D01*
X101245Y169839D01*
X97977Y169839D01*
X97977Y163867D02*
X97977Y161199D01*
X97977Y163867D02*
X101245Y163867D01*
X101245Y161199D01*
X97977Y161199D01*
X112017Y161346D02*
X112036Y164013D01*
X112017Y161346D02*
X108750Y161369D01*
X108769Y164036D01*
X112036Y164013D01*
X112078Y169985D02*
X112097Y172652D01*
X112078Y169985D02*
X108811Y170008D01*
X108830Y172675D01*
X112097Y172652D01*
X101926Y135277D02*
X101926Y132609D01*
X98658Y132609D01*
X98658Y135277D01*
X101926Y135277D01*
X101926Y141249D02*
X101926Y143917D01*
X101926Y141249D02*
X98658Y141249D01*
X98658Y143917D01*
X101926Y143917D01*
X81509Y150917D02*
X81509Y153585D01*
X81509Y150917D02*
X78241Y150917D01*
X78241Y153585D01*
X81509Y153585D01*
X81509Y159557D02*
X81509Y162225D01*
X81509Y159557D02*
X78241Y159557D01*
X78241Y162225D01*
X81509Y162225D01*
X81793Y169602D02*
X79125Y169602D01*
X79125Y172870D01*
X81793Y172870D01*
X81793Y169602D01*
X87765Y169602D02*
X90433Y169602D01*
X87765Y169602D02*
X87765Y172870D01*
X90433Y172870D01*
X90433Y169602D01*
X135174Y82440D02*
X137842Y82440D01*
X137842Y79172D01*
X135174Y79172D01*
X135174Y82440D01*
X129202Y82440D02*
X126534Y82440D01*
X129202Y82440D02*
X129202Y79172D01*
X126534Y79172D01*
X126534Y82440D01*
X127501Y118838D02*
X124833Y118838D01*
X124833Y122106D01*
X127501Y122106D01*
X127501Y118838D01*
X133473Y118838D02*
X136141Y118838D01*
X133473Y118838D02*
X133473Y122106D01*
X136141Y122106D01*
X136141Y118838D01*
D19*
X135511Y140068D03*
X135511Y167568D03*
D20*
X120261Y153818D03*
D18*
X108843Y161206D02*
X108843Y163874D01*
X112111Y163874D01*
X112111Y161206D01*
X108843Y161206D01*
X108843Y155234D02*
X108843Y152566D01*
X108843Y155234D02*
X112111Y155234D01*
X112111Y152566D01*
X108843Y152566D01*
D21*
X149067Y72065D03*
X149067Y84765D03*
X149067Y59365D03*
X149067Y97465D03*
X149067Y46665D03*
X149067Y110165D03*
X149067Y33965D03*
X149067Y21265D03*
X80830Y-1511D03*
X93530Y-1511D03*
X68130Y-1511D03*
X106230Y-1511D03*
X55430Y-1511D03*
X118930Y-1511D03*
X42730Y-1511D03*
X30030Y-1511D03*
X247Y71818D03*
X247Y84518D03*
X247Y59118D03*
X247Y97218D03*
X247Y46418D03*
X247Y109918D03*
X247Y33718D03*
X247Y21018D03*
D22*
X55922Y133747D03*
X41922Y133747D03*
D23*
X30798Y138985D03*
X30798Y143985D03*
X30798Y148985D03*
X30798Y153985D03*
X6098Y153985D03*
X6098Y148985D03*
X6098Y143985D03*
X6098Y138985D03*
D24*
X18448Y146485D03*
D14*
X7366Y168520D02*
X4764Y168520D01*
X7366Y168520D02*
X7366Y165318D01*
X4764Y165318D01*
X4764Y168520D01*
X13364Y165318D02*
X15966Y165318D01*
X13364Y165318D02*
X13364Y168520D01*
X15966Y168520D01*
X15966Y165318D01*
X22689Y177507D02*
X25291Y177507D01*
X25291Y174305D01*
X22689Y174305D01*
X22689Y177507D01*
X31289Y174305D02*
X33891Y174305D01*
X31289Y174305D02*
X31289Y177507D01*
X33891Y177507D01*
X33891Y174305D01*
X25151Y168457D02*
X22549Y168457D01*
X25151Y168457D02*
X25151Y165255D01*
X22549Y165255D01*
X22549Y168457D01*
X31149Y165255D02*
X33751Y165255D01*
X31149Y165255D02*
X31149Y168457D01*
X33751Y168457D01*
X33751Y165255D01*
D25*
X120120Y19429D02*
X120120Y12441D01*
X113132Y12441D01*
X113132Y19429D01*
X120120Y19429D01*
X120120Y16510D02*
X113132Y16510D01*
X137660Y19429D02*
X137660Y12441D01*
X130672Y12441D01*
X130672Y19429D01*
X137660Y19429D01*
X137660Y16510D02*
X130672Y16510D01*
D14*
X129746Y6676D02*
X132348Y6676D01*
X132348Y3474D01*
X129746Y3474D01*
X129746Y6676D01*
X138346Y3474D02*
X140948Y3474D01*
X138346Y3474D02*
X138346Y6676D01*
X140948Y6676D01*
X140948Y3474D01*
X7346Y177481D02*
X4744Y177481D01*
X7346Y177481D02*
X7346Y174279D01*
X4744Y174279D01*
X4744Y177481D01*
X13344Y174279D02*
X15946Y174279D01*
X13344Y174279D02*
X13344Y177481D01*
X15946Y177481D01*
X15946Y174279D01*
M02*
