G04 EAGLE Gerber RS-274X export*
G75*
%MOMM*%
%FSLAX34Y34*%
%LPD*%
%INSoldermask Top*%
%IPPOS*%
%AMOC8*
5,1,8,0,0,1.08239X$1,22.5*%
G01*
%ADD10R,0.367000X0.727000*%
%ADD11R,0.727000X0.367000*%
%ADD12R,5.277000X5.277000*%
%ADD13C,0.627000*%
%ADD14C,0.406869*%
%ADD15C,0.631119*%
%ADD16C,0.531859*%
%ADD17R,0.977000X1.077000*%
%ADD18C,0.400200*%
%ADD19R,2.327000X1.177000*%
%ADD20R,0.927000X1.127000*%
%ADD21C,1.143000*%
%ADD22R,0.727000X1.227000*%
%ADD23R,0.687000X0.477000*%
%ADD24R,0.327000X1.727000*%
%ADD25C,0.428259*%


D10*
X89957Y117959D03*
X84957Y117959D03*
X79957Y117959D03*
X74957Y117959D03*
X69957Y117959D03*
X64957Y117959D03*
X59957Y117959D03*
X54957Y117959D03*
X49957Y117959D03*
X44957Y117959D03*
X39957Y117959D03*
X34957Y117959D03*
D11*
X28457Y111459D03*
X28457Y106459D03*
X28457Y101459D03*
X28457Y96459D03*
X28457Y91459D03*
X28457Y86459D03*
X28457Y81459D03*
X28457Y76459D03*
X28457Y71459D03*
X28457Y66459D03*
X28457Y61459D03*
X28457Y56459D03*
D10*
X34957Y49959D03*
X39957Y49959D03*
X44957Y49959D03*
X49957Y49959D03*
X54957Y49959D03*
X59957Y49959D03*
X64957Y49959D03*
X69957Y49959D03*
X74957Y49959D03*
X79957Y49959D03*
X84957Y49959D03*
X89957Y49959D03*
D11*
X96457Y56459D03*
X96457Y61459D03*
X96457Y66459D03*
X96457Y71459D03*
X96457Y76459D03*
X96457Y81459D03*
X96457Y86459D03*
X96457Y91459D03*
X96457Y96459D03*
X96457Y101459D03*
X96457Y106459D03*
X96457Y111459D03*
D12*
X62457Y83959D03*
D13*
X39207Y71359D03*
X39207Y83959D03*
X39207Y96559D03*
X85707Y71359D03*
X85707Y83959D03*
X85707Y96559D03*
X49857Y60709D03*
X62457Y60709D03*
X75057Y60709D03*
X49857Y107209D03*
X62457Y107209D03*
X75057Y107209D03*
X49857Y83959D03*
X62457Y83705D03*
X75057Y83959D03*
X49857Y71359D03*
X62457Y71359D03*
X75057Y71359D03*
X49857Y96559D03*
X62457Y96559D03*
X75057Y96559D03*
D14*
X26127Y17939D02*
X23525Y17939D01*
X23525Y21141D01*
X26127Y21141D01*
X26127Y17939D01*
X17527Y21141D02*
X14925Y21141D01*
X17527Y21141D02*
X17527Y17939D01*
X14925Y17939D01*
X14925Y21141D01*
X23633Y8026D02*
X26235Y8026D01*
X23633Y8026D02*
X23633Y11228D01*
X26235Y11228D01*
X26235Y8026D01*
X17635Y11228D02*
X15033Y11228D01*
X17635Y11228D02*
X17635Y8026D01*
X15033Y8026D01*
X15033Y11228D01*
X131547Y29147D02*
X131547Y31749D01*
X131547Y29147D02*
X128345Y29147D01*
X128345Y31749D01*
X131547Y31749D01*
X128345Y23149D02*
X128345Y20547D01*
X128345Y23149D02*
X131547Y23149D01*
X131547Y20547D01*
X128345Y20547D01*
X118647Y20511D02*
X118647Y23113D01*
X121849Y23113D01*
X121849Y20511D01*
X118647Y20511D01*
X121849Y29111D02*
X121849Y31713D01*
X121849Y29111D02*
X118647Y29111D01*
X118647Y31713D01*
X121849Y31713D01*
X13860Y42112D02*
X13860Y44714D01*
X17062Y44714D01*
X17062Y42112D01*
X13860Y42112D01*
X17062Y50712D02*
X17062Y53314D01*
X17062Y50712D02*
X13860Y50712D01*
X13860Y53314D01*
X17062Y53314D01*
X56152Y151602D02*
X56157Y154203D01*
X56152Y151602D02*
X52951Y151607D01*
X52956Y154208D01*
X56157Y154203D01*
X52941Y145608D02*
X52936Y143007D01*
X52941Y145608D02*
X56142Y145603D01*
X56137Y143002D01*
X52936Y143007D01*
X45379Y151820D02*
X45379Y154422D01*
X45379Y151820D02*
X42177Y151820D01*
X42177Y154422D01*
X45379Y154422D01*
X42177Y145822D02*
X42177Y143220D01*
X42177Y145822D02*
X45379Y145822D01*
X45379Y143220D01*
X42177Y143220D01*
X18891Y116475D02*
X16289Y116475D01*
X16289Y119677D01*
X18891Y119677D01*
X18891Y116475D01*
X10291Y119677D02*
X7689Y119677D01*
X10291Y119677D02*
X10291Y116475D01*
X7689Y116475D01*
X7689Y119677D01*
X16996Y71080D02*
X16996Y68478D01*
X13794Y68478D01*
X13794Y71080D01*
X16996Y71080D01*
X13794Y62480D02*
X13794Y59878D01*
X13794Y62480D02*
X16996Y62480D01*
X16996Y59878D01*
X13794Y59878D01*
X126323Y72199D02*
X128925Y72199D01*
X128925Y68997D01*
X126323Y68997D01*
X126323Y72199D01*
X134923Y68997D02*
X137525Y68997D01*
X134923Y68997D02*
X134923Y72199D01*
X137525Y72199D01*
X137525Y68997D01*
X111831Y31758D02*
X111831Y29156D01*
X108629Y29156D01*
X108629Y31758D01*
X111831Y31758D01*
X108629Y23158D02*
X108629Y20556D01*
X108629Y23158D02*
X111831Y23158D01*
X111831Y20556D01*
X108629Y20556D01*
D15*
X99729Y27617D02*
X99729Y32577D01*
X99729Y27617D02*
X90569Y27617D01*
X90569Y32577D01*
X99729Y32577D01*
X90569Y13877D02*
X90569Y8917D01*
X90569Y13877D02*
X99729Y13877D01*
X99729Y8917D01*
X90569Y8917D01*
X50762Y8931D02*
X50762Y13891D01*
X59922Y13891D01*
X59922Y8931D01*
X50762Y8931D01*
X59922Y27631D02*
X59922Y32591D01*
X59922Y27631D02*
X50762Y27631D01*
X50762Y32591D01*
X59922Y32591D01*
D14*
X103625Y113081D02*
X106227Y113081D01*
X106227Y109879D01*
X103625Y109879D01*
X103625Y113081D01*
X112225Y109879D02*
X114827Y109879D01*
X112225Y109879D02*
X112225Y113081D01*
X114827Y113081D01*
X114827Y109879D01*
X106122Y122777D02*
X103520Y122777D01*
X106122Y122777D02*
X106122Y119575D01*
X103520Y119575D01*
X103520Y122777D01*
X112120Y119575D02*
X114722Y119575D01*
X112120Y119575D02*
X112120Y122777D01*
X114722Y122777D01*
X114722Y119575D01*
D16*
X18109Y34080D02*
X14257Y34080D01*
X18109Y34080D02*
X18109Y28828D01*
X14257Y28828D01*
X14257Y34080D01*
X14257Y33881D02*
X18109Y33881D01*
X30657Y28828D02*
X34509Y28828D01*
X30657Y28828D02*
X30657Y34080D01*
X34509Y34080D01*
X34509Y28828D01*
X34509Y33881D02*
X30657Y33881D01*
D15*
X79782Y32755D02*
X79782Y27795D01*
X70622Y27795D01*
X70622Y32755D01*
X79782Y32755D01*
X70622Y14055D02*
X70622Y9095D01*
X70622Y14055D02*
X79782Y14055D01*
X79782Y9095D01*
X70622Y9095D01*
D17*
X125544Y107328D03*
X125544Y92828D03*
X137044Y92828D03*
X137044Y107328D03*
D18*
X81359Y132505D02*
X81359Y135173D01*
X81359Y132505D02*
X78091Y132505D01*
X78091Y135173D01*
X81359Y135173D01*
X81359Y141145D02*
X81359Y143813D01*
X81359Y141145D02*
X78091Y141145D01*
X78091Y143813D01*
X81359Y143813D01*
X71131Y135254D02*
X71131Y132586D01*
X67863Y132586D01*
X67863Y135254D01*
X71131Y135254D01*
X71131Y141226D02*
X71131Y143894D01*
X71131Y141226D02*
X67863Y141226D01*
X67863Y143894D01*
X71131Y143894D01*
X109069Y144017D02*
X109069Y141349D01*
X109069Y144017D02*
X112337Y144017D01*
X112337Y141349D01*
X109069Y141349D01*
X109069Y135377D02*
X109069Y132709D01*
X109069Y135377D02*
X112337Y135377D01*
X112337Y132709D01*
X109069Y132709D01*
X91690Y132609D02*
X91690Y135277D01*
X91690Y132609D02*
X88422Y132609D01*
X88422Y135277D01*
X91690Y135277D01*
X91690Y141249D02*
X91690Y143917D01*
X91690Y141249D02*
X88422Y141249D01*
X88422Y143917D01*
X91690Y143917D01*
X67890Y159568D02*
X67890Y162236D01*
X71158Y162236D01*
X71158Y159568D01*
X67890Y159568D01*
X67890Y153596D02*
X67890Y150928D01*
X67890Y153596D02*
X71158Y153596D01*
X71158Y150928D01*
X67890Y150928D01*
X97977Y169839D02*
X97977Y172507D01*
X101245Y172507D01*
X101245Y169839D01*
X97977Y169839D01*
X97977Y163867D02*
X97977Y161199D01*
X97977Y163867D02*
X101245Y163867D01*
X101245Y161199D01*
X97977Y161199D01*
X112017Y161346D02*
X112036Y164013D01*
X112017Y161346D02*
X108750Y161369D01*
X108769Y164036D01*
X112036Y164013D01*
X112078Y169985D02*
X112097Y172652D01*
X112078Y169985D02*
X108811Y170008D01*
X108830Y172675D01*
X112097Y172652D01*
X101926Y135277D02*
X101926Y132609D01*
X98658Y132609D01*
X98658Y135277D01*
X101926Y135277D01*
X101926Y141249D02*
X101926Y143917D01*
X101926Y141249D02*
X98658Y141249D01*
X98658Y143917D01*
X101926Y143917D01*
X81509Y150917D02*
X81509Y153585D01*
X81509Y150917D02*
X78241Y150917D01*
X78241Y153585D01*
X81509Y153585D01*
X81509Y159557D02*
X81509Y162225D01*
X81509Y159557D02*
X78241Y159557D01*
X78241Y162225D01*
X81509Y162225D01*
X81793Y169602D02*
X79125Y169602D01*
X79125Y172870D01*
X81793Y172870D01*
X81793Y169602D01*
X87765Y169602D02*
X90433Y169602D01*
X87765Y169602D02*
X87765Y172870D01*
X90433Y172870D01*
X90433Y169602D01*
X135174Y82440D02*
X137842Y82440D01*
X137842Y79172D01*
X135174Y79172D01*
X135174Y82440D01*
X129202Y82440D02*
X126534Y82440D01*
X129202Y82440D02*
X129202Y79172D01*
X126534Y79172D01*
X126534Y82440D01*
X127501Y118838D02*
X124833Y118838D01*
X124833Y122106D01*
X127501Y122106D01*
X127501Y118838D01*
X133473Y118838D02*
X136141Y118838D01*
X133473Y118838D02*
X133473Y122106D01*
X136141Y122106D01*
X136141Y118838D01*
D19*
X135511Y140068D03*
X135511Y167568D03*
D20*
X120261Y153818D03*
D18*
X108843Y161206D02*
X108843Y163874D01*
X112111Y163874D01*
X112111Y161206D01*
X108843Y161206D01*
X108843Y155234D02*
X108843Y152566D01*
X108843Y155234D02*
X112111Y155234D01*
X112111Y152566D01*
X108843Y152566D01*
D21*
X149067Y72065D03*
X149067Y84765D03*
X149067Y59365D03*
X149067Y97465D03*
X149067Y46665D03*
X149067Y110165D03*
X149067Y33965D03*
X149067Y21265D03*
X80830Y-1511D03*
X93530Y-1511D03*
X68130Y-1511D03*
X106230Y-1511D03*
X55430Y-1511D03*
X118930Y-1511D03*
X42730Y-1511D03*
X30030Y-1511D03*
X247Y71818D03*
X247Y84518D03*
X247Y59118D03*
X247Y97218D03*
X247Y46418D03*
X247Y109918D03*
X247Y33718D03*
X247Y21018D03*
D22*
X56074Y132283D03*
X42074Y132283D03*
D23*
X30798Y138985D03*
X30798Y143985D03*
X30798Y148985D03*
X30798Y153985D03*
X6098Y153985D03*
X6098Y148985D03*
X6098Y143985D03*
X6098Y138985D03*
D24*
X18448Y146485D03*
D14*
X7366Y168520D02*
X4764Y168520D01*
X7366Y168520D02*
X7366Y165318D01*
X4764Y165318D01*
X4764Y168520D01*
X13364Y165318D02*
X15966Y165318D01*
X13364Y165318D02*
X13364Y168520D01*
X15966Y168520D01*
X15966Y165318D01*
X128635Y9864D02*
X131237Y9864D01*
X128635Y9864D02*
X128635Y13066D01*
X131237Y13066D01*
X131237Y9864D01*
X122637Y13066D02*
X120035Y13066D01*
X122637Y13066D02*
X122637Y9864D01*
X120035Y9864D01*
X120035Y13066D01*
X25151Y168457D02*
X22549Y168457D01*
X25151Y168457D02*
X25151Y165255D01*
X22549Y165255D01*
X22549Y168457D01*
X31149Y165255D02*
X33751Y165255D01*
X31149Y165255D02*
X31149Y168457D01*
X33751Y168457D01*
X33751Y165255D01*
D25*
X58438Y171296D02*
X58438Y178284D01*
X65426Y178284D01*
X65426Y171296D01*
X58438Y171296D01*
X58438Y175365D02*
X65426Y175365D01*
X40898Y178284D02*
X40898Y171296D01*
X40898Y178284D02*
X47886Y178284D01*
X47886Y171296D01*
X40898Y171296D01*
X40898Y175365D02*
X47886Y175365D01*
D14*
X44456Y164864D02*
X41854Y164864D01*
X44456Y164864D02*
X44456Y161662D01*
X41854Y161662D01*
X41854Y164864D01*
X50454Y161662D02*
X53056Y161662D01*
X50454Y161662D02*
X50454Y164864D01*
X53056Y164864D01*
X53056Y161662D01*
X33792Y174237D02*
X31190Y174237D01*
X31190Y177439D01*
X33792Y177439D01*
X33792Y174237D01*
X25192Y177439D02*
X22590Y177439D01*
X25192Y177439D02*
X25192Y174237D01*
X22590Y174237D01*
X22590Y177439D01*
M02*
