G04 EAGLE Gerber RS-274X export*
G75*
%MOMM*%
%FSLAX34Y34*%
%LPD*%
%INCopper Layer 2*%
%IPPOS*%
%AMOC8*
5,1,8,0,0,1.08239X$1,22.5*%
G01*
%ADD10C,0.975000*%
%ADD11C,0.403200*%
%ADD12C,0.503200*%
%ADD13C,0.453200*%
%ADD14C,0.254000*%
%ADD15C,0.152400*%

G36*
X23459Y-347D02*
X23459Y-347D01*
X23575Y-330D01*
X23580Y-327D01*
X23587Y-326D01*
X23689Y-272D01*
X23794Y-218D01*
X23798Y-214D01*
X23804Y-211D01*
X23884Y-127D01*
X23966Y-43D01*
X23970Y-36D01*
X23973Y-33D01*
X23981Y-16D01*
X24047Y104D01*
X24820Y1970D01*
X26549Y3699D01*
X28808Y4635D01*
X31253Y4635D01*
X33511Y3699D01*
X35240Y1970D01*
X35677Y916D01*
X35715Y855D01*
X35744Y790D01*
X35779Y751D01*
X35806Y707D01*
X35862Y661D01*
X35910Y609D01*
X35956Y583D01*
X35996Y550D01*
X36063Y525D01*
X36126Y490D01*
X36177Y481D01*
X36226Y462D01*
X36297Y459D01*
X36368Y446D01*
X36419Y454D01*
X36471Y452D01*
X36540Y472D01*
X36611Y482D01*
X36658Y506D01*
X36708Y520D01*
X36766Y561D01*
X36830Y594D01*
X36867Y631D01*
X36910Y660D01*
X36952Y718D01*
X37003Y769D01*
X37037Y832D01*
X37056Y858D01*
X37064Y880D01*
X37083Y916D01*
X37520Y1970D01*
X39249Y3699D01*
X41508Y4635D01*
X43953Y4635D01*
X46211Y3699D01*
X47940Y1970D01*
X48377Y916D01*
X48415Y855D01*
X48444Y790D01*
X48479Y751D01*
X48506Y707D01*
X48562Y661D01*
X48610Y609D01*
X48656Y583D01*
X48696Y550D01*
X48763Y525D01*
X48826Y490D01*
X48877Y481D01*
X48926Y462D01*
X48997Y459D01*
X49068Y446D01*
X49119Y454D01*
X49171Y452D01*
X49240Y472D01*
X49311Y482D01*
X49358Y506D01*
X49408Y520D01*
X49466Y561D01*
X49530Y594D01*
X49567Y631D01*
X49610Y660D01*
X49652Y718D01*
X49703Y769D01*
X49737Y832D01*
X49756Y858D01*
X49764Y880D01*
X49783Y916D01*
X50220Y1970D01*
X51949Y3699D01*
X54208Y4635D01*
X56653Y4635D01*
X58911Y3699D01*
X60640Y1970D01*
X61077Y916D01*
X61115Y855D01*
X61144Y790D01*
X61179Y751D01*
X61206Y707D01*
X61262Y661D01*
X61310Y609D01*
X61356Y583D01*
X61396Y550D01*
X61463Y525D01*
X61526Y490D01*
X61577Y481D01*
X61626Y462D01*
X61697Y459D01*
X61768Y446D01*
X61819Y454D01*
X61871Y452D01*
X61940Y472D01*
X62011Y482D01*
X62058Y506D01*
X62108Y520D01*
X62166Y561D01*
X62230Y594D01*
X62267Y631D01*
X62310Y660D01*
X62352Y718D01*
X62403Y769D01*
X62437Y832D01*
X62456Y858D01*
X62464Y880D01*
X62483Y916D01*
X62920Y1970D01*
X64649Y3699D01*
X66908Y4635D01*
X69353Y4635D01*
X71611Y3699D01*
X73340Y1970D01*
X73777Y916D01*
X73815Y855D01*
X73844Y790D01*
X73879Y751D01*
X73906Y707D01*
X73962Y661D01*
X74010Y609D01*
X74056Y583D01*
X74096Y550D01*
X74163Y525D01*
X74226Y490D01*
X74277Y481D01*
X74326Y462D01*
X74397Y459D01*
X74468Y446D01*
X74519Y454D01*
X74571Y452D01*
X74640Y472D01*
X74711Y482D01*
X74758Y506D01*
X74808Y520D01*
X74866Y561D01*
X74930Y594D01*
X74967Y631D01*
X75010Y660D01*
X75052Y718D01*
X75103Y769D01*
X75137Y832D01*
X75156Y858D01*
X75164Y880D01*
X75183Y916D01*
X75620Y1970D01*
X77349Y3699D01*
X79608Y4635D01*
X82053Y4635D01*
X84311Y3699D01*
X86040Y1970D01*
X86477Y916D01*
X86515Y855D01*
X86544Y790D01*
X86579Y751D01*
X86606Y707D01*
X86662Y661D01*
X86710Y609D01*
X86756Y583D01*
X86796Y550D01*
X86863Y525D01*
X86926Y490D01*
X86977Y481D01*
X87026Y462D01*
X87097Y459D01*
X87168Y446D01*
X87219Y454D01*
X87271Y452D01*
X87340Y472D01*
X87411Y482D01*
X87458Y506D01*
X87507Y520D01*
X87566Y561D01*
X87630Y594D01*
X87667Y631D01*
X87710Y660D01*
X87752Y718D01*
X87803Y769D01*
X87837Y832D01*
X87856Y858D01*
X87864Y880D01*
X87883Y916D01*
X88320Y1970D01*
X90049Y3699D01*
X92308Y4635D01*
X94753Y4635D01*
X97011Y3699D01*
X98740Y1970D01*
X99177Y916D01*
X99215Y855D01*
X99244Y790D01*
X99279Y751D01*
X99306Y707D01*
X99362Y661D01*
X99410Y609D01*
X99456Y583D01*
X99496Y550D01*
X99563Y525D01*
X99626Y490D01*
X99677Y481D01*
X99726Y462D01*
X99797Y459D01*
X99868Y446D01*
X99919Y454D01*
X99971Y452D01*
X100040Y472D01*
X100111Y482D01*
X100158Y506D01*
X100207Y520D01*
X100266Y561D01*
X100330Y594D01*
X100367Y631D01*
X100410Y660D01*
X100452Y718D01*
X100503Y769D01*
X100537Y832D01*
X100556Y858D01*
X100564Y880D01*
X100583Y916D01*
X101020Y1970D01*
X102749Y3699D01*
X105008Y4635D01*
X107453Y4635D01*
X109711Y3699D01*
X111440Y1970D01*
X111877Y916D01*
X111915Y855D01*
X111944Y790D01*
X111979Y751D01*
X112006Y707D01*
X112062Y661D01*
X112110Y609D01*
X112156Y583D01*
X112196Y550D01*
X112263Y525D01*
X112326Y490D01*
X112377Y481D01*
X112426Y462D01*
X112497Y459D01*
X112568Y446D01*
X112619Y454D01*
X112671Y452D01*
X112740Y472D01*
X112811Y482D01*
X112858Y506D01*
X112907Y520D01*
X112966Y561D01*
X113030Y594D01*
X113067Y631D01*
X113110Y660D01*
X113152Y718D01*
X113203Y769D01*
X113237Y832D01*
X113256Y858D01*
X113264Y880D01*
X113283Y916D01*
X113720Y1970D01*
X115449Y3699D01*
X117708Y4635D01*
X120153Y4635D01*
X122411Y3699D01*
X124140Y1970D01*
X124913Y104D01*
X124975Y5D01*
X125035Y-96D01*
X125039Y-100D01*
X125043Y-105D01*
X125132Y-179D01*
X125222Y-255D01*
X125227Y-258D01*
X125232Y-262D01*
X125340Y-303D01*
X125450Y-347D01*
X125457Y-348D01*
X125462Y-350D01*
X125480Y-351D01*
X125616Y-366D01*
X146837Y-366D01*
X146856Y-363D01*
X146876Y-365D01*
X146977Y-343D01*
X147079Y-326D01*
X147097Y-317D01*
X147116Y-313D01*
X147205Y-259D01*
X147297Y-211D01*
X147310Y-197D01*
X147327Y-186D01*
X147395Y-108D01*
X147466Y-33D01*
X147474Y-15D01*
X147487Y1D01*
X147526Y97D01*
X147570Y190D01*
X147572Y210D01*
X147579Y229D01*
X147598Y395D01*
X147598Y14712D01*
X147579Y14827D01*
X147562Y14943D01*
X147559Y14949D01*
X147558Y14955D01*
X147504Y15058D01*
X147450Y15163D01*
X147446Y15167D01*
X147443Y15173D01*
X147359Y15252D01*
X147275Y15335D01*
X147268Y15338D01*
X147265Y15342D01*
X147248Y15350D01*
X147128Y15416D01*
X145586Y16054D01*
X143857Y17783D01*
X142921Y20042D01*
X142921Y22487D01*
X143857Y24746D01*
X145586Y26475D01*
X146640Y26911D01*
X146701Y26949D01*
X146766Y26978D01*
X146805Y27013D01*
X146849Y27041D01*
X146895Y27096D01*
X146947Y27145D01*
X146973Y27190D01*
X147006Y27230D01*
X147031Y27297D01*
X147066Y27360D01*
X147075Y27411D01*
X147094Y27460D01*
X147097Y27531D01*
X147110Y27602D01*
X147102Y27654D01*
X147104Y27706D01*
X147084Y27775D01*
X147074Y27846D01*
X147050Y27892D01*
X147036Y27942D01*
X146995Y28001D01*
X146962Y28065D01*
X146925Y28101D01*
X146896Y28144D01*
X146838Y28187D01*
X146787Y28237D01*
X146724Y28272D01*
X146698Y28291D01*
X146676Y28298D01*
X146640Y28318D01*
X145586Y28754D01*
X143857Y30483D01*
X142921Y32742D01*
X142921Y35187D01*
X143857Y37446D01*
X145586Y39175D01*
X146640Y39611D01*
X146701Y39649D01*
X146766Y39678D01*
X146805Y39713D01*
X146849Y39741D01*
X146895Y39796D01*
X146947Y39845D01*
X146973Y39890D01*
X147006Y39930D01*
X147031Y39997D01*
X147066Y40060D01*
X147075Y40111D01*
X147094Y40160D01*
X147097Y40231D01*
X147110Y40302D01*
X147102Y40354D01*
X147104Y40406D01*
X147084Y40475D01*
X147074Y40546D01*
X147050Y40592D01*
X147036Y40642D01*
X146995Y40701D01*
X146962Y40765D01*
X146925Y40801D01*
X146896Y40844D01*
X146838Y40887D01*
X146787Y40937D01*
X146724Y40972D01*
X146698Y40991D01*
X146676Y40998D01*
X146640Y41018D01*
X145586Y41454D01*
X143857Y43183D01*
X142921Y45442D01*
X142921Y47887D01*
X143857Y50146D01*
X145586Y51875D01*
X146640Y52311D01*
X146701Y52349D01*
X146766Y52378D01*
X146805Y52413D01*
X146849Y52441D01*
X146895Y52496D01*
X146947Y52545D01*
X146973Y52590D01*
X147006Y52630D01*
X147031Y52697D01*
X147066Y52760D01*
X147075Y52811D01*
X147094Y52860D01*
X147097Y52931D01*
X147110Y53002D01*
X147102Y53054D01*
X147104Y53106D01*
X147084Y53175D01*
X147074Y53246D01*
X147050Y53292D01*
X147036Y53342D01*
X146995Y53401D01*
X146962Y53465D01*
X146925Y53501D01*
X146896Y53544D01*
X146838Y53587D01*
X146787Y53637D01*
X146724Y53672D01*
X146698Y53691D01*
X146676Y53698D01*
X146640Y53718D01*
X145586Y54154D01*
X143857Y55883D01*
X142921Y58142D01*
X142921Y60587D01*
X143857Y62846D01*
X145586Y64575D01*
X146640Y65011D01*
X146701Y65049D01*
X146766Y65078D01*
X146805Y65113D01*
X146849Y65141D01*
X146895Y65196D01*
X146947Y65245D01*
X146973Y65290D01*
X147006Y65330D01*
X147031Y65397D01*
X147066Y65460D01*
X147075Y65511D01*
X147094Y65560D01*
X147097Y65631D01*
X147110Y65702D01*
X147102Y65754D01*
X147104Y65806D01*
X147084Y65875D01*
X147074Y65946D01*
X147050Y65992D01*
X147036Y66042D01*
X146995Y66101D01*
X146962Y66165D01*
X146925Y66201D01*
X146896Y66244D01*
X146838Y66287D01*
X146787Y66337D01*
X146724Y66372D01*
X146698Y66391D01*
X146676Y66398D01*
X146640Y66418D01*
X145586Y66854D01*
X143857Y68583D01*
X142921Y70842D01*
X142921Y73287D01*
X143857Y75546D01*
X145586Y77275D01*
X146640Y77711D01*
X146701Y77749D01*
X146766Y77778D01*
X146805Y77813D01*
X146849Y77841D01*
X146895Y77896D01*
X146947Y77945D01*
X146973Y77990D01*
X147006Y78030D01*
X147031Y78097D01*
X147066Y78160D01*
X147075Y78211D01*
X147094Y78260D01*
X147097Y78331D01*
X147110Y78402D01*
X147102Y78454D01*
X147104Y78506D01*
X147084Y78574D01*
X147074Y78645D01*
X147050Y78692D01*
X147036Y78742D01*
X146995Y78801D01*
X146962Y78865D01*
X146925Y78901D01*
X146896Y78944D01*
X146838Y78987D01*
X146787Y79037D01*
X146724Y79072D01*
X146698Y79091D01*
X146676Y79098D01*
X146640Y79118D01*
X145586Y79554D01*
X143857Y81283D01*
X142921Y83542D01*
X142921Y85987D01*
X143857Y88246D01*
X145586Y89975D01*
X146640Y90411D01*
X146701Y90449D01*
X146766Y90478D01*
X146805Y90513D01*
X146849Y90541D01*
X146895Y90596D01*
X146947Y90645D01*
X146973Y90690D01*
X147006Y90730D01*
X147031Y90797D01*
X147066Y90860D01*
X147075Y90911D01*
X147094Y90960D01*
X147097Y91031D01*
X147110Y91102D01*
X147102Y91154D01*
X147104Y91206D01*
X147084Y91274D01*
X147074Y91345D01*
X147050Y91392D01*
X147036Y91442D01*
X146995Y91501D01*
X146962Y91565D01*
X146925Y91601D01*
X146896Y91644D01*
X146838Y91687D01*
X146787Y91737D01*
X146724Y91772D01*
X146698Y91791D01*
X146676Y91798D01*
X146640Y91818D01*
X145586Y92254D01*
X143857Y93983D01*
X142921Y96242D01*
X142921Y98687D01*
X143857Y100946D01*
X145586Y102675D01*
X146640Y103111D01*
X146701Y103149D01*
X146766Y103178D01*
X146805Y103213D01*
X146849Y103241D01*
X146895Y103296D01*
X146947Y103345D01*
X146973Y103390D01*
X147006Y103430D01*
X147031Y103497D01*
X147066Y103560D01*
X147075Y103611D01*
X147094Y103660D01*
X147097Y103731D01*
X147110Y103802D01*
X147102Y103854D01*
X147104Y103906D01*
X147084Y103974D01*
X147074Y104045D01*
X147050Y104092D01*
X147036Y104142D01*
X146995Y104201D01*
X146962Y104265D01*
X146925Y104301D01*
X146896Y104344D01*
X146838Y104387D01*
X146787Y104437D01*
X146724Y104472D01*
X146698Y104491D01*
X146676Y104498D01*
X146640Y104518D01*
X145586Y104954D01*
X143857Y106683D01*
X142921Y108942D01*
X142921Y111387D01*
X143857Y113646D01*
X145586Y115375D01*
X147128Y116013D01*
X147227Y116075D01*
X147327Y116135D01*
X147332Y116140D01*
X147337Y116143D01*
X147411Y116233D01*
X147487Y116322D01*
X147490Y116328D01*
X147494Y116332D01*
X147535Y116441D01*
X147579Y116550D01*
X147580Y116558D01*
X147582Y116562D01*
X147583Y116580D01*
X147598Y116717D01*
X147598Y179519D01*
X147595Y179538D01*
X147597Y179558D01*
X147575Y179659D01*
X147558Y179761D01*
X147549Y179779D01*
X147545Y179799D01*
X147491Y179888D01*
X147443Y179979D01*
X147429Y179993D01*
X147418Y180010D01*
X147340Y180077D01*
X147265Y180148D01*
X147247Y180157D01*
X147231Y180170D01*
X147135Y180208D01*
X147042Y180252D01*
X147022Y180254D01*
X147003Y180262D01*
X146837Y180280D01*
X2835Y180280D01*
X2815Y180277D01*
X2795Y180279D01*
X2694Y180257D01*
X2592Y180240D01*
X2574Y180231D01*
X2555Y180227D01*
X2466Y180173D01*
X2374Y180125D01*
X2361Y180111D01*
X2344Y180101D01*
X2276Y180022D01*
X2205Y179947D01*
X2197Y179929D01*
X2184Y179914D01*
X2145Y179817D01*
X2101Y179724D01*
X2099Y179704D01*
X2092Y179685D01*
X2073Y179519D01*
X2073Y161504D01*
X2085Y161433D01*
X2087Y161362D01*
X2105Y161313D01*
X2113Y161261D01*
X2147Y161198D01*
X2171Y161131D01*
X2204Y161090D01*
X2228Y161044D01*
X2280Y160995D01*
X2325Y160939D01*
X2369Y160911D01*
X2406Y160875D01*
X2471Y160845D01*
X2532Y160806D01*
X2582Y160793D01*
X2630Y160771D01*
X2701Y160763D01*
X2770Y160746D01*
X2822Y160750D01*
X2874Y160744D01*
X2944Y160759D01*
X3016Y160765D01*
X3063Y160785D01*
X3114Y160796D01*
X3176Y160833D01*
X3242Y160861D01*
X3298Y160906D01*
X3325Y160922D01*
X3341Y160940D01*
X3373Y160966D01*
X12016Y169610D01*
X16662Y169610D01*
X16752Y169624D01*
X16843Y169631D01*
X16873Y169644D01*
X16905Y169649D01*
X16986Y169692D01*
X17070Y169728D01*
X17102Y169753D01*
X17122Y169764D01*
X17144Y169788D01*
X17201Y169833D01*
X17724Y170356D01*
X20446Y170356D01*
X22372Y168430D01*
X22372Y165707D01*
X20446Y163782D01*
X17724Y163782D01*
X17201Y164305D01*
X17127Y164358D01*
X17057Y164418D01*
X17027Y164430D01*
X17001Y164449D01*
X16914Y164475D01*
X16829Y164510D01*
X16788Y164514D01*
X16766Y164521D01*
X16734Y164520D01*
X16662Y164528D01*
X14437Y164528D01*
X14346Y164513D01*
X14256Y164506D01*
X14226Y164494D01*
X14194Y164488D01*
X14113Y164446D01*
X14029Y164410D01*
X13997Y164384D01*
X13976Y164373D01*
X13954Y164350D01*
X13898Y164305D01*
X8166Y158573D01*
X8113Y158499D01*
X8054Y158430D01*
X8041Y158399D01*
X8023Y158373D01*
X7996Y158286D01*
X7962Y158201D01*
X7957Y158160D01*
X7950Y158138D01*
X7951Y158106D01*
X7943Y158035D01*
X7943Y157532D01*
X7955Y157461D01*
X7957Y157390D01*
X7975Y157341D01*
X7983Y157289D01*
X8016Y157226D01*
X8041Y157158D01*
X8074Y157118D01*
X8098Y157072D01*
X8150Y157022D01*
X8195Y156966D01*
X8239Y156938D01*
X8276Y156902D01*
X8341Y156872D01*
X8402Y156833D01*
X8452Y156821D01*
X8499Y156799D01*
X8571Y156791D01*
X8640Y156773D01*
X8692Y156777D01*
X8744Y156772D01*
X8814Y156787D01*
X8885Y156793D01*
X8933Y156813D01*
X8984Y156824D01*
X9046Y156861D01*
X9112Y156889D01*
X9168Y156934D01*
X9195Y156950D01*
X9211Y156968D01*
X9243Y156994D01*
X9786Y157537D01*
X11199Y158950D01*
X16987Y158950D01*
X17077Y158965D01*
X17168Y158972D01*
X17198Y158985D01*
X17230Y158990D01*
X17310Y159033D01*
X17394Y159069D01*
X17427Y159094D01*
X17447Y159105D01*
X17469Y159129D01*
X17525Y159173D01*
X17639Y159287D01*
X20361Y159287D01*
X22287Y157361D01*
X22287Y154639D01*
X20361Y152713D01*
X18312Y152713D01*
X18292Y152710D01*
X18273Y152712D01*
X18171Y152690D01*
X18069Y152674D01*
X18052Y152664D01*
X18032Y152660D01*
X17943Y152607D01*
X17852Y152558D01*
X17838Y152544D01*
X17821Y152534D01*
X17754Y152455D01*
X17683Y152380D01*
X17674Y152362D01*
X17661Y152347D01*
X17622Y152251D01*
X17579Y152157D01*
X17577Y152137D01*
X17569Y152119D01*
X17551Y151952D01*
X17551Y150170D01*
X16485Y149104D01*
X16473Y149088D01*
X16457Y149075D01*
X16401Y148988D01*
X16341Y148904D01*
X16335Y148885D01*
X16324Y148869D01*
X16299Y148768D01*
X16269Y148669D01*
X16269Y148649D01*
X16264Y148630D01*
X16272Y148527D01*
X16275Y148423D01*
X16282Y148405D01*
X16283Y148385D01*
X16324Y148290D01*
X16359Y148192D01*
X16372Y148177D01*
X16380Y148158D01*
X16485Y148027D01*
X17486Y147026D01*
X17486Y144303D01*
X15990Y142807D01*
X15979Y142791D01*
X15963Y142779D01*
X15907Y142691D01*
X15847Y142608D01*
X15841Y142589D01*
X15830Y142572D01*
X15805Y142471D01*
X15774Y142373D01*
X15775Y142353D01*
X15770Y142333D01*
X15778Y142230D01*
X15781Y142127D01*
X15788Y142108D01*
X15789Y142088D01*
X15830Y141993D01*
X15865Y141896D01*
X15878Y141880D01*
X15886Y141862D01*
X15990Y141731D01*
X17361Y140360D01*
X17361Y137638D01*
X15436Y135712D01*
X12713Y135712D01*
X11682Y136743D01*
X11608Y136796D01*
X11538Y136856D01*
X11508Y136868D01*
X11482Y136887D01*
X11395Y136914D01*
X11310Y136948D01*
X11269Y136952D01*
X11247Y136959D01*
X11215Y136958D01*
X11144Y136966D01*
X10459Y136966D01*
X9243Y138183D01*
X9184Y138225D01*
X9132Y138274D01*
X9085Y138296D01*
X9043Y138326D01*
X8974Y138347D01*
X8909Y138378D01*
X8858Y138383D01*
X8808Y138399D01*
X8736Y138397D01*
X8665Y138405D01*
X8614Y138394D01*
X8562Y138392D01*
X8495Y138368D01*
X8425Y138353D01*
X8380Y138326D01*
X8331Y138308D01*
X8275Y138263D01*
X8213Y138226D01*
X8180Y138187D01*
X8139Y138154D01*
X8100Y138094D01*
X8054Y138039D01*
X8034Y137991D01*
X8006Y137947D01*
X7988Y137878D01*
X7962Y137811D01*
X7954Y137740D01*
X7946Y137709D01*
X7948Y137685D01*
X7943Y137645D01*
X7943Y135965D01*
X7958Y135875D01*
X7965Y135784D01*
X7978Y135755D01*
X7983Y135723D01*
X8026Y135642D01*
X8061Y135558D01*
X8087Y135526D01*
X8098Y135505D01*
X8121Y135483D01*
X8166Y135427D01*
X11329Y132264D01*
X11403Y132211D01*
X11473Y132151D01*
X11503Y132139D01*
X11529Y132120D01*
X11616Y132093D01*
X11701Y132059D01*
X11742Y132055D01*
X11764Y132048D01*
X11796Y132049D01*
X11868Y132041D01*
X15724Y132041D01*
X15814Y132055D01*
X15905Y132063D01*
X15934Y132075D01*
X15966Y132080D01*
X16047Y132123D01*
X16131Y132159D01*
X16163Y132185D01*
X16184Y132196D01*
X16206Y132219D01*
X16262Y132264D01*
X17035Y133037D01*
X19952Y133037D01*
X19972Y133040D01*
X19991Y133038D01*
X20093Y133060D01*
X20195Y133076D01*
X20212Y133086D01*
X20232Y133090D01*
X20321Y133143D01*
X20412Y133192D01*
X20426Y133206D01*
X20443Y133216D01*
X20510Y133295D01*
X20582Y133370D01*
X20590Y133388D01*
X20603Y133403D01*
X20642Y133499D01*
X20685Y133593D01*
X20687Y133613D01*
X20695Y133631D01*
X20713Y133798D01*
X20713Y134361D01*
X22639Y136287D01*
X25361Y136287D01*
X27287Y134361D01*
X27287Y131639D01*
X25361Y129713D01*
X22798Y129713D01*
X22778Y129710D01*
X22759Y129712D01*
X22657Y129690D01*
X22555Y129674D01*
X22538Y129664D01*
X22518Y129660D01*
X22429Y129607D01*
X22338Y129558D01*
X22324Y129544D01*
X22307Y129534D01*
X22240Y129455D01*
X22168Y129380D01*
X22160Y129362D01*
X22147Y129347D01*
X22108Y129251D01*
X22065Y129157D01*
X22063Y129137D01*
X22055Y129119D01*
X22037Y128952D01*
X22037Y128692D01*
X22040Y128672D01*
X22038Y128652D01*
X22060Y128551D01*
X22076Y128449D01*
X22086Y128431D01*
X22090Y128412D01*
X22143Y128323D01*
X22192Y128231D01*
X22206Y128218D01*
X22216Y128201D01*
X22295Y128133D01*
X22370Y128062D01*
X22388Y128054D01*
X22403Y128041D01*
X22499Y128002D01*
X22593Y127958D01*
X22613Y127956D01*
X22631Y127949D01*
X22798Y127930D01*
X23436Y127930D01*
X25655Y125712D01*
X25655Y122575D01*
X23436Y120357D01*
X20299Y120357D01*
X18081Y122575D01*
X18081Y125202D01*
X18078Y125222D01*
X18080Y125241D01*
X18058Y125343D01*
X18041Y125445D01*
X18032Y125462D01*
X18028Y125482D01*
X17975Y125571D01*
X17926Y125662D01*
X17912Y125676D01*
X17902Y125693D01*
X17823Y125760D01*
X17748Y125832D01*
X17730Y125840D01*
X17715Y125853D01*
X17618Y125892D01*
X17525Y125935D01*
X17505Y125937D01*
X17487Y125945D01*
X17320Y125963D01*
X17035Y125963D01*
X16262Y126736D01*
X16188Y126789D01*
X16119Y126849D01*
X16088Y126861D01*
X16062Y126880D01*
X15975Y126907D01*
X15890Y126941D01*
X15849Y126945D01*
X15827Y126952D01*
X15795Y126951D01*
X15724Y126959D01*
X9448Y126959D01*
X3373Y133034D01*
X3315Y133076D01*
X3263Y133125D01*
X3215Y133147D01*
X3173Y133178D01*
X3105Y133199D01*
X3040Y133229D01*
X2988Y133235D01*
X2938Y133250D01*
X2866Y133248D01*
X2795Y133256D01*
X2744Y133245D01*
X2692Y133244D01*
X2625Y133219D01*
X2555Y133204D01*
X2510Y133177D01*
X2461Y133159D01*
X2405Y133114D01*
X2344Y133078D01*
X2310Y133038D01*
X2269Y133005D01*
X2230Y132945D01*
X2184Y132891D01*
X2164Y132842D01*
X2136Y132799D01*
X2119Y132729D01*
X2092Y132663D01*
X2084Y132591D01*
X2076Y132560D01*
X2078Y132537D01*
X2073Y132496D01*
X2073Y117697D01*
X2092Y117582D01*
X2109Y117466D01*
X2112Y117460D01*
X2113Y117454D01*
X2167Y117352D01*
X2221Y117247D01*
X2225Y117242D01*
X2228Y117237D01*
X2312Y117157D01*
X2396Y117074D01*
X2403Y117071D01*
X2406Y117067D01*
X2423Y117059D01*
X2543Y116993D01*
X3759Y116490D01*
X4974Y115678D01*
X6007Y114645D01*
X6818Y113431D01*
X7377Y112081D01*
X7505Y111441D01*
X2835Y111441D01*
X2815Y111438D01*
X2795Y111440D01*
X2694Y111418D01*
X2592Y111401D01*
X2574Y111392D01*
X2555Y111388D01*
X2466Y111335D01*
X2374Y111286D01*
X2361Y111272D01*
X2344Y111262D01*
X2276Y111183D01*
X2205Y111108D01*
X2197Y111090D01*
X2184Y111075D01*
X2145Y110979D01*
X2101Y110885D01*
X2099Y110865D01*
X2092Y110847D01*
X2073Y110680D01*
X2073Y109156D01*
X2076Y109136D01*
X2074Y109116D01*
X2096Y109015D01*
X2113Y108913D01*
X2122Y108896D01*
X2127Y108876D01*
X2180Y108787D01*
X2228Y108696D01*
X2243Y108682D01*
X2253Y108665D01*
X2331Y108598D01*
X2406Y108526D01*
X2424Y108518D01*
X2440Y108505D01*
X2536Y108466D01*
X2630Y108423D01*
X2649Y108421D01*
X2668Y108413D01*
X2835Y108395D01*
X7505Y108395D01*
X7377Y107755D01*
X6872Y106534D01*
X6861Y106489D01*
X6842Y106448D01*
X6833Y106370D01*
X6815Y106294D01*
X6820Y106249D01*
X6815Y106203D01*
X6831Y106127D01*
X6839Y106050D01*
X6857Y106008D01*
X6867Y105963D01*
X6907Y105896D01*
X6939Y105825D01*
X6970Y105791D01*
X6993Y105752D01*
X7052Y105701D01*
X7105Y105644D01*
X7145Y105622D01*
X7180Y105592D01*
X7252Y105563D01*
X7320Y105525D01*
X7366Y105517D01*
X7408Y105500D01*
X7544Y105485D01*
X7563Y105481D01*
X7568Y105482D01*
X7575Y105481D01*
X10435Y105481D01*
X12653Y103263D01*
X12653Y100126D01*
X10690Y98163D01*
X10679Y98147D01*
X10663Y98135D01*
X10607Y98048D01*
X10547Y97964D01*
X10541Y97945D01*
X10530Y97928D01*
X10505Y97827D01*
X10475Y97729D01*
X10475Y97709D01*
X10470Y97689D01*
X10478Y97586D01*
X10481Y97483D01*
X10488Y97464D01*
X10489Y97444D01*
X10530Y97349D01*
X10565Y97252D01*
X10578Y97236D01*
X10586Y97218D01*
X10690Y97087D01*
X12493Y95284D01*
X12493Y92147D01*
X10275Y89929D01*
X7138Y89929D01*
X4932Y92135D01*
X4916Y92147D01*
X4903Y92162D01*
X4816Y92218D01*
X4732Y92279D01*
X4713Y92285D01*
X4696Y92295D01*
X4596Y92321D01*
X4497Y92351D01*
X4477Y92350D01*
X4458Y92355D01*
X4355Y92347D01*
X4251Y92345D01*
X4232Y92338D01*
X4212Y92336D01*
X4117Y92296D01*
X4020Y92260D01*
X4004Y92248D01*
X3986Y92240D01*
X3855Y92135D01*
X3728Y92008D01*
X2674Y91571D01*
X2613Y91533D01*
X2547Y91504D01*
X2509Y91469D01*
X2465Y91442D01*
X2419Y91386D01*
X2366Y91338D01*
X2341Y91292D01*
X2308Y91252D01*
X2282Y91185D01*
X2248Y91122D01*
X2238Y91071D01*
X2220Y91023D01*
X2217Y90951D01*
X2204Y90880D01*
X2212Y90829D01*
X2209Y90777D01*
X2229Y90708D01*
X2240Y90637D01*
X2263Y90590D01*
X2278Y90541D01*
X2319Y90482D01*
X2351Y90418D01*
X2388Y90381D01*
X2418Y90338D01*
X2476Y90296D01*
X2527Y90245D01*
X2590Y90211D01*
X2616Y90192D01*
X2638Y90184D01*
X2674Y90165D01*
X3728Y89728D01*
X5457Y87999D01*
X6392Y85740D01*
X6392Y83295D01*
X5457Y81037D01*
X3728Y79308D01*
X2674Y78871D01*
X2613Y78833D01*
X2547Y78804D01*
X2509Y78769D01*
X2465Y78742D01*
X2419Y78686D01*
X2366Y78638D01*
X2341Y78592D01*
X2308Y78552D01*
X2282Y78485D01*
X2248Y78422D01*
X2238Y78371D01*
X2220Y78323D01*
X2217Y78251D01*
X2204Y78180D01*
X2212Y78129D01*
X2209Y78077D01*
X2229Y78008D01*
X2240Y77937D01*
X2263Y77890D01*
X2278Y77841D01*
X2319Y77782D01*
X2351Y77718D01*
X2388Y77681D01*
X2418Y77638D01*
X2476Y77596D01*
X2527Y77545D01*
X2590Y77511D01*
X2616Y77492D01*
X2638Y77484D01*
X2674Y77465D01*
X3728Y77028D01*
X5457Y75299D01*
X6392Y73040D01*
X6392Y70595D01*
X5457Y68337D01*
X3728Y66608D01*
X2674Y66171D01*
X2613Y66133D01*
X2547Y66104D01*
X2509Y66069D01*
X2465Y66042D01*
X2419Y65986D01*
X2366Y65938D01*
X2341Y65892D01*
X2308Y65852D01*
X2282Y65785D01*
X2248Y65722D01*
X2238Y65671D01*
X2220Y65623D01*
X2217Y65551D01*
X2204Y65480D01*
X2212Y65429D01*
X2209Y65377D01*
X2229Y65308D01*
X2240Y65237D01*
X2263Y65191D01*
X2278Y65141D01*
X2319Y65082D01*
X2351Y65018D01*
X2388Y64981D01*
X2418Y64939D01*
X2476Y64896D01*
X2527Y64846D01*
X2590Y64811D01*
X2616Y64792D01*
X2638Y64784D01*
X2674Y64765D01*
X3728Y64328D01*
X5457Y62599D01*
X6392Y60340D01*
X6392Y57895D01*
X5457Y55637D01*
X3728Y53908D01*
X2674Y53471D01*
X2613Y53433D01*
X2547Y53404D01*
X2509Y53369D01*
X2465Y53342D01*
X2419Y53286D01*
X2366Y53238D01*
X2341Y53192D01*
X2308Y53152D01*
X2282Y53085D01*
X2248Y53022D01*
X2238Y52971D01*
X2220Y52923D01*
X2217Y52851D01*
X2204Y52780D01*
X2212Y52729D01*
X2209Y52677D01*
X2229Y52608D01*
X2240Y52537D01*
X2263Y52491D01*
X2278Y52441D01*
X2319Y52382D01*
X2351Y52318D01*
X2388Y52281D01*
X2418Y52239D01*
X2476Y52196D01*
X2527Y52146D01*
X2590Y52111D01*
X2616Y52092D01*
X2638Y52084D01*
X2674Y52065D01*
X3728Y51628D01*
X5457Y49899D01*
X6392Y47640D01*
X6392Y45195D01*
X5457Y42937D01*
X3728Y41208D01*
X2674Y40771D01*
X2613Y40733D01*
X2547Y40704D01*
X2509Y40669D01*
X2465Y40642D01*
X2419Y40586D01*
X2366Y40538D01*
X2341Y40492D01*
X2308Y40452D01*
X2282Y40385D01*
X2248Y40322D01*
X2238Y40271D01*
X2220Y40223D01*
X2217Y40151D01*
X2204Y40080D01*
X2212Y40029D01*
X2209Y39977D01*
X2229Y39908D01*
X2240Y39837D01*
X2263Y39791D01*
X2278Y39741D01*
X2319Y39682D01*
X2351Y39618D01*
X2388Y39581D01*
X2418Y39539D01*
X2476Y39496D01*
X2527Y39446D01*
X2590Y39411D01*
X2616Y39392D01*
X2638Y39384D01*
X2674Y39365D01*
X3728Y38928D01*
X5457Y37199D01*
X6392Y34940D01*
X6392Y32495D01*
X5457Y30237D01*
X3728Y28508D01*
X2674Y28071D01*
X2613Y28033D01*
X2547Y28004D01*
X2509Y27969D01*
X2465Y27942D01*
X2419Y27886D01*
X2366Y27838D01*
X2341Y27792D01*
X2308Y27752D01*
X2282Y27685D01*
X2248Y27622D01*
X2238Y27571D01*
X2220Y27523D01*
X2217Y27451D01*
X2204Y27380D01*
X2212Y27329D01*
X2209Y27277D01*
X2229Y27208D01*
X2240Y27137D01*
X2263Y27091D01*
X2278Y27041D01*
X2319Y26982D01*
X2351Y26918D01*
X2388Y26881D01*
X2418Y26839D01*
X2476Y26796D01*
X2527Y26746D01*
X2590Y26711D01*
X2616Y26692D01*
X2638Y26684D01*
X2674Y26665D01*
X3728Y26228D01*
X5457Y24499D01*
X6392Y22240D01*
X6392Y19685D01*
X6404Y19614D01*
X6406Y19542D01*
X6424Y19493D01*
X6432Y19442D01*
X6466Y19379D01*
X6490Y19311D01*
X6523Y19271D01*
X6547Y19225D01*
X6599Y19175D01*
X6644Y19119D01*
X6688Y19091D01*
X6726Y19055D01*
X6791Y19025D01*
X6851Y18986D01*
X6901Y18974D01*
X6949Y18952D01*
X7020Y18944D01*
X7089Y18926D01*
X7141Y18930D01*
X7193Y18925D01*
X7263Y18940D01*
X7335Y18945D01*
X7383Y18966D01*
X7433Y18977D01*
X7495Y19014D01*
X7561Y19042D01*
X7617Y19087D01*
X7645Y19103D01*
X7660Y19121D01*
X7692Y19147D01*
X7829Y19284D01*
X10967Y19284D01*
X13185Y17066D01*
X13185Y13929D01*
X10967Y11711D01*
X7829Y11711D01*
X5611Y13929D01*
X5611Y15853D01*
X5600Y15924D01*
X5598Y15996D01*
X5580Y16045D01*
X5571Y16096D01*
X5538Y16159D01*
X5513Y16227D01*
X5481Y16267D01*
X5456Y16313D01*
X5404Y16363D01*
X5360Y16419D01*
X5316Y16447D01*
X5278Y16483D01*
X5213Y16513D01*
X5153Y16552D01*
X5102Y16565D01*
X5055Y16586D01*
X4984Y16594D01*
X4914Y16612D01*
X4862Y16608D01*
X4811Y16614D01*
X4740Y16598D01*
X4669Y16593D01*
X4621Y16572D01*
X4570Y16561D01*
X4509Y16525D01*
X4443Y16496D01*
X4387Y16452D01*
X4359Y16435D01*
X4344Y16417D01*
X4312Y16392D01*
X3728Y15808D01*
X2543Y15317D01*
X2444Y15256D01*
X2344Y15196D01*
X2339Y15191D01*
X2334Y15187D01*
X2260Y15098D01*
X2184Y15009D01*
X2181Y15003D01*
X2177Y14998D01*
X2136Y14890D01*
X2092Y14781D01*
X2091Y14773D01*
X2089Y14768D01*
X2088Y14750D01*
X2073Y14614D01*
X2073Y395D01*
X2076Y376D01*
X2074Y356D01*
X2096Y255D01*
X2113Y153D01*
X2122Y135D01*
X2127Y116D01*
X2180Y27D01*
X2228Y-65D01*
X2243Y-78D01*
X2253Y-96D01*
X2331Y-163D01*
X2406Y-234D01*
X2424Y-242D01*
X2440Y-255D01*
X2536Y-294D01*
X2630Y-338D01*
X2649Y-340D01*
X2668Y-347D01*
X2835Y-366D01*
X23344Y-366D01*
X23459Y-347D01*
G37*
%LPC*%
G36*
X61280Y35807D02*
X61280Y35807D01*
X59355Y37733D01*
X59355Y38952D01*
X59351Y38972D01*
X59354Y38991D01*
X59332Y39093D01*
X59315Y39195D01*
X59306Y39212D01*
X59301Y39232D01*
X59248Y39321D01*
X59200Y39412D01*
X59185Y39426D01*
X59175Y39443D01*
X59097Y39510D01*
X59022Y39582D01*
X59003Y39590D01*
X58988Y39603D01*
X58892Y39642D01*
X58798Y39685D01*
X58779Y39687D01*
X58760Y39695D01*
X58593Y39713D01*
X56653Y39713D01*
X56633Y39710D01*
X56613Y39712D01*
X56512Y39690D01*
X56410Y39674D01*
X56392Y39664D01*
X56373Y39660D01*
X56284Y39607D01*
X56193Y39558D01*
X56179Y39544D01*
X56162Y39534D01*
X56094Y39455D01*
X56023Y39380D01*
X56015Y39362D01*
X56002Y39347D01*
X55963Y39251D01*
X55920Y39157D01*
X55917Y39137D01*
X55910Y39119D01*
X55891Y38952D01*
X55891Y37827D01*
X53966Y35902D01*
X51243Y35902D01*
X49318Y37827D01*
X49318Y38141D01*
X49315Y38161D01*
X49317Y38180D01*
X49295Y38282D01*
X49278Y38384D01*
X49269Y38401D01*
X49265Y38421D01*
X49211Y38510D01*
X49163Y38601D01*
X49149Y38615D01*
X49138Y38632D01*
X49060Y38699D01*
X48985Y38770D01*
X48967Y38779D01*
X48952Y38792D01*
X48855Y38831D01*
X48762Y38874D01*
X48742Y38876D01*
X48723Y38884D01*
X48557Y38902D01*
X46071Y38902D01*
X45945Y39028D01*
X45929Y39039D01*
X45917Y39055D01*
X45835Y39108D01*
X45833Y39109D01*
X45832Y39109D01*
X45829Y39111D01*
X45746Y39171D01*
X45727Y39177D01*
X45710Y39188D01*
X45609Y39213D01*
X45510Y39244D01*
X45491Y39243D01*
X45471Y39248D01*
X45368Y39240D01*
X45265Y39237D01*
X45246Y39230D01*
X45226Y39229D01*
X45131Y39189D01*
X45034Y39153D01*
X45018Y39140D01*
X45000Y39133D01*
X44869Y39028D01*
X43114Y37273D01*
X40391Y37273D01*
X39776Y37888D01*
X39760Y37899D01*
X39747Y37915D01*
X39660Y37971D01*
X39576Y38031D01*
X39557Y38037D01*
X39540Y38048D01*
X39440Y38073D01*
X39341Y38104D01*
X39321Y38103D01*
X39302Y38108D01*
X39199Y38100D01*
X39095Y38097D01*
X39076Y38090D01*
X39057Y38089D01*
X38962Y38049D01*
X38864Y38013D01*
X38849Y38000D01*
X38830Y37993D01*
X38699Y37888D01*
X37163Y36351D01*
X34440Y36351D01*
X32515Y38277D01*
X32515Y40034D01*
X32512Y40054D01*
X32514Y40073D01*
X32492Y40175D01*
X32475Y40277D01*
X32466Y40294D01*
X32462Y40314D01*
X32408Y40403D01*
X32360Y40494D01*
X32346Y40508D01*
X32335Y40525D01*
X32257Y40592D01*
X32182Y40663D01*
X32164Y40672D01*
X32149Y40685D01*
X32052Y40724D01*
X31959Y40767D01*
X31939Y40769D01*
X31920Y40777D01*
X31754Y40795D01*
X31046Y40795D01*
X31027Y40792D01*
X31007Y40794D01*
X30906Y40772D01*
X30804Y40755D01*
X30786Y40746D01*
X30767Y40742D01*
X30678Y40689D01*
X30586Y40640D01*
X30573Y40626D01*
X30555Y40616D01*
X30488Y40537D01*
X30417Y40462D01*
X30409Y40444D01*
X30396Y40429D01*
X30357Y40333D01*
X30313Y40239D01*
X30311Y40219D01*
X30304Y40201D01*
X30285Y40034D01*
X30285Y38277D01*
X28067Y36059D01*
X24930Y36059D01*
X22712Y38277D01*
X22712Y41414D01*
X24930Y43632D01*
X27267Y43632D01*
X27287Y43635D01*
X27306Y43633D01*
X27408Y43655D01*
X27510Y43672D01*
X27527Y43681D01*
X27547Y43685D01*
X27636Y43739D01*
X27727Y43787D01*
X27741Y43801D01*
X27758Y43812D01*
X27825Y43890D01*
X27896Y43965D01*
X27905Y43983D01*
X27918Y43998D01*
X27956Y44095D01*
X28000Y44188D01*
X28002Y44208D01*
X28010Y44227D01*
X28028Y44393D01*
X28028Y45443D01*
X28998Y46414D01*
X29040Y46472D01*
X29090Y46524D01*
X29112Y46571D01*
X29142Y46613D01*
X29163Y46682D01*
X29193Y46747D01*
X29199Y46799D01*
X29214Y46849D01*
X29213Y46920D01*
X29220Y46991D01*
X29209Y47042D01*
X29208Y47094D01*
X29183Y47162D01*
X29168Y47232D01*
X29141Y47277D01*
X29124Y47325D01*
X29079Y47381D01*
X29042Y47443D01*
X29002Y47477D01*
X28970Y47517D01*
X28910Y47556D01*
X28855Y47603D01*
X28807Y47622D01*
X28763Y47650D01*
X28693Y47668D01*
X28627Y47695D01*
X28556Y47703D01*
X28524Y47711D01*
X28501Y47709D01*
X28460Y47713D01*
X25639Y47713D01*
X23713Y49639D01*
X23713Y52361D01*
X25639Y54287D01*
X28361Y54287D01*
X30287Y52361D01*
X30287Y49639D01*
X29316Y48668D01*
X29275Y48610D01*
X29225Y48558D01*
X29203Y48511D01*
X29173Y48469D01*
X29152Y48400D01*
X29122Y48335D01*
X29116Y48283D01*
X29100Y48233D01*
X29102Y48162D01*
X29094Y48090D01*
X29105Y48040D01*
X29107Y47988D01*
X29131Y47920D01*
X29147Y47850D01*
X29173Y47805D01*
X29191Y47757D01*
X29236Y47700D01*
X29273Y47639D01*
X29312Y47605D01*
X29345Y47564D01*
X29405Y47526D01*
X29460Y47479D01*
X29508Y47460D01*
X29552Y47431D01*
X29621Y47414D01*
X29688Y47387D01*
X29759Y47379D01*
X29790Y47371D01*
X29814Y47373D01*
X29855Y47369D01*
X32676Y47369D01*
X34602Y45443D01*
X34602Y43686D01*
X34605Y43666D01*
X34603Y43647D01*
X34625Y43545D01*
X34641Y43443D01*
X34651Y43426D01*
X34655Y43406D01*
X34708Y43317D01*
X34756Y43226D01*
X34771Y43212D01*
X34781Y43195D01*
X34860Y43128D01*
X34935Y43057D01*
X34953Y43048D01*
X34968Y43035D01*
X35064Y42997D01*
X35158Y42953D01*
X35178Y42951D01*
X35196Y42943D01*
X35363Y42925D01*
X37163Y42925D01*
X37778Y42310D01*
X37794Y42298D01*
X37807Y42283D01*
X37894Y42227D01*
X37978Y42166D01*
X37997Y42161D01*
X38014Y42150D01*
X38114Y42124D01*
X38213Y42094D01*
X38233Y42095D01*
X38252Y42090D01*
X38355Y42098D01*
X38459Y42100D01*
X38477Y42107D01*
X38497Y42109D01*
X38592Y42149D01*
X38690Y42185D01*
X38705Y42197D01*
X38724Y42205D01*
X38855Y42310D01*
X40391Y43846D01*
X43114Y43846D01*
X43239Y43721D01*
X43255Y43709D01*
X43268Y43693D01*
X43355Y43637D01*
X43439Y43577D01*
X43458Y43571D01*
X43475Y43560D01*
X43575Y43535D01*
X43674Y43505D01*
X43694Y43505D01*
X43713Y43500D01*
X43816Y43508D01*
X43920Y43511D01*
X43939Y43518D01*
X43959Y43520D01*
X44054Y43560D01*
X44151Y43596D01*
X44167Y43608D01*
X44185Y43616D01*
X44316Y43721D01*
X46071Y45476D01*
X48794Y45476D01*
X50719Y43550D01*
X50719Y43237D01*
X50722Y43217D01*
X50720Y43197D01*
X50742Y43096D01*
X50759Y42994D01*
X50768Y42977D01*
X50772Y42957D01*
X50826Y42868D01*
X50874Y42777D01*
X50888Y42763D01*
X50898Y42746D01*
X50977Y42679D01*
X51052Y42607D01*
X51070Y42599D01*
X51085Y42586D01*
X51182Y42547D01*
X51275Y42504D01*
X51295Y42502D01*
X51314Y42494D01*
X51480Y42476D01*
X53952Y42476D01*
X53972Y42479D01*
X53991Y42477D01*
X54093Y42499D01*
X54195Y42515D01*
X54212Y42525D01*
X54232Y42529D01*
X54321Y42582D01*
X54412Y42630D01*
X54426Y42645D01*
X54443Y42655D01*
X54510Y42734D01*
X54582Y42809D01*
X54590Y42827D01*
X54603Y42842D01*
X54642Y42938D01*
X54685Y43032D01*
X54687Y43052D01*
X54695Y43070D01*
X54713Y43237D01*
X54713Y44361D01*
X56639Y46287D01*
X59361Y46287D01*
X61287Y44361D01*
X61287Y43142D01*
X61290Y43122D01*
X61288Y43102D01*
X61310Y43001D01*
X61326Y42899D01*
X61336Y42882D01*
X61340Y42862D01*
X61393Y42773D01*
X61442Y42682D01*
X61456Y42668D01*
X61466Y42651D01*
X61545Y42584D01*
X61620Y42512D01*
X61638Y42504D01*
X61653Y42491D01*
X61749Y42452D01*
X61843Y42409D01*
X61863Y42407D01*
X61881Y42399D01*
X62048Y42381D01*
X63851Y42381D01*
X63870Y42384D01*
X63890Y42382D01*
X63991Y42404D01*
X64093Y42420D01*
X64111Y42430D01*
X64130Y42434D01*
X64220Y42487D01*
X64311Y42536D01*
X64324Y42550D01*
X64342Y42560D01*
X64409Y42639D01*
X64480Y42714D01*
X64489Y42732D01*
X64502Y42747D01*
X64540Y42843D01*
X64584Y42937D01*
X64586Y42957D01*
X64593Y42975D01*
X64612Y43142D01*
X64612Y43894D01*
X66537Y45819D01*
X69260Y45819D01*
X71185Y43894D01*
X71185Y41171D01*
X69260Y39246D01*
X66689Y39246D01*
X66670Y39243D01*
X66650Y39245D01*
X66549Y39223D01*
X66447Y39206D01*
X66429Y39197D01*
X66410Y39193D01*
X66321Y39139D01*
X66229Y39091D01*
X66216Y39077D01*
X66198Y39066D01*
X66131Y38988D01*
X66060Y38913D01*
X66052Y38895D01*
X66039Y38880D01*
X66000Y38783D01*
X65956Y38690D01*
X65954Y38670D01*
X65947Y38651D01*
X65928Y38485D01*
X65928Y37733D01*
X64003Y35807D01*
X61280Y35807D01*
G37*
%LPD*%
%LPC*%
G36*
X20455Y88198D02*
X20455Y88198D01*
X18530Y90123D01*
X18530Y92437D01*
X18526Y92456D01*
X18529Y92476D01*
X18507Y92577D01*
X18490Y92679D01*
X18481Y92697D01*
X18476Y92717D01*
X18423Y92806D01*
X18375Y92897D01*
X18360Y92911D01*
X18350Y92928D01*
X18271Y92995D01*
X18196Y93066D01*
X18178Y93075D01*
X18163Y93088D01*
X18067Y93126D01*
X17973Y93170D01*
X17954Y93172D01*
X17935Y93180D01*
X17768Y93198D01*
X17086Y93198D01*
X15161Y95123D01*
X15161Y97846D01*
X17086Y99771D01*
X17400Y99771D01*
X17419Y99775D01*
X17439Y99772D01*
X17540Y99794D01*
X17642Y99811D01*
X17660Y99820D01*
X17679Y99825D01*
X17768Y99878D01*
X17860Y99926D01*
X17873Y99941D01*
X17891Y99951D01*
X17958Y100030D01*
X18029Y100105D01*
X18037Y100123D01*
X18050Y100138D01*
X18089Y100234D01*
X18133Y100328D01*
X18135Y100347D01*
X18142Y100366D01*
X18161Y100533D01*
X18161Y102482D01*
X18158Y102502D01*
X18160Y102522D01*
X18138Y102623D01*
X18121Y102725D01*
X18112Y102743D01*
X18108Y102762D01*
X18054Y102851D01*
X18006Y102942D01*
X17992Y102956D01*
X17981Y102973D01*
X17903Y103041D01*
X17828Y103112D01*
X17810Y103120D01*
X17794Y103133D01*
X17698Y103172D01*
X17605Y103215D01*
X17585Y103218D01*
X17566Y103225D01*
X17400Y103244D01*
X16949Y103244D01*
X15024Y105169D01*
X15024Y107892D01*
X16949Y109817D01*
X19672Y109817D01*
X21598Y107892D01*
X21598Y105533D01*
X21601Y105513D01*
X21599Y105493D01*
X21621Y105392D01*
X21637Y105290D01*
X21647Y105272D01*
X21651Y105253D01*
X21704Y105164D01*
X21752Y105073D01*
X21767Y105059D01*
X21777Y105042D01*
X21856Y104974D01*
X21931Y104903D01*
X21949Y104895D01*
X21964Y104882D01*
X22060Y104843D01*
X22154Y104800D01*
X22174Y104797D01*
X22192Y104790D01*
X22359Y104771D01*
X22809Y104771D01*
X24734Y102846D01*
X24734Y100123D01*
X22809Y98198D01*
X22496Y98198D01*
X22476Y98195D01*
X22456Y98197D01*
X22355Y98175D01*
X22253Y98158D01*
X22235Y98149D01*
X22216Y98145D01*
X22127Y98091D01*
X22035Y98043D01*
X22022Y98029D01*
X22005Y98019D01*
X21937Y97940D01*
X21866Y97865D01*
X21858Y97847D01*
X21845Y97832D01*
X21806Y97735D01*
X21762Y97642D01*
X21760Y97622D01*
X21753Y97603D01*
X21734Y97437D01*
X21734Y95533D01*
X21736Y95521D01*
X21735Y95512D01*
X21737Y95506D01*
X21735Y95493D01*
X21757Y95392D01*
X21774Y95290D01*
X21783Y95272D01*
X21788Y95253D01*
X21841Y95164D01*
X21889Y95073D01*
X21904Y95059D01*
X21914Y95042D01*
X21993Y94974D01*
X22068Y94903D01*
X22086Y94895D01*
X22101Y94882D01*
X22197Y94843D01*
X22291Y94800D01*
X22310Y94797D01*
X22329Y94790D01*
X22496Y94771D01*
X23178Y94771D01*
X25103Y92846D01*
X25103Y90123D01*
X23178Y88198D01*
X20455Y88198D01*
G37*
%LPD*%
%LPC*%
G36*
X92043Y34623D02*
X92043Y34623D01*
X89825Y36842D01*
X89825Y39255D01*
X89813Y39327D01*
X89811Y39399D01*
X89794Y39447D01*
X89785Y39498D01*
X89752Y39562D01*
X89727Y39630D01*
X89694Y39670D01*
X89670Y39716D01*
X89618Y39765D01*
X89573Y39821D01*
X89529Y39849D01*
X89492Y39885D01*
X89426Y39915D01*
X89366Y39954D01*
X89316Y39967D01*
X89269Y39989D01*
X89197Y39997D01*
X89127Y40014D01*
X89076Y40010D01*
X89024Y40016D01*
X88954Y40000D01*
X88944Y40000D01*
X86008Y40000D01*
X84083Y41925D01*
X84083Y44648D01*
X86008Y46573D01*
X88731Y46573D01*
X90657Y44648D01*
X90657Y42648D01*
X90668Y42577D01*
X90670Y42506D01*
X90688Y42457D01*
X90696Y42405D01*
X90730Y42342D01*
X90755Y42275D01*
X90787Y42234D01*
X90811Y42188D01*
X90863Y42139D01*
X90908Y42083D01*
X90952Y42054D01*
X90990Y42019D01*
X91055Y41988D01*
X91115Y41950D01*
X91166Y41937D01*
X91213Y41915D01*
X91284Y41907D01*
X91354Y41890D01*
X91406Y41894D01*
X91457Y41888D01*
X91527Y41903D01*
X91599Y41909D01*
X91647Y41929D01*
X91698Y41940D01*
X91759Y41977D01*
X91825Y42005D01*
X91881Y42050D01*
X91909Y42066D01*
X91924Y42084D01*
X91956Y42110D01*
X92043Y42197D01*
X95180Y42197D01*
X97398Y39979D01*
X97398Y36842D01*
X95180Y34623D01*
X92043Y34623D01*
G37*
%LPD*%
%LPC*%
G36*
X20478Y68700D02*
X20478Y68700D01*
X18552Y70626D01*
X18552Y71937D01*
X18549Y71956D01*
X18551Y71976D01*
X18529Y72077D01*
X18513Y72179D01*
X18503Y72197D01*
X18499Y72217D01*
X18446Y72306D01*
X18398Y72397D01*
X18383Y72411D01*
X18373Y72428D01*
X18294Y72495D01*
X18219Y72566D01*
X18201Y72575D01*
X18186Y72588D01*
X18090Y72626D01*
X17996Y72670D01*
X17976Y72672D01*
X17958Y72680D01*
X17791Y72698D01*
X16083Y72698D01*
X13864Y74916D01*
X13864Y78053D01*
X16083Y80271D01*
X19220Y80271D01*
X21438Y78053D01*
X21438Y76035D01*
X21441Y76015D01*
X21439Y75996D01*
X21461Y75894D01*
X21478Y75792D01*
X21487Y75775D01*
X21491Y75755D01*
X21544Y75666D01*
X21593Y75575D01*
X21607Y75561D01*
X21617Y75544D01*
X21696Y75477D01*
X21771Y75406D01*
X21789Y75397D01*
X21804Y75384D01*
X21900Y75345D01*
X21994Y75302D01*
X22014Y75300D01*
X22032Y75292D01*
X22199Y75274D01*
X23201Y75274D01*
X25126Y73348D01*
X25126Y70626D01*
X23201Y68700D01*
X20478Y68700D01*
G37*
%LPD*%
%LPC*%
G36*
X35213Y121356D02*
X35213Y121356D01*
X33288Y123281D01*
X33288Y126004D01*
X33697Y126414D01*
X33739Y126472D01*
X33789Y126524D01*
X33810Y126571D01*
X33841Y126613D01*
X33862Y126682D01*
X33892Y126747D01*
X33898Y126799D01*
X33913Y126849D01*
X33911Y126920D01*
X33919Y126991D01*
X33908Y127042D01*
X33907Y127094D01*
X33882Y127162D01*
X33867Y127232D01*
X33840Y127277D01*
X33822Y127325D01*
X33778Y127381D01*
X33741Y127443D01*
X33701Y127477D01*
X33669Y127517D01*
X33608Y127556D01*
X33554Y127603D01*
X33506Y127622D01*
X33462Y127650D01*
X33392Y127668D01*
X33326Y127695D01*
X33254Y127703D01*
X33223Y127711D01*
X33200Y127709D01*
X33159Y127713D01*
X33139Y127713D01*
X31213Y129639D01*
X31213Y132361D01*
X33139Y134287D01*
X35861Y134287D01*
X37787Y132361D01*
X37787Y129639D01*
X37377Y129229D01*
X37335Y129171D01*
X37286Y129119D01*
X37264Y129071D01*
X37234Y129029D01*
X37212Y128961D01*
X37182Y128896D01*
X37176Y128844D01*
X37161Y128794D01*
X37163Y128722D01*
X37155Y128651D01*
X37166Y128600D01*
X37168Y128548D01*
X37192Y128481D01*
X37207Y128411D01*
X37234Y128366D01*
X37252Y128317D01*
X37297Y128261D01*
X37334Y128200D01*
X37373Y128166D01*
X37406Y128125D01*
X37466Y128086D01*
X37520Y128040D01*
X37569Y128020D01*
X37613Y127992D01*
X37682Y127975D01*
X37749Y127948D01*
X37820Y127940D01*
X37851Y127932D01*
X37874Y127934D01*
X37915Y127929D01*
X37936Y127929D01*
X39861Y126004D01*
X39861Y123281D01*
X37936Y121356D01*
X35213Y121356D01*
G37*
%LPD*%
%LPC*%
G36*
X97436Y112911D02*
X97436Y112911D01*
X95218Y115129D01*
X95218Y118266D01*
X97436Y120484D01*
X100573Y120484D01*
X102791Y118266D01*
X102791Y115129D01*
X100573Y112911D01*
X97436Y112911D01*
G37*
%LPD*%
%LPC*%
G36*
X102879Y92758D02*
X102879Y92758D01*
X100661Y94976D01*
X100661Y98113D01*
X102879Y100331D01*
X106016Y100331D01*
X108234Y98113D01*
X108234Y94976D01*
X106016Y92758D01*
X102879Y92758D01*
G37*
%LPD*%
%LPC*%
G36*
X120630Y61864D02*
X120630Y61864D01*
X118412Y64082D01*
X118412Y67219D01*
X120630Y69437D01*
X123768Y69437D01*
X125986Y67219D01*
X125986Y64082D01*
X123768Y61864D01*
X120630Y61864D01*
G37*
%LPD*%
%LPC*%
G36*
X73810Y17108D02*
X73810Y17108D01*
X71592Y19326D01*
X71592Y22464D01*
X73810Y24682D01*
X76947Y24682D01*
X79165Y22464D01*
X79165Y19326D01*
X76947Y17108D01*
X73810Y17108D01*
G37*
%LPD*%
%LPC*%
G36*
X36139Y163713D02*
X36139Y163713D01*
X34213Y165639D01*
X34213Y168361D01*
X36139Y170287D01*
X38861Y170287D01*
X40787Y168361D01*
X40787Y165639D01*
X38861Y163713D01*
X36139Y163713D01*
G37*
%LPD*%
%LPC*%
G36*
X107586Y78198D02*
X107586Y78198D01*
X105661Y80123D01*
X105661Y82846D01*
X107586Y84771D01*
X110309Y84771D01*
X112234Y82846D01*
X112234Y80123D01*
X110309Y78198D01*
X107586Y78198D01*
G37*
%LPD*%
%LPC*%
G36*
X105639Y42713D02*
X105639Y42713D01*
X103713Y44639D01*
X103713Y47361D01*
X105639Y49287D01*
X108361Y49287D01*
X110287Y47361D01*
X110287Y44639D01*
X108361Y42713D01*
X105639Y42713D01*
G37*
%LPD*%
%LPC*%
G36*
X123639Y19447D02*
X123639Y19447D01*
X121713Y21372D01*
X121713Y24095D01*
X123639Y26020D01*
X126361Y26020D01*
X128287Y24095D01*
X128287Y21372D01*
X126361Y19447D01*
X123639Y19447D01*
G37*
%LPD*%
%LPC*%
G36*
X99639Y8713D02*
X99639Y8713D01*
X97713Y10639D01*
X97713Y13361D01*
X99639Y15287D01*
X102361Y15287D01*
X104287Y13361D01*
X104287Y10639D01*
X102361Y8713D01*
X99639Y8713D01*
G37*
%LPD*%
D10*
X149067Y72065D03*
X149067Y84765D03*
X149067Y59365D03*
X149067Y97465D03*
X149067Y46665D03*
X149067Y110165D03*
X149067Y33965D03*
X149067Y21265D03*
X80830Y-1511D03*
X93530Y-1511D03*
X68130Y-1511D03*
X106230Y-1511D03*
X55430Y-1511D03*
X118930Y-1511D03*
X42730Y-1511D03*
X30030Y-1511D03*
X247Y71818D03*
X247Y84518D03*
X247Y59118D03*
X247Y97218D03*
X247Y46418D03*
X247Y109918D03*
X247Y33718D03*
X247Y21018D03*
D11*
X87370Y43286D03*
D12*
X99005Y116698D03*
X104448Y96544D03*
X75378Y20895D03*
X17651Y76485D03*
X21868Y124144D03*
X122199Y65650D03*
X26498Y39845D03*
X93612Y38410D03*
D13*
X18500Y129500D03*
D11*
X19085Y167069D03*
D14*
X18500Y129500D02*
X10500Y129500D01*
X5402Y134598D02*
X5402Y159402D01*
X13069Y167069D02*
X19085Y167069D01*
X5402Y134598D02*
X10500Y129500D01*
X5402Y159402D02*
X13069Y167069D01*
D11*
X85080Y71301D03*
X85080Y84001D03*
X85080Y96701D03*
X74920Y96701D03*
X74920Y106861D03*
X62220Y106861D03*
X49520Y106861D03*
X39360Y96701D03*
X39360Y84001D03*
X39360Y71301D03*
X49520Y71301D03*
X49520Y84001D03*
X49520Y96701D03*
X49520Y61141D03*
X62220Y61141D03*
X74920Y61141D03*
X62220Y71301D03*
X62220Y84001D03*
X62220Y96701D03*
X74920Y84001D03*
X74920Y71301D03*
X62700Y132382D03*
X62700Y138907D03*
X62742Y145944D03*
X67311Y151748D03*
X79210Y125449D03*
X71320Y125449D03*
X109648Y127463D03*
X118408Y127463D03*
X143877Y127529D03*
X117350Y92450D03*
D12*
X22678Y45326D03*
D11*
X143877Y118529D03*
X126877Y127529D03*
X134877Y127529D03*
X132782Y64559D03*
X101842Y127568D03*
X63008Y162836D03*
X65380Y177981D03*
X58880Y177981D03*
X52380Y177981D03*
X45743Y177981D03*
X39539Y178069D03*
X52870Y168314D03*
X45870Y168314D03*
X42374Y162914D03*
X49374Y162914D03*
X62700Y125382D03*
X132719Y24835D03*
X5029Y178211D03*
X12005Y178089D03*
X19177Y178089D03*
X26128Y178031D03*
X33128Y178187D03*
X23779Y144000D03*
X56374Y162914D03*
X58870Y168314D03*
X65370Y168314D03*
X48870Y173314D03*
X55370Y173314D03*
X62370Y173314D03*
X41870Y173314D03*
X72880Y177981D03*
X79880Y177981D03*
X86880Y177981D03*
X100380Y177981D03*
X106880Y177981D03*
X113380Y177981D03*
X93880Y177981D03*
X127380Y177981D03*
D13*
X142380Y177981D03*
D11*
X68870Y173314D03*
X67182Y159332D03*
X63066Y155235D03*
D13*
X135380Y165981D03*
X128380Y165981D03*
X142380Y165981D03*
X135380Y138481D03*
X128880Y138481D03*
X142380Y138481D03*
D11*
X91811Y155248D03*
X98811Y149248D03*
X101811Y162748D03*
X106811Y158248D03*
X120811Y168248D03*
X120811Y161248D03*
X120811Y142748D03*
X120811Y133748D03*
X91811Y149248D03*
X98342Y123068D03*
X132880Y177981D03*
X125000Y22734D03*
D12*
X9398Y15497D03*
X8866Y101695D03*
X8707Y93716D03*
D11*
X31315Y44082D03*
X27000Y51000D03*
X21816Y91485D03*
X21839Y71987D03*
X35802Y39638D03*
X41752Y40560D03*
X47432Y42189D03*
X52605Y39189D03*
X58000Y43000D03*
X37500Y167000D03*
X34500Y131000D03*
X62641Y39094D03*
X67899Y42533D03*
X107000Y46000D03*
X108948Y81485D03*
X18311Y106530D03*
X24000Y133000D03*
X21448Y101485D03*
X14264Y151532D03*
X18448Y96485D03*
X14199Y145665D03*
X19000Y156000D03*
X14074Y138999D03*
D15*
X11301Y138999D01*
X8704Y141596D01*
X8704Y153581D02*
X12042Y156918D01*
X18082Y156918D01*
X19000Y156000D01*
X8704Y153581D02*
X8704Y141596D01*
D11*
X36574Y124643D03*
X101000Y12000D03*
M02*
