G04 EAGLE Gerber RS-274X export*
G75*
%MOMM*%
%FSLAX34Y34*%
%LPD*%
%INCopper Layer 15*%
%IPPOS*%
%AMOC8*
5,1,8,0,0,1.08239X$1,22.5*%
G01*
%ADD10C,0.975000*%
%ADD11C,0.403200*%
%ADD12C,0.503200*%
%ADD13C,0.453200*%

G36*
X92425Y52283D02*
X92425Y52283D01*
X92516Y52290D01*
X92545Y52303D01*
X92577Y52308D01*
X92658Y52351D01*
X92742Y52386D01*
X92774Y52412D01*
X92795Y52423D01*
X92817Y52446D01*
X92873Y52491D01*
X93215Y52833D01*
X93268Y52907D01*
X93327Y52977D01*
X93340Y53007D01*
X93358Y53033D01*
X93385Y53120D01*
X93419Y53205D01*
X93424Y53246D01*
X93431Y53268D01*
X93430Y53300D01*
X93438Y53371D01*
X93438Y131373D01*
X146837Y131373D01*
X146856Y131376D01*
X146876Y131374D01*
X146977Y131396D01*
X147079Y131413D01*
X147097Y131422D01*
X147116Y131427D01*
X147205Y131480D01*
X147297Y131528D01*
X147310Y131542D01*
X147327Y131553D01*
X147395Y131631D01*
X147466Y131706D01*
X147474Y131724D01*
X147487Y131740D01*
X147526Y131836D01*
X147570Y131929D01*
X147572Y131949D01*
X147579Y131968D01*
X147598Y132134D01*
X147598Y179524D01*
X147595Y179543D01*
X147597Y179563D01*
X147575Y179664D01*
X147558Y179766D01*
X147549Y179784D01*
X147545Y179804D01*
X147491Y179893D01*
X147443Y179984D01*
X147429Y179998D01*
X147418Y180015D01*
X147340Y180082D01*
X147265Y180153D01*
X147247Y180162D01*
X147231Y180175D01*
X147135Y180213D01*
X147042Y180257D01*
X147022Y180259D01*
X147003Y180267D01*
X146837Y180285D01*
X2835Y180285D01*
X2815Y180282D01*
X2795Y180284D01*
X2694Y180262D01*
X2592Y180245D01*
X2574Y180236D01*
X2555Y180232D01*
X2466Y180178D01*
X2374Y180130D01*
X2361Y180116D01*
X2344Y180106D01*
X2276Y180027D01*
X2205Y179952D01*
X2197Y179934D01*
X2184Y179919D01*
X2145Y179822D01*
X2101Y179729D01*
X2099Y179709D01*
X2092Y179690D01*
X2073Y179524D01*
X2073Y134401D01*
X2076Y134381D01*
X2074Y134362D01*
X2096Y134260D01*
X2113Y134158D01*
X2122Y134141D01*
X2127Y134121D01*
X2180Y134032D01*
X2228Y133941D01*
X2243Y133927D01*
X2253Y133910D01*
X2331Y133843D01*
X2406Y133772D01*
X2424Y133763D01*
X2440Y133750D01*
X2536Y133711D01*
X2630Y133668D01*
X2649Y133666D01*
X2668Y133658D01*
X2835Y133640D01*
X29676Y133640D01*
X29766Y133655D01*
X29857Y133662D01*
X29887Y133674D01*
X29919Y133680D01*
X30000Y133722D01*
X30084Y133758D01*
X30116Y133784D01*
X30122Y133787D01*
X32886Y133787D01*
X32929Y133750D01*
X32959Y133738D01*
X32985Y133719D01*
X33072Y133692D01*
X33157Y133658D01*
X33198Y133654D01*
X33220Y133647D01*
X33252Y133648D01*
X33324Y133640D01*
X33765Y133640D01*
X33765Y133199D01*
X33780Y133109D01*
X33787Y133018D01*
X33799Y132988D01*
X33805Y132956D01*
X33847Y132875D01*
X33883Y132791D01*
X33909Y132759D01*
X33920Y132738D01*
X33943Y132716D01*
X33988Y132660D01*
X34787Y131861D01*
X34787Y129120D01*
X34786Y129119D01*
X34764Y129071D01*
X34734Y129029D01*
X34712Y128961D01*
X34682Y128896D01*
X34676Y128844D01*
X34661Y128794D01*
X34663Y128722D01*
X34655Y128651D01*
X34666Y128600D01*
X34668Y128548D01*
X34692Y128481D01*
X34707Y128411D01*
X34734Y128366D01*
X34752Y128317D01*
X34797Y128261D01*
X34834Y128200D01*
X34873Y128166D01*
X34906Y128125D01*
X34966Y128086D01*
X35020Y128040D01*
X35069Y128020D01*
X35113Y127992D01*
X35182Y127975D01*
X35249Y127948D01*
X35320Y127940D01*
X35351Y127932D01*
X35374Y127934D01*
X35415Y127929D01*
X37936Y127929D01*
X39861Y126004D01*
X39861Y123281D01*
X37936Y121356D01*
X35213Y121356D01*
X35064Y121504D01*
X35006Y121546D01*
X34954Y121596D01*
X34907Y121618D01*
X34865Y121648D01*
X34796Y121669D01*
X34731Y121699D01*
X34679Y121705D01*
X34630Y121720D01*
X34558Y121719D01*
X34487Y121726D01*
X34436Y121715D01*
X34384Y121714D01*
X34316Y121689D01*
X34246Y121674D01*
X34202Y121647D01*
X34153Y121630D01*
X34097Y121585D01*
X34035Y121548D01*
X34001Y121508D01*
X33961Y121476D01*
X33922Y121416D01*
X33875Y121361D01*
X33856Y121313D01*
X33828Y121269D01*
X33810Y121200D01*
X33783Y121133D01*
X33775Y121062D01*
X33768Y121030D01*
X33769Y121007D01*
X33765Y120966D01*
X33765Y53030D01*
X33768Y53010D01*
X33766Y52990D01*
X33788Y52889D01*
X33805Y52787D01*
X33814Y52769D01*
X33818Y52750D01*
X33871Y52661D01*
X33920Y52569D01*
X33934Y52556D01*
X33944Y52539D01*
X34023Y52471D01*
X34098Y52400D01*
X34116Y52392D01*
X34131Y52379D01*
X34227Y52340D01*
X34321Y52296D01*
X34341Y52294D01*
X34359Y52287D01*
X34526Y52268D01*
X92335Y52268D01*
X92425Y52283D01*
G37*
G36*
X105834Y32037D02*
X105834Y32037D01*
X105924Y32044D01*
X105954Y32057D01*
X105986Y32062D01*
X106067Y32105D01*
X106151Y32140D01*
X106183Y32166D01*
X106204Y32177D01*
X106226Y32200D01*
X106282Y32245D01*
X126716Y52679D01*
X126769Y52753D01*
X126828Y52823D01*
X126841Y52853D01*
X126859Y52879D01*
X126886Y52966D01*
X126920Y53051D01*
X126925Y53092D01*
X126932Y53114D01*
X126931Y53146D01*
X126939Y53217D01*
X126939Y74936D01*
X126936Y74956D01*
X126938Y74976D01*
X126916Y75077D01*
X126899Y75179D01*
X126890Y75197D01*
X126886Y75216D01*
X126832Y75305D01*
X126784Y75397D01*
X126770Y75410D01*
X126759Y75427D01*
X126681Y75495D01*
X126606Y75566D01*
X126588Y75574D01*
X126572Y75587D01*
X126476Y75626D01*
X126383Y75670D01*
X126363Y75672D01*
X126344Y75679D01*
X126178Y75698D01*
X95583Y75698D01*
X95563Y75695D01*
X95543Y75697D01*
X95442Y75675D01*
X95340Y75658D01*
X95322Y75649D01*
X95303Y75644D01*
X95214Y75591D01*
X95123Y75543D01*
X95109Y75528D01*
X95092Y75518D01*
X95024Y75440D01*
X94953Y75365D01*
X94945Y75347D01*
X94932Y75331D01*
X94893Y75235D01*
X94850Y75141D01*
X94847Y75122D01*
X94840Y75103D01*
X94821Y74936D01*
X94821Y50275D01*
X31859Y50275D01*
X31859Y126452D01*
X31856Y126472D01*
X31858Y126491D01*
X31836Y126593D01*
X31819Y126695D01*
X31810Y126712D01*
X31806Y126732D01*
X31752Y126821D01*
X31704Y126912D01*
X31690Y126926D01*
X31679Y126943D01*
X31601Y127010D01*
X31526Y127082D01*
X31508Y127090D01*
X31492Y127103D01*
X31396Y127142D01*
X31303Y127185D01*
X31283Y127187D01*
X31264Y127195D01*
X31098Y127213D01*
X30139Y127213D01*
X28213Y129139D01*
X28213Y131232D01*
X28210Y131252D01*
X28212Y131271D01*
X28190Y131373D01*
X28174Y131475D01*
X28164Y131492D01*
X28160Y131512D01*
X28107Y131601D01*
X28058Y131692D01*
X28044Y131706D01*
X28034Y131723D01*
X27955Y131790D01*
X27880Y131861D01*
X27862Y131870D01*
X27847Y131883D01*
X27751Y131922D01*
X27657Y131965D01*
X27637Y131967D01*
X27619Y131975D01*
X27452Y131993D01*
X19548Y131993D01*
X19528Y131990D01*
X19509Y131992D01*
X19407Y131970D01*
X19305Y131953D01*
X19288Y131944D01*
X19268Y131940D01*
X19179Y131887D01*
X19088Y131838D01*
X19074Y131824D01*
X19057Y131814D01*
X18990Y131735D01*
X18918Y131660D01*
X18910Y131642D01*
X18897Y131627D01*
X18858Y131531D01*
X18815Y131437D01*
X18813Y131417D01*
X18805Y131399D01*
X18787Y131232D01*
X18787Y128639D01*
X16861Y126713D01*
X15906Y126713D01*
X15886Y126710D01*
X15866Y126712D01*
X15765Y126690D01*
X15663Y126674D01*
X15646Y126664D01*
X15626Y126660D01*
X15537Y126607D01*
X15446Y126558D01*
X15432Y126544D01*
X15415Y126534D01*
X15348Y126455D01*
X15276Y126380D01*
X15268Y126362D01*
X15255Y126347D01*
X15216Y126251D01*
X15173Y126157D01*
X15171Y126137D01*
X15163Y126119D01*
X15145Y125952D01*
X15145Y109850D01*
X15156Y109779D01*
X15158Y109708D01*
X15176Y109659D01*
X15184Y109607D01*
X15218Y109544D01*
X15243Y109477D01*
X15275Y109436D01*
X15299Y109390D01*
X15351Y109340D01*
X15396Y109284D01*
X15440Y109256D01*
X15478Y109220D01*
X15543Y109190D01*
X15603Y109151D01*
X15654Y109139D01*
X15701Y109117D01*
X15772Y109109D01*
X15842Y109091D01*
X15894Y109095D01*
X15945Y109090D01*
X16015Y109105D01*
X16087Y109111D01*
X16135Y109131D01*
X16186Y109142D01*
X16247Y109179D01*
X16313Y109207D01*
X16369Y109252D01*
X16397Y109268D01*
X16412Y109286D01*
X16444Y109312D01*
X16949Y109817D01*
X19672Y109817D01*
X21598Y107892D01*
X21598Y105533D01*
X21601Y105513D01*
X21599Y105493D01*
X21621Y105392D01*
X21637Y105290D01*
X21647Y105272D01*
X21651Y105253D01*
X21704Y105164D01*
X21752Y105073D01*
X21767Y105059D01*
X21777Y105042D01*
X21856Y104974D01*
X21931Y104903D01*
X21949Y104895D01*
X21964Y104882D01*
X22060Y104843D01*
X22154Y104800D01*
X22174Y104797D01*
X22192Y104790D01*
X22359Y104771D01*
X22809Y104771D01*
X24734Y102846D01*
X24734Y100123D01*
X22809Y98198D01*
X22496Y98198D01*
X22476Y98195D01*
X22456Y98197D01*
X22355Y98175D01*
X22253Y98158D01*
X22235Y98149D01*
X22216Y98145D01*
X22127Y98091D01*
X22035Y98043D01*
X22022Y98029D01*
X22005Y98019D01*
X21937Y97940D01*
X21866Y97865D01*
X21858Y97847D01*
X21845Y97832D01*
X21806Y97735D01*
X21762Y97642D01*
X21760Y97622D01*
X21753Y97603D01*
X21734Y97437D01*
X21734Y95533D01*
X21738Y95513D01*
X21735Y95493D01*
X21757Y95392D01*
X21774Y95290D01*
X21783Y95272D01*
X21788Y95253D01*
X21841Y95164D01*
X21889Y95073D01*
X21904Y95059D01*
X21914Y95042D01*
X21993Y94974D01*
X22068Y94903D01*
X22086Y94895D01*
X22101Y94882D01*
X22197Y94843D01*
X22291Y94800D01*
X22310Y94797D01*
X22329Y94790D01*
X22496Y94771D01*
X23178Y94771D01*
X25103Y92846D01*
X25103Y90123D01*
X23178Y88198D01*
X20455Y88198D01*
X18530Y90123D01*
X18530Y92437D01*
X18526Y92456D01*
X18529Y92476D01*
X18507Y92577D01*
X18490Y92679D01*
X18481Y92697D01*
X18476Y92717D01*
X18423Y92806D01*
X18375Y92897D01*
X18360Y92911D01*
X18350Y92928D01*
X18271Y92995D01*
X18196Y93066D01*
X18178Y93075D01*
X18163Y93088D01*
X18067Y93126D01*
X17973Y93170D01*
X17954Y93172D01*
X17935Y93180D01*
X17768Y93198D01*
X17086Y93198D01*
X16444Y93840D01*
X16386Y93882D01*
X16334Y93931D01*
X16287Y93953D01*
X16244Y93984D01*
X16176Y94005D01*
X16111Y94035D01*
X16059Y94041D01*
X16009Y94056D01*
X15938Y94054D01*
X15866Y94062D01*
X15816Y94051D01*
X15763Y94050D01*
X15696Y94025D01*
X15626Y94010D01*
X15581Y93983D01*
X15532Y93965D01*
X15476Y93920D01*
X15415Y93884D01*
X15381Y93844D01*
X15340Y93811D01*
X15302Y93751D01*
X15255Y93697D01*
X15236Y93648D01*
X15207Y93604D01*
X15190Y93535D01*
X15163Y93468D01*
X15155Y93397D01*
X15147Y93366D01*
X15149Y93343D01*
X15145Y93302D01*
X15145Y32783D01*
X15148Y32764D01*
X15146Y32744D01*
X15168Y32643D01*
X15184Y32541D01*
X15194Y32523D01*
X15198Y32504D01*
X15251Y32415D01*
X15299Y32323D01*
X15314Y32310D01*
X15324Y32292D01*
X15403Y32225D01*
X15478Y32154D01*
X15496Y32146D01*
X15511Y32133D01*
X15607Y32094D01*
X15701Y32050D01*
X15721Y32048D01*
X15739Y32041D01*
X15906Y32022D01*
X105743Y32022D01*
X105834Y32037D01*
G37*
G36*
X106873Y17202D02*
X106873Y17202D01*
X106964Y17209D01*
X106994Y17221D01*
X107026Y17227D01*
X107107Y17269D01*
X107191Y17305D01*
X107223Y17331D01*
X107243Y17342D01*
X107266Y17365D01*
X107321Y17410D01*
X140940Y51028D01*
X140993Y51102D01*
X141052Y51172D01*
X141065Y51202D01*
X141083Y51228D01*
X141110Y51315D01*
X141144Y51400D01*
X141149Y51441D01*
X141156Y51463D01*
X141155Y51495D01*
X141163Y51566D01*
X141163Y116279D01*
X141148Y116369D01*
X141141Y116460D01*
X141128Y116490D01*
X141123Y116522D01*
X141080Y116603D01*
X141045Y116687D01*
X141019Y116719D01*
X141008Y116739D01*
X140985Y116761D01*
X140940Y116818D01*
X140590Y117168D01*
X140590Y119890D01*
X140940Y120240D01*
X140993Y120314D01*
X141052Y120384D01*
X141065Y120414D01*
X141083Y120440D01*
X141110Y120527D01*
X141144Y120612D01*
X141149Y120653D01*
X141156Y120675D01*
X141155Y120707D01*
X141163Y120779D01*
X141163Y125279D01*
X141156Y125320D01*
X141157Y125324D01*
X141152Y125344D01*
X141148Y125369D01*
X141141Y125460D01*
X141128Y125490D01*
X141123Y125522D01*
X141107Y125553D01*
X141104Y125564D01*
X141078Y125608D01*
X141045Y125687D01*
X141019Y125719D01*
X141008Y125739D01*
X140989Y125758D01*
X140978Y125775D01*
X140964Y125788D01*
X140940Y125818D01*
X140590Y126168D01*
X140590Y128832D01*
X140587Y128852D01*
X140589Y128872D01*
X140567Y128973D01*
X140550Y129075D01*
X140541Y129093D01*
X140537Y129112D01*
X140483Y129201D01*
X140435Y129293D01*
X140421Y129306D01*
X140410Y129323D01*
X140332Y129391D01*
X140257Y129462D01*
X140239Y129470D01*
X140223Y129483D01*
X140127Y129522D01*
X140034Y129566D01*
X140014Y129568D01*
X139995Y129575D01*
X139829Y129594D01*
X138925Y129594D01*
X138905Y129591D01*
X138885Y129593D01*
X138784Y129571D01*
X138682Y129554D01*
X138664Y129545D01*
X138645Y129540D01*
X138556Y129487D01*
X138464Y129439D01*
X138451Y129424D01*
X138434Y129414D01*
X138366Y129336D01*
X138295Y129261D01*
X138287Y129243D01*
X138274Y129227D01*
X138235Y129131D01*
X138191Y129037D01*
X138189Y129018D01*
X138182Y128999D01*
X138163Y128832D01*
X138163Y126167D01*
X136238Y124242D01*
X133515Y124242D01*
X131415Y126342D01*
X131399Y126354D01*
X131386Y126370D01*
X131299Y126426D01*
X131215Y126486D01*
X131196Y126492D01*
X131179Y126503D01*
X131079Y126528D01*
X130980Y126558D01*
X130960Y126558D01*
X130941Y126563D01*
X130838Y126555D01*
X130734Y126552D01*
X130715Y126545D01*
X130696Y126544D01*
X130601Y126503D01*
X130503Y126468D01*
X130487Y126455D01*
X130469Y126447D01*
X130338Y126342D01*
X128238Y124242D01*
X125515Y124242D01*
X123590Y126167D01*
X123590Y128832D01*
X123587Y128852D01*
X123589Y128872D01*
X123567Y128973D01*
X123550Y129075D01*
X123541Y129093D01*
X123537Y129112D01*
X123483Y129201D01*
X123435Y129293D01*
X123421Y129306D01*
X123410Y129323D01*
X123332Y129391D01*
X123257Y129462D01*
X123239Y129470D01*
X123223Y129483D01*
X123127Y129522D01*
X123034Y129566D01*
X123014Y129568D01*
X122995Y129575D01*
X122829Y129594D01*
X122456Y129594D01*
X122436Y129591D01*
X122416Y129593D01*
X122315Y129571D01*
X122213Y129554D01*
X122195Y129545D01*
X122176Y129540D01*
X122087Y129487D01*
X121995Y129439D01*
X121982Y129424D01*
X121965Y129414D01*
X121897Y129336D01*
X121826Y129261D01*
X121818Y129243D01*
X121805Y129227D01*
X121766Y129131D01*
X121722Y129037D01*
X121720Y129018D01*
X121713Y128999D01*
X121694Y128832D01*
X121694Y126101D01*
X119769Y124176D01*
X117046Y124176D01*
X115121Y126101D01*
X115121Y128832D01*
X115118Y128852D01*
X115120Y128872D01*
X115098Y128973D01*
X115081Y129075D01*
X115072Y129093D01*
X115068Y129112D01*
X115014Y129201D01*
X114966Y129293D01*
X114952Y129306D01*
X114941Y129323D01*
X114863Y129391D01*
X114788Y129462D01*
X114770Y129470D01*
X114754Y129483D01*
X114658Y129522D01*
X114565Y129566D01*
X114545Y129568D01*
X114526Y129575D01*
X114360Y129594D01*
X113696Y129594D01*
X113676Y129591D01*
X113656Y129593D01*
X113555Y129571D01*
X113453Y129554D01*
X113435Y129545D01*
X113416Y129540D01*
X113327Y129487D01*
X113236Y129439D01*
X113222Y129424D01*
X113205Y129414D01*
X113137Y129336D01*
X113066Y129261D01*
X113058Y129243D01*
X113045Y129227D01*
X113006Y129131D01*
X112963Y129037D01*
X112960Y129018D01*
X112953Y128999D01*
X112934Y128832D01*
X112934Y126101D01*
X111009Y124176D01*
X108286Y124176D01*
X106230Y126232D01*
X106214Y126243D01*
X106202Y126259D01*
X106115Y126315D01*
X106031Y126375D01*
X106012Y126381D01*
X105995Y126392D01*
X105894Y126417D01*
X105796Y126448D01*
X105776Y126447D01*
X105756Y126452D01*
X105653Y126444D01*
X105550Y126441D01*
X105531Y126434D01*
X105511Y126433D01*
X105416Y126392D01*
X105319Y126357D01*
X105303Y126344D01*
X105285Y126337D01*
X105154Y126232D01*
X103203Y124281D01*
X102390Y124281D01*
X102370Y124278D01*
X102350Y124280D01*
X102249Y124258D01*
X102147Y124241D01*
X102129Y124232D01*
X102110Y124228D01*
X102021Y124174D01*
X101929Y124126D01*
X101916Y124112D01*
X101899Y124101D01*
X101831Y124023D01*
X101760Y123948D01*
X101752Y123930D01*
X101739Y123914D01*
X101700Y123818D01*
X101656Y123725D01*
X101654Y123705D01*
X101647Y123686D01*
X101628Y123520D01*
X101628Y121706D01*
X99703Y119781D01*
X96980Y119781D01*
X96069Y120692D01*
X96011Y120733D01*
X95959Y120783D01*
X95912Y120805D01*
X95870Y120835D01*
X95801Y120856D01*
X95736Y120886D01*
X95684Y120892D01*
X95635Y120908D01*
X95563Y120906D01*
X95492Y120914D01*
X95441Y120903D01*
X95389Y120901D01*
X95321Y120877D01*
X95251Y120861D01*
X95207Y120835D01*
X95158Y120817D01*
X95102Y120772D01*
X95040Y120735D01*
X95006Y120696D01*
X94966Y120663D01*
X94927Y120603D01*
X94880Y120548D01*
X94861Y120500D01*
X94833Y120456D01*
X94815Y120387D01*
X94788Y120320D01*
X94780Y120249D01*
X94773Y120218D01*
X94774Y120194D01*
X94770Y120153D01*
X94770Y77857D01*
X94773Y77838D01*
X94771Y77818D01*
X94793Y77717D01*
X94810Y77615D01*
X94819Y77597D01*
X94823Y77578D01*
X94876Y77489D01*
X94925Y77397D01*
X94939Y77384D01*
X94949Y77367D01*
X95028Y77299D01*
X95103Y77228D01*
X95121Y77220D01*
X95136Y77207D01*
X95232Y77168D01*
X95326Y77124D01*
X95346Y77122D01*
X95364Y77115D01*
X95531Y77096D01*
X106850Y77096D01*
X106921Y77108D01*
X106993Y77110D01*
X107042Y77128D01*
X107093Y77136D01*
X107156Y77170D01*
X107224Y77194D01*
X107264Y77227D01*
X107310Y77251D01*
X107360Y77303D01*
X107416Y77348D01*
X107444Y77392D01*
X107480Y77429D01*
X107510Y77494D01*
X107549Y77555D01*
X107561Y77605D01*
X107583Y77652D01*
X107591Y77724D01*
X107609Y77793D01*
X107605Y77845D01*
X107610Y77897D01*
X107595Y77967D01*
X107590Y78038D01*
X107569Y78086D01*
X107558Y78137D01*
X107521Y78199D01*
X107493Y78265D01*
X107448Y78321D01*
X107432Y78348D01*
X107414Y78364D01*
X107388Y78396D01*
X105661Y80123D01*
X105661Y82846D01*
X107586Y84771D01*
X110309Y84771D01*
X112234Y82846D01*
X112234Y80123D01*
X110507Y78396D01*
X110465Y78338D01*
X110416Y78286D01*
X110394Y78238D01*
X110363Y78196D01*
X110342Y78128D01*
X110312Y78062D01*
X110306Y78011D01*
X110291Y77961D01*
X110293Y77889D01*
X110285Y77818D01*
X110296Y77767D01*
X110297Y77715D01*
X110322Y77648D01*
X110337Y77578D01*
X110364Y77533D01*
X110382Y77484D01*
X110427Y77428D01*
X110463Y77367D01*
X110503Y77333D01*
X110535Y77292D01*
X110596Y77253D01*
X110650Y77207D01*
X110699Y77187D01*
X110742Y77159D01*
X110812Y77142D01*
X110878Y77115D01*
X110950Y77107D01*
X110981Y77099D01*
X111004Y77101D01*
X111045Y77096D01*
X128861Y77096D01*
X128861Y67124D01*
X128873Y67053D01*
X128875Y66982D01*
X128893Y66933D01*
X128901Y66881D01*
X128935Y66818D01*
X128959Y66751D01*
X128992Y66710D01*
X129016Y66664D01*
X129068Y66615D01*
X129113Y66559D01*
X129157Y66531D01*
X129194Y66495D01*
X129259Y66464D01*
X129320Y66426D01*
X129370Y66413D01*
X129418Y66391D01*
X129489Y66383D01*
X129558Y66366D01*
X129610Y66370D01*
X129662Y66364D01*
X129732Y66379D01*
X129804Y66385D01*
X129851Y66405D01*
X129902Y66416D01*
X129964Y66453D01*
X130030Y66481D01*
X130086Y66526D01*
X130113Y66542D01*
X130129Y66560D01*
X130161Y66586D01*
X131421Y67846D01*
X134144Y67846D01*
X136069Y65921D01*
X136069Y63198D01*
X134144Y61272D01*
X131421Y61272D01*
X130161Y62533D01*
X130103Y62574D01*
X130051Y62624D01*
X130003Y62646D01*
X129961Y62676D01*
X129893Y62697D01*
X129828Y62727D01*
X129776Y62733D01*
X129726Y62748D01*
X129654Y62747D01*
X129583Y62754D01*
X129532Y62743D01*
X129480Y62742D01*
X129413Y62717D01*
X129343Y62702D01*
X129298Y62676D01*
X129249Y62658D01*
X129193Y62613D01*
X129132Y62576D01*
X129098Y62536D01*
X129057Y62504D01*
X129018Y62444D01*
X128972Y62389D01*
X128952Y62341D01*
X128924Y62297D01*
X128907Y62228D01*
X128880Y62161D01*
X128872Y62090D01*
X128864Y62058D01*
X128866Y62035D01*
X128861Y61994D01*
X128861Y51898D01*
X107497Y30534D01*
X36058Y30534D01*
X36038Y30531D01*
X36018Y30533D01*
X35917Y30511D01*
X35815Y30494D01*
X35797Y30485D01*
X35778Y30480D01*
X35689Y30427D01*
X35597Y30379D01*
X35584Y30364D01*
X35567Y30354D01*
X35499Y30276D01*
X35428Y30201D01*
X35420Y30183D01*
X35407Y30167D01*
X35368Y30071D01*
X35324Y29977D01*
X35322Y29958D01*
X35315Y29939D01*
X35296Y29772D01*
X35296Y17948D01*
X35300Y17928D01*
X35297Y17909D01*
X35319Y17807D01*
X35336Y17705D01*
X35345Y17688D01*
X35350Y17668D01*
X35403Y17579D01*
X35451Y17488D01*
X35466Y17474D01*
X35476Y17457D01*
X35554Y17390D01*
X35629Y17319D01*
X35648Y17310D01*
X35663Y17297D01*
X35759Y17259D01*
X35853Y17215D01*
X35872Y17213D01*
X35891Y17205D01*
X36058Y17187D01*
X106783Y17187D01*
X106873Y17202D01*
G37*
G36*
X26125Y3515D02*
X26125Y3515D01*
X26216Y3522D01*
X26246Y3535D01*
X26278Y3540D01*
X26358Y3583D01*
X26442Y3618D01*
X26474Y3644D01*
X26495Y3655D01*
X26517Y3678D01*
X26536Y3694D01*
X28808Y4635D01*
X31253Y4635D01*
X33534Y3690D01*
X33561Y3670D01*
X33631Y3611D01*
X33661Y3598D01*
X33687Y3580D01*
X33774Y3553D01*
X33859Y3519D01*
X33900Y3514D01*
X33922Y3507D01*
X33954Y3508D01*
X34025Y3500D01*
X38735Y3500D01*
X38825Y3515D01*
X38916Y3522D01*
X38946Y3535D01*
X38978Y3540D01*
X39058Y3583D01*
X39142Y3618D01*
X39174Y3644D01*
X39195Y3655D01*
X39217Y3678D01*
X39236Y3694D01*
X41508Y4635D01*
X43953Y4635D01*
X46234Y3690D01*
X46261Y3670D01*
X46331Y3611D01*
X46361Y3598D01*
X46387Y3580D01*
X46474Y3553D01*
X46559Y3519D01*
X46600Y3514D01*
X46622Y3507D01*
X46654Y3508D01*
X46725Y3500D01*
X51435Y3500D01*
X51525Y3515D01*
X51616Y3522D01*
X51646Y3535D01*
X51678Y3540D01*
X51758Y3583D01*
X51842Y3618D01*
X51874Y3644D01*
X51895Y3655D01*
X51917Y3678D01*
X51936Y3694D01*
X54208Y4635D01*
X56653Y4635D01*
X58934Y3690D01*
X58961Y3670D01*
X59031Y3611D01*
X59061Y3598D01*
X59087Y3580D01*
X59174Y3553D01*
X59259Y3519D01*
X59300Y3514D01*
X59322Y3507D01*
X59354Y3508D01*
X59425Y3500D01*
X64135Y3500D01*
X64225Y3515D01*
X64316Y3522D01*
X64346Y3535D01*
X64378Y3540D01*
X64458Y3583D01*
X64542Y3618D01*
X64574Y3644D01*
X64595Y3655D01*
X64617Y3678D01*
X64636Y3694D01*
X66908Y4635D01*
X69353Y4635D01*
X71634Y3690D01*
X71661Y3670D01*
X71731Y3611D01*
X71761Y3598D01*
X71787Y3580D01*
X71874Y3553D01*
X71959Y3519D01*
X72000Y3514D01*
X72022Y3507D01*
X72054Y3508D01*
X72125Y3500D01*
X76835Y3500D01*
X76925Y3515D01*
X77016Y3522D01*
X77046Y3535D01*
X77078Y3540D01*
X77158Y3583D01*
X77242Y3618D01*
X77274Y3644D01*
X77295Y3655D01*
X77317Y3678D01*
X77336Y3694D01*
X79608Y4635D01*
X82053Y4635D01*
X84334Y3690D01*
X84361Y3670D01*
X84431Y3611D01*
X84461Y3598D01*
X84487Y3580D01*
X84574Y3553D01*
X84659Y3519D01*
X84700Y3514D01*
X84722Y3507D01*
X84754Y3508D01*
X84825Y3500D01*
X89535Y3500D01*
X89625Y3515D01*
X89716Y3522D01*
X89746Y3535D01*
X89778Y3540D01*
X89858Y3583D01*
X89942Y3618D01*
X89974Y3644D01*
X89995Y3655D01*
X90017Y3678D01*
X90036Y3694D01*
X92308Y4635D01*
X94753Y4635D01*
X97034Y3690D01*
X97061Y3670D01*
X97131Y3611D01*
X97161Y3598D01*
X97187Y3580D01*
X97274Y3553D01*
X97359Y3519D01*
X97400Y3514D01*
X97422Y3507D01*
X97454Y3508D01*
X97525Y3500D01*
X102235Y3500D01*
X102325Y3515D01*
X102416Y3522D01*
X102446Y3535D01*
X102478Y3540D01*
X102558Y3583D01*
X102642Y3618D01*
X102674Y3644D01*
X102695Y3655D01*
X102717Y3678D01*
X102736Y3694D01*
X105008Y4635D01*
X107453Y4635D01*
X109734Y3690D01*
X109761Y3670D01*
X109831Y3611D01*
X109861Y3598D01*
X109887Y3580D01*
X109974Y3553D01*
X110059Y3519D01*
X110100Y3514D01*
X110122Y3507D01*
X110154Y3508D01*
X110225Y3500D01*
X114935Y3500D01*
X115025Y3515D01*
X115116Y3522D01*
X115146Y3535D01*
X115178Y3540D01*
X115258Y3583D01*
X115342Y3618D01*
X115374Y3644D01*
X115395Y3655D01*
X115417Y3678D01*
X115436Y3694D01*
X117708Y4635D01*
X120153Y4635D01*
X122434Y3690D01*
X122461Y3670D01*
X122531Y3611D01*
X122561Y3598D01*
X122587Y3580D01*
X122674Y3553D01*
X122759Y3519D01*
X122800Y3514D01*
X122822Y3507D01*
X122854Y3508D01*
X122925Y3500D01*
X140529Y3500D01*
X140548Y3503D01*
X140568Y3501D01*
X140669Y3523D01*
X140771Y3540D01*
X140789Y3549D01*
X140808Y3554D01*
X140897Y3607D01*
X140989Y3655D01*
X141002Y3669D01*
X141019Y3680D01*
X141087Y3758D01*
X141158Y3833D01*
X141166Y3851D01*
X141179Y3867D01*
X141218Y3963D01*
X141262Y4056D01*
X141264Y4076D01*
X141271Y4095D01*
X141290Y4261D01*
X141290Y47629D01*
X141278Y47700D01*
X141276Y47772D01*
X141258Y47821D01*
X141250Y47872D01*
X141217Y47935D01*
X141192Y48003D01*
X141159Y48044D01*
X141135Y48090D01*
X141083Y48139D01*
X141038Y48195D01*
X140994Y48223D01*
X140957Y48259D01*
X140892Y48289D01*
X140831Y48328D01*
X140781Y48341D01*
X140734Y48363D01*
X140662Y48371D01*
X140593Y48388D01*
X140541Y48384D01*
X140489Y48390D01*
X140419Y48374D01*
X140348Y48369D01*
X140300Y48349D01*
X140249Y48337D01*
X140187Y48301D01*
X140121Y48273D01*
X140065Y48228D01*
X140038Y48211D01*
X140022Y48193D01*
X139990Y48168D01*
X107728Y15905D01*
X103581Y15905D01*
X103510Y15894D01*
X103438Y15892D01*
X103389Y15874D01*
X103338Y15865D01*
X103275Y15832D01*
X103207Y15807D01*
X103167Y15775D01*
X103121Y15750D01*
X103071Y15698D01*
X103015Y15654D01*
X102987Y15610D01*
X102951Y15572D01*
X102921Y15507D01*
X102882Y15447D01*
X102870Y15396D01*
X102848Y15349D01*
X102840Y15278D01*
X102822Y15208D01*
X102826Y15156D01*
X102821Y15104D01*
X102836Y15034D01*
X102841Y14963D01*
X102862Y14915D01*
X102873Y14864D01*
X102910Y14802D01*
X102938Y14737D01*
X102982Y14681D01*
X102999Y14653D01*
X103017Y14638D01*
X103042Y14606D01*
X104287Y13361D01*
X104287Y10639D01*
X102361Y8713D01*
X99639Y8713D01*
X97713Y10639D01*
X97713Y13361D01*
X98958Y14606D01*
X98999Y14664D01*
X99049Y14716D01*
X99071Y14763D01*
X99101Y14805D01*
X99122Y14874D01*
X99152Y14939D01*
X99158Y14991D01*
X99173Y15040D01*
X99172Y15112D01*
X99179Y15183D01*
X99168Y15234D01*
X99167Y15286D01*
X99142Y15354D01*
X99127Y15424D01*
X99101Y15468D01*
X99083Y15517D01*
X99038Y15573D01*
X99001Y15635D01*
X98961Y15669D01*
X98929Y15709D01*
X98869Y15748D01*
X98814Y15795D01*
X98766Y15814D01*
X98722Y15842D01*
X98653Y15860D01*
X98586Y15887D01*
X98515Y15895D01*
X98483Y15902D01*
X98460Y15901D01*
X98419Y15905D01*
X13739Y15905D01*
X13739Y126798D01*
X13724Y126888D01*
X13717Y126979D01*
X13704Y127009D01*
X13699Y127041D01*
X13656Y127121D01*
X13620Y127205D01*
X13595Y127237D01*
X13584Y127258D01*
X13560Y127280D01*
X13536Y127311D01*
X13534Y127314D01*
X13532Y127315D01*
X13516Y127336D01*
X12213Y128639D01*
X12213Y131353D01*
X12210Y131373D01*
X12212Y131393D01*
X12190Y131494D01*
X12174Y131596D01*
X12164Y131614D01*
X12160Y131633D01*
X12107Y131722D01*
X12058Y131813D01*
X12044Y131827D01*
X12034Y131844D01*
X11955Y131912D01*
X11880Y131983D01*
X11862Y131991D01*
X11847Y132004D01*
X11751Y132043D01*
X11657Y132086D01*
X11637Y132089D01*
X11619Y132096D01*
X11452Y132115D01*
X5444Y132115D01*
X5424Y132111D01*
X5404Y132114D01*
X5303Y132092D01*
X5201Y132075D01*
X5183Y132066D01*
X5164Y132061D01*
X5075Y132008D01*
X4983Y131960D01*
X4970Y131945D01*
X4953Y131935D01*
X4885Y131856D01*
X4814Y131781D01*
X4806Y131763D01*
X4793Y131748D01*
X4754Y131652D01*
X4710Y131558D01*
X4708Y131539D01*
X4701Y131520D01*
X4682Y131353D01*
X4682Y114489D01*
X4697Y114399D01*
X4704Y114308D01*
X4717Y114278D01*
X4722Y114246D01*
X4765Y114166D01*
X4800Y114082D01*
X4826Y114050D01*
X4837Y114029D01*
X4860Y114007D01*
X4905Y113951D01*
X5457Y113399D01*
X6392Y111140D01*
X6392Y108695D01*
X5457Y106437D01*
X4905Y105885D01*
X4852Y105811D01*
X4793Y105742D01*
X4781Y105712D01*
X4762Y105685D01*
X4735Y105598D01*
X4701Y105514D01*
X4696Y105473D01*
X4689Y105450D01*
X4690Y105418D01*
X4682Y105347D01*
X4682Y103580D01*
X4689Y103538D01*
X4687Y103495D01*
X4709Y103417D01*
X4722Y103337D01*
X4742Y103299D01*
X4754Y103258D01*
X4799Y103191D01*
X4837Y103120D01*
X4868Y103090D01*
X4892Y103055D01*
X4923Y103029D01*
X6007Y101945D01*
X6818Y100731D01*
X7377Y99381D01*
X7505Y98741D01*
X5444Y98741D01*
X5424Y98738D01*
X5404Y98740D01*
X5303Y98718D01*
X5201Y98701D01*
X5183Y98692D01*
X5164Y98688D01*
X5075Y98635D01*
X4983Y98586D01*
X4970Y98572D01*
X4953Y98562D01*
X4885Y98483D01*
X4814Y98408D01*
X4806Y98390D01*
X4793Y98375D01*
X4754Y98279D01*
X4710Y98185D01*
X4708Y98165D01*
X4701Y98147D01*
X4682Y97980D01*
X4682Y96456D01*
X4686Y96436D01*
X4683Y96416D01*
X4705Y96315D01*
X4722Y96213D01*
X4731Y96196D01*
X4736Y96176D01*
X4789Y96087D01*
X4837Y95996D01*
X4852Y95982D01*
X4862Y95965D01*
X4940Y95898D01*
X5015Y95826D01*
X5034Y95818D01*
X5049Y95805D01*
X5145Y95766D01*
X5239Y95723D01*
X5258Y95721D01*
X5277Y95713D01*
X5444Y95695D01*
X7505Y95695D01*
X7377Y95055D01*
X6818Y93705D01*
X6007Y92491D01*
X4956Y91440D01*
X4953Y91438D01*
X4945Y91428D01*
X4921Y91405D01*
X4903Y91380D01*
X4900Y91376D01*
X4841Y91321D01*
X4821Y91283D01*
X4793Y91251D01*
X4762Y91176D01*
X4724Y91105D01*
X4717Y91063D01*
X4701Y91023D01*
X4684Y90873D01*
X4682Y90862D01*
X4683Y90860D01*
X4682Y90856D01*
X4682Y89089D01*
X4697Y88999D01*
X4704Y88908D01*
X4717Y88878D01*
X4722Y88846D01*
X4765Y88766D01*
X4800Y88682D01*
X4826Y88650D01*
X4837Y88629D01*
X4860Y88607D01*
X4905Y88551D01*
X5457Y87999D01*
X6392Y85740D01*
X6392Y83295D01*
X5457Y81037D01*
X4905Y80485D01*
X4852Y80411D01*
X4793Y80342D01*
X4781Y80312D01*
X4762Y80285D01*
X4735Y80198D01*
X4701Y80114D01*
X4696Y80073D01*
X4689Y80050D01*
X4690Y80018D01*
X4682Y79947D01*
X4682Y76389D01*
X4697Y76299D01*
X4704Y76208D01*
X4717Y76178D01*
X4722Y76146D01*
X4765Y76066D01*
X4800Y75982D01*
X4826Y75950D01*
X4837Y75929D01*
X4860Y75907D01*
X4905Y75851D01*
X5457Y75299D01*
X6392Y73040D01*
X6392Y70595D01*
X5457Y68337D01*
X4905Y67785D01*
X4852Y67711D01*
X4793Y67642D01*
X4781Y67612D01*
X4762Y67585D01*
X4735Y67498D01*
X4701Y67414D01*
X4696Y67373D01*
X4689Y67350D01*
X4690Y67318D01*
X4682Y67247D01*
X4682Y63689D01*
X4697Y63599D01*
X4704Y63508D01*
X4717Y63478D01*
X4722Y63446D01*
X4765Y63366D01*
X4800Y63282D01*
X4826Y63250D01*
X4837Y63229D01*
X4860Y63207D01*
X4905Y63151D01*
X5457Y62599D01*
X6392Y60340D01*
X6392Y57895D01*
X5457Y55637D01*
X4905Y55085D01*
X4852Y55011D01*
X4793Y54942D01*
X4781Y54912D01*
X4762Y54885D01*
X4735Y54798D01*
X4701Y54714D01*
X4696Y54673D01*
X4689Y54650D01*
X4690Y54618D01*
X4682Y54547D01*
X4682Y50989D01*
X4697Y50899D01*
X4704Y50808D01*
X4717Y50778D01*
X4722Y50746D01*
X4765Y50666D01*
X4800Y50582D01*
X4826Y50550D01*
X4837Y50529D01*
X4860Y50507D01*
X4905Y50451D01*
X5457Y49899D01*
X6392Y47640D01*
X6392Y45195D01*
X5457Y42937D01*
X4905Y42385D01*
X4852Y42311D01*
X4793Y42242D01*
X4781Y42212D01*
X4762Y42185D01*
X4735Y42098D01*
X4701Y42014D01*
X4696Y41973D01*
X4689Y41950D01*
X4690Y41918D01*
X4682Y41847D01*
X4682Y38289D01*
X4697Y38199D01*
X4704Y38108D01*
X4717Y38078D01*
X4722Y38046D01*
X4765Y37966D01*
X4800Y37882D01*
X4826Y37850D01*
X4837Y37829D01*
X4860Y37807D01*
X4905Y37751D01*
X5457Y37199D01*
X6392Y34940D01*
X6392Y32495D01*
X5457Y30237D01*
X4905Y29685D01*
X4852Y29611D01*
X4793Y29542D01*
X4781Y29512D01*
X4762Y29485D01*
X4735Y29398D01*
X4701Y29314D01*
X4696Y29273D01*
X4689Y29250D01*
X4690Y29218D01*
X4682Y29147D01*
X4682Y25589D01*
X4697Y25499D01*
X4704Y25408D01*
X4717Y25378D01*
X4722Y25346D01*
X4748Y25297D01*
X4750Y25294D01*
X4765Y25266D01*
X4800Y25182D01*
X4826Y25150D01*
X4837Y25129D01*
X4860Y25107D01*
X4865Y25101D01*
X4874Y25086D01*
X4884Y25077D01*
X4905Y25051D01*
X5457Y24499D01*
X6392Y22240D01*
X6392Y19795D01*
X5457Y17537D01*
X4905Y16985D01*
X4852Y16911D01*
X4839Y16895D01*
X4814Y16870D01*
X4811Y16863D01*
X4793Y16842D01*
X4781Y16812D01*
X4762Y16785D01*
X4736Y16701D01*
X4710Y16646D01*
X4709Y16634D01*
X4701Y16614D01*
X4696Y16573D01*
X4689Y16550D01*
X4690Y16518D01*
X4682Y16447D01*
X4682Y4261D01*
X4686Y4242D01*
X4683Y4222D01*
X4705Y4121D01*
X4722Y4019D01*
X4731Y4001D01*
X4736Y3982D01*
X4789Y3893D01*
X4837Y3801D01*
X4852Y3788D01*
X4862Y3771D01*
X4940Y3703D01*
X5015Y3632D01*
X5034Y3624D01*
X5049Y3611D01*
X5145Y3572D01*
X5239Y3528D01*
X5258Y3526D01*
X5277Y3519D01*
X5444Y3500D01*
X26035Y3500D01*
X26125Y3515D01*
G37*
%LPC*%
G36*
X61280Y35807D02*
X61280Y35807D01*
X59355Y37733D01*
X59355Y38952D01*
X59351Y38972D01*
X59354Y38991D01*
X59332Y39093D01*
X59315Y39195D01*
X59306Y39212D01*
X59301Y39232D01*
X59248Y39321D01*
X59200Y39412D01*
X59185Y39426D01*
X59175Y39443D01*
X59097Y39510D01*
X59022Y39582D01*
X59003Y39590D01*
X58988Y39603D01*
X58892Y39642D01*
X58798Y39685D01*
X58779Y39687D01*
X58760Y39695D01*
X58593Y39713D01*
X56653Y39713D01*
X56633Y39710D01*
X56613Y39712D01*
X56512Y39690D01*
X56410Y39674D01*
X56392Y39664D01*
X56373Y39660D01*
X56284Y39607D01*
X56193Y39558D01*
X56179Y39544D01*
X56162Y39534D01*
X56094Y39455D01*
X56023Y39380D01*
X56015Y39362D01*
X56002Y39347D01*
X55963Y39251D01*
X55920Y39157D01*
X55917Y39137D01*
X55910Y39119D01*
X55891Y38952D01*
X55891Y37827D01*
X53966Y35902D01*
X51243Y35902D01*
X49318Y37827D01*
X49318Y38141D01*
X49317Y38149D01*
X49317Y38152D01*
X49315Y38161D01*
X49317Y38180D01*
X49295Y38282D01*
X49278Y38384D01*
X49269Y38401D01*
X49265Y38421D01*
X49211Y38510D01*
X49163Y38601D01*
X49149Y38615D01*
X49138Y38632D01*
X49060Y38699D01*
X48985Y38770D01*
X48967Y38779D01*
X48952Y38792D01*
X48855Y38831D01*
X48762Y38874D01*
X48742Y38876D01*
X48723Y38884D01*
X48557Y38902D01*
X46071Y38902D01*
X45945Y39028D01*
X45929Y39039D01*
X45917Y39055D01*
X45829Y39111D01*
X45746Y39171D01*
X45727Y39177D01*
X45710Y39188D01*
X45609Y39213D01*
X45510Y39244D01*
X45491Y39243D01*
X45471Y39248D01*
X45368Y39240D01*
X45265Y39237D01*
X45246Y39230D01*
X45226Y39229D01*
X45131Y39189D01*
X45034Y39153D01*
X45018Y39140D01*
X45000Y39133D01*
X44869Y39028D01*
X43114Y37273D01*
X40391Y37273D01*
X39776Y37888D01*
X39760Y37899D01*
X39747Y37915D01*
X39660Y37971D01*
X39576Y38031D01*
X39557Y38037D01*
X39540Y38048D01*
X39440Y38073D01*
X39341Y38104D01*
X39321Y38103D01*
X39302Y38108D01*
X39199Y38100D01*
X39095Y38097D01*
X39076Y38090D01*
X39057Y38089D01*
X38962Y38049D01*
X38864Y38013D01*
X38849Y38000D01*
X38830Y37993D01*
X38699Y37888D01*
X37163Y36351D01*
X34440Y36351D01*
X32515Y38277D01*
X32515Y40034D01*
X32512Y40054D01*
X32514Y40073D01*
X32492Y40175D01*
X32475Y40277D01*
X32466Y40294D01*
X32462Y40314D01*
X32408Y40403D01*
X32360Y40494D01*
X32346Y40508D01*
X32335Y40525D01*
X32257Y40592D01*
X32182Y40663D01*
X32164Y40672D01*
X32149Y40685D01*
X32052Y40724D01*
X31959Y40767D01*
X31939Y40769D01*
X31920Y40777D01*
X31754Y40795D01*
X29953Y40795D01*
X28028Y42721D01*
X28028Y45443D01*
X28998Y46414D01*
X29040Y46472D01*
X29090Y46524D01*
X29112Y46571D01*
X29142Y46613D01*
X29163Y46682D01*
X29193Y46747D01*
X29199Y46799D01*
X29214Y46849D01*
X29213Y46920D01*
X29220Y46991D01*
X29209Y47042D01*
X29208Y47094D01*
X29183Y47162D01*
X29168Y47232D01*
X29141Y47277D01*
X29124Y47325D01*
X29079Y47381D01*
X29042Y47443D01*
X29002Y47477D01*
X28970Y47517D01*
X28910Y47556D01*
X28855Y47603D01*
X28807Y47622D01*
X28763Y47650D01*
X28693Y47668D01*
X28627Y47695D01*
X28556Y47703D01*
X28524Y47711D01*
X28501Y47709D01*
X28460Y47713D01*
X27226Y47713D01*
X27206Y47710D01*
X27186Y47712D01*
X27085Y47690D01*
X26983Y47674D01*
X26965Y47664D01*
X26946Y47660D01*
X26857Y47607D01*
X26766Y47558D01*
X26752Y47544D01*
X26735Y47534D01*
X26668Y47455D01*
X26596Y47380D01*
X26588Y47362D01*
X26575Y47347D01*
X26536Y47251D01*
X26493Y47157D01*
X26490Y47137D01*
X26483Y47119D01*
X26465Y46952D01*
X26465Y43758D01*
X24246Y41540D01*
X21109Y41540D01*
X18891Y43758D01*
X18891Y46895D01*
X21109Y49113D01*
X22952Y49113D01*
X22972Y49116D01*
X22991Y49114D01*
X23093Y49136D01*
X23195Y49153D01*
X23212Y49162D01*
X23232Y49166D01*
X23321Y49219D01*
X23412Y49268D01*
X23426Y49282D01*
X23443Y49292D01*
X23510Y49371D01*
X23582Y49446D01*
X23590Y49464D01*
X23603Y49479D01*
X23642Y49576D01*
X23685Y49669D01*
X23687Y49689D01*
X23695Y49708D01*
X23713Y49874D01*
X23713Y52361D01*
X25639Y54287D01*
X28361Y54287D01*
X30287Y52361D01*
X30287Y49639D01*
X29316Y48668D01*
X29275Y48610D01*
X29225Y48558D01*
X29203Y48511D01*
X29173Y48469D01*
X29152Y48400D01*
X29122Y48335D01*
X29116Y48283D01*
X29100Y48233D01*
X29102Y48162D01*
X29094Y48090D01*
X29105Y48040D01*
X29107Y47988D01*
X29131Y47920D01*
X29147Y47850D01*
X29173Y47805D01*
X29191Y47757D01*
X29236Y47700D01*
X29273Y47639D01*
X29312Y47605D01*
X29345Y47564D01*
X29405Y47526D01*
X29460Y47479D01*
X29508Y47460D01*
X29552Y47431D01*
X29621Y47414D01*
X29688Y47387D01*
X29759Y47379D01*
X29790Y47371D01*
X29814Y47373D01*
X29855Y47369D01*
X32676Y47369D01*
X34602Y45443D01*
X34602Y43686D01*
X34605Y43666D01*
X34603Y43647D01*
X34625Y43545D01*
X34641Y43443D01*
X34651Y43426D01*
X34655Y43406D01*
X34708Y43317D01*
X34756Y43226D01*
X34771Y43212D01*
X34781Y43195D01*
X34860Y43128D01*
X34935Y43057D01*
X34953Y43048D01*
X34968Y43035D01*
X35064Y42997D01*
X35158Y42953D01*
X35178Y42951D01*
X35196Y42943D01*
X35363Y42925D01*
X37163Y42925D01*
X37778Y42310D01*
X37794Y42298D01*
X37807Y42283D01*
X37894Y42227D01*
X37978Y42166D01*
X37997Y42161D01*
X38014Y42150D01*
X38114Y42124D01*
X38213Y42094D01*
X38233Y42095D01*
X38252Y42090D01*
X38355Y42098D01*
X38459Y42100D01*
X38477Y42107D01*
X38497Y42109D01*
X38592Y42149D01*
X38690Y42185D01*
X38705Y42197D01*
X38724Y42205D01*
X38855Y42310D01*
X40391Y43846D01*
X43114Y43846D01*
X43239Y43721D01*
X43255Y43709D01*
X43268Y43693D01*
X43355Y43637D01*
X43439Y43577D01*
X43458Y43571D01*
X43475Y43560D01*
X43575Y43535D01*
X43674Y43505D01*
X43694Y43505D01*
X43713Y43500D01*
X43816Y43508D01*
X43920Y43511D01*
X43939Y43518D01*
X43959Y43520D01*
X44054Y43560D01*
X44151Y43596D01*
X44167Y43608D01*
X44185Y43616D01*
X44316Y43721D01*
X46071Y45476D01*
X48794Y45476D01*
X50719Y43550D01*
X50719Y43237D01*
X50722Y43217D01*
X50720Y43197D01*
X50742Y43096D01*
X50759Y42994D01*
X50768Y42977D01*
X50772Y42957D01*
X50826Y42868D01*
X50874Y42777D01*
X50888Y42763D01*
X50898Y42746D01*
X50977Y42679D01*
X51052Y42607D01*
X51070Y42599D01*
X51085Y42586D01*
X51182Y42547D01*
X51275Y42504D01*
X51295Y42502D01*
X51314Y42494D01*
X51480Y42476D01*
X53952Y42476D01*
X53972Y42479D01*
X53991Y42477D01*
X54093Y42499D01*
X54195Y42515D01*
X54212Y42525D01*
X54232Y42529D01*
X54321Y42582D01*
X54412Y42630D01*
X54426Y42645D01*
X54443Y42655D01*
X54510Y42734D01*
X54582Y42809D01*
X54590Y42827D01*
X54603Y42842D01*
X54642Y42938D01*
X54685Y43032D01*
X54687Y43052D01*
X54695Y43070D01*
X54713Y43237D01*
X54713Y44361D01*
X56639Y46287D01*
X59361Y46287D01*
X61287Y44361D01*
X61287Y43142D01*
X61290Y43122D01*
X61288Y43102D01*
X61310Y43001D01*
X61326Y42899D01*
X61336Y42882D01*
X61340Y42862D01*
X61393Y42773D01*
X61442Y42682D01*
X61456Y42668D01*
X61466Y42651D01*
X61545Y42584D01*
X61620Y42512D01*
X61638Y42504D01*
X61653Y42491D01*
X61749Y42452D01*
X61843Y42409D01*
X61863Y42407D01*
X61881Y42399D01*
X62048Y42381D01*
X63851Y42381D01*
X63870Y42384D01*
X63890Y42382D01*
X63991Y42404D01*
X64093Y42420D01*
X64111Y42430D01*
X64130Y42434D01*
X64220Y42487D01*
X64311Y42536D01*
X64324Y42550D01*
X64342Y42560D01*
X64409Y42639D01*
X64480Y42714D01*
X64489Y42732D01*
X64502Y42747D01*
X64540Y42843D01*
X64584Y42937D01*
X64586Y42957D01*
X64593Y42975D01*
X64612Y43142D01*
X64612Y43894D01*
X66537Y45819D01*
X69260Y45819D01*
X71185Y43894D01*
X71185Y41171D01*
X69260Y39246D01*
X66689Y39246D01*
X66670Y39243D01*
X66650Y39245D01*
X66549Y39223D01*
X66447Y39206D01*
X66429Y39197D01*
X66410Y39193D01*
X66321Y39139D01*
X66229Y39091D01*
X66216Y39077D01*
X66198Y39066D01*
X66131Y38988D01*
X66060Y38913D01*
X66052Y38895D01*
X66039Y38880D01*
X66000Y38783D01*
X65956Y38690D01*
X65954Y38670D01*
X65947Y38651D01*
X65928Y38485D01*
X65928Y37733D01*
X64003Y35807D01*
X61280Y35807D01*
G37*
%LPD*%
%LPC*%
G36*
X12713Y135712D02*
X12713Y135712D01*
X10787Y137638D01*
X10787Y140360D01*
X12283Y141856D01*
X12295Y141872D01*
X12310Y141885D01*
X12366Y141972D01*
X12427Y142056D01*
X12433Y142075D01*
X12443Y142092D01*
X12469Y142192D01*
X12499Y142291D01*
X12499Y142311D01*
X12503Y142330D01*
X12495Y142433D01*
X12493Y142537D01*
X12486Y142556D01*
X12484Y142575D01*
X12444Y142670D01*
X12408Y142768D01*
X12396Y142783D01*
X12388Y142802D01*
X12283Y142933D01*
X10913Y144303D01*
X10913Y147026D01*
X11979Y148092D01*
X11990Y148108D01*
X12006Y148121D01*
X12062Y148208D01*
X12122Y148292D01*
X12128Y148311D01*
X12139Y148328D01*
X12164Y148428D01*
X12195Y148527D01*
X12194Y148547D01*
X12199Y148566D01*
X12191Y148669D01*
X12188Y148773D01*
X12182Y148792D01*
X12180Y148812D01*
X12140Y148906D01*
X12104Y149004D01*
X12091Y149020D01*
X12084Y149038D01*
X11979Y149169D01*
X10977Y150170D01*
X10977Y152893D01*
X12903Y154818D01*
X14952Y154818D01*
X14972Y154822D01*
X14991Y154819D01*
X15093Y154841D01*
X15195Y154858D01*
X15212Y154867D01*
X15232Y154872D01*
X15321Y154925D01*
X15412Y154973D01*
X15426Y154988D01*
X15443Y154998D01*
X15510Y155077D01*
X15582Y155152D01*
X15590Y155170D01*
X15603Y155185D01*
X15642Y155281D01*
X15685Y155375D01*
X15687Y155394D01*
X15695Y155413D01*
X15713Y155580D01*
X15713Y157361D01*
X17639Y159287D01*
X20361Y159287D01*
X22287Y157361D01*
X22287Y154639D01*
X20361Y152713D01*
X18312Y152713D01*
X18292Y152710D01*
X18273Y152712D01*
X18171Y152690D01*
X18069Y152674D01*
X18052Y152664D01*
X18032Y152660D01*
X17943Y152607D01*
X17852Y152558D01*
X17838Y152544D01*
X17821Y152534D01*
X17754Y152455D01*
X17683Y152380D01*
X17674Y152362D01*
X17661Y152347D01*
X17622Y152251D01*
X17579Y152157D01*
X17577Y152137D01*
X17569Y152119D01*
X17551Y151952D01*
X17551Y150170D01*
X16485Y149104D01*
X16473Y149088D01*
X16457Y149075D01*
X16401Y148988D01*
X16341Y148904D01*
X16335Y148885D01*
X16324Y148869D01*
X16299Y148768D01*
X16269Y148669D01*
X16269Y148649D01*
X16264Y148630D01*
X16272Y148527D01*
X16275Y148423D01*
X16282Y148405D01*
X16283Y148385D01*
X16324Y148290D01*
X16359Y148192D01*
X16372Y148177D01*
X16380Y148158D01*
X16485Y148027D01*
X17486Y147026D01*
X17486Y144303D01*
X15990Y142808D01*
X15979Y142791D01*
X15963Y142779D01*
X15907Y142692D01*
X15847Y142608D01*
X15841Y142589D01*
X15830Y142572D01*
X15805Y142472D01*
X15774Y142373D01*
X15775Y142353D01*
X15770Y142333D01*
X15778Y142230D01*
X15781Y142127D01*
X15788Y142108D01*
X15789Y142088D01*
X15830Y141993D01*
X15865Y141896D01*
X15878Y141880D01*
X15886Y141862D01*
X15990Y141731D01*
X17361Y140360D01*
X17361Y137638D01*
X15436Y135712D01*
X12713Y135712D01*
G37*
%LPD*%
%LPC*%
G36*
X17639Y163713D02*
X17639Y163713D01*
X15713Y165639D01*
X15713Y168361D01*
X17639Y170287D01*
X20361Y170287D01*
X22287Y168361D01*
X22287Y165639D01*
X20361Y163713D01*
X17639Y163713D01*
G37*
%LPD*%
%LPC*%
G36*
X36139Y163713D02*
X36139Y163713D01*
X34213Y165639D01*
X34213Y168361D01*
X36139Y170287D01*
X38861Y170287D01*
X40787Y168361D01*
X40787Y165639D01*
X38861Y163713D01*
X36139Y163713D01*
G37*
%LPD*%
%LPC*%
G36*
X115988Y89163D02*
X115988Y89163D01*
X114063Y91088D01*
X114063Y93811D01*
X115988Y95737D01*
X118711Y95737D01*
X120637Y93811D01*
X120637Y91088D01*
X118711Y89163D01*
X115988Y89163D01*
G37*
%LPD*%
%LPC*%
G36*
X20478Y68700D02*
X20478Y68700D01*
X18552Y70626D01*
X18552Y73348D01*
X20478Y75274D01*
X23201Y75274D01*
X25126Y73348D01*
X25126Y70626D01*
X23201Y68700D01*
X20478Y68700D01*
G37*
%LPD*%
%LPC*%
G36*
X105639Y42713D02*
X105639Y42713D01*
X103713Y44639D01*
X103713Y47361D01*
X105639Y49287D01*
X108361Y49287D01*
X110287Y47361D01*
X110287Y44639D01*
X108361Y42713D01*
X105639Y42713D01*
G37*
%LPD*%
%LPC*%
G36*
X86008Y40000D02*
X86008Y40000D01*
X84083Y41925D01*
X84083Y44648D01*
X86008Y46573D01*
X88731Y46573D01*
X90657Y44648D01*
X90657Y41925D01*
X88731Y40000D01*
X86008Y40000D01*
G37*
%LPD*%
%LPC*%
G36*
X131358Y21549D02*
X131358Y21549D01*
X129433Y23474D01*
X129433Y26197D01*
X131358Y28122D01*
X134081Y28122D01*
X136006Y26197D01*
X136006Y23474D01*
X134081Y21549D01*
X131358Y21549D01*
G37*
%LPD*%
D10*
X149067Y72065D03*
X149067Y84765D03*
X149067Y59365D03*
X149067Y97465D03*
X149067Y46665D03*
X149067Y110165D03*
X149067Y33965D03*
X149067Y21265D03*
X80830Y-1511D03*
X93530Y-1511D03*
X68130Y-1511D03*
X106230Y-1511D03*
X55430Y-1511D03*
X118930Y-1511D03*
X42730Y-1511D03*
X30030Y-1511D03*
X247Y71818D03*
X247Y84518D03*
X247Y59118D03*
X247Y97218D03*
X247Y46418D03*
X247Y109918D03*
X247Y33718D03*
X247Y21018D03*
D11*
X87370Y43286D03*
D12*
X99005Y116698D03*
X104448Y96544D03*
X75378Y20895D03*
X17651Y76485D03*
X19868Y124965D03*
X122199Y65650D03*
X26498Y39845D03*
X93612Y38410D03*
D11*
X85080Y71301D03*
X85080Y84001D03*
X85080Y96701D03*
X74920Y96701D03*
X74920Y106861D03*
X62220Y106861D03*
X49520Y106861D03*
X39360Y96701D03*
X39360Y84001D03*
X39360Y71301D03*
X49520Y71301D03*
X49520Y84001D03*
X49520Y96701D03*
X49520Y61141D03*
X62220Y61141D03*
X74920Y61141D03*
X62220Y71301D03*
X62220Y84001D03*
X62220Y96701D03*
X74920Y84001D03*
X74920Y71301D03*
X62700Y132382D03*
X62700Y138907D03*
X62742Y145944D03*
X67311Y151748D03*
X79210Y125449D03*
X71320Y125449D03*
X109648Y127463D03*
X118408Y127463D03*
X143877Y127529D03*
X117350Y92450D03*
D12*
X22678Y45326D03*
D11*
X143877Y118529D03*
X126877Y127529D03*
X134877Y127529D03*
X132782Y64559D03*
X101842Y127568D03*
X63008Y162836D03*
X65380Y177981D03*
X58880Y177981D03*
X52380Y177981D03*
X45743Y177981D03*
X39539Y178069D03*
X52870Y168314D03*
X45870Y168314D03*
X42374Y162914D03*
X49374Y162914D03*
X62700Y125382D03*
X132719Y24835D03*
X5029Y178211D03*
X12005Y178089D03*
X19177Y178089D03*
X26128Y178031D03*
X33128Y178187D03*
X23779Y144000D03*
X56374Y162914D03*
X58870Y168314D03*
X65370Y168314D03*
X48870Y173314D03*
X55370Y173314D03*
X62370Y173314D03*
X41870Y173314D03*
X72880Y177981D03*
X79880Y177981D03*
X86880Y177981D03*
X100380Y177981D03*
X106880Y177981D03*
X113380Y177981D03*
X93880Y177981D03*
X127380Y177981D03*
D13*
X142380Y177981D03*
D11*
X68870Y173314D03*
X67182Y159332D03*
X63066Y155235D03*
D13*
X135380Y165981D03*
X128380Y165981D03*
X142380Y165981D03*
X135380Y138481D03*
X128880Y138481D03*
X142380Y138481D03*
D11*
X91811Y155248D03*
X98811Y149248D03*
X101811Y162748D03*
X106811Y158248D03*
X120811Y168248D03*
X120811Y161248D03*
X120811Y142748D03*
X120811Y133748D03*
X91811Y149248D03*
X98342Y123068D03*
X132880Y177981D03*
X125000Y22734D03*
D12*
X9398Y15497D03*
X8866Y101695D03*
X8707Y93716D03*
D11*
X9100Y128633D03*
X19000Y167000D03*
X31315Y44082D03*
X27000Y51000D03*
X21816Y91485D03*
X21839Y71987D03*
X35802Y39638D03*
X41752Y40560D03*
X47432Y42189D03*
X52605Y39189D03*
X58000Y43000D03*
X37500Y167000D03*
X31500Y130500D03*
X62641Y39094D03*
X67899Y42533D03*
X107000Y46000D03*
X108948Y81485D03*
X18311Y106530D03*
X15500Y130000D03*
X21448Y101485D03*
X14264Y151532D03*
X18448Y96485D03*
X14199Y145665D03*
X19000Y156000D03*
X14074Y138999D03*
X36574Y124643D03*
X101000Y12000D03*
M02*
