M48
;GenerationSoftware,Autodesk,EAGLE,9.6.2*%
;CreationDate,2022-11-24T18:27:13Z*%
FMAT,2
ICI,OFF
METRIC,TZ,000.000
T3C0.200
T2C0.300
T1C0.650
%
G90
M71
T1
X14907Y11016
X10623Y-151
X5543Y-151
X11893Y-151
X4273Y-151
X3003Y-151
X25Y7182
X25Y8452
X25Y5912
X25Y2102
X25Y9722
X25Y4642
X25Y10992
X14907Y4666
X14907Y7206
X14907Y8476
X14907Y5936
X14907Y9746
X25Y3372
X14907Y3396
X14907Y2126
X8083Y-151
X9353Y-151
X6813Y-151
T2
X9900Y11670
X10445Y9654
X7538Y2090
X1765Y7648
X1987Y12497
X12220Y6565
X2650Y3985
X9361Y3841
X940Y1550
X887Y10169
X871Y9372
X2268Y4533
T3
X4952Y7130
X4952Y8400
X4952Y9670
X4952Y6114
X6222Y6114
X7492Y6114
X6222Y7130
X6222Y8400
X6222Y9670
X7492Y8400
X7492Y7130
X6270Y13238
X6270Y13891
X6274Y14594
X6340Y15434
X7921Y12545
X7132Y12545
X10815Y12746
X11841Y12746
X14388Y12753
X11735Y9245
X14388Y11853
X12688Y12753
X13488Y12753
X13278Y6456
X9884Y12757
X6351Y16134
X6538Y17848
X5888Y17848
X5238Y17848
X4574Y17848
X3963Y17848
X5237Y17281
X4587Y17281
X6537Y16741
X5237Y16741
X4537Y16741
X4537Y16141
X5137Y16141
X6270Y12538
X13272Y2484
X513Y17848
X13461Y13988
X1913Y17848
X2613Y17848
X3313Y17848
X11860Y17098
X11860Y16298
X11860Y14348
X11860Y13548
X3987Y17281
X2378Y14400
X9090Y15534
X10040Y15534
X9090Y14934
X10040Y14934
X5887Y16741
X5737Y16141
X5887Y17281
X6537Y17281
X7287Y17281
X8037Y17281
X8837Y17281
X9587Y17281
X10287Y17281
X12500Y2273
X8737Y4329
X14400Y17848
X13765Y17848
X910Y12863
X1900Y16700
X3131Y4408
X2700Y5100
X2182Y9148
X2184Y7199
X3580Y3964
X4175Y4056
X4743Y4219
X5260Y3919
X5800Y4300
X3750Y16700
X13080Y17848
X6264Y3909
X6790Y4253
X10700Y4600
X10895Y8148
X1831Y10653
X1550Y13000
X2145Y10148
X1426Y15153
X1845Y9648
X1420Y14566
X1900Y15600
X1407Y13900
X3757Y12464
X10100Y1200
X12445Y17848
X11810Y17848
X10286Y17848
X9574Y17848
X1213Y17848
X8812Y17848
X8050Y17848
X7288Y17848
X12826Y13988
X14223Y13988
X13461Y16782
X12826Y16782
X14096Y16782
X8508Y7130
X8508Y8400
X8508Y9670
X7492Y9670
X7492Y10686
X6222Y10686
X4952Y10686
X3936Y9670
X3936Y8400
X3936Y7130
X3150Y13050
M30