M48
;GenerationSoftware,Autodesk,EAGLE,9.6.2*%
;CreationDate,2022-10-13T13:57:26Z*%
FMAT,2
ICI,OFF
METRIC,TZ,000.000
T3C0.200
T2C0.300
T1C0.650
%
G90
M71
T1
X4818Y-62
X0Y4222
X0Y9302
X0Y2952
X0Y10572
X0Y11842
X7333Y14820
X8603Y14820
X6063Y14820
X2253Y14820
X9873Y14820
X4793Y14820
X11143Y14820
X3548Y-62
X7358Y-62
X8628Y-62
X6088Y-62
X9898Y-62
X3523Y14820
X11168Y-62
X2278Y-62
X0Y6762
X0Y5492
X0Y8032
T2
X2360Y8360
X11821Y4944
X9806Y4400
X4064Y12177
X3760Y4340
X7800Y13080
X11959Y12432
X6700Y2600
X2100Y11700
X1612Y13868
X10537Y13942
X4900Y12700
T3
X9822Y6337
X9822Y7353
X10838Y7353
X10838Y8623
X10838Y9893
X9822Y10909
X8552Y10909
X7282Y10909
X7282Y9893
X8552Y9893
X9822Y9893
X6266Y9893
X6266Y8623
X6266Y7353
X7282Y8623
X8552Y8623
X9822Y8623
X8552Y7353
X7282Y7353
X13490Y8575
X14342Y8575
X15146Y8571
X15878Y8571
X17146Y7608
X12696Y6924
X12696Y7713
X12693Y8582
X12898Y4030
X12898Y3004
X12904Y457
X9397Y3110
X1298Y4204
X1298Y3504
X12004Y457
X17950Y6845
X12904Y1357
X6400Y1491
X500Y416
X536Y14253
X17950Y11455
X17950Y12255
X17950Y13355
X17950Y14355
X491Y1424
X9350Y14055
X15486Y10768
X16124Y11637
X17889Y9523
X13273Y13170
X16673Y8572
X1125Y11491
X12908Y4961
X4200Y5700
X7300Y3091
X17950Y495
X17950Y1130
X12627Y13895
X17400Y12900
X2200Y1100
X4560Y11713
X9300Y12663
X7350Y12661
X4115Y11265
X4207Y10670
X4370Y10102
X4070Y9584
X4395Y9094
X12900Y11800
X1300Y2600
X4061Y8581
X17950Y1765
X5099Y5357
X8400Y3700
X10805Y13014
X13340Y12242
X10300Y12700
X16162Y14329
X9800Y13000
X16100Y13300
X12666Y13316
X17400Y13800
X17950Y2400
X17950Y3035
X17950Y4559
X17950Y5321
X17950Y6083
X17950Y7607
X12904Y2157
X15156Y4559
X15156Y5194
X15283Y5829
X15791Y6083
X16426Y6083
X15791Y4559
X15791Y5194
X16426Y5575
X14140Y1384
X14140Y2019
X14140Y622
X16934Y1384
X16934Y2019
X16934Y749
X7282Y6337
X8552Y6337
X4200Y8000
M30