M48
;GenerationSoftware,Autodesk,EAGLE,9.6.2*%
;CreationDate,2022-10-14T05:36:08Z*%
FMAT,2
ICI,OFF
METRIC,TZ,000.000
T3C0.200
T2C0.300
T1C0.650
%
G90
M71
T1
X14907Y9746
X6813Y-151
X10623Y-151
X5543Y-151
X11893Y-151
X4273Y-151
X3003Y-151
X25Y7182
X25Y8452
X25Y2102
X25Y5912
X25Y9722
X25Y4642
X25Y10992
X14907Y3396
X14907Y7206
X14907Y8476
X14907Y5936
X25Y3372
X14907Y4666
X14907Y11016
X14907Y2126
X8083Y-151
X9353Y-151
T2
X6485Y2208
X9900Y11670
X10445Y9654
X2668Y3913
X10505Y3609
X1765Y7648
X2413Y11807
X12245Y6548
X3145Y1948
X977Y1461
X903Y10386
X13545Y1648
X2145Y4748
T3
X7492Y9670
X7492Y10686
X6222Y10686
X4952Y10686
X3936Y9670
X3936Y8400
X3936Y7130
X4952Y7130
X4952Y8400
X4952Y9670
X4952Y6114
X6222Y6114
X7492Y6114
X6222Y7130
X6222Y8400
X6222Y9670
X7492Y8400
X7492Y7130
X6270Y13238
X6270Y13891
X6274Y14594
X6273Y15326
X7229Y16758
X7921Y12545
X7132Y12545
X6263Y12541
X10815Y12746
X11841Y12746
X14388Y12753
X11735Y9245
X10641Y1146
X14388Y11853
X12688Y12753
X8000Y17798
X13354Y6249
X14429Y349
X591Y385
X13420Y340
X790Y9198
X3208Y15973
X5322Y17737
X6281Y16608
X3354Y973
X9884Y12757
X9145Y4048
X11754Y7149
X7237Y17281
X14429Y1249
X6284Y15934
X1843Y13486
X1522Y17737
X522Y17737
X14350Y17798
X13715Y17798
X950Y12475
X2083Y16041
X13080Y17798
X3131Y4408
X2182Y9148
X2184Y7199
X3580Y3964
X4175Y4056
X4743Y4219
X5260Y3919
X5751Y4243
X3045Y12748
X11445Y1148
X6264Y3909
X12445Y17798
X9488Y4947
X11145Y8248
X1831Y10653
X2602Y13188
X2145Y10148
X516Y16010
X1845Y9648
X1482Y16023
X1528Y12515
X1045Y17248
X11810Y17798
X10286Y17798
X9524Y17798
X8762Y17798
X7238Y17798
X10292Y15033
X13488Y12753
X9651Y15033
X9049Y15016
X8758Y15598
X8733Y16273
X10286Y15639
X9651Y15639
X9270Y16282
X13461Y13988
X12826Y13988
X14223Y13988
X13461Y16782
X12826Y16782
X14096Y16782
X8508Y7130
X8508Y8400
X8508Y9670
X6845Y4048
M30