M48
;GenerationSoftware,Autodesk,EAGLE,9.6.2*%
;CreationDate,2022-10-26T19:15:11Z*%
FMAT,2
ICI,OFF
METRIC,TZ,000.000
T3C0.200
T2C0.300
T1C0.650
%
G90
M71
T1
X25Y2102
X10623Y-151
X5543Y-151
X11893Y-151
X4273Y-151
X3003Y-151
X25Y7182
X25Y8452
X25Y5912
X25Y9722
X25Y4642
X25Y10992
X25Y3372
X14907Y11016
X14907Y7206
X14907Y8476
X14907Y5936
X14907Y9746
X14907Y4666
X14907Y3396
X14907Y2126
X8083Y-151
X9353Y-151
X6813Y-151
T2
X9900Y11670
X10445Y9654
X7538Y2090
X1765Y7648
X2179Y12404
X12220Y6565
X2650Y3985
X9361Y3841
X2268Y4533
X940Y1550
X887Y10169
X871Y9372
T3
X8508Y9670
X7492Y9670
X7492Y10686
X6222Y10686
X4952Y10686
X3936Y9670
X3936Y8400
X3936Y7130
X4952Y7130
X4952Y8400
X4952Y9670
X4952Y6114
X6222Y6114
X7492Y6114
X6222Y7130
X6222Y8400
X6222Y9670
X7492Y8400
X7492Y7130
X6270Y13238
X6270Y13891
X6274Y14594
X6290Y15384
X7237Y16741
X7921Y12545
X7132Y12545
X10815Y12746
X11841Y12746
X14388Y12753
X11735Y9245
X14388Y11853
X12688Y12753
X13488Y12753
X13278Y6456
X3208Y15973
X9884Y12757
X7237Y17281
X6301Y16084
X7238Y17798
X6538Y17798
X5838Y17798
X5138Y17798
X4524Y17798
X3913Y17798
X613Y17598
X6537Y17281
X5837Y17281
X5137Y17281
X4537Y17281
X6537Y16741
X5837Y16741
X5137Y16741
X4537Y16741
X4537Y16141
X5137Y16141
X3837Y16141
X6270Y12538
X13272Y2484
X1897Y16048
X12500Y2273
X8737Y4329
X14350Y17798
X13715Y17798
X1000Y12700
X3131Y4408
X2700Y5100
X2182Y9148
X2184Y7199
X3580Y3964
X4175Y4056
X4743Y4219
X5260Y3919
X3169Y13073
X3804Y17167
X5800Y4300
X6264Y3909
X13080Y17798
X10700Y4600
X10895Y8148
X1831Y10653
X2302Y13212
X2145Y10148
X512Y15942
X1845Y9648
X1335Y14807
X1116Y15996
X1300Y14100
X3686Y12500
X10100Y1200
X12445Y17798
X11810Y17798
X10286Y17798
X9524Y17798
X8762Y17798
X1643Y13186
X8000Y17798
X10292Y15033
X9651Y15033
X9049Y15016
X8758Y15598
X8733Y16273
X10286Y15639
X9651Y15639
X9270Y16282
X13461Y13988
X12826Y13988
X14223Y13988
X13461Y16782
X12826Y16782
X14096Y16782
X8508Y7130
X8508Y8400
X6790Y4253
M30